%TF.GenerationSoftware,KiCad,Pcbnew,6.0.10-86aedd382b~118~ubuntu22.04.1*%
%TF.CreationDate,2023-01-31T18:18:49-07:00*%
%TF.ProjectId,scaarix_flow_thumb_cluster,73636161-7269-4785-9f66-6c6f775f7468,v1.0.0*%
%TF.SameCoordinates,Original*%
%TF.FileFunction,Copper,L1,Top*%
%TF.FilePolarity,Positive*%
%FSLAX46Y46*%
G04 Gerber Fmt 4.6, Leading zero omitted, Abs format (unit mm)*
G04 Created by KiCad (PCBNEW 6.0.10-86aedd382b~118~ubuntu22.04.1) date 2023-01-31 18:18:49*
%MOMM*%
%LPD*%
G01*
G04 APERTURE LIST*
G04 Aperture macros list*
%AMRotRect*
0 Rectangle, with rotation*
0 The origin of the aperture is its center*
0 $1 length*
0 $2 width*
0 $3 Rotation angle, in degrees counterclockwise*
0 Add horizontal line*
21,1,$1,$2,0,0,$3*%
G04 Aperture macros list end*
%TA.AperFunction,ComponentPad*%
%ADD10RotRect,1.778000X1.778000X329.000000*%
%TD*%
%TA.AperFunction,SMDPad,CuDef*%
%ADD11RotRect,0.900000X1.200000X329.000000*%
%TD*%
%TA.AperFunction,ComponentPad*%
%ADD12C,1.905000*%
%TD*%
%TA.AperFunction,ComponentPad*%
%ADD13RotRect,1.778000X1.778000X338.000000*%
%TD*%
%TA.AperFunction,SMDPad,CuDef*%
%ADD14RotRect,0.900000X1.200000X338.000000*%
%TD*%
%TA.AperFunction,SMDPad,CuDef*%
%ADD15RotRect,2.600000X1.000000X329.000000*%
%TD*%
%TA.AperFunction,SMDPad,CuDef*%
%ADD16RotRect,2.000000X1.200000X329.000000*%
%TD*%
%TA.AperFunction,SMDPad,CuDef*%
%ADD17RotRect,2.550000X2.500000X338.000000*%
%TD*%
%TA.AperFunction,SMDPad,CuDef*%
%ADD18RotRect,2.550000X2.500000X329.000000*%
%TD*%
%TA.AperFunction,SMDPad,CuDef*%
%ADD19RotRect,2.600000X1.000000X338.000000*%
%TD*%
%TA.AperFunction,SMDPad,CuDef*%
%ADD20RotRect,2.000000X1.200000X338.000000*%
%TD*%
%TA.AperFunction,SMDPad,CuDef*%
%ADD21R,2.200000X2.000000*%
%TD*%
%TA.AperFunction,ComponentPad*%
%ADD22R,6.000000X2.000000*%
%TD*%
%TA.AperFunction,ViaPad*%
%ADD23C,0.800000*%
%TD*%
%TA.AperFunction,Conductor*%
%ADD24C,0.250000*%
%TD*%
G04 APERTURE END LIST*
D10*
%TO.P,D27,1*%
%TO.N,P18*%
X296327893Y-172089405D03*
D11*
X298179374Y-173201887D03*
%TO.P,D27,2*%
%TO.N,2_top*%
X301008026Y-174901513D03*
D12*
X302859507Y-176013995D03*
%TD*%
D13*
%TO.P,D25,1*%
%TO.N,P18*%
X275700830Y-163024949D03*
D14*
X277703547Y-163834099D03*
%TO.P,D25,2*%
%TO.N,1_top*%
X280763253Y-165070301D03*
D12*
X282765970Y-165879451D03*
%TD*%
D15*
%TO.P,LED27,1*%
%TO.N,VCC*%
X299961190Y-169168495D03*
%TO.P,LED27,2*%
%TO.N,D1*%
X299059874Y-170668538D03*
%TO.P,LED27,3*%
%TO.N,GND*%
X302831410Y-172934705D03*
%TO.P,LED27,4*%
%TO.N,P1*%
X303732726Y-171434662D03*
D16*
%TO.P,LED27,11*%
%TO.N,VCC*%
X300077443Y-168392537D03*
%TO.P,LED27,22*%
%TO.N,D1*%
X298429321Y-171135472D03*
%TO.P,LED27,33*%
%TO.N,GND*%
X302715157Y-173710663D03*
%TO.P,LED27,44*%
%TO.N,P1*%
X304363279Y-170967728D03*
%TD*%
D17*
%TO.P,S25,1*%
%TO.N,1_top*%
X289938098Y-156870141D03*
%TO.P,S25,2*%
%TO.N,P10*%
X278903893Y-149672554D03*
%TD*%
D11*
%TO.P,D26,1*%
%TO.N,P19*%
X288393674Y-189487987D03*
D10*
X286542193Y-188375505D03*
D12*
%TO.P,D26,2*%
%TO.N,2_bottom*%
X293073807Y-192300095D03*
D11*
X291222326Y-191187613D03*
%TD*%
D15*
%TO.P,LED26,1*%
%TO.N,VCC*%
X290175490Y-185454695D03*
%TO.P,LED26,2*%
%TO.N,D1*%
X289274174Y-186954738D03*
%TO.P,LED26,3*%
%TO.N,GND*%
X293045710Y-189220905D03*
%TO.P,LED26,4*%
%TO.N,P1*%
X293947026Y-187720862D03*
D16*
%TO.P,LED26,11*%
%TO.N,VCC*%
X290291743Y-184678737D03*
%TO.P,LED26,22*%
%TO.N,D1*%
X288643621Y-187421672D03*
%TO.P,LED26,33*%
%TO.N,GND*%
X292929457Y-189996863D03*
%TO.P,LED26,44*%
%TO.N,P1*%
X294577579Y-187253928D03*
%TD*%
D18*
%TO.P,S27,1*%
%TO.N,2_top*%
X311352727Y-168237540D03*
%TO.P,S27,2*%
%TO.N,P16*%
X301580322Y-159402438D03*
%TD*%
D19*
%TO.P,LED24,1*%
%TO.N,VCC*%
X271714976Y-177188080D03*
%TO.P,LED24,2*%
%TO.N,D1*%
X271059415Y-178810651D03*
%TO.P,LED24,3*%
%TO.N,GND*%
X275139024Y-180458920D03*
%TO.P,LED24,4*%
%TO.N,P1*%
X275794585Y-178836349D03*
D20*
%TO.P,LED24,11*%
%TO.N,VCC*%
X271708411Y-176403489D03*
%TO.P,LED24,22*%
%TO.N,D1*%
X270509670Y-179370478D03*
%TO.P,LED24,33*%
%TO.N,GND*%
X275145589Y-181243511D03*
%TO.P,LED24,44*%
%TO.N,P1*%
X276344330Y-178276522D03*
%TD*%
D19*
%TO.P,LED25,1*%
%TO.N,VCC*%
X278832476Y-159571580D03*
%TO.P,LED25,2*%
%TO.N,D1*%
X278176915Y-161194151D03*
%TO.P,LED25,3*%
%TO.N,GND*%
X282256524Y-162842420D03*
%TO.P,LED25,4*%
%TO.N,P1*%
X282912085Y-161219849D03*
D20*
%TO.P,LED25,11*%
%TO.N,VCC*%
X278825911Y-158786989D03*
%TO.P,LED25,22*%
%TO.N,D1*%
X277627170Y-161753978D03*
%TO.P,LED25,33*%
%TO.N,GND*%
X282263089Y-163627011D03*
%TO.P,LED25,44*%
%TO.N,P1*%
X283461830Y-160660022D03*
%TD*%
D13*
%TO.P,D24,1*%
%TO.N,P19*%
X268583230Y-180641349D03*
D14*
X270585947Y-181450499D03*
%TO.P,D24,2*%
%TO.N,1_bottom*%
X273645653Y-182686701D03*
D12*
X275648370Y-183495851D03*
%TD*%
D17*
%TO.P,S24,1*%
%TO.N,1_bottom*%
X282820598Y-174486641D03*
%TO.P,S24,2*%
%TO.N,P10*%
X271786393Y-167289054D03*
%TD*%
D18*
%TO.P,S26,1*%
%TO.N,2_bottom*%
X301567027Y-184523740D03*
%TO.P,S26,2*%
%TO.N,P16*%
X291794622Y-175688638D03*
%TD*%
D21*
%TO.P,J2,1,Pin_1*%
%TO.N,P10*%
X275550000Y-78200000D03*
X279350000Y-78200000D03*
D22*
X277450000Y-78200000D03*
D21*
%TO.P,J2,2,Pin_2*%
%TO.N,P16*%
X275550000Y-84700000D03*
D22*
X277450000Y-84700000D03*
D21*
X279350000Y-84700000D03*
%TO.P,J2,3,Pin_3*%
%TO.N,P18*%
X275550000Y-92450000D03*
X279350000Y-92450000D03*
D22*
X277450000Y-92450000D03*
%TO.P,J2,4,Pin_4*%
%TO.N,P19*%
X277450000Y-99950000D03*
D21*
%TO.N,VCC*%
X279350000Y-107200000D03*
%TO.N,P19*%
X279350000Y-99950000D03*
X275550000Y-99950000D03*
D22*
%TO.P,J2,5,Pin_5*%
%TO.N,VCC*%
X277450000Y-107200000D03*
D21*
X275550000Y-107200000D03*
%TO.P,J2,6,Pin_6*%
%TO.N,D1*%
X275550000Y-114700000D03*
X279350000Y-114700000D03*
D22*
X277450000Y-114700000D03*
D21*
%TO.P,J2,7,Pin_6*%
%TO.N,P1*%
X275550000Y-122200000D03*
D22*
X277450000Y-122200000D03*
D21*
X279350000Y-122200000D03*
D22*
%TO.P,J2,8,Pin_6*%
%TO.N,GND*%
X277450000Y-127950000D03*
D21*
X275550000Y-127950000D03*
X279350000Y-127950000D03*
%TD*%
D23*
%TO.N,GND*%
X273003600Y-180310200D03*
X291104700Y-188307900D03*
X300446900Y-173389100D03*
X280648100Y-161377700D03*
%TO.N,VCC*%
X305854600Y-172659400D03*
X280886200Y-160366800D03*
X297986800Y-168482100D03*
X287989600Y-179812200D03*
X273181700Y-178814600D03*
X289477400Y-167211900D03*
%TO.N,P19*%
X278460700Y-168367100D03*
%TO.N,P16*%
X292811200Y-172313000D03*
%TO.N,P10*%
X272834200Y-165013700D03*
X284038500Y-152854400D03*
%TO.N,P1*%
X284970600Y-177290900D03*
X301037600Y-170897500D03*
X284970600Y-181912800D03*
X295913100Y-185830500D03*
X273575500Y-176827200D03*
X280769300Y-159238800D03*
X277210900Y-176762200D03*
%TO.N,1_top*%
X282738600Y-146468500D03*
%TO.N,2_bottom*%
X298867700Y-177831400D03*
%TO.N,D1*%
X298390700Y-175251600D03*
X292296800Y-184914500D03*
X272229600Y-181229200D03*
X291309200Y-187189100D03*
X280199700Y-162865300D03*
%TD*%
D24*
%TO.N,GND*%
X292929500Y-189996900D02*
X291595800Y-189195600D01*
X292929500Y-189996900D02*
X293045700Y-189880700D01*
X277936000Y-176461800D02*
X277824000Y-176349800D01*
X301381500Y-172909400D02*
X300901800Y-173389100D01*
X282256500Y-163620400D02*
X282256500Y-162842400D01*
X280775100Y-146381900D02*
X284792800Y-150399600D01*
X291104700Y-188307900D02*
X291166100Y-188369300D01*
X299721800Y-174114200D02*
X299721800Y-175831800D01*
X280924800Y-163620400D02*
X282256500Y-163620400D01*
X280775100Y-127950000D02*
X280775100Y-146381900D01*
X276954900Y-180109200D02*
X277824000Y-179240100D01*
X277450000Y-127950000D02*
X280775100Y-127950000D01*
X291166100Y-188369300D02*
X291595800Y-188799000D01*
X277824000Y-176349800D02*
X277824000Y-174476000D01*
X277711500Y-174363500D02*
X277711500Y-166744500D01*
X296567700Y-183956300D02*
X295032100Y-185491900D01*
X300901800Y-173389100D02*
X300446900Y-173389100D01*
X284792800Y-150399600D02*
X284792800Y-157841300D01*
X302715200Y-173710700D02*
X301381500Y-172909400D01*
X292084400Y-187121000D02*
X292084400Y-187451000D01*
X273323200Y-179725300D02*
X273323200Y-179990600D01*
X300446900Y-173389100D02*
X299721800Y-174114200D01*
X284792800Y-157841300D02*
X284973500Y-158022000D01*
X293045700Y-189880700D02*
X293045700Y-189220900D01*
X275139000Y-180458900D02*
X276954900Y-181192500D01*
X302715200Y-173710700D02*
X302831400Y-173594500D01*
X276954900Y-181192500D02*
X276954900Y-180109200D01*
X283718000Y-162842400D02*
X282256500Y-162842400D01*
X275139000Y-181236900D02*
X275139000Y-180458900D01*
X279350000Y-127950000D02*
X277450000Y-127950000D01*
X295032100Y-185491900D02*
X293713500Y-185491900D01*
X277824000Y-177174600D02*
X277936000Y-177062600D01*
X292084400Y-187451000D02*
X291166100Y-188369300D01*
X284973500Y-158022000D02*
X284973500Y-161586900D01*
X284973500Y-161586900D02*
X283718000Y-162842400D01*
X302831400Y-173594500D02*
X302831400Y-172934700D01*
X277824000Y-174476000D02*
X277711500Y-174363500D01*
X296567700Y-178985900D02*
X296567700Y-183956300D01*
X277824000Y-179240100D02*
X277824000Y-177174600D01*
X277711500Y-166744500D02*
X280835600Y-163620400D01*
X275139000Y-180458900D02*
X273323200Y-179725300D01*
X280835600Y-163620400D02*
X280924800Y-163620400D01*
X277936000Y-177062600D02*
X277936000Y-176461800D01*
X275550000Y-127950000D02*
X277450000Y-127950000D01*
X299721800Y-175831800D02*
X296567700Y-178985900D01*
X273323200Y-179990600D02*
X273003600Y-180310200D01*
X275145600Y-181243500D02*
X275139000Y-181236900D01*
X280924800Y-163620400D02*
X280924800Y-162564900D01*
X280648100Y-162288200D02*
X280648100Y-161377700D01*
X282263100Y-163627000D02*
X282256500Y-163620400D01*
X293713500Y-185491900D02*
X292084400Y-187121000D01*
X291595800Y-188799000D02*
X291595800Y-189195600D01*
X280924800Y-162564900D02*
X280648100Y-162288200D01*
%TO.N,VCC*%
X299987800Y-168482100D02*
X299961200Y-168482100D01*
X271708400Y-176403500D02*
X271715000Y-176410100D01*
X275082900Y-120098200D02*
X274075600Y-121105500D01*
X289477400Y-178324400D02*
X287989600Y-179812200D01*
X278832500Y-159571600D02*
X278825900Y-159565000D01*
X287989600Y-182376600D02*
X288958200Y-183345200D01*
X288958200Y-183345200D02*
X288958200Y-183877400D01*
X301411100Y-169193800D02*
X301411200Y-169193700D01*
X274075600Y-121105500D02*
X274075600Y-126213200D01*
X299961200Y-168482100D02*
X299961200Y-169168500D01*
X273530800Y-177943800D02*
X273181700Y-178292900D01*
X280775100Y-115878300D02*
X276555200Y-120098200D01*
X273625500Y-126663300D02*
X273625500Y-129236600D01*
X271715000Y-176410100D02*
X271715000Y-177188100D01*
X300077400Y-168392500D02*
X299987800Y-168482100D01*
X278825900Y-159565000D02*
X278825900Y-158787000D01*
X290291700Y-184678700D02*
X288958100Y-183877500D01*
X275369300Y-152784200D02*
X275369300Y-155330400D01*
X278825900Y-158787000D02*
X277250800Y-158150600D01*
X290175500Y-185454700D02*
X290291700Y-185338500D01*
X275369300Y-155330400D02*
X277250800Y-157211900D01*
X277250800Y-157211900D02*
X277250800Y-158150600D01*
X277450000Y-107200000D02*
X280775100Y-107200000D01*
X274919200Y-130530300D02*
X274919200Y-152334100D01*
X273625500Y-129236600D02*
X274919200Y-130530300D01*
X273181700Y-178292900D02*
X273181700Y-178814600D01*
X280767600Y-160293000D02*
X280618200Y-160293000D01*
X273530800Y-177921700D02*
X273530800Y-177943800D01*
X274919200Y-152334100D02*
X275369300Y-152784200D01*
X280775100Y-107200000D02*
X280775100Y-115878300D01*
X274075600Y-126213200D02*
X273625500Y-126663300D01*
X275550000Y-107200000D02*
X277450000Y-107200000D01*
X271715000Y-177188100D02*
X273530800Y-177921700D01*
X300077400Y-168392500D02*
X301411100Y-169193800D01*
X301411200Y-169193700D02*
X304270800Y-169193700D01*
X290291700Y-185338500D02*
X290291700Y-184678700D01*
X276555200Y-120098200D02*
X275082900Y-120098200D01*
X304270800Y-169193700D02*
X305854600Y-170777500D01*
X287989600Y-179812200D02*
X287989600Y-182376600D01*
X305854600Y-170777500D02*
X305854600Y-172659400D01*
X289477400Y-167211900D02*
X289477400Y-178324400D01*
X288958200Y-183877400D02*
X288958100Y-183877500D01*
X280886200Y-160366800D02*
X280841400Y-160366800D01*
X278832500Y-159571600D02*
X280618200Y-160293000D01*
X280841400Y-160366800D02*
X280767600Y-160293000D01*
X299961200Y-168482100D02*
X297986800Y-168482100D01*
%TO.N,P19*%
X269520700Y-181020100D02*
X269520700Y-181020200D01*
X287136800Y-188970000D02*
X286839500Y-188672700D01*
X291938000Y-154639100D02*
X281559800Y-144260900D01*
X286542200Y-174770000D02*
X286542200Y-188375500D01*
X268962100Y-181020200D02*
X268583200Y-180641300D01*
X281559800Y-144260900D02*
X281559800Y-103484900D01*
X288393700Y-189488000D02*
X287531500Y-188970000D01*
X279350000Y-99950000D02*
X279350000Y-101275100D01*
X275550000Y-99950000D02*
X277450000Y-99950000D01*
X279350000Y-99950000D02*
X277450000Y-99950000D01*
X281145500Y-169373300D02*
X286542200Y-174770000D01*
X270585900Y-181450500D02*
X269520700Y-181020100D01*
X280139300Y-168367100D02*
X278460700Y-168367100D01*
X269520700Y-181020200D02*
X268962100Y-181020200D01*
X286839500Y-188672700D02*
X286839400Y-188672700D01*
X291938000Y-158580800D02*
X291938000Y-154639100D01*
X286839400Y-188672700D02*
X286542200Y-188375500D01*
X281145500Y-169373300D02*
X291938000Y-158580800D01*
X281559800Y-103484900D02*
X279350000Y-101275100D01*
X281145500Y-169373300D02*
X280139300Y-168367100D01*
X287531500Y-188970000D02*
X287136800Y-188970000D01*
%TO.N,P18*%
X275550000Y-93775100D02*
X274063800Y-95261300D01*
X276079700Y-163403800D02*
X275700800Y-163024900D01*
X274120300Y-161444400D02*
X274120300Y-162386400D01*
X298179400Y-173201900D02*
X297317200Y-172683900D01*
X277703500Y-163834100D02*
X276638300Y-163403700D01*
X296922400Y-172683900D02*
X296327900Y-172089400D01*
X276638300Y-163403700D02*
X276638300Y-163403800D01*
X273613800Y-130498100D02*
X273613800Y-160937900D01*
X273175400Y-125840200D02*
X272725300Y-126290300D01*
X273613800Y-119286800D02*
X273175400Y-119725200D01*
X273613800Y-160937900D02*
X274120300Y-161444400D01*
X275550000Y-92450000D02*
X277450000Y-92450000D01*
X274063800Y-96918400D02*
X273613800Y-97368400D01*
X272725300Y-129609600D02*
X273613800Y-130498100D01*
X272725300Y-126290300D02*
X272725300Y-129609600D01*
X276638300Y-163403800D02*
X276079700Y-163403800D01*
X275550000Y-92450000D02*
X275550000Y-93775100D01*
X273175400Y-119725200D02*
X273175400Y-125840200D01*
X273613800Y-97368400D02*
X273613800Y-119286800D01*
X297317200Y-172683900D02*
X296922400Y-172683900D01*
X274063800Y-95261300D02*
X274063800Y-96918400D01*
X275700800Y-163024900D02*
X274120300Y-162386400D01*
X279350000Y-92450000D02*
X277450000Y-92450000D01*
%TO.N,P16*%
X301580300Y-159402400D02*
X300563600Y-161094600D01*
X292811200Y-161094600D02*
X292811200Y-172313000D01*
X292811200Y-154699700D02*
X282234900Y-144123400D01*
X292811200Y-161094600D02*
X292811200Y-154699700D01*
X279350000Y-84700000D02*
X277450000Y-84700000D01*
X275550000Y-84700000D02*
X277450000Y-84700000D01*
X282234900Y-144123400D02*
X282234900Y-88910000D01*
X279350000Y-84700000D02*
X279350000Y-86025100D01*
X291794600Y-175688600D02*
X292811200Y-173996400D01*
X292811200Y-172313000D02*
X292811200Y-173996400D01*
X292811200Y-161094600D02*
X300563600Y-161094600D01*
X282234900Y-88910000D02*
X279350000Y-86025100D01*
%TO.N,P10*%
X284038500Y-150351100D02*
X284038500Y-152854400D01*
X271786400Y-167289100D02*
X272618600Y-165229300D01*
X275550000Y-78200000D02*
X275550000Y-79525100D01*
X282729200Y-149041800D02*
X284038500Y-150351100D01*
X272275200Y-164454700D02*
X272834200Y-165013700D01*
X272834200Y-165013700D02*
X272618600Y-165229300D01*
X278903900Y-149672600D02*
X279534700Y-149041800D01*
X279534700Y-149041800D02*
X282729200Y-149041800D01*
X275550000Y-79525100D02*
X272275200Y-82799900D01*
X272275200Y-82799900D02*
X272275200Y-164454700D01*
X279350000Y-78200000D02*
X277450000Y-78200000D01*
X277450000Y-78200000D02*
X275550000Y-78200000D01*
%TO.N,P1*%
X275550000Y-125375500D02*
X274075600Y-126849900D01*
X274075600Y-129050100D02*
X275903700Y-130878200D01*
X304199700Y-170967700D02*
X304363300Y-170967700D01*
X295911300Y-188055100D02*
X296068900Y-187897500D01*
X284970600Y-181912800D02*
X284970600Y-177290900D01*
X275794600Y-178826200D02*
X275574500Y-178826200D01*
X282912100Y-161219800D02*
X283461800Y-160670100D01*
X275794600Y-178836300D02*
X275794600Y-178826200D01*
X279350000Y-122200000D02*
X277450000Y-122200000D01*
X303732700Y-171434700D02*
X304199700Y-170967700D01*
X277210900Y-176762200D02*
X276344300Y-177628800D01*
X295913100Y-186866600D02*
X295913100Y-185830500D01*
X282912100Y-161219800D02*
X280931200Y-159238900D01*
X280769300Y-159238900D02*
X280769300Y-159238800D01*
X275574500Y-178826200D02*
X273575500Y-176827200D01*
X275903700Y-130878200D02*
X275903700Y-154602100D01*
X283461800Y-160670100D02*
X283461800Y-160660000D01*
X294577600Y-187253900D02*
X295911300Y-188055100D01*
X293947000Y-187720900D02*
X294110600Y-187720900D01*
X303732700Y-171434700D02*
X302163200Y-170491700D01*
X275794600Y-178826200D02*
X276344300Y-178276500D01*
X274075600Y-126849900D02*
X274075600Y-129050100D01*
X296068900Y-187022400D02*
X295913100Y-186866600D01*
X278598500Y-157296900D02*
X279160300Y-157296900D01*
X302163200Y-170491700D02*
X301757400Y-170897500D01*
X280931200Y-159238900D02*
X280769300Y-159238900D01*
X280769300Y-158905900D02*
X280769300Y-159238800D01*
X275550000Y-122200000D02*
X275550000Y-125375500D01*
X294110600Y-187720900D02*
X294577600Y-187253900D01*
X301757400Y-170897500D02*
X301037600Y-170897500D01*
X279160300Y-157296900D02*
X280769300Y-158905900D01*
X296068900Y-187897500D02*
X296068900Y-187022400D01*
X277450000Y-122200000D02*
X275550000Y-122200000D01*
X275903700Y-154602100D02*
X278598500Y-157296900D01*
X276344300Y-177628800D02*
X276344300Y-178276500D01*
%TO.N,1_bottom*%
X274710900Y-183117000D02*
X275269500Y-183117000D01*
X275269500Y-183117000D02*
X275648400Y-183495900D01*
X273645700Y-182686700D02*
X274710900Y-183117100D01*
X281988400Y-176546400D02*
X281988500Y-176546400D01*
X281988500Y-177155800D02*
X275648400Y-183495900D01*
X281988500Y-176546400D02*
X281988500Y-177155800D01*
X282820600Y-174486600D02*
X281988400Y-176546400D01*
X274710900Y-183117100D02*
X274710900Y-183117000D01*
%TO.N,1_top*%
X282766000Y-165269900D02*
X282766000Y-165879500D01*
X282766000Y-165879500D02*
X282207300Y-165879500D01*
X289938100Y-156870100D02*
X289105900Y-158929900D01*
X280763300Y-165070300D02*
X281828500Y-165500700D01*
X289106000Y-158929900D02*
X282766000Y-165269900D01*
X282738600Y-146468500D02*
X282933600Y-146468500D01*
X289105900Y-158929900D02*
X289106000Y-158929900D01*
X290770200Y-154810300D02*
X290770300Y-154810300D01*
X289938100Y-153978200D02*
X290770200Y-154810300D01*
X282933600Y-146468500D02*
X289938100Y-153473000D01*
X282207300Y-165879500D02*
X281828500Y-165500700D01*
X289938100Y-153473000D02*
X289938100Y-153978200D01*
X289938100Y-156870100D02*
X290770300Y-154810300D01*
%TO.N,2_bottom*%
X301567000Y-184523700D02*
X300550300Y-186215900D01*
X293790600Y-192300100D02*
X293073800Y-192300100D01*
X301567000Y-179949500D02*
X301567000Y-181814900D01*
X300550300Y-186215900D02*
X299874800Y-186215900D01*
X301567000Y-184523700D02*
X302583600Y-182831500D01*
X292679000Y-192300100D02*
X293073800Y-192300100D01*
X291222300Y-191187600D02*
X292084500Y-191705600D01*
X299874800Y-186215900D02*
X293790600Y-192300100D01*
X292084500Y-191705600D02*
X292679000Y-192300100D01*
X299448900Y-177831400D02*
X301567000Y-179949500D01*
X301567000Y-181814900D02*
X302583600Y-182831500D01*
X298867700Y-177831400D02*
X299448900Y-177831400D01*
%TO.N,2_top*%
X302859500Y-176014000D02*
X303576200Y-176014000D01*
X301008000Y-174901500D02*
X301870200Y-175419500D01*
X306010800Y-173789100D02*
X309870200Y-169929700D01*
X301870200Y-175419500D02*
X302464700Y-176014000D01*
X305801100Y-173789100D02*
X306010800Y-173789100D01*
X302464700Y-176014000D02*
X302859500Y-176014000D01*
X309870200Y-169929700D02*
X310336000Y-169929700D01*
X311352700Y-168237500D02*
X310336000Y-169929700D01*
X303576200Y-176014000D02*
X305801100Y-173789100D01*
%TO.N,D1*%
X277450000Y-114700000D02*
X275550000Y-114700000D01*
X298429300Y-171135500D02*
X297095600Y-170334300D01*
X275550000Y-116025100D02*
X274075600Y-117499500D01*
X269986400Y-177943300D02*
X269913300Y-178016400D01*
X279350000Y-114700000D02*
X277450000Y-114700000D01*
X274075600Y-158202400D02*
X276052000Y-160178800D01*
X288643600Y-187421700D02*
X288807200Y-187421700D01*
X288807200Y-187421700D02*
X289274200Y-186954700D01*
X279202300Y-162390400D02*
X279202300Y-162415100D01*
X297095600Y-170334300D02*
X296902600Y-170527300D01*
X291090300Y-186970200D02*
X291309200Y-187189100D01*
X291866700Y-182091300D02*
X291866700Y-184484400D01*
X274075600Y-130323300D02*
X274075600Y-158202400D01*
X298592900Y-171135500D02*
X299059900Y-170668500D01*
X289274200Y-186954700D02*
X291090300Y-186954700D01*
X295852700Y-170527300D02*
X294761200Y-171618800D01*
X273175400Y-129423100D02*
X274075600Y-130323300D01*
X298390700Y-175251600D02*
X296910800Y-175251600D01*
X279749500Y-162415100D02*
X280199700Y-162865300D01*
X272229600Y-179323600D02*
X272229600Y-181229200D01*
X293966500Y-180632700D02*
X293325300Y-180632700D01*
X293325300Y-180632700D02*
X291866700Y-182091300D01*
X269627500Y-178016400D02*
X268934500Y-178709400D01*
X279202300Y-162415100D02*
X279749500Y-162415100D01*
X291090300Y-186954700D02*
X292296800Y-185748200D01*
X271059400Y-178810700D02*
X272162200Y-179256200D01*
X278684400Y-162933000D02*
X278684400Y-165065100D01*
X296910800Y-177688400D02*
X293966500Y-180632700D01*
X274075600Y-119461600D02*
X273625500Y-119911700D01*
X291866700Y-184484400D02*
X292296800Y-184914500D01*
X279202300Y-162415100D02*
X278684400Y-162933000D01*
X296902600Y-170527300D02*
X295852700Y-170527300D01*
X277627200Y-161754000D02*
X278176900Y-161204300D01*
X298429300Y-171135500D02*
X298592900Y-171135500D01*
X273625500Y-126026700D02*
X273175400Y-126476800D01*
X269913300Y-178016400D02*
X269627500Y-178016400D01*
X276705600Y-167043900D02*
X276705600Y-169290600D01*
X296910800Y-175251600D02*
X296910800Y-177688400D01*
X278684400Y-165065100D02*
X276705600Y-167043900D01*
X294761200Y-171618800D02*
X294761200Y-173102000D01*
X275550000Y-114700000D02*
X275550000Y-116025100D01*
X269986400Y-176009800D02*
X269986400Y-177943300D01*
X271059400Y-178820800D02*
X271059400Y-178810700D01*
X270509700Y-179370500D02*
X268934500Y-178734100D01*
X273175400Y-126476800D02*
X273175400Y-129423100D01*
X273625500Y-119911700D02*
X273625500Y-126026700D01*
X270509700Y-179370500D02*
X271059400Y-178820800D01*
X268934500Y-178709400D02*
X268934500Y-178734100D01*
X277627200Y-161754000D02*
X276052000Y-161117600D01*
X291090300Y-186954700D02*
X291090300Y-186970200D01*
X276705600Y-169290600D02*
X269986400Y-176009800D01*
X276052000Y-160178800D02*
X276052000Y-161117600D01*
X277627200Y-161754000D02*
X279202300Y-162390400D01*
X294761200Y-173102000D02*
X296910800Y-175251600D01*
X272162200Y-179256200D02*
X272229600Y-179323600D01*
X274075600Y-117499500D02*
X274075600Y-119461600D01*
X292296800Y-185748200D02*
X292296800Y-184914500D01*
X278176900Y-161204300D02*
X278176900Y-161194200D01*
%TD*%
%TA.AperFunction,NonConductor*%
G36*
X282233621Y-72516045D02*
G01*
X282280114Y-72569701D01*
X282291500Y-72622043D01*
X282291500Y-87766506D01*
X282271498Y-87834627D01*
X282217842Y-87881120D01*
X282147568Y-87891224D01*
X282082988Y-87861730D01*
X282076405Y-87855601D01*
X280598495Y-86377690D01*
X280564469Y-86315378D01*
X280569534Y-86244562D01*
X280612081Y-86187727D01*
X280643361Y-86170613D01*
X280688295Y-86153768D01*
X280688296Y-86153767D01*
X280696705Y-86150615D01*
X280813261Y-86063261D01*
X280900615Y-85946705D01*
X280951745Y-85810316D01*
X280958500Y-85748134D01*
X280958500Y-83651866D01*
X280951745Y-83589684D01*
X280900615Y-83453295D01*
X280813261Y-83336739D01*
X280696705Y-83249385D01*
X280560316Y-83198255D01*
X280498134Y-83191500D01*
X274401866Y-83191500D01*
X274339684Y-83198255D01*
X274203295Y-83249385D01*
X274086739Y-83336739D01*
X273999385Y-83453295D01*
X273948255Y-83589684D01*
X273941500Y-83651866D01*
X273941500Y-85748134D01*
X273948255Y-85810316D01*
X273999385Y-85946705D01*
X274086739Y-86063261D01*
X274203295Y-86150615D01*
X274339684Y-86201745D01*
X274401866Y-86208500D01*
X278651923Y-86208500D01*
X278720044Y-86228502D01*
X278763104Y-86279211D01*
X278763981Y-86278692D01*
X278763982Y-86278693D01*
X278768019Y-86285519D01*
X278774293Y-86296128D01*
X278782988Y-86313876D01*
X278790448Y-86332717D01*
X278795110Y-86339133D01*
X278795110Y-86339134D01*
X278816436Y-86368487D01*
X278822952Y-86378407D01*
X278845458Y-86416462D01*
X278859779Y-86430783D01*
X278872619Y-86445816D01*
X278884528Y-86462207D01*
X278890634Y-86467258D01*
X278918605Y-86490398D01*
X278927384Y-86498388D01*
X281564495Y-89135499D01*
X281598521Y-89197811D01*
X281601400Y-89224594D01*
X281601400Y-102326406D01*
X281581398Y-102394527D01*
X281527742Y-102441020D01*
X281457468Y-102451124D01*
X281392888Y-102421630D01*
X281386321Y-102415517D01*
X280598493Y-101627688D01*
X280564469Y-101565378D01*
X280569534Y-101494562D01*
X280612081Y-101437727D01*
X280643361Y-101420613D01*
X280688295Y-101403768D01*
X280688296Y-101403767D01*
X280696705Y-101400615D01*
X280813261Y-101313261D01*
X280900615Y-101196705D01*
X280951745Y-101060316D01*
X280958500Y-100998134D01*
X280958500Y-98901866D01*
X280951745Y-98839684D01*
X280900615Y-98703295D01*
X280813261Y-98586739D01*
X280696705Y-98499385D01*
X280560316Y-98448255D01*
X280498134Y-98441500D01*
X274401866Y-98441500D01*
X274386908Y-98443125D01*
X274317026Y-98430597D01*
X274265010Y-98382277D01*
X274247300Y-98317862D01*
X274247300Y-97682995D01*
X274267302Y-97614874D01*
X274284205Y-97593899D01*
X274456059Y-97422046D01*
X274464337Y-97414513D01*
X274470818Y-97410400D01*
X274517430Y-97360762D01*
X274520185Y-97357919D01*
X274537134Y-97340971D01*
X274539935Y-97338170D01*
X274542415Y-97334973D01*
X274550120Y-97325951D01*
X274580386Y-97293721D01*
X274584205Y-97286775D01*
X274584207Y-97286772D01*
X274590148Y-97275966D01*
X274600999Y-97259447D01*
X274608558Y-97249701D01*
X274613414Y-97243441D01*
X274616559Y-97236172D01*
X274616562Y-97236168D01*
X274630974Y-97202863D01*
X274636191Y-97192213D01*
X274657495Y-97153460D01*
X274662533Y-97133837D01*
X274668937Y-97115134D01*
X274673833Y-97103820D01*
X274673833Y-97103819D01*
X274676981Y-97096545D01*
X274678220Y-97088722D01*
X274678223Y-97088712D01*
X274683899Y-97052876D01*
X274686305Y-97041256D01*
X274695328Y-97006111D01*
X274695328Y-97006110D01*
X274697300Y-96998430D01*
X274697300Y-96978176D01*
X274698851Y-96958465D01*
X274700780Y-96946286D01*
X274702020Y-96938457D01*
X274697859Y-96894438D01*
X274697300Y-96882581D01*
X274697300Y-95575894D01*
X274717302Y-95507773D01*
X274734205Y-95486799D01*
X275942247Y-94278757D01*
X275950537Y-94271213D01*
X275957018Y-94267100D01*
X276003659Y-94217432D01*
X276006413Y-94214591D01*
X276026134Y-94194870D01*
X276028612Y-94191675D01*
X276036318Y-94182653D01*
X276061158Y-94156201D01*
X276066586Y-94150421D01*
X276076346Y-94132668D01*
X276087199Y-94116145D01*
X276094753Y-94106406D01*
X276099613Y-94100141D01*
X276117176Y-94059557D01*
X276122383Y-94048927D01*
X276136198Y-94023797D01*
X276186544Y-93973740D01*
X276246612Y-93958500D01*
X280498134Y-93958500D01*
X280560316Y-93951745D01*
X280696705Y-93900615D01*
X280813261Y-93813261D01*
X280900615Y-93696705D01*
X280951745Y-93560316D01*
X280958500Y-93498134D01*
X280958500Y-91401866D01*
X280951745Y-91339684D01*
X280900615Y-91203295D01*
X280813261Y-91086739D01*
X280696705Y-90999385D01*
X280560316Y-90948255D01*
X280498134Y-90941500D01*
X274401866Y-90941500D01*
X274339684Y-90948255D01*
X274203295Y-90999385D01*
X274086739Y-91086739D01*
X273999385Y-91203295D01*
X273948255Y-91339684D01*
X273941500Y-91401866D01*
X273941500Y-93498134D01*
X273948255Y-93560316D01*
X273999385Y-93696705D01*
X274086739Y-93813261D01*
X274203295Y-93900615D01*
X274211704Y-93903767D01*
X274211705Y-93903768D01*
X274256639Y-93920613D01*
X274313404Y-93963254D01*
X274338104Y-94029816D01*
X274322897Y-94099165D01*
X274301505Y-94127690D01*
X273671547Y-94757648D01*
X273663261Y-94765188D01*
X273656782Y-94769300D01*
X273651357Y-94775077D01*
X273610157Y-94818951D01*
X273607402Y-94821793D01*
X273587665Y-94841530D01*
X273585185Y-94844727D01*
X273577482Y-94853747D01*
X273547214Y-94885979D01*
X273543395Y-94892925D01*
X273543393Y-94892928D01*
X273537452Y-94903734D01*
X273526601Y-94920253D01*
X273514186Y-94936259D01*
X273511041Y-94943528D01*
X273511038Y-94943532D01*
X273496626Y-94976837D01*
X273491409Y-94987487D01*
X273470105Y-95026240D01*
X273468134Y-95033915D01*
X273468134Y-95033916D01*
X273465067Y-95045862D01*
X273458663Y-95064566D01*
X273450619Y-95083155D01*
X273449380Y-95090978D01*
X273449377Y-95090988D01*
X273443701Y-95126824D01*
X273441295Y-95138444D01*
X273430300Y-95181270D01*
X273430300Y-95201524D01*
X273428749Y-95221234D01*
X273425580Y-95241243D01*
X273426326Y-95249135D01*
X273429741Y-95285261D01*
X273430300Y-95297119D01*
X273430300Y-96603805D01*
X273410298Y-96671926D01*
X273393395Y-96692901D01*
X273221541Y-96864754D01*
X273213263Y-96872287D01*
X273206782Y-96876400D01*
X273201355Y-96882179D01*
X273201353Y-96882181D01*
X273160173Y-96926035D01*
X273157417Y-96928879D01*
X273137665Y-96948630D01*
X273135186Y-96951827D01*
X273127465Y-96960865D01*
X273126535Y-96961855D01*
X273065316Y-96997810D01*
X272994376Y-96994959D01*
X272936240Y-96954209D01*
X272909363Y-96888496D01*
X272908700Y-96875586D01*
X272908700Y-83114494D01*
X272928702Y-83046373D01*
X272945605Y-83025399D01*
X275942247Y-80028757D01*
X275950537Y-80021213D01*
X275957018Y-80017100D01*
X276003659Y-79967432D01*
X276006413Y-79964591D01*
X276026135Y-79944869D01*
X276028612Y-79941676D01*
X276036317Y-79932655D01*
X276061159Y-79906200D01*
X276066586Y-79900421D01*
X276070407Y-79893471D01*
X276076346Y-79882668D01*
X276087202Y-79866141D01*
X276094757Y-79856402D01*
X276094758Y-79856400D01*
X276099614Y-79850140D01*
X276117174Y-79809560D01*
X276122391Y-79798911D01*
X276132890Y-79779815D01*
X276136198Y-79773797D01*
X276186544Y-79723740D01*
X276246612Y-79708500D01*
X280498134Y-79708500D01*
X280560316Y-79701745D01*
X280696705Y-79650615D01*
X280813261Y-79563261D01*
X280900615Y-79446705D01*
X280951745Y-79310316D01*
X280958500Y-79248134D01*
X280958500Y-77151866D01*
X280951745Y-77089684D01*
X280900615Y-76953295D01*
X280813261Y-76836739D01*
X280696705Y-76749385D01*
X280560316Y-76698255D01*
X280498134Y-76691500D01*
X274401866Y-76691500D01*
X274339684Y-76698255D01*
X274203295Y-76749385D01*
X274086739Y-76836739D01*
X273999385Y-76953295D01*
X273948255Y-77089684D01*
X273941500Y-77151866D01*
X273941500Y-79248134D01*
X273948255Y-79310316D01*
X273999385Y-79446705D01*
X274086739Y-79563261D01*
X274203295Y-79650615D01*
X274211704Y-79653767D01*
X274211707Y-79653769D01*
X274256639Y-79670613D01*
X274313404Y-79713254D01*
X274338105Y-79779815D01*
X274322898Y-79849164D01*
X274301506Y-79877690D01*
X272423595Y-81755600D01*
X272361283Y-81789626D01*
X272290467Y-81784561D01*
X272233632Y-81742014D01*
X272208821Y-81675494D01*
X272208500Y-81666505D01*
X272208500Y-72622043D01*
X272228502Y-72553922D01*
X272282158Y-72507429D01*
X272334500Y-72496043D01*
X282165500Y-72496043D01*
X282233621Y-72516045D01*
G37*
%TD.AperFunction*%
%TA.AperFunction,NonConductor*%
G36*
X274401866Y-101458500D02*
G01*
X278651923Y-101458500D01*
X278720044Y-101478502D01*
X278763104Y-101529211D01*
X278763981Y-101528692D01*
X278763982Y-101528693D01*
X278768019Y-101535519D01*
X278774293Y-101546128D01*
X278782988Y-101563876D01*
X278790448Y-101582717D01*
X278795110Y-101589133D01*
X278795110Y-101589134D01*
X278816436Y-101618487D01*
X278822952Y-101628407D01*
X278845458Y-101666462D01*
X278859779Y-101680783D01*
X278872619Y-101695816D01*
X278884528Y-101712207D01*
X278890634Y-101717258D01*
X278918605Y-101740398D01*
X278927384Y-101748388D01*
X280889395Y-103710400D01*
X280923421Y-103772712D01*
X280926300Y-103799495D01*
X280926300Y-105669566D01*
X280906298Y-105737687D01*
X280852642Y-105784180D01*
X280782368Y-105794284D01*
X280724736Y-105770393D01*
X280703891Y-105754770D01*
X280703888Y-105754768D01*
X280696705Y-105749385D01*
X280560316Y-105698255D01*
X280498134Y-105691500D01*
X274401866Y-105691500D01*
X274386908Y-105693125D01*
X274317026Y-105680597D01*
X274265010Y-105632277D01*
X274247300Y-105567862D01*
X274247300Y-101582138D01*
X274267302Y-101514017D01*
X274320958Y-101467524D01*
X274386908Y-101456875D01*
X274401866Y-101458500D01*
G37*
%TD.AperFunction*%
%TA.AperFunction,NonConductor*%
G36*
X274401866Y-108708500D02*
G01*
X280015600Y-108708500D01*
X280083721Y-108728502D01*
X280130214Y-108782158D01*
X280141600Y-108834500D01*
X280141600Y-113065500D01*
X280121598Y-113133621D01*
X280067942Y-113180114D01*
X280015600Y-113191500D01*
X274401866Y-113191500D01*
X274386908Y-113193125D01*
X274317026Y-113180597D01*
X274265010Y-113132277D01*
X274247300Y-113067862D01*
X274247300Y-108832138D01*
X274267302Y-108764017D01*
X274320958Y-108717524D01*
X274386908Y-108706875D01*
X274401866Y-108708500D01*
G37*
%TD.AperFunction*%
%TA.AperFunction,NonConductor*%
G36*
X279312927Y-116228502D02*
G01*
X279359420Y-116282158D01*
X279369524Y-116352432D01*
X279340030Y-116417012D01*
X279333901Y-116423595D01*
X276329700Y-119427795D01*
X276267388Y-119461821D01*
X276240605Y-119464700D01*
X275161663Y-119464700D01*
X275150479Y-119464173D01*
X275142991Y-119462499D01*
X275135068Y-119462748D01*
X275074933Y-119464638D01*
X275070975Y-119464700D01*
X275043044Y-119464700D01*
X275039129Y-119465195D01*
X275039125Y-119465195D01*
X275039067Y-119465203D01*
X275039038Y-119465206D01*
X275027196Y-119466139D01*
X274983010Y-119467527D01*
X274965644Y-119472572D01*
X274963558Y-119473178D01*
X274944206Y-119477186D01*
X274937135Y-119478080D01*
X274924103Y-119479726D01*
X274916734Y-119482643D01*
X274916732Y-119482644D01*
X274882997Y-119496000D01*
X274871757Y-119499848D01*
X274870242Y-119500288D01*
X274799246Y-119500079D01*
X274739633Y-119461520D01*
X274710330Y-119396852D01*
X274709100Y-119379288D01*
X274709100Y-117814094D01*
X274729102Y-117745973D01*
X274746005Y-117724999D01*
X275942247Y-116528757D01*
X275950537Y-116521213D01*
X275957018Y-116517100D01*
X276003659Y-116467432D01*
X276006413Y-116464591D01*
X276026134Y-116444870D01*
X276028612Y-116441675D01*
X276036318Y-116432653D01*
X276061158Y-116406201D01*
X276066586Y-116400421D01*
X276076346Y-116382668D01*
X276087199Y-116366145D01*
X276094753Y-116356406D01*
X276099613Y-116350141D01*
X276117176Y-116309557D01*
X276122383Y-116298927D01*
X276136198Y-116273797D01*
X276186544Y-116223740D01*
X276246612Y-116208500D01*
X279244806Y-116208500D01*
X279312927Y-116228502D01*
G37*
%TD.AperFunction*%
%TA.AperFunction,NonConductor*%
G36*
X280844333Y-116809139D02*
G01*
X280901168Y-116851686D01*
X280925979Y-116918206D01*
X280926300Y-116927195D01*
X280926300Y-120669566D01*
X280906298Y-120737687D01*
X280852642Y-120784180D01*
X280782368Y-120794284D01*
X280724736Y-120770393D01*
X280703891Y-120754770D01*
X280703888Y-120754768D01*
X280696705Y-120749385D01*
X280560316Y-120698255D01*
X280498134Y-120691500D01*
X277161994Y-120691500D01*
X277093873Y-120671498D01*
X277047380Y-120617842D01*
X277037276Y-120547568D01*
X277066770Y-120482988D01*
X277072899Y-120476405D01*
X280711205Y-116838100D01*
X280773517Y-116804074D01*
X280844333Y-116809139D01*
G37*
%TD.AperFunction*%
%TA.AperFunction,NonConductor*%
G36*
X280860625Y-123619813D02*
G01*
X280910854Y-123669988D01*
X280926300Y-123730434D01*
X280926300Y-126419566D01*
X280906298Y-126487687D01*
X280852642Y-126534180D01*
X280782368Y-126544284D01*
X280724736Y-126520393D01*
X280703891Y-126504770D01*
X280703888Y-126504768D01*
X280696705Y-126499385D01*
X280560316Y-126448255D01*
X280498134Y-126441500D01*
X275684094Y-126441500D01*
X275615973Y-126421498D01*
X275569480Y-126367842D01*
X275559376Y-126297568D01*
X275588870Y-126232988D01*
X275594999Y-126226405D01*
X275942247Y-125879157D01*
X275950537Y-125871613D01*
X275957018Y-125867500D01*
X276003659Y-125817832D01*
X276006413Y-125814991D01*
X276026134Y-125795270D01*
X276028612Y-125792075D01*
X276036318Y-125783053D01*
X276061158Y-125756601D01*
X276066586Y-125750821D01*
X276076346Y-125733068D01*
X276087199Y-125716545D01*
X276094753Y-125706806D01*
X276099613Y-125700541D01*
X276117176Y-125659957D01*
X276122383Y-125649327D01*
X276143695Y-125610560D01*
X276145666Y-125602883D01*
X276145668Y-125602878D01*
X276148732Y-125590942D01*
X276155138Y-125572230D01*
X276160034Y-125560917D01*
X276163181Y-125553645D01*
X276170097Y-125509981D01*
X276172504Y-125498360D01*
X276181528Y-125463211D01*
X276181528Y-125463210D01*
X276183500Y-125455530D01*
X276183500Y-125435269D01*
X276185051Y-125415558D01*
X276186979Y-125403385D01*
X276188219Y-125395557D01*
X276184059Y-125351546D01*
X276183500Y-125339689D01*
X276183500Y-123834500D01*
X276203502Y-123766379D01*
X276257158Y-123719886D01*
X276309500Y-123708500D01*
X280498134Y-123708500D01*
X280560316Y-123701745D01*
X280696705Y-123650615D01*
X280703888Y-123645232D01*
X280703891Y-123645230D01*
X280724736Y-123629607D01*
X280791242Y-123604760D01*
X280860625Y-123619813D01*
G37*
%TD.AperFunction*%
%TA.AperFunction,NonConductor*%
G36*
X281617112Y-145214570D02*
G01*
X281623695Y-145220699D01*
X282073730Y-145670734D01*
X282107756Y-145733046D01*
X282102691Y-145803861D01*
X282078274Y-145844135D01*
X281999560Y-145931556D01*
X281904073Y-146096944D01*
X281845058Y-146278572D01*
X281844702Y-146281963D01*
X281811536Y-146343394D01*
X281749386Y-146377715D01*
X281678547Y-146372986D01*
X281632923Y-146343818D01*
X281445505Y-146156400D01*
X281411479Y-146094088D01*
X281408600Y-146067305D01*
X281408600Y-145309794D01*
X281428602Y-145241673D01*
X281482258Y-145195180D01*
X281552532Y-145185076D01*
X281617112Y-145214570D01*
G37*
%TD.AperFunction*%
%TA.AperFunction,NonConductor*%
G36*
X280083721Y-129478502D02*
G01*
X280130214Y-129532158D01*
X280141600Y-129584500D01*
X280141600Y-146303133D01*
X280141073Y-146314316D01*
X280139398Y-146321809D01*
X280139647Y-146329735D01*
X280139647Y-146329736D01*
X280141538Y-146389886D01*
X280141600Y-146393845D01*
X280141600Y-146421756D01*
X280142097Y-146425690D01*
X280142097Y-146425691D01*
X280142105Y-146425756D01*
X280143038Y-146437593D01*
X280144427Y-146481789D01*
X280150078Y-146501239D01*
X280154087Y-146520600D01*
X280156626Y-146540697D01*
X280159545Y-146548068D01*
X280159545Y-146548070D01*
X280172904Y-146581812D01*
X280176749Y-146593042D01*
X280189082Y-146635493D01*
X280193115Y-146642312D01*
X280193117Y-146642317D01*
X280199393Y-146652928D01*
X280208088Y-146670676D01*
X280215548Y-146689517D01*
X280220210Y-146695933D01*
X280220210Y-146695934D01*
X280241536Y-146725287D01*
X280248052Y-146735207D01*
X280270558Y-146773262D01*
X280284879Y-146787583D01*
X280297719Y-146802616D01*
X280309628Y-146819007D01*
X280315734Y-146824058D01*
X280343705Y-146847198D01*
X280352484Y-146855188D01*
X281690501Y-148193205D01*
X281724527Y-148255517D01*
X281719462Y-148326332D01*
X281676915Y-148383168D01*
X281610395Y-148407979D01*
X281601406Y-148408300D01*
X280493503Y-148408300D01*
X280446303Y-148399125D01*
X280090861Y-148255517D01*
X278335850Y-147546446D01*
X278275666Y-147529416D01*
X278267775Y-147529216D01*
X278267773Y-147529216D01*
X278159261Y-147526470D01*
X278130054Y-147525731D01*
X278121383Y-147528030D01*
X277997936Y-147560761D01*
X277997935Y-147560761D01*
X277989262Y-147563061D01*
X277864606Y-147638407D01*
X277858538Y-147645018D01*
X277858535Y-147645020D01*
X277812441Y-147695235D01*
X277766107Y-147745711D01*
X277736550Y-147800834D01*
X277735272Y-147803996D01*
X277735272Y-147803997D01*
X276780025Y-150168317D01*
X276735961Y-150223985D01*
X276668796Y-150246993D01*
X276599854Y-150230036D01*
X276551024Y-150178498D01*
X276537200Y-150121117D01*
X276537200Y-130956967D01*
X276537727Y-130945784D01*
X276539402Y-130938291D01*
X276537262Y-130870200D01*
X276537200Y-130866243D01*
X276537200Y-130838344D01*
X276536696Y-130834353D01*
X276535763Y-130822511D01*
X276534623Y-130786236D01*
X276534374Y-130778311D01*
X276532162Y-130770697D01*
X276532161Y-130770692D01*
X276528723Y-130758859D01*
X276524712Y-130739495D01*
X276523167Y-130727264D01*
X276522174Y-130719403D01*
X276519257Y-130712036D01*
X276519256Y-130712031D01*
X276505898Y-130678292D01*
X276502054Y-130667065D01*
X276491930Y-130632222D01*
X276489718Y-130624607D01*
X276479407Y-130607172D01*
X276470712Y-130589424D01*
X276463252Y-130570583D01*
X276437264Y-130534813D01*
X276430748Y-130524893D01*
X276412280Y-130493665D01*
X276412278Y-130493662D01*
X276408242Y-130486838D01*
X276393921Y-130472517D01*
X276381080Y-130457483D01*
X276373831Y-130447506D01*
X276369172Y-130441093D01*
X276363068Y-130436043D01*
X276363063Y-130436038D01*
X276335102Y-130412907D01*
X276326321Y-130404917D01*
X275595000Y-129673595D01*
X275560975Y-129611283D01*
X275566040Y-129540467D01*
X275608587Y-129483632D01*
X275675107Y-129458821D01*
X275684096Y-129458500D01*
X280015600Y-129458500D01*
X280083721Y-129478502D01*
G37*
%TD.AperFunction*%
%TA.AperFunction,NonConductor*%
G36*
X285536155Y-149987085D02*
G01*
X285587350Y-150018155D01*
X286225103Y-150655908D01*
X286259129Y-150718220D01*
X286254064Y-150789035D01*
X286211517Y-150845871D01*
X286162206Y-150868250D01*
X286120578Y-150877098D01*
X286116449Y-150878601D01*
X286116445Y-150878602D01*
X285860767Y-150971661D01*
X285860763Y-150971663D01*
X285856622Y-150973170D01*
X285611453Y-151103529D01*
X285541916Y-151117849D01*
X285475676Y-151092302D01*
X285433763Y-151034997D01*
X285426300Y-150992278D01*
X285426300Y-150478367D01*
X285426827Y-150467184D01*
X285428502Y-150459691D01*
X285426362Y-150391600D01*
X285426300Y-150387643D01*
X285426300Y-150359744D01*
X285425796Y-150355753D01*
X285424863Y-150343911D01*
X285423723Y-150307636D01*
X285423474Y-150299711D01*
X285421262Y-150292097D01*
X285421261Y-150292092D01*
X285417823Y-150280259D01*
X285413812Y-150260895D01*
X285412267Y-150248664D01*
X285411274Y-150240803D01*
X285408357Y-150233436D01*
X285408356Y-150233431D01*
X285394998Y-150199692D01*
X285391154Y-150188465D01*
X285378818Y-150146007D01*
X285381143Y-150145331D01*
X285373920Y-150086837D01*
X285404694Y-150022856D01*
X285465173Y-149985671D01*
X285536155Y-149987085D01*
G37*
%TD.AperFunction*%
%TA.AperFunction,NonConductor*%
G36*
X276745712Y-150502087D02*
G01*
X276778653Y-150547351D01*
X276780586Y-150554640D01*
X276855931Y-150679296D01*
X276862542Y-150685364D01*
X276862544Y-150685367D01*
X276898334Y-150718220D01*
X276963235Y-150777795D01*
X276970203Y-150781531D01*
X277015352Y-150805740D01*
X277015357Y-150805742D01*
X277018359Y-150807352D01*
X277021521Y-150808630D01*
X277021522Y-150808630D01*
X278244629Y-151302798D01*
X278300297Y-151346862D01*
X278323305Y-151414027D01*
X278306348Y-151482969D01*
X278296719Y-151497196D01*
X278167242Y-151662920D01*
X278165046Y-151666724D01*
X278165041Y-151666731D01*
X278065075Y-151839878D01*
X278026794Y-151906183D01*
X277921568Y-152166626D01*
X277920503Y-152170899D01*
X277920502Y-152170901D01*
X277872682Y-152362698D01*
X277853613Y-152439178D01*
X277853154Y-152443546D01*
X277853153Y-152443551D01*
X277831697Y-152647697D01*
X277824252Y-152718535D01*
X277824405Y-152722923D01*
X277824405Y-152722929D01*
X277832865Y-152965178D01*
X277834055Y-152999260D01*
X277834817Y-153003583D01*
X277834818Y-153003590D01*
X277862542Y-153160819D01*
X277854673Y-153231379D01*
X277809905Y-153286482D01*
X277738456Y-153308699D01*
X277649481Y-153308699D01*
X277582525Y-153314380D01*
X277482844Y-153322838D01*
X277482840Y-153322839D01*
X277477533Y-153323289D01*
X277472378Y-153324627D01*
X277472372Y-153324628D01*
X277259403Y-153379904D01*
X277259399Y-153379905D01*
X277254234Y-153381246D01*
X277249368Y-153383438D01*
X277249365Y-153383439D01*
X277048757Y-153473806D01*
X277043891Y-153475998D01*
X277039471Y-153478974D01*
X277039467Y-153478976D01*
X276966123Y-153528355D01*
X276852521Y-153604837D01*
X276750172Y-153702473D01*
X276687075Y-153735020D01*
X276616398Y-153728288D01*
X276560581Y-153684415D01*
X276537200Y-153611303D01*
X276537200Y-150597311D01*
X276557202Y-150529190D01*
X276610858Y-150482697D01*
X276681132Y-150472593D01*
X276745712Y-150502087D01*
G37*
%TD.AperFunction*%
%TA.AperFunction,NonConductor*%
G36*
X283083454Y-152673245D02*
G01*
X283125366Y-152730549D01*
X283132139Y-152786438D01*
X283124996Y-152854400D01*
X283125686Y-152860965D01*
X283141853Y-153014781D01*
X283144958Y-153044328D01*
X283203973Y-153225956D01*
X283299460Y-153391344D01*
X283303878Y-153396251D01*
X283303879Y-153396252D01*
X283342159Y-153438766D01*
X283427247Y-153533266D01*
X283581748Y-153645518D01*
X283587776Y-153648202D01*
X283587778Y-153648203D01*
X283750181Y-153720509D01*
X283756212Y-153723194D01*
X283849613Y-153743047D01*
X283936556Y-153761528D01*
X283936561Y-153761528D01*
X283943013Y-153762900D01*
X284033300Y-153762900D01*
X284101421Y-153782902D01*
X284147914Y-153836558D01*
X284159300Y-153888900D01*
X284159300Y-154496573D01*
X284139298Y-154564694D01*
X284085642Y-154611187D01*
X284015368Y-154621291D01*
X283952985Y-154593658D01*
X283898717Y-154548764D01*
X283891282Y-154542613D01*
X283690680Y-154415307D01*
X283628771Y-154376018D01*
X283628770Y-154376018D01*
X283625424Y-154373894D01*
X283621845Y-154372210D01*
X283621838Y-154372206D01*
X283344106Y-154241516D01*
X283344102Y-154241514D01*
X283340516Y-154239827D01*
X283041052Y-154142525D01*
X282731754Y-154083523D01*
X282638200Y-154077637D01*
X282498142Y-154068825D01*
X282498126Y-154068824D01*
X282496147Y-154068700D01*
X282338853Y-154068700D01*
X282336874Y-154068824D01*
X282336858Y-154068825D01*
X282196800Y-154077637D01*
X282103246Y-154083523D01*
X281793948Y-154142525D01*
X281560906Y-154218245D01*
X281489940Y-154220273D01*
X281429142Y-154183610D01*
X281397816Y-154119898D01*
X281405909Y-154049364D01*
X281422681Y-154020839D01*
X281502911Y-153918149D01*
X281502912Y-153918148D01*
X281505618Y-153914684D01*
X281507814Y-153910880D01*
X281507819Y-153910873D01*
X281643865Y-153675233D01*
X281646066Y-153671421D01*
X281751292Y-153410978D01*
X281772822Y-153324628D01*
X281818183Y-153142695D01*
X281818184Y-153142690D01*
X281819247Y-153138426D01*
X281821784Y-153114295D01*
X281830555Y-153030835D01*
X281857568Y-152965178D01*
X281915790Y-152924548D01*
X281955865Y-152918005D01*
X282035601Y-152918005D01*
X282037787Y-152917852D01*
X282037791Y-152917852D01*
X282241282Y-152903623D01*
X282241287Y-152903622D01*
X282245667Y-152903316D01*
X282520425Y-152844914D01*
X282524554Y-152843411D01*
X282524558Y-152843410D01*
X282780236Y-152750351D01*
X282780240Y-152750349D01*
X282784381Y-152748842D01*
X282788280Y-152746769D01*
X282947676Y-152662017D01*
X283017213Y-152647697D01*
X283083454Y-152673245D01*
G37*
%TD.AperFunction*%
%TA.AperFunction,NonConductor*%
G36*
X288788877Y-153233626D02*
G01*
X288830401Y-153261206D01*
X289267695Y-153698500D01*
X289301721Y-153760812D01*
X289304600Y-153787595D01*
X289304600Y-153899433D01*
X289304073Y-153910616D01*
X289302398Y-153918109D01*
X289302647Y-153926035D01*
X289302647Y-153926036D01*
X289304538Y-153986186D01*
X289304600Y-153990145D01*
X289304600Y-154018056D01*
X289305097Y-154021990D01*
X289305097Y-154021991D01*
X289305105Y-154022056D01*
X289306038Y-154033893D01*
X289307427Y-154078089D01*
X289313078Y-154097539D01*
X289317087Y-154116900D01*
X289319626Y-154136997D01*
X289322545Y-154144368D01*
X289322545Y-154144370D01*
X289335904Y-154178112D01*
X289339749Y-154189342D01*
X289352082Y-154231793D01*
X289356115Y-154238612D01*
X289356117Y-154238617D01*
X289362393Y-154249228D01*
X289371088Y-154266976D01*
X289378548Y-154285817D01*
X289383210Y-154292233D01*
X289383210Y-154292234D01*
X289404536Y-154321587D01*
X289411052Y-154331507D01*
X289422881Y-154351508D01*
X289433558Y-154369562D01*
X289447879Y-154383883D01*
X289460719Y-154398916D01*
X289472628Y-154415307D01*
X289478733Y-154420358D01*
X289478738Y-154420363D01*
X289506698Y-154443494D01*
X289515476Y-154451481D01*
X289667025Y-154603030D01*
X289701049Y-154665340D01*
X289695985Y-154736156D01*
X289653438Y-154792992D01*
X289586918Y-154817803D01*
X289530729Y-154808949D01*
X289373226Y-154745314D01*
X289373223Y-154745313D01*
X289370055Y-154744033D01*
X289309871Y-154727003D01*
X289301980Y-154726803D01*
X289301978Y-154726803D01*
X289193466Y-154724057D01*
X289164259Y-154723318D01*
X289155588Y-154725617D01*
X289032141Y-154758348D01*
X289032140Y-154758348D01*
X289023467Y-154760648D01*
X288898811Y-154835994D01*
X288897302Y-154833497D01*
X288845531Y-154855413D01*
X288775566Y-154843349D01*
X288723231Y-154795375D01*
X288717843Y-154785478D01*
X288716000Y-154781700D01*
X288645231Y-154636602D01*
X288642776Y-154632963D01*
X288642773Y-154632957D01*
X288552952Y-154499792D01*
X288488156Y-154403728D01*
X288470288Y-154383883D01*
X288303137Y-154198244D01*
X288300200Y-154194982D01*
X288296837Y-154192160D01*
X288293665Y-154189097D01*
X288294956Y-154187760D01*
X288259887Y-154135025D01*
X288258776Y-154064037D01*
X288280924Y-154020066D01*
X288342022Y-153941864D01*
X288342028Y-153941855D01*
X288344736Y-153938389D01*
X288346932Y-153934585D01*
X288346937Y-153934578D01*
X288482983Y-153698938D01*
X288485184Y-153695126D01*
X288590410Y-153434683D01*
X288619049Y-153319819D01*
X288654937Y-153258560D01*
X288718246Y-153226429D01*
X288788877Y-153233626D01*
G37*
%TD.AperFunction*%
%TA.AperFunction,NonConductor*%
G36*
X279417820Y-154758209D02*
G01*
X279422170Y-154758820D01*
X279422173Y-154758821D01*
X279525120Y-154773289D01*
X279695982Y-154797302D01*
X279906576Y-154797302D01*
X279908762Y-154797149D01*
X279908766Y-154797149D01*
X280112257Y-154782920D01*
X280112262Y-154782919D01*
X280116642Y-154782613D01*
X280391400Y-154724211D01*
X280395534Y-154722707D01*
X280399758Y-154721495D01*
X280400304Y-154723399D01*
X280463081Y-154719428D01*
X280525112Y-154753965D01*
X280558623Y-154816555D01*
X280552975Y-154887326D01*
X280527136Y-154928577D01*
X280491835Y-154966169D01*
X280485555Y-154972856D01*
X280300476Y-155227596D01*
X280298569Y-155231065D01*
X280298567Y-155231068D01*
X280173117Y-155459261D01*
X280148784Y-155503523D01*
X280123321Y-155567836D01*
X280053930Y-155743097D01*
X280032870Y-155796287D01*
X279954564Y-156101270D01*
X279915100Y-156413662D01*
X279915100Y-156728538D01*
X279926445Y-156818341D01*
X279930755Y-156852461D01*
X279919449Y-156922552D01*
X279872043Y-156975403D01*
X279803590Y-156994234D01*
X279735822Y-156973068D01*
X279716654Y-156957348D01*
X279663948Y-156904642D01*
X279656413Y-156896362D01*
X279652300Y-156889882D01*
X279602648Y-156843256D01*
X279599807Y-156840502D01*
X279580070Y-156820765D01*
X279576873Y-156818285D01*
X279567851Y-156810580D01*
X279541400Y-156785741D01*
X279535621Y-156780314D01*
X279528675Y-156776495D01*
X279528672Y-156776493D01*
X279517866Y-156770552D01*
X279501347Y-156759701D01*
X279500883Y-156759341D01*
X279485341Y-156747286D01*
X279478072Y-156744141D01*
X279478068Y-156744138D01*
X279444763Y-156729726D01*
X279434113Y-156724509D01*
X279395360Y-156703205D01*
X279375737Y-156698167D01*
X279357034Y-156691763D01*
X279345720Y-156686867D01*
X279345719Y-156686867D01*
X279338445Y-156683719D01*
X279330622Y-156682480D01*
X279330612Y-156682477D01*
X279294776Y-156676801D01*
X279283156Y-156674395D01*
X279248011Y-156665372D01*
X279248010Y-156665372D01*
X279240330Y-156663400D01*
X279220076Y-156663400D01*
X279200365Y-156661849D01*
X279188186Y-156659920D01*
X279180357Y-156658680D01*
X279172465Y-156659426D01*
X279136339Y-156662841D01*
X279124481Y-156663400D01*
X278913094Y-156663400D01*
X278844973Y-156643398D01*
X278823999Y-156626495D01*
X278284009Y-156086505D01*
X278249983Y-156024193D01*
X278255048Y-155953378D01*
X278297595Y-155896542D01*
X278321354Y-155882528D01*
X278366055Y-155862392D01*
X278370921Y-155860200D01*
X278375341Y-155857224D01*
X278375345Y-155857222D01*
X278520400Y-155759564D01*
X278562291Y-155731361D01*
X278729218Y-155572121D01*
X278866927Y-155387033D01*
X278971483Y-155181387D01*
X279027071Y-155002366D01*
X279038311Y-154966169D01*
X279038312Y-154966163D01*
X279039895Y-154961066D01*
X279059048Y-154816555D01*
X279060438Y-154806071D01*
X279089217Y-154741169D01*
X279148517Y-154702129D01*
X279220075Y-154701507D01*
X279417820Y-154758209D01*
G37*
%TD.AperFunction*%
%TA.AperFunction,NonConductor*%
G36*
X285633291Y-157201003D02*
G01*
X285714742Y-157269348D01*
X285718121Y-157272183D01*
X285956335Y-157421035D01*
X285960345Y-157422821D01*
X285960350Y-157422823D01*
X286008088Y-157444077D01*
X286062184Y-157490057D01*
X286082834Y-157557984D01*
X286063482Y-157626292D01*
X286057939Y-157634383D01*
X285968073Y-157755167D01*
X285863517Y-157960813D01*
X285851795Y-157998564D01*
X285812491Y-158057689D01*
X285747461Y-158086178D01*
X285677352Y-158074987D01*
X285624423Y-158027669D01*
X285605525Y-157965154D01*
X285605240Y-157956055D01*
X285604173Y-157922110D01*
X285598522Y-157902658D01*
X285594514Y-157883306D01*
X285592968Y-157871068D01*
X285592967Y-157871066D01*
X285591974Y-157863203D01*
X285575694Y-157822086D01*
X285571859Y-157810885D01*
X285559518Y-157768406D01*
X285555485Y-157761587D01*
X285555483Y-157761582D01*
X285549207Y-157750971D01*
X285540510Y-157733221D01*
X285533052Y-157714383D01*
X285507071Y-157678623D01*
X285500553Y-157668701D01*
X285482078Y-157637460D01*
X285482074Y-157637455D01*
X285478042Y-157630637D01*
X285463718Y-157616313D01*
X285450881Y-157601285D01*
X285450367Y-157600578D01*
X285426506Y-157533712D01*
X285426300Y-157526512D01*
X285426300Y-157297524D01*
X285446302Y-157229403D01*
X285499958Y-157182910D01*
X285570232Y-157172806D01*
X285633291Y-157201003D01*
G37*
%TD.AperFunction*%
%TA.AperFunction,NonConductor*%
G36*
X281941618Y-159027845D02*
G01*
X282061665Y-159050745D01*
X282103246Y-159058677D01*
X282196800Y-159064563D01*
X282336858Y-159073375D01*
X282336874Y-159073376D01*
X282338853Y-159073500D01*
X282408931Y-159073500D01*
X282477052Y-159093502D01*
X282523545Y-159147158D01*
X282533649Y-159217432D01*
X282504155Y-159282012D01*
X282474108Y-159307333D01*
X282446494Y-159324024D01*
X282434024Y-159331561D01*
X282427956Y-159338172D01*
X282427953Y-159338174D01*
X282340871Y-159433041D01*
X282335525Y-159438865D01*
X282328429Y-159452100D01*
X282308034Y-159490136D01*
X282258216Y-159540719D01*
X282188959Y-159556339D01*
X282122252Y-159532036D01*
X282107895Y-159519690D01*
X281828913Y-159240708D01*
X281794887Y-159178396D01*
X281799952Y-159107581D01*
X281842499Y-159050745D01*
X281909019Y-159025934D01*
X281941618Y-159027845D01*
G37*
%TD.AperFunction*%
%TA.AperFunction,NonConductor*%
G36*
X284268947Y-158382751D02*
G01*
X284321527Y-158430458D01*
X284340000Y-158496139D01*
X284340000Y-159632468D01*
X284319998Y-159700589D01*
X284266342Y-159747082D01*
X284196068Y-159757186D01*
X284166802Y-159749294D01*
X282942372Y-159254592D01*
X282886704Y-159210528D01*
X282863696Y-159143363D01*
X282880653Y-159074421D01*
X282932191Y-159025591D01*
X282965960Y-159014000D01*
X283041052Y-158999675D01*
X283340516Y-158902373D01*
X283344102Y-158900686D01*
X283344106Y-158900684D01*
X283621838Y-158769994D01*
X283621845Y-158769990D01*
X283625424Y-158768306D01*
X283891282Y-158599587D01*
X284133686Y-158399054D01*
X284198922Y-158371044D01*
X284268947Y-158382751D01*
G37*
%TD.AperFunction*%
%TA.AperFunction,NonConductor*%
G36*
X274915417Y-155777094D02*
G01*
X274937906Y-155795699D01*
X274946684Y-155803688D01*
X276580395Y-157437400D01*
X276614421Y-157499712D01*
X276617300Y-157526495D01*
X276617300Y-158124072D01*
X276616993Y-158132862D01*
X276613260Y-158186238D01*
X276614692Y-158194040D01*
X276623879Y-158244101D01*
X276624955Y-158251052D01*
X276632326Y-158309397D01*
X276635244Y-158316768D01*
X276637215Y-158324444D01*
X276637205Y-158324447D01*
X276638315Y-158328318D01*
X276638324Y-158328315D01*
X276640721Y-158335873D01*
X276642152Y-158343668D01*
X276666839Y-158397095D01*
X276669595Y-158403528D01*
X276691248Y-158458217D01*
X276695911Y-158464635D01*
X276699726Y-158471575D01*
X276699718Y-158471580D01*
X276701757Y-158475056D01*
X276701765Y-158475051D01*
X276705963Y-158481770D01*
X276709289Y-158488967D01*
X276714299Y-158495110D01*
X276746469Y-158534556D01*
X276750760Y-158540128D01*
X276785328Y-158587707D01*
X276791438Y-158592761D01*
X276796861Y-158598537D01*
X276796854Y-158598544D01*
X276799693Y-158601403D01*
X276799699Y-158601396D01*
X276805439Y-158606863D01*
X276810449Y-158613005D01*
X276816827Y-158617707D01*
X276816831Y-158617711D01*
X276857802Y-158647917D01*
X276863326Y-158652232D01*
X276908656Y-158689733D01*
X276915830Y-158693108D01*
X276922523Y-158697356D01*
X276922517Y-158697365D01*
X276925970Y-158699424D01*
X276925975Y-158699415D01*
X276932902Y-158703286D01*
X276939279Y-158707988D01*
X276972554Y-158721432D01*
X276993809Y-158730020D01*
X277000257Y-158732837D01*
X277046309Y-158754508D01*
X277046312Y-158754509D01*
X277053482Y-158757883D01*
X277061270Y-158759368D01*
X277064322Y-158760360D01*
X277122929Y-158800432D01*
X277150567Y-158865828D01*
X277142214Y-158927393D01*
X276950329Y-159402325D01*
X276949399Y-159405612D01*
X276936245Y-159452100D01*
X276933299Y-159462510D01*
X276933099Y-159470403D01*
X276933099Y-159470404D01*
X276931539Y-159532036D01*
X276929613Y-159608121D01*
X276942847Y-159658033D01*
X276946502Y-159671816D01*
X276944626Y-159742788D01*
X276904678Y-159801479D01*
X276889889Y-159811939D01*
X276867467Y-159825492D01*
X276851055Y-159835412D01*
X276833494Y-159846026D01*
X276803598Y-159878595D01*
X276742798Y-159915252D01*
X276671831Y-159913219D01*
X276608839Y-159867449D01*
X276585563Y-159835412D01*
X276579047Y-159825492D01*
X276577150Y-159822284D01*
X276556542Y-159787438D01*
X276542221Y-159773117D01*
X276529380Y-159758083D01*
X276528728Y-159757186D01*
X276517472Y-159741693D01*
X276483395Y-159713502D01*
X276474616Y-159705512D01*
X274746005Y-157976900D01*
X274711979Y-157914588D01*
X274709100Y-157887805D01*
X274709100Y-155874178D01*
X274729102Y-155806057D01*
X274782758Y-155759564D01*
X274853032Y-155749460D01*
X274915417Y-155777094D01*
G37*
%TD.AperFunction*%
%TA.AperFunction,NonConductor*%
G36*
X285815512Y-158891578D02*
G01*
X285850192Y-158940520D01*
X285905561Y-159080723D01*
X285958330Y-159167684D01*
X286016118Y-159262915D01*
X286025241Y-159277950D01*
X286028738Y-159281980D01*
X286164876Y-159438865D01*
X286176441Y-159452193D01*
X286209098Y-159478970D01*
X286350709Y-159595085D01*
X286350715Y-159595089D01*
X286354837Y-159598469D01*
X286555329Y-159712595D01*
X286560345Y-159714416D01*
X286560350Y-159714418D01*
X286767169Y-159789490D01*
X286767173Y-159789491D01*
X286772184Y-159791310D01*
X286777433Y-159792259D01*
X286777436Y-159792260D01*
X286995117Y-159831623D01*
X286995124Y-159831624D01*
X286999201Y-159832361D01*
X287007741Y-159832764D01*
X287009058Y-159832826D01*
X287076160Y-159856017D01*
X287120072Y-159911804D01*
X287126853Y-159982476D01*
X287092214Y-160047781D01*
X285822095Y-161317901D01*
X285759783Y-161351926D01*
X285688968Y-161346862D01*
X285632132Y-161304315D01*
X285607321Y-161237795D01*
X285607000Y-161228806D01*
X285607000Y-158986802D01*
X285627002Y-158918681D01*
X285680658Y-158872188D01*
X285750932Y-158862084D01*
X285815512Y-158891578D01*
G37*
%TD.AperFunction*%
%TA.AperFunction,NonConductor*%
G36*
X274455812Y-159478970D02*
G01*
X274462395Y-159485099D01*
X275381595Y-160404299D01*
X275415621Y-160466611D01*
X275418500Y-160493394D01*
X275418500Y-161091083D01*
X275418193Y-161099871D01*
X275415155Y-161143331D01*
X275414461Y-161153252D01*
X275418954Y-161177729D01*
X275425082Y-161211117D01*
X275426154Y-161218043D01*
X275426378Y-161219812D01*
X275415074Y-161289900D01*
X275367670Y-161342752D01*
X275299217Y-161361587D01*
X275295930Y-161361311D01*
X275295263Y-161361122D01*
X275200970Y-161358736D01*
X275158623Y-161357664D01*
X275149651Y-161357437D01*
X275008859Y-161394768D01*
X274994912Y-161403198D01*
X274940170Y-161436285D01*
X274871524Y-161454403D01*
X274803980Y-161432533D01*
X274758983Y-161377617D01*
X274751155Y-161350291D01*
X274750973Y-161344510D01*
X274745322Y-161325058D01*
X274741314Y-161305706D01*
X274739767Y-161293463D01*
X274738774Y-161285603D01*
X274735856Y-161278232D01*
X274722500Y-161244497D01*
X274718655Y-161233270D01*
X274713221Y-161214567D01*
X274706318Y-161190807D01*
X274702284Y-161183985D01*
X274702281Y-161183979D01*
X274696006Y-161173368D01*
X274687310Y-161155618D01*
X274682772Y-161144156D01*
X274682769Y-161144151D01*
X274679852Y-161136783D01*
X274653873Y-161101025D01*
X274647357Y-161091107D01*
X274628875Y-161059857D01*
X274624842Y-161053037D01*
X274610518Y-161038713D01*
X274597676Y-161023678D01*
X274585772Y-161007293D01*
X274551706Y-160979111D01*
X274542927Y-160971122D01*
X274284205Y-160712400D01*
X274250179Y-160650088D01*
X274247300Y-160623305D01*
X274247300Y-159574194D01*
X274267302Y-159506073D01*
X274320958Y-159459580D01*
X274391232Y-159449476D01*
X274455812Y-159478970D01*
G37*
%TD.AperFunction*%
%TA.AperFunction,NonConductor*%
G36*
X279526412Y-163476710D02*
G01*
X279537532Y-163487619D01*
X279588447Y-163544166D01*
X279620090Y-163567156D01*
X279716690Y-163637341D01*
X279760044Y-163693564D01*
X279766119Y-163764300D01*
X279731724Y-163828372D01*
X279532995Y-164027101D01*
X279470683Y-164061127D01*
X279399868Y-164056062D01*
X279343032Y-164013515D01*
X279318221Y-163946995D01*
X279317900Y-163938006D01*
X279317900Y-163571934D01*
X279337902Y-163503813D01*
X279391558Y-163457320D01*
X279461832Y-163447216D01*
X279526412Y-163476710D01*
G37*
%TD.AperFunction*%
%TA.AperFunction,NonConductor*%
G36*
X289983545Y-158785107D02*
G01*
X290184137Y-158866151D01*
X290415468Y-158959615D01*
X290471135Y-159003678D01*
X290494143Y-159070843D01*
X290477186Y-159139785D01*
X290457362Y-159165534D01*
X284303445Y-165319450D01*
X284241133Y-165353476D01*
X284170318Y-165348411D01*
X284113482Y-165305864D01*
X284098801Y-165280598D01*
X284060030Y-165191430D01*
X284060024Y-165191419D01*
X284057967Y-165186688D01*
X284004614Y-165104217D01*
X283990399Y-165082243D01*
X283970192Y-165014182D01*
X283989988Y-164946002D01*
X284007096Y-164924708D01*
X286727840Y-162203965D01*
X289511687Y-159420118D01*
X289526719Y-159407279D01*
X289543107Y-159395372D01*
X289548160Y-159389264D01*
X289553360Y-159384381D01*
X289556737Y-159381027D01*
X289556702Y-159380993D01*
X289562166Y-159375256D01*
X289568312Y-159370243D01*
X289573017Y-159363861D01*
X289573020Y-159363858D01*
X289602388Y-159324024D01*
X289606719Y-159318480D01*
X289640078Y-159278156D01*
X289640082Y-159278149D01*
X289645133Y-159272044D01*
X289648401Y-159265100D01*
X289648736Y-159264623D01*
X289650636Y-159261524D01*
X289650912Y-159261004D01*
X289655614Y-159254941D01*
X289658762Y-159247666D01*
X289659084Y-159247123D01*
X289663293Y-159241413D01*
X289666262Y-159234065D01*
X289666264Y-159234061D01*
X289684720Y-159188380D01*
X289687537Y-159181932D01*
X289709907Y-159134394D01*
X289709909Y-159134388D01*
X289713283Y-159127218D01*
X289714720Y-159119682D01*
X289714928Y-159119133D01*
X289716001Y-159115645D01*
X289716137Y-159115080D01*
X289719181Y-159108045D01*
X289720167Y-159101821D01*
X289723022Y-159093577D01*
X289730220Y-159075762D01*
X289819520Y-158854731D01*
X289863583Y-158799065D01*
X289930748Y-158776056D01*
X289983545Y-158785107D01*
G37*
%TD.AperFunction*%
%TA.AperFunction,NonConductor*%
G36*
X273117212Y-161337751D02*
G01*
X273136634Y-161358912D01*
X273148328Y-161375007D01*
X273172060Y-161394640D01*
X273182405Y-161403198D01*
X273191184Y-161411188D01*
X273449895Y-161669899D01*
X273483921Y-161732211D01*
X273486800Y-161758994D01*
X273486800Y-162359897D01*
X273486493Y-162368679D01*
X273482762Y-162422066D01*
X273484193Y-162429861D01*
X273484193Y-162429862D01*
X273493380Y-162479908D01*
X273494457Y-162486866D01*
X273501826Y-162545197D01*
X273504745Y-162552569D01*
X273506716Y-162560247D01*
X273506708Y-162560249D01*
X273507825Y-162564144D01*
X273507833Y-162564142D01*
X273510229Y-162571694D01*
X273511661Y-162579495D01*
X273514988Y-162586694D01*
X273514989Y-162586698D01*
X273536326Y-162632872D01*
X273539099Y-162639341D01*
X273557828Y-162686644D01*
X273557831Y-162686649D01*
X273560748Y-162694017D01*
X273565407Y-162700430D01*
X273569226Y-162707376D01*
X273569219Y-162707380D01*
X273571270Y-162710876D01*
X273571277Y-162710872D01*
X273575479Y-162717597D01*
X273578804Y-162724791D01*
X273583813Y-162730932D01*
X273615969Y-162770357D01*
X273620264Y-162775934D01*
X273641989Y-162805836D01*
X273654828Y-162823507D01*
X273660937Y-162828561D01*
X273666361Y-162834337D01*
X273666355Y-162834343D01*
X273669214Y-162837222D01*
X273669219Y-162837217D01*
X273674963Y-162842686D01*
X273679970Y-162848825D01*
X273686348Y-162853527D01*
X273727313Y-162883728D01*
X273732858Y-162888060D01*
X273778156Y-162925533D01*
X273785326Y-162928907D01*
X273792023Y-162933157D01*
X273792019Y-162933164D01*
X273795497Y-162935237D01*
X273795501Y-162935230D01*
X273802421Y-162939097D01*
X273808803Y-162943802D01*
X273816155Y-162946772D01*
X273863325Y-162965828D01*
X273869777Y-162968647D01*
X273915804Y-162990306D01*
X273915809Y-162990308D01*
X273922982Y-162993683D01*
X273930770Y-162995169D01*
X273938308Y-162997618D01*
X273938305Y-162997626D01*
X273952040Y-163001669D01*
X274050940Y-163041622D01*
X274106610Y-163085683D01*
X274129620Y-163152847D01*
X274120570Y-163205649D01*
X274109276Y-163233604D01*
X274054034Y-163370332D01*
X274037003Y-163430516D01*
X274036803Y-163438413D01*
X274036803Y-163438414D01*
X274036580Y-163447216D01*
X274033318Y-163576128D01*
X274070649Y-163716920D01*
X274075292Y-163724601D01*
X274075292Y-163724602D01*
X274114672Y-163789754D01*
X274145994Y-163841576D01*
X274152605Y-163847644D01*
X274152607Y-163847647D01*
X274247474Y-163934729D01*
X274253298Y-163940075D01*
X274260266Y-163943811D01*
X274305415Y-163968020D01*
X274305420Y-163968022D01*
X274308422Y-163969632D01*
X274311584Y-163970910D01*
X274311585Y-163970910D01*
X276031603Y-164665842D01*
X276046213Y-164671745D01*
X276106397Y-164688776D01*
X276114294Y-164688976D01*
X276114295Y-164688976D01*
X276243037Y-164692234D01*
X276252009Y-164692461D01*
X276392801Y-164655130D01*
X276417213Y-164640375D01*
X276509774Y-164584429D01*
X276509775Y-164584428D01*
X276517457Y-164579785D01*
X276523528Y-164573171D01*
X276528199Y-164569348D01*
X276593582Y-164541680D01*
X276663545Y-164553753D01*
X276693209Y-164574028D01*
X276771310Y-164645721D01*
X276826434Y-164675278D01*
X276829600Y-164676557D01*
X276829604Y-164676559D01*
X277612792Y-164992988D01*
X277668460Y-165037052D01*
X277691468Y-165104217D01*
X277674511Y-165173159D01*
X277654687Y-165198908D01*
X276313347Y-166540248D01*
X276305061Y-166547788D01*
X276298582Y-166551900D01*
X276293157Y-166557677D01*
X276251957Y-166601551D01*
X276249202Y-166604393D01*
X276229465Y-166624130D01*
X276226985Y-166627327D01*
X276219282Y-166636347D01*
X276189014Y-166668579D01*
X276185195Y-166675525D01*
X276185193Y-166675528D01*
X276179252Y-166686334D01*
X276168401Y-166702853D01*
X276155986Y-166718859D01*
X276152841Y-166726128D01*
X276152838Y-166726132D01*
X276138426Y-166759437D01*
X276133209Y-166770087D01*
X276119385Y-166795234D01*
X276069041Y-166845291D01*
X275999624Y-166860185D01*
X275942203Y-166841387D01*
X275793191Y-166748274D01*
X275595091Y-166660074D01*
X275540594Y-166635810D01*
X275540592Y-166635809D01*
X275536580Y-166634023D01*
X275381947Y-166589683D01*
X275270792Y-166557810D01*
X275270791Y-166557810D01*
X275266565Y-166556598D01*
X275262215Y-166555987D01*
X275262212Y-166555986D01*
X275159265Y-166541518D01*
X274988403Y-166517505D01*
X274777809Y-166517505D01*
X274775623Y-166517658D01*
X274775619Y-166517658D01*
X274572128Y-166531887D01*
X274572123Y-166531888D01*
X274567743Y-166532194D01*
X274292985Y-166590596D01*
X274288856Y-166592099D01*
X274288852Y-166592100D01*
X274114466Y-166655571D01*
X274043613Y-166660074D01*
X273981572Y-166625556D01*
X273948043Y-166562975D01*
X273946834Y-166555557D01*
X273947031Y-166547760D01*
X273909700Y-166406968D01*
X273872723Y-166345791D01*
X273838999Y-166289995D01*
X273838998Y-166289994D01*
X273834355Y-166282312D01*
X273827744Y-166276244D01*
X273827742Y-166276241D01*
X273732875Y-166189159D01*
X273727051Y-166183813D01*
X273675982Y-166156430D01*
X273674934Y-166155868D01*
X273674929Y-166155866D01*
X273671927Y-166154256D01*
X273328776Y-166015614D01*
X273273108Y-165971550D01*
X273250100Y-165904385D01*
X273267057Y-165835443D01*
X273301915Y-165796853D01*
X273437804Y-165698123D01*
X273445453Y-165692566D01*
X273573240Y-165550644D01*
X273668727Y-165385256D01*
X273727742Y-165203628D01*
X273729155Y-165190190D01*
X273747014Y-165020265D01*
X273747704Y-165013700D01*
X273742321Y-164962482D01*
X273728432Y-164830335D01*
X273728432Y-164830333D01*
X273727742Y-164823772D01*
X273668727Y-164642144D01*
X273656527Y-164621012D01*
X273597157Y-164518182D01*
X273573240Y-164476756D01*
X273566737Y-164469533D01*
X273449875Y-164339745D01*
X273449874Y-164339744D01*
X273445453Y-164334834D01*
X273316949Y-164241470D01*
X273296294Y-164226463D01*
X273296293Y-164226462D01*
X273290952Y-164222582D01*
X273284924Y-164219898D01*
X273284922Y-164219897D01*
X273122519Y-164147591D01*
X273122518Y-164147591D01*
X273116488Y-164144906D01*
X273008503Y-164121953D01*
X272946030Y-164088224D01*
X272911708Y-164026075D01*
X272908700Y-163998706D01*
X272908700Y-161432975D01*
X272928702Y-161364854D01*
X272982358Y-161318361D01*
X273052632Y-161308257D01*
X273117212Y-161337751D01*
G37*
%TD.AperFunction*%
%TA.AperFunction,NonConductor*%
G36*
X279690537Y-165765533D02*
G01*
X279731710Y-165790766D01*
X279738017Y-165796555D01*
X279831016Y-165881923D01*
X279886140Y-165911480D01*
X280143880Y-166015614D01*
X280806696Y-166283410D01*
X280806705Y-166283413D01*
X280809863Y-166284689D01*
X280813140Y-166285616D01*
X280813148Y-166285619D01*
X280862449Y-166299569D01*
X280862451Y-166299569D01*
X280870048Y-166301719D01*
X280877941Y-166301919D01*
X280877942Y-166301919D01*
X281006685Y-166305178D01*
X281006686Y-166305178D01*
X281015659Y-166305405D01*
X281156452Y-166268074D01*
X281183369Y-166251804D01*
X281252013Y-166233686D01*
X281319557Y-166255555D01*
X281364556Y-166310470D01*
X281366697Y-166316296D01*
X281367047Y-166317847D01*
X281427408Y-166466498D01*
X281453960Y-166531887D01*
X281457433Y-166540441D01*
X281582961Y-166745283D01*
X281740259Y-166926873D01*
X281925103Y-167080334D01*
X282132529Y-167201544D01*
X282137358Y-167203388D01*
X282159934Y-167212009D01*
X282216437Y-167254995D01*
X282240731Y-167321706D01*
X282225101Y-167390961D01*
X282204081Y-167418814D01*
X281234595Y-168388300D01*
X281172283Y-168422326D01*
X281101468Y-168417261D01*
X281056405Y-168388300D01*
X280642952Y-167974847D01*
X280635412Y-167966561D01*
X280631300Y-167960082D01*
X280609108Y-167939242D01*
X280581649Y-167913457D01*
X280578807Y-167910702D01*
X280559070Y-167890965D01*
X280555873Y-167888485D01*
X280546851Y-167880780D01*
X280514621Y-167850514D01*
X280507675Y-167846695D01*
X280507672Y-167846693D01*
X280496866Y-167840752D01*
X280480347Y-167829901D01*
X280477695Y-167827844D01*
X280464341Y-167817486D01*
X280457072Y-167814341D01*
X280457068Y-167814338D01*
X280423763Y-167799926D01*
X280413113Y-167794709D01*
X280374360Y-167773405D01*
X280354737Y-167768367D01*
X280336034Y-167761963D01*
X280324720Y-167757067D01*
X280324719Y-167757067D01*
X280317445Y-167753919D01*
X280309622Y-167752680D01*
X280309612Y-167752677D01*
X280273776Y-167747001D01*
X280262156Y-167744595D01*
X280227011Y-167735572D01*
X280227010Y-167735572D01*
X280219330Y-167733600D01*
X280199076Y-167733600D01*
X280179365Y-167732049D01*
X280167186Y-167730120D01*
X280159357Y-167728880D01*
X280151465Y-167729626D01*
X280115339Y-167733041D01*
X280103481Y-167733600D01*
X279168900Y-167733600D01*
X279100779Y-167713598D01*
X279081553Y-167697257D01*
X279081280Y-167697560D01*
X279076368Y-167693137D01*
X279071953Y-167688234D01*
X279050371Y-167672554D01*
X278922794Y-167579863D01*
X278922793Y-167579862D01*
X278917452Y-167575982D01*
X278911424Y-167573298D01*
X278911422Y-167573297D01*
X278749019Y-167500991D01*
X278749018Y-167500991D01*
X278742988Y-167498306D01*
X278649588Y-167478453D01*
X278562644Y-167459972D01*
X278562639Y-167459972D01*
X278556187Y-167458600D01*
X278471000Y-167458600D01*
X278402879Y-167438598D01*
X278356386Y-167384942D01*
X278345000Y-167332600D01*
X278345000Y-167059094D01*
X278365002Y-166990973D01*
X278381905Y-166969999D01*
X279557410Y-165794494D01*
X279619722Y-165760468D01*
X279690537Y-165765533D01*
G37*
%TD.AperFunction*%
%TA.AperFunction,NonConductor*%
G36*
X306594862Y-167189471D02*
G01*
X306650079Y-167234098D01*
X306666311Y-167266874D01*
X306678707Y-167305025D01*
X306680635Y-167308978D01*
X306680637Y-167308983D01*
X306730724Y-167411676D01*
X306801844Y-167557492D01*
X306804299Y-167561131D01*
X306804302Y-167561137D01*
X306823217Y-167589179D01*
X306958919Y-167790366D01*
X306961864Y-167793637D01*
X306961865Y-167793638D01*
X306994707Y-167830113D01*
X307146875Y-167999112D01*
X307150237Y-168001933D01*
X307150238Y-168001934D01*
X307214609Y-168055947D01*
X307362054Y-168179669D01*
X307373339Y-168186721D01*
X307378409Y-168189889D01*
X307425578Y-168242952D01*
X307436572Y-168313092D01*
X307407899Y-168378041D01*
X307398609Y-168387912D01*
X307397522Y-168388949D01*
X307304098Y-168478071D01*
X307166389Y-168663159D01*
X307061833Y-168868805D01*
X307033273Y-168960782D01*
X306995005Y-169084023D01*
X306995004Y-169084029D01*
X306993421Y-169089126D01*
X306983900Y-169160966D01*
X306963985Y-169311226D01*
X306963110Y-169317825D01*
X306963310Y-169323155D01*
X306963310Y-169323156D01*
X306964351Y-169350894D01*
X306971764Y-169548361D01*
X307019138Y-169774143D01*
X307021096Y-169779102D01*
X307021097Y-169779104D01*
X307044380Y-169838060D01*
X307103877Y-169988715D01*
X307223557Y-170185942D01*
X307227054Y-170189972D01*
X307369170Y-170353746D01*
X307374757Y-170360185D01*
X307399571Y-170380531D01*
X307549025Y-170503077D01*
X307549031Y-170503081D01*
X307553153Y-170506461D01*
X307753645Y-170620587D01*
X307803837Y-170638806D01*
X307956235Y-170694124D01*
X308013443Y-170736169D01*
X308038838Y-170802468D01*
X308024358Y-170871973D01*
X308002338Y-170901658D01*
X307372906Y-171531089D01*
X306776532Y-172127463D01*
X306714220Y-172161489D01*
X306643404Y-172156424D01*
X306595975Y-172120355D01*
X306593640Y-172122457D01*
X306593640Y-172122456D01*
X306520463Y-172041185D01*
X306489747Y-171977179D01*
X306488100Y-171956876D01*
X306488100Y-170856263D01*
X306488627Y-170845079D01*
X306490301Y-170837591D01*
X306488162Y-170769532D01*
X306488100Y-170765575D01*
X306488100Y-170737644D01*
X306487594Y-170733638D01*
X306486661Y-170721792D01*
X306485955Y-170699302D01*
X306485273Y-170677610D01*
X306479622Y-170658158D01*
X306475614Y-170638806D01*
X306474068Y-170626568D01*
X306474067Y-170626566D01*
X306473074Y-170618703D01*
X306456794Y-170577586D01*
X306452959Y-170566385D01*
X306440618Y-170523906D01*
X306436585Y-170517087D01*
X306436583Y-170517082D01*
X306430307Y-170506471D01*
X306421610Y-170488721D01*
X306414152Y-170469883D01*
X306388171Y-170434123D01*
X306381653Y-170424201D01*
X306363178Y-170392960D01*
X306363174Y-170392955D01*
X306359142Y-170386137D01*
X306344818Y-170371813D01*
X306331976Y-170356778D01*
X306320072Y-170340393D01*
X306286006Y-170312211D01*
X306277227Y-170304222D01*
X305140602Y-169167597D01*
X305106576Y-169105285D01*
X305111641Y-169034470D01*
X305154188Y-168977634D01*
X305172455Y-168966655D01*
X305172370Y-168966500D01*
X305175838Y-168964593D01*
X305179424Y-168962906D01*
X305445282Y-168794187D01*
X305687898Y-168593478D01*
X305903445Y-168363944D01*
X305936222Y-168318831D01*
X306086193Y-168112412D01*
X306088524Y-168109204D01*
X306123103Y-168046306D01*
X306238313Y-167836739D01*
X306238314Y-167836736D01*
X306240216Y-167833277D01*
X306356130Y-167540513D01*
X306424437Y-167274475D01*
X306460751Y-167213470D01*
X306524283Y-167181781D01*
X306594862Y-167189471D01*
G37*
%TD.AperFunction*%
%TA.AperFunction,NonConductor*%
G36*
X276996032Y-170000239D02*
G01*
X277052868Y-170042786D01*
X277077679Y-170109306D01*
X277078000Y-170118295D01*
X277078000Y-172143020D01*
X277057998Y-172211141D01*
X277004342Y-172257634D01*
X276934068Y-172267738D01*
X276871685Y-172240105D01*
X276841736Y-172215329D01*
X276773782Y-172159113D01*
X276507924Y-171990394D01*
X276504345Y-171988710D01*
X276504338Y-171988706D01*
X276226606Y-171858016D01*
X276226602Y-171858014D01*
X276223016Y-171856327D01*
X275923552Y-171759025D01*
X275614254Y-171700023D01*
X275495577Y-171692557D01*
X275428847Y-171668318D01*
X275385815Y-171611849D01*
X275380143Y-171541079D01*
X275414394Y-171477711D01*
X276862905Y-170029200D01*
X276925217Y-169995174D01*
X276996032Y-170000239D01*
G37*
%TD.AperFunction*%
%TA.AperFunction,NonConductor*%
G36*
X281679579Y-170817227D02*
G01*
X281721103Y-170844807D01*
X283466178Y-172589882D01*
X283500204Y-172652194D01*
X283495139Y-172723009D01*
X283452592Y-172779845D01*
X283386072Y-172804656D01*
X283329883Y-172795802D01*
X282691608Y-172537922D01*
X282252555Y-172360533D01*
X282192371Y-172343503D01*
X282184480Y-172343303D01*
X282184478Y-172343303D01*
X282075966Y-172340557D01*
X282046759Y-172339818D01*
X282038088Y-172342117D01*
X281914641Y-172374848D01*
X281914640Y-172374848D01*
X281905967Y-172377148D01*
X281781311Y-172452494D01*
X281779802Y-172449997D01*
X281728031Y-172471913D01*
X281658066Y-172459849D01*
X281605731Y-172411875D01*
X281600343Y-172401978D01*
X281590497Y-172381790D01*
X281527731Y-172253102D01*
X281525276Y-172249463D01*
X281525273Y-172249457D01*
X281433471Y-172113356D01*
X281370656Y-172020228D01*
X281342274Y-171988706D01*
X281185637Y-171814744D01*
X281182700Y-171811482D01*
X281179337Y-171808660D01*
X281176165Y-171805597D01*
X281177456Y-171804260D01*
X281142387Y-171751525D01*
X281141276Y-171680537D01*
X281163424Y-171636566D01*
X281224522Y-171558364D01*
X281224528Y-171558355D01*
X281227236Y-171554889D01*
X281229432Y-171551085D01*
X281229437Y-171551078D01*
X281365483Y-171315438D01*
X281367684Y-171311626D01*
X281472910Y-171051183D01*
X281509752Y-170903418D01*
X281545638Y-170842162D01*
X281608948Y-170810030D01*
X281679579Y-170817227D01*
G37*
%TD.AperFunction*%
%TA.AperFunction,NonConductor*%
G36*
X300663716Y-171725514D02*
G01*
X300749277Y-171763608D01*
X300749285Y-171763611D01*
X300755312Y-171766294D01*
X300848713Y-171786147D01*
X300935656Y-171804628D01*
X300935661Y-171804628D01*
X300942113Y-171806000D01*
X301133087Y-171806000D01*
X301139545Y-171804627D01*
X301139548Y-171804627D01*
X301155341Y-171801270D01*
X301226132Y-171806671D01*
X301282765Y-171849487D01*
X301307260Y-171916124D01*
X301289543Y-171989411D01*
X301083777Y-172331863D01*
X301039912Y-172375422D01*
X300990137Y-172404858D01*
X300984529Y-172410466D01*
X300978269Y-172415322D01*
X300978264Y-172415315D01*
X300975129Y-172417891D01*
X300975134Y-172417897D01*
X300969153Y-172423097D01*
X300962565Y-172427507D01*
X300957283Y-172433415D01*
X300957282Y-172433416D01*
X300923366Y-172471352D01*
X300918528Y-172476467D01*
X300891099Y-172503896D01*
X300828787Y-172537922D01*
X300757972Y-172532857D01*
X300750756Y-172529908D01*
X300735223Y-172522992D01*
X300735215Y-172522989D01*
X300729188Y-172520306D01*
X300635788Y-172500453D01*
X300548844Y-172481972D01*
X300548839Y-172481972D01*
X300542387Y-172480600D01*
X300351413Y-172480600D01*
X300344961Y-172481972D01*
X300344956Y-172481972D01*
X300258012Y-172500453D01*
X300164612Y-172520306D01*
X300158582Y-172522991D01*
X300158581Y-172522991D01*
X299996178Y-172595297D01*
X299996176Y-172595298D01*
X299990148Y-172597982D01*
X299984807Y-172601862D01*
X299984806Y-172601863D01*
X299934743Y-172638236D01*
X299835647Y-172710234D01*
X299831226Y-172715144D01*
X299831225Y-172715145D01*
X299759259Y-172795072D01*
X299707860Y-172852156D01*
X299621429Y-173001859D01*
X299570047Y-173050852D01*
X299500333Y-173064288D01*
X299434422Y-173037902D01*
X299393240Y-172980070D01*
X299387373Y-172940319D01*
X299387437Y-172939970D01*
X299372591Y-172795072D01*
X299366393Y-172779845D01*
X299317673Y-172660164D01*
X299320929Y-172658838D01*
X299307901Y-172606291D01*
X299330784Y-172539083D01*
X299343724Y-172523535D01*
X299344539Y-172522702D01*
X299350728Y-172517788D01*
X299377913Y-172481972D01*
X299386490Y-172470673D01*
X299386496Y-172470665D01*
X299388544Y-172467966D01*
X299511449Y-172263418D01*
X299563679Y-172215329D01*
X299633616Y-172203112D01*
X299684345Y-172220309D01*
X299684382Y-172220331D01*
X299696034Y-172227332D01*
X299752814Y-172253567D01*
X299896056Y-172279986D01*
X299976395Y-172271755D01*
X300032028Y-172266055D01*
X300032030Y-172266054D01*
X300040955Y-172265140D01*
X300175862Y-172210222D01*
X300237054Y-172161636D01*
X300283750Y-172124559D01*
X300289935Y-172119648D01*
X300327751Y-172069827D01*
X300456035Y-171856327D01*
X300504465Y-171775726D01*
X300556695Y-171727637D01*
X300626632Y-171715420D01*
X300663716Y-171725514D01*
G37*
%TD.AperFunction*%
%TA.AperFunction,NonConductor*%
G36*
X272300320Y-172374709D02*
G01*
X272304667Y-172375320D01*
X272304672Y-172375321D01*
X272376570Y-172385425D01*
X272422928Y-172391940D01*
X272487601Y-172421228D01*
X272526174Y-172480832D01*
X272526399Y-172551828D01*
X272494486Y-172605809D01*
X271951125Y-173149170D01*
X271888813Y-173183196D01*
X271817998Y-173178131D01*
X271761162Y-173135584D01*
X271736351Y-173069064D01*
X271749713Y-173002970D01*
X271750618Y-173001191D01*
X271830423Y-172844226D01*
X271851564Y-172802645D01*
X271851564Y-172802644D01*
X271853983Y-172797887D01*
X271893249Y-172671430D01*
X271920811Y-172582669D01*
X271920812Y-172582663D01*
X271922395Y-172577566D01*
X271938972Y-172452494D01*
X271942938Y-172422571D01*
X271971717Y-172357669D01*
X272031017Y-172318629D01*
X272102575Y-172318007D01*
X272300320Y-172374709D01*
G37*
%TD.AperFunction*%
%TA.AperFunction,NonConductor*%
G36*
X299502123Y-173140951D02*
G01*
X299542289Y-173199493D01*
X299547828Y-173251789D01*
X299535993Y-173364393D01*
X299508980Y-173430049D01*
X299499778Y-173440317D01*
X299359917Y-173580178D01*
X299297605Y-173614204D01*
X299226790Y-173609139D01*
X299169954Y-173566592D01*
X299145143Y-173500072D01*
X299162819Y-173426188D01*
X299314515Y-173173724D01*
X299366745Y-173125635D01*
X299436682Y-173113418D01*
X299502123Y-173140951D01*
G37*
%TD.AperFunction*%
%TA.AperFunction,NonConductor*%
G36*
X304980140Y-172983386D02*
G01*
X305019513Y-173031279D01*
X305020073Y-173030956D01*
X305021403Y-173033259D01*
X305115560Y-173196344D01*
X305216731Y-173308706D01*
X305247446Y-173372710D01*
X305238683Y-173443163D01*
X305212188Y-173482108D01*
X304434991Y-174259305D01*
X304372679Y-174293331D01*
X304301864Y-174288266D01*
X304245028Y-174245719D01*
X304220217Y-174179199D01*
X304237893Y-174105315D01*
X304342008Y-173932039D01*
X304342009Y-173932037D01*
X304439789Y-173769304D01*
X304663907Y-173396309D01*
X304690143Y-173339529D01*
X304716561Y-173196287D01*
X304711999Y-173151760D01*
X304709845Y-173130734D01*
X304722800Y-173060929D01*
X304771438Y-173009210D01*
X304787682Y-173001191D01*
X304802347Y-172995221D01*
X304848054Y-172976615D01*
X304848057Y-172976614D01*
X304848714Y-172976346D01*
X304848753Y-172976441D01*
X304912928Y-172960516D01*
X304980140Y-172983386D01*
G37*
%TD.AperFunction*%
%TA.AperFunction,NonConductor*%
G36*
X299048048Y-173896657D02*
G01*
X299088214Y-173955199D01*
X299090254Y-174018498D01*
X299091265Y-174018626D01*
X299090463Y-174024975D01*
X299090485Y-174025657D01*
X299090272Y-174026486D01*
X299090271Y-174026492D01*
X299088300Y-174034170D01*
X299088300Y-174054424D01*
X299086749Y-174074134D01*
X299083580Y-174094143D01*
X299084326Y-174102035D01*
X299087741Y-174138161D01*
X299088300Y-174150019D01*
X299088300Y-174388180D01*
X299068298Y-174456301D01*
X299014642Y-174502794D01*
X298944368Y-174512898D01*
X298888241Y-174490117D01*
X298847452Y-174460482D01*
X298841426Y-174457799D01*
X298841419Y-174457795D01*
X298736062Y-174410888D01*
X298681966Y-174364908D01*
X298661316Y-174296981D01*
X298679307Y-174230886D01*
X298826696Y-173985589D01*
X298860440Y-173929430D01*
X298912670Y-173881341D01*
X298982607Y-173869124D01*
X299048048Y-173896657D01*
G37*
%TD.AperFunction*%
%TA.AperFunction,NonConductor*%
G36*
X297039596Y-173749989D02*
G01*
X297065725Y-173774657D01*
X297126734Y-173851494D01*
X297126738Y-173851498D01*
X297131649Y-173857683D01*
X297181470Y-173895499D01*
X297855789Y-174300671D01*
X297903877Y-174352900D01*
X297916094Y-174422837D01*
X297888561Y-174488278D01*
X297864954Y-174510609D01*
X297846501Y-174524016D01*
X297779447Y-174572734D01*
X297775032Y-174577637D01*
X297770120Y-174582060D01*
X297768995Y-174580811D01*
X297715686Y-174613651D01*
X297682500Y-174618100D01*
X297225395Y-174618100D01*
X297157274Y-174598098D01*
X297136300Y-174581195D01*
X296586859Y-174031754D01*
X296552833Y-173969442D01*
X296557898Y-173898627D01*
X296600445Y-173841791D01*
X296663111Y-173817315D01*
X296747399Y-173808679D01*
X296747400Y-173808679D01*
X296756328Y-173807764D01*
X296891236Y-173752847D01*
X296898266Y-173747265D01*
X296903477Y-173744220D01*
X296972383Y-173727120D01*
X297039596Y-173749989D01*
G37*
%TD.AperFunction*%
%TA.AperFunction,NonConductor*%
G36*
X272720761Y-174275509D02*
G01*
X272777597Y-174318056D01*
X272801735Y-174377773D01*
X272820210Y-174524016D01*
X272837064Y-174657430D01*
X272915370Y-174962413D01*
X273031284Y-175255177D01*
X273033186Y-175258636D01*
X273033187Y-175258639D01*
X273172690Y-175512393D01*
X273182976Y-175531104D01*
X273185309Y-175534315D01*
X273205037Y-175561468D01*
X273228896Y-175628335D01*
X273212817Y-175697487D01*
X273161903Y-175746968D01*
X273092321Y-175761068D01*
X273055902Y-175752355D01*
X271933707Y-175298959D01*
X271867649Y-175272270D01*
X271811981Y-175228206D01*
X271788973Y-175161041D01*
X271805930Y-175092099D01*
X271825754Y-175066350D01*
X272587634Y-174304470D01*
X272649946Y-174270444D01*
X272720761Y-174275509D01*
G37*
%TD.AperFunction*%
%TA.AperFunction,NonConductor*%
G36*
X278650270Y-174919707D02*
G01*
X278838835Y-175037535D01*
X278842845Y-175039321D01*
X278842850Y-175039323D01*
X278890588Y-175060577D01*
X278944684Y-175106557D01*
X278965334Y-175174484D01*
X278945982Y-175242792D01*
X278940439Y-175250883D01*
X278850573Y-175371667D01*
X278848158Y-175376417D01*
X278796969Y-175477099D01*
X278746017Y-175577313D01*
X278720057Y-175660917D01*
X278703832Y-175713170D01*
X278664529Y-175772296D01*
X278599500Y-175800786D01*
X278529391Y-175789596D01*
X278476461Y-175742279D01*
X278457500Y-175675806D01*
X278457500Y-175026561D01*
X278477502Y-174958440D01*
X278531158Y-174911947D01*
X278601432Y-174901843D01*
X278650270Y-174919707D01*
G37*
%TD.AperFunction*%
%TA.AperFunction,NonConductor*%
G36*
X300091826Y-161748102D02*
G01*
X300138319Y-161801758D01*
X300148423Y-161872032D01*
X300140530Y-161901300D01*
X300099027Y-162004024D01*
X300097962Y-162008297D01*
X300097961Y-162008299D01*
X300033125Y-162268343D01*
X300031072Y-162276576D01*
X300030613Y-162280944D01*
X300030612Y-162280949D01*
X300011286Y-162464831D01*
X300001711Y-162555933D01*
X300001864Y-162560321D01*
X300001864Y-162560327D01*
X300006147Y-162682972D01*
X299988535Y-162751749D01*
X299936534Y-162800086D01*
X299866656Y-162812636D01*
X299857814Y-162811360D01*
X299795470Y-162800086D01*
X299749567Y-162791785D01*
X299749560Y-162791784D01*
X299745483Y-162791047D01*
X299727746Y-162790211D01*
X299722798Y-162789977D01*
X299722791Y-162789977D01*
X299721310Y-162789907D01*
X299559165Y-162789907D01*
X299492209Y-162795588D01*
X299392528Y-162804046D01*
X299392524Y-162804047D01*
X299387217Y-162804497D01*
X299382062Y-162805835D01*
X299382056Y-162805836D01*
X299169087Y-162861112D01*
X299169083Y-162861113D01*
X299163918Y-162862454D01*
X299159052Y-162864646D01*
X299159049Y-162864647D01*
X298990972Y-162940360D01*
X298953575Y-162957206D01*
X298949155Y-162960182D01*
X298949151Y-162960184D01*
X298904410Y-162990306D01*
X298762205Y-163086045D01*
X298595278Y-163245285D01*
X298561549Y-163290618D01*
X298478498Y-163402244D01*
X298457569Y-163430373D01*
X298455154Y-163435123D01*
X298385596Y-163571934D01*
X298353013Y-163636019D01*
X298325507Y-163724602D01*
X298286185Y-163851237D01*
X298286184Y-163851243D01*
X298284601Y-163856340D01*
X298275161Y-163927568D01*
X298256981Y-164064738D01*
X298254290Y-164085039D01*
X298262944Y-164315575D01*
X298310318Y-164541357D01*
X298312276Y-164546316D01*
X298312277Y-164546318D01*
X298318316Y-164561609D01*
X298395057Y-164755929D01*
X298465807Y-164872521D01*
X298509108Y-164943879D01*
X298514737Y-164953156D01*
X298518234Y-164957186D01*
X298646477Y-165104973D01*
X298665937Y-165127399D01*
X298670068Y-165130786D01*
X298840205Y-165270291D01*
X298840211Y-165270295D01*
X298844333Y-165273675D01*
X299044825Y-165387801D01*
X299049841Y-165389622D01*
X299049846Y-165389624D01*
X299256665Y-165464696D01*
X299256669Y-165464697D01*
X299261680Y-165466516D01*
X299266929Y-165467465D01*
X299266932Y-165467466D01*
X299484613Y-165506829D01*
X299484620Y-165506830D01*
X299488697Y-165507567D01*
X299506434Y-165508403D01*
X299511382Y-165508637D01*
X299511389Y-165508637D01*
X299512870Y-165508707D01*
X299675015Y-165508707D01*
X299741971Y-165503026D01*
X299841652Y-165494568D01*
X299841656Y-165494567D01*
X299846963Y-165494117D01*
X299852118Y-165492779D01*
X299852124Y-165492778D01*
X300065093Y-165437502D01*
X300065097Y-165437501D01*
X300070262Y-165436160D01*
X300075128Y-165433968D01*
X300075131Y-165433967D01*
X300275739Y-165343600D01*
X300280605Y-165341408D01*
X300285025Y-165338432D01*
X300285029Y-165338430D01*
X300403398Y-165258738D01*
X300471975Y-165212569D01*
X300638902Y-165053329D01*
X300716828Y-164948593D01*
X300773427Y-164872521D01*
X300773429Y-164872518D01*
X300776611Y-164868241D01*
X300831395Y-164760490D01*
X300878748Y-164667353D01*
X300878748Y-164667352D01*
X300881167Y-164662595D01*
X300932455Y-164497423D01*
X300971755Y-164438302D01*
X301036785Y-164409811D01*
X301104034Y-164419684D01*
X301281037Y-164498491D01*
X301325264Y-164518182D01*
X301407212Y-164541680D01*
X301520031Y-164574030D01*
X301595279Y-164595607D01*
X301599629Y-164596218D01*
X301599632Y-164596219D01*
X301702579Y-164610687D01*
X301873441Y-164634700D01*
X302084035Y-164634700D01*
X302086221Y-164634547D01*
X302086225Y-164634547D01*
X302187329Y-164627477D01*
X302279784Y-164621012D01*
X302349134Y-164636213D01*
X302399256Y-164686495D01*
X302414238Y-164755893D01*
X302389321Y-164822374D01*
X302368888Y-164843790D01*
X302366142Y-164846062D01*
X302255102Y-164937922D01*
X302039555Y-165167456D01*
X302037228Y-165170658D01*
X302037227Y-165170660D01*
X302004618Y-165215543D01*
X301854476Y-165422196D01*
X301852569Y-165425665D01*
X301852567Y-165425668D01*
X301783861Y-165550644D01*
X301702784Y-165698123D01*
X301586870Y-165990887D01*
X301508564Y-166295870D01*
X301469100Y-166608262D01*
X301469100Y-166923138D01*
X301508564Y-167235530D01*
X301586870Y-167540513D01*
X301689580Y-167799926D01*
X301691811Y-167805562D01*
X301698290Y-167876262D01*
X301665518Y-167939242D01*
X301603898Y-167974506D01*
X301532996Y-167970858D01*
X301509764Y-167959949D01*
X300243228Y-167198937D01*
X299749937Y-166902538D01*
X299693157Y-166876302D01*
X299549915Y-166849884D01*
X299449376Y-166860185D01*
X299413945Y-166863815D01*
X299413944Y-166863815D01*
X299405016Y-166864730D01*
X299270109Y-166919647D01*
X299156036Y-167010221D01*
X299151261Y-167016512D01*
X299120274Y-167057336D01*
X299120268Y-167057344D01*
X299118220Y-167060043D01*
X298960997Y-167321706D01*
X298720115Y-167722599D01*
X298667885Y-167770688D01*
X298597948Y-167782905D01*
X298538051Y-167759640D01*
X298528468Y-167752677D01*
X298443552Y-167690982D01*
X298437524Y-167688298D01*
X298437522Y-167688297D01*
X298275119Y-167615991D01*
X298275118Y-167615991D01*
X298269088Y-167613306D01*
X298175687Y-167593453D01*
X298088744Y-167574972D01*
X298088739Y-167574972D01*
X298082287Y-167573600D01*
X297891313Y-167573600D01*
X297884861Y-167574972D01*
X297884856Y-167574972D01*
X297797912Y-167593453D01*
X297704512Y-167613306D01*
X297698482Y-167615991D01*
X297698481Y-167615991D01*
X297536078Y-167688297D01*
X297536076Y-167688298D01*
X297530048Y-167690982D01*
X297375547Y-167803234D01*
X297371126Y-167808144D01*
X297371125Y-167808145D01*
X297336768Y-167846303D01*
X297247760Y-167945156D01*
X297152273Y-168110544D01*
X297093258Y-168292172D01*
X297092568Y-168298733D01*
X297092568Y-168298735D01*
X297082132Y-168398031D01*
X297073296Y-168482100D01*
X297073986Y-168488665D01*
X297081505Y-168560200D01*
X297093258Y-168672028D01*
X297152273Y-168853656D01*
X297155576Y-168859378D01*
X297155577Y-168859379D01*
X297189486Y-168918110D01*
X297247760Y-169019044D01*
X297252178Y-169023951D01*
X297252179Y-169023952D01*
X297267373Y-169040827D01*
X297375547Y-169160966D01*
X297530048Y-169273218D01*
X297536074Y-169275901D01*
X297536081Y-169275905D01*
X297603776Y-169306044D01*
X297657872Y-169352024D01*
X297678522Y-169419951D01*
X297660531Y-169486045D01*
X297626291Y-169543030D01*
X297525487Y-169710796D01*
X297473257Y-169758885D01*
X297403319Y-169771102D01*
X297360284Y-169758169D01*
X297311896Y-169733515D01*
X297304163Y-169731786D01*
X297296702Y-169729100D01*
X297296704Y-169729095D01*
X297292818Y-169727817D01*
X297292816Y-169727823D01*
X297285217Y-169725559D01*
X297277965Y-169722361D01*
X297219984Y-169712767D01*
X297213078Y-169711425D01*
X297163430Y-169700327D01*
X297163423Y-169700326D01*
X297155691Y-169698598D01*
X297147770Y-169698847D01*
X297139876Y-169698101D01*
X297139876Y-169698096D01*
X297135792Y-169697825D01*
X297135792Y-169697831D01*
X297127868Y-169697527D01*
X297120052Y-169696234D01*
X297061493Y-169701362D01*
X297054469Y-169701780D01*
X297013884Y-169703056D01*
X297003629Y-169703378D01*
X296995710Y-169703627D01*
X296988100Y-169705838D01*
X296980271Y-169707078D01*
X296980270Y-169707073D01*
X296976247Y-169707827D01*
X296976248Y-169707831D01*
X296968505Y-169709506D01*
X296960604Y-169710198D01*
X296910587Y-169727817D01*
X296905162Y-169729728D01*
X296898452Y-169731883D01*
X296849620Y-169746070D01*
X296849619Y-169746071D01*
X296842007Y-169748282D01*
X296835183Y-169752318D01*
X296827910Y-169755465D01*
X296827908Y-169755460D01*
X296824198Y-169757190D01*
X296824201Y-169757195D01*
X296817118Y-169760743D01*
X296809637Y-169763378D01*
X296760792Y-169796083D01*
X296754859Y-169799820D01*
X296704237Y-169829758D01*
X296698627Y-169835368D01*
X296692369Y-169840222D01*
X296692365Y-169840217D01*
X296689205Y-169842813D01*
X296689209Y-169842817D01*
X296683223Y-169848021D01*
X296676639Y-169852430D01*
X296671358Y-169858338D01*
X296666128Y-169862885D01*
X296601597Y-169892487D01*
X296583455Y-169893800D01*
X295931467Y-169893800D01*
X295920284Y-169893273D01*
X295912791Y-169891598D01*
X295904865Y-169891847D01*
X295904864Y-169891847D01*
X295844714Y-169893738D01*
X295840755Y-169893800D01*
X295812844Y-169893800D01*
X295808910Y-169894297D01*
X295808909Y-169894297D01*
X295808844Y-169894305D01*
X295797007Y-169895238D01*
X295765190Y-169896238D01*
X295760729Y-169896378D01*
X295752810Y-169896627D01*
X295735154Y-169901756D01*
X295733358Y-169902278D01*
X295714006Y-169906286D01*
X295706935Y-169907180D01*
X295693903Y-169908826D01*
X295686534Y-169911743D01*
X295686532Y-169911744D01*
X295652797Y-169925100D01*
X295641569Y-169928945D01*
X295599107Y-169941282D01*
X295592284Y-169945317D01*
X295592282Y-169945318D01*
X295581672Y-169951593D01*
X295563924Y-169960288D01*
X295545083Y-169967748D01*
X295538667Y-169972410D01*
X295538666Y-169972410D01*
X295509313Y-169993736D01*
X295499393Y-170000252D01*
X295468165Y-170018720D01*
X295468162Y-170018722D01*
X295461338Y-170022758D01*
X295447017Y-170037079D01*
X295431984Y-170049919D01*
X295415593Y-170061828D01*
X295410542Y-170067934D01*
X295387402Y-170095905D01*
X295379412Y-170104684D01*
X294368947Y-171115148D01*
X294360661Y-171122688D01*
X294354182Y-171126800D01*
X294348757Y-171132577D01*
X294307557Y-171176451D01*
X294304802Y-171179293D01*
X294285065Y-171199030D01*
X294282585Y-171202227D01*
X294274882Y-171211247D01*
X294244614Y-171243479D01*
X294240795Y-171250425D01*
X294240793Y-171250428D01*
X294234852Y-171261234D01*
X294224001Y-171277753D01*
X294211586Y-171293759D01*
X294208441Y-171301028D01*
X294208438Y-171301032D01*
X294194026Y-171334337D01*
X294188809Y-171344987D01*
X294167505Y-171383740D01*
X294165534Y-171391415D01*
X294165534Y-171391416D01*
X294162467Y-171403362D01*
X294156063Y-171422066D01*
X294148019Y-171440655D01*
X294146780Y-171448478D01*
X294146777Y-171448488D01*
X294141101Y-171484324D01*
X294138695Y-171495944D01*
X294127700Y-171538770D01*
X294127700Y-171559024D01*
X294126149Y-171578734D01*
X294122980Y-171598743D01*
X294123726Y-171606635D01*
X294127141Y-171642761D01*
X294127700Y-171654619D01*
X294127700Y-173023233D01*
X294127173Y-173034416D01*
X294125498Y-173041909D01*
X294125747Y-173049835D01*
X294125747Y-173049836D01*
X294127638Y-173109986D01*
X294127700Y-173113945D01*
X294127700Y-173141856D01*
X294128197Y-173145790D01*
X294128197Y-173145791D01*
X294128205Y-173145856D01*
X294129138Y-173157693D01*
X294130527Y-173201889D01*
X294136178Y-173221339D01*
X294140187Y-173240700D01*
X294142726Y-173260797D01*
X294145645Y-173268168D01*
X294145645Y-173268170D01*
X294159004Y-173301912D01*
X294162849Y-173313142D01*
X294175182Y-173355593D01*
X294179215Y-173362412D01*
X294179217Y-173362417D01*
X294185493Y-173373028D01*
X294194188Y-173390776D01*
X294201648Y-173409617D01*
X294206310Y-173416033D01*
X294206310Y-173416034D01*
X294227636Y-173445387D01*
X294234152Y-173455307D01*
X294245043Y-173473722D01*
X294256658Y-173493362D01*
X294270979Y-173507683D01*
X294283819Y-173522716D01*
X294295728Y-173539107D01*
X294301834Y-173544158D01*
X294329805Y-173567298D01*
X294338584Y-173575288D01*
X296240395Y-175477099D01*
X296274421Y-175539411D01*
X296277300Y-175566194D01*
X296277300Y-175894473D01*
X296257298Y-175962594D01*
X296203642Y-176009087D01*
X296133368Y-176019191D01*
X296068788Y-175989697D01*
X296057664Y-175978783D01*
X296026561Y-175944240D01*
X296026557Y-175944236D01*
X296023617Y-175940971D01*
X296015721Y-175934345D01*
X295917415Y-175851857D01*
X295808438Y-175760414D01*
X295570224Y-175611562D01*
X295313613Y-175497311D01*
X295105762Y-175437711D01*
X295047825Y-175421098D01*
X295047824Y-175421098D01*
X295043598Y-175419886D01*
X295039248Y-175419275D01*
X295039245Y-175419274D01*
X294936298Y-175404806D01*
X294765436Y-175380793D01*
X294554842Y-175380793D01*
X294552656Y-175380946D01*
X294552652Y-175380946D01*
X294349161Y-175395175D01*
X294349156Y-175395176D01*
X294344776Y-175395482D01*
X294195264Y-175427262D01*
X294124474Y-175421860D01*
X294067842Y-175379043D01*
X294043348Y-175312406D01*
X294043211Y-175302124D01*
X294044623Y-175294469D01*
X294029777Y-175149570D01*
X293974859Y-175014662D01*
X293884285Y-174900590D01*
X293834464Y-174862774D01*
X293351178Y-174572387D01*
X293303089Y-174520157D01*
X293290872Y-174450220D01*
X293308067Y-174399494D01*
X293313291Y-174390799D01*
X293319360Y-174381629D01*
X293322362Y-174377498D01*
X293327786Y-174371721D01*
X293331602Y-174364779D01*
X293331606Y-174364774D01*
X293359333Y-174314337D01*
X293361728Y-174310171D01*
X293374765Y-174288470D01*
X293377453Y-174282373D01*
X293382325Y-174272515D01*
X293401079Y-174238402D01*
X293401080Y-174238399D01*
X293404895Y-174231460D01*
X293409280Y-174214384D01*
X293416027Y-174194897D01*
X293423136Y-174178775D01*
X293430781Y-174132576D01*
X293433048Y-174121813D01*
X293442729Y-174084109D01*
X293442730Y-174084105D01*
X293444700Y-174076430D01*
X293444700Y-174058814D01*
X293446390Y-174038245D01*
X293447972Y-174028687D01*
X293447972Y-174028682D01*
X293449266Y-174020863D01*
X293445180Y-173974199D01*
X293444700Y-173963209D01*
X293444700Y-173015524D01*
X293464702Y-172947403D01*
X293477058Y-172931221D01*
X293550240Y-172849944D01*
X293623526Y-172723009D01*
X293642423Y-172690279D01*
X293642424Y-172690278D01*
X293645727Y-172684556D01*
X293704742Y-172502928D01*
X293707065Y-172480832D01*
X293724014Y-172319565D01*
X293724704Y-172313000D01*
X293718109Y-172250253D01*
X293705432Y-172129635D01*
X293705432Y-172129633D01*
X293704742Y-172123072D01*
X293645727Y-171941444D01*
X293631109Y-171916124D01*
X293592635Y-171849487D01*
X293550240Y-171776056D01*
X293477063Y-171694785D01*
X293446347Y-171630779D01*
X293444700Y-171610476D01*
X293444700Y-161854100D01*
X293464702Y-161785979D01*
X293518358Y-161739486D01*
X293570700Y-161728100D01*
X300023705Y-161728100D01*
X300091826Y-161748102D01*
G37*
%TD.AperFunction*%
%TA.AperFunction,NonConductor*%
G36*
X297750621Y-175905102D02*
G01*
X297769847Y-175921443D01*
X297770120Y-175921140D01*
X297775032Y-175925563D01*
X297779447Y-175930466D01*
X297784786Y-175934345D01*
X297926951Y-176037634D01*
X297933948Y-176042718D01*
X297939976Y-176045402D01*
X297939978Y-176045403D01*
X298102381Y-176117709D01*
X298108412Y-176120394D01*
X298235128Y-176147328D01*
X298297600Y-176181056D01*
X298331922Y-176243206D01*
X298327194Y-176314045D01*
X298298025Y-176359670D01*
X297759395Y-176898300D01*
X297697083Y-176932326D01*
X297626268Y-176927261D01*
X297569432Y-176884714D01*
X297544621Y-176818194D01*
X297544300Y-176809205D01*
X297544300Y-176011100D01*
X297564302Y-175942979D01*
X297617958Y-175896486D01*
X297670300Y-175885100D01*
X297682500Y-175885100D01*
X297750621Y-175905102D01*
G37*
%TD.AperFunction*%
%TA.AperFunction,NonConductor*%
G36*
X276273743Y-176579839D02*
G01*
X276305069Y-176643551D01*
X276306224Y-176678206D01*
X276301890Y-176719447D01*
X276299993Y-176737492D01*
X276272980Y-176803149D01*
X276263778Y-176813417D01*
X276155370Y-176921825D01*
X276093058Y-176955851D01*
X276019075Y-176949555D01*
X275824872Y-176871092D01*
X275769204Y-176827028D01*
X275746196Y-176759863D01*
X275763153Y-176690921D01*
X275814691Y-176642091D01*
X275848460Y-176630500D01*
X275923552Y-176616175D01*
X276141978Y-176545204D01*
X276212945Y-176543176D01*
X276273743Y-176579839D01*
G37*
%TD.AperFunction*%
%TA.AperFunction,NonConductor*%
G36*
X274643937Y-176605611D02*
G01*
X274676448Y-176616175D01*
X274985746Y-176675177D01*
X275079300Y-176681063D01*
X275219358Y-176689875D01*
X275219374Y-176689876D01*
X275221353Y-176690000D01*
X275291431Y-176690000D01*
X275359552Y-176710002D01*
X275406045Y-176763658D01*
X275416149Y-176833932D01*
X275386655Y-176898512D01*
X275356608Y-176923833D01*
X275316524Y-176948061D01*
X275310456Y-176954672D01*
X275310453Y-176954674D01*
X275223371Y-177049541D01*
X275218025Y-177055365D01*
X275188468Y-177110489D01*
X275141031Y-177227901D01*
X275134956Y-177242936D01*
X275090892Y-177298604D01*
X275023727Y-177321612D01*
X274954785Y-177304655D01*
X274929036Y-177284831D01*
X274522622Y-176878417D01*
X274488596Y-176816105D01*
X274486407Y-176802493D01*
X274479693Y-176738614D01*
X274492465Y-176668778D01*
X274540967Y-176616931D01*
X274609799Y-176599536D01*
X274643937Y-176605611D01*
G37*
%TD.AperFunction*%
%TA.AperFunction,NonConductor*%
G36*
X290301793Y-176843180D02*
G01*
X290496119Y-176959943D01*
X290887078Y-177194856D01*
X290935167Y-177247086D01*
X290947384Y-177317024D01*
X290919851Y-177382464D01*
X290909713Y-177393493D01*
X290731937Y-177565169D01*
X290559001Y-177786518D01*
X290556805Y-177790322D01*
X290556800Y-177790329D01*
X290482251Y-177919452D01*
X290418553Y-178029781D01*
X290416905Y-178033859D01*
X290416902Y-178033866D01*
X290353725Y-178190235D01*
X290309661Y-178245903D01*
X290242496Y-178268911D01*
X290173554Y-178251954D01*
X290124724Y-178200416D01*
X290110900Y-178143035D01*
X290110900Y-176951184D01*
X290130902Y-176883063D01*
X290184558Y-176836570D01*
X290254832Y-176826466D01*
X290301793Y-176843180D01*
G37*
%TD.AperFunction*%
%TA.AperFunction,NonConductor*%
G36*
X290184623Y-178680520D02*
G01*
X290219532Y-178742341D01*
X290222116Y-178784046D01*
X290217537Y-178827617D01*
X290216011Y-178842133D01*
X290216164Y-178846521D01*
X290216164Y-178846527D01*
X290220447Y-178969172D01*
X290202835Y-179037949D01*
X290150834Y-179086286D01*
X290080956Y-179098836D01*
X290072114Y-179097560D01*
X290023136Y-179088703D01*
X289963867Y-179077985D01*
X289963860Y-179077984D01*
X289959783Y-179077247D01*
X289942046Y-179076411D01*
X289937098Y-179076177D01*
X289937091Y-179076177D01*
X289935610Y-179076107D01*
X289925788Y-179076107D01*
X289857667Y-179056105D01*
X289811174Y-179002449D01*
X289801070Y-178932175D01*
X289830564Y-178867595D01*
X289836693Y-178861012D01*
X289869653Y-178828052D01*
X289877939Y-178820512D01*
X289884418Y-178816400D01*
X289931044Y-178766748D01*
X289933798Y-178763907D01*
X289953535Y-178744170D01*
X289956015Y-178740973D01*
X289963720Y-178731951D01*
X289988560Y-178705499D01*
X289993986Y-178699721D01*
X289996110Y-178695857D01*
X290051096Y-178653460D01*
X290121832Y-178647386D01*
X290184623Y-178680520D01*
G37*
%TD.AperFunction*%
%TA.AperFunction,NonConductor*%
G36*
X292095732Y-159423139D02*
G01*
X292152568Y-159465686D01*
X292177379Y-159532206D01*
X292177700Y-159541195D01*
X292177700Y-161022807D01*
X292175468Y-161046416D01*
X292173925Y-161054506D01*
X292174423Y-161062417D01*
X292177451Y-161110551D01*
X292177700Y-161118462D01*
X292177700Y-171610476D01*
X292157698Y-171678597D01*
X292145342Y-171694779D01*
X292072160Y-171776056D01*
X292029765Y-171849487D01*
X291991292Y-171916124D01*
X291976673Y-171941444D01*
X291917658Y-172123072D01*
X291916968Y-172129633D01*
X291916968Y-172129635D01*
X291904291Y-172250253D01*
X291897696Y-172313000D01*
X291898386Y-172319565D01*
X291915336Y-172480832D01*
X291917658Y-172502928D01*
X291976673Y-172684556D01*
X291979976Y-172690278D01*
X291979977Y-172690279D01*
X291998874Y-172723009D01*
X292072160Y-172849944D01*
X292145337Y-172931215D01*
X292176053Y-172995221D01*
X292177700Y-173015524D01*
X292177700Y-173644586D01*
X292157698Y-173712707D01*
X292104042Y-173759200D01*
X292033768Y-173769304D01*
X291986807Y-173752590D01*
X291566169Y-173499845D01*
X291537364Y-173486535D01*
X291516561Y-173476922D01*
X291516557Y-173476921D01*
X291509390Y-173473609D01*
X291366148Y-173447190D01*
X291221249Y-173462037D01*
X291212934Y-173465422D01*
X291212933Y-173465422D01*
X291127813Y-173500072D01*
X291086341Y-173516954D01*
X290972269Y-173607528D01*
X290967494Y-173613819D01*
X290967493Y-173613820D01*
X290936507Y-173654643D01*
X290936501Y-173654651D01*
X290934453Y-173657350D01*
X290349241Y-174631306D01*
X290344903Y-174638526D01*
X290292673Y-174686615D01*
X290222736Y-174698832D01*
X290157295Y-174671299D01*
X290117129Y-174612757D01*
X290110900Y-174573631D01*
X290110900Y-167914424D01*
X290130902Y-167846303D01*
X290143258Y-167830121D01*
X290216440Y-167748844D01*
X290311927Y-167583456D01*
X290370942Y-167401828D01*
X290390904Y-167211900D01*
X290375250Y-167062956D01*
X290371632Y-167028535D01*
X290371632Y-167028533D01*
X290370942Y-167021972D01*
X290311927Y-166840344D01*
X290216440Y-166674956D01*
X290168152Y-166621326D01*
X290093075Y-166537945D01*
X290093074Y-166537944D01*
X290088653Y-166533034D01*
X289934152Y-166420782D01*
X289928124Y-166418098D01*
X289928122Y-166418097D01*
X289765719Y-166345791D01*
X289765718Y-166345791D01*
X289759688Y-166343106D01*
X289660200Y-166321959D01*
X289579344Y-166304772D01*
X289579339Y-166304772D01*
X289572887Y-166303400D01*
X289381913Y-166303400D01*
X289375461Y-166304772D01*
X289375456Y-166304772D01*
X289294600Y-166321959D01*
X289195112Y-166343106D01*
X289189082Y-166345791D01*
X289189081Y-166345791D01*
X289026678Y-166418097D01*
X289026676Y-166418098D01*
X289020648Y-166420782D01*
X288866147Y-166533034D01*
X288861726Y-166537944D01*
X288861725Y-166537945D01*
X288786649Y-166621326D01*
X288738360Y-166674956D01*
X288642873Y-166840344D01*
X288583858Y-167021972D01*
X288583168Y-167028533D01*
X288583168Y-167028535D01*
X288579550Y-167062956D01*
X288563896Y-167211900D01*
X288583858Y-167401828D01*
X288642873Y-167583456D01*
X288738360Y-167748844D01*
X288811537Y-167830115D01*
X288842253Y-167894121D01*
X288843900Y-167914424D01*
X288843900Y-178009805D01*
X288823898Y-178077926D01*
X288806995Y-178098901D01*
X288039099Y-178866796D01*
X287976787Y-178900821D01*
X287950004Y-178903700D01*
X287894113Y-178903700D01*
X287887661Y-178905072D01*
X287887656Y-178905072D01*
X287800713Y-178923553D01*
X287707312Y-178943406D01*
X287701282Y-178946091D01*
X287701281Y-178946091D01*
X287538878Y-179018397D01*
X287538876Y-179018398D01*
X287532848Y-179021082D01*
X287527507Y-179024962D01*
X287527506Y-179024963D01*
X287455812Y-179077052D01*
X287378347Y-179133334D01*
X287377110Y-179131631D01*
X287322018Y-179158078D01*
X287251563Y-179149322D01*
X287197027Y-179103866D01*
X287175700Y-179033727D01*
X287175700Y-174848763D01*
X287176227Y-174837579D01*
X287177901Y-174830091D01*
X287175762Y-174762032D01*
X287175700Y-174758075D01*
X287175700Y-174730144D01*
X287175194Y-174726138D01*
X287174261Y-174714292D01*
X287173392Y-174686615D01*
X287172873Y-174670110D01*
X287167222Y-174650658D01*
X287163214Y-174631306D01*
X287161667Y-174619063D01*
X287160674Y-174611203D01*
X287157756Y-174603832D01*
X287144400Y-174570097D01*
X287140555Y-174558870D01*
X287139921Y-174556687D01*
X287128218Y-174516407D01*
X287124184Y-174509585D01*
X287124181Y-174509579D01*
X287117906Y-174498968D01*
X287109210Y-174481218D01*
X287104672Y-174469756D01*
X287104669Y-174469751D01*
X287101752Y-174462383D01*
X287075773Y-174426625D01*
X287069257Y-174416707D01*
X287058205Y-174398019D01*
X287046742Y-174378637D01*
X287032418Y-174364313D01*
X287019576Y-174349278D01*
X287007672Y-174332893D01*
X286973606Y-174304711D01*
X286964827Y-174296722D01*
X282130500Y-169462395D01*
X282096474Y-169400083D01*
X282101539Y-169329268D01*
X282130500Y-169284205D01*
X291962605Y-159452100D01*
X292024917Y-159418074D01*
X292095732Y-159423139D01*
G37*
%TD.AperFunction*%
%TA.AperFunction,NonConductor*%
G36*
X278778012Y-176692344D02*
G01*
X278803219Y-176722203D01*
X278900831Y-176883063D01*
X278907741Y-176894450D01*
X278911238Y-176898480D01*
X279047376Y-177055365D01*
X279058941Y-177068693D01*
X279090651Y-177094694D01*
X279233209Y-177211585D01*
X279233215Y-177211589D01*
X279237337Y-177214969D01*
X279437829Y-177329095D01*
X279442845Y-177330916D01*
X279442850Y-177330918D01*
X279649669Y-177405990D01*
X279649673Y-177405991D01*
X279654684Y-177407810D01*
X279659933Y-177408759D01*
X279659936Y-177408760D01*
X279877617Y-177448123D01*
X279877624Y-177448124D01*
X279881701Y-177448861D01*
X279899438Y-177449697D01*
X279904386Y-177449931D01*
X279904393Y-177449931D01*
X279905874Y-177450001D01*
X280068019Y-177450001D01*
X280134975Y-177444320D01*
X280234656Y-177435862D01*
X280234660Y-177435861D01*
X280239967Y-177435411D01*
X280245122Y-177434073D01*
X280245128Y-177434072D01*
X280458097Y-177378796D01*
X280458101Y-177378795D01*
X280463266Y-177377454D01*
X280468132Y-177375262D01*
X280468135Y-177375261D01*
X280566573Y-177330918D01*
X280577641Y-177325932D01*
X280647966Y-177316191D01*
X280712394Y-177346016D01*
X280750469Y-177405940D01*
X280750102Y-177476935D01*
X280718486Y-177529909D01*
X278609592Y-179638803D01*
X278547280Y-179672829D01*
X278476465Y-179667764D01*
X278419629Y-179625217D01*
X278394818Y-179558697D01*
X278410082Y-179489009D01*
X278417695Y-179475160D01*
X278422733Y-179455537D01*
X278429137Y-179436834D01*
X278434033Y-179425520D01*
X278434033Y-179425519D01*
X278437181Y-179418245D01*
X278438420Y-179410422D01*
X278438423Y-179410412D01*
X278444099Y-179374576D01*
X278446505Y-179362956D01*
X278455528Y-179327811D01*
X278455528Y-179327810D01*
X278457500Y-179320130D01*
X278457500Y-179299876D01*
X278459051Y-179280165D01*
X278460980Y-179267986D01*
X278462220Y-179260157D01*
X278458059Y-179216138D01*
X278457500Y-179204281D01*
X278457500Y-177467024D01*
X278476931Y-177400849D01*
X278476722Y-177400726D01*
X278477208Y-177399904D01*
X278477502Y-177398903D01*
X278479323Y-177396328D01*
X278480758Y-177393901D01*
X278485614Y-177387641D01*
X278488759Y-177380372D01*
X278488762Y-177380368D01*
X278503174Y-177347063D01*
X278508391Y-177336413D01*
X278529695Y-177297660D01*
X278534733Y-177278037D01*
X278541137Y-177259334D01*
X278546033Y-177248020D01*
X278546033Y-177248019D01*
X278549181Y-177240745D01*
X278550420Y-177232922D01*
X278550423Y-177232912D01*
X278556099Y-177197076D01*
X278558505Y-177185456D01*
X278567528Y-177150311D01*
X278567528Y-177150310D01*
X278569500Y-177142630D01*
X278569500Y-177122376D01*
X278571051Y-177102665D01*
X278572980Y-177090486D01*
X278574220Y-177082657D01*
X278570059Y-177038638D01*
X278569500Y-177026781D01*
X278569500Y-176787568D01*
X278589502Y-176719447D01*
X278643158Y-176672954D01*
X278713432Y-176662850D01*
X278778012Y-176692344D01*
G37*
%TD.AperFunction*%
%TA.AperFunction,NonConductor*%
G36*
X295852233Y-179747039D02*
G01*
X295909068Y-179789586D01*
X295933879Y-179856106D01*
X295934200Y-179865095D01*
X295934200Y-180982833D01*
X295914198Y-181050954D01*
X295860542Y-181097447D01*
X295790268Y-181107551D01*
X295727885Y-181079918D01*
X295712405Y-181067112D01*
X295659582Y-181023413D01*
X295393724Y-180854694D01*
X295390145Y-180853010D01*
X295390138Y-180853006D01*
X295112406Y-180722316D01*
X295112402Y-180722314D01*
X295108816Y-180720627D01*
X295052018Y-180702172D01*
X294993412Y-180662098D01*
X294965776Y-180596701D01*
X294977883Y-180526744D01*
X295001857Y-180493247D01*
X295719107Y-179775998D01*
X295781417Y-179741974D01*
X295852233Y-179747039D01*
G37*
%TD.AperFunction*%
%TA.AperFunction,NonConductor*%
G36*
X285820494Y-177814808D02*
G01*
X285879478Y-177854322D01*
X285907736Y-177919452D01*
X285908700Y-177935006D01*
X285908700Y-181268694D01*
X285888698Y-181336815D01*
X285835042Y-181383308D01*
X285764768Y-181393412D01*
X285700188Y-181363918D01*
X285689071Y-181353012D01*
X285636463Y-181294585D01*
X285605747Y-181230579D01*
X285604100Y-181210276D01*
X285604100Y-177993424D01*
X285624102Y-177925303D01*
X285636458Y-177909121D01*
X285689066Y-177850694D01*
X285749510Y-177813456D01*
X285820494Y-177814808D01*
G37*
%TD.AperFunction*%
%TA.AperFunction,NonConductor*%
G36*
X300885388Y-181009279D02*
G01*
X300926570Y-181067112D01*
X300933500Y-181108322D01*
X300933500Y-181736133D01*
X300932973Y-181747316D01*
X300931298Y-181754809D01*
X300931547Y-181762735D01*
X300931547Y-181762736D01*
X300933438Y-181822886D01*
X300933500Y-181826845D01*
X300933500Y-181854756D01*
X300933997Y-181858690D01*
X300933997Y-181858691D01*
X300934005Y-181858756D01*
X300934938Y-181870593D01*
X300936327Y-181914789D01*
X300941978Y-181934239D01*
X300945987Y-181953600D01*
X300948526Y-181973697D01*
X300951445Y-181981068D01*
X300951445Y-181981070D01*
X300964804Y-182014812D01*
X300968649Y-182026042D01*
X300980982Y-182068493D01*
X300985015Y-182075312D01*
X300985017Y-182075317D01*
X300991293Y-182085928D01*
X300999988Y-182103676D01*
X301007448Y-182122517D01*
X301012111Y-182128935D01*
X301015928Y-182135879D01*
X301012918Y-182137533D01*
X301031531Y-182189683D01*
X301015457Y-182258836D01*
X300964548Y-182308321D01*
X300953243Y-182313589D01*
X300858746Y-182352056D01*
X300857564Y-182349152D01*
X300803726Y-182362504D01*
X300736516Y-182339627D01*
X300692344Y-182284044D01*
X300689245Y-182275554D01*
X300627962Y-182086944D01*
X300626601Y-182082755D01*
X300622974Y-182075317D01*
X300558809Y-181943761D01*
X300503464Y-181830288D01*
X300398489Y-181674656D01*
X300356631Y-181612598D01*
X300335121Y-181544938D01*
X300353605Y-181476390D01*
X300373563Y-181451504D01*
X300472478Y-181355982D01*
X300472484Y-181355976D01*
X300475650Y-181352918D01*
X300648586Y-181131569D01*
X300662453Y-181107551D01*
X300698381Y-181045322D01*
X300749764Y-180996329D01*
X300819477Y-180982893D01*
X300885388Y-181009279D01*
G37*
%TD.AperFunction*%
%TA.AperFunction,NonConductor*%
G36*
X291318334Y-180705884D02*
G01*
X291535550Y-180802595D01*
X291539564Y-180804382D01*
X291809579Y-180881807D01*
X291853991Y-180888049D01*
X291884352Y-180892316D01*
X291949025Y-180921605D01*
X291987598Y-180981209D01*
X291987823Y-181052205D01*
X291955910Y-181106185D01*
X291474447Y-181587648D01*
X291466161Y-181595188D01*
X291459682Y-181599300D01*
X291454257Y-181605077D01*
X291413057Y-181648951D01*
X291410302Y-181651793D01*
X291390565Y-181671530D01*
X291388085Y-181674727D01*
X291380382Y-181683747D01*
X291350114Y-181715979D01*
X291346295Y-181722925D01*
X291346293Y-181722928D01*
X291340352Y-181733734D01*
X291329501Y-181750253D01*
X291317086Y-181766259D01*
X291313941Y-181773528D01*
X291313938Y-181773532D01*
X291299526Y-181806837D01*
X291294309Y-181817487D01*
X291273005Y-181856240D01*
X291271034Y-181863915D01*
X291271034Y-181863916D01*
X291267967Y-181875862D01*
X291261563Y-181894566D01*
X291253519Y-181913155D01*
X291252280Y-181920978D01*
X291252277Y-181920988D01*
X291246601Y-181956824D01*
X291244195Y-181968444D01*
X291235172Y-182003589D01*
X291233200Y-182011270D01*
X291233200Y-182031524D01*
X291231649Y-182051234D01*
X291228480Y-182071243D01*
X291229226Y-182079135D01*
X291232641Y-182115261D01*
X291233200Y-182127119D01*
X291233200Y-183728504D01*
X291213198Y-183796625D01*
X291159542Y-183843118D01*
X291089268Y-183853222D01*
X291042306Y-183836507D01*
X289964237Y-183188738D01*
X289907457Y-183162502D01*
X289764215Y-183136084D01*
X289661824Y-183146575D01*
X289592021Y-183133620D01*
X289540525Y-183085363D01*
X289533903Y-183074164D01*
X289525210Y-183056418D01*
X289520672Y-183044956D01*
X289520669Y-183044951D01*
X289517752Y-183037583D01*
X289491773Y-183001825D01*
X289485257Y-182991907D01*
X289474205Y-182973219D01*
X289462742Y-182953837D01*
X289448418Y-182939513D01*
X289435576Y-182924478D01*
X289423672Y-182908093D01*
X289389606Y-182879911D01*
X289380827Y-182871922D01*
X288660005Y-182151100D01*
X288625979Y-182088788D01*
X288623100Y-182062005D01*
X288623100Y-181454726D01*
X288643102Y-181386605D01*
X288696758Y-181340112D01*
X288767032Y-181330008D01*
X288831612Y-181359502D01*
X288844266Y-181372146D01*
X288862720Y-181393412D01*
X288880237Y-181413599D01*
X288884368Y-181416986D01*
X289054505Y-181556491D01*
X289054511Y-181556495D01*
X289058633Y-181559875D01*
X289259125Y-181674001D01*
X289264141Y-181675822D01*
X289264146Y-181675824D01*
X289470965Y-181750896D01*
X289470969Y-181750897D01*
X289475980Y-181752716D01*
X289481229Y-181753665D01*
X289481232Y-181753666D01*
X289698913Y-181793029D01*
X289698920Y-181793030D01*
X289702997Y-181793767D01*
X289720734Y-181794603D01*
X289725682Y-181794837D01*
X289725689Y-181794837D01*
X289727170Y-181794907D01*
X289889315Y-181794907D01*
X289956271Y-181789226D01*
X290055952Y-181780768D01*
X290055956Y-181780767D01*
X290061263Y-181780317D01*
X290066418Y-181778979D01*
X290066424Y-181778978D01*
X290279393Y-181723702D01*
X290279397Y-181723701D01*
X290284562Y-181722360D01*
X290289428Y-181720168D01*
X290289431Y-181720167D01*
X290490039Y-181629800D01*
X290494905Y-181627608D01*
X290499325Y-181624632D01*
X290499329Y-181624630D01*
X290600562Y-181556475D01*
X290686275Y-181498769D01*
X290853202Y-181339529D01*
X290908800Y-181264803D01*
X290987727Y-181158721D01*
X290987729Y-181158718D01*
X290990911Y-181154441D01*
X291095467Y-180948795D01*
X291146755Y-180783623D01*
X291186055Y-180724502D01*
X291251085Y-180696011D01*
X291318334Y-180705884D01*
G37*
%TD.AperFunction*%
%TA.AperFunction,NonConductor*%
G36*
X287384212Y-182610220D02*
G01*
X287410150Y-182641300D01*
X287413891Y-182647625D01*
X287422588Y-182665376D01*
X287430048Y-182684217D01*
X287434710Y-182690633D01*
X287434710Y-182690634D01*
X287456036Y-182719987D01*
X287462552Y-182729907D01*
X287485058Y-182767962D01*
X287499379Y-182782283D01*
X287512219Y-182797316D01*
X287524128Y-182813707D01*
X287558205Y-182841898D01*
X287566984Y-182849888D01*
X288287795Y-183570699D01*
X288321821Y-183633011D01*
X288324700Y-183659794D01*
X288324700Y-183798051D01*
X288324256Y-183806834D01*
X288322830Y-183813010D01*
X288323097Y-183823889D01*
X288321584Y-183846689D01*
X288319880Y-183857443D01*
X288320626Y-183865335D01*
X288320626Y-183865337D01*
X288324141Y-183902519D01*
X288324498Y-183910097D01*
X288324700Y-183913307D01*
X288324700Y-183917256D01*
X288325195Y-183921177D01*
X288325444Y-183925132D01*
X288325314Y-183925140D01*
X288325704Y-183930344D01*
X288326750Y-183973021D01*
X288328908Y-183980647D01*
X288328909Y-183980651D01*
X288329715Y-183983497D01*
X288333918Y-184005949D01*
X288334943Y-184016792D01*
X288337627Y-184024246D01*
X288338328Y-184027384D01*
X288338811Y-184028954D01*
X288339726Y-184036197D01*
X288342643Y-184043565D01*
X288342644Y-184043568D01*
X288354579Y-184073711D01*
X288358665Y-184085780D01*
X288370340Y-184127031D01*
X288375819Y-184136443D01*
X288385473Y-184157146D01*
X288389161Y-184167389D01*
X288393614Y-184173943D01*
X288395034Y-184176729D01*
X288395972Y-184178261D01*
X288398648Y-184185017D01*
X288403306Y-184191428D01*
X288403307Y-184191430D01*
X288422292Y-184217562D01*
X288429249Y-184228232D01*
X288450862Y-184265361D01*
X288458509Y-184273115D01*
X288473003Y-184290759D01*
X288479128Y-184299771D01*
X288485076Y-184305015D01*
X288487125Y-184307339D01*
X288488460Y-184308632D01*
X288492728Y-184314507D01*
X288498836Y-184319560D01*
X288498837Y-184319561D01*
X288523689Y-184340120D01*
X288533079Y-184348723D01*
X288563254Y-184379320D01*
X288570052Y-184383404D01*
X288576283Y-184388307D01*
X288574325Y-184390796D01*
X288612472Y-184432230D01*
X288624688Y-184502168D01*
X288607491Y-184552893D01*
X288342993Y-184993091D01*
X288316757Y-185049871D01*
X288290339Y-185193113D01*
X288291254Y-185202040D01*
X288297055Y-185258666D01*
X288284100Y-185328471D01*
X288235462Y-185380190D01*
X288219218Y-185388209D01*
X288166498Y-185409670D01*
X288166496Y-185409671D01*
X288158186Y-185413054D01*
X288044113Y-185503628D01*
X288006297Y-185553449D01*
X287953948Y-185640572D01*
X287684401Y-186089174D01*
X287684398Y-186089178D01*
X287409703Y-186546346D01*
X287357473Y-186594435D01*
X287287536Y-186606652D01*
X287222095Y-186579119D01*
X287181929Y-186520577D01*
X287175700Y-186481451D01*
X287175700Y-182705444D01*
X287195702Y-182637323D01*
X287249358Y-182590830D01*
X287319632Y-182580726D01*
X287384212Y-182610220D01*
G37*
%TD.AperFunction*%
%TA.AperFunction,NonConductor*%
G36*
X297298610Y-184223694D02*
G01*
X297326636Y-184246953D01*
X297361175Y-184285312D01*
X297364537Y-184288133D01*
X297364538Y-184288134D01*
X297423252Y-184337401D01*
X297576354Y-184465869D01*
X297587639Y-184472921D01*
X297592709Y-184476089D01*
X297639878Y-184529152D01*
X297650872Y-184599292D01*
X297622199Y-184664241D01*
X297612909Y-184674112D01*
X297584477Y-184701235D01*
X297518398Y-184764271D01*
X297515210Y-184768556D01*
X297396331Y-184928336D01*
X297380689Y-184949359D01*
X297276133Y-185155005D01*
X297264300Y-185193113D01*
X297209305Y-185370223D01*
X297209304Y-185370229D01*
X297207721Y-185375326D01*
X297207020Y-185380618D01*
X297181682Y-185571796D01*
X297177410Y-185604025D01*
X297186064Y-185834561D01*
X297233438Y-186060343D01*
X297235396Y-186065302D01*
X297235397Y-186065304D01*
X297259130Y-186125400D01*
X297318177Y-186274915D01*
X297437857Y-186472142D01*
X297441354Y-186476172D01*
X297583470Y-186639946D01*
X297589057Y-186646385D01*
X297593188Y-186649772D01*
X297763325Y-186789277D01*
X297763331Y-186789281D01*
X297767453Y-186792661D01*
X297967945Y-186906787D01*
X297990277Y-186914893D01*
X298016680Y-186924477D01*
X298073888Y-186966522D01*
X298099284Y-187032821D01*
X298084804Y-187102325D01*
X298062784Y-187132011D01*
X296808958Y-188385837D01*
X296746646Y-188419863D01*
X296675831Y-188414798D01*
X296618995Y-188372251D01*
X296594184Y-188305731D01*
X296611409Y-188232603D01*
X296613654Y-188228807D01*
X296618514Y-188222541D01*
X296636074Y-188181963D01*
X296641291Y-188171313D01*
X296662595Y-188132560D01*
X296667633Y-188112937D01*
X296674037Y-188094234D01*
X296678933Y-188082920D01*
X296678933Y-188082919D01*
X296682081Y-188075645D01*
X296683320Y-188067822D01*
X296683323Y-188067812D01*
X296688999Y-188031976D01*
X296691405Y-188020356D01*
X296700428Y-187985211D01*
X296700428Y-187985210D01*
X296702400Y-187977530D01*
X296702400Y-187957276D01*
X296703951Y-187937565D01*
X296705880Y-187925386D01*
X296707120Y-187917557D01*
X296702959Y-187873538D01*
X296702400Y-187861681D01*
X296702400Y-187101163D01*
X296702927Y-187089979D01*
X296704601Y-187082491D01*
X296702462Y-187014432D01*
X296702400Y-187010475D01*
X296702400Y-186982544D01*
X296701894Y-186978538D01*
X296700961Y-186966692D01*
X296699822Y-186930437D01*
X296699573Y-186922510D01*
X296693922Y-186903058D01*
X296689914Y-186883706D01*
X296688368Y-186871468D01*
X296688367Y-186871466D01*
X296687374Y-186863603D01*
X296671094Y-186822486D01*
X296667259Y-186811285D01*
X296654918Y-186768806D01*
X296650885Y-186761987D01*
X296650883Y-186761982D01*
X296644607Y-186751371D01*
X296635910Y-186733621D01*
X296628452Y-186714783D01*
X296616846Y-186698808D01*
X296602472Y-186679025D01*
X296595953Y-186669101D01*
X296577478Y-186637861D01*
X296577477Y-186637859D01*
X296573442Y-186631037D01*
X296572069Y-186629664D01*
X296547094Y-186566057D01*
X296546600Y-186554914D01*
X296546600Y-186533024D01*
X296566602Y-186464903D01*
X296578958Y-186448721D01*
X296652140Y-186367444D01*
X296747627Y-186202056D01*
X296806642Y-186020428D01*
X296826604Y-185830500D01*
X296806642Y-185640572D01*
X296747627Y-185458944D01*
X296652140Y-185293556D01*
X296524353Y-185151634D01*
X296495383Y-185130586D01*
X296452029Y-185074364D01*
X296445954Y-185003627D01*
X296480349Y-184939555D01*
X296959947Y-184459957D01*
X296968237Y-184452413D01*
X296974718Y-184448300D01*
X297021359Y-184398632D01*
X297024113Y-184395791D01*
X297043834Y-184376070D01*
X297046312Y-184372875D01*
X297054018Y-184363853D01*
X297078858Y-184337401D01*
X297084286Y-184331621D01*
X297090916Y-184319561D01*
X297094046Y-184313868D01*
X297104899Y-184297345D01*
X297108106Y-184293211D01*
X297117313Y-184281341D01*
X297120463Y-184274061D01*
X297124495Y-184267244D01*
X297127571Y-184269063D01*
X297162407Y-184226897D01*
X297230038Y-184205299D01*
X297298610Y-184223694D01*
G37*
%TD.AperFunction*%
%TA.AperFunction,NonConductor*%
G36*
X296394046Y-188591177D02*
G01*
X296438513Y-188646524D01*
X296445999Y-188717125D01*
X296411129Y-188783666D01*
X294649293Y-190545502D01*
X294586981Y-190579528D01*
X294516166Y-190574463D01*
X294459330Y-190531916D01*
X294434519Y-190465396D01*
X294452195Y-190391512D01*
X294556308Y-190218239D01*
X294556309Y-190218237D01*
X294749950Y-189895965D01*
X294878207Y-189682509D01*
X294904443Y-189625729D01*
X294930861Y-189482487D01*
X294925083Y-189426092D01*
X294924145Y-189416934D01*
X294937100Y-189347129D01*
X294985738Y-189295410D01*
X295001982Y-189287391D01*
X295054702Y-189265930D01*
X295054704Y-189265929D01*
X295063014Y-189262546D01*
X295097133Y-189235456D01*
X295170902Y-189176883D01*
X295177087Y-189171972D01*
X295214903Y-189122151D01*
X295481414Y-188678603D01*
X295533643Y-188630515D01*
X295603580Y-188618298D01*
X295646616Y-188631231D01*
X295695004Y-188655885D01*
X295702737Y-188657614D01*
X295710198Y-188660300D01*
X295710196Y-188660305D01*
X295714082Y-188661583D01*
X295714084Y-188661577D01*
X295721683Y-188663842D01*
X295728935Y-188667039D01*
X295736754Y-188668333D01*
X295736755Y-188668333D01*
X295786924Y-188676634D01*
X295793831Y-188677976D01*
X295851209Y-188690802D01*
X295859135Y-188690553D01*
X295867028Y-188691299D01*
X295867027Y-188691305D01*
X295871103Y-188691576D01*
X295871103Y-188691569D01*
X295879025Y-188691873D01*
X295886848Y-188693167D01*
X295945417Y-188688037D01*
X295952434Y-188687620D01*
X295992030Y-188686375D01*
X296011189Y-188685773D01*
X296018806Y-188683560D01*
X296026629Y-188682321D01*
X296026630Y-188682326D01*
X296030654Y-188681573D01*
X296030653Y-188681569D01*
X296038400Y-188679894D01*
X296046296Y-188679202D01*
X296053768Y-188676570D01*
X296053772Y-188676569D01*
X296099940Y-188660305D01*
X296101754Y-188659666D01*
X296108457Y-188657514D01*
X296126445Y-188652288D01*
X296164893Y-188641118D01*
X296171721Y-188637080D01*
X296178993Y-188633933D01*
X296178996Y-188633939D01*
X296182700Y-188632212D01*
X296182697Y-188632206D01*
X296189783Y-188628657D01*
X296197263Y-188626022D01*
X296246120Y-188593310D01*
X296252062Y-188589567D01*
X296257899Y-188586115D01*
X296326716Y-188568658D01*
X296394046Y-188591177D01*
G37*
%TD.AperFunction*%
%TA.AperFunction,NonConductor*%
G36*
X271583749Y-138798601D02*
G01*
X271630278Y-138852225D01*
X271641700Y-138904645D01*
X271641700Y-164375933D01*
X271641173Y-164387116D01*
X271639498Y-164394609D01*
X271639747Y-164402535D01*
X271639747Y-164402536D01*
X271641638Y-164462686D01*
X271641700Y-164466645D01*
X271641700Y-164494556D01*
X271642197Y-164498490D01*
X271642197Y-164498491D01*
X271642205Y-164498556D01*
X271643138Y-164510393D01*
X271644527Y-164554589D01*
X271648567Y-164568494D01*
X271650178Y-164574039D01*
X271654187Y-164593400D01*
X271656726Y-164613497D01*
X271659645Y-164620868D01*
X271659645Y-164620870D01*
X271673004Y-164654612D01*
X271676849Y-164665842D01*
X271684530Y-164692282D01*
X271689182Y-164708293D01*
X271693215Y-164715112D01*
X271693217Y-164715117D01*
X271699493Y-164725728D01*
X271708188Y-164743476D01*
X271715648Y-164762317D01*
X271720310Y-164768733D01*
X271720310Y-164768734D01*
X271741636Y-164798087D01*
X271748152Y-164808007D01*
X271757476Y-164823772D01*
X271770658Y-164846062D01*
X271784979Y-164860383D01*
X271797819Y-164875416D01*
X271809728Y-164891807D01*
X271815834Y-164896858D01*
X271843805Y-164919998D01*
X271852584Y-164927988D01*
X271887078Y-164962482D01*
X271921104Y-165024794D01*
X271923292Y-165038403D01*
X271938420Y-165182333D01*
X271929935Y-165242702D01*
X271904981Y-165304467D01*
X271860917Y-165360135D01*
X271793752Y-165383143D01*
X271740956Y-165374092D01*
X271319041Y-165203628D01*
X271218350Y-165162946D01*
X271158166Y-165145916D01*
X271150275Y-165145716D01*
X271150273Y-165145716D01*
X271041761Y-165142970D01*
X271012554Y-165142231D01*
X271003883Y-165144530D01*
X270880436Y-165177261D01*
X270880435Y-165177261D01*
X270871762Y-165179561D01*
X270864082Y-165184203D01*
X270826323Y-165207026D01*
X270747106Y-165254907D01*
X270741038Y-165261518D01*
X270741035Y-165261520D01*
X270723523Y-165280598D01*
X270648607Y-165362211D01*
X270644874Y-165369173D01*
X270633182Y-165390979D01*
X270619050Y-165417334D01*
X270617772Y-165420496D01*
X270617772Y-165420497D01*
X270582515Y-165507762D01*
X269646471Y-167824552D01*
X269629440Y-167884737D01*
X269629240Y-167892634D01*
X269629240Y-167892635D01*
X269627058Y-167978843D01*
X269625755Y-168030348D01*
X269663086Y-168171140D01*
X269738431Y-168295796D01*
X269745042Y-168301864D01*
X269745044Y-168301867D01*
X269763525Y-168318831D01*
X269845735Y-168394295D01*
X269852703Y-168398031D01*
X269897852Y-168422240D01*
X269897857Y-168422242D01*
X269900859Y-168423852D01*
X269904021Y-168425130D01*
X269904022Y-168425130D01*
X271127129Y-168919298D01*
X271182797Y-168963362D01*
X271205805Y-169030527D01*
X271188848Y-169099469D01*
X271179219Y-169113696D01*
X271052488Y-169275905D01*
X271049742Y-169279420D01*
X271047546Y-169283224D01*
X271047541Y-169283231D01*
X271020962Y-169329268D01*
X270909294Y-169522683D01*
X270804068Y-169783126D01*
X270803003Y-169787399D01*
X270803002Y-169787401D01*
X270737549Y-170049920D01*
X270736113Y-170055678D01*
X270735654Y-170060046D01*
X270735653Y-170060051D01*
X270709917Y-170304918D01*
X270706752Y-170335035D01*
X270706905Y-170339423D01*
X270706905Y-170339429D01*
X270714775Y-170564775D01*
X270716555Y-170615760D01*
X270717317Y-170620083D01*
X270717318Y-170620090D01*
X270745042Y-170777319D01*
X270737173Y-170847879D01*
X270692405Y-170902982D01*
X270620956Y-170925199D01*
X270531981Y-170925199D01*
X270465025Y-170930880D01*
X270365344Y-170939338D01*
X270365340Y-170939339D01*
X270360033Y-170939789D01*
X270354878Y-170941127D01*
X270354872Y-170941128D01*
X270141903Y-170996404D01*
X270141899Y-170996405D01*
X270136734Y-170997746D01*
X270131868Y-170999938D01*
X270131865Y-170999939D01*
X269931257Y-171090306D01*
X269926391Y-171092498D01*
X269921971Y-171095474D01*
X269921967Y-171095476D01*
X269866860Y-171132577D01*
X269735021Y-171221337D01*
X269568094Y-171380577D01*
X269564906Y-171384862D01*
X269438403Y-171554889D01*
X269430385Y-171565665D01*
X269427970Y-171570415D01*
X269332076Y-171759025D01*
X269325829Y-171771311D01*
X269312343Y-171814744D01*
X269259001Y-171986529D01*
X269259000Y-171986535D01*
X269257417Y-171991632D01*
X269254061Y-172016956D01*
X269228446Y-172210222D01*
X269227106Y-172220331D01*
X269227306Y-172225661D01*
X269227306Y-172225662D01*
X269228506Y-172257634D01*
X269235760Y-172450867D01*
X269283134Y-172676649D01*
X269285092Y-172681608D01*
X269285093Y-172681610D01*
X269323888Y-172779845D01*
X269367873Y-172891221D01*
X269447980Y-173023233D01*
X269475791Y-173069064D01*
X269487553Y-173088448D01*
X269491050Y-173092478D01*
X269629294Y-173251790D01*
X269638753Y-173262691D01*
X269642884Y-173266078D01*
X269813021Y-173405583D01*
X269813027Y-173405587D01*
X269817149Y-173408967D01*
X270017641Y-173523093D01*
X270022657Y-173524914D01*
X270022662Y-173524916D01*
X270229481Y-173599988D01*
X270229485Y-173599989D01*
X270234496Y-173601808D01*
X270239745Y-173602757D01*
X270239748Y-173602758D01*
X270457429Y-173642121D01*
X270457436Y-173642122D01*
X270461513Y-173642859D01*
X270479250Y-173643695D01*
X270484198Y-173643929D01*
X270484205Y-173643929D01*
X270485686Y-173643999D01*
X270647831Y-173643999D01*
X270714787Y-173638318D01*
X270814468Y-173629860D01*
X270814472Y-173629859D01*
X270819779Y-173629409D01*
X270824934Y-173628071D01*
X270824940Y-173628070D01*
X271037909Y-173572794D01*
X271037913Y-173572793D01*
X271043078Y-173571452D01*
X271047944Y-173569260D01*
X271047947Y-173569259D01*
X271248555Y-173478892D01*
X271253421Y-173476700D01*
X271257841Y-173473724D01*
X271257845Y-173473722D01*
X271297253Y-173447190D01*
X271305742Y-173441475D01*
X271373421Y-173420024D01*
X271441953Y-173438567D01*
X271489580Y-173491218D01*
X271501182Y-173561261D01*
X271473074Y-173626456D01*
X271465205Y-173635090D01*
X269594147Y-175506148D01*
X269585861Y-175513688D01*
X269579382Y-175517800D01*
X269573957Y-175523577D01*
X269532757Y-175567451D01*
X269530002Y-175570293D01*
X269510265Y-175590030D01*
X269507785Y-175593227D01*
X269500082Y-175602247D01*
X269469814Y-175634479D01*
X269465995Y-175641425D01*
X269465993Y-175641428D01*
X269460052Y-175652234D01*
X269449201Y-175668753D01*
X269436786Y-175684759D01*
X269433641Y-175692028D01*
X269433638Y-175692032D01*
X269419226Y-175725337D01*
X269414009Y-175735987D01*
X269392705Y-175774740D01*
X269390734Y-175782415D01*
X269390734Y-175782416D01*
X269387667Y-175794362D01*
X269381263Y-175813066D01*
X269373219Y-175831655D01*
X269371980Y-175839478D01*
X269371977Y-175839488D01*
X269366301Y-175875324D01*
X269363895Y-175886944D01*
X269359233Y-175905102D01*
X269352900Y-175929770D01*
X269352900Y-175950024D01*
X269351349Y-175969734D01*
X269348180Y-175989743D01*
X269348926Y-175997635D01*
X269352341Y-176033761D01*
X269352900Y-176045619D01*
X269352900Y-177368659D01*
X269332898Y-177436780D01*
X269300961Y-177470595D01*
X269284114Y-177482835D01*
X269274193Y-177489352D01*
X269242965Y-177507820D01*
X269242962Y-177507822D01*
X269236138Y-177511858D01*
X269221817Y-177526179D01*
X269206784Y-177539019D01*
X269190393Y-177550928D01*
X269164016Y-177582813D01*
X269162212Y-177584993D01*
X269154222Y-177593774D01*
X268542242Y-178205753D01*
X268533963Y-178213287D01*
X268527482Y-178217400D01*
X268500716Y-178245903D01*
X268480857Y-178267051D01*
X268478102Y-178269893D01*
X268458365Y-178289630D01*
X268455885Y-178292827D01*
X268448182Y-178301847D01*
X268417914Y-178334079D01*
X268414095Y-178341025D01*
X268414093Y-178341028D01*
X268408152Y-178351834D01*
X268397301Y-178368353D01*
X268384886Y-178384359D01*
X268381741Y-178391628D01*
X268381738Y-178391632D01*
X268367326Y-178424937D01*
X268362109Y-178435587D01*
X268340805Y-178474340D01*
X268338834Y-178482015D01*
X268338834Y-178482016D01*
X268335767Y-178493962D01*
X268329363Y-178512666D01*
X268321319Y-178531255D01*
X268320080Y-178539078D01*
X268320077Y-178539088D01*
X268314401Y-178574924D01*
X268311995Y-178586544D01*
X268301000Y-178629370D01*
X268301000Y-178649624D01*
X268299449Y-178669334D01*
X268296280Y-178689343D01*
X268297026Y-178697235D01*
X268297026Y-178697236D01*
X268298928Y-178717362D01*
X268299180Y-178738004D01*
X268298553Y-178746974D01*
X268296961Y-178769752D01*
X268307582Y-178827617D01*
X268308659Y-178834578D01*
X268308868Y-178836233D01*
X268297558Y-178906323D01*
X268250151Y-178959172D01*
X268181696Y-178978000D01*
X268178360Y-178977719D01*
X268177663Y-178977522D01*
X268175311Y-178977462D01*
X268175305Y-178977462D01*
X268041023Y-178974064D01*
X268032051Y-178973837D01*
X267891259Y-179011168D01*
X267883578Y-179015811D01*
X267883577Y-179015811D01*
X267783704Y-179076177D01*
X267766603Y-179086513D01*
X267760535Y-179093124D01*
X267760532Y-179093126D01*
X267737426Y-179118298D01*
X267668104Y-179193817D01*
X267638547Y-179248941D01*
X267637269Y-179252103D01*
X267637269Y-179252104D01*
X266951762Y-180948795D01*
X266936434Y-180986732D01*
X266919403Y-181046916D01*
X266919203Y-181054813D01*
X266919203Y-181054814D01*
X266915945Y-181183556D01*
X266915718Y-181192528D01*
X266953049Y-181333320D01*
X266957692Y-181341001D01*
X266957692Y-181341002D01*
X267003619Y-181416986D01*
X267028394Y-181457976D01*
X267035005Y-181464044D01*
X267035007Y-181464047D01*
X267112871Y-181535521D01*
X267135698Y-181556475D01*
X267142666Y-181560211D01*
X267187815Y-181584420D01*
X267187820Y-181584422D01*
X267190822Y-181586032D01*
X267193984Y-181587310D01*
X267193985Y-181587310D01*
X268919235Y-182284356D01*
X268928613Y-182288145D01*
X268988797Y-182305176D01*
X268996694Y-182305376D01*
X268996695Y-182305376D01*
X269125437Y-182308634D01*
X269134409Y-182308861D01*
X269275201Y-182271530D01*
X269299613Y-182256775D01*
X269392174Y-182200829D01*
X269392175Y-182200828D01*
X269399857Y-182196185D01*
X269405928Y-182189571D01*
X269410599Y-182185748D01*
X269475982Y-182158080D01*
X269545945Y-182170153D01*
X269575609Y-182190428D01*
X269653710Y-182262121D01*
X269708834Y-182291678D01*
X269943670Y-182386558D01*
X270629390Y-182663608D01*
X270629399Y-182663611D01*
X270632557Y-182664887D01*
X270635834Y-182665814D01*
X270635842Y-182665817D01*
X270685143Y-182679767D01*
X270685145Y-182679767D01*
X270692742Y-182681917D01*
X270700635Y-182682117D01*
X270700636Y-182682117D01*
X270829379Y-182685376D01*
X270829380Y-182685376D01*
X270838353Y-182685603D01*
X270979146Y-182648272D01*
X270996555Y-182637750D01*
X271096118Y-182577571D01*
X271096119Y-182577570D01*
X271103801Y-182572927D01*
X271109869Y-182566316D01*
X271109872Y-182566314D01*
X271196957Y-182471444D01*
X271196958Y-182471443D01*
X271202301Y-182465622D01*
X271231857Y-182410499D01*
X271251249Y-182362504D01*
X271416666Y-181953082D01*
X271460730Y-181897414D01*
X271527895Y-181874406D01*
X271596837Y-181891363D01*
X271615667Y-181905090D01*
X271618347Y-181908066D01*
X271693529Y-181962689D01*
X271765270Y-182014812D01*
X271772848Y-182020318D01*
X271778876Y-182023002D01*
X271778878Y-182023003D01*
X271939381Y-182094463D01*
X271947312Y-182097994D01*
X272040713Y-182117847D01*
X272127656Y-182136328D01*
X272127661Y-182136328D01*
X272134113Y-182137700D01*
X272325087Y-182137700D01*
X272331539Y-182136328D01*
X272331544Y-182136328D01*
X272418488Y-182117847D01*
X272511888Y-182097994D01*
X272517915Y-182095311D01*
X272517923Y-182095308D01*
X272638935Y-182041430D01*
X272709302Y-182031996D01*
X272773599Y-182062103D01*
X272811412Y-182122192D01*
X272810736Y-182193185D01*
X272807009Y-182203733D01*
X272514152Y-182928580D01*
X272497121Y-182988765D01*
X272496921Y-182996662D01*
X272496921Y-182996663D01*
X272494203Y-183104063D01*
X272493436Y-183134376D01*
X272530767Y-183275168D01*
X272535410Y-183282849D01*
X272535410Y-183282850D01*
X272536903Y-183285319D01*
X272606112Y-183399824D01*
X272612723Y-183405892D01*
X272612725Y-183405895D01*
X272668863Y-183457426D01*
X272713416Y-183498323D01*
X272768540Y-183527880D01*
X272992800Y-183618487D01*
X273689096Y-183899810D01*
X273689105Y-183899813D01*
X273692263Y-183901089D01*
X273695540Y-183902016D01*
X273695548Y-183902019D01*
X273744849Y-183915969D01*
X273744851Y-183915969D01*
X273752448Y-183918119D01*
X273760341Y-183918319D01*
X273760342Y-183918319D01*
X273889085Y-183921578D01*
X273889086Y-183921578D01*
X273898059Y-183921805D01*
X274038852Y-183884474D01*
X274065769Y-183868204D01*
X274134413Y-183850086D01*
X274201957Y-183871955D01*
X274246956Y-183926870D01*
X274249097Y-183932696D01*
X274249447Y-183934247D01*
X274273548Y-183993601D01*
X274335575Y-184146354D01*
X274339833Y-184156841D01*
X274423401Y-184293211D01*
X274445696Y-184329592D01*
X274465361Y-184361683D01*
X274622659Y-184543273D01*
X274807503Y-184696734D01*
X275014929Y-184817944D01*
X275019749Y-184819784D01*
X275019754Y-184819787D01*
X275168543Y-184876603D01*
X275239367Y-184903648D01*
X275244433Y-184904679D01*
X275244434Y-184904679D01*
X275300761Y-184916139D01*
X275474789Y-184951545D01*
X275609797Y-184956496D01*
X275709708Y-184960160D01*
X275709712Y-184960160D01*
X275714872Y-184960349D01*
X275719992Y-184959693D01*
X275719994Y-184959693D01*
X275800661Y-184949359D01*
X275953170Y-184929822D01*
X275958121Y-184928337D01*
X275958124Y-184928336D01*
X276178332Y-184862270D01*
X276178331Y-184862270D01*
X276183282Y-184860785D01*
X276399028Y-184755092D01*
X276417631Y-184741823D01*
X276590412Y-184618579D01*
X276594615Y-184615581D01*
X276764790Y-184445999D01*
X276904983Y-184250900D01*
X277011429Y-184035524D01*
X277037254Y-183950526D01*
X277079765Y-183810607D01*
X277079766Y-183810601D01*
X277081269Y-183805655D01*
X277112627Y-183567465D01*
X277113634Y-183526265D01*
X277114295Y-183499216D01*
X277114295Y-183499212D01*
X277114377Y-183495851D01*
X277094692Y-183256414D01*
X277049678Y-183077208D01*
X277052482Y-183006267D01*
X277082787Y-182957417D01*
X282380747Y-177659457D01*
X282389037Y-177651913D01*
X282395518Y-177647800D01*
X282442159Y-177598132D01*
X282444913Y-177595291D01*
X282464634Y-177575570D01*
X282467112Y-177572375D01*
X282474818Y-177563353D01*
X282499658Y-177536901D01*
X282505086Y-177531121D01*
X282514846Y-177513368D01*
X282525699Y-177496845D01*
X282533253Y-177487106D01*
X282538113Y-177480841D01*
X282555676Y-177440257D01*
X282560883Y-177429627D01*
X282582195Y-177390860D01*
X282584166Y-177383183D01*
X282584168Y-177383178D01*
X282587232Y-177371242D01*
X282593638Y-177352530D01*
X282598364Y-177341611D01*
X282601681Y-177333945D01*
X282603635Y-177321612D01*
X282608597Y-177290281D01*
X282611004Y-177278660D01*
X282620028Y-177243511D01*
X282620028Y-177243510D01*
X282622000Y-177235830D01*
X282622000Y-177215569D01*
X282623551Y-177195858D01*
X282625479Y-177183685D01*
X282626719Y-177175857D01*
X282622559Y-177131846D01*
X282622000Y-177119989D01*
X282622000Y-176693782D01*
X282631175Y-176646582D01*
X282661198Y-176572272D01*
X282702021Y-176471230D01*
X282746083Y-176415564D01*
X282813248Y-176392555D01*
X282866043Y-176401605D01*
X283388641Y-176612749D01*
X283448825Y-176629779D01*
X283456716Y-176629979D01*
X283456718Y-176629979D01*
X283565230Y-176632725D01*
X283594437Y-176633464D01*
X283616444Y-176627629D01*
X283726555Y-176598434D01*
X283726556Y-176598434D01*
X283735229Y-176596134D01*
X283762188Y-176579839D01*
X283852202Y-176525432D01*
X283852203Y-176525431D01*
X283859885Y-176520788D01*
X283865953Y-176514177D01*
X283865956Y-176514175D01*
X283918597Y-176456828D01*
X283958384Y-176413484D01*
X283975051Y-176382400D01*
X283986331Y-176361364D01*
X283986332Y-176361361D01*
X283987941Y-176358361D01*
X284029955Y-176254374D01*
X284353373Y-175453884D01*
X284850912Y-174222430D01*
X284894976Y-174166763D01*
X284962141Y-174143755D01*
X285031083Y-174160712D01*
X285056832Y-174180536D01*
X285871795Y-174995499D01*
X285905821Y-175057811D01*
X285908700Y-175084594D01*
X285908700Y-176646794D01*
X285888698Y-176714915D01*
X285835042Y-176761408D01*
X285764768Y-176771512D01*
X285700188Y-176742018D01*
X285689064Y-176731104D01*
X285586275Y-176616945D01*
X285586274Y-176616944D01*
X285581853Y-176612034D01*
X285456264Y-176520788D01*
X285432694Y-176503663D01*
X285432693Y-176503662D01*
X285427352Y-176499782D01*
X285421324Y-176497098D01*
X285421322Y-176497097D01*
X285258919Y-176424791D01*
X285258918Y-176424791D01*
X285252888Y-176422106D01*
X285156444Y-176401606D01*
X285072544Y-176383772D01*
X285072539Y-176383772D01*
X285066087Y-176382400D01*
X284875113Y-176382400D01*
X284868661Y-176383772D01*
X284868656Y-176383772D01*
X284784756Y-176401606D01*
X284688312Y-176422106D01*
X284682282Y-176424791D01*
X284682281Y-176424791D01*
X284519878Y-176497097D01*
X284519876Y-176497098D01*
X284513848Y-176499782D01*
X284508507Y-176503662D01*
X284508506Y-176503663D01*
X284484936Y-176520788D01*
X284359347Y-176612034D01*
X284354926Y-176616944D01*
X284354925Y-176616945D01*
X284254499Y-176728480D01*
X284231560Y-176753956D01*
X284185386Y-176833932D01*
X284150446Y-176894450D01*
X284136073Y-176919344D01*
X284077058Y-177100972D01*
X284076368Y-177107533D01*
X284076368Y-177107535D01*
X284059457Y-177268434D01*
X284057096Y-177290900D01*
X284057786Y-177297465D01*
X284076295Y-177473565D01*
X284077058Y-177480828D01*
X284136073Y-177662456D01*
X284231560Y-177827844D01*
X284304737Y-177909115D01*
X284335453Y-177973121D01*
X284337100Y-177993424D01*
X284337100Y-181210276D01*
X284317098Y-181278397D01*
X284304742Y-181294579D01*
X284231560Y-181375856D01*
X284209769Y-181413599D01*
X284144247Y-181527087D01*
X284136073Y-181541244D01*
X284077058Y-181722872D01*
X284076368Y-181729433D01*
X284076368Y-181729435D01*
X284066546Y-181822886D01*
X284057096Y-181912800D01*
X284057786Y-181919365D01*
X284075603Y-182088881D01*
X284077058Y-182102728D01*
X284136073Y-182284356D01*
X284139376Y-182290078D01*
X284139377Y-182290079D01*
X284167984Y-182339627D01*
X284231560Y-182449744D01*
X284235978Y-182454651D01*
X284235979Y-182454652D01*
X284353813Y-182585520D01*
X284359347Y-182591666D01*
X284412375Y-182630193D01*
X284488640Y-182685603D01*
X284513848Y-182703918D01*
X284519876Y-182706602D01*
X284519878Y-182706603D01*
X284670296Y-182773573D01*
X284688312Y-182781594D01*
X284781713Y-182801447D01*
X284868656Y-182819928D01*
X284868661Y-182819928D01*
X284875113Y-182821300D01*
X285066087Y-182821300D01*
X285072539Y-182819928D01*
X285072544Y-182819928D01*
X285159487Y-182801447D01*
X285252888Y-182781594D01*
X285270904Y-182773573D01*
X285421322Y-182706603D01*
X285421324Y-182706602D01*
X285427352Y-182703918D01*
X285452561Y-182685603D01*
X285528825Y-182630193D01*
X285581853Y-182591666D01*
X285591704Y-182580726D01*
X285689064Y-182472596D01*
X285749510Y-182435356D01*
X285820494Y-182436708D01*
X285879478Y-182476221D01*
X285907736Y-182541352D01*
X285908700Y-182556906D01*
X285908700Y-186707769D01*
X285888698Y-186775890D01*
X285872761Y-186795888D01*
X285870961Y-186797728D01*
X285864778Y-186802637D01*
X285826961Y-186852459D01*
X285825210Y-186855373D01*
X285825206Y-186855379D01*
X285096703Y-188067812D01*
X284861642Y-188459020D01*
X284835406Y-188515799D01*
X284808988Y-188659041D01*
X284823834Y-188803940D01*
X284878751Y-188938848D01*
X284969325Y-189052920D01*
X284975612Y-189057692D01*
X284975614Y-189057694D01*
X285016437Y-189088680D01*
X285019147Y-189090737D01*
X285022061Y-189092488D01*
X285022067Y-189092492D01*
X286124913Y-189755148D01*
X286625708Y-190056056D01*
X286682487Y-190082292D01*
X286690255Y-190083725D01*
X286690256Y-190083725D01*
X286716516Y-190088568D01*
X286825729Y-190108710D01*
X286929668Y-190098061D01*
X286961699Y-190094779D01*
X286961700Y-190094779D01*
X286970628Y-190093864D01*
X287105536Y-190038947D01*
X287112566Y-190033365D01*
X287117777Y-190030320D01*
X287186683Y-190013220D01*
X287253896Y-190036089D01*
X287280025Y-190060757D01*
X287341034Y-190137594D01*
X287341038Y-190137598D01*
X287345949Y-190143783D01*
X287395770Y-190181599D01*
X288249738Y-190694715D01*
X288306518Y-190720951D01*
X288449760Y-190747369D01*
X288553699Y-190736720D01*
X288585730Y-190733438D01*
X288585731Y-190733438D01*
X288594659Y-190732523D01*
X288729566Y-190677606D01*
X288843639Y-190587032D01*
X288853179Y-190574463D01*
X288879401Y-190539917D01*
X288879407Y-190539909D01*
X288881455Y-190537210D01*
X289549083Y-189426092D01*
X289553315Y-189416934D01*
X289572004Y-189376484D01*
X289575318Y-189369312D01*
X289601737Y-189226070D01*
X289586891Y-189081172D01*
X289548461Y-188986766D01*
X289531973Y-188946264D01*
X289535251Y-188944930D01*
X289522236Y-188892474D01*
X289545108Y-188825263D01*
X289558063Y-188809694D01*
X289558834Y-188808906D01*
X289565028Y-188803988D01*
X289580453Y-188783666D01*
X289600790Y-188756873D01*
X289600796Y-188756865D01*
X289602844Y-188754166D01*
X289725749Y-188549618D01*
X289777979Y-188501529D01*
X289847916Y-188489312D01*
X289898645Y-188506509D01*
X289904108Y-188509791D01*
X289910334Y-188513532D01*
X289967114Y-188539767D01*
X290110356Y-188566186D01*
X290128176Y-188564360D01*
X290197980Y-188577314D01*
X290249700Y-188625951D01*
X290260852Y-188650769D01*
X290270173Y-188679456D01*
X290273476Y-188685178D01*
X290273477Y-188685179D01*
X290278089Y-188693167D01*
X290365660Y-188844844D01*
X290493447Y-188986766D01*
X290647948Y-189099018D01*
X290653976Y-189101702D01*
X290653978Y-189101703D01*
X290797674Y-189165680D01*
X290822412Y-189176694D01*
X290828867Y-189178066D01*
X290828870Y-189178067D01*
X290866984Y-189186168D01*
X290929458Y-189219896D01*
X290963779Y-189282045D01*
X290964293Y-189284795D01*
X290964447Y-189291107D01*
X290966607Y-189298739D01*
X290970688Y-189313160D01*
X290974456Y-189331679D01*
X290977326Y-189354397D01*
X290980242Y-189361761D01*
X290980243Y-189361766D01*
X290992628Y-189393044D01*
X290996709Y-189405098D01*
X291008035Y-189445118D01*
X291019563Y-189464924D01*
X291027815Y-189481919D01*
X291033327Y-189495842D01*
X291033331Y-189495849D01*
X291036248Y-189503217D01*
X291040908Y-189509631D01*
X291060678Y-189536843D01*
X291067636Y-189547517D01*
X291084565Y-189576600D01*
X291084568Y-189576604D01*
X291088553Y-189583450D01*
X291094113Y-189589088D01*
X291094114Y-189589089D01*
X291104641Y-189599763D01*
X291116861Y-189614171D01*
X291130328Y-189632707D01*
X291136432Y-189637757D01*
X291136438Y-189637763D01*
X291162357Y-189659205D01*
X291171753Y-189667814D01*
X291200943Y-189697412D01*
X291207735Y-189701493D01*
X291213120Y-189705730D01*
X291254286Y-189763573D01*
X291257645Y-189834490D01*
X291222130Y-189895965D01*
X291159017Y-189928481D01*
X291148047Y-189930095D01*
X291030270Y-189942162D01*
X291030269Y-189942162D01*
X291021341Y-189943077D01*
X290886434Y-189997994D01*
X290772361Y-190088568D01*
X290767586Y-190094859D01*
X290736599Y-190135683D01*
X290736593Y-190135691D01*
X290734545Y-190138390D01*
X290066917Y-191249508D01*
X290040682Y-191306288D01*
X290014263Y-191449530D01*
X290029109Y-191594428D01*
X290084027Y-191729336D01*
X290174601Y-191843409D01*
X290224422Y-191881225D01*
X291078390Y-192394341D01*
X291135170Y-192420577D01*
X291278412Y-192446995D01*
X291382351Y-192436346D01*
X291414382Y-192433064D01*
X291414383Y-192433064D01*
X291423311Y-192432149D01*
X291452780Y-192420153D01*
X291523414Y-192412996D01*
X291586705Y-192445163D01*
X291623201Y-192509154D01*
X291674884Y-192738491D01*
X291676826Y-192743273D01*
X291676827Y-192743277D01*
X291716008Y-192839768D01*
X291765270Y-192961085D01*
X291890798Y-193165927D01*
X292048096Y-193347517D01*
X292232940Y-193500978D01*
X292440366Y-193622188D01*
X292445186Y-193624028D01*
X292445191Y-193624031D01*
X292552556Y-193665029D01*
X292664804Y-193707892D01*
X292669870Y-193708923D01*
X292669871Y-193708923D01*
X292726198Y-193720383D01*
X292900226Y-193755789D01*
X293035234Y-193760740D01*
X293135145Y-193764404D01*
X293135149Y-193764404D01*
X293140309Y-193764593D01*
X293145429Y-193763937D01*
X293145431Y-193763937D01*
X293220996Y-193754257D01*
X293378607Y-193734066D01*
X293383558Y-193732581D01*
X293383561Y-193732580D01*
X293603769Y-193666514D01*
X293603768Y-193666514D01*
X293608719Y-193665029D01*
X293824465Y-193559336D01*
X294020052Y-193419825D01*
X294190227Y-193250243D01*
X294330420Y-193055144D01*
X294436866Y-192839768D01*
X294452858Y-192787131D01*
X294505202Y-192614851D01*
X294505203Y-192614845D01*
X294506706Y-192609899D01*
X294520833Y-192502592D01*
X294549555Y-192437666D01*
X294556660Y-192429944D01*
X300100299Y-186886305D01*
X300162611Y-186852279D01*
X300189394Y-186849400D01*
X300471829Y-186849400D01*
X300479902Y-186849809D01*
X300485793Y-186851169D01*
X300556524Y-186849438D01*
X300559606Y-186849400D01*
X300590156Y-186849400D01*
X300594080Y-186848904D01*
X300598039Y-186848655D01*
X300598044Y-186848736D01*
X300604248Y-186848270D01*
X300637877Y-186847447D01*
X300645805Y-186847253D01*
X300667852Y-186841013D01*
X300686375Y-186837244D01*
X300709097Y-186834374D01*
X300747747Y-186819072D01*
X300759809Y-186814989D01*
X300772966Y-186811265D01*
X300792186Y-186805826D01*
X300792190Y-186805824D01*
X300799816Y-186803666D01*
X300819619Y-186792139D01*
X300836619Y-186783884D01*
X300857917Y-186775452D01*
X300872045Y-186765188D01*
X300891548Y-186751018D01*
X300902223Y-186744059D01*
X300931298Y-186727135D01*
X300938148Y-186723148D01*
X300948912Y-186712533D01*
X300954460Y-186707061D01*
X300968874Y-186694837D01*
X300980993Y-186686032D01*
X300987407Y-186681372D01*
X300992461Y-186675263D01*
X301013905Y-186649342D01*
X301022507Y-186639953D01*
X301052110Y-186610759D01*
X301056188Y-186603971D01*
X301056193Y-186603965D01*
X301063911Y-186591118D01*
X301074833Y-186575692D01*
X301084381Y-186564151D01*
X301084382Y-186564150D01*
X301089433Y-186558044D01*
X301107131Y-186520435D01*
X301113133Y-186509192D01*
X301139468Y-186465361D01*
X301191697Y-186417270D01*
X301261635Y-186405051D01*
X301312368Y-186422250D01*
X301795480Y-186712533D01*
X301806411Y-186717584D01*
X301845088Y-186735456D01*
X301845092Y-186735457D01*
X301852259Y-186738769D01*
X301995501Y-186765188D01*
X302140400Y-186750341D01*
X302155833Y-186744059D01*
X302266995Y-186698808D01*
X302275308Y-186695424D01*
X302389380Y-186604850D01*
X302399803Y-186591118D01*
X302425142Y-186557735D01*
X302425148Y-186557727D01*
X302427196Y-186555028D01*
X303764373Y-184329592D01*
X303773489Y-184309864D01*
X303787296Y-184279984D01*
X303787297Y-184279980D01*
X303790609Y-184272813D01*
X303817028Y-184129571D01*
X303804362Y-184005949D01*
X303803097Y-183993601D01*
X303803097Y-183993600D01*
X303802182Y-183984672D01*
X303747264Y-183849764D01*
X303656690Y-183735692D01*
X303632755Y-183717524D01*
X303609591Y-183699942D01*
X303609590Y-183699941D01*
X303606869Y-183697876D01*
X303123579Y-183407486D01*
X303075490Y-183355256D01*
X303063273Y-183285319D01*
X303080466Y-183234597D01*
X303091029Y-183217014D01*
X303104521Y-183198577D01*
X303106478Y-183196357D01*
X303111721Y-183190410D01*
X303136041Y-183142679D01*
X303140298Y-183135000D01*
X303141127Y-183133620D01*
X303147165Y-183123570D01*
X303148758Y-183119958D01*
X303148764Y-183119946D01*
X303154666Y-183106561D01*
X303157687Y-183100197D01*
X303170951Y-183074164D01*
X303184386Y-183047797D01*
X303186117Y-183040054D01*
X303188799Y-183032604D01*
X303188804Y-183032606D01*
X303190080Y-183028727D01*
X303190074Y-183028725D01*
X303192339Y-183021126D01*
X303195536Y-183013875D01*
X303198327Y-182997011D01*
X303205130Y-182955892D01*
X303206475Y-182948974D01*
X303217572Y-182899333D01*
X303217572Y-182899330D01*
X303219302Y-182891592D01*
X303219053Y-182883667D01*
X303219799Y-182875773D01*
X303219805Y-182875774D01*
X303220075Y-182871704D01*
X303220068Y-182871704D01*
X303220372Y-182863782D01*
X303221666Y-182855963D01*
X303220766Y-182845677D01*
X303217966Y-182813707D01*
X303216538Y-182797403D01*
X303216121Y-182790379D01*
X303215417Y-182767962D01*
X303214274Y-182731611D01*
X303212063Y-182723999D01*
X303210823Y-182716171D01*
X303210830Y-182716170D01*
X303210078Y-182712154D01*
X303210071Y-182712156D01*
X303208396Y-182704410D01*
X303207704Y-182696514D01*
X303189076Y-182643629D01*
X303188176Y-182641074D01*
X303186022Y-182634366D01*
X303171831Y-182585520D01*
X303171830Y-182585518D01*
X303169619Y-182577907D01*
X303165584Y-182571084D01*
X303162436Y-182563809D01*
X303162442Y-182563806D01*
X303160717Y-182560106D01*
X303160710Y-182560109D01*
X303157161Y-182553023D01*
X303154527Y-182545546D01*
X303121818Y-182496694D01*
X303118066Y-182490736D01*
X303092180Y-182446965D01*
X303092178Y-182446963D01*
X303088142Y-182440138D01*
X303082532Y-182434528D01*
X303077679Y-182428272D01*
X303077685Y-182428267D01*
X303075094Y-182425113D01*
X303075089Y-182425117D01*
X303069887Y-182419134D01*
X303065476Y-182412546D01*
X303021651Y-182373368D01*
X303016531Y-182368527D01*
X302237404Y-181589399D01*
X302203379Y-181527087D01*
X302200500Y-181500304D01*
X302200500Y-180028268D01*
X302201027Y-180017085D01*
X302202702Y-180009592D01*
X302200562Y-179941501D01*
X302200500Y-179937544D01*
X302200500Y-179909644D01*
X302199996Y-179905653D01*
X302199063Y-179893811D01*
X302197923Y-179857536D01*
X302197674Y-179849611D01*
X302195462Y-179841997D01*
X302195461Y-179841992D01*
X302192023Y-179830159D01*
X302188012Y-179810795D01*
X302186467Y-179798564D01*
X302185474Y-179790703D01*
X302182557Y-179783336D01*
X302182556Y-179783331D01*
X302169198Y-179749592D01*
X302165354Y-179738365D01*
X302155230Y-179703522D01*
X302153018Y-179695907D01*
X302142707Y-179678472D01*
X302134012Y-179660724D01*
X302126552Y-179641883D01*
X302100564Y-179606113D01*
X302094048Y-179596193D01*
X302075580Y-179564965D01*
X302075578Y-179564962D01*
X302071542Y-179558138D01*
X302057221Y-179543817D01*
X302044380Y-179528783D01*
X302037131Y-179518806D01*
X302032472Y-179512393D01*
X301998395Y-179484202D01*
X301989616Y-179476212D01*
X299952552Y-177439147D01*
X299945012Y-177430861D01*
X299940900Y-177424382D01*
X299923253Y-177407810D01*
X299897022Y-177383178D01*
X299891248Y-177377756D01*
X299888407Y-177375002D01*
X299868670Y-177355265D01*
X299865473Y-177352785D01*
X299856451Y-177345080D01*
X299847210Y-177336402D01*
X299824221Y-177314814D01*
X299817275Y-177310995D01*
X299817272Y-177310993D01*
X299806466Y-177305052D01*
X299789947Y-177294201D01*
X299783997Y-177289586D01*
X299773941Y-177281786D01*
X299766672Y-177278641D01*
X299766668Y-177278638D01*
X299733363Y-177264226D01*
X299722713Y-177259009D01*
X299683960Y-177237705D01*
X299664337Y-177232667D01*
X299645634Y-177226263D01*
X299634320Y-177221367D01*
X299634319Y-177221367D01*
X299627045Y-177218219D01*
X299619222Y-177216980D01*
X299619212Y-177216977D01*
X299583376Y-177211301D01*
X299571758Y-177208895D01*
X299553906Y-177204312D01*
X299491601Y-177166581D01*
X299478953Y-177152534D01*
X299479278Y-177152241D01*
X299444136Y-177095194D01*
X299445490Y-177024210D01*
X299476592Y-176972912D01*
X299752282Y-176697223D01*
X300114058Y-176335447D01*
X300122337Y-176327913D01*
X300128818Y-176323800D01*
X300175444Y-176274148D01*
X300178198Y-176271307D01*
X300197935Y-176251570D01*
X300200415Y-176248373D01*
X300208120Y-176239351D01*
X300232959Y-176212900D01*
X300238386Y-176207121D01*
X300242205Y-176200175D01*
X300242207Y-176200172D01*
X300248148Y-176189366D01*
X300258999Y-176172847D01*
X300266558Y-176163101D01*
X300271414Y-176156841D01*
X300274559Y-176149572D01*
X300274562Y-176149568D01*
X300288974Y-176116263D01*
X300294191Y-176105613D01*
X300315495Y-176066860D01*
X300320533Y-176047237D01*
X300326937Y-176028534D01*
X300331833Y-176017220D01*
X300331833Y-176017219D01*
X300334981Y-176009945D01*
X300337521Y-175993910D01*
X300367933Y-175929756D01*
X300428200Y-175892229D01*
X300499190Y-175893242D01*
X300526865Y-175905616D01*
X300795221Y-176066860D01*
X300864090Y-176108241D01*
X300920870Y-176134477D01*
X301064112Y-176160895D01*
X301174665Y-176149568D01*
X301200082Y-176146964D01*
X301200083Y-176146964D01*
X301209011Y-176146049D01*
X301238480Y-176134053D01*
X301309114Y-176126896D01*
X301372405Y-176159063D01*
X301408901Y-176223054D01*
X301437302Y-176349082D01*
X301453128Y-176419304D01*
X301460584Y-176452391D01*
X301462526Y-176457173D01*
X301462527Y-176457177D01*
X301548658Y-176669291D01*
X301550970Y-176674985D01*
X301676498Y-176879827D01*
X301833796Y-177061417D01*
X301837771Y-177064717D01*
X301837774Y-177064720D01*
X301873878Y-177094694D01*
X302018640Y-177214878D01*
X302226066Y-177336088D01*
X302230886Y-177337928D01*
X302230891Y-177337931D01*
X302376404Y-177393496D01*
X302450504Y-177421792D01*
X302455570Y-177422823D01*
X302455571Y-177422823D01*
X302510862Y-177434072D01*
X302685926Y-177469689D01*
X302820934Y-177474640D01*
X302920845Y-177478304D01*
X302920849Y-177478304D01*
X302926009Y-177478493D01*
X302931129Y-177477837D01*
X302931131Y-177477837D01*
X303006696Y-177468157D01*
X303164307Y-177447966D01*
X303169258Y-177446481D01*
X303169261Y-177446480D01*
X303389469Y-177380414D01*
X303389468Y-177380414D01*
X303394419Y-177378929D01*
X303610165Y-177273236D01*
X303645517Y-177248020D01*
X303801549Y-177136723D01*
X303805752Y-177133725D01*
X303827094Y-177112458D01*
X303972267Y-176967790D01*
X303975927Y-176964143D01*
X304116120Y-176769044D01*
X304222566Y-176553668D01*
X304244143Y-176482651D01*
X304290902Y-176328751D01*
X304290903Y-176328745D01*
X304292406Y-176323799D01*
X304306548Y-176216377D01*
X304335270Y-176151451D01*
X304342375Y-176143729D01*
X306030230Y-174455875D01*
X306099613Y-174420521D01*
X306102762Y-174420022D01*
X306110689Y-174419773D01*
X306130143Y-174414121D01*
X306149500Y-174410113D01*
X306161730Y-174408568D01*
X306161731Y-174408568D01*
X306169597Y-174407574D01*
X306176968Y-174404655D01*
X306176970Y-174404655D01*
X306210712Y-174391296D01*
X306221942Y-174387451D01*
X306256783Y-174377329D01*
X306256784Y-174377329D01*
X306264393Y-174375118D01*
X306271212Y-174371085D01*
X306271217Y-174371083D01*
X306281828Y-174364807D01*
X306299576Y-174356112D01*
X306318417Y-174348652D01*
X306354187Y-174322664D01*
X306364107Y-174316148D01*
X306395335Y-174297680D01*
X306395338Y-174297678D01*
X306402162Y-174293642D01*
X306416483Y-174279321D01*
X306431517Y-174266480D01*
X306447907Y-174254572D01*
X306476098Y-174220495D01*
X306484088Y-174211716D01*
X310095700Y-170600105D01*
X310158012Y-170566079D01*
X310184795Y-170563200D01*
X310257529Y-170563200D01*
X310265602Y-170563609D01*
X310271493Y-170564969D01*
X310342224Y-170563238D01*
X310345306Y-170563200D01*
X310375856Y-170563200D01*
X310379780Y-170562704D01*
X310383739Y-170562455D01*
X310383744Y-170562536D01*
X310389948Y-170562070D01*
X310423577Y-170561247D01*
X310431505Y-170561053D01*
X310453552Y-170554813D01*
X310472075Y-170551044D01*
X310494797Y-170548174D01*
X310533447Y-170532872D01*
X310545509Y-170528789D01*
X310555897Y-170525849D01*
X310577886Y-170519626D01*
X310577890Y-170519624D01*
X310585516Y-170517466D01*
X310605319Y-170505939D01*
X310622319Y-170497684D01*
X310643617Y-170489252D01*
X310657745Y-170478988D01*
X310677248Y-170464818D01*
X310687923Y-170457859D01*
X310716998Y-170440935D01*
X310723848Y-170436948D01*
X310734612Y-170426333D01*
X310740160Y-170420861D01*
X310754574Y-170408637D01*
X310766693Y-170399832D01*
X310773107Y-170395172D01*
X310778161Y-170389063D01*
X310799605Y-170363142D01*
X310808207Y-170353753D01*
X310837810Y-170324559D01*
X310841888Y-170317771D01*
X310841893Y-170317765D01*
X310849611Y-170304918D01*
X310860533Y-170289492D01*
X310870081Y-170277951D01*
X310870082Y-170277950D01*
X310875133Y-170271844D01*
X310892831Y-170234235D01*
X310898833Y-170222992D01*
X310925168Y-170179161D01*
X310977397Y-170131070D01*
X311047335Y-170118851D01*
X311098068Y-170136050D01*
X311581180Y-170426333D01*
X311584262Y-170427757D01*
X311630788Y-170449256D01*
X311630792Y-170449257D01*
X311637959Y-170452569D01*
X311781201Y-170478988D01*
X311926100Y-170464141D01*
X311941533Y-170457859D01*
X312052695Y-170412608D01*
X312061008Y-170409224D01*
X312175080Y-170318650D01*
X312186031Y-170304222D01*
X312210842Y-170271535D01*
X312210848Y-170271527D01*
X312212896Y-170268828D01*
X313550073Y-168043392D01*
X313572041Y-167995850D01*
X313572996Y-167993784D01*
X313572997Y-167993780D01*
X313576309Y-167986613D01*
X313602728Y-167843371D01*
X313587882Y-167698472D01*
X313532964Y-167563564D01*
X313442390Y-167449492D01*
X313392569Y-167411676D01*
X311124274Y-166048747D01*
X311113274Y-166043664D01*
X311074666Y-166025824D01*
X311074662Y-166025823D01*
X311067495Y-166022511D01*
X310924253Y-165996092D01*
X310779354Y-166010939D01*
X310771039Y-166014324D01*
X310771038Y-166014324D01*
X310682174Y-166050498D01*
X310644446Y-166065856D01*
X310643264Y-166062952D01*
X310589426Y-166076304D01*
X310522216Y-166053427D01*
X310478044Y-165997844D01*
X310474945Y-165989354D01*
X310413662Y-165800744D01*
X310412301Y-165796555D01*
X310397171Y-165765533D01*
X310294755Y-165555552D01*
X310289164Y-165544088D01*
X310184977Y-165389624D01*
X310142331Y-165326398D01*
X310120821Y-165258738D01*
X310139305Y-165190190D01*
X310159263Y-165165304D01*
X310258178Y-165069782D01*
X310258184Y-165069776D01*
X310261350Y-165066718D01*
X310434286Y-164845369D01*
X310436482Y-164841565D01*
X310436487Y-164841558D01*
X310563901Y-164620870D01*
X310574734Y-164602106D01*
X310679960Y-164341663D01*
X310681026Y-164337388D01*
X310746851Y-164073380D01*
X310746852Y-164073375D01*
X310747915Y-164069111D01*
X310748755Y-164061127D01*
X310776817Y-163794123D01*
X310776817Y-163794120D01*
X310777276Y-163789754D01*
X310777123Y-163785360D01*
X310767627Y-163513426D01*
X310767626Y-163513420D01*
X310767473Y-163509029D01*
X310766554Y-163503813D01*
X310722233Y-163252459D01*
X310718696Y-163232400D01*
X310631895Y-162965252D01*
X310629424Y-162960184D01*
X310559633Y-162817093D01*
X310508758Y-162712785D01*
X310506303Y-162709146D01*
X310506300Y-162709140D01*
X310426033Y-162590140D01*
X310351683Y-162479911D01*
X310343670Y-162471011D01*
X310207643Y-162319939D01*
X310163727Y-162271165D01*
X309948548Y-162090608D01*
X309710334Y-161941756D01*
X309453723Y-161827505D01*
X309183708Y-161750080D01*
X309179358Y-161749469D01*
X309179355Y-161749468D01*
X309036220Y-161729352D01*
X308905546Y-161710987D01*
X308694952Y-161710987D01*
X308692766Y-161711140D01*
X308692762Y-161711140D01*
X308489271Y-161725369D01*
X308489266Y-161725370D01*
X308484886Y-161725676D01*
X308210128Y-161784078D01*
X308205999Y-161785581D01*
X308205995Y-161785582D01*
X307950317Y-161878641D01*
X307950313Y-161878643D01*
X307946172Y-161880150D01*
X307698156Y-162012023D01*
X307694597Y-162014609D01*
X307694595Y-162014610D01*
X307589993Y-162090608D01*
X307470906Y-162177129D01*
X307467742Y-162180185D01*
X307467739Y-162180187D01*
X307458998Y-162188628D01*
X307268846Y-162372256D01*
X307139877Y-162537329D01*
X307121910Y-162560327D01*
X307095910Y-162593605D01*
X307093714Y-162597409D01*
X307093709Y-162597416D01*
X307018768Y-162727219D01*
X306955462Y-162836868D01*
X306850236Y-163097311D01*
X306849171Y-163101584D01*
X306849170Y-163101586D01*
X306815477Y-163236723D01*
X306782281Y-163369863D01*
X306781822Y-163374231D01*
X306781821Y-163374236D01*
X306753891Y-163639978D01*
X306752920Y-163649220D01*
X306753073Y-163653608D01*
X306753073Y-163653614D01*
X306760218Y-163858197D01*
X306762723Y-163929945D01*
X306763485Y-163934268D01*
X306763486Y-163934275D01*
X306787028Y-164067784D01*
X306811500Y-164206574D01*
X306898301Y-164473722D01*
X306900229Y-164477675D01*
X306900231Y-164477680D01*
X306947225Y-164574030D01*
X307021438Y-164726189D01*
X307087258Y-164823772D01*
X307168271Y-164943879D01*
X307189781Y-165011539D01*
X307171297Y-165080087D01*
X307151339Y-165104973D01*
X307052424Y-165200495D01*
X307052418Y-165200501D01*
X307049252Y-165203559D01*
X306876316Y-165424908D01*
X306874120Y-165428712D01*
X306874115Y-165428719D01*
X306760298Y-165625857D01*
X306735868Y-165668171D01*
X306630642Y-165928614D01*
X306629577Y-165932887D01*
X306629576Y-165932889D01*
X306607988Y-166019474D01*
X306572100Y-166080733D01*
X306508791Y-166112864D01*
X306438160Y-166105667D01*
X306382633Y-166061426D01*
X306363690Y-166020327D01*
X306357116Y-165994723D01*
X306357111Y-165994707D01*
X306356130Y-165990887D01*
X306240216Y-165698123D01*
X306159139Y-165550644D01*
X306090433Y-165425668D01*
X306090431Y-165425665D01*
X306088524Y-165422196D01*
X305938382Y-165215543D01*
X305905773Y-165170660D01*
X305905772Y-165170658D01*
X305903445Y-165167456D01*
X305687898Y-164937922D01*
X305445282Y-164737213D01*
X305220237Y-164594395D01*
X305182771Y-164570618D01*
X305182770Y-164570618D01*
X305179424Y-164568494D01*
X305175845Y-164566810D01*
X305175838Y-164566806D01*
X304898106Y-164436116D01*
X304898102Y-164436114D01*
X304894516Y-164434427D01*
X304595052Y-164337125D01*
X304285754Y-164278123D01*
X304192200Y-164272237D01*
X304052142Y-164263425D01*
X304052126Y-164263424D01*
X304050147Y-164263300D01*
X303892853Y-164263300D01*
X303890874Y-164263424D01*
X303890858Y-164263425D01*
X303750800Y-164272237D01*
X303657246Y-164278123D01*
X303495913Y-164308899D01*
X303425252Y-164302016D01*
X303369529Y-164258023D01*
X303346436Y-164190887D01*
X303363305Y-164121924D01*
X303384777Y-164094494D01*
X303506976Y-163976488D01*
X303506980Y-163976483D01*
X303510141Y-163973431D01*
X303653645Y-163789754D01*
X303680370Y-163755547D01*
X303680371Y-163755546D01*
X303683077Y-163752082D01*
X303685273Y-163748278D01*
X303685278Y-163748271D01*
X303821324Y-163512631D01*
X303823525Y-163508819D01*
X303928751Y-163248376D01*
X303945815Y-163179936D01*
X303981703Y-163118678D01*
X304045012Y-163086547D01*
X304085608Y-163085645D01*
X304159226Y-163095991D01*
X304270240Y-163111593D01*
X304480834Y-163111593D01*
X304483020Y-163111440D01*
X304483024Y-163111440D01*
X304686515Y-163097211D01*
X304686520Y-163097210D01*
X304690900Y-163096904D01*
X304965658Y-163038502D01*
X304969787Y-163036999D01*
X304969791Y-163036998D01*
X305225469Y-162943939D01*
X305225473Y-162943937D01*
X305229614Y-162942430D01*
X305477630Y-162810557D01*
X305503468Y-162791785D01*
X305701317Y-162648040D01*
X305701320Y-162648037D01*
X305704880Y-162645451D01*
X305714592Y-162636073D01*
X305816844Y-162537329D01*
X305906940Y-162450324D01*
X306079876Y-162228975D01*
X306082072Y-162225171D01*
X306082077Y-162225164D01*
X306207283Y-162008299D01*
X306220324Y-161985712D01*
X306325550Y-161725269D01*
X306339355Y-161669899D01*
X306392441Y-161456986D01*
X306392442Y-161456981D01*
X306393505Y-161452717D01*
X306395163Y-161436949D01*
X306422407Y-161177729D01*
X306422407Y-161177726D01*
X306422866Y-161173360D01*
X306422713Y-161168966D01*
X306413217Y-160897032D01*
X306413216Y-160897026D01*
X306413063Y-160892635D01*
X306364286Y-160616006D01*
X306277485Y-160348858D01*
X306246594Y-160285521D01*
X306197223Y-160184298D01*
X306154348Y-160096391D01*
X306151893Y-160092752D01*
X306151890Y-160092746D01*
X306057852Y-159953330D01*
X305997273Y-159863517D01*
X305987479Y-159852639D01*
X305812254Y-159658033D01*
X305809317Y-159654771D01*
X305594138Y-159474214D01*
X305355924Y-159325362D01*
X305099313Y-159211111D01*
X304863046Y-159143363D01*
X304833525Y-159134898D01*
X304833524Y-159134898D01*
X304829298Y-159133686D01*
X304824948Y-159133075D01*
X304824945Y-159133074D01*
X304692177Y-159114415D01*
X304551136Y-159094593D01*
X304340542Y-159094593D01*
X304338356Y-159094746D01*
X304338352Y-159094746D01*
X304134861Y-159108975D01*
X304134856Y-159108976D01*
X304130476Y-159109282D01*
X303980964Y-159141062D01*
X303910174Y-159135660D01*
X303853542Y-159092843D01*
X303829048Y-159026206D01*
X303828911Y-159015924D01*
X303830323Y-159008269D01*
X303829317Y-158998448D01*
X303816392Y-158872299D01*
X303816392Y-158872298D01*
X303815477Y-158863370D01*
X303760559Y-158728462D01*
X303669985Y-158614390D01*
X303649872Y-158599123D01*
X303622886Y-158578640D01*
X303622885Y-158578639D01*
X303620164Y-158576574D01*
X301351869Y-157213645D01*
X301324510Y-157201003D01*
X301302261Y-157190722D01*
X301302257Y-157190721D01*
X301295090Y-157187409D01*
X301151848Y-157160990D01*
X301006949Y-157175837D01*
X300998634Y-157179222D01*
X300998633Y-157179222D01*
X300909769Y-157215396D01*
X300872041Y-157230754D01*
X300757969Y-157321328D01*
X300753194Y-157327619D01*
X300753193Y-157327620D01*
X300722207Y-157368443D01*
X300722201Y-157368451D01*
X300720153Y-157371150D01*
X299382976Y-159596586D01*
X299381552Y-159599668D01*
X299360053Y-159646194D01*
X299360052Y-159646198D01*
X299356740Y-159653365D01*
X299330321Y-159796607D01*
X299345167Y-159941506D01*
X299400085Y-160076414D01*
X299490659Y-160190486D01*
X299540480Y-160228302D01*
X299543401Y-160230057D01*
X299544448Y-160230766D01*
X299589641Y-160285521D01*
X299598057Y-160356017D01*
X299567024Y-160419872D01*
X299506394Y-160456813D01*
X299473805Y-160461100D01*
X293570700Y-160461100D01*
X293502579Y-160441098D01*
X293456086Y-160387442D01*
X293444700Y-160335100D01*
X293444700Y-154778467D01*
X293445227Y-154767284D01*
X293446902Y-154759791D01*
X293446385Y-154743322D01*
X293444762Y-154691701D01*
X293444700Y-154687743D01*
X293444700Y-154659844D01*
X293444196Y-154655853D01*
X293443263Y-154644011D01*
X293443155Y-154640554D01*
X293441874Y-154599811D01*
X293439662Y-154592197D01*
X293439661Y-154592192D01*
X293436223Y-154580359D01*
X293432212Y-154560995D01*
X293430667Y-154548764D01*
X293429674Y-154540903D01*
X293426757Y-154533536D01*
X293426756Y-154533531D01*
X293413398Y-154499792D01*
X293409554Y-154488565D01*
X293399430Y-154453722D01*
X293397218Y-154446107D01*
X293386907Y-154428672D01*
X293378212Y-154410924D01*
X293370752Y-154392083D01*
X293364795Y-154383883D01*
X293344764Y-154356313D01*
X293338248Y-154346393D01*
X293319780Y-154315165D01*
X293319778Y-154315162D01*
X293315742Y-154308338D01*
X293301421Y-154294017D01*
X293288580Y-154278983D01*
X293281331Y-154269006D01*
X293276672Y-154262593D01*
X293242595Y-154234402D01*
X293233816Y-154226412D01*
X284863309Y-145855904D01*
X284829283Y-145793592D01*
X284834348Y-145722777D01*
X284876895Y-145665941D01*
X284943415Y-145641130D01*
X284999621Y-145649991D01*
X294859583Y-149635298D01*
X295427646Y-149864904D01*
X295445035Y-149873546D01*
X295465674Y-149885874D01*
X295480449Y-149889709D01*
X295504283Y-149898545D01*
X295658146Y-149974023D01*
X295673822Y-149983169D01*
X295836081Y-150094230D01*
X295850280Y-150105532D01*
X295867199Y-150121117D01*
X295994911Y-150238762D01*
X296007332Y-150251979D01*
X296120759Y-150391601D01*
X296131322Y-150404603D01*
X296141720Y-150419475D01*
X296191026Y-150502087D01*
X296242496Y-150588325D01*
X296250651Y-150604540D01*
X296326124Y-150786120D01*
X296331864Y-150803336D01*
X296380466Y-150993863D01*
X296383674Y-151011724D01*
X296391298Y-151083657D01*
X296404400Y-151207268D01*
X296405008Y-151225406D01*
X296400323Y-151346862D01*
X296397428Y-151421894D01*
X296395425Y-151439927D01*
X296374342Y-151554021D01*
X296366272Y-151597693D01*
X296363259Y-151609844D01*
X296359881Y-151616915D01*
X296358504Y-151625382D01*
X296358030Y-151626997D01*
X296354619Y-151634863D01*
X296353502Y-151643766D01*
X296353502Y-151643767D01*
X296346992Y-151695666D01*
X296346339Y-151700202D01*
X296337946Y-151751827D01*
X296336506Y-151760685D01*
X296337560Y-151769192D01*
X296337558Y-151770876D01*
X296336491Y-151779388D01*
X296346240Y-151839909D01*
X296346882Y-151844407D01*
X296354420Y-151905237D01*
X296357820Y-151913109D01*
X296358292Y-151914726D01*
X296359656Y-151923192D01*
X296386003Y-151978552D01*
X296387876Y-151982680D01*
X296412185Y-152038950D01*
X296417657Y-152045549D01*
X296418565Y-152046973D01*
X296422250Y-152054715D01*
X296463084Y-152100464D01*
X296466046Y-152103907D01*
X296505158Y-152151076D01*
X296512260Y-152155873D01*
X296513533Y-152156985D01*
X296519243Y-152163382D01*
X296526858Y-152168131D01*
X296526859Y-152168132D01*
X296537532Y-152174788D01*
X296571269Y-152195828D01*
X296575102Y-152198317D01*
X296597904Y-152213718D01*
X296602312Y-152215791D01*
X296606543Y-152218195D01*
X296606496Y-152218277D01*
X296612562Y-152221580D01*
X296642835Y-152240460D01*
X296651483Y-152242882D01*
X296651482Y-152242882D01*
X296662238Y-152245895D01*
X296681871Y-152253203D01*
X298628543Y-153168625D01*
X298640477Y-153175042D01*
X298673812Y-153195350D01*
X298711466Y-153205474D01*
X298733511Y-153211402D01*
X298737707Y-153212609D01*
X298788256Y-153228098D01*
X298788260Y-153228099D01*
X298796844Y-153230729D01*
X298805520Y-153230840D01*
X298806102Y-153230921D01*
X298814474Y-153233172D01*
X298853647Y-153232317D01*
X298876275Y-153231824D01*
X298880638Y-153231804D01*
X298933517Y-153232482D01*
X298942490Y-153232597D01*
X298950843Y-153230271D01*
X298951425Y-153230185D01*
X298960097Y-153229995D01*
X299019068Y-153211344D01*
X299023251Y-153210101D01*
X299082805Y-153193513D01*
X299090175Y-153188932D01*
X299090704Y-153188688D01*
X299098974Y-153186073D01*
X299124988Y-153168625D01*
X299150302Y-153151647D01*
X299153971Y-153149278D01*
X299198886Y-153121360D01*
X299198887Y-153121359D01*
X299206513Y-153116619D01*
X299212302Y-153110152D01*
X299212747Y-153109766D01*
X299219943Y-153104939D01*
X299225694Y-153098049D01*
X299225698Y-153098045D01*
X299259548Y-153057489D01*
X299262403Y-153054186D01*
X299297679Y-153014781D01*
X299297680Y-153014780D01*
X299303665Y-153008094D01*
X299307886Y-152999260D01*
X299322192Y-152969312D01*
X299327873Y-152958745D01*
X299383198Y-152866670D01*
X299394467Y-152850829D01*
X299404080Y-152839313D01*
X299404084Y-152839307D01*
X299409835Y-152832417D01*
X299415983Y-152818312D01*
X299428390Y-152796223D01*
X299525780Y-152657612D01*
X299537138Y-152643677D01*
X299670657Y-152501862D01*
X299683881Y-152489687D01*
X299836222Y-152368315D01*
X299851046Y-152358144D01*
X300019114Y-152259685D01*
X300035234Y-152251728D01*
X300042588Y-152248730D01*
X300215600Y-152178190D01*
X300232688Y-152172608D01*
X300421680Y-152125488D01*
X300439389Y-152122394D01*
X300633170Y-152102648D01*
X300651138Y-152102106D01*
X300748447Y-152106122D01*
X300845762Y-152110138D01*
X300863614Y-152112157D01*
X300983888Y-152134546D01*
X301055109Y-152147804D01*
X301072502Y-152152346D01*
X301256973Y-152214881D01*
X301273543Y-152221852D01*
X301418302Y-152295317D01*
X301433179Y-152305118D01*
X301440334Y-152309537D01*
X301447226Y-152315289D01*
X301465882Y-152323420D01*
X301476400Y-152328004D01*
X301490952Y-152335507D01*
X311911935Y-158597064D01*
X317870522Y-162177344D01*
X317886381Y-162188628D01*
X317897856Y-162198210D01*
X317897862Y-162198214D01*
X317904750Y-162203965D01*
X317912980Y-162207554D01*
X317918850Y-162210114D01*
X317940936Y-162222522D01*
X318006132Y-162268343D01*
X318079545Y-162319939D01*
X318093472Y-162331295D01*
X318136970Y-162372256D01*
X318235276Y-162464831D01*
X318247449Y-162478054D01*
X318368821Y-162630421D01*
X318378988Y-162645243D01*
X318477437Y-162813314D01*
X318485392Y-162829430D01*
X318488567Y-162837217D01*
X318555613Y-163001669D01*
X318558931Y-163009808D01*
X318564511Y-163026889D01*
X318611637Y-163215898D01*
X318614730Y-163233604D01*
X318634483Y-163427386D01*
X318635026Y-163445351D01*
X318627006Y-163639978D01*
X318624987Y-163657837D01*
X318589358Y-163849338D01*
X318584819Y-163866728D01*
X318522305Y-164051215D01*
X318515338Y-164067781D01*
X318444926Y-164206574D01*
X318441947Y-164212447D01*
X318431822Y-164227820D01*
X318427652Y-164234575D01*
X318421899Y-164241470D01*
X318418313Y-164249702D01*
X318409210Y-164270599D01*
X318401700Y-164285170D01*
X311808174Y-175258639D01*
X308554842Y-180673093D01*
X308554839Y-180673097D01*
X298765347Y-196965550D01*
X298758302Y-196976044D01*
X298733560Y-197009170D01*
X298730423Y-197017579D01*
X298730422Y-197017582D01*
X298728472Y-197022810D01*
X298716946Y-197046062D01*
X298627035Y-197188411D01*
X298615568Y-197203823D01*
X298488940Y-197349381D01*
X298475263Y-197362871D01*
X298327977Y-197487486D01*
X298312414Y-197498737D01*
X298147885Y-197599519D01*
X298130789Y-197608274D01*
X297952865Y-197682866D01*
X297934635Y-197688921D01*
X297747428Y-197735600D01*
X297728489Y-197738813D01*
X297597005Y-197750909D01*
X297536375Y-197756487D01*
X297517166Y-197756784D01*
X297452172Y-197752823D01*
X297324580Y-197745046D01*
X297305556Y-197742418D01*
X297211283Y-197721981D01*
X297117013Y-197701543D01*
X297098603Y-197696054D01*
X296918454Y-197626986D01*
X296901092Y-197618761D01*
X296761213Y-197538907D01*
X296747304Y-197528678D01*
X296747258Y-197528744D01*
X296739887Y-197523622D01*
X296733314Y-197517505D01*
X296689189Y-197495367D01*
X296680862Y-197490787D01*
X296652802Y-197473941D01*
X293456563Y-195555101D01*
X293451639Y-195551721D01*
X293451521Y-195551898D01*
X293447468Y-195549201D01*
X293443639Y-195546202D01*
X293439401Y-195543832D01*
X293439392Y-195543826D01*
X293417592Y-195531635D01*
X293414240Y-195529692D01*
X293395143Y-195518228D01*
X293395142Y-195518227D01*
X293391295Y-195515918D01*
X293387164Y-195514179D01*
X293383165Y-195512150D01*
X293383224Y-195512034D01*
X293377843Y-195509407D01*
X290203233Y-193734066D01*
X280220955Y-188151665D01*
X280220782Y-188151551D01*
X280220694Y-188151461D01*
X280220372Y-188151281D01*
X280220369Y-188151279D01*
X280101387Y-188084761D01*
X280101384Y-188084760D01*
X280093555Y-188080383D01*
X280084809Y-188078379D01*
X280078389Y-188075907D01*
X280068797Y-188072826D01*
X280061483Y-188069767D01*
X280053777Y-188065164D01*
X280022968Y-188057168D01*
X280007421Y-188052034D01*
X269865597Y-183954470D01*
X269846868Y-183945020D01*
X269833917Y-183937068D01*
X269833918Y-183937068D01*
X269829766Y-183934519D01*
X269825269Y-183932638D01*
X269822685Y-183931557D01*
X269822682Y-183931556D01*
X269818185Y-183929675D01*
X269799564Y-183925083D01*
X269787063Y-183921302D01*
X269778223Y-183918119D01*
X269650004Y-183871955D01*
X269565850Y-183841656D01*
X269565845Y-183841654D01*
X269563558Y-183840831D01*
X269403079Y-183796625D01*
X269306006Y-183769885D01*
X269306001Y-183769884D01*
X269303671Y-183769242D01*
X269249045Y-183758623D01*
X269041437Y-183718265D01*
X269041425Y-183718263D01*
X269039058Y-183717803D01*
X269036655Y-183717525D01*
X269036649Y-183717524D01*
X268773683Y-183687095D01*
X268773675Y-183687094D01*
X268771278Y-183686817D01*
X268545524Y-183678144D01*
X268529457Y-183676490D01*
X268519265Y-183674775D01*
X268519253Y-183674774D01*
X268514463Y-183673968D01*
X268508224Y-183673892D01*
X268506771Y-183673874D01*
X268506768Y-183673874D01*
X268501911Y-183673815D01*
X268487450Y-183675886D01*
X268474287Y-183677771D01*
X268456425Y-183679044D01*
X258761584Y-183679044D01*
X258742193Y-183677543D01*
X258727375Y-183675235D01*
X258718502Y-183673853D01*
X258702948Y-183675886D01*
X258677843Y-183676643D01*
X258637343Y-183673815D01*
X258513856Y-183665192D01*
X258496485Y-183662755D01*
X258310559Y-183623313D01*
X258293696Y-183618487D01*
X258115055Y-183553609D01*
X258099027Y-183546490D01*
X257931118Y-183457425D01*
X257916233Y-183448148D01*
X257849540Y-183399824D01*
X257762322Y-183336629D01*
X257748869Y-183325373D01*
X257611943Y-183193566D01*
X257600188Y-183180558D01*
X257482880Y-183030996D01*
X257473049Y-183016483D01*
X257442505Y-182963845D01*
X257425486Y-182900373D01*
X257425503Y-182891592D01*
X257507321Y-138913836D01*
X257527450Y-138845753D01*
X257581192Y-138799360D01*
X257633235Y-138788071D01*
X271515614Y-138778645D01*
X271583749Y-138798601D01*
G37*
%TD.AperFunction*%
M02*
