%TF.GenerationSoftware,KiCad,Pcbnew,6.0.10-86aedd382b~118~ubuntu22.04.1*%
%TF.CreationDate,2023-01-31T18:18:49-07:00*%
%TF.ProjectId,scaarix_flow_thumb_cluster,73636161-7269-4785-9f66-6c6f775f7468,v1.0.0*%
%TF.SameCoordinates,Original*%
%TF.FileFunction,Soldermask,Bot*%
%TF.FilePolarity,Negative*%
%FSLAX46Y46*%
G04 Gerber Fmt 4.6, Leading zero omitted, Abs format (unit mm)*
G04 Created by KiCad (PCBNEW 6.0.10-86aedd382b~118~ubuntu22.04.1) date 2023-01-31 18:18:49*
%MOMM*%
%LPD*%
G01*
G04 APERTURE LIST*
G04 Aperture macros list*
%AMRotRect*
0 Rectangle, with rotation*
0 The origin of the aperture is its center*
0 $1 length*
0 $2 width*
0 $3 Rotation angle, in degrees counterclockwise*
0 Add horizontal line*
21,1,$1,$2,0,0,$3*%
G04 Aperture macros list end*
%ADD10RotRect,1.778000X1.778000X329.000000*%
%ADD11RotRect,0.900000X1.200000X329.000000*%
%ADD12C,1.905000*%
%ADD13RotRect,1.778000X1.778000X338.000000*%
%ADD14RotRect,0.900000X1.200000X338.000000*%
%ADD15C,3.000000*%
%ADD16C,3.987800*%
%ADD17C,1.701800*%
%ADD18RotRect,2.550000X2.500000X338.000000*%
%ADD19RotRect,2.550000X2.500000X329.000000*%
%ADD20R,2.200000X2.000000*%
%ADD21RotRect,2.600000X1.000000X158.000000*%
%ADD22RotRect,2.000000X1.200000X158.000000*%
%ADD23RotRect,2.600000X1.000000X149.000000*%
%ADD24RotRect,2.000000X1.200000X149.000000*%
G04 APERTURE END LIST*
D10*
%TO.C,D27*%
X296327893Y-172089405D03*
D11*
X298179374Y-173201887D03*
X301008026Y-174901513D03*
D12*
X302859507Y-176013995D03*
%TD*%
D13*
%TO.C,D25*%
X275700830Y-163024949D03*
D14*
X277703547Y-163834099D03*
X280763253Y-165070301D03*
D12*
X282765970Y-165879451D03*
%TD*%
D15*
%TO.C,S25*%
X279836430Y-152788802D03*
X281965455Y-150909505D03*
D16*
X282417500Y-156571100D03*
D15*
X286901571Y-155643304D03*
X286675548Y-152812507D03*
D17*
X277707406Y-154668099D03*
X287127594Y-158474101D03*
D18*
X276799903Y-151561965D03*
X289737110Y-154049458D03*
%TD*%
D11*
%TO.C,D26*%
X288393674Y-189487987D03*
D10*
X286542193Y-188375505D03*
D12*
X293073807Y-192300095D03*
D11*
X291222326Y-191187613D03*
%TD*%
D15*
%TO.C,S27*%
X308545504Y-166550790D03*
D17*
X299617090Y-164149307D03*
X308325910Y-169382093D03*
D15*
X308765098Y-163719487D03*
X302013889Y-162626200D03*
X304410688Y-161103093D03*
D16*
X303971500Y-166765700D03*
D19*
X299206666Y-160939450D03*
X311595465Y-165420143D03*
%TD*%
D14*
%TO.C,D24*%
X270585947Y-181450499D03*
D13*
X268583230Y-180641349D03*
D14*
X273645653Y-182686701D03*
D12*
X275648370Y-183495851D03*
%TD*%
D15*
%TO.C,S24*%
X279558048Y-170429007D03*
X272718930Y-170405302D03*
D17*
X280010094Y-176090601D03*
D16*
X275300000Y-174187600D03*
D15*
X279784071Y-173259804D03*
X274847955Y-168526005D03*
D17*
X270589906Y-172284599D03*
D18*
X269682403Y-169178465D03*
X282619610Y-171665958D03*
%TD*%
D17*
%TO.C,S26*%
X298540210Y-185668293D03*
D15*
X298979398Y-180005687D03*
D17*
X289831390Y-180435507D03*
D15*
X294624988Y-177389293D03*
X292228189Y-178912400D03*
X298759804Y-182836990D03*
D16*
X294185800Y-183051900D03*
D19*
X289420966Y-177225650D03*
X301809765Y-181706343D03*
%TD*%
D20*
%TO.C,J2*%
X279350000Y-78200000D03*
X275550000Y-78200000D03*
X279350000Y-84700000D03*
X275550000Y-84700000D03*
X279350000Y-92450000D03*
X275550000Y-92450000D03*
X279350000Y-99950000D03*
X275550000Y-99950000D03*
X279350000Y-107200000D03*
X275550000Y-107200000D03*
X275550000Y-114700000D03*
X279350000Y-114700000D03*
X275550000Y-122200000D03*
X279350000Y-122200000D03*
X279350000Y-127950000D03*
X275550000Y-127950000D03*
%TD*%
D21*
%TO.C,LED52*%
X282967585Y-161225349D03*
X282312024Y-162847920D03*
X278232415Y-161199651D03*
X278887976Y-159577080D03*
D22*
X283517330Y-160665522D03*
X282318589Y-163632511D03*
X277682670Y-161759478D03*
X278881411Y-158792489D03*
%TD*%
D21*
%TO.C,LED51*%
X275767585Y-178825349D03*
X275112024Y-180447920D03*
X271032415Y-178799651D03*
X271687976Y-177177080D03*
D22*
X276317330Y-178265522D03*
X275118589Y-181232511D03*
X270482670Y-179359478D03*
X271681411Y-176392489D03*
%TD*%
D23*
%TO.C,LED54*%
X303736426Y-171395562D03*
X302835110Y-172895605D03*
X299063574Y-170629438D03*
X299964890Y-169129395D03*
D24*
X304366979Y-170928628D03*
X302718857Y-173671563D03*
X298433021Y-171096372D03*
X300081143Y-168353437D03*
%TD*%
D23*
%TO.C,LED53*%
X293936426Y-187695562D03*
X293035110Y-189195605D03*
X289263574Y-186929438D03*
X290164890Y-185429395D03*
D24*
X294566979Y-187228628D03*
X292918857Y-189971563D03*
X288633021Y-187396372D03*
X290281143Y-184653437D03*
%TD*%
M02*
