M48
; DRILL file {KiCad 6.0.10-86aedd382b~118~ubuntu22.04.1} date Tue 31 Jan 2023 06:18:51 PM MST
; FORMAT={-:-/ absolute / inch / decimal}
; #@! TF.CreationDate,2023-01-31T18:18:51-07:00
; #@! TF.GenerationSoftware,Kicad,Pcbnew,6.0.10-86aedd382b~118~ubuntu22.04.1
; #@! TF.FileFunction,NonPlated,1,2,NPTH
FMAT,2
INCH
; #@! TA.AperFunction,NonPlated,NPTH,ComponentDrill
T1C0.0670
; #@! TA.AperFunction,NonPlated,NPTH,ComponentDrill
T2C0.1181
; #@! TA.AperFunction,NonPlated,NPTH,ComponentDrill
T3C0.1570
%
G90
G05
T1
X10.6531Y-6.7829
X10.9334Y-6.0893
X11.024Y-6.9327
X11.3042Y-6.2391
X11.4107Y-7.1038
X11.7536Y-7.3098
X11.7959Y-6.4626
X12.1388Y-6.6686
T2
X10.737Y-6.7089
X10.8208Y-6.6349
X11.0062Y-6.7098
X11.0151Y-6.8213
X11.0172Y-6.0153
X11.101Y-5.9413
X11.2864Y-6.0162
X11.2953Y-6.1277
X11.505Y-7.0438
X11.5994Y-6.9838
X11.7622Y-7.1983
X11.7708Y-7.0868
X11.8903Y-6.4026
X11.9847Y-6.3426
X12.1475Y-6.5571
X12.1561Y-6.4456
T3
X10.8386Y-6.8578
X11.1188Y-6.1642
X11.5821Y-7.2068
X11.9674Y-6.5656
T0
M30
