%TF.GenerationSoftware,KiCad,Pcbnew,6.0.10-86aedd382b~118~ubuntu22.04.1*%
%TF.CreationDate,2023-01-31T18:18:49-07:00*%
%TF.ProjectId,scaarix_flow_thumb_cluster,73636161-7269-4785-9f66-6c6f775f7468,v1.0.0*%
%TF.SameCoordinates,Original*%
%TF.FileFunction,Legend,Top*%
%TF.FilePolarity,Positive*%
%FSLAX46Y46*%
G04 Gerber Fmt 4.6, Leading zero omitted, Abs format (unit mm)*
G04 Created by KiCad (PCBNEW 6.0.10-86aedd382b~118~ubuntu22.04.1) date 2023-01-31 18:18:49*
%MOMM*%
%LPD*%
G01*
G04 APERTURE LIST*
%ADD10C,0.100000*%
%ADD11C,0.150000*%
G04 APERTURE END LIST*
D10*
%TO.C,D27*%
X299293691Y-173871437D02*
X300014007Y-173837593D01*
X298950825Y-173665421D02*
X299293691Y-173871437D01*
X299807992Y-174180460D02*
X300236575Y-174437979D01*
X300014007Y-173837593D02*
X299601977Y-174523326D01*
X299293691Y-173871437D02*
X299576962Y-173399995D01*
X299601977Y-174523326D02*
X299293691Y-173871437D01*
X299293691Y-173871437D02*
X299010421Y-174342879D01*
%TO.C,D25*%
X278908886Y-164321088D02*
X279615039Y-164174978D01*
X278908886Y-164321088D02*
X279114919Y-163811137D01*
X279615039Y-164174978D02*
X279315353Y-164916725D01*
X279465196Y-164545852D02*
X279928788Y-164733155D01*
X279315353Y-164916725D02*
X278908886Y-164321088D01*
X278538012Y-164171245D02*
X278908886Y-164321088D01*
X278908886Y-164321088D02*
X278702852Y-164831039D01*
D11*
%TO.C,LED27*%
X303797659Y-170452874D02*
X300797574Y-168650241D01*
X304826813Y-170196277D02*
X300540977Y-167621087D01*
X300797574Y-168650241D02*
X298994941Y-171650326D01*
X302251623Y-174482113D02*
X304826813Y-170196277D01*
X298994941Y-171650326D02*
X301995026Y-173452959D01*
X297965787Y-171906923D02*
X302251623Y-174482113D01*
X301995026Y-173452959D02*
X303797659Y-170452874D01*
X300540977Y-167621087D02*
X297965787Y-171906923D01*
G36*
X305019025Y-174730393D02*
G01*
X303691885Y-174997520D01*
X304631830Y-173433190D01*
X305019025Y-174730393D01*
G37*
D10*
X305019025Y-174730393D02*
X303691885Y-174997520D01*
X304631830Y-173433190D01*
X305019025Y-174730393D01*
%TO.C,D26*%
X289507991Y-190157537D02*
X289791262Y-189686095D01*
X290022292Y-190466560D02*
X290450875Y-190724079D01*
X290228307Y-190123693D02*
X289816277Y-190809426D01*
X289816277Y-190809426D02*
X289507991Y-190157537D01*
X289507991Y-190157537D02*
X289224721Y-190628979D01*
X289507991Y-190157537D02*
X290228307Y-190123693D01*
X289165125Y-189951521D02*
X289507991Y-190157537D01*
D11*
%TO.C,LED26*%
X292209326Y-189739159D02*
X294011959Y-186739074D01*
X291011874Y-184936441D02*
X289209241Y-187936526D01*
X289209241Y-187936526D02*
X292209326Y-189739159D01*
X288180087Y-188193123D02*
X292465923Y-190768313D01*
X294011959Y-186739074D02*
X291011874Y-184936441D01*
X292465923Y-190768313D02*
X295041113Y-186482477D01*
X290755277Y-183907287D02*
X288180087Y-188193123D01*
X295041113Y-186482477D02*
X290755277Y-183907287D01*
G36*
X295233325Y-191016593D02*
G01*
X293906185Y-191283720D01*
X294846130Y-189719390D01*
X295233325Y-191016593D01*
G37*
D10*
X295233325Y-191016593D02*
X293906185Y-191283720D01*
X294846130Y-189719390D01*
X295233325Y-191016593D01*
D11*
%TO.C,LED24*%
X274394010Y-181101633D02*
X275705133Y-177856490D01*
X274808443Y-182077976D02*
X276681476Y-177442057D01*
X270172524Y-180204943D02*
X274808443Y-182077976D01*
X271148867Y-179790510D02*
X274394010Y-181101633D01*
X275705133Y-177856490D02*
X272459990Y-176545367D01*
X272459990Y-176545367D02*
X271148867Y-179790510D01*
X272045557Y-175569024D02*
X270172524Y-180204943D01*
X276681476Y-177442057D02*
X272045557Y-175569024D01*
G36*
X277580613Y-181890282D02*
G01*
X276311601Y-182361731D01*
X276995258Y-180669620D01*
X277580613Y-181890282D01*
G37*
D10*
X277580613Y-181890282D02*
X276311601Y-182361731D01*
X276995258Y-180669620D01*
X277580613Y-181890282D01*
D11*
%TO.C,LED25*%
X279163057Y-157952524D02*
X277290024Y-162588443D01*
X277290024Y-162588443D02*
X281925943Y-164461476D01*
X279577490Y-158928867D02*
X278266367Y-162174010D01*
X281925943Y-164461476D02*
X283798976Y-159825557D01*
X278266367Y-162174010D02*
X281511510Y-163485133D01*
X282822633Y-160239990D02*
X279577490Y-158928867D01*
X281511510Y-163485133D02*
X282822633Y-160239990D01*
X283798976Y-159825557D02*
X279163057Y-157952524D01*
G36*
X284698113Y-164273782D02*
G01*
X283429101Y-164745231D01*
X284112758Y-163053120D01*
X284698113Y-164273782D01*
G37*
D10*
X284698113Y-164273782D02*
X283429101Y-164745231D01*
X284112758Y-163053120D01*
X284698113Y-164273782D01*
%TO.C,D24*%
X271791286Y-181937488D02*
X271585252Y-182447439D01*
X271420412Y-181787645D02*
X271791286Y-181937488D01*
X272497439Y-181791378D02*
X272197753Y-182533125D01*
X272347596Y-182162252D02*
X272811188Y-182349555D01*
X271791286Y-181937488D02*
X272497439Y-181791378D01*
X272197753Y-182533125D02*
X271791286Y-181937488D01*
X271791286Y-181937488D02*
X271997319Y-181427537D01*
%TD*%
M02*
