%TF.GenerationSoftware,KiCad,Pcbnew,6.0.10-86aedd382b~118~ubuntu22.04.1*%
%TF.CreationDate,2023-01-31T18:18:49-07:00*%
%TF.ProjectId,scaarix_flow_thumb_cluster,73636161-7269-4785-9f66-6c6f775f7468,v1.0.0*%
%TF.SameCoordinates,Original*%
%TF.FileFunction,Soldermask,Top*%
%TF.FilePolarity,Negative*%
%FSLAX46Y46*%
G04 Gerber Fmt 4.6, Leading zero omitted, Abs format (unit mm)*
G04 Created by KiCad (PCBNEW 6.0.10-86aedd382b~118~ubuntu22.04.1) date 2023-01-31 18:18:49*
%MOMM*%
%LPD*%
G01*
G04 APERTURE LIST*
G04 Aperture macros list*
%AMRotRect*
0 Rectangle, with rotation*
0 The origin of the aperture is its center*
0 $1 length*
0 $2 width*
0 $3 Rotation angle, in degrees counterclockwise*
0 Add horizontal line*
21,1,$1,$2,0,0,$3*%
G04 Aperture macros list end*
%ADD10RotRect,1.778000X1.778000X329.000000*%
%ADD11RotRect,0.900000X1.200000X329.000000*%
%ADD12C,1.905000*%
%ADD13RotRect,1.778000X1.778000X338.000000*%
%ADD14RotRect,0.900000X1.200000X338.000000*%
%ADD15RotRect,2.600000X1.000000X329.000000*%
%ADD16RotRect,2.000000X1.200000X329.000000*%
%ADD17C,3.000000*%
%ADD18C,3.987800*%
%ADD19C,1.701800*%
%ADD20RotRect,2.550000X2.500000X338.000000*%
%ADD21RotRect,2.550000X2.500000X329.000000*%
%ADD22RotRect,2.600000X1.000000X338.000000*%
%ADD23RotRect,2.000000X1.200000X338.000000*%
%ADD24R,2.200000X2.000000*%
G04 APERTURE END LIST*
D10*
%TO.C,D27*%
X296327893Y-172089405D03*
D11*
X298179374Y-173201887D03*
X301008026Y-174901513D03*
D12*
X302859507Y-176013995D03*
%TD*%
D13*
%TO.C,D25*%
X275700830Y-163024949D03*
D14*
X277703547Y-163834099D03*
X280763253Y-165070301D03*
D12*
X282765970Y-165879451D03*
%TD*%
D15*
%TO.C,LED27*%
X299961190Y-169168495D03*
X299059874Y-170668538D03*
X302831410Y-172934705D03*
X303732726Y-171434662D03*
D16*
X300077443Y-168392537D03*
X298429321Y-171135472D03*
X302715157Y-173710663D03*
X304363279Y-170967728D03*
%TD*%
D17*
%TO.C,S25*%
X279836430Y-152788802D03*
X281965455Y-150909505D03*
D18*
X282417500Y-156571100D03*
D17*
X286901571Y-155643304D03*
X286675548Y-152812507D03*
D19*
X277707406Y-154668099D03*
X287127594Y-158474101D03*
D20*
X289938098Y-156870141D03*
X278903893Y-149672554D03*
%TD*%
D11*
%TO.C,D26*%
X288393674Y-189487987D03*
D10*
X286542193Y-188375505D03*
D12*
X293073807Y-192300095D03*
D11*
X291222326Y-191187613D03*
%TD*%
D15*
%TO.C,LED26*%
X290175490Y-185454695D03*
X289274174Y-186954738D03*
X293045710Y-189220905D03*
X293947026Y-187720862D03*
D16*
X290291743Y-184678737D03*
X288643621Y-187421672D03*
X292929457Y-189996863D03*
X294577579Y-187253928D03*
%TD*%
D17*
%TO.C,S27*%
X308545504Y-166550790D03*
D19*
X299617090Y-164149307D03*
X308325910Y-169382093D03*
D17*
X308765098Y-163719487D03*
X302013889Y-162626200D03*
X304410688Y-161103093D03*
D18*
X303971500Y-166765700D03*
D21*
X311352727Y-168237540D03*
X301580322Y-159402438D03*
%TD*%
D22*
%TO.C,LED24*%
X271714976Y-177188080D03*
X271059415Y-178810651D03*
X275139024Y-180458920D03*
X275794585Y-178836349D03*
D23*
X271708411Y-176403489D03*
X270509670Y-179370478D03*
X275145589Y-181243511D03*
X276344330Y-178276522D03*
%TD*%
D22*
%TO.C,LED25*%
X278832476Y-159571580D03*
X278176915Y-161194151D03*
X282256524Y-162842420D03*
X282912085Y-161219849D03*
D23*
X278825911Y-158786989D03*
X277627170Y-161753978D03*
X282263089Y-163627011D03*
X283461830Y-160660022D03*
%TD*%
D13*
%TO.C,D24*%
X268583230Y-180641349D03*
D14*
X270585947Y-181450499D03*
X273645653Y-182686701D03*
D12*
X275648370Y-183495851D03*
%TD*%
D17*
%TO.C,S24*%
X279558048Y-170429007D03*
X272718930Y-170405302D03*
D19*
X280010094Y-176090601D03*
D18*
X275300000Y-174187600D03*
D17*
X279784071Y-173259804D03*
X274847955Y-168526005D03*
D19*
X270589906Y-172284599D03*
D20*
X282820598Y-174486641D03*
X271786393Y-167289054D03*
%TD*%
D19*
%TO.C,S26*%
X298540210Y-185668293D03*
D17*
X298979398Y-180005687D03*
D19*
X289831390Y-180435507D03*
D17*
X294624988Y-177389293D03*
X292228189Y-178912400D03*
X298759804Y-182836990D03*
D18*
X294185800Y-183051900D03*
D21*
X301567027Y-184523740D03*
X291794622Y-175688638D03*
%TD*%
D24*
%TO.C,J2*%
X275550000Y-78200000D03*
X279350000Y-78200000D03*
X275550000Y-84700000D03*
X279350000Y-84700000D03*
X275550000Y-92450000D03*
X279350000Y-92450000D03*
X279350000Y-107200000D03*
X279350000Y-99950000D03*
X275550000Y-99950000D03*
X275550000Y-107200000D03*
X275550000Y-114700000D03*
X279350000Y-114700000D03*
X275550000Y-122200000D03*
X279350000Y-122200000D03*
X275550000Y-127950000D03*
X279350000Y-127950000D03*
%TD*%
M02*
