%TF.GenerationSoftware,KiCad,Pcbnew,6.0.10-86aedd382b~118~ubuntu22.04.1*%
%TF.CreationDate,2023-01-31T18:18:49-07:00*%
%TF.ProjectId,scaarix_flow_thumb_cluster,73636161-7269-4785-9f66-6c6f775f7468,v1.0.0*%
%TF.SameCoordinates,Original*%
%TF.FileFunction,Copper,L2,Bot*%
%TF.FilePolarity,Positive*%
%FSLAX46Y46*%
G04 Gerber Fmt 4.6, Leading zero omitted, Abs format (unit mm)*
G04 Created by KiCad (PCBNEW 6.0.10-86aedd382b~118~ubuntu22.04.1) date 2023-01-31 18:18:49*
%MOMM*%
%LPD*%
G01*
G04 APERTURE LIST*
G04 Aperture macros list*
%AMRotRect*
0 Rectangle, with rotation*
0 The origin of the aperture is its center*
0 $1 length*
0 $2 width*
0 $3 Rotation angle, in degrees counterclockwise*
0 Add horizontal line*
21,1,$1,$2,0,0,$3*%
G04 Aperture macros list end*
%TA.AperFunction,ComponentPad*%
%ADD10RotRect,1.778000X1.778000X329.000000*%
%TD*%
%TA.AperFunction,SMDPad,CuDef*%
%ADD11RotRect,0.900000X1.200000X329.000000*%
%TD*%
%TA.AperFunction,ComponentPad*%
%ADD12C,1.905000*%
%TD*%
%TA.AperFunction,ComponentPad*%
%ADD13RotRect,1.778000X1.778000X338.000000*%
%TD*%
%TA.AperFunction,SMDPad,CuDef*%
%ADD14RotRect,0.900000X1.200000X338.000000*%
%TD*%
%TA.AperFunction,SMDPad,CuDef*%
%ADD15RotRect,2.550000X2.500000X338.000000*%
%TD*%
%TA.AperFunction,SMDPad,CuDef*%
%ADD16RotRect,2.550000X2.500000X329.000000*%
%TD*%
%TA.AperFunction,SMDPad,CuDef*%
%ADD17R,2.200000X2.000000*%
%TD*%
%TA.AperFunction,ComponentPad*%
%ADD18R,6.000000X2.000000*%
%TD*%
%TA.AperFunction,SMDPad,CuDef*%
%ADD19RotRect,2.600000X1.000000X158.000000*%
%TD*%
%TA.AperFunction,SMDPad,CuDef*%
%ADD20RotRect,2.000000X1.200000X158.000000*%
%TD*%
%TA.AperFunction,SMDPad,CuDef*%
%ADD21RotRect,2.600000X1.000000X149.000000*%
%TD*%
%TA.AperFunction,SMDPad,CuDef*%
%ADD22RotRect,2.000000X1.200000X149.000000*%
%TD*%
%TA.AperFunction,ViaPad*%
%ADD23C,0.800000*%
%TD*%
%TA.AperFunction,Conductor*%
%ADD24C,0.250000*%
%TD*%
G04 APERTURE END LIST*
D10*
%TO.P,D27,1*%
%TO.N,P18*%
X296327893Y-172089405D03*
D11*
X298179374Y-173201887D03*
%TO.P,D27,2*%
%TO.N,2_top*%
X301008026Y-174901513D03*
D12*
X302859507Y-176013995D03*
%TD*%
D13*
%TO.P,D25,1*%
%TO.N,P18*%
X275700830Y-163024949D03*
D14*
X277703547Y-163834099D03*
%TO.P,D25,2*%
%TO.N,1_top*%
X280763253Y-165070301D03*
D12*
X282765970Y-165879451D03*
%TD*%
D15*
%TO.P,S25,1*%
%TO.N,1_top*%
X276799903Y-151561965D03*
%TO.P,S25,2*%
%TO.N,P10*%
X289737110Y-154049458D03*
%TD*%
D11*
%TO.P,D26,1*%
%TO.N,P19*%
X288393674Y-189487987D03*
D10*
X286542193Y-188375505D03*
D12*
%TO.P,D26,2*%
%TO.N,2_bottom*%
X293073807Y-192300095D03*
D11*
X291222326Y-191187613D03*
%TD*%
D16*
%TO.P,S27,1*%
%TO.N,2_top*%
X299206666Y-160939450D03*
%TO.P,S27,2*%
%TO.N,P16*%
X311595465Y-165420143D03*
%TD*%
D14*
%TO.P,D24,1*%
%TO.N,P19*%
X270585947Y-181450499D03*
D13*
X268583230Y-180641349D03*
D14*
%TO.P,D24,2*%
%TO.N,1_bottom*%
X273645653Y-182686701D03*
D12*
X275648370Y-183495851D03*
%TD*%
D15*
%TO.P,S24,1*%
%TO.N,1_bottom*%
X269682403Y-169178465D03*
%TO.P,S24,2*%
%TO.N,P10*%
X282619610Y-171665958D03*
%TD*%
D16*
%TO.P,S26,1*%
%TO.N,2_bottom*%
X289420966Y-177225650D03*
%TO.P,S26,2*%
%TO.N,P16*%
X301809765Y-181706343D03*
%TD*%
D17*
%TO.P,J2,1,Pin_1*%
%TO.N,P10*%
X279350000Y-78200000D03*
D18*
X277450000Y-78200000D03*
D17*
X275550000Y-78200000D03*
%TO.P,J2,2,Pin_2*%
%TO.N,P16*%
X279350000Y-84700000D03*
D18*
X277450000Y-84700000D03*
D17*
X275550000Y-84700000D03*
%TO.P,J2,3,Pin_3*%
%TO.N,P18*%
X279350000Y-92450000D03*
X275550000Y-92450000D03*
D18*
X277450000Y-92450000D03*
%TO.P,J2,4,Pin_4*%
%TO.N,P19*%
X277450000Y-99950000D03*
D17*
X279350000Y-99950000D03*
X275550000Y-99950000D03*
%TO.P,J2,5,Pin_5*%
%TO.N,VCC*%
X279350000Y-107200000D03*
D18*
X277450000Y-107200000D03*
D17*
X275550000Y-107200000D03*
%TO.P,J2,6,Pin_6*%
%TO.N,D1*%
X275550000Y-114700000D03*
D18*
X277450000Y-114700000D03*
D17*
X279350000Y-114700000D03*
%TO.P,J2,7,Pin_6*%
%TO.N,P1*%
X275550000Y-122200000D03*
D18*
X277450000Y-122200000D03*
D17*
X279350000Y-122200000D03*
%TO.P,J2,8,Pin_6*%
%TO.N,GND*%
X279350000Y-127950000D03*
D18*
X277450000Y-127950000D03*
D17*
X275550000Y-127950000D03*
%TD*%
D19*
%TO.P,LED52,1*%
%TO.N,VCC*%
X282967585Y-161225349D03*
%TO.P,LED52,2*%
%TO.N,D1*%
X282312024Y-162847920D03*
%TO.P,LED52,3*%
%TO.N,GND*%
X278232415Y-161199651D03*
%TO.P,LED52,4*%
%TO.N,P1*%
X278887976Y-159577080D03*
D20*
%TO.P,LED52,11*%
%TO.N,VCC*%
X283517330Y-160665522D03*
%TO.P,LED52,22*%
%TO.N,D1*%
X282318589Y-163632511D03*
%TO.P,LED52,33*%
%TO.N,GND*%
X277682670Y-161759478D03*
%TO.P,LED52,44*%
%TO.N,P1*%
X278881411Y-158792489D03*
%TD*%
D19*
%TO.P,LED51,1*%
%TO.N,VCC*%
X275767585Y-178825349D03*
%TO.P,LED51,2*%
%TO.N,D1*%
X275112024Y-180447920D03*
%TO.P,LED51,3*%
%TO.N,GND*%
X271032415Y-178799651D03*
%TO.P,LED51,4*%
%TO.N,P1*%
X271687976Y-177177080D03*
D20*
%TO.P,LED51,11*%
%TO.N,VCC*%
X276317330Y-178265522D03*
%TO.P,LED51,22*%
%TO.N,D1*%
X275118589Y-181232511D03*
%TO.P,LED51,33*%
%TO.N,GND*%
X270482670Y-179359478D03*
%TO.P,LED51,44*%
%TO.N,P1*%
X271681411Y-176392489D03*
%TD*%
D21*
%TO.P,LED54,1*%
%TO.N,VCC*%
X303736426Y-171395562D03*
%TO.P,LED54,2*%
%TO.N,D1*%
X302835110Y-172895605D03*
%TO.P,LED54,3*%
%TO.N,GND*%
X299063574Y-170629438D03*
%TO.P,LED54,4*%
%TO.N,P1*%
X299964890Y-169129395D03*
D22*
%TO.P,LED54,11*%
%TO.N,VCC*%
X304366979Y-170928628D03*
%TO.P,LED54,22*%
%TO.N,D1*%
X302718857Y-173671563D03*
%TO.P,LED54,33*%
%TO.N,GND*%
X298433021Y-171096372D03*
%TO.P,LED54,44*%
%TO.N,P1*%
X300081143Y-168353437D03*
%TD*%
D21*
%TO.P,LED53,1*%
%TO.N,VCC*%
X293936426Y-187695562D03*
%TO.P,LED53,2*%
%TO.N,D1*%
X293035110Y-189195605D03*
%TO.P,LED53,3*%
%TO.N,GND*%
X289263574Y-186929438D03*
%TO.P,LED53,4*%
%TO.N,P1*%
X290164890Y-185429395D03*
D22*
%TO.P,LED53,11*%
%TO.N,VCC*%
X294566979Y-187228628D03*
%TO.P,LED53,22*%
%TO.N,D1*%
X292918857Y-189971563D03*
%TO.P,LED53,33*%
%TO.N,GND*%
X288633021Y-187396372D03*
%TO.P,LED53,44*%
%TO.N,P1*%
X290281143Y-184653437D03*
%TD*%
D23*
%TO.N,GND*%
X273003600Y-180310200D03*
X291104700Y-188307900D03*
X300446900Y-173389100D03*
X280648100Y-161377700D03*
%TO.N,VCC*%
X305854600Y-172659400D03*
X280886200Y-160366800D03*
X297986800Y-168482100D03*
X287989600Y-179812200D03*
X273181700Y-178814600D03*
X289477400Y-167211900D03*
%TO.N,P19*%
X278460700Y-168367100D03*
%TO.N,P16*%
X292811200Y-172313000D03*
%TO.N,P10*%
X272834200Y-165013700D03*
X284038500Y-152854400D03*
%TO.N,P1*%
X284970600Y-177290900D03*
X301037600Y-170897500D03*
X284970600Y-181912800D03*
X295913100Y-185830500D03*
X273575500Y-176827200D03*
X280769300Y-159238800D03*
X277210900Y-176762200D03*
%TO.N,1_top*%
X282738600Y-146468500D03*
%TO.N,2_bottom*%
X298867700Y-177831400D03*
%TO.N,D1*%
X298390700Y-175251600D03*
X292296800Y-184914500D03*
X272229600Y-181229200D03*
X291309200Y-187189100D03*
X280199700Y-162865300D03*
%TD*%
D24*
%TO.N,GND*%
X294208500Y-169543700D02*
X297351400Y-169543700D01*
X288633000Y-187396400D02*
X288714800Y-187396400D01*
X280603900Y-161377700D02*
X280648100Y-161377700D01*
X270482700Y-179359500D02*
X272057800Y-179995900D01*
X288796600Y-187396400D02*
X289263600Y-186929400D01*
X279474600Y-162565000D02*
X279474600Y-163165600D01*
X297351400Y-169543700D02*
X297494200Y-169686500D01*
X282914100Y-167834500D02*
X289074600Y-167834500D01*
X279751200Y-165576900D02*
X280794700Y-166620400D01*
X272372100Y-180310200D02*
X272057800Y-179995900D01*
X275550000Y-127950000D02*
X277450000Y-127950000D01*
X280048300Y-161933300D02*
X280048300Y-161991300D01*
X281700000Y-166620400D02*
X282914100Y-167834500D01*
X300446900Y-173389100D02*
X298937400Y-171879600D01*
X278232400Y-161209800D02*
X278232400Y-161199700D01*
X289074600Y-167834500D02*
X289177100Y-167937000D01*
X288714800Y-187396400D02*
X288796600Y-187396400D01*
X279474600Y-163165600D02*
X279751200Y-163442200D01*
X270482700Y-179359500D02*
X271032400Y-178809800D01*
X278232400Y-161199700D02*
X280048300Y-161933300D01*
X280048300Y-161991300D02*
X279474600Y-162565000D01*
X290193200Y-187396400D02*
X291104700Y-188307900D01*
X273003600Y-180310200D02*
X272372100Y-180310200D01*
X280048300Y-161933300D02*
X280603900Y-161377700D01*
X280794700Y-166620400D02*
X281700000Y-166620400D01*
X288714800Y-187396400D02*
X290193200Y-187396400D01*
X289177100Y-167937000D02*
X292601800Y-167937000D01*
X277450000Y-127950000D02*
X279350000Y-127950000D01*
X277682700Y-161759500D02*
X278232400Y-161209800D01*
X298937400Y-171096400D02*
X298937400Y-170755600D01*
X298937400Y-171879600D02*
X298937400Y-171096400D01*
X271032400Y-178809800D02*
X271032400Y-178799700D01*
X298937400Y-170755600D02*
X299063600Y-170629400D01*
X299063600Y-170629400D02*
X297494200Y-169686500D01*
X292601800Y-167937000D02*
X294208500Y-169543700D01*
X298433000Y-171096400D02*
X298937400Y-171096400D01*
X279751200Y-163442200D02*
X279751200Y-165576900D01*
%TO.N,VCC*%
X286717700Y-178540300D02*
X287989600Y-179812200D01*
X293936400Y-187695600D02*
X294100000Y-187695600D01*
X275550000Y-107200000D02*
X277450000Y-107200000D01*
X305626700Y-172659400D02*
X305854600Y-172659400D01*
X289477400Y-166653000D02*
X289477400Y-167211900D01*
X296179400Y-186677400D02*
X296179400Y-187751100D01*
X292110300Y-181611600D02*
X293007500Y-180714400D01*
X284783400Y-161958900D02*
X284783400Y-161959000D01*
X282119200Y-160366800D02*
X280886200Y-160366800D01*
X282967600Y-161225300D02*
X284783400Y-161958900D01*
X275767600Y-178815200D02*
X276042500Y-178540300D01*
X275767000Y-178814600D02*
X275767600Y-178815200D01*
X305305800Y-172338500D02*
X305626700Y-172659400D01*
X294567000Y-187228600D02*
X295900700Y-188029800D01*
X282967600Y-161215200D02*
X282119200Y-160366800D01*
X293007500Y-180714400D02*
X295175000Y-180714400D01*
X296638300Y-182177700D02*
X296638300Y-186218500D01*
X294100000Y-187695600D02*
X294567000Y-187228600D01*
X296716600Y-167211900D02*
X297986800Y-168482100D01*
X277450000Y-107200000D02*
X279350000Y-107200000D01*
X289477400Y-167211900D02*
X296716600Y-167211900D01*
X273181700Y-178814600D02*
X275767000Y-178814600D01*
X303736400Y-171395600D02*
X305305800Y-172338500D01*
X276042500Y-178540300D02*
X276317300Y-178540300D01*
X276317300Y-178540300D02*
X276317300Y-178265500D01*
X296638300Y-186218500D02*
X296179400Y-186677400D01*
X304367000Y-170928600D02*
X304203400Y-170928600D01*
X287989600Y-179812200D02*
X287989600Y-180326800D01*
X282967600Y-161215200D02*
X282967600Y-161225300D01*
X284783400Y-161959000D02*
X289477400Y-166653000D01*
X289274400Y-181611600D02*
X292110300Y-181611600D01*
X287989600Y-180326800D02*
X289274400Y-181611600D01*
X304203400Y-170928600D02*
X303736400Y-171395600D01*
X283517300Y-160665500D02*
X282967600Y-161215200D01*
X295175000Y-180714400D02*
X296638300Y-182177700D01*
X275767600Y-178825300D02*
X275767600Y-178815200D01*
X296179400Y-187751100D02*
X295900700Y-188029800D01*
X276317300Y-178540300D02*
X286717700Y-178540300D01*
%TO.N,P19*%
X287842400Y-189156700D02*
X288173700Y-189488000D01*
X279350000Y-99950000D02*
X277450000Y-99950000D01*
X268583200Y-180641300D02*
X268583200Y-177394700D01*
X270163700Y-181279800D02*
X270415200Y-181279800D01*
X286542200Y-188375500D02*
X287842400Y-189156700D01*
X270415200Y-181279800D02*
X270585900Y-181450500D01*
X278655200Y-168172600D02*
X278460700Y-168367100D01*
X268583200Y-177394700D02*
X277914500Y-168063400D01*
X288173700Y-189488000D02*
X288393700Y-189488000D01*
X278546000Y-168063400D02*
X278655200Y-168172600D01*
X277914500Y-168063400D02*
X278546000Y-168063400D01*
X268583200Y-180641300D02*
X270163700Y-181279800D01*
X275550000Y-99950000D02*
X277450000Y-99950000D01*
%TO.N,P18*%
X275550000Y-92450000D02*
X277450000Y-92450000D01*
X281403700Y-167229400D02*
X282817800Y-168643500D01*
X278768700Y-164264500D02*
X278768700Y-164594400D01*
X277703500Y-163834100D02*
X278768700Y-164264500D01*
X292362900Y-168643500D02*
X295027600Y-171308200D01*
X278863600Y-165325900D02*
X280767100Y-167229400D01*
X296625100Y-172386600D02*
X296327900Y-172089400D01*
X280767100Y-167229400D02*
X281403700Y-167229400D01*
X282817800Y-168643500D02*
X292362900Y-168643500D01*
X276638300Y-163403700D02*
X276638300Y-163403800D01*
X298179400Y-173201900D02*
X297317200Y-172683900D01*
X278863600Y-164689300D02*
X278863600Y-165325900D01*
X296922500Y-172683900D02*
X296625200Y-172386600D01*
X296625200Y-172386600D02*
X296625100Y-172386600D01*
X276638300Y-163403800D02*
X276079700Y-163403800D01*
X276079700Y-163403800D02*
X275700800Y-163024900D01*
X278768700Y-164594400D02*
X278863600Y-164689300D01*
X296327900Y-172089400D02*
X295027600Y-171308200D01*
X277703500Y-163834100D02*
X276638300Y-163403700D01*
X277450000Y-92450000D02*
X279350000Y-92450000D01*
X297317200Y-172683900D02*
X296922500Y-172683900D01*
%TO.N,P16*%
X301809800Y-181706300D02*
X302826400Y-180014100D01*
X310578800Y-167112300D02*
X310578900Y-167112400D01*
X300855400Y-178741700D02*
X302826400Y-178741700D01*
X302826400Y-178741700D02*
X302826400Y-180014100D01*
X277450000Y-84700000D02*
X279350000Y-84700000D01*
X311595500Y-165420100D02*
X310578800Y-167112300D01*
X292811200Y-172313000D02*
X294426700Y-172313000D01*
X294426700Y-172313000D02*
X300855400Y-178741700D01*
X310578900Y-167112400D02*
X310578900Y-170989200D01*
X310578900Y-170989200D02*
X302826400Y-178741700D01*
X275550000Y-84700000D02*
X277450000Y-84700000D01*
%TO.N,P10*%
X284038500Y-152854400D02*
X285907000Y-150985900D01*
X273760500Y-165013700D02*
X276132900Y-165013700D01*
X280358700Y-168602900D02*
X282619600Y-170863800D01*
X285907000Y-150985900D02*
X287484800Y-150985900D01*
X276132900Y-165013700D02*
X279722100Y-168602900D01*
X289737100Y-153238200D02*
X289737100Y-154049500D01*
X273760500Y-161770100D02*
X273760500Y-165013700D01*
X282619600Y-170863800D02*
X282619600Y-171666000D01*
X287484800Y-150985900D02*
X289737100Y-153238200D01*
X282676200Y-152854400D02*
X273760500Y-161770100D01*
X279722100Y-168602900D02*
X280358700Y-168602900D01*
X272834200Y-165013700D02*
X273760500Y-165013700D01*
X284038500Y-152854400D02*
X282676200Y-152854400D01*
%TO.N,P1*%
X290164900Y-184769600D02*
X290164900Y-185429400D01*
X274210600Y-162370300D02*
X277003800Y-159577100D01*
X278881400Y-158792500D02*
X278888000Y-158799100D01*
X276581400Y-164507400D02*
X275027100Y-164507400D01*
X300081100Y-168353400D02*
X300023000Y-168411500D01*
X284645200Y-170887600D02*
X282997200Y-169239600D01*
X280646600Y-159238800D02*
X280456600Y-159428800D01*
X290164900Y-185429400D02*
X291734300Y-186372300D01*
X275027100Y-164507400D02*
X274210600Y-163690900D01*
X290281100Y-184653400D02*
X288947500Y-183852200D01*
X271688000Y-176399100D02*
X271681400Y-176392500D01*
X284645200Y-177290900D02*
X284970600Y-177290900D01*
X277450000Y-122200000D02*
X275550000Y-122200000D01*
X300023000Y-168411500D02*
X299964900Y-168411500D01*
X299964900Y-169129400D02*
X301037600Y-170202100D01*
X278881400Y-158792500D02*
X280456600Y-159428900D01*
X273503800Y-176898900D02*
X273575500Y-176827200D01*
X277003800Y-159577100D02*
X278888000Y-159577100D01*
X287008100Y-181912800D02*
X288947500Y-183852200D01*
X280067500Y-167993500D02*
X276581400Y-164507400D01*
X290281100Y-184653400D02*
X290164900Y-184769600D01*
X282997200Y-169239600D02*
X282773800Y-169239600D01*
X273503800Y-177910700D02*
X273503800Y-176898900D01*
X296236300Y-164682900D02*
X289347700Y-164682900D01*
X292276100Y-185830500D02*
X295913100Y-185830500D01*
X284645200Y-177290900D02*
X284645200Y-170887600D01*
X299964900Y-168411500D02*
X299964900Y-169129400D01*
X301037600Y-170202100D02*
X301037600Y-170897500D01*
X277739600Y-177290900D02*
X284645200Y-177290900D01*
X281527700Y-167993500D02*
X280067500Y-167993500D01*
X289347700Y-164682900D02*
X283903600Y-159238800D01*
X279350000Y-122200000D02*
X277450000Y-122200000D01*
X280456600Y-159428800D02*
X280456600Y-159428900D01*
X271688000Y-177177100D02*
X271688000Y-176399100D01*
X282773800Y-169239600D02*
X281527700Y-167993500D01*
X271688000Y-177177100D02*
X273503800Y-177910700D01*
X278888000Y-158799100D02*
X278888000Y-159577100D01*
X274210600Y-163690900D02*
X274210600Y-162370300D01*
X284970600Y-181912800D02*
X287008100Y-181912800D01*
X277210900Y-176762200D02*
X277739600Y-177290900D01*
X291734300Y-186372300D02*
X292276100Y-185830500D01*
X280769300Y-159238800D02*
X280646600Y-159238800D01*
X299964900Y-168411500D02*
X296236300Y-164682900D01*
X283903600Y-159238800D02*
X280769300Y-159238800D01*
%TO.N,1_bottom*%
X272580500Y-182256400D02*
X272580500Y-182256300D01*
X272311500Y-182525400D02*
X272580500Y-182256400D01*
X275648400Y-183495900D02*
X275089700Y-183495900D01*
X268333900Y-182525400D02*
X272311500Y-182525400D01*
X269682400Y-169178500D02*
X268850200Y-171238300D01*
X267081100Y-173007400D02*
X267081100Y-181272600D01*
X268850200Y-171238300D02*
X267081100Y-173007400D01*
X275089700Y-183495900D02*
X274710900Y-183117100D01*
X273645700Y-182686700D02*
X274710900Y-183117100D01*
X273645700Y-182686700D02*
X272580500Y-182256300D01*
X267081100Y-181272600D02*
X268333900Y-182525400D01*
%TO.N,1_top*%
X277632100Y-149502200D02*
X278859700Y-149502200D01*
X282766000Y-165879500D02*
X282387200Y-165500700D01*
X276799900Y-151562000D02*
X277632100Y-149502200D01*
X278859700Y-149502200D02*
X281893400Y-146468500D01*
X281893400Y-146468500D02*
X282738600Y-146468500D01*
X282387200Y-165500700D02*
X281828500Y-165500700D01*
X280763300Y-165070300D02*
X281828500Y-165500700D01*
%TO.N,2_bottom*%
X289421000Y-177225700D02*
X290437700Y-175533500D01*
X296580100Y-175543800D02*
X298867700Y-177831400D01*
X292084500Y-191705600D02*
X292679000Y-192300100D01*
X291222300Y-191187600D02*
X292084500Y-191705600D01*
X290437700Y-175533500D02*
X290448000Y-175543800D01*
X290448000Y-175543800D02*
X296580100Y-175543800D01*
X292679000Y-192300100D02*
X293073800Y-192300100D01*
%TO.N,2_top*%
X301090000Y-173006700D02*
X301090000Y-172221600D01*
X301008000Y-174901500D02*
X301008000Y-173853500D01*
X302464700Y-176014000D02*
X301870200Y-175419500D01*
X301090000Y-172221600D02*
X301765300Y-171546300D01*
X301172000Y-173088700D02*
X301090000Y-173006700D01*
X298439500Y-164645100D02*
X298439500Y-162881100D01*
X301765300Y-170489100D02*
X301689200Y-170413000D01*
X301765300Y-171546300D02*
X301765300Y-170489100D01*
X302859500Y-176014000D02*
X302464700Y-176014000D01*
X301172000Y-173689500D02*
X301172000Y-173088700D01*
X298439500Y-162881100D02*
X298190100Y-162631700D01*
X301689200Y-167894800D02*
X298439500Y-164645100D01*
X301008000Y-173853500D02*
X301172000Y-173689500D01*
X299206700Y-160939500D02*
X298190100Y-162631700D01*
X301008000Y-174901500D02*
X301870200Y-175419500D01*
X301689200Y-170413000D02*
X301689200Y-167894800D01*
%TO.N,D1*%
X291309200Y-187189100D02*
X293035100Y-188915000D01*
X293035100Y-188915000D02*
X293035100Y-189195600D01*
X304052500Y-174472800D02*
X304052400Y-174472900D01*
X304140900Y-175093600D02*
X304140900Y-176546700D01*
X300435400Y-177296300D02*
X298390700Y-175251600D01*
X288769700Y-182153400D02*
X289406300Y-182153400D01*
X275112000Y-181229200D02*
X272229600Y-181229200D01*
X276927900Y-181181500D02*
X287797800Y-181181500D01*
X282318600Y-163632500D02*
X282312000Y-163625900D01*
X277450000Y-114700000D02*
X275550000Y-114700000D01*
X304140900Y-176546700D02*
X303391300Y-177296300D01*
X292918900Y-189971600D02*
X293035100Y-189855400D01*
X304052400Y-175005100D02*
X304140900Y-175093600D01*
X275112000Y-181229200D02*
X275112000Y-180447900D01*
X303391300Y-177296300D02*
X300435400Y-177296300D01*
X302835100Y-172895600D02*
X302835100Y-173555400D01*
X287797800Y-181181500D02*
X288769700Y-182153400D01*
X289406300Y-182153400D02*
X292167400Y-184914500D01*
X279350000Y-114700000D02*
X277450000Y-114700000D01*
X302718900Y-173671600D02*
X304052500Y-174472800D01*
X280199700Y-162865300D02*
X280612600Y-162865300D01*
X275118600Y-181232500D02*
X275115300Y-181229200D01*
X282318600Y-163632500D02*
X280743400Y-162996100D01*
X275115300Y-181229200D02*
X275112000Y-181229200D01*
X304052400Y-174472900D02*
X304052400Y-175005100D01*
X282312000Y-163625900D02*
X282312000Y-162847900D01*
X280612600Y-162865300D02*
X280743400Y-162996100D01*
X302835100Y-173555400D02*
X302718900Y-173671600D01*
X292167400Y-184914500D02*
X292296800Y-184914500D01*
X293035100Y-189855400D02*
X293035100Y-189195600D01*
X275112000Y-180447900D02*
X276927900Y-181181500D01*
%TD*%
%TA.AperFunction,NonConductor*%
G36*
X283398421Y-153507902D02*
G01*
X283417647Y-153524243D01*
X283417920Y-153523940D01*
X283422832Y-153528363D01*
X283427247Y-153533266D01*
X283432586Y-153537145D01*
X283525756Y-153604837D01*
X283581748Y-153645518D01*
X283587776Y-153648202D01*
X283587778Y-153648203D01*
X283750181Y-153720509D01*
X283756212Y-153723194D01*
X283849613Y-153743047D01*
X283936556Y-153761528D01*
X283936561Y-153761528D01*
X283943013Y-153762900D01*
X284133987Y-153762900D01*
X284140439Y-153761528D01*
X284140444Y-153761528D01*
X284227387Y-153743047D01*
X284320788Y-153723194D01*
X284326819Y-153720509D01*
X284489222Y-153648203D01*
X284489224Y-153648202D01*
X284495252Y-153645518D01*
X284633612Y-153544993D01*
X284700479Y-153521135D01*
X284769631Y-153537215D01*
X284820921Y-153591694D01*
X284931888Y-153819209D01*
X284934343Y-153822848D01*
X284934346Y-153822854D01*
X284961552Y-153863188D01*
X285088963Y-154052083D01*
X285091908Y-154055354D01*
X285091909Y-154055355D01*
X285117272Y-154083523D01*
X285276919Y-154260829D01*
X285280282Y-154263651D01*
X285283454Y-154266714D01*
X285282163Y-154268051D01*
X285317232Y-154320786D01*
X285318343Y-154391774D01*
X285296195Y-154435745D01*
X285235097Y-154513947D01*
X285235091Y-154513956D01*
X285232383Y-154517422D01*
X285230187Y-154521226D01*
X285230182Y-154521233D01*
X285158858Y-154644771D01*
X285091935Y-154760685D01*
X284986709Y-155021128D01*
X284985644Y-155025401D01*
X284985643Y-155025403D01*
X284922344Y-155279282D01*
X284918754Y-155293680D01*
X284918295Y-155298048D01*
X284918294Y-155298053D01*
X284904944Y-155425075D01*
X284877931Y-155490732D01*
X284819709Y-155531362D01*
X284748764Y-155534065D01*
X284687620Y-155497983D01*
X284669219Y-155472606D01*
X284668858Y-155471948D01*
X284534524Y-155227596D01*
X284349445Y-154972856D01*
X284133898Y-154743322D01*
X283891282Y-154542613D01*
X283625424Y-154373894D01*
X283621845Y-154372210D01*
X283621838Y-154372206D01*
X283344106Y-154241516D01*
X283344102Y-154241514D01*
X283340516Y-154239827D01*
X283041052Y-154142525D01*
X282731754Y-154083523D01*
X282644500Y-154078033D01*
X282577771Y-154053795D01*
X282534738Y-153997326D01*
X282529066Y-153926556D01*
X282563317Y-153863188D01*
X282901700Y-153524805D01*
X282964012Y-153490779D01*
X282990795Y-153487900D01*
X283330300Y-153487900D01*
X283398421Y-153507902D01*
G37*
%TD.AperFunction*%
%TA.AperFunction,NonConductor*%
G36*
X279417820Y-154758209D02*
G01*
X279422170Y-154758820D01*
X279422173Y-154758821D01*
X279569712Y-154779556D01*
X279634386Y-154808844D01*
X279672959Y-154868448D01*
X279673184Y-154939444D01*
X279641271Y-154993425D01*
X278980829Y-155653867D01*
X278918517Y-155687893D01*
X278847702Y-155682828D01*
X278790866Y-155640281D01*
X278766055Y-155573761D01*
X278781146Y-155504387D01*
X278790645Y-155489560D01*
X278863743Y-155391313D01*
X278863745Y-155391310D01*
X278866927Y-155387033D01*
X278921711Y-155279282D01*
X278969064Y-155186145D01*
X278969064Y-155186144D01*
X278971483Y-155181387D01*
X279022513Y-155017045D01*
X279038311Y-154966169D01*
X279038312Y-154966163D01*
X279039895Y-154961066D01*
X279055996Y-154839585D01*
X279060438Y-154806071D01*
X279089217Y-154741169D01*
X279148517Y-154702129D01*
X279220075Y-154701507D01*
X279417820Y-154758209D01*
G37*
%TD.AperFunction*%
%TA.AperFunction,NonConductor*%
G36*
X279842008Y-156688663D02*
G01*
X279898844Y-156731210D01*
X279922981Y-156790925D01*
X279954564Y-157040930D01*
X280032870Y-157345913D01*
X280148784Y-157638677D01*
X280300476Y-157914604D01*
X280302807Y-157917812D01*
X280305134Y-157921015D01*
X280328992Y-157987884D01*
X280312910Y-158057035D01*
X280261996Y-158106514D01*
X280192413Y-158120613D01*
X280155997Y-158111900D01*
X280069839Y-158077090D01*
X279020992Y-157653328D01*
X278965324Y-157609264D01*
X278942316Y-157542099D01*
X278959273Y-157473157D01*
X278979097Y-157447408D01*
X279708881Y-156717624D01*
X279771193Y-156683598D01*
X279842008Y-156688663D01*
G37*
%TD.AperFunction*%
%TA.AperFunction,NonConductor*%
G36*
X301104034Y-164419684D02*
G01*
X301298873Y-164506432D01*
X301325264Y-164518182D01*
X301460272Y-164556895D01*
X301590648Y-164594279D01*
X301595279Y-164595607D01*
X301599629Y-164596218D01*
X301599632Y-164596219D01*
X301702579Y-164610687D01*
X301873441Y-164634700D01*
X302084035Y-164634700D01*
X302086221Y-164634547D01*
X302086225Y-164634547D01*
X302189590Y-164627319D01*
X302279784Y-164621012D01*
X302349134Y-164636213D01*
X302399256Y-164686495D01*
X302414238Y-164755893D01*
X302389321Y-164822374D01*
X302368888Y-164843790D01*
X302255102Y-164937922D01*
X302039555Y-165167456D01*
X302037228Y-165170658D01*
X302037227Y-165170660D01*
X302005724Y-165214021D01*
X301854476Y-165422196D01*
X301852569Y-165425665D01*
X301852567Y-165425668D01*
X301728704Y-165650975D01*
X301702784Y-165698123D01*
X301586870Y-165990887D01*
X301508564Y-166295870D01*
X301494845Y-166404469D01*
X301482208Y-166504500D01*
X301453826Y-166569577D01*
X301394767Y-166608978D01*
X301323781Y-166610195D01*
X301268107Y-166577803D01*
X300771038Y-166080733D01*
X300238041Y-165547736D01*
X300204015Y-165485424D01*
X300209080Y-165414608D01*
X300251627Y-165357773D01*
X300271124Y-165346272D01*
X300271080Y-165346193D01*
X300274244Y-165344432D01*
X300275382Y-165343761D01*
X300280605Y-165341408D01*
X300285025Y-165338432D01*
X300285029Y-165338430D01*
X300412763Y-165252433D01*
X300471975Y-165212569D01*
X300638902Y-165053329D01*
X300717976Y-164947050D01*
X300773427Y-164872521D01*
X300773429Y-164872518D01*
X300776611Y-164868241D01*
X300869798Y-164684956D01*
X300878748Y-164667353D01*
X300878748Y-164667352D01*
X300881167Y-164662595D01*
X300932455Y-164497423D01*
X300971755Y-164438302D01*
X301036785Y-164409811D01*
X301104034Y-164419684D01*
G37*
%TD.AperFunction*%
%TA.AperFunction,NonConductor*%
G36*
X295989827Y-165336402D02*
G01*
X296010801Y-165353305D01*
X297061965Y-166404469D01*
X297095991Y-166466781D01*
X297090926Y-166537596D01*
X297048379Y-166594432D01*
X296981859Y-166619243D01*
X296941538Y-166615606D01*
X296932037Y-166613167D01*
X296913334Y-166606763D01*
X296902020Y-166601867D01*
X296902019Y-166601867D01*
X296894745Y-166598719D01*
X296886922Y-166597480D01*
X296886912Y-166597477D01*
X296851076Y-166591801D01*
X296839456Y-166589395D01*
X296804311Y-166580372D01*
X296804310Y-166580372D01*
X296796630Y-166578400D01*
X296776376Y-166578400D01*
X296756665Y-166576849D01*
X296744486Y-166574920D01*
X296736657Y-166573680D01*
X296728765Y-166574426D01*
X296692639Y-166577841D01*
X296680781Y-166578400D01*
X290214202Y-166578400D01*
X290146081Y-166558398D01*
X290099588Y-166504742D01*
X290095881Y-166494260D01*
X290095874Y-166494203D01*
X290079594Y-166453086D01*
X290075759Y-166441885D01*
X290063418Y-166399406D01*
X290059385Y-166392587D01*
X290059383Y-166392582D01*
X290053107Y-166381971D01*
X290044410Y-166364221D01*
X290036952Y-166345383D01*
X290010971Y-166309623D01*
X290004453Y-166299701D01*
X289985978Y-166268460D01*
X289985974Y-166268455D01*
X289981942Y-166261637D01*
X289967618Y-166247313D01*
X289954776Y-166232278D01*
X289942872Y-166215893D01*
X289908806Y-166187711D01*
X289900027Y-166179722D01*
X289255481Y-165535176D01*
X289221455Y-165472864D01*
X289226520Y-165402049D01*
X289269067Y-165345213D01*
X289332718Y-165320640D01*
X289362579Y-165317818D01*
X289371662Y-165316959D01*
X289383519Y-165316400D01*
X295921706Y-165316400D01*
X295989827Y-165336402D01*
G37*
%TD.AperFunction*%
%TA.AperFunction,NonConductor*%
G36*
X284445259Y-162536166D02*
G01*
X284495392Y-162566896D01*
X288620969Y-166692473D01*
X288654995Y-166754785D01*
X288649930Y-166825600D01*
X288646979Y-166832820D01*
X288646177Y-166834622D01*
X288642873Y-166840344D01*
X288583858Y-167021972D01*
X288578300Y-167074861D01*
X288576901Y-167088169D01*
X288549889Y-167153826D01*
X288491667Y-167194457D01*
X288451591Y-167201000D01*
X283814634Y-167201000D01*
X283746513Y-167180998D01*
X283700020Y-167127342D01*
X283689916Y-167057068D01*
X283719410Y-166992488D01*
X283725694Y-166985749D01*
X283835900Y-166875927D01*
X283882390Y-166829599D01*
X284022583Y-166634500D01*
X284129029Y-166419124D01*
X284192311Y-166210840D01*
X284197365Y-166194207D01*
X284197366Y-166194201D01*
X284198869Y-166189255D01*
X284221221Y-166019474D01*
X284229790Y-165954386D01*
X284229790Y-165954382D01*
X284230227Y-165951065D01*
X284230776Y-165928614D01*
X284231895Y-165882816D01*
X284231895Y-165882812D01*
X284231977Y-165879451D01*
X284212292Y-165640014D01*
X284158451Y-165425668D01*
X284155023Y-165412019D01*
X284155023Y-165412018D01*
X284153764Y-165407007D01*
X284073718Y-165222913D01*
X284060027Y-165191425D01*
X284060025Y-165191422D01*
X284057967Y-165186688D01*
X283927472Y-164984974D01*
X283765784Y-164807281D01*
X283761733Y-164804082D01*
X283761729Y-164804078D01*
X283616355Y-164689269D01*
X283575292Y-164631352D01*
X283572060Y-164560429D01*
X283577622Y-164543187D01*
X283618394Y-164442274D01*
X283960041Y-163596666D01*
X284031745Y-163419193D01*
X284192890Y-163020346D01*
X284192891Y-163020343D01*
X284194171Y-163017175D01*
X284199231Y-162999293D01*
X284209051Y-162964589D01*
X284209051Y-162964587D01*
X284211201Y-162956990D01*
X284211532Y-162943939D01*
X284214660Y-162820351D01*
X284214660Y-162820350D01*
X284214887Y-162811379D01*
X284197998Y-162747683D01*
X284199874Y-162676712D01*
X284239822Y-162618021D01*
X284254613Y-162607559D01*
X284303323Y-162578118D01*
X284303324Y-162578117D01*
X284311006Y-162573474D01*
X284317077Y-162566861D01*
X284324022Y-162561176D01*
X284325802Y-162563350D01*
X284374292Y-162534124D01*
X284445259Y-162536166D01*
G37*
%TD.AperFunction*%
%TA.AperFunction,NonConductor*%
G36*
X296470127Y-167865402D02*
G01*
X296491101Y-167882305D01*
X297039678Y-168430882D01*
X297073704Y-168493194D01*
X297075892Y-168506803D01*
X297093258Y-168672028D01*
X297095298Y-168678306D01*
X297117054Y-168745264D01*
X297119082Y-168816231D01*
X297082419Y-168877029D01*
X297018707Y-168908355D01*
X296997221Y-168910200D01*
X294523094Y-168910200D01*
X294454973Y-168890198D01*
X294434003Y-168873299D01*
X293621198Y-168060493D01*
X293587174Y-167998183D01*
X293592239Y-167927367D01*
X293634786Y-167870532D01*
X293701306Y-167845721D01*
X293710295Y-167845400D01*
X296402006Y-167845400D01*
X296470127Y-167865402D01*
G37*
%TD.AperFunction*%
%TA.AperFunction,NonConductor*%
G36*
X302516214Y-168805925D02*
G01*
X302677618Y-168908355D01*
X302763576Y-168962906D01*
X302767155Y-168964590D01*
X302767162Y-168964594D01*
X303044894Y-169095284D01*
X303044898Y-169095286D01*
X303048484Y-169096973D01*
X303347948Y-169194275D01*
X303433563Y-169210607D01*
X303516614Y-169226450D01*
X303579780Y-169258862D01*
X303615396Y-169320279D01*
X303612152Y-169391202D01*
X303571080Y-169449112D01*
X303563913Y-169454001D01*
X303559645Y-169455738D01*
X303445572Y-169546312D01*
X303440797Y-169552603D01*
X303409810Y-169593427D01*
X303409804Y-169593435D01*
X303407756Y-169596134D01*
X303357266Y-169680163D01*
X303284851Y-169800682D01*
X303232621Y-169848771D01*
X303162684Y-169860988D01*
X303111955Y-169843791D01*
X303103198Y-169838530D01*
X303100266Y-169836768D01*
X303084212Y-169829350D01*
X303050658Y-169813847D01*
X303050659Y-169813847D01*
X303043486Y-169810533D01*
X302900244Y-169784114D01*
X302819905Y-169792345D01*
X302764272Y-169798045D01*
X302764270Y-169798046D01*
X302755345Y-169798960D01*
X302620438Y-169853878D01*
X302613411Y-169859457D01*
X302613410Y-169859458D01*
X302527050Y-169928028D01*
X302461263Y-169954722D01*
X302391487Y-169941612D01*
X302339876Y-169892859D01*
X302322700Y-169829350D01*
X302322700Y-168912310D01*
X302342702Y-168844189D01*
X302396358Y-168797696D01*
X302466632Y-168787592D01*
X302516214Y-168805925D01*
G37*
%TD.AperFunction*%
%TA.AperFunction,NonConductor*%
G36*
X297070866Y-170197202D02*
G01*
X297117359Y-170250858D01*
X297127463Y-170321132D01*
X297110749Y-170368094D01*
X296991618Y-170566359D01*
X296927831Y-170672518D01*
X296875601Y-170720607D01*
X296805663Y-170732824D01*
X296754933Y-170715626D01*
X296434059Y-170522826D01*
X296248287Y-170411202D01*
X296200198Y-170358973D01*
X296187981Y-170289036D01*
X296215514Y-170223595D01*
X296274056Y-170183429D01*
X296313182Y-170177200D01*
X297002745Y-170177200D01*
X297070866Y-170197202D01*
G37*
%TD.AperFunction*%
%TA.AperFunction,NonConductor*%
G36*
X295800057Y-170197202D02*
G01*
X295846550Y-170250858D01*
X295856654Y-170321132D01*
X295827160Y-170385712D01*
X295779443Y-170419900D01*
X295764550Y-170425963D01*
X295650478Y-170516537D01*
X295645706Y-170522824D01*
X295645704Y-170522826D01*
X295637000Y-170534293D01*
X295612661Y-170566359D01*
X295610910Y-170569273D01*
X295610906Y-170569279D01*
X295533953Y-170697351D01*
X295481723Y-170745440D01*
X295411786Y-170757657D01*
X295346345Y-170730124D01*
X295336855Y-170721551D01*
X295007599Y-170392295D01*
X294973573Y-170329983D01*
X294978638Y-170259168D01*
X295021185Y-170202332D01*
X295087705Y-170177521D01*
X295096694Y-170177200D01*
X295731936Y-170177200D01*
X295800057Y-170197202D01*
G37*
%TD.AperFunction*%
%TA.AperFunction,NonConductor*%
G36*
X272300320Y-172374709D02*
G01*
X272304673Y-172375321D01*
X272304674Y-172375321D01*
X272346434Y-172381190D01*
X272406881Y-172389685D01*
X272471556Y-172418973D01*
X272510129Y-172478577D01*
X272510354Y-172549573D01*
X272478441Y-172603554D01*
X271970053Y-173111942D01*
X271907741Y-173145968D01*
X271836926Y-173140903D01*
X271780090Y-173098356D01*
X271755279Y-173031836D01*
X271768641Y-172965742D01*
X271851564Y-172802645D01*
X271851564Y-172802644D01*
X271853983Y-172797887D01*
X271891629Y-172676649D01*
X271920811Y-172582669D01*
X271920812Y-172582663D01*
X271922395Y-172577566D01*
X271935852Y-172476035D01*
X271942938Y-172422571D01*
X271971717Y-172357669D01*
X272031017Y-172318629D01*
X272102575Y-172318007D01*
X272300320Y-172374709D01*
G37*
%TD.AperFunction*%
%TA.AperFunction,NonConductor*%
G36*
X277779884Y-169198087D02*
G01*
X277836720Y-169240634D01*
X277861531Y-169307154D01*
X277844971Y-169379143D01*
X277748412Y-169546388D01*
X277643186Y-169806831D01*
X277642121Y-169811104D01*
X277642120Y-169811106D01*
X277606313Y-169954722D01*
X277575231Y-170079383D01*
X277574772Y-170083751D01*
X277574771Y-170083756D01*
X277548892Y-170329983D01*
X277545870Y-170358740D01*
X277546023Y-170363128D01*
X277546023Y-170363134D01*
X277555014Y-170620587D01*
X277555673Y-170639465D01*
X277556435Y-170643788D01*
X277556436Y-170643795D01*
X277573651Y-170741423D01*
X277604450Y-170916094D01*
X277691251Y-171183242D01*
X277693179Y-171187195D01*
X277693181Y-171187200D01*
X277732695Y-171268214D01*
X277814388Y-171435709D01*
X277816843Y-171439348D01*
X277816846Y-171439354D01*
X277870701Y-171519197D01*
X277971463Y-171668583D01*
X277974408Y-171671854D01*
X277974409Y-171671855D01*
X277999772Y-171700023D01*
X278159419Y-171877329D01*
X278162782Y-171880151D01*
X278165954Y-171883214D01*
X278164663Y-171884551D01*
X278199732Y-171937286D01*
X278200843Y-172008274D01*
X278178695Y-172052245D01*
X278117597Y-172130447D01*
X278117591Y-172130456D01*
X278114883Y-172133922D01*
X278112687Y-172137726D01*
X278112682Y-172137733D01*
X278011492Y-172313000D01*
X277974435Y-172377185D01*
X277869209Y-172637628D01*
X277868144Y-172641901D01*
X277868143Y-172641903D01*
X277804844Y-172895782D01*
X277801254Y-172910180D01*
X277800795Y-172914548D01*
X277800794Y-172914553D01*
X277787444Y-173041575D01*
X277760431Y-173107232D01*
X277702209Y-173147862D01*
X277631264Y-173150565D01*
X277570120Y-173114483D01*
X277551719Y-173089106D01*
X277551358Y-173088448D01*
X277467163Y-172935299D01*
X277418933Y-172847568D01*
X277418931Y-172847565D01*
X277417024Y-172844096D01*
X277258786Y-172626300D01*
X277234273Y-172592560D01*
X277234272Y-172592558D01*
X277231945Y-172589356D01*
X277016398Y-172359822D01*
X276773782Y-172159113D01*
X276590490Y-172042792D01*
X276511271Y-171992518D01*
X276511270Y-171992518D01*
X276507924Y-171990394D01*
X276504345Y-171988710D01*
X276504338Y-171988706D01*
X276226606Y-171858016D01*
X276226602Y-171858014D01*
X276223016Y-171856327D01*
X275923552Y-171759025D01*
X275614254Y-171700023D01*
X275552041Y-171696109D01*
X275478361Y-171691473D01*
X275411631Y-171667233D01*
X275368599Y-171610764D01*
X275362928Y-171539994D01*
X275397178Y-171476627D01*
X277646757Y-169227048D01*
X277709069Y-169193022D01*
X277779884Y-169198087D01*
G37*
%TD.AperFunction*%
%TA.AperFunction,NonConductor*%
G36*
X297368679Y-174007986D02*
G01*
X297619793Y-174158870D01*
X297855789Y-174300671D01*
X297903877Y-174352900D01*
X297916094Y-174422837D01*
X297888561Y-174488278D01*
X297864954Y-174510609D01*
X297843216Y-174526403D01*
X297779447Y-174572734D01*
X297774905Y-174577779D01*
X297774815Y-174577834D01*
X297770123Y-174582059D01*
X297769350Y-174581201D01*
X297714462Y-174615020D01*
X297643478Y-174613671D01*
X297592172Y-174582567D01*
X297418220Y-174408615D01*
X297214688Y-174205084D01*
X297180664Y-174142772D01*
X297185728Y-174071957D01*
X297228275Y-174015121D01*
X297294795Y-173990310D01*
X297368679Y-174007986D01*
G37*
%TD.AperFunction*%
%TA.AperFunction,NonConductor*%
G36*
X306594862Y-167189471D02*
G01*
X306650079Y-167234098D01*
X306666311Y-167266874D01*
X306678707Y-167305025D01*
X306680635Y-167308978D01*
X306680637Y-167308983D01*
X306695514Y-167339485D01*
X306801844Y-167557492D01*
X306804299Y-167561131D01*
X306804302Y-167561137D01*
X306855206Y-167636605D01*
X306958919Y-167790366D01*
X307146875Y-167999112D01*
X307362054Y-168179669D01*
X307373339Y-168186721D01*
X307378409Y-168189889D01*
X307425578Y-168242952D01*
X307436572Y-168313092D01*
X307407899Y-168378041D01*
X307398609Y-168387912D01*
X307304098Y-168478071D01*
X307166389Y-168663159D01*
X307163974Y-168667909D01*
X307109287Y-168775471D01*
X307061833Y-168868805D01*
X307033273Y-168960782D01*
X306995005Y-169084023D01*
X306995004Y-169084029D01*
X306993421Y-169089126D01*
X306984379Y-169157349D01*
X306965190Y-169302132D01*
X306963110Y-169317825D01*
X306971764Y-169548361D01*
X307019138Y-169774143D01*
X307021096Y-169779102D01*
X307021097Y-169779104D01*
X307028577Y-169798045D01*
X307103877Y-169988715D01*
X307223557Y-170185942D01*
X307227054Y-170189972D01*
X307340869Y-170321132D01*
X307374757Y-170360185D01*
X307378888Y-170363572D01*
X307549025Y-170503077D01*
X307549031Y-170503081D01*
X307553153Y-170506461D01*
X307753645Y-170620587D01*
X307758661Y-170622408D01*
X307758666Y-170622410D01*
X307965485Y-170697482D01*
X307965489Y-170697483D01*
X307970500Y-170699302D01*
X307975749Y-170700251D01*
X307975752Y-170700252D01*
X308193433Y-170739615D01*
X308193440Y-170739616D01*
X308197517Y-170740353D01*
X308215254Y-170741189D01*
X308220202Y-170741423D01*
X308220209Y-170741423D01*
X308221690Y-170741493D01*
X308383835Y-170741493D01*
X308450791Y-170735812D01*
X308550472Y-170727354D01*
X308550476Y-170727353D01*
X308555783Y-170726903D01*
X308560938Y-170725565D01*
X308560944Y-170725564D01*
X308773913Y-170670288D01*
X308773917Y-170670287D01*
X308779082Y-170668946D01*
X308783948Y-170666754D01*
X308783951Y-170666753D01*
X308984559Y-170576386D01*
X308989425Y-170574194D01*
X308993845Y-170571218D01*
X308993849Y-170571216D01*
X309105216Y-170496238D01*
X309180795Y-170445355D01*
X309347722Y-170286115D01*
X309422253Y-170185942D01*
X309482247Y-170105307D01*
X309482249Y-170105304D01*
X309485431Y-170101027D01*
X309540215Y-169993276D01*
X309587568Y-169900139D01*
X309587568Y-169900138D01*
X309589987Y-169895381D01*
X309645297Y-169717255D01*
X309656815Y-169680163D01*
X309656816Y-169680157D01*
X309658399Y-169675060D01*
X309682649Y-169492095D01*
X309688010Y-169451646D01*
X309688010Y-169451641D01*
X309688710Y-169446361D01*
X309687001Y-169400821D01*
X309681694Y-169259470D01*
X309680056Y-169215825D01*
X309632682Y-168990043D01*
X309547943Y-168775471D01*
X309428263Y-168578244D01*
X309410581Y-168557867D01*
X309400132Y-168545825D01*
X309370594Y-168481265D01*
X309380649Y-168410984D01*
X309427104Y-168357296D01*
X309436146Y-168351995D01*
X309608554Y-168260324D01*
X309608560Y-168260320D01*
X309612446Y-168258254D01*
X309633508Y-168242952D01*
X309745339Y-168161702D01*
X309812207Y-168137843D01*
X309881359Y-168153924D01*
X309930839Y-168204838D01*
X309945400Y-168263638D01*
X309945400Y-170674606D01*
X309925398Y-170742727D01*
X309908495Y-170763701D01*
X304989495Y-175682700D01*
X304927183Y-175716726D01*
X304856368Y-175711661D01*
X304799532Y-175669114D01*
X304774721Y-175602594D01*
X304774400Y-175593605D01*
X304774400Y-175172367D01*
X304774927Y-175161184D01*
X304776602Y-175153691D01*
X304776315Y-175144540D01*
X304774462Y-175085601D01*
X304774400Y-175081643D01*
X304774400Y-175053744D01*
X304773896Y-175049753D01*
X304772963Y-175037911D01*
X304772952Y-175037535D01*
X304771574Y-174993711D01*
X304769362Y-174986097D01*
X304769361Y-174986092D01*
X304765923Y-174974259D01*
X304761912Y-174954895D01*
X304760367Y-174942664D01*
X304759374Y-174934803D01*
X304756457Y-174927436D01*
X304756456Y-174927431D01*
X304743098Y-174893692D01*
X304739254Y-174882465D01*
X304729130Y-174847622D01*
X304726918Y-174840007D01*
X304716607Y-174822572D01*
X304707912Y-174804824D01*
X304700452Y-174785983D01*
X304700470Y-174785975D01*
X304685900Y-174729225D01*
X304685900Y-174552249D01*
X304686344Y-174543466D01*
X304687770Y-174537290D01*
X304687503Y-174526402D01*
X304689017Y-174503600D01*
X304689478Y-174500689D01*
X304690719Y-174492857D01*
X304686459Y-174447788D01*
X304686102Y-174440220D01*
X304685900Y-174437012D01*
X304685900Y-174433044D01*
X304685402Y-174429106D01*
X304685154Y-174425163D01*
X304685286Y-174425155D01*
X304684896Y-174419955D01*
X304684045Y-174385204D01*
X304683851Y-174377279D01*
X304680885Y-174366800D01*
X304676681Y-174344342D01*
X304675657Y-174333508D01*
X304672973Y-174326053D01*
X304672270Y-174322908D01*
X304671789Y-174321345D01*
X304670874Y-174314103D01*
X304656017Y-174276580D01*
X304651939Y-174264533D01*
X304640260Y-174223269D01*
X304634781Y-174213857D01*
X304625127Y-174193154D01*
X304624124Y-174190368D01*
X304624123Y-174190366D01*
X304621439Y-174182911D01*
X304616986Y-174176357D01*
X304615566Y-174173571D01*
X304614628Y-174172039D01*
X304611952Y-174165283D01*
X304607293Y-174158870D01*
X304588308Y-174132738D01*
X304581351Y-174122068D01*
X304578946Y-174117937D01*
X304559738Y-174084939D01*
X304552089Y-174077184D01*
X304537594Y-174059538D01*
X304531472Y-174050530D01*
X304525527Y-174045289D01*
X304523478Y-174042965D01*
X304522141Y-174041669D01*
X304517872Y-174035793D01*
X304511763Y-174030739D01*
X304486911Y-174010180D01*
X304477521Y-174001577D01*
X304447346Y-173970980D01*
X304440553Y-173966899D01*
X304434319Y-173961994D01*
X304436277Y-173959506D01*
X304398129Y-173918071D01*
X304385913Y-173848133D01*
X304403111Y-173797405D01*
X304665856Y-173360123D01*
X304667607Y-173357209D01*
X304693843Y-173300429D01*
X304720261Y-173157187D01*
X304714426Y-173100237D01*
X304713545Y-173091634D01*
X304726500Y-173021829D01*
X304775138Y-172970110D01*
X304791382Y-172962091D01*
X304848120Y-172938994D01*
X304918755Y-172931836D01*
X304982047Y-172964002D01*
X305015460Y-173016758D01*
X305020073Y-173030956D01*
X305115560Y-173196344D01*
X305119978Y-173201251D01*
X305119979Y-173201252D01*
X305203479Y-173293988D01*
X305243347Y-173338266D01*
X305397848Y-173450518D01*
X305403876Y-173453202D01*
X305403878Y-173453203D01*
X305560855Y-173523093D01*
X305572312Y-173528194D01*
X305665712Y-173548047D01*
X305752656Y-173566528D01*
X305752661Y-173566528D01*
X305759113Y-173567900D01*
X305950087Y-173567900D01*
X305956539Y-173566528D01*
X305956544Y-173566528D01*
X306043488Y-173548047D01*
X306136888Y-173528194D01*
X306148345Y-173523093D01*
X306305322Y-173453203D01*
X306305324Y-173453202D01*
X306311352Y-173450518D01*
X306465853Y-173338266D01*
X306505721Y-173293988D01*
X306589221Y-173201252D01*
X306589222Y-173201251D01*
X306593640Y-173196344D01*
X306689127Y-173030956D01*
X306748142Y-172849328D01*
X306749429Y-172837088D01*
X306767414Y-172665965D01*
X306768104Y-172659400D01*
X306765387Y-172633545D01*
X306748832Y-172476035D01*
X306748832Y-172476033D01*
X306748142Y-172469472D01*
X306689127Y-172287844D01*
X306593640Y-172122456D01*
X306476644Y-171992518D01*
X306470275Y-171985445D01*
X306470274Y-171985444D01*
X306465853Y-171980534D01*
X306323804Y-171877329D01*
X306316694Y-171872163D01*
X306316693Y-171872162D01*
X306311352Y-171868282D01*
X306305324Y-171865598D01*
X306305322Y-171865597D01*
X306142919Y-171793291D01*
X306142918Y-171793291D01*
X306136888Y-171790606D01*
X306043487Y-171770753D01*
X305956544Y-171752272D01*
X305956539Y-171752272D01*
X305950087Y-171750900D01*
X305855479Y-171750900D01*
X305787358Y-171730898D01*
X305740865Y-171677242D01*
X305730761Y-171606968D01*
X305747476Y-171560005D01*
X305993830Y-171150004D01*
X306020065Y-171093224D01*
X306046484Y-170949982D01*
X306031638Y-170805083D01*
X305976720Y-170670176D01*
X305955774Y-170643795D01*
X305891057Y-170562288D01*
X305886146Y-170556103D01*
X305870482Y-170544213D01*
X305839047Y-170520353D01*
X305839046Y-170520352D01*
X305836325Y-170518287D01*
X304130334Y-169493224D01*
X304082245Y-169440994D01*
X304070028Y-169371057D01*
X304097561Y-169305616D01*
X304156103Y-169265450D01*
X304187318Y-169259470D01*
X304285754Y-169253277D01*
X304595052Y-169194275D01*
X304894516Y-169096973D01*
X304898102Y-169095286D01*
X304898106Y-169095284D01*
X305175838Y-168964594D01*
X305175845Y-168964590D01*
X305179424Y-168962906D01*
X305445282Y-168794187D01*
X305687898Y-168593478D01*
X305903445Y-168363944D01*
X305912127Y-168351995D01*
X306056033Y-168153924D01*
X306088524Y-168109204D01*
X306090955Y-168104783D01*
X306238313Y-167836739D01*
X306238314Y-167836736D01*
X306240216Y-167833277D01*
X306356130Y-167540513D01*
X306424437Y-167274475D01*
X306460751Y-167213470D01*
X306524283Y-167181781D01*
X306594862Y-167189471D01*
G37*
%TD.AperFunction*%
%TA.AperFunction,NonConductor*%
G36*
X272718709Y-174259261D02*
G01*
X272775545Y-174301808D01*
X272799683Y-174361524D01*
X272837064Y-174657430D01*
X272915370Y-174962413D01*
X272916823Y-174966082D01*
X272916823Y-174966083D01*
X272933890Y-175009188D01*
X273031284Y-175255177D01*
X273033186Y-175258636D01*
X273033187Y-175258639D01*
X273106527Y-175392043D01*
X273182976Y-175531104D01*
X273204945Y-175561342D01*
X273228802Y-175628207D01*
X273212722Y-175697359D01*
X273161809Y-175746839D01*
X273092226Y-175760939D01*
X273055808Y-175752226D01*
X272270455Y-175434923D01*
X271854680Y-175266939D01*
X271799012Y-175222875D01*
X271776004Y-175155710D01*
X271792961Y-175086768D01*
X271812785Y-175061019D01*
X272585582Y-174288222D01*
X272647894Y-174254196D01*
X272718709Y-174259261D01*
G37*
%TD.AperFunction*%
%TA.AperFunction,NonConductor*%
G36*
X281961380Y-173296620D02*
G01*
X282521921Y-173523093D01*
X283187653Y-173792066D01*
X283247837Y-173809096D01*
X283255728Y-173809296D01*
X283255730Y-173809296D01*
X283364242Y-173812042D01*
X283393449Y-173812781D01*
X283415456Y-173806946D01*
X283525567Y-173777751D01*
X283525568Y-173777751D01*
X283534241Y-173775451D01*
X283658897Y-173700105D01*
X283664965Y-173693494D01*
X283664968Y-173693492D01*
X283732287Y-173620154D01*
X283757396Y-173592801D01*
X283774656Y-173560612D01*
X283824475Y-173510029D01*
X283893733Y-173494410D01*
X283960440Y-173518714D01*
X284003417Y-173575225D01*
X284011700Y-173620154D01*
X284011700Y-176531400D01*
X283991698Y-176599521D01*
X283938042Y-176646014D01*
X283885700Y-176657400D01*
X281428614Y-176657400D01*
X281360493Y-176637398D01*
X281314000Y-176583742D01*
X281303896Y-176513468D01*
X281308280Y-176494042D01*
X281342583Y-176383568D01*
X281364524Y-176218024D01*
X281372194Y-176160154D01*
X281372194Y-176160149D01*
X281372894Y-176154869D01*
X281364240Y-175924333D01*
X281316866Y-175698551D01*
X281232127Y-175483979D01*
X281125540Y-175308328D01*
X281115216Y-175291315D01*
X281115215Y-175291314D01*
X281112447Y-175286752D01*
X281081944Y-175251600D01*
X280964747Y-175116542D01*
X280964745Y-175116540D01*
X280961247Y-175112509D01*
X280941720Y-175096497D01*
X280901727Y-175037838D01*
X280899796Y-174966867D01*
X280936542Y-174906119D01*
X280947552Y-174897129D01*
X281074700Y-174804751D01*
X281074703Y-174804748D01*
X281078263Y-174802162D01*
X281094860Y-174786135D01*
X281201025Y-174683612D01*
X281280323Y-174607035D01*
X281453259Y-174385686D01*
X281455455Y-174381882D01*
X281455460Y-174381875D01*
X281591506Y-174146235D01*
X281593707Y-174142423D01*
X281698933Y-173881980D01*
X281716243Y-173812554D01*
X281765824Y-173613697D01*
X281765825Y-173613692D01*
X281766888Y-173609428D01*
X281767881Y-173599988D01*
X281781265Y-173472634D01*
X281788871Y-173400274D01*
X281815883Y-173334618D01*
X281874104Y-173293988D01*
X281945049Y-173291285D01*
X281961380Y-173296620D01*
G37*
%TD.AperFunction*%
%TA.AperFunction,NonConductor*%
G36*
X278010912Y-174228660D02*
G01*
X278037518Y-174260882D01*
X278038484Y-174262556D01*
X278040411Y-174266506D01*
X278042869Y-174270149D01*
X278042870Y-174270152D01*
X278078875Y-174323531D01*
X278197486Y-174499380D01*
X278200431Y-174502651D01*
X278200432Y-174502652D01*
X278267956Y-174577645D01*
X278385442Y-174708126D01*
X278388804Y-174710947D01*
X278388805Y-174710948D01*
X278410587Y-174729225D01*
X278600621Y-174888683D01*
X278838835Y-175037535D01*
X278842845Y-175039321D01*
X278842850Y-175039323D01*
X278890588Y-175060577D01*
X278944684Y-175106557D01*
X278965334Y-175174484D01*
X278945982Y-175242792D01*
X278940439Y-175250883D01*
X278850573Y-175371667D01*
X278848158Y-175376417D01*
X278756188Y-175557309D01*
X278746017Y-175577313D01*
X278739940Y-175596884D01*
X278679189Y-175792531D01*
X278679188Y-175792537D01*
X278677605Y-175797634D01*
X278665973Y-175885400D01*
X278654973Y-175968397D01*
X278647294Y-176026333D01*
X278655948Y-176256869D01*
X278703322Y-176482651D01*
X278705281Y-176487613D01*
X278706815Y-176492724D01*
X278705038Y-176493257D01*
X278710712Y-176555836D01*
X278677878Y-176618784D01*
X278616225Y-176653989D01*
X278587104Y-176657400D01*
X278223646Y-176657400D01*
X278155525Y-176637398D01*
X278109032Y-176583742D01*
X278103813Y-176570336D01*
X278059133Y-176432826D01*
X278045427Y-176390644D01*
X277949940Y-176225256D01*
X277865218Y-176131162D01*
X277826575Y-176088245D01*
X277826574Y-176088244D01*
X277822153Y-176083334D01*
X277667652Y-175971082D01*
X277661624Y-175968398D01*
X277661622Y-175968397D01*
X277499219Y-175896091D01*
X277499218Y-175896091D01*
X277493188Y-175893406D01*
X277388981Y-175871256D01*
X277326508Y-175837527D01*
X277292186Y-175775378D01*
X277296914Y-175704539D01*
X277313242Y-175673948D01*
X277346475Y-175628207D01*
X277417024Y-175531104D01*
X277493474Y-175392043D01*
X277566813Y-175258639D01*
X277566814Y-175258636D01*
X277568716Y-175255177D01*
X277666110Y-175009188D01*
X277683177Y-174966083D01*
X277683177Y-174966082D01*
X277684630Y-174962413D01*
X277762936Y-174657430D01*
X277802400Y-174345038D01*
X277802400Y-174323884D01*
X277822402Y-174255763D01*
X277876058Y-174209270D01*
X277946332Y-174199166D01*
X278010912Y-174228660D01*
G37*
%TD.AperFunction*%
%TA.AperFunction,NonConductor*%
G36*
X299426983Y-173266004D02*
G01*
X299436473Y-173274577D01*
X299499778Y-173337882D01*
X299533804Y-173400194D01*
X299535992Y-173413803D01*
X299553358Y-173579028D01*
X299612373Y-173760656D01*
X299707860Y-173926044D01*
X299712278Y-173930951D01*
X299712279Y-173930952D01*
X299825845Y-174057080D01*
X299835647Y-174067966D01*
X299990148Y-174180218D01*
X299996174Y-174182901D01*
X299996181Y-174182905D01*
X300122806Y-174239281D01*
X300176902Y-174285261D01*
X300197552Y-174353188D01*
X300179561Y-174419282D01*
X299852617Y-174963408D01*
X299851186Y-174966506D01*
X299851184Y-174966509D01*
X299850027Y-174969014D01*
X299826382Y-175020188D01*
X299799963Y-175163430D01*
X299814809Y-175308328D01*
X299869727Y-175443236D01*
X299960301Y-175557309D01*
X300010122Y-175595125D01*
X300864090Y-176108241D01*
X300920870Y-176134477D01*
X301064112Y-176160895D01*
X301174958Y-176149538D01*
X301200082Y-176146964D01*
X301200083Y-176146964D01*
X301209011Y-176146049D01*
X301238480Y-176134053D01*
X301309114Y-176126896D01*
X301372405Y-176159063D01*
X301408901Y-176223054D01*
X301460584Y-176452391D01*
X301466467Y-176466879D01*
X301475610Y-176489396D01*
X301482706Y-176560037D01*
X301450484Y-176623301D01*
X301389174Y-176659101D01*
X301358867Y-176662800D01*
X300749995Y-176662800D01*
X300681874Y-176642798D01*
X300660900Y-176625895D01*
X299337822Y-175302817D01*
X299303796Y-175240505D01*
X299301607Y-175226892D01*
X299284932Y-175068235D01*
X299284932Y-175068233D01*
X299284242Y-175061672D01*
X299225227Y-174880044D01*
X299129740Y-174714656D01*
X299124059Y-174708346D01*
X299006375Y-174577645D01*
X299006372Y-174577642D01*
X299001953Y-174572734D01*
X298847452Y-174460482D01*
X298841426Y-174457799D01*
X298841419Y-174457795D01*
X298736062Y-174410888D01*
X298681966Y-174364908D01*
X298661316Y-174296981D01*
X298679307Y-174230886D01*
X299239375Y-173298777D01*
X299291605Y-173250688D01*
X299361542Y-173238471D01*
X299426983Y-173266004D01*
G37*
%TD.AperFunction*%
%TA.AperFunction,NonConductor*%
G36*
X292855399Y-176197302D02*
G01*
X292901892Y-176250958D01*
X292911996Y-176321232D01*
X292896397Y-176366300D01*
X292815352Y-176506674D01*
X292710126Y-176767117D01*
X292709061Y-176771389D01*
X292693062Y-176835557D01*
X292657174Y-176896815D01*
X292593865Y-176928946D01*
X292553269Y-176929848D01*
X292473155Y-176918589D01*
X292368637Y-176903900D01*
X292158043Y-176903900D01*
X292155857Y-176904053D01*
X292155853Y-176904053D01*
X291952362Y-176918282D01*
X291952357Y-176918283D01*
X291947977Y-176918589D01*
X291943683Y-176919502D01*
X291943681Y-176919502D01*
X291822371Y-176945287D01*
X291751580Y-176939885D01*
X291694947Y-176897068D01*
X291670925Y-176831711D01*
X291670967Y-176831481D01*
X291664541Y-176768764D01*
X291657036Y-176695511D01*
X291657036Y-176695510D01*
X291656121Y-176686582D01*
X291601203Y-176551674D01*
X291510629Y-176437602D01*
X291465916Y-176403663D01*
X291423749Y-176346545D01*
X291419156Y-176275697D01*
X291453595Y-176213613D01*
X291516133Y-176180004D01*
X291542095Y-176177300D01*
X292787278Y-176177300D01*
X292855399Y-176197302D01*
G37*
%TD.AperFunction*%
%TA.AperFunction,NonConductor*%
G36*
X276273743Y-176579839D02*
G01*
X276305069Y-176643551D01*
X276306224Y-176678207D01*
X276297396Y-176762200D01*
X276308375Y-176866656D01*
X276295603Y-176936492D01*
X276247101Y-176988339D01*
X276178268Y-177005734D01*
X276135865Y-176996650D01*
X276033255Y-176955193D01*
X275825026Y-176871063D01*
X275769358Y-176826999D01*
X275746350Y-176759834D01*
X275763307Y-176690892D01*
X275814845Y-176642062D01*
X275848616Y-176630470D01*
X275909875Y-176618784D01*
X275923552Y-176616175D01*
X276096327Y-176560037D01*
X276141978Y-176545204D01*
X276212945Y-176543176D01*
X276273743Y-176579839D01*
G37*
%TD.AperFunction*%
%TA.AperFunction,NonConductor*%
G36*
X269168137Y-171920433D02*
G01*
X269224973Y-171962980D01*
X269249784Y-172029500D01*
X269249013Y-172055040D01*
X269227106Y-172220331D01*
X269227306Y-172225661D01*
X269227306Y-172225662D01*
X269229640Y-172287844D01*
X269235760Y-172450867D01*
X269283134Y-172676649D01*
X269285092Y-172681608D01*
X269285093Y-172681610D01*
X269288261Y-172689632D01*
X269367873Y-172891221D01*
X269487553Y-173088448D01*
X269491050Y-173092478D01*
X269609057Y-173228469D01*
X269638753Y-173262691D01*
X269642884Y-173266078D01*
X269813021Y-173405583D01*
X269813027Y-173405587D01*
X269817149Y-173408967D01*
X270017641Y-173523093D01*
X270022657Y-173524914D01*
X270022662Y-173524916D01*
X270229481Y-173599988D01*
X270229485Y-173599989D01*
X270234496Y-173601808D01*
X270239745Y-173602757D01*
X270239748Y-173602758D01*
X270457429Y-173642121D01*
X270457436Y-173642122D01*
X270461513Y-173642859D01*
X270479250Y-173643695D01*
X270484198Y-173643929D01*
X270484205Y-173643929D01*
X270485686Y-173643999D01*
X270647831Y-173643999D01*
X270714787Y-173638318D01*
X270814468Y-173629860D01*
X270814472Y-173629859D01*
X270819779Y-173629409D01*
X270824934Y-173628071D01*
X270824940Y-173628070D01*
X271037909Y-173572794D01*
X271037913Y-173572793D01*
X271043078Y-173571452D01*
X271047944Y-173569260D01*
X271047947Y-173569259D01*
X271214106Y-173494410D01*
X271253421Y-173476700D01*
X271257850Y-173473718D01*
X271259798Y-173472634D01*
X271329048Y-173456984D01*
X271395767Y-173481257D01*
X271438771Y-173537747D01*
X271444407Y-173608520D01*
X271410169Y-173671826D01*
X268190947Y-176891048D01*
X268182661Y-176898588D01*
X268176182Y-176902700D01*
X268170757Y-176908477D01*
X268129557Y-176952351D01*
X268126802Y-176955193D01*
X268107065Y-176974930D01*
X268104585Y-176978127D01*
X268096882Y-176987147D01*
X268066614Y-177019379D01*
X268062795Y-177026325D01*
X268062793Y-177026328D01*
X268056852Y-177037134D01*
X268046001Y-177053653D01*
X268033586Y-177069659D01*
X268030441Y-177076928D01*
X268030438Y-177076932D01*
X268016026Y-177110237D01*
X268010809Y-177120887D01*
X267989505Y-177159640D01*
X267987534Y-177167315D01*
X267987534Y-177167316D01*
X267984467Y-177179262D01*
X267978063Y-177197966D01*
X267970019Y-177216555D01*
X267968780Y-177224380D01*
X267968779Y-177224382D01*
X267965049Y-177247932D01*
X267934636Y-177312085D01*
X267874367Y-177349611D01*
X267803378Y-177348596D01*
X267744206Y-177309363D01*
X267715639Y-177244367D01*
X267714600Y-177228220D01*
X267714600Y-173321994D01*
X267734602Y-173253873D01*
X267751505Y-173232899D01*
X269035010Y-171949394D01*
X269097322Y-171915368D01*
X269168137Y-171920433D01*
G37*
%TD.AperFunction*%
%TA.AperFunction,NonConductor*%
G36*
X274643937Y-176605611D02*
G01*
X274676448Y-176616175D01*
X274985746Y-176675177D01*
X275079300Y-176681063D01*
X275219358Y-176689875D01*
X275219374Y-176689876D01*
X275221353Y-176690000D01*
X275246232Y-176690000D01*
X275314353Y-176710002D01*
X275360846Y-176763658D01*
X275370950Y-176833932D01*
X275341456Y-176898512D01*
X275311412Y-176923831D01*
X275289524Y-176937061D01*
X275283456Y-176943672D01*
X275283453Y-176943674D01*
X275216027Y-177017128D01*
X275191025Y-177044365D01*
X275187289Y-177051333D01*
X275167743Y-177087787D01*
X275161468Y-177099489D01*
X275160191Y-177102651D01*
X275160190Y-177102652D01*
X275154923Y-177115689D01*
X275074530Y-177314670D01*
X275072075Y-177320746D01*
X275028011Y-177376414D01*
X274960846Y-177399422D01*
X274908052Y-177390372D01*
X274898579Y-177386545D01*
X274898576Y-177386544D01*
X274895408Y-177385264D01*
X274892131Y-177384337D01*
X274892123Y-177384334D01*
X274842822Y-177370384D01*
X274842820Y-177370384D01*
X274835223Y-177368234D01*
X274827330Y-177368034D01*
X274827329Y-177368034D01*
X274698584Y-177364775D01*
X274698583Y-177364775D01*
X274689612Y-177364548D01*
X274552751Y-177400837D01*
X274552749Y-177400837D01*
X274548820Y-177401879D01*
X274548670Y-177401312D01*
X274484681Y-177408753D01*
X274420921Y-177377526D01*
X274384165Y-177316785D01*
X274386083Y-177245814D01*
X274396855Y-177221570D01*
X274410027Y-177198756D01*
X274469042Y-177017128D01*
X274477161Y-176939885D01*
X274488314Y-176833765D01*
X274489004Y-176827200D01*
X274479693Y-176738614D01*
X274492465Y-176668778D01*
X274540967Y-176616931D01*
X274609799Y-176599536D01*
X274643937Y-176605611D01*
G37*
%TD.AperFunction*%
%TA.AperFunction,NonConductor*%
G36*
X292116427Y-169297002D02*
G01*
X292137401Y-169313905D01*
X294287900Y-171464405D01*
X294321926Y-171526717D01*
X294316861Y-171597533D01*
X294274314Y-171654368D01*
X294207794Y-171679179D01*
X294198805Y-171679500D01*
X293519400Y-171679500D01*
X293451279Y-171659498D01*
X293432053Y-171643157D01*
X293431780Y-171643460D01*
X293426868Y-171639037D01*
X293422453Y-171634134D01*
X293267952Y-171521882D01*
X293261924Y-171519198D01*
X293261922Y-171519197D01*
X293099519Y-171446891D01*
X293099518Y-171446891D01*
X293093488Y-171444206D01*
X293000088Y-171424353D01*
X292913144Y-171405872D01*
X292913139Y-171405872D01*
X292906687Y-171404500D01*
X292715713Y-171404500D01*
X292709261Y-171405872D01*
X292709256Y-171405872D01*
X292622312Y-171424353D01*
X292528912Y-171444206D01*
X292522882Y-171446891D01*
X292522881Y-171446891D01*
X292360478Y-171519197D01*
X292360476Y-171519198D01*
X292354448Y-171521882D01*
X292199947Y-171634134D01*
X292195526Y-171639044D01*
X292195525Y-171639045D01*
X292088165Y-171758281D01*
X292072160Y-171776056D01*
X291976673Y-171941444D01*
X291917658Y-172123072D01*
X291916968Y-172129633D01*
X291916968Y-172129635D01*
X291910943Y-172186957D01*
X291897696Y-172313000D01*
X291898386Y-172319565D01*
X291915099Y-172478577D01*
X291917658Y-172502928D01*
X291976673Y-172684556D01*
X292072160Y-172849944D01*
X292076578Y-172854851D01*
X292076579Y-172854852D01*
X292173137Y-172962091D01*
X292199947Y-172991866D01*
X292354448Y-173104118D01*
X292360476Y-173106802D01*
X292360478Y-173106803D01*
X292522881Y-173179109D01*
X292528912Y-173181794D01*
X292620454Y-173201252D01*
X292709256Y-173220128D01*
X292709261Y-173220128D01*
X292715713Y-173221500D01*
X292906687Y-173221500D01*
X292913139Y-173220128D01*
X292913144Y-173220128D01*
X293001946Y-173201252D01*
X293093488Y-173181794D01*
X293099519Y-173179109D01*
X293261922Y-173106803D01*
X293261924Y-173106802D01*
X293267952Y-173104118D01*
X293360774Y-173036679D01*
X293406395Y-173003533D01*
X293422453Y-172991866D01*
X293426868Y-172986963D01*
X293431780Y-172982540D01*
X293432905Y-172983789D01*
X293486214Y-172950949D01*
X293519400Y-172946500D01*
X294112106Y-172946500D01*
X294180227Y-172966502D01*
X294201201Y-172983405D01*
X295913001Y-174695205D01*
X295947027Y-174757517D01*
X295941962Y-174828332D01*
X295899415Y-174885168D01*
X295832895Y-174909979D01*
X295823906Y-174910300D01*
X290568848Y-174910300D01*
X290540509Y-174907072D01*
X290509934Y-174900014D01*
X290509929Y-174900014D01*
X290502207Y-174898231D01*
X290491309Y-174898498D01*
X290468517Y-174896984D01*
X290457757Y-174895280D01*
X290404469Y-174900318D01*
X290395706Y-174900838D01*
X290362872Y-174901641D01*
X290350120Y-174901953D01*
X290350119Y-174901953D01*
X290342195Y-174902147D01*
X290334571Y-174904305D01*
X290334568Y-174904305D01*
X290331707Y-174905115D01*
X290309259Y-174909317D01*
X290306297Y-174909597D01*
X290306296Y-174909597D01*
X290298408Y-174910343D01*
X290290955Y-174913026D01*
X290290952Y-174913027D01*
X290262913Y-174923122D01*
X290248038Y-174928478D01*
X290239677Y-174931161D01*
X290218793Y-174937072D01*
X290195813Y-174943575D01*
X290195811Y-174943576D01*
X290188185Y-174945734D01*
X290181340Y-174949718D01*
X290181338Y-174949719D01*
X290180063Y-174950462D01*
X290178766Y-174951216D01*
X290158063Y-174960870D01*
X290147811Y-174964561D01*
X290103539Y-174994648D01*
X290096117Y-174999321D01*
X290056704Y-175022262D01*
X290056700Y-175022265D01*
X290049852Y-175026251D01*
X290042094Y-175033902D01*
X290024439Y-175048405D01*
X290015429Y-175054528D01*
X290010186Y-175060475D01*
X289980034Y-175094675D01*
X289973998Y-175101058D01*
X289935890Y-175138641D01*
X289931811Y-175145431D01*
X289931805Y-175145438D01*
X289930275Y-175147985D01*
X289916789Y-175166413D01*
X289909580Y-175174590D01*
X289905982Y-175181651D01*
X289905979Y-175181656D01*
X289885282Y-175222278D01*
X289881020Y-175229967D01*
X289848536Y-175284034D01*
X289796308Y-175332125D01*
X289726371Y-175344345D01*
X289675636Y-175327146D01*
X289195427Y-175038608D01*
X289192513Y-175036857D01*
X289169560Y-175026251D01*
X289142905Y-175013934D01*
X289142901Y-175013933D01*
X289135734Y-175010621D01*
X288992492Y-174984202D01*
X288847593Y-174999049D01*
X288839278Y-175002434D01*
X288839277Y-175002434D01*
X288737543Y-175043847D01*
X288712685Y-175053966D01*
X288598613Y-175144540D01*
X288593838Y-175150831D01*
X288593837Y-175150832D01*
X288562851Y-175191655D01*
X288562845Y-175191663D01*
X288560797Y-175194362D01*
X287223620Y-177419798D01*
X287222196Y-177422880D01*
X287200697Y-177469406D01*
X287200696Y-177469410D01*
X287197384Y-177476577D01*
X287170965Y-177619819D01*
X287185811Y-177764718D01*
X287211508Y-177827844D01*
X287211989Y-177829025D01*
X287219147Y-177899659D01*
X287186981Y-177962951D01*
X287125703Y-177998805D01*
X287054768Y-177995838D01*
X287042877Y-177990374D01*
X287042742Y-177990686D01*
X287002163Y-177973126D01*
X286991513Y-177967909D01*
X286952760Y-177946605D01*
X286933137Y-177941567D01*
X286914434Y-177935163D01*
X286903120Y-177930267D01*
X286903119Y-177930267D01*
X286895845Y-177927119D01*
X286888022Y-177925880D01*
X286888012Y-177925877D01*
X286852176Y-177920201D01*
X286840556Y-177917795D01*
X286805411Y-177908772D01*
X286805410Y-177908772D01*
X286797730Y-177906800D01*
X286777476Y-177906800D01*
X286757765Y-177905249D01*
X286745586Y-177903320D01*
X286737757Y-177902080D01*
X286729865Y-177902826D01*
X286693739Y-177906241D01*
X286681881Y-177906800D01*
X285882293Y-177906800D01*
X285814172Y-177886798D01*
X285767679Y-177833142D01*
X285757575Y-177762868D01*
X285773174Y-177717800D01*
X285801823Y-177668179D01*
X285801824Y-177668178D01*
X285805127Y-177662456D01*
X285864142Y-177480828D01*
X285865343Y-177469406D01*
X285883414Y-177297465D01*
X285884104Y-177290900D01*
X285875982Y-177213621D01*
X285864832Y-177107535D01*
X285864832Y-177107533D01*
X285864142Y-177100972D01*
X285805127Y-176919344D01*
X285796211Y-176903900D01*
X285752430Y-176828070D01*
X285709640Y-176753956D01*
X285641490Y-176678267D01*
X285586275Y-176616945D01*
X285586274Y-176616944D01*
X285581853Y-176612034D01*
X285470870Y-176531400D01*
X285432694Y-176503663D01*
X285432693Y-176503662D01*
X285427352Y-176499782D01*
X285421324Y-176497098D01*
X285421322Y-176497097D01*
X285353451Y-176466879D01*
X285299355Y-176420899D01*
X285278700Y-176351772D01*
X285278700Y-170966367D01*
X285279227Y-170955184D01*
X285280902Y-170947691D01*
X285278762Y-170879600D01*
X285278700Y-170875643D01*
X285278700Y-170847744D01*
X285278196Y-170843753D01*
X285277263Y-170831911D01*
X285276701Y-170814010D01*
X285275874Y-170787711D01*
X285273662Y-170780097D01*
X285273661Y-170780092D01*
X285270223Y-170768259D01*
X285266212Y-170748895D01*
X285264667Y-170736664D01*
X285263674Y-170728803D01*
X285260757Y-170721436D01*
X285260756Y-170721431D01*
X285247398Y-170687692D01*
X285243554Y-170676465D01*
X285239685Y-170663148D01*
X285231218Y-170634007D01*
X285226897Y-170626700D01*
X285220907Y-170616572D01*
X285212212Y-170598824D01*
X285204752Y-170579983D01*
X285187403Y-170556103D01*
X285178764Y-170544213D01*
X285172248Y-170534293D01*
X285153780Y-170503065D01*
X285153778Y-170503062D01*
X285149742Y-170496238D01*
X285135421Y-170481917D01*
X285122580Y-170466883D01*
X285115331Y-170456906D01*
X285110672Y-170450493D01*
X285076595Y-170422302D01*
X285067826Y-170414322D01*
X284145598Y-169492093D01*
X284111574Y-169429783D01*
X284116639Y-169358967D01*
X284159186Y-169302132D01*
X284225706Y-169277321D01*
X284234695Y-169277000D01*
X292048306Y-169277000D01*
X292116427Y-169297002D01*
G37*
%TD.AperFunction*%
%TA.AperFunction,NonConductor*%
G36*
X287618592Y-178194199D02*
G01*
X289091035Y-179078932D01*
X289139123Y-179131161D01*
X289151340Y-179201098D01*
X289123807Y-179266539D01*
X289096507Y-179291454D01*
X288976505Y-179372245D01*
X288972652Y-179375921D01*
X288972644Y-179375927D01*
X288968737Y-179379654D01*
X288905639Y-179412200D01*
X288834963Y-179405466D01*
X288779147Y-179361591D01*
X288772649Y-179351482D01*
X288757715Y-179325615D01*
X288728640Y-179275256D01*
X288708241Y-179252600D01*
X288605275Y-179138245D01*
X288605274Y-179138244D01*
X288600853Y-179133334D01*
X288446352Y-179021082D01*
X288440324Y-179018398D01*
X288440322Y-179018397D01*
X288277919Y-178946091D01*
X288277918Y-178946091D01*
X288271888Y-178943406D01*
X288178487Y-178923553D01*
X288091544Y-178905072D01*
X288091539Y-178905072D01*
X288085087Y-178903700D01*
X288029195Y-178903700D01*
X287961074Y-178883698D01*
X287940100Y-178866795D01*
X287464602Y-178391297D01*
X287430576Y-178328985D01*
X287435641Y-178258170D01*
X287478188Y-178201334D01*
X287544708Y-178176523D01*
X287618592Y-178194199D01*
G37*
%TD.AperFunction*%
%TA.AperFunction,NonConductor*%
G36*
X302135021Y-179395202D02*
G01*
X302181514Y-179448858D01*
X302192900Y-179501200D01*
X302192900Y-179662325D01*
X302172898Y-179730446D01*
X302119242Y-179776939D01*
X302048968Y-179787043D01*
X302002005Y-179770328D01*
X301733848Y-179609203D01*
X301685759Y-179556973D01*
X301673542Y-179487036D01*
X301701075Y-179421595D01*
X301759617Y-179381429D01*
X301798743Y-179375200D01*
X302066900Y-179375200D01*
X302135021Y-179395202D01*
G37*
%TD.AperFunction*%
%TA.AperFunction,NonConductor*%
G36*
X286471227Y-179193802D02*
G01*
X286492201Y-179210705D01*
X287042478Y-179760982D01*
X287076504Y-179823294D01*
X287078692Y-179836903D01*
X287096058Y-180002128D01*
X287155073Y-180183756D01*
X287158376Y-180189478D01*
X287158377Y-180189479D01*
X287182981Y-180232094D01*
X287250560Y-180349144D01*
X287251235Y-180349893D01*
X287274396Y-180414805D01*
X287258317Y-180483957D01*
X287207404Y-180533438D01*
X287148602Y-180548000D01*
X277140659Y-180548000D01*
X277072538Y-180527998D01*
X277026045Y-180474342D01*
X277016809Y-180429142D01*
X277015708Y-180429271D01*
X277014660Y-180420350D01*
X277014887Y-180411379D01*
X276997998Y-180347683D01*
X276999874Y-180276712D01*
X277039822Y-180218021D01*
X277054613Y-180207559D01*
X277072952Y-180196475D01*
X277084526Y-180189479D01*
X277103323Y-180178118D01*
X277103324Y-180178117D01*
X277111006Y-180173474D01*
X277117074Y-180166863D01*
X277117077Y-180166861D01*
X277204159Y-180071994D01*
X277209505Y-180066170D01*
X277239062Y-180011046D01*
X277246798Y-179991900D01*
X277545495Y-179252600D01*
X277589559Y-179196932D01*
X277662320Y-179173800D01*
X286403106Y-179173800D01*
X286471227Y-179193802D01*
G37*
%TD.AperFunction*%
%TA.AperFunction,NonConductor*%
G36*
X296686315Y-176559000D02*
G01*
X296726361Y-176585965D01*
X297323627Y-177183232D01*
X297920578Y-177780183D01*
X297954604Y-177842495D01*
X297956793Y-177856106D01*
X297961367Y-177899626D01*
X297970905Y-177990374D01*
X297974158Y-178021328D01*
X298009113Y-178128908D01*
X298011141Y-178199873D01*
X297974479Y-178260671D01*
X297948433Y-178279093D01*
X297912456Y-178298223D01*
X297908897Y-178300809D01*
X297908895Y-178300810D01*
X297870116Y-178328985D01*
X297685206Y-178463329D01*
X297483146Y-178658456D01*
X297310210Y-178879805D01*
X297308014Y-178883609D01*
X297308009Y-178883616D01*
X297226403Y-179024963D01*
X297169762Y-179123068D01*
X297064536Y-179383511D01*
X297063471Y-179387784D01*
X297063470Y-179387786D01*
X297004268Y-179625233D01*
X296996581Y-179656063D01*
X296996122Y-179660431D01*
X296996121Y-179660436D01*
X296973815Y-179872673D01*
X296967220Y-179935420D01*
X296967373Y-179939808D01*
X296967373Y-179939814D01*
X296976383Y-180197814D01*
X296977023Y-180216145D01*
X296977785Y-180220468D01*
X296977786Y-180220475D01*
X297000474Y-180349144D01*
X297025800Y-180492774D01*
X297112601Y-180759922D01*
X297114529Y-180763875D01*
X297114531Y-180763880D01*
X297169711Y-180877015D01*
X297235738Y-181012389D01*
X297323349Y-181142278D01*
X297382571Y-181230079D01*
X297404081Y-181297739D01*
X297385597Y-181366287D01*
X297365639Y-181391173D01*
X297266724Y-181486695D01*
X297266718Y-181486701D01*
X297263552Y-181489759D01*
X297168207Y-181611796D01*
X297110506Y-181653162D01*
X297039601Y-181656765D01*
X296979822Y-181623318D01*
X296364942Y-181008437D01*
X295678652Y-180322147D01*
X295671112Y-180313861D01*
X295667000Y-180307382D01*
X295617348Y-180260756D01*
X295614507Y-180258002D01*
X295594770Y-180238265D01*
X295591573Y-180235785D01*
X295582551Y-180228080D01*
X295576146Y-180222065D01*
X295550321Y-180197814D01*
X295543375Y-180193995D01*
X295543372Y-180193993D01*
X295532566Y-180188052D01*
X295516047Y-180177201D01*
X295511242Y-180173474D01*
X295500041Y-180164786D01*
X295492772Y-180161641D01*
X295492768Y-180161638D01*
X295459463Y-180147226D01*
X295448813Y-180142009D01*
X295410060Y-180120705D01*
X295390437Y-180115667D01*
X295371734Y-180109263D01*
X295360420Y-180104367D01*
X295360419Y-180104367D01*
X295353145Y-180101219D01*
X295345322Y-180099980D01*
X295345312Y-180099977D01*
X295309476Y-180094301D01*
X295297856Y-180091895D01*
X295262711Y-180082872D01*
X295262710Y-180082872D01*
X295255030Y-180080900D01*
X295234776Y-180080900D01*
X295215065Y-180079349D01*
X295202886Y-180077420D01*
X295195057Y-180076180D01*
X295187165Y-180076926D01*
X295151039Y-180080341D01*
X295139181Y-180080900D01*
X294091010Y-180080900D01*
X294022889Y-180060898D01*
X293976396Y-180007242D01*
X293966292Y-179936968D01*
X293981891Y-179891900D01*
X294021500Y-179823294D01*
X294037825Y-179795019D01*
X294143051Y-179534576D01*
X294160115Y-179466136D01*
X294196003Y-179404878D01*
X294259312Y-179372747D01*
X294299908Y-179371845D01*
X294368104Y-179381429D01*
X294484540Y-179397793D01*
X294695134Y-179397793D01*
X294697320Y-179397640D01*
X294697324Y-179397640D01*
X294900815Y-179383411D01*
X294900820Y-179383410D01*
X294905200Y-179383104D01*
X295179958Y-179324702D01*
X295184087Y-179323199D01*
X295184091Y-179323198D01*
X295439769Y-179230139D01*
X295439773Y-179230137D01*
X295443914Y-179228630D01*
X295691930Y-179096757D01*
X295747623Y-179056294D01*
X295915617Y-178934240D01*
X295915620Y-178934237D01*
X295919180Y-178931651D01*
X295946704Y-178905072D01*
X296118075Y-178739580D01*
X296121240Y-178736524D01*
X296294176Y-178515175D01*
X296296372Y-178511371D01*
X296296377Y-178511364D01*
X296432423Y-178275724D01*
X296434624Y-178271912D01*
X296539850Y-178011469D01*
X296540916Y-178007194D01*
X296606741Y-177743186D01*
X296606742Y-177743181D01*
X296607805Y-177738917D01*
X296610025Y-177717800D01*
X296636707Y-177463929D01*
X296636707Y-177463926D01*
X296637166Y-177459560D01*
X296637013Y-177455166D01*
X296627517Y-177183232D01*
X296627516Y-177183226D01*
X296627363Y-177178835D01*
X296623979Y-177159640D01*
X296595239Y-176996650D01*
X296578586Y-176902206D01*
X296530417Y-176753956D01*
X296517434Y-176713997D01*
X296515407Y-176643029D01*
X296552069Y-176582231D01*
X296615782Y-176550906D01*
X296686315Y-176559000D01*
G37*
%TD.AperFunction*%
%TA.AperFunction,NonConductor*%
G36*
X289159826Y-182806902D02*
G01*
X289180800Y-182823805D01*
X289409423Y-183052428D01*
X289443449Y-183114740D01*
X289438384Y-183185555D01*
X289398683Y-183240196D01*
X289393438Y-183244361D01*
X289327653Y-183271059D01*
X289257877Y-183257953D01*
X289225987Y-183234783D01*
X288993200Y-183001995D01*
X288959175Y-182939683D01*
X288964240Y-182868867D01*
X289006787Y-182812032D01*
X289073308Y-182787221D01*
X289082296Y-182786900D01*
X289091705Y-182786900D01*
X289159826Y-182806902D01*
G37*
%TD.AperFunction*%
%TA.AperFunction,NonConductor*%
G36*
X291715065Y-182265102D02*
G01*
X291761558Y-182318758D01*
X291771662Y-182389032D01*
X291768986Y-182402435D01*
X291756839Y-182449744D01*
X291722864Y-182582070D01*
X291683400Y-182894462D01*
X291683400Y-183209338D01*
X291683896Y-183213264D01*
X291683896Y-183213265D01*
X291684306Y-183216506D01*
X291673004Y-183286597D01*
X291625602Y-183339451D01*
X291557150Y-183358288D01*
X291489381Y-183337126D01*
X291470206Y-183321401D01*
X290609000Y-182460195D01*
X290574974Y-182397883D01*
X290580039Y-182327068D01*
X290622586Y-182270232D01*
X290689106Y-182245421D01*
X290698095Y-182245100D01*
X291646944Y-182245100D01*
X291715065Y-182265102D01*
G37*
%TD.AperFunction*%
%TA.AperFunction,NonConductor*%
G36*
X297478791Y-184384004D02*
G01*
X297572983Y-184463041D01*
X297572988Y-184463045D01*
X297576354Y-184465869D01*
X297587639Y-184472921D01*
X297592709Y-184476089D01*
X297639878Y-184529152D01*
X297650872Y-184599292D01*
X297622199Y-184664241D01*
X297612909Y-184674112D01*
X297584477Y-184701235D01*
X297518398Y-184764271D01*
X297498887Y-184790494D01*
X297442179Y-184833206D01*
X297371378Y-184838479D01*
X297308966Y-184804637D01*
X297274759Y-184742424D01*
X297271800Y-184715280D01*
X297271800Y-184480526D01*
X297291802Y-184412405D01*
X297345458Y-184365912D01*
X297415732Y-184355808D01*
X297478791Y-184384004D01*
G37*
%TD.AperFunction*%
%TA.AperFunction,NonConductor*%
G36*
X282233621Y-72516045D02*
G01*
X282280114Y-72569701D01*
X282291500Y-72622043D01*
X282291500Y-144178508D01*
X282290796Y-144191803D01*
X282286614Y-144231210D01*
X282288209Y-144240038D01*
X282288209Y-144240041D01*
X282297504Y-144291486D01*
X282298238Y-144296025D01*
X282305647Y-144347760D01*
X282305648Y-144347763D01*
X282306920Y-144356645D01*
X282310467Y-144364447D01*
X282310989Y-144366116D01*
X282312512Y-144374547D01*
X282316524Y-144382579D01*
X282339874Y-144429325D01*
X282341855Y-144433479D01*
X282367208Y-144489240D01*
X282372800Y-144495729D01*
X282373770Y-144497187D01*
X282377599Y-144504853D01*
X282383704Y-144511436D01*
X282383706Y-144511439D01*
X282419248Y-144549764D01*
X282422295Y-144553172D01*
X282462287Y-144599585D01*
X282469477Y-144604245D01*
X282470817Y-144605371D01*
X282476643Y-144611654D01*
X282484350Y-144616259D01*
X282529223Y-144643071D01*
X282533124Y-144645500D01*
X282584515Y-144678810D01*
X282626286Y-144691302D01*
X282637369Y-144695191D01*
X295226550Y-149783623D01*
X295427646Y-149864904D01*
X295445035Y-149873546D01*
X295465674Y-149885874D01*
X295480449Y-149889709D01*
X295504283Y-149898545D01*
X295658146Y-149974023D01*
X295673822Y-149983169D01*
X295836081Y-150094230D01*
X295850280Y-150105532D01*
X295994911Y-150238762D01*
X296007332Y-150251979D01*
X296127487Y-150399882D01*
X296131322Y-150404603D01*
X296141720Y-150419475D01*
X296222972Y-150555612D01*
X296242496Y-150588325D01*
X296250651Y-150604540D01*
X296326124Y-150786120D01*
X296331864Y-150803336D01*
X296335747Y-150818558D01*
X296378064Y-150984445D01*
X296380466Y-150993863D01*
X296383674Y-151011726D01*
X296404400Y-151207268D01*
X296405008Y-151225406D01*
X296397428Y-151421894D01*
X296395425Y-151439927D01*
X296390916Y-151464329D01*
X296366272Y-151597693D01*
X296363259Y-151609844D01*
X296359881Y-151616915D01*
X296358504Y-151625382D01*
X296358030Y-151626997D01*
X296354619Y-151634863D01*
X296353502Y-151643766D01*
X296353502Y-151643767D01*
X296346992Y-151695666D01*
X296346339Y-151700202D01*
X296337946Y-151751827D01*
X296336506Y-151760685D01*
X296337560Y-151769192D01*
X296337558Y-151770876D01*
X296336491Y-151779388D01*
X296346240Y-151839909D01*
X296346882Y-151844407D01*
X296354420Y-151905237D01*
X296357820Y-151913109D01*
X296358292Y-151914726D01*
X296359656Y-151923192D01*
X296386003Y-151978552D01*
X296387876Y-151982680D01*
X296412185Y-152038950D01*
X296417657Y-152045549D01*
X296418565Y-152046973D01*
X296422250Y-152054715D01*
X296463084Y-152100464D01*
X296466046Y-152103907D01*
X296505158Y-152151076D01*
X296512260Y-152155873D01*
X296513533Y-152156985D01*
X296519243Y-152163382D01*
X296526858Y-152168131D01*
X296526859Y-152168132D01*
X296537532Y-152174788D01*
X296571269Y-152195828D01*
X296575102Y-152198317D01*
X296597904Y-152213718D01*
X296602312Y-152215791D01*
X296606543Y-152218195D01*
X296606496Y-152218277D01*
X296612562Y-152221580D01*
X296642835Y-152240460D01*
X296651483Y-152242882D01*
X296651482Y-152242882D01*
X296662238Y-152245895D01*
X296681871Y-152253203D01*
X298628543Y-153168625D01*
X298640477Y-153175042D01*
X298673812Y-153195350D01*
X298711466Y-153205474D01*
X298733511Y-153211402D01*
X298737707Y-153212609D01*
X298788256Y-153228098D01*
X298788260Y-153228099D01*
X298796844Y-153230729D01*
X298805520Y-153230840D01*
X298806102Y-153230921D01*
X298814474Y-153233172D01*
X298853647Y-153232317D01*
X298876275Y-153231824D01*
X298880638Y-153231804D01*
X298933517Y-153232482D01*
X298942490Y-153232597D01*
X298950843Y-153230271D01*
X298951425Y-153230185D01*
X298960097Y-153229995D01*
X299019068Y-153211344D01*
X299023251Y-153210101D01*
X299082805Y-153193513D01*
X299090175Y-153188932D01*
X299090704Y-153188688D01*
X299098974Y-153186073D01*
X299138310Y-153159690D01*
X299150302Y-153151647D01*
X299153971Y-153149278D01*
X299198886Y-153121360D01*
X299198887Y-153121359D01*
X299206513Y-153116619D01*
X299212302Y-153110152D01*
X299212747Y-153109766D01*
X299219943Y-153104939D01*
X299225694Y-153098049D01*
X299225698Y-153098045D01*
X299259548Y-153057489D01*
X299262403Y-153054186D01*
X299297679Y-153014781D01*
X299297680Y-153014780D01*
X299303665Y-153008094D01*
X299322192Y-152969312D01*
X299327873Y-152958745D01*
X299383198Y-152866670D01*
X299394467Y-152850829D01*
X299404080Y-152839313D01*
X299404084Y-152839307D01*
X299409835Y-152832417D01*
X299415983Y-152818312D01*
X299428390Y-152796223D01*
X299525780Y-152657612D01*
X299537138Y-152643677D01*
X299670657Y-152501862D01*
X299683881Y-152489687D01*
X299836222Y-152368315D01*
X299851046Y-152358144D01*
X300019114Y-152259685D01*
X300035234Y-152251728D01*
X300042588Y-152248730D01*
X300215600Y-152178190D01*
X300232688Y-152172608D01*
X300421680Y-152125488D01*
X300439389Y-152122394D01*
X300633170Y-152102648D01*
X300651138Y-152102106D01*
X300748447Y-152106122D01*
X300845762Y-152110138D01*
X300863614Y-152112157D01*
X300983888Y-152134546D01*
X301055109Y-152147804D01*
X301072502Y-152152346D01*
X301256973Y-152214881D01*
X301273543Y-152221852D01*
X301418302Y-152295317D01*
X301433179Y-152305118D01*
X301440334Y-152309537D01*
X301447226Y-152315289D01*
X301465882Y-152323420D01*
X301476400Y-152328004D01*
X301490952Y-152335507D01*
X311979400Y-158637601D01*
X317870522Y-162177344D01*
X317886381Y-162188628D01*
X317897856Y-162198210D01*
X317897862Y-162198214D01*
X317904750Y-162203965D01*
X317912980Y-162207554D01*
X317918850Y-162210114D01*
X317940936Y-162222522D01*
X318006132Y-162268343D01*
X318079545Y-162319939D01*
X318093472Y-162331295D01*
X318136970Y-162372256D01*
X318235276Y-162464831D01*
X318247449Y-162478054D01*
X318368821Y-162630421D01*
X318378988Y-162645243D01*
X318477437Y-162813314D01*
X318485392Y-162829430D01*
X318490088Y-162840948D01*
X318542474Y-162969441D01*
X318558931Y-163009808D01*
X318564511Y-163026889D01*
X318602767Y-163180323D01*
X318611637Y-163215898D01*
X318614730Y-163233604D01*
X318634483Y-163427386D01*
X318635026Y-163445351D01*
X318627006Y-163639978D01*
X318624987Y-163657837D01*
X318589358Y-163849338D01*
X318584819Y-163866728D01*
X318552361Y-163962515D01*
X318523446Y-164047849D01*
X318522305Y-164051215D01*
X318515338Y-164067781D01*
X318443407Y-164209569D01*
X318441947Y-164212447D01*
X318431822Y-164227820D01*
X318427652Y-164234575D01*
X318421899Y-164241470D01*
X318418313Y-164249702D01*
X318409210Y-164270599D01*
X318401700Y-164285170D01*
X311778318Y-175308328D01*
X308554842Y-180673093D01*
X308554839Y-180673097D01*
X298765347Y-196965550D01*
X298758302Y-196976044D01*
X298733560Y-197009170D01*
X298730423Y-197017579D01*
X298730422Y-197017582D01*
X298728472Y-197022810D01*
X298716946Y-197046062D01*
X298627035Y-197188411D01*
X298615568Y-197203823D01*
X298488940Y-197349381D01*
X298475263Y-197362871D01*
X298327977Y-197487486D01*
X298312414Y-197498737D01*
X298147885Y-197599519D01*
X298130789Y-197608274D01*
X297952865Y-197682866D01*
X297934635Y-197688921D01*
X297747428Y-197735600D01*
X297728489Y-197738813D01*
X297597005Y-197750909D01*
X297536375Y-197756487D01*
X297517166Y-197756784D01*
X297452172Y-197752823D01*
X297324580Y-197745046D01*
X297305556Y-197742418D01*
X297211283Y-197721981D01*
X297117013Y-197701543D01*
X297098603Y-197696054D01*
X296918454Y-197626986D01*
X296901092Y-197618761D01*
X296761213Y-197538907D01*
X296747304Y-197528678D01*
X296747258Y-197528744D01*
X296739887Y-197523622D01*
X296733314Y-197517505D01*
X296689189Y-197495367D01*
X296680862Y-197490787D01*
X296652802Y-197473941D01*
X293456563Y-195555101D01*
X293451639Y-195551721D01*
X293451521Y-195551898D01*
X293447468Y-195549201D01*
X293443639Y-195546202D01*
X293439401Y-195543832D01*
X293439392Y-195543826D01*
X293417592Y-195531635D01*
X293414240Y-195529692D01*
X293395143Y-195518228D01*
X293395142Y-195518227D01*
X293391295Y-195515918D01*
X293387164Y-195514179D01*
X293383165Y-195512150D01*
X293383224Y-195512034D01*
X293377843Y-195509407D01*
X290203233Y-193734066D01*
X280220955Y-188151665D01*
X280220782Y-188151551D01*
X280220694Y-188151461D01*
X280220372Y-188151281D01*
X280220369Y-188151279D01*
X280101387Y-188084761D01*
X280101384Y-188084760D01*
X280093555Y-188080383D01*
X280084809Y-188078379D01*
X280078389Y-188075907D01*
X280068797Y-188072826D01*
X280061483Y-188069767D01*
X280053777Y-188065164D01*
X280022968Y-188057168D01*
X280007421Y-188052034D01*
X269865597Y-183954470D01*
X269846868Y-183945020D01*
X269833917Y-183937068D01*
X269833918Y-183937068D01*
X269829766Y-183934519D01*
X269825269Y-183932638D01*
X269822685Y-183931557D01*
X269822682Y-183931556D01*
X269818185Y-183929675D01*
X269799564Y-183925083D01*
X269787063Y-183921302D01*
X269778223Y-183918119D01*
X269650004Y-183871955D01*
X269565850Y-183841656D01*
X269565845Y-183841654D01*
X269563558Y-183840831D01*
X269369782Y-183787453D01*
X269306006Y-183769885D01*
X269306001Y-183769884D01*
X269303671Y-183769242D01*
X269249045Y-183758623D01*
X269041437Y-183718265D01*
X269041425Y-183718263D01*
X269039058Y-183717803D01*
X269036655Y-183717525D01*
X269036649Y-183717524D01*
X268773683Y-183687095D01*
X268773675Y-183687094D01*
X268771278Y-183686817D01*
X268545524Y-183678144D01*
X268529457Y-183676490D01*
X268519265Y-183674775D01*
X268519253Y-183674774D01*
X268514463Y-183673968D01*
X268508224Y-183673892D01*
X268506771Y-183673874D01*
X268506768Y-183673874D01*
X268501911Y-183673815D01*
X268487450Y-183675886D01*
X268474287Y-183677771D01*
X268456425Y-183679044D01*
X258761584Y-183679044D01*
X258742193Y-183677543D01*
X258727375Y-183675235D01*
X258718502Y-183673853D01*
X258702948Y-183675886D01*
X258677843Y-183676643D01*
X258637343Y-183673815D01*
X258513856Y-183665192D01*
X258496485Y-183662755D01*
X258310559Y-183623313D01*
X258293696Y-183618487D01*
X258115055Y-183553609D01*
X258099027Y-183546490D01*
X257931118Y-183457425D01*
X257916233Y-183448148D01*
X257849540Y-183399824D01*
X257762322Y-183336629D01*
X257748869Y-183325373D01*
X257611943Y-183193566D01*
X257600188Y-183180558D01*
X257482880Y-183030996D01*
X257473049Y-183016483D01*
X257442505Y-182963845D01*
X257425486Y-182900373D01*
X257425505Y-182890531D01*
X257443929Y-172987343D01*
X266442880Y-172987343D01*
X266443626Y-172995235D01*
X266447041Y-173031361D01*
X266447600Y-173043219D01*
X266447600Y-181193833D01*
X266447073Y-181205016D01*
X266445398Y-181212509D01*
X266445647Y-181220435D01*
X266445647Y-181220436D01*
X266447538Y-181280586D01*
X266447600Y-181284545D01*
X266447600Y-181312456D01*
X266448097Y-181316390D01*
X266448097Y-181316391D01*
X266448105Y-181316456D01*
X266449038Y-181328293D01*
X266450427Y-181372489D01*
X266455855Y-181391173D01*
X266456078Y-181391939D01*
X266460087Y-181411300D01*
X266462626Y-181431397D01*
X266465545Y-181438768D01*
X266465545Y-181438770D01*
X266478904Y-181472512D01*
X266482749Y-181483742D01*
X266495082Y-181526193D01*
X266499115Y-181533012D01*
X266499117Y-181533017D01*
X266505393Y-181543628D01*
X266514088Y-181561376D01*
X266521548Y-181580217D01*
X266526210Y-181586633D01*
X266526210Y-181586634D01*
X266547536Y-181615987D01*
X266554052Y-181625907D01*
X266572302Y-181656765D01*
X266576558Y-181663962D01*
X266590879Y-181678283D01*
X266603719Y-181693316D01*
X266615628Y-181709707D01*
X266621734Y-181714758D01*
X266649705Y-181737898D01*
X266658484Y-181745888D01*
X267830248Y-182917653D01*
X267837788Y-182925939D01*
X267841900Y-182932418D01*
X267847677Y-182937843D01*
X267891551Y-182979043D01*
X267894393Y-182981798D01*
X267914130Y-183001535D01*
X267917327Y-183004015D01*
X267926347Y-183011718D01*
X267958579Y-183041986D01*
X267965525Y-183045805D01*
X267965528Y-183045807D01*
X267976334Y-183051748D01*
X267992853Y-183062599D01*
X268008859Y-183075014D01*
X268016128Y-183078159D01*
X268016132Y-183078162D01*
X268049437Y-183092574D01*
X268060087Y-183097791D01*
X268098840Y-183119095D01*
X268106515Y-183121066D01*
X268106516Y-183121066D01*
X268118462Y-183124133D01*
X268137166Y-183130537D01*
X268146743Y-183134681D01*
X268155755Y-183138581D01*
X268163578Y-183139820D01*
X268163588Y-183139823D01*
X268199424Y-183145499D01*
X268211044Y-183147905D01*
X268242859Y-183156073D01*
X268253870Y-183158900D01*
X268274124Y-183158900D01*
X268293834Y-183160451D01*
X268313843Y-183163620D01*
X268321735Y-183162874D01*
X268340480Y-183161102D01*
X268357862Y-183159459D01*
X268369719Y-183158900D01*
X272232733Y-183158900D01*
X272243916Y-183159427D01*
X272251409Y-183161102D01*
X272259335Y-183160853D01*
X272259336Y-183160853D01*
X272319486Y-183158962D01*
X272323445Y-183158900D01*
X272351356Y-183158900D01*
X272355291Y-183158403D01*
X272355356Y-183158395D01*
X272367193Y-183157462D01*
X272398378Y-183156482D01*
X272467093Y-183174334D01*
X272515249Y-183226503D01*
X272524127Y-183250124D01*
X272530767Y-183275168D01*
X272535410Y-183282849D01*
X272535410Y-183282850D01*
X272581007Y-183358288D01*
X272606112Y-183399824D01*
X272612723Y-183405892D01*
X272612725Y-183405895D01*
X272707069Y-183492497D01*
X272713416Y-183498323D01*
X272768540Y-183527880D01*
X272992800Y-183618487D01*
X273689096Y-183899810D01*
X273689105Y-183899813D01*
X273692263Y-183901089D01*
X273695540Y-183902016D01*
X273695548Y-183902019D01*
X273744849Y-183915969D01*
X273744851Y-183915969D01*
X273752448Y-183918119D01*
X273760341Y-183918319D01*
X273760342Y-183918319D01*
X273889085Y-183921578D01*
X273889086Y-183921578D01*
X273898059Y-183921805D01*
X274038852Y-183884474D01*
X274065769Y-183868204D01*
X274134413Y-183850086D01*
X274201957Y-183871955D01*
X274246956Y-183926870D01*
X274249097Y-183932696D01*
X274249447Y-183934247D01*
X274339833Y-184156841D01*
X274465361Y-184361683D01*
X274622659Y-184543273D01*
X274807503Y-184696734D01*
X275014929Y-184817944D01*
X275019749Y-184819784D01*
X275019754Y-184819787D01*
X275168543Y-184876603D01*
X275239367Y-184903648D01*
X275244433Y-184904679D01*
X275244434Y-184904679D01*
X275300761Y-184916139D01*
X275474789Y-184951545D01*
X275609797Y-184956496D01*
X275709708Y-184960160D01*
X275709712Y-184960160D01*
X275714872Y-184960349D01*
X275719992Y-184959693D01*
X275719994Y-184959693D01*
X275800661Y-184949359D01*
X275953170Y-184929822D01*
X275958121Y-184928337D01*
X275958124Y-184928336D01*
X276178332Y-184862270D01*
X276178331Y-184862270D01*
X276183282Y-184860785D01*
X276399028Y-184755092D01*
X276417631Y-184741823D01*
X276590412Y-184618579D01*
X276594615Y-184615581D01*
X276663914Y-184546524D01*
X276742511Y-184468200D01*
X276764790Y-184445999D01*
X276904983Y-184250900D01*
X277011429Y-184035524D01*
X277037254Y-183950526D01*
X277079765Y-183810607D01*
X277079766Y-183810601D01*
X277081269Y-183805655D01*
X277112627Y-183567465D01*
X277113745Y-183521730D01*
X277114295Y-183499216D01*
X277114295Y-183499212D01*
X277114377Y-183495851D01*
X277094692Y-183256414D01*
X277036164Y-183023407D01*
X276940367Y-182803088D01*
X276809872Y-182601374D01*
X276648184Y-182423681D01*
X276553915Y-182349232D01*
X276463701Y-182277985D01*
X276463698Y-182277983D01*
X276459646Y-182274783D01*
X276446873Y-182267732D01*
X276396902Y-182217299D01*
X276382130Y-182147857D01*
X276390941Y-182110223D01*
X276503405Y-181831863D01*
X276547469Y-181776195D01*
X276614634Y-181753187D01*
X276680931Y-181768648D01*
X276685898Y-181771379D01*
X276685901Y-181771380D01*
X276692840Y-181775195D01*
X276700515Y-181777166D01*
X276700516Y-181777166D01*
X276767757Y-181794431D01*
X276768604Y-181794651D01*
X276836327Y-181812542D01*
X276836329Y-181812542D01*
X276843471Y-181814429D01*
X276845707Y-181814445D01*
X276847870Y-181815000D01*
X276925215Y-181815000D01*
X276926090Y-181815003D01*
X276998628Y-181815507D01*
X276998629Y-181815507D01*
X277003527Y-181815541D01*
X277005238Y-181815114D01*
X277007164Y-181815000D01*
X283933366Y-181815000D01*
X284001487Y-181835002D01*
X284047980Y-181888658D01*
X284058676Y-181927828D01*
X284077058Y-182102728D01*
X284136073Y-182284356D01*
X284139376Y-182290078D01*
X284139377Y-182290079D01*
X284146024Y-182301591D01*
X284231560Y-182449744D01*
X284359347Y-182591666D01*
X284513848Y-182703918D01*
X284519876Y-182706602D01*
X284519878Y-182706603D01*
X284682281Y-182778909D01*
X284688312Y-182781594D01*
X284781713Y-182801447D01*
X284868656Y-182819928D01*
X284868661Y-182819928D01*
X284875113Y-182821300D01*
X285066087Y-182821300D01*
X285072539Y-182819928D01*
X285072544Y-182819928D01*
X285159487Y-182801447D01*
X285252888Y-182781594D01*
X285258919Y-182778909D01*
X285421322Y-182706603D01*
X285421324Y-182706602D01*
X285427352Y-182703918D01*
X285581853Y-182591666D01*
X285586268Y-182586763D01*
X285591180Y-182582340D01*
X285592305Y-182583589D01*
X285645614Y-182550749D01*
X285678800Y-182546300D01*
X286693506Y-182546300D01*
X286761627Y-182566302D01*
X286782601Y-182583205D01*
X288497671Y-184298276D01*
X288498286Y-184298894D01*
X288552654Y-184354020D01*
X288559446Y-184358101D01*
X288565679Y-184363005D01*
X288563725Y-184365489D01*
X288601886Y-184406960D01*
X288614083Y-184476901D01*
X288596889Y-184527596D01*
X288332393Y-184967791D01*
X288306157Y-185024571D01*
X288279739Y-185167813D01*
X288280654Y-185176740D01*
X288286455Y-185233366D01*
X288273500Y-185303171D01*
X288224862Y-185354890D01*
X288208618Y-185362909D01*
X288155898Y-185384370D01*
X288155896Y-185384371D01*
X288147586Y-185387754D01*
X288033513Y-185478328D01*
X287995697Y-185528149D01*
X287673800Y-186063876D01*
X287673798Y-186063878D01*
X287169663Y-186902899D01*
X287137761Y-186955992D01*
X287085531Y-187004081D01*
X287015594Y-187016298D01*
X286964863Y-186999100D01*
X286461592Y-186696705D01*
X286458678Y-186694954D01*
X286401899Y-186668718D01*
X286394131Y-186667285D01*
X286394130Y-186667285D01*
X286357193Y-186660473D01*
X286258657Y-186642300D01*
X286154718Y-186652949D01*
X286122687Y-186656231D01*
X286122686Y-186656231D01*
X286113758Y-186657146D01*
X285978850Y-186712063D01*
X285864778Y-186802637D01*
X285826961Y-186852459D01*
X285825210Y-186855373D01*
X285825206Y-186855379D01*
X285096071Y-188068865D01*
X284861642Y-188459020D01*
X284835406Y-188515799D01*
X284833973Y-188523567D01*
X284833973Y-188523568D01*
X284831079Y-188539258D01*
X284808988Y-188659041D01*
X284823834Y-188803940D01*
X284878751Y-188938848D01*
X284969325Y-189052920D01*
X284975612Y-189057692D01*
X284975614Y-189057694D01*
X285016437Y-189088680D01*
X285019147Y-189090737D01*
X285022061Y-189092488D01*
X285022067Y-189092492D01*
X286111783Y-189747259D01*
X286625708Y-190056056D01*
X286682487Y-190082292D01*
X286690255Y-190083725D01*
X286690256Y-190083725D01*
X286716516Y-190088568D01*
X286825729Y-190108710D01*
X286929668Y-190098061D01*
X286961699Y-190094779D01*
X286961700Y-190094779D01*
X286970628Y-190093864D01*
X287105536Y-190038947D01*
X287112566Y-190033365D01*
X287117777Y-190030320D01*
X287186683Y-190013220D01*
X287253896Y-190036089D01*
X287280025Y-190060757D01*
X287341034Y-190137594D01*
X287341038Y-190137598D01*
X287345949Y-190143783D01*
X287395770Y-190181599D01*
X288249738Y-190694715D01*
X288306518Y-190720951D01*
X288449760Y-190747369D01*
X288553699Y-190736720D01*
X288585730Y-190733438D01*
X288585731Y-190733438D01*
X288594659Y-190732523D01*
X288729566Y-190677606D01*
X288843639Y-190587032D01*
X288848785Y-190580253D01*
X288879401Y-190539917D01*
X288879407Y-190539909D01*
X288881455Y-190537210D01*
X289549083Y-189426092D01*
X289575318Y-189369312D01*
X289601737Y-189226070D01*
X289586891Y-189081172D01*
X289577334Y-189057694D01*
X289535358Y-188954578D01*
X289535356Y-188954575D01*
X289531973Y-188946264D01*
X289526391Y-188939234D01*
X289526116Y-188938763D01*
X289509017Y-188869856D01*
X289531887Y-188802643D01*
X289544841Y-188787075D01*
X289548238Y-188783603D01*
X289554428Y-188778688D01*
X289576066Y-188750180D01*
X289590190Y-188731573D01*
X289590196Y-188731565D01*
X289592244Y-188728866D01*
X289715149Y-188524318D01*
X289767379Y-188476229D01*
X289837316Y-188464012D01*
X289888045Y-188481209D01*
X289893508Y-188484491D01*
X289899734Y-188488232D01*
X289956514Y-188514467D01*
X290099756Y-188540886D01*
X290119880Y-188538824D01*
X290189683Y-188551779D01*
X290241403Y-188600416D01*
X290252555Y-188625233D01*
X290266183Y-188667175D01*
X290270173Y-188679456D01*
X290365660Y-188844844D01*
X290493447Y-188986766D01*
X290647948Y-189099018D01*
X290653976Y-189101702D01*
X290653978Y-189101703D01*
X290740849Y-189140380D01*
X290822412Y-189176694D01*
X290915812Y-189196547D01*
X291002756Y-189215028D01*
X291002761Y-189215028D01*
X291009213Y-189216400D01*
X291160919Y-189216400D01*
X291229040Y-189236402D01*
X291259596Y-189264049D01*
X291281920Y-189292164D01*
X291310296Y-189327902D01*
X291316587Y-189332677D01*
X291357411Y-189363664D01*
X291357419Y-189363670D01*
X291360118Y-189365718D01*
X291363029Y-189367467D01*
X291371806Y-189372741D01*
X291419894Y-189424972D01*
X291432110Y-189494910D01*
X291414913Y-189545636D01*
X291292006Y-189750187D01*
X291265771Y-189806967D01*
X291264338Y-189814734D01*
X291264336Y-189814742D01*
X291262018Y-189827310D01*
X291229991Y-189890672D01*
X291168792Y-189926660D01*
X291150952Y-189929797D01*
X291030270Y-189942162D01*
X291030269Y-189942162D01*
X291021341Y-189943077D01*
X290886434Y-189997994D01*
X290772361Y-190088568D01*
X290767586Y-190094859D01*
X290736599Y-190135683D01*
X290736593Y-190135691D01*
X290734545Y-190138390D01*
X290066917Y-191249508D01*
X290040682Y-191306288D01*
X290014263Y-191449530D01*
X290029109Y-191594428D01*
X290084027Y-191729336D01*
X290174601Y-191843409D01*
X290224422Y-191881225D01*
X291078390Y-192394341D01*
X291135170Y-192420577D01*
X291278412Y-192446995D01*
X291382351Y-192436346D01*
X291414382Y-192433064D01*
X291414383Y-192433064D01*
X291423311Y-192432149D01*
X291452780Y-192420153D01*
X291523414Y-192412996D01*
X291586705Y-192445163D01*
X291623201Y-192509154D01*
X291674884Y-192738491D01*
X291676826Y-192743273D01*
X291676827Y-192743277D01*
X291716008Y-192839768D01*
X291765270Y-192961085D01*
X291890798Y-193165927D01*
X292048096Y-193347517D01*
X292232940Y-193500978D01*
X292440366Y-193622188D01*
X292445186Y-193624028D01*
X292445191Y-193624031D01*
X292552556Y-193665029D01*
X292664804Y-193707892D01*
X292669870Y-193708923D01*
X292669871Y-193708923D01*
X292726198Y-193720383D01*
X292900226Y-193755789D01*
X293035234Y-193760740D01*
X293135145Y-193764404D01*
X293135149Y-193764404D01*
X293140309Y-193764593D01*
X293145429Y-193763937D01*
X293145431Y-193763937D01*
X293220996Y-193754257D01*
X293378607Y-193734066D01*
X293383558Y-193732581D01*
X293383561Y-193732580D01*
X293603769Y-193666514D01*
X293603768Y-193666514D01*
X293608719Y-193665029D01*
X293824465Y-193559336D01*
X294020052Y-193419825D01*
X294190227Y-193250243D01*
X294330420Y-193055144D01*
X294436866Y-192839768D01*
X294452858Y-192787131D01*
X294505202Y-192614851D01*
X294505203Y-192614845D01*
X294506706Y-192609899D01*
X294531442Y-192422010D01*
X294537627Y-192375030D01*
X294537627Y-192375026D01*
X294538064Y-192371709D01*
X294539814Y-192300095D01*
X294520129Y-192060658D01*
X294461601Y-191827651D01*
X294365804Y-191607332D01*
X294235309Y-191405618D01*
X294073621Y-191227925D01*
X294059055Y-191216422D01*
X294017993Y-191158508D01*
X294014760Y-191087585D01*
X294029144Y-191052645D01*
X294545708Y-190192939D01*
X294545709Y-190192937D01*
X294696491Y-189941994D01*
X294867607Y-189657209D01*
X294893843Y-189600429D01*
X294920261Y-189457187D01*
X294913545Y-189391634D01*
X294926500Y-189321829D01*
X294975138Y-189270110D01*
X294991382Y-189262091D01*
X295044102Y-189240630D01*
X295044104Y-189240629D01*
X295052414Y-189237246D01*
X295077732Y-189217144D01*
X295160302Y-189151583D01*
X295166487Y-189146672D01*
X295204303Y-189096851D01*
X295470814Y-188653303D01*
X295523043Y-188605215D01*
X295592980Y-188592998D01*
X295636016Y-188605931D01*
X295684404Y-188630585D01*
X295692137Y-188632314D01*
X295699598Y-188635000D01*
X295699596Y-188635005D01*
X295703482Y-188636283D01*
X295703484Y-188636277D01*
X295711083Y-188638542D01*
X295718335Y-188641739D01*
X295726154Y-188643033D01*
X295726155Y-188643033D01*
X295776324Y-188651334D01*
X295783231Y-188652676D01*
X295840609Y-188665502D01*
X295848535Y-188665253D01*
X295856428Y-188665999D01*
X295856427Y-188666005D01*
X295860503Y-188666276D01*
X295860503Y-188666269D01*
X295868425Y-188666573D01*
X295876248Y-188667867D01*
X295934817Y-188662737D01*
X295941834Y-188662320D01*
X295981430Y-188661075D01*
X296000589Y-188660473D01*
X296008206Y-188658260D01*
X296016029Y-188657021D01*
X296016030Y-188657026D01*
X296020054Y-188656273D01*
X296020053Y-188656269D01*
X296027800Y-188654594D01*
X296035696Y-188653902D01*
X296043168Y-188651270D01*
X296043172Y-188651269D01*
X296089340Y-188635005D01*
X296091154Y-188634366D01*
X296097857Y-188632214D01*
X296121886Y-188625233D01*
X296154293Y-188615818D01*
X296161121Y-188611780D01*
X296168393Y-188608633D01*
X296168396Y-188608639D01*
X296172100Y-188606912D01*
X296172097Y-188606906D01*
X296179183Y-188603357D01*
X296186663Y-188600722D01*
X296235520Y-188568009D01*
X296241449Y-188564275D01*
X296292062Y-188534342D01*
X296297672Y-188528732D01*
X296303928Y-188523879D01*
X296303933Y-188523885D01*
X296307094Y-188521288D01*
X296307091Y-188521284D01*
X296313078Y-188516079D01*
X296319662Y-188511670D01*
X296358852Y-188467830D01*
X296363695Y-188462709D01*
X296571647Y-188254757D01*
X296579937Y-188247213D01*
X296586418Y-188243100D01*
X296633059Y-188193432D01*
X296635813Y-188190591D01*
X296655534Y-188170870D01*
X296658012Y-188167675D01*
X296665718Y-188158653D01*
X296690558Y-188132201D01*
X296695986Y-188126421D01*
X296705746Y-188108668D01*
X296716599Y-188092145D01*
X296717756Y-188090653D01*
X296729013Y-188076141D01*
X296746576Y-188035557D01*
X296751783Y-188024927D01*
X296773095Y-187986160D01*
X296775066Y-187978483D01*
X296775068Y-187978478D01*
X296778132Y-187966542D01*
X296784538Y-187947830D01*
X296789433Y-187936519D01*
X296792581Y-187929245D01*
X296793821Y-187921417D01*
X296793823Y-187921410D01*
X296799499Y-187885576D01*
X296801905Y-187873956D01*
X296810928Y-187838811D01*
X296810928Y-187838810D01*
X296812900Y-187831130D01*
X296812900Y-187810876D01*
X296814451Y-187791165D01*
X296816380Y-187778986D01*
X296817620Y-187771157D01*
X296813459Y-187727138D01*
X296812900Y-187715281D01*
X296812900Y-186991994D01*
X296832902Y-186923873D01*
X296849805Y-186902899D01*
X297030547Y-186722157D01*
X297038837Y-186714613D01*
X297045318Y-186710500D01*
X297091959Y-186660832D01*
X297094713Y-186657991D01*
X297114435Y-186638269D01*
X297116912Y-186635076D01*
X297124617Y-186626055D01*
X297149459Y-186599600D01*
X297154886Y-186593821D01*
X297158707Y-186586871D01*
X297164646Y-186576068D01*
X297175502Y-186559541D01*
X297183057Y-186549802D01*
X297183058Y-186549800D01*
X297187914Y-186543540D01*
X297205474Y-186502960D01*
X297210692Y-186492310D01*
X297219459Y-186476364D01*
X297269806Y-186426307D01*
X297339223Y-186411415D01*
X297405672Y-186436418D01*
X297430741Y-186464149D01*
X297431946Y-186463270D01*
X297435088Y-186467579D01*
X297437857Y-186472142D01*
X297441354Y-186476172D01*
X297584447Y-186641072D01*
X297589057Y-186646385D01*
X297631192Y-186680933D01*
X297763325Y-186789277D01*
X297763331Y-186789281D01*
X297767453Y-186792661D01*
X297967945Y-186906787D01*
X297972961Y-186908608D01*
X297972966Y-186908610D01*
X298179785Y-186983682D01*
X298179789Y-186983683D01*
X298184800Y-186985502D01*
X298190049Y-186986451D01*
X298190052Y-186986452D01*
X298407733Y-187025815D01*
X298407740Y-187025816D01*
X298411817Y-187026553D01*
X298429554Y-187027389D01*
X298434502Y-187027623D01*
X298434509Y-187027623D01*
X298435990Y-187027693D01*
X298598135Y-187027693D01*
X298665091Y-187022012D01*
X298764772Y-187013554D01*
X298764776Y-187013553D01*
X298770083Y-187013103D01*
X298775238Y-187011765D01*
X298775244Y-187011764D01*
X298988213Y-186956488D01*
X298988217Y-186956487D01*
X298993382Y-186955146D01*
X298998248Y-186952954D01*
X298998251Y-186952953D01*
X299198859Y-186862586D01*
X299203725Y-186860394D01*
X299208145Y-186857418D01*
X299208149Y-186857416D01*
X299309358Y-186789277D01*
X299395095Y-186731555D01*
X299562022Y-186572315D01*
X299621547Y-186492310D01*
X299696547Y-186391507D01*
X299696549Y-186391504D01*
X299699731Y-186387227D01*
X299744827Y-186298530D01*
X299801868Y-186186339D01*
X299801868Y-186186338D01*
X299804287Y-186181581D01*
X299840836Y-186063874D01*
X299871115Y-185966363D01*
X299871116Y-185966357D01*
X299872699Y-185961260D01*
X299903010Y-185732561D01*
X299894356Y-185502025D01*
X299846982Y-185276243D01*
X299762243Y-185061671D01*
X299642563Y-184864444D01*
X299620032Y-184838479D01*
X299614432Y-184832025D01*
X299584894Y-184767465D01*
X299594949Y-184697184D01*
X299641404Y-184643496D01*
X299650446Y-184638195D01*
X299822854Y-184546524D01*
X299822860Y-184546520D01*
X299826746Y-184544454D01*
X299833749Y-184539366D01*
X300050433Y-184381937D01*
X300050436Y-184381934D01*
X300053996Y-184379348D01*
X300067910Y-184365912D01*
X300151373Y-184285312D01*
X300256056Y-184184221D01*
X300428992Y-183962872D01*
X300431188Y-183959068D01*
X300431193Y-183959061D01*
X300567239Y-183723421D01*
X300569440Y-183719609D01*
X300674666Y-183459166D01*
X300716595Y-183290998D01*
X300752483Y-183229740D01*
X300815792Y-183197608D01*
X300886423Y-183204805D01*
X300903744Y-183213476D01*
X302038218Y-183895136D01*
X302041300Y-183896560D01*
X302087826Y-183918059D01*
X302087830Y-183918060D01*
X302094997Y-183921372D01*
X302238239Y-183947791D01*
X302383138Y-183932944D01*
X302394031Y-183928510D01*
X302509733Y-183881411D01*
X302518046Y-183878027D01*
X302632118Y-183787453D01*
X302646292Y-183768779D01*
X302667880Y-183740338D01*
X302667886Y-183740330D01*
X302669934Y-183737631D01*
X304007111Y-181512195D01*
X304018894Y-181486695D01*
X304030034Y-181462587D01*
X304030035Y-181462583D01*
X304033347Y-181455416D01*
X304059766Y-181312174D01*
X304044920Y-181167275D01*
X303990002Y-181032367D01*
X303899428Y-180918295D01*
X303849607Y-180880479D01*
X303366361Y-180590116D01*
X303318272Y-180537886D01*
X303306055Y-180467949D01*
X303323245Y-180417232D01*
X303328486Y-180408507D01*
X303334561Y-180399326D01*
X303337557Y-180395203D01*
X303342986Y-180389421D01*
X303346805Y-180382474D01*
X303346808Y-180382470D01*
X303374533Y-180332037D01*
X303376928Y-180327871D01*
X303389965Y-180306170D01*
X303392653Y-180300073D01*
X303397525Y-180290215D01*
X303416279Y-180256102D01*
X303416280Y-180256099D01*
X303420095Y-180249160D01*
X303424480Y-180232084D01*
X303431227Y-180212597D01*
X303438336Y-180196475D01*
X303445981Y-180150276D01*
X303448248Y-180139513D01*
X303457929Y-180101809D01*
X303457930Y-180101805D01*
X303459900Y-180094130D01*
X303459900Y-180076514D01*
X303461590Y-180055945D01*
X303463172Y-180046387D01*
X303463172Y-180046382D01*
X303464466Y-180038563D01*
X303460380Y-179991899D01*
X303459900Y-179980909D01*
X303459900Y-179056294D01*
X303479902Y-178988173D01*
X303496805Y-178967199D01*
X310971147Y-171492857D01*
X310979437Y-171485313D01*
X310985918Y-171481200D01*
X311032559Y-171431532D01*
X311035313Y-171428691D01*
X311055035Y-171408969D01*
X311057512Y-171405776D01*
X311065217Y-171396755D01*
X311090059Y-171370300D01*
X311095486Y-171364521D01*
X311099307Y-171357571D01*
X311105246Y-171346768D01*
X311116102Y-171330241D01*
X311123657Y-171320502D01*
X311123658Y-171320500D01*
X311128514Y-171314240D01*
X311146074Y-171273660D01*
X311151291Y-171263012D01*
X311168775Y-171231209D01*
X311168776Y-171231207D01*
X311172595Y-171224260D01*
X311177633Y-171204637D01*
X311184037Y-171185934D01*
X311188933Y-171174620D01*
X311188933Y-171174619D01*
X311192081Y-171167345D01*
X311193320Y-171159522D01*
X311193323Y-171159512D01*
X311198999Y-171123676D01*
X311201405Y-171112056D01*
X311210428Y-171076911D01*
X311210428Y-171076910D01*
X311212400Y-171069230D01*
X311212400Y-171048976D01*
X311213951Y-171029265D01*
X311215880Y-171017086D01*
X311217120Y-171009257D01*
X311212959Y-170965238D01*
X311212400Y-170953381D01*
X311212400Y-167464203D01*
X311232402Y-167396082D01*
X311286058Y-167349589D01*
X311356332Y-167339485D01*
X311403295Y-167356200D01*
X311823918Y-167608936D01*
X311827000Y-167610360D01*
X311873526Y-167631859D01*
X311873530Y-167631860D01*
X311880697Y-167635172D01*
X312023939Y-167661591D01*
X312168838Y-167646744D01*
X312183480Y-167640784D01*
X312295433Y-167595211D01*
X312303746Y-167591827D01*
X312417818Y-167501253D01*
X312435937Y-167477382D01*
X312453580Y-167454138D01*
X312453586Y-167454130D01*
X312455634Y-167451431D01*
X313792811Y-165225995D01*
X313810974Y-165186688D01*
X313815734Y-165176387D01*
X313815735Y-165176383D01*
X313819047Y-165169216D01*
X313845466Y-165025974D01*
X313832425Y-164898693D01*
X313831535Y-164890004D01*
X313831535Y-164890003D01*
X313830620Y-164881075D01*
X313775702Y-164746167D01*
X313685128Y-164632095D01*
X313635307Y-164594279D01*
X311367012Y-163231350D01*
X311352486Y-163224638D01*
X311317404Y-163208427D01*
X311317400Y-163208426D01*
X311310233Y-163205114D01*
X311166991Y-163178695D01*
X311022092Y-163193542D01*
X311013777Y-163196927D01*
X311013776Y-163196927D01*
X310926634Y-163232400D01*
X310887184Y-163248459D01*
X310883406Y-163251459D01*
X310816527Y-163268056D01*
X310749314Y-163245187D01*
X310705135Y-163189611D01*
X310702029Y-163181105D01*
X310701650Y-163179936D01*
X310631895Y-162965252D01*
X310627866Y-162956990D01*
X310561222Y-162820351D01*
X310508758Y-162712785D01*
X310506303Y-162709146D01*
X310506300Y-162709140D01*
X310388250Y-162534124D01*
X310351683Y-162479911D01*
X310343670Y-162471011D01*
X310166664Y-162274427D01*
X310163727Y-162271165D01*
X309948548Y-162090608D01*
X309710334Y-161941756D01*
X309453723Y-161827505D01*
X309183708Y-161750080D01*
X309179358Y-161749469D01*
X309179355Y-161749468D01*
X309057011Y-161732274D01*
X308905546Y-161710987D01*
X308694952Y-161710987D01*
X308692766Y-161711140D01*
X308692762Y-161711140D01*
X308489271Y-161725369D01*
X308489266Y-161725370D01*
X308484886Y-161725676D01*
X308210128Y-161784078D01*
X308205999Y-161785581D01*
X308205995Y-161785582D01*
X307950317Y-161878641D01*
X307950313Y-161878643D01*
X307946172Y-161880150D01*
X307698156Y-162012023D01*
X307694597Y-162014609D01*
X307694595Y-162014610D01*
X307548712Y-162120600D01*
X307470906Y-162177129D01*
X307467742Y-162180185D01*
X307467739Y-162180187D01*
X307458998Y-162188628D01*
X307268846Y-162372256D01*
X307095910Y-162593605D01*
X307093714Y-162597409D01*
X307093709Y-162597416D01*
X307005014Y-162751041D01*
X306955462Y-162836868D01*
X306850236Y-163097311D01*
X306849171Y-163101584D01*
X306849170Y-163101586D01*
X306789968Y-163339033D01*
X306782281Y-163369863D01*
X306781822Y-163374231D01*
X306781821Y-163374236D01*
X306755336Y-163626233D01*
X306752920Y-163649220D01*
X306753073Y-163653608D01*
X306753073Y-163653614D01*
X306760218Y-163858197D01*
X306762723Y-163929945D01*
X306763485Y-163934268D01*
X306763486Y-163934275D01*
X306783786Y-164049400D01*
X306811500Y-164206574D01*
X306898301Y-164473722D01*
X306900229Y-164477675D01*
X306900231Y-164477680D01*
X306947775Y-164575158D01*
X307021438Y-164726189D01*
X307087258Y-164823772D01*
X307168271Y-164943879D01*
X307189781Y-165011539D01*
X307171297Y-165080087D01*
X307151339Y-165104973D01*
X307052424Y-165200495D01*
X307052418Y-165200501D01*
X307049252Y-165203559D01*
X306876316Y-165424908D01*
X306874120Y-165428712D01*
X306874115Y-165428719D01*
X306760298Y-165625857D01*
X306735868Y-165668171D01*
X306630642Y-165928614D01*
X306629577Y-165932887D01*
X306629576Y-165932889D01*
X306607988Y-166019474D01*
X306572100Y-166080733D01*
X306508791Y-166112864D01*
X306438160Y-166105667D01*
X306382633Y-166061426D01*
X306363690Y-166020327D01*
X306357116Y-165994723D01*
X306357111Y-165994707D01*
X306356130Y-165990887D01*
X306240216Y-165698123D01*
X306214296Y-165650975D01*
X306090433Y-165425668D01*
X306090431Y-165425665D01*
X306088524Y-165422196D01*
X305937276Y-165214021D01*
X305905773Y-165170660D01*
X305905772Y-165170658D01*
X305903445Y-165167456D01*
X305687898Y-164937922D01*
X305445282Y-164737213D01*
X305217283Y-164592520D01*
X305182771Y-164570618D01*
X305182770Y-164570618D01*
X305179424Y-164568494D01*
X305175845Y-164566810D01*
X305175838Y-164566806D01*
X304898106Y-164436116D01*
X304898102Y-164436114D01*
X304894516Y-164434427D01*
X304595052Y-164337125D01*
X304285754Y-164278123D01*
X304192200Y-164272237D01*
X304052142Y-164263425D01*
X304052126Y-164263424D01*
X304050147Y-164263300D01*
X303892853Y-164263300D01*
X303890874Y-164263424D01*
X303890858Y-164263425D01*
X303750800Y-164272237D01*
X303657246Y-164278123D01*
X303495913Y-164308899D01*
X303425252Y-164302016D01*
X303369529Y-164258023D01*
X303346436Y-164190887D01*
X303363305Y-164121924D01*
X303384777Y-164094494D01*
X303506976Y-163976488D01*
X303506980Y-163976483D01*
X303510141Y-163973431D01*
X303683077Y-163752082D01*
X303685273Y-163748278D01*
X303685278Y-163748271D01*
X303821324Y-163512631D01*
X303823525Y-163508819D01*
X303928751Y-163248376D01*
X303943403Y-163189611D01*
X303945815Y-163179936D01*
X303981703Y-163118678D01*
X304045012Y-163086547D01*
X304085608Y-163085645D01*
X304149961Y-163094689D01*
X304270240Y-163111593D01*
X304480834Y-163111593D01*
X304483020Y-163111440D01*
X304483024Y-163111440D01*
X304686515Y-163097211D01*
X304686520Y-163097210D01*
X304690900Y-163096904D01*
X304965658Y-163038502D01*
X304969787Y-163036999D01*
X304969791Y-163036998D01*
X305225469Y-162943939D01*
X305225473Y-162943937D01*
X305229614Y-162942430D01*
X305477630Y-162810557D01*
X305488436Y-162802706D01*
X305701317Y-162648040D01*
X305701320Y-162648037D01*
X305704880Y-162645451D01*
X305744119Y-162607559D01*
X305818048Y-162536166D01*
X305906940Y-162450324D01*
X306079876Y-162228975D01*
X306082072Y-162225171D01*
X306082077Y-162225164D01*
X306218123Y-161989524D01*
X306220324Y-161985712D01*
X306325550Y-161725269D01*
X306353436Y-161613426D01*
X306392441Y-161456986D01*
X306392442Y-161456981D01*
X306393505Y-161452717D01*
X306395993Y-161429053D01*
X306422407Y-161177729D01*
X306422407Y-161177726D01*
X306422866Y-161173360D01*
X306422713Y-161168966D01*
X306413217Y-160897032D01*
X306413216Y-160897026D01*
X306413063Y-160892635D01*
X306364286Y-160616006D01*
X306277485Y-160348858D01*
X306154348Y-160096391D01*
X306151893Y-160092752D01*
X306151890Y-160092746D01*
X306071623Y-159973746D01*
X305997273Y-159863517D01*
X305970247Y-159833501D01*
X305821583Y-159668394D01*
X305809317Y-159654771D01*
X305594138Y-159474214D01*
X305355924Y-159325362D01*
X305099313Y-159211111D01*
X304829298Y-159133686D01*
X304824948Y-159133075D01*
X304824945Y-159133074D01*
X304721998Y-159118606D01*
X304551136Y-159094593D01*
X304340542Y-159094593D01*
X304338356Y-159094746D01*
X304338352Y-159094746D01*
X304134861Y-159108975D01*
X304134856Y-159108976D01*
X304130476Y-159109282D01*
X303855718Y-159167684D01*
X303851589Y-159169187D01*
X303851585Y-159169188D01*
X303595907Y-159262247D01*
X303595903Y-159262249D01*
X303591762Y-159263756D01*
X303343746Y-159395629D01*
X303340187Y-159398215D01*
X303340185Y-159398216D01*
X303144572Y-159540337D01*
X303116496Y-159560735D01*
X303113332Y-159563791D01*
X303113329Y-159563793D01*
X303077421Y-159598469D01*
X302914436Y-159755862D01*
X302741500Y-159977211D01*
X302739304Y-159981015D01*
X302739299Y-159981022D01*
X302663779Y-160111827D01*
X302601052Y-160220474D01*
X302495826Y-160480917D01*
X302494761Y-160485189D01*
X302478762Y-160549357D01*
X302442874Y-160610615D01*
X302379565Y-160642746D01*
X302338969Y-160643648D01*
X302258855Y-160632389D01*
X302154337Y-160617700D01*
X301943743Y-160617700D01*
X301941557Y-160617853D01*
X301941553Y-160617853D01*
X301738062Y-160632082D01*
X301738057Y-160632083D01*
X301733677Y-160632389D01*
X301729383Y-160633302D01*
X301729381Y-160633302D01*
X301608071Y-160659087D01*
X301537280Y-160653685D01*
X301480647Y-160610868D01*
X301456625Y-160545511D01*
X301456667Y-160545281D01*
X301450510Y-160485189D01*
X301442736Y-160409311D01*
X301442736Y-160409310D01*
X301441821Y-160400382D01*
X301386903Y-160265474D01*
X301296329Y-160151402D01*
X301246508Y-160113586D01*
X298978213Y-158750657D01*
X298967213Y-158745574D01*
X298928605Y-158727734D01*
X298928601Y-158727733D01*
X298921434Y-158724421D01*
X298778192Y-158698002D01*
X298633293Y-158712849D01*
X298624978Y-158716234D01*
X298624977Y-158716234D01*
X298536113Y-158752408D01*
X298498385Y-158767766D01*
X298384313Y-158858340D01*
X298379538Y-158864631D01*
X298379537Y-158864632D01*
X298348551Y-158905455D01*
X298348545Y-158905463D01*
X298346497Y-158908162D01*
X297009320Y-161133598D01*
X297007896Y-161136680D01*
X296986397Y-161183206D01*
X296986396Y-161183210D01*
X296983084Y-161190377D01*
X296956665Y-161333619D01*
X296971511Y-161478518D01*
X297026429Y-161613426D01*
X297117003Y-161727498D01*
X297123294Y-161732273D01*
X297123295Y-161732274D01*
X297157102Y-161757935D01*
X297166824Y-161765314D01*
X297533628Y-161985712D01*
X297650124Y-162055710D01*
X297698213Y-162107940D01*
X297710430Y-162177877D01*
X297693235Y-162228603D01*
X297682667Y-162246193D01*
X297669179Y-162264623D01*
X297667225Y-162266840D01*
X297667223Y-162266843D01*
X297661980Y-162272790D01*
X297637957Y-162319939D01*
X297637676Y-162320490D01*
X297633418Y-162328172D01*
X297631541Y-162331297D01*
X297626535Y-162339630D01*
X297624939Y-162343249D01*
X297624932Y-162343263D01*
X297619026Y-162356657D01*
X297616004Y-162363024D01*
X297609534Y-162375723D01*
X297589315Y-162415404D01*
X297587585Y-162423141D01*
X297584901Y-162430597D01*
X297584896Y-162430595D01*
X297583620Y-162434476D01*
X297583625Y-162434478D01*
X297581361Y-162442075D01*
X297578164Y-162449325D01*
X297576871Y-162457138D01*
X297576870Y-162457142D01*
X297568567Y-162507323D01*
X297567225Y-162514223D01*
X297554398Y-162571609D01*
X297554647Y-162579534D01*
X297553901Y-162587429D01*
X297553895Y-162587428D01*
X297553625Y-162591498D01*
X297553632Y-162591498D01*
X297553328Y-162599418D01*
X297552034Y-162607238D01*
X297552725Y-162615130D01*
X297552725Y-162615132D01*
X297557162Y-162665800D01*
X297557579Y-162672823D01*
X297559427Y-162731589D01*
X297561640Y-162739205D01*
X297562879Y-162747030D01*
X297562872Y-162747031D01*
X297563623Y-162751042D01*
X297563628Y-162751041D01*
X297565305Y-162758796D01*
X297565996Y-162766686D01*
X297568627Y-162774155D01*
X297568628Y-162774160D01*
X297585533Y-162822152D01*
X297587687Y-162828860D01*
X297590014Y-162836868D01*
X297604082Y-162885293D01*
X297608115Y-162892113D01*
X297611266Y-162899394D01*
X297611260Y-162899397D01*
X297612983Y-162903091D01*
X297612989Y-162903088D01*
X297616538Y-162910174D01*
X297619173Y-162917654D01*
X297645511Y-162956990D01*
X297651882Y-162966505D01*
X297655638Y-162972469D01*
X297680133Y-163013888D01*
X297685558Y-163023062D01*
X297691166Y-163028670D01*
X297696022Y-163034930D01*
X297696016Y-163034934D01*
X297698608Y-163038089D01*
X297698613Y-163038085D01*
X297703813Y-163044066D01*
X297708224Y-163050654D01*
X297747366Y-163085645D01*
X297752066Y-163089847D01*
X297757185Y-163094689D01*
X297769095Y-163106599D01*
X297803121Y-163168911D01*
X297806000Y-163195694D01*
X297806000Y-164566333D01*
X297805473Y-164577516D01*
X297803798Y-164585009D01*
X297804047Y-164592935D01*
X297804047Y-164592936D01*
X297805938Y-164653086D01*
X297806000Y-164657045D01*
X297806000Y-164684956D01*
X297806497Y-164688890D01*
X297806497Y-164688891D01*
X297806505Y-164688956D01*
X297807438Y-164700793D01*
X297808827Y-164744989D01*
X297811995Y-164755893D01*
X297814478Y-164764439D01*
X297818487Y-164783800D01*
X297818832Y-164786527D01*
X297821026Y-164803897D01*
X297823945Y-164811268D01*
X297823945Y-164811270D01*
X297837304Y-164845012D01*
X297841149Y-164856242D01*
X297850958Y-164890004D01*
X297853482Y-164898693D01*
X297857515Y-164905512D01*
X297857517Y-164905517D01*
X297863793Y-164916128D01*
X297872488Y-164933876D01*
X297879948Y-164952717D01*
X297884610Y-164959133D01*
X297884610Y-164959134D01*
X297905936Y-164988487D01*
X297912452Y-164998407D01*
X297934958Y-165036462D01*
X297949279Y-165050783D01*
X297962119Y-165065816D01*
X297974028Y-165082207D01*
X297980134Y-165087258D01*
X298008105Y-165110398D01*
X298016884Y-165118388D01*
X299507390Y-166608894D01*
X299541416Y-166671206D01*
X299536351Y-166742021D01*
X299493804Y-166798857D01*
X299431136Y-166823333D01*
X299422405Y-166824227D01*
X299417646Y-166824715D01*
X299408716Y-166825630D01*
X299400400Y-166829015D01*
X299400401Y-166829015D01*
X299391100Y-166832801D01*
X299320465Y-166839959D01*
X299254499Y-166805195D01*
X298004857Y-165555552D01*
X296739952Y-164290647D01*
X296732412Y-164282361D01*
X296728300Y-164275882D01*
X296678648Y-164229256D01*
X296675807Y-164226502D01*
X296656070Y-164206765D01*
X296652873Y-164204285D01*
X296643851Y-164196580D01*
X296617400Y-164171741D01*
X296611621Y-164166314D01*
X296604675Y-164162495D01*
X296604672Y-164162493D01*
X296593866Y-164156552D01*
X296577347Y-164145701D01*
X296574553Y-164143534D01*
X296561341Y-164133286D01*
X296554072Y-164130141D01*
X296554068Y-164130138D01*
X296520763Y-164115726D01*
X296510113Y-164110509D01*
X296471360Y-164089205D01*
X296451737Y-164084167D01*
X296433034Y-164077763D01*
X296421720Y-164072867D01*
X296421719Y-164072867D01*
X296414445Y-164069719D01*
X296406622Y-164068480D01*
X296406612Y-164068477D01*
X296370776Y-164062801D01*
X296359156Y-164060395D01*
X296324011Y-164051372D01*
X296324010Y-164051372D01*
X296316330Y-164049400D01*
X296296076Y-164049400D01*
X296276365Y-164047849D01*
X296264186Y-164045920D01*
X296256357Y-164044680D01*
X296248465Y-164045426D01*
X296212339Y-164048841D01*
X296200481Y-164049400D01*
X289662294Y-164049400D01*
X289594173Y-164029398D01*
X289573199Y-164012495D01*
X286999504Y-161438799D01*
X284407252Y-158846547D01*
X284399712Y-158838261D01*
X284395600Y-158831782D01*
X284345948Y-158785156D01*
X284343107Y-158782402D01*
X284323370Y-158762665D01*
X284320173Y-158760185D01*
X284311151Y-158752480D01*
X284278921Y-158722214D01*
X284271975Y-158718395D01*
X284271972Y-158718393D01*
X284261166Y-158712452D01*
X284244647Y-158701601D01*
X284242106Y-158699630D01*
X284228641Y-158689186D01*
X284221372Y-158686041D01*
X284221368Y-158686038D01*
X284188063Y-158671626D01*
X284177413Y-158666409D01*
X284138660Y-158645105D01*
X284131260Y-158643205D01*
X284075387Y-158599609D01*
X284051911Y-158532606D01*
X284068387Y-158463548D01*
X284097430Y-158429047D01*
X284101294Y-158425850D01*
X284133898Y-158398878D01*
X284349445Y-158169344D01*
X284358164Y-158157344D01*
X284532193Y-157917812D01*
X284534524Y-157914604D01*
X284686216Y-157638677D01*
X284802130Y-157345913D01*
X284880436Y-157040930D01*
X284919900Y-156728538D01*
X284919900Y-156707384D01*
X284939902Y-156639263D01*
X284993558Y-156592770D01*
X285063832Y-156582666D01*
X285128412Y-156612160D01*
X285155018Y-156644382D01*
X285155984Y-156646056D01*
X285157911Y-156650006D01*
X285314986Y-156882880D01*
X285502942Y-157091626D01*
X285718121Y-157272183D01*
X285956335Y-157421035D01*
X285960345Y-157422821D01*
X285960350Y-157422823D01*
X286008088Y-157444077D01*
X286062184Y-157490057D01*
X286082834Y-157557984D01*
X286063482Y-157626292D01*
X286057939Y-157634383D01*
X285968073Y-157755167D01*
X285965658Y-157759917D01*
X285910971Y-157867479D01*
X285863517Y-157960813D01*
X285833639Y-158057035D01*
X285796689Y-158176031D01*
X285796688Y-158176037D01*
X285795105Y-158181134D01*
X285794404Y-158186426D01*
X285766629Y-158395991D01*
X285764794Y-158409833D01*
X285773448Y-158640369D01*
X285820822Y-158866151D01*
X285905561Y-159080723D01*
X286025241Y-159277950D01*
X286028738Y-159281980D01*
X286125565Y-159393563D01*
X286176441Y-159452193D01*
X286218576Y-159486741D01*
X286350709Y-159595085D01*
X286350715Y-159595089D01*
X286354837Y-159598469D01*
X286555329Y-159712595D01*
X286560345Y-159714416D01*
X286560350Y-159714418D01*
X286767169Y-159789490D01*
X286767173Y-159789491D01*
X286772184Y-159791310D01*
X286777433Y-159792259D01*
X286777436Y-159792260D01*
X286995117Y-159831623D01*
X286995124Y-159831624D01*
X286999201Y-159832361D01*
X287016938Y-159833197D01*
X287021886Y-159833431D01*
X287021893Y-159833431D01*
X287023374Y-159833501D01*
X287185519Y-159833501D01*
X287252475Y-159827820D01*
X287352156Y-159819362D01*
X287352160Y-159819361D01*
X287357467Y-159818911D01*
X287362622Y-159817573D01*
X287362628Y-159817572D01*
X287575597Y-159762296D01*
X287575601Y-159762295D01*
X287580766Y-159760954D01*
X287585632Y-159758762D01*
X287585635Y-159758761D01*
X287786243Y-159668394D01*
X287791109Y-159666202D01*
X287795529Y-159663226D01*
X287795533Y-159663224D01*
X287943221Y-159563793D01*
X287982479Y-159537363D01*
X288149406Y-159378123D01*
X288287115Y-159193035D01*
X288341899Y-159085284D01*
X288389252Y-158992147D01*
X288389252Y-158992146D01*
X288391671Y-158987389D01*
X288441673Y-158826357D01*
X288458499Y-158772171D01*
X288458500Y-158772165D01*
X288460083Y-158767068D01*
X288482149Y-158600580D01*
X288489694Y-158543654D01*
X288489694Y-158543649D01*
X288490394Y-158538369D01*
X288481740Y-158307833D01*
X288434366Y-158082051D01*
X288349627Y-157867479D01*
X288229947Y-157670252D01*
X288202548Y-157638677D01*
X288082247Y-157500042D01*
X288082245Y-157500040D01*
X288078747Y-157496009D01*
X288059220Y-157479997D01*
X288019227Y-157421338D01*
X288017296Y-157350367D01*
X288054042Y-157289619D01*
X288065052Y-157280629D01*
X288192200Y-157188251D01*
X288192203Y-157188248D01*
X288195763Y-157185662D01*
X288397823Y-156990535D01*
X288570759Y-156769186D01*
X288572955Y-156765382D01*
X288572960Y-156765375D01*
X288709006Y-156529735D01*
X288711207Y-156525923D01*
X288816433Y-156265480D01*
X288833743Y-156196054D01*
X288883324Y-155997197D01*
X288883325Y-155997192D01*
X288884388Y-155992928D01*
X288885381Y-155983488D01*
X288896683Y-155875942D01*
X288906371Y-155783774D01*
X288933383Y-155718118D01*
X288991604Y-155677488D01*
X289062549Y-155674785D01*
X289078880Y-155680120D01*
X289639421Y-155906593D01*
X290305153Y-156175566D01*
X290365337Y-156192596D01*
X290373228Y-156192796D01*
X290373230Y-156192796D01*
X290481742Y-156195542D01*
X290510949Y-156196281D01*
X290593908Y-156174285D01*
X290643067Y-156161251D01*
X290643068Y-156161251D01*
X290651741Y-156158951D01*
X290776397Y-156083605D01*
X290782465Y-156076994D01*
X290782468Y-156076992D01*
X290842521Y-156011570D01*
X290874896Y-155976301D01*
X290904453Y-155921178D01*
X291014187Y-155649578D01*
X291118532Y-155391313D01*
X291877032Y-153513960D01*
X291894063Y-153453775D01*
X291897748Y-153308164D01*
X291876779Y-153229082D01*
X291862718Y-153176050D01*
X291860417Y-153167372D01*
X291855774Y-153159690D01*
X291789716Y-153050399D01*
X291789715Y-153050398D01*
X291785072Y-153042716D01*
X291778461Y-153036648D01*
X291778459Y-153036645D01*
X291683592Y-152949563D01*
X291677768Y-152944217D01*
X291654773Y-152931887D01*
X291625651Y-152916272D01*
X291625646Y-152916270D01*
X291622644Y-152914660D01*
X289442994Y-152034024D01*
X289401099Y-152006294D01*
X287988452Y-150593647D01*
X287980912Y-150585361D01*
X287976800Y-150578882D01*
X287927148Y-150532256D01*
X287924307Y-150529502D01*
X287904570Y-150509765D01*
X287901373Y-150507285D01*
X287892351Y-150499580D01*
X287878922Y-150486969D01*
X287860121Y-150469314D01*
X287853175Y-150465495D01*
X287853172Y-150465493D01*
X287842366Y-150459552D01*
X287825847Y-150448701D01*
X287825383Y-150448341D01*
X287809841Y-150436286D01*
X287802572Y-150433141D01*
X287802568Y-150433138D01*
X287769263Y-150418726D01*
X287758613Y-150413509D01*
X287719860Y-150392205D01*
X287700237Y-150387167D01*
X287681534Y-150380763D01*
X287670220Y-150375867D01*
X287670219Y-150375867D01*
X287662945Y-150372719D01*
X287655122Y-150371480D01*
X287655112Y-150371477D01*
X287619276Y-150365801D01*
X287607656Y-150363395D01*
X287572511Y-150354372D01*
X287572510Y-150354372D01*
X287564830Y-150352400D01*
X287544576Y-150352400D01*
X287524865Y-150350849D01*
X287512686Y-150348920D01*
X287504857Y-150347680D01*
X287475586Y-150350447D01*
X287460839Y-150351841D01*
X287448981Y-150352400D01*
X285985767Y-150352400D01*
X285974584Y-150351873D01*
X285967091Y-150350198D01*
X285959165Y-150350447D01*
X285959164Y-150350447D01*
X285899014Y-150352338D01*
X285895055Y-150352400D01*
X285867144Y-150352400D01*
X285863210Y-150352897D01*
X285863209Y-150352897D01*
X285863144Y-150352905D01*
X285851307Y-150353838D01*
X285819049Y-150354852D01*
X285815030Y-150354978D01*
X285807111Y-150355227D01*
X285787657Y-150360879D01*
X285768300Y-150364887D01*
X285756070Y-150366432D01*
X285756069Y-150366432D01*
X285748203Y-150367426D01*
X285740832Y-150370345D01*
X285740830Y-150370345D01*
X285707088Y-150383704D01*
X285695858Y-150387549D01*
X285661017Y-150397671D01*
X285661016Y-150397671D01*
X285653407Y-150399882D01*
X285646588Y-150403915D01*
X285646583Y-150403917D01*
X285635972Y-150410193D01*
X285618224Y-150418888D01*
X285599383Y-150426348D01*
X285592967Y-150431010D01*
X285592966Y-150431010D01*
X285563613Y-150452336D01*
X285553693Y-150458852D01*
X285522465Y-150477320D01*
X285522462Y-150477322D01*
X285515638Y-150481358D01*
X285501317Y-150495679D01*
X285486284Y-150508519D01*
X285469893Y-150520428D01*
X285461217Y-150530916D01*
X285441702Y-150554505D01*
X285433712Y-150563284D01*
X284088000Y-151908995D01*
X284025688Y-151943021D01*
X283998905Y-151945900D01*
X283943013Y-151945900D01*
X283936555Y-151947273D01*
X283936552Y-151947273D01*
X283923144Y-151950123D01*
X283852353Y-151944722D01*
X283795720Y-151901906D01*
X283771225Y-151835269D01*
X283780120Y-151779676D01*
X283880317Y-151531681D01*
X283902070Y-151444434D01*
X283947208Y-151263398D01*
X283947209Y-151263393D01*
X283948272Y-151259129D01*
X283951817Y-151225406D01*
X283977174Y-150984141D01*
X283977174Y-150984138D01*
X283977633Y-150979772D01*
X283976575Y-150949465D01*
X283967984Y-150703444D01*
X283967983Y-150703438D01*
X283967830Y-150699047D01*
X283965981Y-150688557D01*
X283934027Y-150507341D01*
X283919053Y-150422418D01*
X283832252Y-150155270D01*
X283829450Y-150149524D01*
X283740754Y-149967672D01*
X283709115Y-149902803D01*
X283706660Y-149899164D01*
X283706657Y-149899158D01*
X283568410Y-149694199D01*
X283552040Y-149669929D01*
X283364084Y-149461183D01*
X283148905Y-149280626D01*
X282910691Y-149131774D01*
X282654080Y-149017523D01*
X282429618Y-148953160D01*
X282388292Y-148941310D01*
X282388291Y-148941310D01*
X282384065Y-148940098D01*
X282379715Y-148939487D01*
X282379712Y-148939486D01*
X282276765Y-148925018D01*
X282105903Y-148901005D01*
X281895309Y-148901005D01*
X281893123Y-148901158D01*
X281893119Y-148901158D01*
X281689628Y-148915387D01*
X281689623Y-148915388D01*
X281685243Y-148915694D01*
X281410485Y-148974096D01*
X281406356Y-148975599D01*
X281406352Y-148975600D01*
X281150674Y-149068659D01*
X281150670Y-149068661D01*
X281146529Y-149070168D01*
X280898513Y-149202041D01*
X280894954Y-149204627D01*
X280894952Y-149204628D01*
X280716976Y-149333935D01*
X280671263Y-149367147D01*
X280668099Y-149370203D01*
X280668096Y-149370205D01*
X280619182Y-149417441D01*
X280469203Y-149562274D01*
X280296267Y-149783623D01*
X280294071Y-149787427D01*
X280294066Y-149787434D01*
X280190006Y-149967672D01*
X280155819Y-150026886D01*
X280050593Y-150287329D01*
X280049528Y-150291602D01*
X280049527Y-150291604D01*
X279989860Y-150530916D01*
X279982638Y-150559881D01*
X279982179Y-150564249D01*
X279982178Y-150564254D01*
X279971330Y-150667472D01*
X279944317Y-150733129D01*
X279886095Y-150773759D01*
X279846020Y-150780302D01*
X279766284Y-150780302D01*
X279764098Y-150780455D01*
X279764094Y-150780455D01*
X279560603Y-150794684D01*
X279560598Y-150794685D01*
X279556218Y-150794991D01*
X279281460Y-150853393D01*
X279125809Y-150910045D01*
X279054957Y-150914548D01*
X278992917Y-150880030D01*
X278961042Y-150820538D01*
X278960541Y-150820671D01*
X278959981Y-150818558D01*
X278959980Y-150818557D01*
X278948103Y-150773759D01*
X278925511Y-150688557D01*
X278923210Y-150679879D01*
X278915711Y-150667472D01*
X278852509Y-150562906D01*
X278852508Y-150562905D01*
X278847865Y-150555223D01*
X278841254Y-150549155D01*
X278841252Y-150549152D01*
X278746385Y-150462070D01*
X278740561Y-150456724D01*
X278717566Y-150444394D01*
X278688444Y-150428779D01*
X278688439Y-150428777D01*
X278685437Y-150427167D01*
X278587379Y-150387549D01*
X278565044Y-150378525D01*
X278509376Y-150334461D01*
X278486368Y-150267296D01*
X278503325Y-150198354D01*
X278554863Y-150149524D01*
X278612244Y-150135700D01*
X278780933Y-150135700D01*
X278792116Y-150136227D01*
X278799609Y-150137902D01*
X278807535Y-150137653D01*
X278807536Y-150137653D01*
X278867686Y-150135762D01*
X278871645Y-150135700D01*
X278899556Y-150135700D01*
X278903491Y-150135203D01*
X278903556Y-150135195D01*
X278915393Y-150134262D01*
X278947651Y-150133248D01*
X278951670Y-150133122D01*
X278959589Y-150132873D01*
X278979043Y-150127221D01*
X278998400Y-150123213D01*
X279010630Y-150121668D01*
X279010631Y-150121668D01*
X279018497Y-150120674D01*
X279025868Y-150117755D01*
X279025870Y-150117755D01*
X279059612Y-150104396D01*
X279070842Y-150100551D01*
X279105683Y-150090429D01*
X279105684Y-150090429D01*
X279113293Y-150088218D01*
X279120112Y-150084185D01*
X279120117Y-150084183D01*
X279130728Y-150077907D01*
X279148476Y-150069212D01*
X279167317Y-150061752D01*
X279203087Y-150035764D01*
X279213007Y-150029248D01*
X279244235Y-150010780D01*
X279244238Y-150010778D01*
X279251062Y-150006742D01*
X279265383Y-149992421D01*
X279280417Y-149979580D01*
X279282553Y-149978028D01*
X279296807Y-149967672D01*
X279324998Y-149933595D01*
X279332988Y-149924816D01*
X282041459Y-147216345D01*
X282103771Y-147182319D01*
X282174586Y-147187384D01*
X282204608Y-147203500D01*
X282281848Y-147259618D01*
X282287876Y-147262302D01*
X282287878Y-147262303D01*
X282450281Y-147334609D01*
X282456312Y-147337294D01*
X282549713Y-147357147D01*
X282636656Y-147375628D01*
X282636661Y-147375628D01*
X282643113Y-147377000D01*
X282834087Y-147377000D01*
X282840539Y-147375628D01*
X282840544Y-147375628D01*
X282927487Y-147357147D01*
X283020888Y-147337294D01*
X283026919Y-147334609D01*
X283189322Y-147262303D01*
X283189324Y-147262302D01*
X283195352Y-147259618D01*
X283349853Y-147147366D01*
X283477640Y-147005444D01*
X283573127Y-146840056D01*
X283632142Y-146658428D01*
X283652104Y-146468500D01*
X283632142Y-146278572D01*
X283573127Y-146096944D01*
X283477640Y-145931556D01*
X283461481Y-145913609D01*
X283354275Y-145794545D01*
X283354274Y-145794544D01*
X283349853Y-145789634D01*
X283195352Y-145677382D01*
X283189324Y-145674698D01*
X283189322Y-145674697D01*
X283026919Y-145602391D01*
X283026918Y-145602391D01*
X283020888Y-145599706D01*
X282927488Y-145579853D01*
X282840544Y-145561372D01*
X282840539Y-145561372D01*
X282834087Y-145560000D01*
X282643113Y-145560000D01*
X282636661Y-145561372D01*
X282636656Y-145561372D01*
X282549712Y-145579853D01*
X282456312Y-145599706D01*
X282450282Y-145602391D01*
X282450281Y-145602391D01*
X282287878Y-145674697D01*
X282287876Y-145674698D01*
X282281848Y-145677382D01*
X282127347Y-145789634D01*
X282122932Y-145794537D01*
X282118020Y-145798960D01*
X282116895Y-145797711D01*
X282063586Y-145830551D01*
X282030400Y-145835000D01*
X281972168Y-145835000D01*
X281960985Y-145834473D01*
X281953492Y-145832798D01*
X281945566Y-145833047D01*
X281945565Y-145833047D01*
X281885402Y-145834938D01*
X281881444Y-145835000D01*
X281853544Y-145835000D01*
X281849554Y-145835504D01*
X281837720Y-145836436D01*
X281793511Y-145837826D01*
X281785895Y-145840039D01*
X281785893Y-145840039D01*
X281774052Y-145843479D01*
X281754693Y-145847488D01*
X281753383Y-145847654D01*
X281734603Y-145850026D01*
X281727237Y-145852942D01*
X281727231Y-145852944D01*
X281693498Y-145866300D01*
X281682268Y-145870145D01*
X281647417Y-145880270D01*
X281639807Y-145882481D01*
X281632984Y-145886516D01*
X281622366Y-145892795D01*
X281604613Y-145901492D01*
X281596968Y-145904519D01*
X281585783Y-145908948D01*
X281579368Y-145913609D01*
X281550012Y-145934937D01*
X281540095Y-145941451D01*
X281502038Y-145963958D01*
X281487717Y-145978279D01*
X281472684Y-145991119D01*
X281456293Y-146003028D01*
X281451242Y-146009134D01*
X281428102Y-146037105D01*
X281420112Y-146045884D01*
X278634200Y-148831795D01*
X278571888Y-148865821D01*
X278545105Y-148868700D01*
X277658627Y-148868700D01*
X277649838Y-148868393D01*
X277604365Y-148865213D01*
X277604363Y-148865213D01*
X277596453Y-148864660D01*
X277544739Y-148874152D01*
X277538585Y-148875281D01*
X277531630Y-148876357D01*
X277473303Y-148883726D01*
X277465929Y-148886645D01*
X277458254Y-148888616D01*
X277458251Y-148888606D01*
X277454376Y-148889717D01*
X277454379Y-148889726D01*
X277446821Y-148892124D01*
X277439023Y-148893555D01*
X277431825Y-148896881D01*
X277431822Y-148896882D01*
X277385640Y-148918222D01*
X277379172Y-148920995D01*
X277324483Y-148942648D01*
X277318068Y-148947309D01*
X277311124Y-148951126D01*
X277311119Y-148951118D01*
X277307638Y-148953160D01*
X277307643Y-148953168D01*
X277300919Y-148957369D01*
X277293725Y-148960694D01*
X277287582Y-148965704D01*
X277248155Y-148997860D01*
X277242580Y-149002153D01*
X277201407Y-149032067D01*
X277201403Y-149032071D01*
X277194993Y-149036728D01*
X277189940Y-149042837D01*
X277184164Y-149048261D01*
X277184157Y-149048254D01*
X277181292Y-149051099D01*
X277181299Y-149051106D01*
X277175834Y-149056844D01*
X277169688Y-149061857D01*
X277163561Y-149070168D01*
X277134786Y-149109198D01*
X277130454Y-149114742D01*
X277092967Y-149160056D01*
X277089592Y-149167227D01*
X277085343Y-149173922D01*
X277085336Y-149173918D01*
X277083268Y-149177387D01*
X277083276Y-149177391D01*
X277079412Y-149184305D01*
X277074707Y-149190687D01*
X277071739Y-149198034D01*
X277071737Y-149198037D01*
X277052669Y-149245234D01*
X277049862Y-149251660D01*
X277024817Y-149304882D01*
X277023332Y-149312668D01*
X277020882Y-149320208D01*
X277020873Y-149320205D01*
X277016832Y-149333935D01*
X276924579Y-149562274D01*
X276918478Y-149577374D01*
X276874415Y-149633042D01*
X276807250Y-149656050D01*
X276754456Y-149647000D01*
X276231860Y-149435857D01*
X276171676Y-149418827D01*
X276163785Y-149418627D01*
X276163783Y-149418627D01*
X276055271Y-149415881D01*
X276026064Y-149415142D01*
X276017393Y-149417441D01*
X275893946Y-149450172D01*
X275893945Y-149450172D01*
X275885272Y-149452472D01*
X275760616Y-149527818D01*
X275754548Y-149534429D01*
X275754545Y-149534431D01*
X275728987Y-149562274D01*
X275662117Y-149635122D01*
X275632560Y-149690245D01*
X274659981Y-152097463D01*
X274642950Y-152157648D01*
X274642750Y-152165545D01*
X274642750Y-152165546D01*
X274640854Y-152240460D01*
X274639265Y-152303259D01*
X274676596Y-152444051D01*
X274751941Y-152568707D01*
X274758552Y-152574775D01*
X274758554Y-152574778D01*
X274840763Y-152650241D01*
X274859245Y-152667206D01*
X274866213Y-152670942D01*
X274911362Y-152695151D01*
X274911367Y-152695153D01*
X274914369Y-152696763D01*
X274917531Y-152698041D01*
X274917532Y-152698041D01*
X276763472Y-153443850D01*
X276819140Y-153487914D01*
X276842148Y-153555079D01*
X276825191Y-153624021D01*
X276803243Y-153651845D01*
X276727012Y-153724566D01*
X276685594Y-153764077D01*
X276682406Y-153768362D01*
X276564707Y-153926556D01*
X276547885Y-153949165D01*
X276545470Y-153953915D01*
X276449576Y-154142525D01*
X276443329Y-154154811D01*
X276417311Y-154238601D01*
X276376501Y-154370029D01*
X276376500Y-154370035D01*
X276374917Y-154375132D01*
X276366884Y-154435745D01*
X276352720Y-154542613D01*
X276344606Y-154603831D01*
X276353260Y-154834367D01*
X276400634Y-155060149D01*
X276485373Y-155274721D01*
X276605053Y-155471948D01*
X276608550Y-155475978D01*
X276751125Y-155640281D01*
X276756253Y-155646191D01*
X276760384Y-155649578D01*
X276930521Y-155789083D01*
X276930527Y-155789087D01*
X276934649Y-155792467D01*
X277135141Y-155906593D01*
X277140157Y-155908414D01*
X277140162Y-155908416D01*
X277346981Y-155983488D01*
X277346985Y-155983489D01*
X277351996Y-155985308D01*
X277357245Y-155986257D01*
X277357248Y-155986258D01*
X277574929Y-156025621D01*
X277574936Y-156025622D01*
X277579013Y-156026359D01*
X277596750Y-156027195D01*
X277601698Y-156027429D01*
X277601705Y-156027429D01*
X277603186Y-156027499D01*
X277765331Y-156027499D01*
X277832287Y-156021818D01*
X277931968Y-156013360D01*
X277931972Y-156013359D01*
X277937279Y-156012909D01*
X277942434Y-156011571D01*
X277942440Y-156011570D01*
X278155409Y-155956294D01*
X278155413Y-155956293D01*
X278160578Y-155954952D01*
X278165444Y-155952760D01*
X278165447Y-155952759D01*
X278366055Y-155862392D01*
X278370921Y-155860200D01*
X278375341Y-155857224D01*
X278375345Y-155857222D01*
X278525462Y-155756156D01*
X278593141Y-155734705D01*
X278661673Y-155753248D01*
X278709300Y-155805899D01*
X278720902Y-155875942D01*
X278692794Y-155941137D01*
X278684927Y-155949769D01*
X276016922Y-158617773D01*
X273368247Y-161266448D01*
X273359961Y-161273988D01*
X273353482Y-161278100D01*
X273348057Y-161283877D01*
X273306857Y-161327751D01*
X273304102Y-161330593D01*
X273284365Y-161350330D01*
X273281885Y-161353527D01*
X273274182Y-161362547D01*
X273243914Y-161394779D01*
X273240095Y-161401725D01*
X273240093Y-161401728D01*
X273234152Y-161412534D01*
X273223301Y-161429053D01*
X273210886Y-161445059D01*
X273207741Y-161452328D01*
X273207738Y-161452332D01*
X273193326Y-161485637D01*
X273188109Y-161496287D01*
X273166805Y-161535040D01*
X273164834Y-161542715D01*
X273164834Y-161542716D01*
X273161767Y-161554662D01*
X273155363Y-161573366D01*
X273147319Y-161591955D01*
X273146080Y-161599778D01*
X273146077Y-161599788D01*
X273140401Y-161635624D01*
X273137995Y-161647244D01*
X273127000Y-161690070D01*
X273127000Y-161710324D01*
X273125449Y-161730034D01*
X273122280Y-161750043D01*
X273123026Y-161757935D01*
X273126441Y-161794061D01*
X273127000Y-161805919D01*
X273127000Y-163991543D01*
X273106998Y-164059664D01*
X273053342Y-164106157D01*
X272983068Y-164116261D01*
X272974802Y-164114789D01*
X272936151Y-164106573D01*
X272936142Y-164106572D01*
X272929687Y-164105200D01*
X272738713Y-164105200D01*
X272732261Y-164106572D01*
X272732256Y-164106572D01*
X272660033Y-164121924D01*
X272551912Y-164144906D01*
X272545882Y-164147591D01*
X272545881Y-164147591D01*
X272383478Y-164219897D01*
X272383476Y-164219898D01*
X272377448Y-164222582D01*
X272372107Y-164226462D01*
X272372106Y-164226463D01*
X272351451Y-164241470D01*
X272222947Y-164334834D01*
X272218526Y-164339744D01*
X272218525Y-164339745D01*
X272101664Y-164469533D01*
X272095160Y-164476756D01*
X272071243Y-164518182D01*
X272011874Y-164621012D01*
X271999673Y-164642144D01*
X271940658Y-164823772D01*
X271939968Y-164830333D01*
X271939968Y-164830335D01*
X271926431Y-164959134D01*
X271920696Y-165013700D01*
X271921386Y-165020265D01*
X271938878Y-165186688D01*
X271940658Y-165203628D01*
X271999673Y-165385256D01*
X272095160Y-165550644D01*
X272099578Y-165555551D01*
X272099579Y-165555552D01*
X272184109Y-165649432D01*
X272222947Y-165692566D01*
X272377448Y-165804818D01*
X272383476Y-165807502D01*
X272383478Y-165807503D01*
X272537544Y-165876097D01*
X272551912Y-165882494D01*
X272645312Y-165902347D01*
X272732256Y-165920828D01*
X272732261Y-165920828D01*
X272738713Y-165922200D01*
X272929687Y-165922200D01*
X272936139Y-165920828D01*
X272936144Y-165920828D01*
X273023088Y-165902347D01*
X273116488Y-165882494D01*
X273130856Y-165876097D01*
X273284922Y-165807503D01*
X273284924Y-165807502D01*
X273290952Y-165804818D01*
X273445453Y-165692566D01*
X273449868Y-165687663D01*
X273454780Y-165683240D01*
X273455905Y-165684489D01*
X273509214Y-165651649D01*
X273542400Y-165647200D01*
X273688707Y-165647200D01*
X273712316Y-165649432D01*
X273712619Y-165649490D01*
X273712623Y-165649490D01*
X273720406Y-165650975D01*
X273776451Y-165647449D01*
X273784362Y-165647200D01*
X275818306Y-165647200D01*
X275886427Y-165667202D01*
X275907401Y-165684105D01*
X277571037Y-167347741D01*
X277605063Y-167410053D01*
X277599998Y-167480868D01*
X277557451Y-167537704D01*
X277546089Y-167545284D01*
X277523138Y-167558858D01*
X277508817Y-167573179D01*
X277493784Y-167586019D01*
X277477393Y-167597928D01*
X277464671Y-167613306D01*
X277449202Y-167632005D01*
X277441212Y-167640784D01*
X277006174Y-168075822D01*
X276943862Y-168109848D01*
X276873047Y-168104783D01*
X276816211Y-168062236D01*
X276797246Y-168025663D01*
X276786007Y-167991071D01*
X276714752Y-167771770D01*
X276591615Y-167519303D01*
X276589160Y-167515664D01*
X276589157Y-167515658D01*
X276475895Y-167347741D01*
X276434540Y-167286429D01*
X276423778Y-167274476D01*
X276312537Y-167150931D01*
X276246584Y-167077683D01*
X276031405Y-166897126D01*
X275793191Y-166748274D01*
X275536580Y-166634023D01*
X275328739Y-166574426D01*
X275270792Y-166557810D01*
X275270791Y-166557810D01*
X275266565Y-166556598D01*
X275262215Y-166555987D01*
X275262212Y-166555986D01*
X275131358Y-166537596D01*
X274988403Y-166517505D01*
X274777809Y-166517505D01*
X274775623Y-166517658D01*
X274775619Y-166517658D01*
X274572128Y-166531887D01*
X274572123Y-166531888D01*
X274567743Y-166532194D01*
X274292985Y-166590596D01*
X274288856Y-166592099D01*
X274288852Y-166592100D01*
X274033174Y-166685159D01*
X274033170Y-166685161D01*
X274029029Y-166686668D01*
X273781013Y-166818541D01*
X273777454Y-166821127D01*
X273777452Y-166821128D01*
X273637047Y-166923138D01*
X273553763Y-166983647D01*
X273550599Y-166986703D01*
X273550596Y-166986705D01*
X273501682Y-167033941D01*
X273351703Y-167178774D01*
X273178767Y-167400123D01*
X273176571Y-167403927D01*
X273176566Y-167403934D01*
X273071439Y-167586020D01*
X273038319Y-167643386D01*
X272933093Y-167903829D01*
X272932028Y-167908102D01*
X272932027Y-167908104D01*
X272874747Y-168137843D01*
X272865138Y-168176381D01*
X272864679Y-168180749D01*
X272864678Y-168180754D01*
X272853830Y-168283972D01*
X272826817Y-168349629D01*
X272768595Y-168390259D01*
X272728520Y-168396802D01*
X272648784Y-168396802D01*
X272646598Y-168396955D01*
X272646594Y-168396955D01*
X272443103Y-168411184D01*
X272443098Y-168411185D01*
X272438718Y-168411491D01*
X272163960Y-168469893D01*
X272008309Y-168526545D01*
X271937457Y-168531048D01*
X271875417Y-168496530D01*
X271843542Y-168437038D01*
X271843041Y-168437171D01*
X271842481Y-168435058D01*
X271842480Y-168435057D01*
X271841374Y-168430882D01*
X271808011Y-168305057D01*
X271805710Y-168296379D01*
X271783918Y-168260324D01*
X271735009Y-168179406D01*
X271735008Y-168179405D01*
X271730365Y-168171723D01*
X271723754Y-168165655D01*
X271723752Y-168165652D01*
X271628885Y-168078570D01*
X271623061Y-168073224D01*
X271599321Y-168060495D01*
X271570944Y-168045279D01*
X271570939Y-168045277D01*
X271567937Y-168043667D01*
X271437758Y-167991071D01*
X270622266Y-167661591D01*
X269114360Y-167052357D01*
X269054176Y-167035327D01*
X269046285Y-167035127D01*
X269046283Y-167035127D01*
X268937771Y-167032381D01*
X268908564Y-167031642D01*
X268899893Y-167033941D01*
X268776446Y-167066672D01*
X268776445Y-167066672D01*
X268767772Y-167068972D01*
X268760092Y-167073614D01*
X268736012Y-167088169D01*
X268643116Y-167144318D01*
X268637048Y-167150929D01*
X268637045Y-167150931D01*
X268611487Y-167178774D01*
X268544617Y-167251622D01*
X268540884Y-167258584D01*
X268525215Y-167287807D01*
X268515060Y-167306745D01*
X268513782Y-167309907D01*
X268513782Y-167309908D01*
X268478733Y-167396658D01*
X267542481Y-169713963D01*
X267525450Y-169774148D01*
X267525250Y-169782045D01*
X267525250Y-169782046D01*
X267522045Y-169908685D01*
X267521765Y-169919759D01*
X267559096Y-170060551D01*
X267563739Y-170068232D01*
X267563739Y-170068233D01*
X267586148Y-170105307D01*
X267634441Y-170185207D01*
X267641052Y-170191275D01*
X267641054Y-170191278D01*
X267735921Y-170278360D01*
X267741745Y-170283706D01*
X267753105Y-170289797D01*
X267793862Y-170311651D01*
X267793867Y-170311653D01*
X267796869Y-170313263D01*
X267800031Y-170314541D01*
X267800032Y-170314541D01*
X267992480Y-170392295D01*
X268315556Y-170522826D01*
X268319481Y-170524412D01*
X268375149Y-170568476D01*
X268398157Y-170635641D01*
X268389106Y-170688435D01*
X268320714Y-170857716D01*
X268292984Y-170899611D01*
X266688847Y-172503748D01*
X266680561Y-172511288D01*
X266674082Y-172515400D01*
X266668657Y-172521177D01*
X266627457Y-172565051D01*
X266624702Y-172567893D01*
X266604965Y-172587630D01*
X266602485Y-172590827D01*
X266594782Y-172599847D01*
X266564514Y-172632079D01*
X266560695Y-172639025D01*
X266560693Y-172639028D01*
X266554752Y-172649834D01*
X266543901Y-172666353D01*
X266531486Y-172682359D01*
X266528341Y-172689628D01*
X266528338Y-172689632D01*
X266513926Y-172722937D01*
X266508709Y-172733587D01*
X266487405Y-172772340D01*
X266485434Y-172780015D01*
X266485434Y-172780016D01*
X266482367Y-172791962D01*
X266475963Y-172810666D01*
X266467919Y-172829255D01*
X266466680Y-172837078D01*
X266466677Y-172837088D01*
X266461001Y-172872924D01*
X266458595Y-172884544D01*
X266452297Y-172909076D01*
X266447600Y-172927370D01*
X266447600Y-172947624D01*
X266446049Y-172967334D01*
X266442880Y-172987343D01*
X257443929Y-172987343D01*
X257507321Y-138913836D01*
X257527450Y-138845753D01*
X257581192Y-138799360D01*
X257633235Y-138788071D01*
X264836551Y-138783179D01*
X271692273Y-138778524D01*
X271692937Y-138778526D01*
X271769721Y-138778995D01*
X271798374Y-138770806D01*
X271815024Y-138767246D01*
X271844521Y-138763001D01*
X271867683Y-138752450D01*
X271885291Y-138745965D01*
X271901132Y-138741438D01*
X271901139Y-138741435D01*
X271909771Y-138738968D01*
X271934979Y-138723063D01*
X271949962Y-138714973D01*
X271977075Y-138702623D01*
X271996346Y-138685995D01*
X272011425Y-138674830D01*
X272025362Y-138666036D01*
X272025364Y-138666034D01*
X272032958Y-138661243D01*
X272052679Y-138638913D01*
X272064801Y-138626930D01*
X272087356Y-138607469D01*
X272101197Y-138586083D01*
X272112520Y-138571156D01*
X272129378Y-138552068D01*
X272142036Y-138525107D01*
X272150309Y-138510201D01*
X272166498Y-138485187D01*
X272173776Y-138460788D01*
X272180459Y-138443268D01*
X272191281Y-138420219D01*
X272195865Y-138390782D01*
X272199623Y-138374148D01*
X272205570Y-138354213D01*
X272208137Y-138345608D01*
X272208323Y-138311251D01*
X272208351Y-138310591D01*
X272208500Y-138309633D01*
X272208500Y-138279081D01*
X272208502Y-138278397D01*
X272208909Y-138203507D01*
X272208909Y-138203503D01*
X272208928Y-138199952D01*
X272208583Y-138198746D01*
X272208500Y-138197541D01*
X272208500Y-128998134D01*
X273941500Y-128998134D01*
X273948255Y-129060316D01*
X273999385Y-129196705D01*
X274086739Y-129313261D01*
X274203295Y-129400615D01*
X274339684Y-129451745D01*
X274401866Y-129458500D01*
X280498134Y-129458500D01*
X280560316Y-129451745D01*
X280696705Y-129400615D01*
X280813261Y-129313261D01*
X280900615Y-129196705D01*
X280951745Y-129060316D01*
X280958500Y-128998134D01*
X280958500Y-126901866D01*
X280951745Y-126839684D01*
X280900615Y-126703295D01*
X280813261Y-126586739D01*
X280696705Y-126499385D01*
X280560316Y-126448255D01*
X280498134Y-126441500D01*
X274401866Y-126441500D01*
X274339684Y-126448255D01*
X274203295Y-126499385D01*
X274086739Y-126586739D01*
X273999385Y-126703295D01*
X273948255Y-126839684D01*
X273941500Y-126901866D01*
X273941500Y-128998134D01*
X272208500Y-128998134D01*
X272208500Y-123248134D01*
X273941500Y-123248134D01*
X273948255Y-123310316D01*
X273999385Y-123446705D01*
X274086739Y-123563261D01*
X274203295Y-123650615D01*
X274339684Y-123701745D01*
X274401866Y-123708500D01*
X280498134Y-123708500D01*
X280560316Y-123701745D01*
X280696705Y-123650615D01*
X280813261Y-123563261D01*
X280900615Y-123446705D01*
X280951745Y-123310316D01*
X280958500Y-123248134D01*
X280958500Y-121151866D01*
X280951745Y-121089684D01*
X280900615Y-120953295D01*
X280813261Y-120836739D01*
X280696705Y-120749385D01*
X280560316Y-120698255D01*
X280498134Y-120691500D01*
X274401866Y-120691500D01*
X274339684Y-120698255D01*
X274203295Y-120749385D01*
X274086739Y-120836739D01*
X273999385Y-120953295D01*
X273948255Y-121089684D01*
X273941500Y-121151866D01*
X273941500Y-123248134D01*
X272208500Y-123248134D01*
X272208500Y-115748134D01*
X273941500Y-115748134D01*
X273948255Y-115810316D01*
X273999385Y-115946705D01*
X274086739Y-116063261D01*
X274203295Y-116150615D01*
X274339684Y-116201745D01*
X274401866Y-116208500D01*
X280498134Y-116208500D01*
X280560316Y-116201745D01*
X280696705Y-116150615D01*
X280813261Y-116063261D01*
X280900615Y-115946705D01*
X280951745Y-115810316D01*
X280958500Y-115748134D01*
X280958500Y-113651866D01*
X280951745Y-113589684D01*
X280900615Y-113453295D01*
X280813261Y-113336739D01*
X280696705Y-113249385D01*
X280560316Y-113198255D01*
X280498134Y-113191500D01*
X274401866Y-113191500D01*
X274339684Y-113198255D01*
X274203295Y-113249385D01*
X274086739Y-113336739D01*
X273999385Y-113453295D01*
X273948255Y-113589684D01*
X273941500Y-113651866D01*
X273941500Y-115748134D01*
X272208500Y-115748134D01*
X272208500Y-108248134D01*
X273941500Y-108248134D01*
X273948255Y-108310316D01*
X273999385Y-108446705D01*
X274086739Y-108563261D01*
X274203295Y-108650615D01*
X274339684Y-108701745D01*
X274401866Y-108708500D01*
X280498134Y-108708500D01*
X280560316Y-108701745D01*
X280696705Y-108650615D01*
X280813261Y-108563261D01*
X280900615Y-108446705D01*
X280951745Y-108310316D01*
X280958500Y-108248134D01*
X280958500Y-106151866D01*
X280951745Y-106089684D01*
X280900615Y-105953295D01*
X280813261Y-105836739D01*
X280696705Y-105749385D01*
X280560316Y-105698255D01*
X280498134Y-105691500D01*
X274401866Y-105691500D01*
X274339684Y-105698255D01*
X274203295Y-105749385D01*
X274086739Y-105836739D01*
X273999385Y-105953295D01*
X273948255Y-106089684D01*
X273941500Y-106151866D01*
X273941500Y-108248134D01*
X272208500Y-108248134D01*
X272208500Y-100998134D01*
X273941500Y-100998134D01*
X273948255Y-101060316D01*
X273999385Y-101196705D01*
X274086739Y-101313261D01*
X274203295Y-101400615D01*
X274339684Y-101451745D01*
X274401866Y-101458500D01*
X280498134Y-101458500D01*
X280560316Y-101451745D01*
X280696705Y-101400615D01*
X280813261Y-101313261D01*
X280900615Y-101196705D01*
X280951745Y-101060316D01*
X280958500Y-100998134D01*
X280958500Y-98901866D01*
X280951745Y-98839684D01*
X280900615Y-98703295D01*
X280813261Y-98586739D01*
X280696705Y-98499385D01*
X280560316Y-98448255D01*
X280498134Y-98441500D01*
X274401866Y-98441500D01*
X274339684Y-98448255D01*
X274203295Y-98499385D01*
X274086739Y-98586739D01*
X273999385Y-98703295D01*
X273948255Y-98839684D01*
X273941500Y-98901866D01*
X273941500Y-100998134D01*
X272208500Y-100998134D01*
X272208500Y-93498134D01*
X273941500Y-93498134D01*
X273948255Y-93560316D01*
X273999385Y-93696705D01*
X274086739Y-93813261D01*
X274203295Y-93900615D01*
X274339684Y-93951745D01*
X274401866Y-93958500D01*
X280498134Y-93958500D01*
X280560316Y-93951745D01*
X280696705Y-93900615D01*
X280813261Y-93813261D01*
X280900615Y-93696705D01*
X280951745Y-93560316D01*
X280958500Y-93498134D01*
X280958500Y-91401866D01*
X280951745Y-91339684D01*
X280900615Y-91203295D01*
X280813261Y-91086739D01*
X280696705Y-90999385D01*
X280560316Y-90948255D01*
X280498134Y-90941500D01*
X274401866Y-90941500D01*
X274339684Y-90948255D01*
X274203295Y-90999385D01*
X274086739Y-91086739D01*
X273999385Y-91203295D01*
X273948255Y-91339684D01*
X273941500Y-91401866D01*
X273941500Y-93498134D01*
X272208500Y-93498134D01*
X272208500Y-85748134D01*
X273941500Y-85748134D01*
X273948255Y-85810316D01*
X273999385Y-85946705D01*
X274086739Y-86063261D01*
X274203295Y-86150615D01*
X274339684Y-86201745D01*
X274401866Y-86208500D01*
X280498134Y-86208500D01*
X280560316Y-86201745D01*
X280696705Y-86150615D01*
X280813261Y-86063261D01*
X280900615Y-85946705D01*
X280951745Y-85810316D01*
X280958500Y-85748134D01*
X280958500Y-83651866D01*
X280951745Y-83589684D01*
X280900615Y-83453295D01*
X280813261Y-83336739D01*
X280696705Y-83249385D01*
X280560316Y-83198255D01*
X280498134Y-83191500D01*
X274401866Y-83191500D01*
X274339684Y-83198255D01*
X274203295Y-83249385D01*
X274086739Y-83336739D01*
X273999385Y-83453295D01*
X273948255Y-83589684D01*
X273941500Y-83651866D01*
X273941500Y-85748134D01*
X272208500Y-85748134D01*
X272208500Y-79248134D01*
X273941500Y-79248134D01*
X273948255Y-79310316D01*
X273999385Y-79446705D01*
X274086739Y-79563261D01*
X274203295Y-79650615D01*
X274339684Y-79701745D01*
X274401866Y-79708500D01*
X280498134Y-79708500D01*
X280560316Y-79701745D01*
X280696705Y-79650615D01*
X280813261Y-79563261D01*
X280900615Y-79446705D01*
X280951745Y-79310316D01*
X280958500Y-79248134D01*
X280958500Y-77151866D01*
X280951745Y-77089684D01*
X280900615Y-76953295D01*
X280813261Y-76836739D01*
X280696705Y-76749385D01*
X280560316Y-76698255D01*
X280498134Y-76691500D01*
X274401866Y-76691500D01*
X274339684Y-76698255D01*
X274203295Y-76749385D01*
X274086739Y-76836739D01*
X273999385Y-76953295D01*
X273948255Y-77089684D01*
X273941500Y-77151866D01*
X273941500Y-79248134D01*
X272208500Y-79248134D01*
X272208500Y-72622043D01*
X272228502Y-72553922D01*
X272282158Y-72507429D01*
X272334500Y-72496043D01*
X282165500Y-72496043D01*
X282233621Y-72516045D01*
G37*
%TD.AperFunction*%
M02*
