%TF.GenerationSoftware,KiCad,Pcbnew,6.0.10-86aedd382b~118~ubuntu22.04.1*%
%TF.CreationDate,2023-01-31T18:18:49-07:00*%
%TF.ProjectId,scaarix_flow_thumb_cluster,73636161-7269-4785-9f66-6c6f775f7468,v1.0.0*%
%TF.SameCoordinates,Original*%
%TF.FileFunction,Paste,Bot*%
%TF.FilePolarity,Positive*%
%FSLAX46Y46*%
G04 Gerber Fmt 4.6, Leading zero omitted, Abs format (unit mm)*
G04 Created by KiCad (PCBNEW 6.0.10-86aedd382b~118~ubuntu22.04.1) date 2023-01-31 18:18:49*
%MOMM*%
%LPD*%
G01*
G04 APERTURE LIST*
G04 Aperture macros list*
%AMRotRect*
0 Rectangle, with rotation*
0 The origin of the aperture is its center*
0 $1 length*
0 $2 width*
0 $3 Rotation angle, in degrees counterclockwise*
0 Add horizontal line*
21,1,$1,$2,0,0,$3*%
G04 Aperture macros list end*
%ADD10RotRect,0.900000X1.200000X329.000000*%
%ADD11RotRect,0.900000X1.200000X338.000000*%
%ADD12RotRect,2.550000X2.500000X338.000000*%
%ADD13RotRect,2.550000X2.500000X329.000000*%
%ADD14R,2.200000X2.000000*%
%ADD15RotRect,2.600000X1.000000X158.000000*%
%ADD16RotRect,2.000000X1.200000X158.000000*%
%ADD17RotRect,2.600000X1.000000X149.000000*%
%ADD18RotRect,2.000000X1.200000X149.000000*%
G04 APERTURE END LIST*
D10*
%TO.C,D27*%
X298179374Y-173201887D03*
X301008026Y-174901513D03*
%TD*%
D11*
%TO.C,D25*%
X277703547Y-163834099D03*
X280763253Y-165070301D03*
%TD*%
D12*
%TO.C,S25*%
X276799903Y-151561965D03*
X289737110Y-154049458D03*
%TD*%
D10*
%TO.C,D26*%
X288393674Y-189487987D03*
X291222326Y-191187613D03*
%TD*%
D13*
%TO.C,S27*%
X299206666Y-160939450D03*
X311595465Y-165420143D03*
%TD*%
D11*
%TO.C,D24*%
X270585947Y-181450499D03*
X273645653Y-182686701D03*
%TD*%
D12*
%TO.C,S24*%
X269682403Y-169178465D03*
X282619610Y-171665958D03*
%TD*%
D13*
%TO.C,S26*%
X289420966Y-177225650D03*
X301809765Y-181706343D03*
%TD*%
D14*
%TO.C,J2*%
X279350000Y-78200000D03*
X275550000Y-78200000D03*
X279350000Y-84700000D03*
X275550000Y-84700000D03*
X279350000Y-92450000D03*
X275550000Y-92450000D03*
X279350000Y-99950000D03*
X275550000Y-99950000D03*
X279350000Y-107200000D03*
X275550000Y-107200000D03*
X275550000Y-114700000D03*
X279350000Y-114700000D03*
X275550000Y-122200000D03*
X279350000Y-122200000D03*
X279350000Y-127950000D03*
X275550000Y-127950000D03*
%TD*%
D15*
%TO.C,LED52*%
X282967585Y-161225349D03*
X282312024Y-162847920D03*
X278232415Y-161199651D03*
X278887976Y-159577080D03*
D16*
X283517330Y-160665522D03*
X282318589Y-163632511D03*
X277682670Y-161759478D03*
X278881411Y-158792489D03*
%TD*%
D15*
%TO.C,LED51*%
X275767585Y-178825349D03*
X275112024Y-180447920D03*
X271032415Y-178799651D03*
X271687976Y-177177080D03*
D16*
X276317330Y-178265522D03*
X275118589Y-181232511D03*
X270482670Y-179359478D03*
X271681411Y-176392489D03*
%TD*%
D17*
%TO.C,LED54*%
X303736426Y-171395562D03*
X302835110Y-172895605D03*
X299063574Y-170629438D03*
X299964890Y-169129395D03*
D18*
X304366979Y-170928628D03*
X302718857Y-173671563D03*
X298433021Y-171096372D03*
X300081143Y-168353437D03*
%TD*%
D17*
%TO.C,LED53*%
X293936426Y-187695562D03*
X293035110Y-189195605D03*
X289263574Y-186929438D03*
X290164890Y-185429395D03*
D18*
X294566979Y-187228628D03*
X292918857Y-189971563D03*
X288633021Y-187396372D03*
X290281143Y-184653437D03*
%TD*%
M02*
