M48
; DRILL file {KiCad 6.0.10-86aedd382b~118~ubuntu22.04.1} date Tue 31 Jan 2023 06:18:51 PM MST
; FORMAT={-:-/ absolute / inch / decimal}
; #@! TF.CreationDate,2023-01-31T18:18:51-07:00
; #@! TF.GenerationSoftware,Kicad,Pcbnew,6.0.10-86aedd382b~118~ubuntu22.04.1
; #@! TF.FileFunction,Plated,1,2,PTH
FMAT,2
INCH
; #@! TA.AperFunction,Plated,PTH,ViaDrill
T1C0.0157
; #@! TA.AperFunction,Plated,PTH,ComponentDrill
T2C0.0157
; #@! TA.AperFunction,Plated,PTH,ComponentDrill
T3C0.0390
%
G90
G05
T1
X10.7177Y-7.135
X10.7415Y-6.4966
X10.7482Y-7.0988
X10.7552Y-7.0399
X10.7707Y-6.9617
X10.9138Y-6.9591
X10.963Y-6.6286
X11.0315Y-6.412
X11.0491Y-6.3535
X11.0539Y-6.2692
X11.0585Y-6.3137
X11.1314Y-5.7665
X11.1826Y-6.0179
X11.2193Y-6.98
X11.2193Y-7.1619
X11.3382Y-7.0792
X11.3967Y-6.5831
X11.4608Y-7.4137
X11.4689Y-7.3696
X11.5077Y-7.2801
X11.528Y-6.784
X11.6501Y-7.3162
X11.7318Y-6.6332
X11.7477Y-6.8997
X11.7664Y-7.0012
X11.8286Y-6.8263
X11.8519Y-6.7282
X12.0415Y-6.7976
T2
X10.9232Y-3.0787
X10.9232Y-3.3346
X10.9232Y-3.6398
X10.9232Y-3.935
X10.9232Y-4.2205
X10.9232Y-4.5157
X10.9232Y-4.811
X10.9232Y-5.0374
T3
X10.5741Y-7.1119
X10.8523Y-7.2242
X10.8544Y-6.4183
X11.1325Y-6.5307
X11.2812Y-7.4164
X11.5383Y-7.5709
X11.6665Y-6.7752
X11.9236Y-6.9297
T0
M30
