%TF.GenerationSoftware,KiCad,Pcbnew,6.0.10-86aedd382b~118~ubuntu22.04.1*%
%TF.CreationDate,2023-01-31T18:19:09-07:00*%
%TF.ProjectId,scaarix_flow_bridge,73636161-7269-4785-9f66-6c6f775f6272,v1.0.0*%
%TF.SameCoordinates,Original*%
%TF.FileFunction,Legend,Bot*%
%TF.FilePolarity,Positive*%
%FSLAX46Y46*%
G04 Gerber Fmt 4.6, Leading zero omitted, Abs format (unit mm)*
G04 Created by KiCad (PCBNEW 6.0.10-86aedd382b~118~ubuntu22.04.1) date 2023-01-31 18:19:09*
%MOMM*%
%LPD*%
G01*
G04 APERTURE LIST*
%ADD10C,0.150000*%
G04 APERTURE END LIST*
D10*
X301652380Y-100745238D02*
X302366666Y-100745238D01*
X302509523Y-100697619D01*
X302604761Y-100602380D01*
X302652380Y-100459523D01*
X302652380Y-100364285D01*
X301652380Y-101221428D02*
X302461904Y-101221428D01*
X302557142Y-101269047D01*
X302604761Y-101316666D01*
X302652380Y-101411904D01*
X302652380Y-101602380D01*
X302604761Y-101697619D01*
X302557142Y-101745238D01*
X302461904Y-101792857D01*
X301652380Y-101792857D01*
X302652380Y-102269047D02*
X301652380Y-102269047D01*
X302366666Y-102602380D01*
X301652380Y-102935714D01*
X302652380Y-102935714D01*
X302652380Y-103411904D02*
X301652380Y-103411904D01*
X301652380Y-103792857D01*
X301700000Y-103888095D01*
X301747619Y-103935714D01*
X301842857Y-103983333D01*
X301985714Y-103983333D01*
X302080952Y-103935714D01*
X302128571Y-103888095D01*
X302176190Y-103792857D01*
X302176190Y-103411904D01*
X302128571Y-104411904D02*
X302128571Y-104745238D01*
X302652380Y-104888095D02*
X302652380Y-104411904D01*
X301652380Y-104411904D01*
X301652380Y-104888095D01*
X302652380Y-105888095D02*
X302176190Y-105554761D01*
X302652380Y-105316666D02*
X301652380Y-105316666D01*
X301652380Y-105697619D01*
X301700000Y-105792857D01*
X301747619Y-105840476D01*
X301842857Y-105888095D01*
X301985714Y-105888095D01*
X302080952Y-105840476D01*
X302128571Y-105792857D01*
X302176190Y-105697619D01*
X302176190Y-105316666D01*
M02*
