%TF.GenerationSoftware,KiCad,Pcbnew,6.0.10-86aedd382b~118~ubuntu22.04.1*%
%TF.CreationDate,2023-01-31T18:19:09-07:00*%
%TF.ProjectId,scaarix_flow_bridge,73636161-7269-4785-9f66-6c6f775f6272,v1.0.0*%
%TF.SameCoordinates,Original*%
%TF.FileFunction,Copper,L1,Top*%
%TF.FilePolarity,Positive*%
%FSLAX46Y46*%
G04 Gerber Fmt 4.6, Leading zero omitted, Abs format (unit mm)*
G04 Created by KiCad (PCBNEW 6.0.10-86aedd382b~118~ubuntu22.04.1) date 2023-01-31 18:19:09*
%MOMM*%
%LPD*%
G01*
G04 APERTURE LIST*
%TA.AperFunction,ComponentPad*%
%ADD10R,2.000000X2.000000*%
%TD*%
%TA.AperFunction,Conductor*%
%ADD11C,1.270000*%
%TD*%
G04 APERTURE END LIST*
D10*
%TO.P,J3,1,Pin_1*%
%TO.N,P10*%
X293800000Y-78050000D03*
%TO.P,J3,2,Pin_2*%
%TO.N,P16*%
X293800000Y-84550000D03*
%TO.P,J3,3,Pin_3*%
%TO.N,P18*%
X293550000Y-92300000D03*
%TO.P,J3,4,Pin_4*%
%TO.N,P19*%
X293800000Y-99800000D03*
%TO.P,J3,5,Pin_5*%
%TO.N,VCC*%
X293800000Y-107050000D03*
%TO.P,J3,6,Pin_6*%
%TO.N,D1*%
X293800000Y-114550000D03*
%TO.P,J3,7,Pin_6*%
%TO.N,P1*%
X293800000Y-122050000D03*
%TO.P,J3,8,Pin_6*%
%TO.N,GND*%
X293800000Y-127800000D03*
%TD*%
%TO.P,J4,1,Pin_1*%
%TO.N,P10*%
X311800000Y-78050000D03*
%TO.P,J4,2,Pin_2*%
%TO.N,P16*%
X311800000Y-84550000D03*
%TO.P,J4,3,Pin_3*%
%TO.N,P18*%
X311550000Y-92300000D03*
%TO.P,J4,4,Pin_4*%
%TO.N,P19*%
X311800000Y-99800000D03*
%TO.P,J4,5,Pin_5*%
%TO.N,VCC*%
X311800000Y-107050000D03*
%TO.P,J4,6,Pin_6*%
%TO.N,D1*%
X311800000Y-114550000D03*
%TO.P,J4,7*%
%TO.N,P1*%
X311800000Y-122050000D03*
%TO.P,J4,8*%
%TO.N,GND*%
X311800000Y-127800000D03*
%TD*%
D11*
%TO.N,GND*%
X293800000Y-127800000D02*
X311800000Y-127800000D01*
%TO.N,VCC*%
X293800000Y-107050000D02*
X311800000Y-107050000D01*
%TO.N,P19*%
X293800000Y-99800000D02*
X311800000Y-99800000D01*
%TO.N,P18*%
X293550000Y-92300000D02*
X311550000Y-92300000D01*
%TO.N,P16*%
X293800000Y-84550000D02*
X311800000Y-84550000D01*
%TO.N,P10*%
X293800000Y-78050000D02*
X311800000Y-78050000D01*
%TO.N,P1*%
X293800000Y-122050000D02*
X311800000Y-122050000D01*
%TO.N,D1*%
X293800000Y-114550000D02*
X311800000Y-114550000D01*
%TD*%
%TA.AperFunction,NonConductor*%
G36*
X312233621Y-74428502D02*
G01*
X312280114Y-74482158D01*
X312291500Y-74534500D01*
X312291500Y-76415500D01*
X312271498Y-76483621D01*
X312217842Y-76530114D01*
X312165500Y-76541500D01*
X310751866Y-76541500D01*
X310689684Y-76548255D01*
X310553295Y-76599385D01*
X310436739Y-76686739D01*
X310349385Y-76803295D01*
X310346232Y-76811704D01*
X310346231Y-76811707D01*
X310341348Y-76824731D01*
X310298706Y-76881495D01*
X310232144Y-76906194D01*
X310223367Y-76906500D01*
X295376633Y-76906500D01*
X295308512Y-76886498D01*
X295262019Y-76832842D01*
X295258652Y-76824731D01*
X295253769Y-76811707D01*
X295253768Y-76811704D01*
X295250615Y-76803295D01*
X295163261Y-76686739D01*
X295046705Y-76599385D01*
X294910316Y-76548255D01*
X294848134Y-76541500D01*
X293434500Y-76541500D01*
X293366379Y-76521498D01*
X293319886Y-76467842D01*
X293308500Y-76415500D01*
X293308500Y-74534500D01*
X293328502Y-74466379D01*
X293382158Y-74419886D01*
X293434500Y-74408500D01*
X312165500Y-74408500D01*
X312233621Y-74428502D01*
G37*
%TD.AperFunction*%
%TA.AperFunction,NonConductor*%
G36*
X310291488Y-79213502D02*
G01*
X310337981Y-79267158D01*
X310341348Y-79275269D01*
X310346231Y-79288293D01*
X310349385Y-79296705D01*
X310436739Y-79413261D01*
X310553295Y-79500615D01*
X310689684Y-79551745D01*
X310751866Y-79558500D01*
X312165500Y-79558500D01*
X312233621Y-79578502D01*
X312280114Y-79632158D01*
X312291500Y-79684500D01*
X312291500Y-82915500D01*
X312271498Y-82983621D01*
X312217842Y-83030114D01*
X312165500Y-83041500D01*
X310751866Y-83041500D01*
X310689684Y-83048255D01*
X310553295Y-83099385D01*
X310436739Y-83186739D01*
X310349385Y-83303295D01*
X310346232Y-83311704D01*
X310346231Y-83311707D01*
X310341348Y-83324731D01*
X310298706Y-83381495D01*
X310232144Y-83406194D01*
X310223367Y-83406500D01*
X295376633Y-83406500D01*
X295308512Y-83386498D01*
X295262019Y-83332842D01*
X295258652Y-83324731D01*
X295253769Y-83311707D01*
X295253768Y-83311704D01*
X295250615Y-83303295D01*
X295163261Y-83186739D01*
X295046705Y-83099385D01*
X294910316Y-83048255D01*
X294848134Y-83041500D01*
X293434500Y-83041500D01*
X293366379Y-83021498D01*
X293319886Y-82967842D01*
X293308500Y-82915500D01*
X293308500Y-79684500D01*
X293328502Y-79616379D01*
X293382158Y-79569886D01*
X293434500Y-79558500D01*
X294848134Y-79558500D01*
X294910316Y-79551745D01*
X295046705Y-79500615D01*
X295163261Y-79413261D01*
X295250615Y-79296705D01*
X295253769Y-79288293D01*
X295258652Y-79275269D01*
X295301294Y-79218505D01*
X295367856Y-79193806D01*
X295376633Y-79193500D01*
X310223367Y-79193500D01*
X310291488Y-79213502D01*
G37*
%TD.AperFunction*%
%TA.AperFunction,NonConductor*%
G36*
X310291488Y-85713502D02*
G01*
X310337981Y-85767158D01*
X310341348Y-85775269D01*
X310346231Y-85788293D01*
X310349385Y-85796705D01*
X310436739Y-85913261D01*
X310553295Y-86000615D01*
X310689684Y-86051745D01*
X310751866Y-86058500D01*
X312165500Y-86058500D01*
X312233621Y-86078502D01*
X312280114Y-86132158D01*
X312291500Y-86184500D01*
X312291500Y-90665500D01*
X312271498Y-90733621D01*
X312217842Y-90780114D01*
X312165500Y-90791500D01*
X310501866Y-90791500D01*
X310439684Y-90798255D01*
X310303295Y-90849385D01*
X310186739Y-90936739D01*
X310099385Y-91053295D01*
X310096232Y-91061704D01*
X310096231Y-91061707D01*
X310091348Y-91074731D01*
X310048706Y-91131495D01*
X309982144Y-91156194D01*
X309973367Y-91156500D01*
X295126633Y-91156500D01*
X295058512Y-91136498D01*
X295012019Y-91082842D01*
X295008652Y-91074731D01*
X295003769Y-91061707D01*
X295003768Y-91061704D01*
X295000615Y-91053295D01*
X294913261Y-90936739D01*
X294796705Y-90849385D01*
X294660316Y-90798255D01*
X294598134Y-90791500D01*
X293434500Y-90791500D01*
X293366379Y-90771498D01*
X293319886Y-90717842D01*
X293308500Y-90665500D01*
X293308500Y-86184500D01*
X293328502Y-86116379D01*
X293382158Y-86069886D01*
X293434500Y-86058500D01*
X294848134Y-86058500D01*
X294910316Y-86051745D01*
X295046705Y-86000615D01*
X295163261Y-85913261D01*
X295250615Y-85796705D01*
X295253769Y-85788293D01*
X295258652Y-85775269D01*
X295301294Y-85718505D01*
X295367856Y-85693806D01*
X295376633Y-85693500D01*
X310223367Y-85693500D01*
X310291488Y-85713502D01*
G37*
%TD.AperFunction*%
%TA.AperFunction,NonConductor*%
G36*
X310041488Y-93463502D02*
G01*
X310087981Y-93517158D01*
X310091348Y-93525269D01*
X310096231Y-93538293D01*
X310099385Y-93546705D01*
X310186739Y-93663261D01*
X310303295Y-93750615D01*
X310439684Y-93801745D01*
X310501866Y-93808500D01*
X312165500Y-93808500D01*
X312233621Y-93828502D01*
X312280114Y-93882158D01*
X312291500Y-93934500D01*
X312291500Y-98165500D01*
X312271498Y-98233621D01*
X312217842Y-98280114D01*
X312165500Y-98291500D01*
X310751866Y-98291500D01*
X310689684Y-98298255D01*
X310553295Y-98349385D01*
X310436739Y-98436739D01*
X310349385Y-98553295D01*
X310346232Y-98561704D01*
X310346231Y-98561707D01*
X310341348Y-98574731D01*
X310298706Y-98631495D01*
X310232144Y-98656194D01*
X310223367Y-98656500D01*
X295376633Y-98656500D01*
X295308512Y-98636498D01*
X295262019Y-98582842D01*
X295258652Y-98574731D01*
X295253769Y-98561707D01*
X295253768Y-98561704D01*
X295250615Y-98553295D01*
X295163261Y-98436739D01*
X295046705Y-98349385D01*
X294910316Y-98298255D01*
X294848134Y-98291500D01*
X293434500Y-98291500D01*
X293366379Y-98271498D01*
X293319886Y-98217842D01*
X293308500Y-98165500D01*
X293308500Y-93934500D01*
X293328502Y-93866379D01*
X293382158Y-93819886D01*
X293434500Y-93808500D01*
X294598134Y-93808500D01*
X294660316Y-93801745D01*
X294796705Y-93750615D01*
X294913261Y-93663261D01*
X295000615Y-93546705D01*
X295003769Y-93538293D01*
X295008652Y-93525269D01*
X295051294Y-93468505D01*
X295117856Y-93443806D01*
X295126633Y-93443500D01*
X309973367Y-93443500D01*
X310041488Y-93463502D01*
G37*
%TD.AperFunction*%
%TA.AperFunction,NonConductor*%
G36*
X310291488Y-100963502D02*
G01*
X310337981Y-101017158D01*
X310341348Y-101025269D01*
X310346231Y-101038293D01*
X310349385Y-101046705D01*
X310436739Y-101163261D01*
X310553295Y-101250615D01*
X310689684Y-101301745D01*
X310751866Y-101308500D01*
X312165500Y-101308500D01*
X312233621Y-101328502D01*
X312280114Y-101382158D01*
X312291500Y-101434500D01*
X312291500Y-105415500D01*
X312271498Y-105483621D01*
X312217842Y-105530114D01*
X312165500Y-105541500D01*
X310751866Y-105541500D01*
X310689684Y-105548255D01*
X310553295Y-105599385D01*
X310436739Y-105686739D01*
X310349385Y-105803295D01*
X310346232Y-105811704D01*
X310346231Y-105811707D01*
X310341348Y-105824731D01*
X310298706Y-105881495D01*
X310232144Y-105906194D01*
X310223367Y-105906500D01*
X295376633Y-105906500D01*
X295308512Y-105886498D01*
X295262019Y-105832842D01*
X295258652Y-105824731D01*
X295253769Y-105811707D01*
X295253768Y-105811704D01*
X295250615Y-105803295D01*
X295163261Y-105686739D01*
X295046705Y-105599385D01*
X294910316Y-105548255D01*
X294848134Y-105541500D01*
X293434500Y-105541500D01*
X293366379Y-105521498D01*
X293319886Y-105467842D01*
X293308500Y-105415500D01*
X293308500Y-101434500D01*
X293328502Y-101366379D01*
X293382158Y-101319886D01*
X293434500Y-101308500D01*
X294848134Y-101308500D01*
X294910316Y-101301745D01*
X295046705Y-101250615D01*
X295163261Y-101163261D01*
X295250615Y-101046705D01*
X295253769Y-101038293D01*
X295258652Y-101025269D01*
X295301294Y-100968505D01*
X295367856Y-100943806D01*
X295376633Y-100943500D01*
X310223367Y-100943500D01*
X310291488Y-100963502D01*
G37*
%TD.AperFunction*%
%TA.AperFunction,NonConductor*%
G36*
X310291488Y-108213502D02*
G01*
X310337981Y-108267158D01*
X310341348Y-108275269D01*
X310346231Y-108288293D01*
X310349385Y-108296705D01*
X310436739Y-108413261D01*
X310553295Y-108500615D01*
X310689684Y-108551745D01*
X310751866Y-108558500D01*
X312165500Y-108558500D01*
X312233621Y-108578502D01*
X312280114Y-108632158D01*
X312291500Y-108684500D01*
X312291500Y-112915500D01*
X312271498Y-112983621D01*
X312217842Y-113030114D01*
X312165500Y-113041500D01*
X310751866Y-113041500D01*
X310689684Y-113048255D01*
X310553295Y-113099385D01*
X310436739Y-113186739D01*
X310349385Y-113303295D01*
X310346232Y-113311704D01*
X310346231Y-113311707D01*
X310341348Y-113324731D01*
X310298706Y-113381495D01*
X310232144Y-113406194D01*
X310223367Y-113406500D01*
X295376633Y-113406500D01*
X295308512Y-113386498D01*
X295262019Y-113332842D01*
X295258652Y-113324731D01*
X295253769Y-113311707D01*
X295253768Y-113311704D01*
X295250615Y-113303295D01*
X295163261Y-113186739D01*
X295046705Y-113099385D01*
X294910316Y-113048255D01*
X294848134Y-113041500D01*
X293434500Y-113041500D01*
X293366379Y-113021498D01*
X293319886Y-112967842D01*
X293308500Y-112915500D01*
X293308500Y-108684500D01*
X293328502Y-108616379D01*
X293382158Y-108569886D01*
X293434500Y-108558500D01*
X294848134Y-108558500D01*
X294910316Y-108551745D01*
X295046705Y-108500615D01*
X295163261Y-108413261D01*
X295250615Y-108296705D01*
X295253769Y-108288293D01*
X295258652Y-108275269D01*
X295301294Y-108218505D01*
X295367856Y-108193806D01*
X295376633Y-108193500D01*
X310223367Y-108193500D01*
X310291488Y-108213502D01*
G37*
%TD.AperFunction*%
%TA.AperFunction,NonConductor*%
G36*
X310291488Y-115713502D02*
G01*
X310337981Y-115767158D01*
X310341348Y-115775269D01*
X310346231Y-115788293D01*
X310349385Y-115796705D01*
X310436739Y-115913261D01*
X310553295Y-116000615D01*
X310689684Y-116051745D01*
X310751866Y-116058500D01*
X312165500Y-116058500D01*
X312233621Y-116078502D01*
X312280114Y-116132158D01*
X312291500Y-116184500D01*
X312291500Y-120415500D01*
X312271498Y-120483621D01*
X312217842Y-120530114D01*
X312165500Y-120541500D01*
X310751866Y-120541500D01*
X310689684Y-120548255D01*
X310553295Y-120599385D01*
X310436739Y-120686739D01*
X310349385Y-120803295D01*
X310346232Y-120811704D01*
X310346231Y-120811707D01*
X310341348Y-120824731D01*
X310298706Y-120881495D01*
X310232144Y-120906194D01*
X310223367Y-120906500D01*
X295376633Y-120906500D01*
X295308512Y-120886498D01*
X295262019Y-120832842D01*
X295258652Y-120824731D01*
X295253769Y-120811707D01*
X295253768Y-120811704D01*
X295250615Y-120803295D01*
X295163261Y-120686739D01*
X295046705Y-120599385D01*
X294910316Y-120548255D01*
X294848134Y-120541500D01*
X293434500Y-120541500D01*
X293366379Y-120521498D01*
X293319886Y-120467842D01*
X293308500Y-120415500D01*
X293308500Y-116184500D01*
X293328502Y-116116379D01*
X293382158Y-116069886D01*
X293434500Y-116058500D01*
X294848134Y-116058500D01*
X294910316Y-116051745D01*
X295046705Y-116000615D01*
X295163261Y-115913261D01*
X295250615Y-115796705D01*
X295253769Y-115788293D01*
X295258652Y-115775269D01*
X295301294Y-115718505D01*
X295367856Y-115693806D01*
X295376633Y-115693500D01*
X310223367Y-115693500D01*
X310291488Y-115713502D01*
G37*
%TD.AperFunction*%
%TA.AperFunction,NonConductor*%
G36*
X310291488Y-123213502D02*
G01*
X310337981Y-123267158D01*
X310341348Y-123275269D01*
X310346231Y-123288293D01*
X310349385Y-123296705D01*
X310436739Y-123413261D01*
X310553295Y-123500615D01*
X310689684Y-123551745D01*
X310751866Y-123558500D01*
X312165500Y-123558500D01*
X312233621Y-123578502D01*
X312280114Y-123632158D01*
X312291500Y-123684500D01*
X312291500Y-126165500D01*
X312271498Y-126233621D01*
X312217842Y-126280114D01*
X312165500Y-126291500D01*
X310751866Y-126291500D01*
X310689684Y-126298255D01*
X310553295Y-126349385D01*
X310436739Y-126436739D01*
X310349385Y-126553295D01*
X310346232Y-126561704D01*
X310346231Y-126561707D01*
X310341348Y-126574731D01*
X310298706Y-126631495D01*
X310232144Y-126656194D01*
X310223367Y-126656500D01*
X295376633Y-126656500D01*
X295308512Y-126636498D01*
X295262019Y-126582842D01*
X295258652Y-126574731D01*
X295253769Y-126561707D01*
X295253768Y-126561704D01*
X295250615Y-126553295D01*
X295163261Y-126436739D01*
X295046705Y-126349385D01*
X294910316Y-126298255D01*
X294848134Y-126291500D01*
X293434500Y-126291500D01*
X293366379Y-126271498D01*
X293319886Y-126217842D01*
X293308500Y-126165500D01*
X293308500Y-123684500D01*
X293328502Y-123616379D01*
X293382158Y-123569886D01*
X293434500Y-123558500D01*
X294848134Y-123558500D01*
X294910316Y-123551745D01*
X295046705Y-123500615D01*
X295163261Y-123413261D01*
X295250615Y-123296705D01*
X295253769Y-123288293D01*
X295258652Y-123275269D01*
X295301294Y-123218505D01*
X295367856Y-123193806D01*
X295376633Y-123193500D01*
X310223367Y-123193500D01*
X310291488Y-123213502D01*
G37*
%TD.AperFunction*%
M02*
