%TF.GenerationSoftware,KiCad,Pcbnew,6.0.10-86aedd382b~118~ubuntu22.04.1*%
%TF.CreationDate,2023-01-31T18:23:29-07:00*%
%TF.ProjectId,scaarix_flow,73636161-7269-4785-9f66-6c6f772e6b69,v1.0.0*%
%TF.SameCoordinates,Original*%
%TF.FileFunction,Legend,Top*%
%TF.FilePolarity,Positive*%
%FSLAX46Y46*%
G04 Gerber Fmt 4.6, Leading zero omitted, Abs format (unit mm)*
G04 Created by KiCad (PCBNEW 6.0.10-86aedd382b~118~ubuntu22.04.1) date 2023-01-31 18:23:29*
%MOMM*%
%LPD*%
G01*
G04 APERTURE LIST*
%ADD10C,0.150000*%
%ADD11C,0.100000*%
G04 APERTURE END LIST*
D10*
%TO.C,MCU1*%
X152928571Y-80631904D02*
X152928571Y-79831904D01*
X153233333Y-79831904D01*
X153309523Y-79870000D01*
X153347619Y-79908095D01*
X153385714Y-79984285D01*
X153385714Y-80098571D01*
X153347619Y-80174761D01*
X153309523Y-80212857D01*
X153233333Y-80250952D01*
X152928571Y-80250952D01*
X153880952Y-79831904D02*
X153957142Y-79831904D01*
X154033333Y-79870000D01*
X154071428Y-79908095D01*
X154109523Y-79984285D01*
X154147619Y-80136666D01*
X154147619Y-80327142D01*
X154109523Y-80479523D01*
X154071428Y-80555714D01*
X154033333Y-80593809D01*
X153957142Y-80631904D01*
X153880952Y-80631904D01*
X153804761Y-80593809D01*
X153766666Y-80555714D01*
X153728571Y-80479523D01*
X153690476Y-80327142D01*
X153690476Y-80136666D01*
X153728571Y-79984285D01*
X153766666Y-79908095D01*
X153804761Y-79870000D01*
X153880952Y-79831904D01*
X154528571Y-80631904D02*
X154680952Y-80631904D01*
X154757142Y-80593809D01*
X154795238Y-80555714D01*
X154871428Y-80441428D01*
X154909523Y-80289047D01*
X154909523Y-79984285D01*
X154871428Y-79908095D01*
X154833333Y-79870000D01*
X154757142Y-79831904D01*
X154604761Y-79831904D01*
X154528571Y-79870000D01*
X154490476Y-79908095D01*
X154452380Y-79984285D01*
X154452380Y-80174761D01*
X154490476Y-80250952D01*
X154528571Y-80289047D01*
X154604761Y-80327142D01*
X154757142Y-80327142D01*
X154833333Y-80289047D01*
X154871428Y-80250952D01*
X154909523Y-80174761D01*
X143690476Y-54470000D02*
X143614285Y-54431904D01*
X143500000Y-54431904D01*
X143385714Y-54470000D01*
X143309523Y-54546190D01*
X143271428Y-54622380D01*
X143233333Y-54774761D01*
X143233333Y-54889047D01*
X143271428Y-55041428D01*
X143309523Y-55117619D01*
X143385714Y-55193809D01*
X143500000Y-55231904D01*
X143576190Y-55231904D01*
X143690476Y-55193809D01*
X143728571Y-55155714D01*
X143728571Y-54889047D01*
X143576190Y-54889047D01*
X144071428Y-55231904D02*
X144071428Y-54431904D01*
X144528571Y-55231904D01*
X144528571Y-54431904D01*
X144909523Y-55231904D02*
X144909523Y-54431904D01*
X145100000Y-54431904D01*
X145214285Y-54470000D01*
X145290476Y-54546190D01*
X145328571Y-54622380D01*
X145366666Y-54774761D01*
X145366666Y-54889047D01*
X145328571Y-55041428D01*
X145290476Y-55117619D01*
X145214285Y-55193809D01*
X145100000Y-55231904D01*
X144909523Y-55231904D01*
X143328571Y-73011904D02*
X143328571Y-72211904D01*
X143633333Y-72211904D01*
X143709523Y-72250000D01*
X143747619Y-72288095D01*
X143785714Y-72364285D01*
X143785714Y-72478571D01*
X143747619Y-72554761D01*
X143709523Y-72592857D01*
X143633333Y-72630952D01*
X143328571Y-72630952D01*
X144547619Y-73011904D02*
X144090476Y-73011904D01*
X144319047Y-73011904D02*
X144319047Y-72211904D01*
X144242857Y-72326190D01*
X144166666Y-72402380D01*
X144090476Y-72440476D01*
X145271428Y-72211904D02*
X144890476Y-72211904D01*
X144852380Y-72592857D01*
X144890476Y-72554761D01*
X144966666Y-72516666D01*
X145157142Y-72516666D01*
X145233333Y-72554761D01*
X145271428Y-72592857D01*
X145309523Y-72669047D01*
X145309523Y-72859523D01*
X145271428Y-72935714D01*
X145233333Y-72973809D01*
X145157142Y-73011904D01*
X144966666Y-73011904D01*
X144890476Y-72973809D01*
X144852380Y-72935714D01*
X143328571Y-65391904D02*
X143328571Y-64591904D01*
X143633333Y-64591904D01*
X143709523Y-64630000D01*
X143747619Y-64668095D01*
X143785714Y-64744285D01*
X143785714Y-64858571D01*
X143747619Y-64934761D01*
X143709523Y-64972857D01*
X143633333Y-65010952D01*
X143328571Y-65010952D01*
X144090476Y-64668095D02*
X144128571Y-64630000D01*
X144204761Y-64591904D01*
X144395238Y-64591904D01*
X144471428Y-64630000D01*
X144509523Y-64668095D01*
X144547619Y-64744285D01*
X144547619Y-64820476D01*
X144509523Y-64934761D01*
X144052380Y-65391904D01*
X144547619Y-65391904D01*
X145042857Y-64591904D02*
X145119047Y-64591904D01*
X145195238Y-64630000D01*
X145233333Y-64668095D01*
X145271428Y-64744285D01*
X145309523Y-64896666D01*
X145309523Y-65087142D01*
X145271428Y-65239523D01*
X145233333Y-65315714D01*
X145195238Y-65353809D01*
X145119047Y-65391904D01*
X145042857Y-65391904D01*
X144966666Y-65353809D01*
X144928571Y-65315714D01*
X144890476Y-65239523D01*
X144852380Y-65087142D01*
X144852380Y-64896666D01*
X144890476Y-64744285D01*
X144928571Y-64668095D01*
X144966666Y-64630000D01*
X145042857Y-64591904D01*
X152928571Y-67931904D02*
X152928571Y-67131904D01*
X153233333Y-67131904D01*
X153309523Y-67170000D01*
X153347619Y-67208095D01*
X153385714Y-67284285D01*
X153385714Y-67398571D01*
X153347619Y-67474761D01*
X153309523Y-67512857D01*
X153233333Y-67550952D01*
X152928571Y-67550952D01*
X153880952Y-67131904D02*
X153957142Y-67131904D01*
X154033333Y-67170000D01*
X154071428Y-67208095D01*
X154109523Y-67284285D01*
X154147619Y-67436666D01*
X154147619Y-67627142D01*
X154109523Y-67779523D01*
X154071428Y-67855714D01*
X154033333Y-67893809D01*
X153957142Y-67931904D01*
X153880952Y-67931904D01*
X153804761Y-67893809D01*
X153766666Y-67855714D01*
X153728571Y-67779523D01*
X153690476Y-67627142D01*
X153690476Y-67436666D01*
X153728571Y-67284285D01*
X153766666Y-67208095D01*
X153804761Y-67170000D01*
X153880952Y-67131904D01*
X154833333Y-67398571D02*
X154833333Y-67931904D01*
X154642857Y-67093809D02*
X154452380Y-67665238D01*
X154947619Y-67665238D01*
X143328571Y-75551904D02*
X143328571Y-74751904D01*
X143633333Y-74751904D01*
X143709523Y-74790000D01*
X143747619Y-74828095D01*
X143785714Y-74904285D01*
X143785714Y-75018571D01*
X143747619Y-75094761D01*
X143709523Y-75132857D01*
X143633333Y-75170952D01*
X143328571Y-75170952D01*
X144547619Y-75551904D02*
X144090476Y-75551904D01*
X144319047Y-75551904D02*
X144319047Y-74751904D01*
X144242857Y-74866190D01*
X144166666Y-74942380D01*
X144090476Y-74980476D01*
X145233333Y-75018571D02*
X145233333Y-75551904D01*
X145042857Y-74713809D02*
X144852380Y-75285238D01*
X145347619Y-75285238D01*
X152928571Y-73011904D02*
X152928571Y-72211904D01*
X153233333Y-72211904D01*
X153309523Y-72250000D01*
X153347619Y-72288095D01*
X153385714Y-72364285D01*
X153385714Y-72478571D01*
X153347619Y-72554761D01*
X153309523Y-72592857D01*
X153233333Y-72630952D01*
X152928571Y-72630952D01*
X153880952Y-72211904D02*
X153957142Y-72211904D01*
X154033333Y-72250000D01*
X154071428Y-72288095D01*
X154109523Y-72364285D01*
X154147619Y-72516666D01*
X154147619Y-72707142D01*
X154109523Y-72859523D01*
X154071428Y-72935714D01*
X154033333Y-72973809D01*
X153957142Y-73011904D01*
X153880952Y-73011904D01*
X153804761Y-72973809D01*
X153766666Y-72935714D01*
X153728571Y-72859523D01*
X153690476Y-72707142D01*
X153690476Y-72516666D01*
X153728571Y-72364285D01*
X153766666Y-72288095D01*
X153804761Y-72250000D01*
X153880952Y-72211904D01*
X154833333Y-72211904D02*
X154680952Y-72211904D01*
X154604761Y-72250000D01*
X154566666Y-72288095D01*
X154490476Y-72402380D01*
X154452380Y-72554761D01*
X154452380Y-72859523D01*
X154490476Y-72935714D01*
X154528571Y-72973809D01*
X154604761Y-73011904D01*
X154757142Y-73011904D01*
X154833333Y-72973809D01*
X154871428Y-72935714D01*
X154909523Y-72859523D01*
X154909523Y-72669047D01*
X154871428Y-72592857D01*
X154833333Y-72554761D01*
X154757142Y-72516666D01*
X154604761Y-72516666D01*
X154528571Y-72554761D01*
X154490476Y-72592857D01*
X154452380Y-72669047D01*
X152928571Y-65391904D02*
X152928571Y-64591904D01*
X153233333Y-64591904D01*
X153309523Y-64630000D01*
X153347619Y-64668095D01*
X153385714Y-64744285D01*
X153385714Y-64858571D01*
X153347619Y-64934761D01*
X153309523Y-64972857D01*
X153233333Y-65010952D01*
X152928571Y-65010952D01*
X153880952Y-64591904D02*
X153957142Y-64591904D01*
X154033333Y-64630000D01*
X154071428Y-64668095D01*
X154109523Y-64744285D01*
X154147619Y-64896666D01*
X154147619Y-65087142D01*
X154109523Y-65239523D01*
X154071428Y-65315714D01*
X154033333Y-65353809D01*
X153957142Y-65391904D01*
X153880952Y-65391904D01*
X153804761Y-65353809D01*
X153766666Y-65315714D01*
X153728571Y-65239523D01*
X153690476Y-65087142D01*
X153690476Y-64896666D01*
X153728571Y-64744285D01*
X153766666Y-64668095D01*
X153804761Y-64630000D01*
X153880952Y-64591904D01*
X154414285Y-64591904D02*
X154909523Y-64591904D01*
X154642857Y-64896666D01*
X154757142Y-64896666D01*
X154833333Y-64934761D01*
X154871428Y-64972857D01*
X154909523Y-65049047D01*
X154909523Y-65239523D01*
X154871428Y-65315714D01*
X154833333Y-65353809D01*
X154757142Y-65391904D01*
X154528571Y-65391904D01*
X154452380Y-65353809D01*
X154414285Y-65315714D01*
X143328571Y-62851904D02*
X143328571Y-62051904D01*
X143633333Y-62051904D01*
X143709523Y-62090000D01*
X143747619Y-62128095D01*
X143785714Y-62204285D01*
X143785714Y-62318571D01*
X143747619Y-62394761D01*
X143709523Y-62432857D01*
X143633333Y-62470952D01*
X143328571Y-62470952D01*
X144090476Y-62128095D02*
X144128571Y-62090000D01*
X144204761Y-62051904D01*
X144395238Y-62051904D01*
X144471428Y-62090000D01*
X144509523Y-62128095D01*
X144547619Y-62204285D01*
X144547619Y-62280476D01*
X144509523Y-62394761D01*
X144052380Y-62851904D01*
X144547619Y-62851904D01*
X145309523Y-62851904D02*
X144852380Y-62851904D01*
X145080952Y-62851904D02*
X145080952Y-62051904D01*
X145004761Y-62166190D01*
X144928571Y-62242380D01*
X144852380Y-62280476D01*
X143328571Y-67931904D02*
X143328571Y-67131904D01*
X143633333Y-67131904D01*
X143709523Y-67170000D01*
X143747619Y-67208095D01*
X143785714Y-67284285D01*
X143785714Y-67398571D01*
X143747619Y-67474761D01*
X143709523Y-67512857D01*
X143633333Y-67550952D01*
X143328571Y-67550952D01*
X144547619Y-67931904D02*
X144090476Y-67931904D01*
X144319047Y-67931904D02*
X144319047Y-67131904D01*
X144242857Y-67246190D01*
X144166666Y-67322380D01*
X144090476Y-67360476D01*
X144928571Y-67931904D02*
X145080952Y-67931904D01*
X145157142Y-67893809D01*
X145195238Y-67855714D01*
X145271428Y-67741428D01*
X145309523Y-67589047D01*
X145309523Y-67284285D01*
X145271428Y-67208095D01*
X145233333Y-67170000D01*
X145157142Y-67131904D01*
X145004761Y-67131904D01*
X144928571Y-67170000D01*
X144890476Y-67208095D01*
X144852380Y-67284285D01*
X144852380Y-67474761D01*
X144890476Y-67550952D01*
X144928571Y-67589047D01*
X145004761Y-67627142D01*
X145157142Y-67627142D01*
X145233333Y-67589047D01*
X145271428Y-67550952D01*
X145309523Y-67474761D01*
X143328571Y-80631904D02*
X143328571Y-79831904D01*
X143633333Y-79831904D01*
X143709523Y-79870000D01*
X143747619Y-79908095D01*
X143785714Y-79984285D01*
X143785714Y-80098571D01*
X143747619Y-80174761D01*
X143709523Y-80212857D01*
X143633333Y-80250952D01*
X143328571Y-80250952D01*
X144547619Y-80631904D02*
X144090476Y-80631904D01*
X144319047Y-80631904D02*
X144319047Y-79831904D01*
X144242857Y-79946190D01*
X144166666Y-80022380D01*
X144090476Y-80060476D01*
X145042857Y-79831904D02*
X145119047Y-79831904D01*
X145195238Y-79870000D01*
X145233333Y-79908095D01*
X145271428Y-79984285D01*
X145309523Y-80136666D01*
X145309523Y-80327142D01*
X145271428Y-80479523D01*
X145233333Y-80555714D01*
X145195238Y-80593809D01*
X145119047Y-80631904D01*
X145042857Y-80631904D01*
X144966666Y-80593809D01*
X144928571Y-80555714D01*
X144890476Y-80479523D01*
X144852380Y-80327142D01*
X144852380Y-80136666D01*
X144890476Y-79984285D01*
X144928571Y-79908095D01*
X144966666Y-79870000D01*
X145042857Y-79831904D01*
X152928571Y-55231904D02*
X152928571Y-54431904D01*
X153233333Y-54431904D01*
X153309523Y-54470000D01*
X153347619Y-54508095D01*
X153385714Y-54584285D01*
X153385714Y-54698571D01*
X153347619Y-54774761D01*
X153309523Y-54812857D01*
X153233333Y-54850952D01*
X152928571Y-54850952D01*
X153880952Y-54431904D02*
X153957142Y-54431904D01*
X154033333Y-54470000D01*
X154071428Y-54508095D01*
X154109523Y-54584285D01*
X154147619Y-54736666D01*
X154147619Y-54927142D01*
X154109523Y-55079523D01*
X154071428Y-55155714D01*
X154033333Y-55193809D01*
X153957142Y-55231904D01*
X153880952Y-55231904D01*
X153804761Y-55193809D01*
X153766666Y-55155714D01*
X153728571Y-55079523D01*
X153690476Y-54927142D01*
X153690476Y-54736666D01*
X153728571Y-54584285D01*
X153766666Y-54508095D01*
X153804761Y-54470000D01*
X153880952Y-54431904D01*
X154642857Y-54431904D02*
X154719047Y-54431904D01*
X154795238Y-54470000D01*
X154833333Y-54508095D01*
X154871428Y-54584285D01*
X154909523Y-54736666D01*
X154909523Y-54927142D01*
X154871428Y-55079523D01*
X154833333Y-55155714D01*
X154795238Y-55193809D01*
X154719047Y-55231904D01*
X154642857Y-55231904D01*
X154566666Y-55193809D01*
X154528571Y-55155714D01*
X154490476Y-55079523D01*
X154452380Y-54927142D01*
X154452380Y-54736666D01*
X154490476Y-54584285D01*
X154528571Y-54508095D01*
X154566666Y-54470000D01*
X154642857Y-54431904D01*
X152928571Y-70471904D02*
X152928571Y-69671904D01*
X153233333Y-69671904D01*
X153309523Y-69710000D01*
X153347619Y-69748095D01*
X153385714Y-69824285D01*
X153385714Y-69938571D01*
X153347619Y-70014761D01*
X153309523Y-70052857D01*
X153233333Y-70090952D01*
X152928571Y-70090952D01*
X153880952Y-69671904D02*
X153957142Y-69671904D01*
X154033333Y-69710000D01*
X154071428Y-69748095D01*
X154109523Y-69824285D01*
X154147619Y-69976666D01*
X154147619Y-70167142D01*
X154109523Y-70319523D01*
X154071428Y-70395714D01*
X154033333Y-70433809D01*
X153957142Y-70471904D01*
X153880952Y-70471904D01*
X153804761Y-70433809D01*
X153766666Y-70395714D01*
X153728571Y-70319523D01*
X153690476Y-70167142D01*
X153690476Y-69976666D01*
X153728571Y-69824285D01*
X153766666Y-69748095D01*
X153804761Y-69710000D01*
X153880952Y-69671904D01*
X154871428Y-69671904D02*
X154490476Y-69671904D01*
X154452380Y-70052857D01*
X154490476Y-70014761D01*
X154566666Y-69976666D01*
X154757142Y-69976666D01*
X154833333Y-70014761D01*
X154871428Y-70052857D01*
X154909523Y-70129047D01*
X154909523Y-70319523D01*
X154871428Y-70395714D01*
X154833333Y-70433809D01*
X154757142Y-70471904D01*
X154566666Y-70471904D01*
X154490476Y-70433809D01*
X154452380Y-70395714D01*
X143233333Y-59511904D02*
X143500000Y-60311904D01*
X143766666Y-59511904D01*
X144490476Y-60235714D02*
X144452380Y-60273809D01*
X144338095Y-60311904D01*
X144261904Y-60311904D01*
X144147619Y-60273809D01*
X144071428Y-60197619D01*
X144033333Y-60121428D01*
X143995238Y-59969047D01*
X143995238Y-59854761D01*
X144033333Y-59702380D01*
X144071428Y-59626190D01*
X144147619Y-59550000D01*
X144261904Y-59511904D01*
X144338095Y-59511904D01*
X144452380Y-59550000D01*
X144490476Y-59588095D01*
X145290476Y-60235714D02*
X145252380Y-60273809D01*
X145138095Y-60311904D01*
X145061904Y-60311904D01*
X144947619Y-60273809D01*
X144871428Y-60197619D01*
X144833333Y-60121428D01*
X144795238Y-59969047D01*
X144795238Y-59854761D01*
X144833333Y-59702380D01*
X144871428Y-59626190D01*
X144947619Y-59550000D01*
X145061904Y-59511904D01*
X145138095Y-59511904D01*
X145252380Y-59550000D01*
X145290476Y-59588095D01*
X152928571Y-62851904D02*
X152928571Y-62051904D01*
X153233333Y-62051904D01*
X153309523Y-62090000D01*
X153347619Y-62128095D01*
X153385714Y-62204285D01*
X153385714Y-62318571D01*
X153347619Y-62394761D01*
X153309523Y-62432857D01*
X153233333Y-62470952D01*
X152928571Y-62470952D01*
X153880952Y-62051904D02*
X153957142Y-62051904D01*
X154033333Y-62090000D01*
X154071428Y-62128095D01*
X154109523Y-62204285D01*
X154147619Y-62356666D01*
X154147619Y-62547142D01*
X154109523Y-62699523D01*
X154071428Y-62775714D01*
X154033333Y-62813809D01*
X153957142Y-62851904D01*
X153880952Y-62851904D01*
X153804761Y-62813809D01*
X153766666Y-62775714D01*
X153728571Y-62699523D01*
X153690476Y-62547142D01*
X153690476Y-62356666D01*
X153728571Y-62204285D01*
X153766666Y-62128095D01*
X153804761Y-62090000D01*
X153880952Y-62051904D01*
X154452380Y-62128095D02*
X154490476Y-62090000D01*
X154566666Y-62051904D01*
X154757142Y-62051904D01*
X154833333Y-62090000D01*
X154871428Y-62128095D01*
X154909523Y-62204285D01*
X154909523Y-62280476D01*
X154871428Y-62394761D01*
X154414285Y-62851904D01*
X154909523Y-62851904D01*
X152928571Y-52691904D02*
X152928571Y-51891904D01*
X153233333Y-51891904D01*
X153309523Y-51930000D01*
X153347619Y-51968095D01*
X153385714Y-52044285D01*
X153385714Y-52158571D01*
X153347619Y-52234761D01*
X153309523Y-52272857D01*
X153233333Y-52310952D01*
X152928571Y-52310952D01*
X153880952Y-51891904D02*
X153957142Y-51891904D01*
X154033333Y-51930000D01*
X154071428Y-51968095D01*
X154109523Y-52044285D01*
X154147619Y-52196666D01*
X154147619Y-52387142D01*
X154109523Y-52539523D01*
X154071428Y-52615714D01*
X154033333Y-52653809D01*
X153957142Y-52691904D01*
X153880952Y-52691904D01*
X153804761Y-52653809D01*
X153766666Y-52615714D01*
X153728571Y-52539523D01*
X153690476Y-52387142D01*
X153690476Y-52196666D01*
X153728571Y-52044285D01*
X153766666Y-51968095D01*
X153804761Y-51930000D01*
X153880952Y-51891904D01*
X154909523Y-52691904D02*
X154452380Y-52691904D01*
X154680952Y-52691904D02*
X154680952Y-51891904D01*
X154604761Y-52006190D01*
X154528571Y-52082380D01*
X154452380Y-52120476D01*
X143861904Y-57771904D02*
X143595238Y-57390952D01*
X143404761Y-57771904D02*
X143404761Y-56971904D01*
X143709523Y-56971904D01*
X143785714Y-57010000D01*
X143823809Y-57048095D01*
X143861904Y-57124285D01*
X143861904Y-57238571D01*
X143823809Y-57314761D01*
X143785714Y-57352857D01*
X143709523Y-57390952D01*
X143404761Y-57390952D01*
X144166666Y-57733809D02*
X144280952Y-57771904D01*
X144471428Y-57771904D01*
X144547619Y-57733809D01*
X144585714Y-57695714D01*
X144623809Y-57619523D01*
X144623809Y-57543333D01*
X144585714Y-57467142D01*
X144547619Y-57429047D01*
X144471428Y-57390952D01*
X144319047Y-57352857D01*
X144242857Y-57314761D01*
X144204761Y-57276666D01*
X144166666Y-57200476D01*
X144166666Y-57124285D01*
X144204761Y-57048095D01*
X144242857Y-57010000D01*
X144319047Y-56971904D01*
X144509523Y-56971904D01*
X144623809Y-57010000D01*
X144852380Y-56971904D02*
X145309523Y-56971904D01*
X145080952Y-57771904D02*
X145080952Y-56971904D01*
X152928571Y-75551904D02*
X152928571Y-74751904D01*
X153233333Y-74751904D01*
X153309523Y-74790000D01*
X153347619Y-74828095D01*
X153385714Y-74904285D01*
X153385714Y-75018571D01*
X153347619Y-75094761D01*
X153309523Y-75132857D01*
X153233333Y-75170952D01*
X152928571Y-75170952D01*
X153880952Y-74751904D02*
X153957142Y-74751904D01*
X154033333Y-74790000D01*
X154071428Y-74828095D01*
X154109523Y-74904285D01*
X154147619Y-75056666D01*
X154147619Y-75247142D01*
X154109523Y-75399523D01*
X154071428Y-75475714D01*
X154033333Y-75513809D01*
X153957142Y-75551904D01*
X153880952Y-75551904D01*
X153804761Y-75513809D01*
X153766666Y-75475714D01*
X153728571Y-75399523D01*
X153690476Y-75247142D01*
X153690476Y-75056666D01*
X153728571Y-74904285D01*
X153766666Y-74828095D01*
X153804761Y-74790000D01*
X153880952Y-74751904D01*
X154414285Y-74751904D02*
X154947619Y-74751904D01*
X154604761Y-75551904D01*
X143747619Y-52691904D02*
X143480952Y-52310952D01*
X143290476Y-52691904D02*
X143290476Y-51891904D01*
X143595238Y-51891904D01*
X143671428Y-51930000D01*
X143709523Y-51968095D01*
X143747619Y-52044285D01*
X143747619Y-52158571D01*
X143709523Y-52234761D01*
X143671428Y-52272857D01*
X143595238Y-52310952D01*
X143290476Y-52310952D01*
X144052380Y-52463333D02*
X144433333Y-52463333D01*
X143976190Y-52691904D02*
X144242857Y-51891904D01*
X144509523Y-52691904D01*
X144700000Y-51891904D02*
X144890476Y-52691904D01*
X145042857Y-52120476D01*
X145195238Y-52691904D01*
X145385714Y-51891904D01*
X152928571Y-78091904D02*
X152928571Y-77291904D01*
X153233333Y-77291904D01*
X153309523Y-77330000D01*
X153347619Y-77368095D01*
X153385714Y-77444285D01*
X153385714Y-77558571D01*
X153347619Y-77634761D01*
X153309523Y-77672857D01*
X153233333Y-77710952D01*
X152928571Y-77710952D01*
X153880952Y-77291904D02*
X153957142Y-77291904D01*
X154033333Y-77330000D01*
X154071428Y-77368095D01*
X154109523Y-77444285D01*
X154147619Y-77596666D01*
X154147619Y-77787142D01*
X154109523Y-77939523D01*
X154071428Y-78015714D01*
X154033333Y-78053809D01*
X153957142Y-78091904D01*
X153880952Y-78091904D01*
X153804761Y-78053809D01*
X153766666Y-78015714D01*
X153728571Y-77939523D01*
X153690476Y-77787142D01*
X153690476Y-77596666D01*
X153728571Y-77444285D01*
X153766666Y-77368095D01*
X153804761Y-77330000D01*
X153880952Y-77291904D01*
X154604761Y-77634761D02*
X154528571Y-77596666D01*
X154490476Y-77558571D01*
X154452380Y-77482380D01*
X154452380Y-77444285D01*
X154490476Y-77368095D01*
X154528571Y-77330000D01*
X154604761Y-77291904D01*
X154757142Y-77291904D01*
X154833333Y-77330000D01*
X154871428Y-77368095D01*
X154909523Y-77444285D01*
X154909523Y-77482380D01*
X154871428Y-77558571D01*
X154833333Y-77596666D01*
X154757142Y-77634761D01*
X154604761Y-77634761D01*
X154528571Y-77672857D01*
X154490476Y-77710952D01*
X154452380Y-77787142D01*
X154452380Y-77939523D01*
X154490476Y-78015714D01*
X154528571Y-78053809D01*
X154604761Y-78091904D01*
X154757142Y-78091904D01*
X154833333Y-78053809D01*
X154871428Y-78015714D01*
X154909523Y-77939523D01*
X154909523Y-77787142D01*
X154871428Y-77710952D01*
X154833333Y-77672857D01*
X154757142Y-77634761D01*
X143328571Y-70471904D02*
X143328571Y-69671904D01*
X143633333Y-69671904D01*
X143709523Y-69710000D01*
X143747619Y-69748095D01*
X143785714Y-69824285D01*
X143785714Y-69938571D01*
X143747619Y-70014761D01*
X143709523Y-70052857D01*
X143633333Y-70090952D01*
X143328571Y-70090952D01*
X144547619Y-70471904D02*
X144090476Y-70471904D01*
X144319047Y-70471904D02*
X144319047Y-69671904D01*
X144242857Y-69786190D01*
X144166666Y-69862380D01*
X144090476Y-69900476D01*
X145004761Y-70014761D02*
X144928571Y-69976666D01*
X144890476Y-69938571D01*
X144852380Y-69862380D01*
X144852380Y-69824285D01*
X144890476Y-69748095D01*
X144928571Y-69710000D01*
X145004761Y-69671904D01*
X145157142Y-69671904D01*
X145233333Y-69710000D01*
X145271428Y-69748095D01*
X145309523Y-69824285D01*
X145309523Y-69862380D01*
X145271428Y-69938571D01*
X145233333Y-69976666D01*
X145157142Y-70014761D01*
X145004761Y-70014761D01*
X144928571Y-70052857D01*
X144890476Y-70090952D01*
X144852380Y-70167142D01*
X144852380Y-70319523D01*
X144890476Y-70395714D01*
X144928571Y-70433809D01*
X145004761Y-70471904D01*
X145157142Y-70471904D01*
X145233333Y-70433809D01*
X145271428Y-70395714D01*
X145309523Y-70319523D01*
X145309523Y-70167142D01*
X145271428Y-70090952D01*
X145233333Y-70052857D01*
X145157142Y-70014761D01*
X143328571Y-78091904D02*
X143328571Y-77291904D01*
X143633333Y-77291904D01*
X143709523Y-77330000D01*
X143747619Y-77368095D01*
X143785714Y-77444285D01*
X143785714Y-77558571D01*
X143747619Y-77634761D01*
X143709523Y-77672857D01*
X143633333Y-77710952D01*
X143328571Y-77710952D01*
X144547619Y-78091904D02*
X144090476Y-78091904D01*
X144319047Y-78091904D02*
X144319047Y-77291904D01*
X144242857Y-77406190D01*
X144166666Y-77482380D01*
X144090476Y-77520476D01*
X145233333Y-77291904D02*
X145080952Y-77291904D01*
X145004761Y-77330000D01*
X144966666Y-77368095D01*
X144890476Y-77482380D01*
X144852380Y-77634761D01*
X144852380Y-77939523D01*
X144890476Y-78015714D01*
X144928571Y-78053809D01*
X145004761Y-78091904D01*
X145157142Y-78091904D01*
X145233333Y-78053809D01*
X145271428Y-78015714D01*
X145309523Y-77939523D01*
X145309523Y-77749047D01*
X145271428Y-77672857D01*
X145233333Y-77634761D01*
X145157142Y-77596666D01*
X145004761Y-77596666D01*
X144928571Y-77634761D01*
X144890476Y-77672857D01*
X144852380Y-77749047D01*
%TO.C,LED19*%
X228600000Y-59800000D02*
X223600000Y-59800000D01*
X228600000Y-64800000D02*
X228600000Y-59800000D01*
X223600000Y-59800000D02*
X223600000Y-64800000D01*
X227850000Y-64050000D02*
X227850000Y-60550000D01*
X227850000Y-60550000D02*
X224350000Y-60550000D01*
X224350000Y-64050000D02*
X227850000Y-64050000D01*
X223600000Y-64800000D02*
X228600000Y-64800000D01*
X224350000Y-60550000D02*
X224350000Y-64050000D01*
G36*
X231100000Y-63587500D02*
G01*
X230100000Y-64500000D01*
X230100000Y-62675000D01*
X231100000Y-63587500D01*
G37*
D11*
X231100000Y-63587500D02*
X230100000Y-64500000D01*
X230100000Y-62675000D01*
X231100000Y-63587500D01*
%TO.C,D6*%
X168750000Y-84800000D02*
X168750000Y-85350000D01*
X168750000Y-84800000D02*
X169350000Y-84400000D01*
X169350000Y-85200000D02*
X168750000Y-84800000D01*
X169350000Y-84400000D02*
X169350000Y-85200000D01*
X168350000Y-84800000D02*
X168750000Y-84800000D01*
X168750000Y-84800000D02*
X168750000Y-84250000D01*
X169350000Y-84800000D02*
X169850000Y-84800000D01*
%TO.C,D9*%
X188350000Y-97800000D02*
X188850000Y-97800000D01*
X188350000Y-98200000D02*
X187750000Y-97800000D01*
X187750000Y-97800000D02*
X187750000Y-97250000D01*
X187750000Y-97800000D02*
X188350000Y-97400000D01*
X187750000Y-97800000D02*
X187750000Y-98350000D01*
X188350000Y-97400000D02*
X188350000Y-98200000D01*
X187350000Y-97800000D02*
X187750000Y-97800000D01*
D10*
%TO.C,LED1*%
X128600000Y-111800000D02*
X128600000Y-116800000D01*
X128600000Y-116800000D02*
X133600000Y-116800000D01*
X129350000Y-112550000D02*
X129350000Y-116050000D01*
X129350000Y-116050000D02*
X132850000Y-116050000D01*
X132850000Y-116050000D02*
X132850000Y-112550000D01*
X133600000Y-116800000D02*
X133600000Y-111800000D01*
X133600000Y-111800000D02*
X128600000Y-111800000D01*
X132850000Y-112550000D02*
X129350000Y-112550000D01*
G36*
X136100000Y-115587500D02*
G01*
X135100000Y-116500000D01*
X135100000Y-114675000D01*
X136100000Y-115587500D01*
G37*
D11*
X136100000Y-115587500D02*
X135100000Y-116500000D01*
X135100000Y-114675000D01*
X136100000Y-115587500D01*
D10*
%TO.C,LED20*%
X243350000Y-124050000D02*
X246850000Y-124050000D01*
X246850000Y-124050000D02*
X246850000Y-120550000D01*
X242600000Y-124800000D02*
X247600000Y-124800000D01*
X247600000Y-124800000D02*
X247600000Y-119800000D01*
X247600000Y-119800000D02*
X242600000Y-119800000D01*
X242600000Y-119800000D02*
X242600000Y-124800000D01*
X246850000Y-120550000D02*
X243350000Y-120550000D01*
X243350000Y-120550000D02*
X243350000Y-124050000D01*
G36*
X250100000Y-123587500D02*
G01*
X249100000Y-124500000D01*
X249100000Y-122675000D01*
X250100000Y-123587500D01*
G37*
D11*
X250100000Y-123587500D02*
X249100000Y-124500000D01*
X249100000Y-122675000D01*
X250100000Y-123587500D01*
D10*
%TO.C,LED16*%
X224350000Y-117550000D02*
X224350000Y-121050000D01*
X227850000Y-117550000D02*
X224350000Y-117550000D01*
X227850000Y-121050000D02*
X227850000Y-117550000D01*
X228600000Y-116800000D02*
X223600000Y-116800000D01*
X224350000Y-121050000D02*
X227850000Y-121050000D01*
X223600000Y-121800000D02*
X228600000Y-121800000D01*
X228600000Y-121800000D02*
X228600000Y-116800000D01*
X223600000Y-116800000D02*
X223600000Y-121800000D01*
G36*
X231100000Y-120587500D02*
G01*
X230100000Y-121500000D01*
X230100000Y-119675000D01*
X231100000Y-120587500D01*
G37*
D11*
X231100000Y-120587500D02*
X230100000Y-121500000D01*
X230100000Y-119675000D01*
X231100000Y-120587500D01*
D10*
%TO.C,LED23*%
X247600000Y-62800000D02*
X242600000Y-62800000D01*
X243350000Y-63550000D02*
X243350000Y-67050000D01*
X242600000Y-67800000D02*
X247600000Y-67800000D01*
X246850000Y-67050000D02*
X246850000Y-63550000D01*
X247600000Y-67800000D02*
X247600000Y-62800000D01*
X246850000Y-63550000D02*
X243350000Y-63550000D01*
X242600000Y-62800000D02*
X242600000Y-67800000D01*
X243350000Y-67050000D02*
X246850000Y-67050000D01*
G36*
X250100000Y-66587500D02*
G01*
X249100000Y-67500000D01*
X249100000Y-65675000D01*
X250100000Y-66587500D01*
G37*
D11*
X250100000Y-66587500D02*
X249100000Y-67500000D01*
X249100000Y-65675000D01*
X250100000Y-66587500D01*
%TO.C,D19*%
X226350000Y-65800000D02*
X226850000Y-65800000D01*
X225750000Y-65800000D02*
X225750000Y-65250000D01*
X225750000Y-65800000D02*
X225750000Y-66350000D01*
X225750000Y-65800000D02*
X226350000Y-65400000D01*
X225350000Y-65800000D02*
X225750000Y-65800000D01*
X226350000Y-66200000D02*
X225750000Y-65800000D01*
X226350000Y-65400000D02*
X226350000Y-66200000D01*
D10*
%TO.C,LED9*%
X190600000Y-96800000D02*
X190600000Y-91800000D01*
X186350000Y-92550000D02*
X186350000Y-96050000D01*
X189850000Y-96050000D02*
X189850000Y-92550000D01*
X185600000Y-91800000D02*
X185600000Y-96800000D01*
X185600000Y-96800000D02*
X190600000Y-96800000D01*
X190600000Y-91800000D02*
X185600000Y-91800000D01*
X186350000Y-96050000D02*
X189850000Y-96050000D01*
X189850000Y-92550000D02*
X186350000Y-92550000D01*
G36*
X193100000Y-95587500D02*
G01*
X192100000Y-96500000D01*
X192100000Y-94675000D01*
X193100000Y-95587500D01*
G37*
D11*
X193100000Y-95587500D02*
X192100000Y-96500000D01*
X192100000Y-94675000D01*
X193100000Y-95587500D01*
D10*
%TO.C,LED10*%
X185600000Y-77800000D02*
X190600000Y-77800000D01*
X186350000Y-73550000D02*
X186350000Y-77050000D01*
X190600000Y-77800000D02*
X190600000Y-72800000D01*
X189850000Y-73550000D02*
X186350000Y-73550000D01*
X185600000Y-72800000D02*
X185600000Y-77800000D01*
X189850000Y-77050000D02*
X189850000Y-73550000D01*
X186350000Y-77050000D02*
X189850000Y-77050000D01*
X190600000Y-72800000D02*
X185600000Y-72800000D01*
G36*
X193100000Y-76587500D02*
G01*
X192100000Y-77500000D01*
X192100000Y-75675000D01*
X193100000Y-76587500D01*
G37*
D11*
X193100000Y-76587500D02*
X192100000Y-77500000D01*
X192100000Y-75675000D01*
X193100000Y-76587500D01*
%TO.C,D3*%
X149350000Y-106800000D02*
X149750000Y-106800000D01*
X150350000Y-106400000D02*
X150350000Y-107200000D01*
X149750000Y-106800000D02*
X150350000Y-106400000D01*
X149750000Y-106800000D02*
X149750000Y-107350000D01*
X149750000Y-106800000D02*
X149750000Y-106250000D01*
X150350000Y-106800000D02*
X150850000Y-106800000D01*
X150350000Y-107200000D02*
X149750000Y-106800000D01*
%TO.C,D14*%
X207350000Y-77200000D02*
X206750000Y-76800000D01*
X206350000Y-76800000D02*
X206750000Y-76800000D01*
X207350000Y-76800000D02*
X207850000Y-76800000D01*
X206750000Y-76800000D02*
X207350000Y-76400000D01*
X206750000Y-76800000D02*
X206750000Y-76250000D01*
X206750000Y-76800000D02*
X206750000Y-77350000D01*
X207350000Y-76400000D02*
X207350000Y-77200000D01*
%TO.C,D17*%
X226350000Y-103800000D02*
X226850000Y-103800000D01*
X226350000Y-103400000D02*
X226350000Y-104200000D01*
X225750000Y-103800000D02*
X226350000Y-103400000D01*
X225350000Y-103800000D02*
X225750000Y-103800000D01*
X226350000Y-104200000D02*
X225750000Y-103800000D01*
X225750000Y-103800000D02*
X225750000Y-103250000D01*
X225750000Y-103800000D02*
X225750000Y-104350000D01*
%TO.C,D8*%
X187750000Y-116800000D02*
X187750000Y-116250000D01*
X188350000Y-116800000D02*
X188850000Y-116800000D01*
X188350000Y-117200000D02*
X187750000Y-116800000D01*
X187350000Y-116800000D02*
X187750000Y-116800000D01*
X187750000Y-116800000D02*
X187750000Y-117350000D01*
X188350000Y-116400000D02*
X188350000Y-117200000D01*
X187750000Y-116800000D02*
X188350000Y-116400000D01*
%TO.C,D1*%
X130750000Y-117800000D02*
X130750000Y-117250000D01*
X131350000Y-117800000D02*
X131850000Y-117800000D01*
X130750000Y-117800000D02*
X130750000Y-118350000D01*
X131350000Y-118200000D02*
X130750000Y-117800000D01*
X131350000Y-117400000D02*
X131350000Y-118200000D01*
X130750000Y-117800000D02*
X131350000Y-117400000D01*
X130350000Y-117800000D02*
X130750000Y-117800000D01*
D10*
%TO.C,LED5*%
X166600000Y-97800000D02*
X166600000Y-102800000D01*
X167350000Y-102050000D02*
X170850000Y-102050000D01*
X171600000Y-97800000D02*
X166600000Y-97800000D01*
X167350000Y-98550000D02*
X167350000Y-102050000D01*
X166600000Y-102800000D02*
X171600000Y-102800000D01*
X170850000Y-102050000D02*
X170850000Y-98550000D01*
X171600000Y-102800000D02*
X171600000Y-97800000D01*
X170850000Y-98550000D02*
X167350000Y-98550000D01*
G36*
X174100000Y-101587500D02*
G01*
X173100000Y-102500000D01*
X173100000Y-100675000D01*
X174100000Y-101587500D01*
G37*
D11*
X174100000Y-101587500D02*
X173100000Y-102500000D01*
X173100000Y-100675000D01*
X174100000Y-101587500D01*
D10*
%TO.C,LED2*%
X152600000Y-119800000D02*
X147600000Y-119800000D01*
X151850000Y-124050000D02*
X151850000Y-120550000D01*
X147600000Y-124800000D02*
X152600000Y-124800000D01*
X147600000Y-119800000D02*
X147600000Y-124800000D01*
X148350000Y-120550000D02*
X148350000Y-124050000D01*
X148350000Y-124050000D02*
X151850000Y-124050000D01*
X151850000Y-120550000D02*
X148350000Y-120550000D01*
X152600000Y-124800000D02*
X152600000Y-119800000D01*
G36*
X155100000Y-123587500D02*
G01*
X154100000Y-124500000D01*
X154100000Y-122675000D01*
X155100000Y-123587500D01*
G37*
D11*
X155100000Y-123587500D02*
X154100000Y-124500000D01*
X154100000Y-122675000D01*
X155100000Y-123587500D01*
D10*
%TO.C,LED7*%
X166600000Y-64800000D02*
X171600000Y-64800000D01*
X166600000Y-59800000D02*
X166600000Y-64800000D01*
X167350000Y-60550000D02*
X167350000Y-64050000D01*
X171600000Y-64800000D02*
X171600000Y-59800000D01*
X170850000Y-60550000D02*
X167350000Y-60550000D01*
X170850000Y-64050000D02*
X170850000Y-60550000D01*
X167350000Y-64050000D02*
X170850000Y-64050000D01*
X171600000Y-59800000D02*
X166600000Y-59800000D01*
G36*
X174100000Y-63587500D02*
G01*
X173100000Y-64500000D01*
X173100000Y-62675000D01*
X174100000Y-63587500D01*
G37*
D11*
X174100000Y-63587500D02*
X173100000Y-64500000D01*
X173100000Y-62675000D01*
X174100000Y-63587500D01*
D10*
%TO.C,LED3*%
X151850000Y-105050000D02*
X151850000Y-101550000D01*
X147600000Y-105800000D02*
X152600000Y-105800000D01*
X147600000Y-100800000D02*
X147600000Y-105800000D01*
X148350000Y-101550000D02*
X148350000Y-105050000D01*
X148350000Y-105050000D02*
X151850000Y-105050000D01*
X151850000Y-101550000D02*
X148350000Y-101550000D01*
X152600000Y-100800000D02*
X147600000Y-100800000D01*
X152600000Y-105800000D02*
X152600000Y-100800000D01*
G36*
X155100000Y-104587500D02*
G01*
X154100000Y-105500000D01*
X154100000Y-103675000D01*
X155100000Y-104587500D01*
G37*
D11*
X155100000Y-104587500D02*
X154100000Y-105500000D01*
X154100000Y-103675000D01*
X155100000Y-104587500D01*
D10*
%TO.C,LED12*%
X209600000Y-108800000D02*
X204600000Y-108800000D01*
X205350000Y-109550000D02*
X205350000Y-113050000D01*
X205350000Y-113050000D02*
X208850000Y-113050000D01*
X208850000Y-113050000D02*
X208850000Y-109550000D01*
X204600000Y-108800000D02*
X204600000Y-113800000D01*
X208850000Y-109550000D02*
X205350000Y-109550000D01*
X209600000Y-113800000D02*
X209600000Y-108800000D01*
X204600000Y-113800000D02*
X209600000Y-113800000D01*
G36*
X212100000Y-112587500D02*
G01*
X211100000Y-113500000D01*
X211100000Y-111675000D01*
X212100000Y-112587500D01*
G37*
D11*
X212100000Y-112587500D02*
X211100000Y-113500000D01*
X211100000Y-111675000D01*
X212100000Y-112587500D01*
%TO.C,D22*%
X245350000Y-87800000D02*
X245850000Y-87800000D01*
X245350000Y-87400000D02*
X245350000Y-88200000D01*
X244750000Y-87800000D02*
X244750000Y-88350000D01*
X244750000Y-87800000D02*
X245350000Y-87400000D01*
X244750000Y-87800000D02*
X244750000Y-87250000D01*
X244350000Y-87800000D02*
X244750000Y-87800000D01*
X245350000Y-88200000D02*
X244750000Y-87800000D01*
%TO.C,D16*%
X226350000Y-123200000D02*
X225750000Y-122800000D01*
X226350000Y-122400000D02*
X226350000Y-123200000D01*
X225350000Y-122800000D02*
X225750000Y-122800000D01*
X225750000Y-122800000D02*
X225750000Y-123350000D01*
X225750000Y-122800000D02*
X225750000Y-122250000D01*
X226350000Y-122800000D02*
X226850000Y-122800000D01*
X225750000Y-122800000D02*
X226350000Y-122400000D01*
D10*
%TO.C,MCU1*%
X142750000Y-51060000D02*
X140210000Y-51060000D01*
X142750000Y-51060000D02*
X142750000Y-53600000D01*
X140210000Y-53600000D02*
X140210000Y-51060000D01*
X142750000Y-53600000D02*
X140210000Y-53600000D01*
D11*
%TO.C,D4*%
X168750000Y-122800000D02*
X168750000Y-122250000D01*
X169350000Y-122400000D02*
X169350000Y-123200000D01*
X168750000Y-122800000D02*
X169350000Y-122400000D01*
X168750000Y-122800000D02*
X168750000Y-123350000D01*
X169350000Y-123200000D02*
X168750000Y-122800000D01*
X168350000Y-122800000D02*
X168750000Y-122800000D01*
X169350000Y-122800000D02*
X169850000Y-122800000D01*
D10*
%TO.C,LED17*%
X228600000Y-97800000D02*
X223600000Y-97800000D01*
X223600000Y-97800000D02*
X223600000Y-102800000D01*
X224350000Y-98550000D02*
X224350000Y-102050000D01*
X227850000Y-98550000D02*
X224350000Y-98550000D01*
X223600000Y-102800000D02*
X228600000Y-102800000D01*
X227850000Y-102050000D02*
X227850000Y-98550000D01*
X224350000Y-102050000D02*
X227850000Y-102050000D01*
X228600000Y-102800000D02*
X228600000Y-97800000D01*
G36*
X231100000Y-101587500D02*
G01*
X230100000Y-102500000D01*
X230100000Y-100675000D01*
X231100000Y-101587500D01*
G37*
D11*
X231100000Y-101587500D02*
X230100000Y-102500000D01*
X230100000Y-100675000D01*
X231100000Y-101587500D01*
D10*
%TO.C,LED13*%
X208850000Y-94050000D02*
X208850000Y-90550000D01*
X208850000Y-90550000D02*
X205350000Y-90550000D01*
X205350000Y-90550000D02*
X205350000Y-94050000D01*
X209600000Y-94800000D02*
X209600000Y-89800000D01*
X209600000Y-89800000D02*
X204600000Y-89800000D01*
X205350000Y-94050000D02*
X208850000Y-94050000D01*
X204600000Y-89800000D02*
X204600000Y-94800000D01*
X204600000Y-94800000D02*
X209600000Y-94800000D01*
G36*
X212100000Y-93587500D02*
G01*
X211100000Y-94500000D01*
X211100000Y-92675000D01*
X212100000Y-93587500D01*
G37*
D11*
X212100000Y-93587500D02*
X211100000Y-94500000D01*
X211100000Y-92675000D01*
X212100000Y-93587500D01*
D10*
%TO.C,LED21*%
X247600000Y-105800000D02*
X247600000Y-100800000D01*
X246850000Y-105050000D02*
X246850000Y-101550000D01*
X242600000Y-105800000D02*
X247600000Y-105800000D01*
X246850000Y-101550000D02*
X243350000Y-101550000D01*
X243350000Y-105050000D02*
X246850000Y-105050000D01*
X243350000Y-101550000D02*
X243350000Y-105050000D01*
X247600000Y-100800000D02*
X242600000Y-100800000D01*
X242600000Y-100800000D02*
X242600000Y-105800000D01*
G36*
X250100000Y-104587500D02*
G01*
X249100000Y-105500000D01*
X249100000Y-103675000D01*
X250100000Y-104587500D01*
G37*
D11*
X250100000Y-104587500D02*
X249100000Y-105500000D01*
X249100000Y-103675000D01*
X250100000Y-104587500D01*
%TO.C,D15*%
X206750000Y-57800000D02*
X207350000Y-57400000D01*
X207350000Y-57800000D02*
X207850000Y-57800000D01*
X206750000Y-57800000D02*
X206750000Y-58350000D01*
X206350000Y-57800000D02*
X206750000Y-57800000D01*
X206750000Y-57800000D02*
X206750000Y-57250000D01*
X207350000Y-57400000D02*
X207350000Y-58200000D01*
X207350000Y-58200000D02*
X206750000Y-57800000D01*
%TO.C,D20*%
X244750000Y-125800000D02*
X245350000Y-125400000D01*
X245350000Y-125400000D02*
X245350000Y-126200000D01*
X244750000Y-125800000D02*
X244750000Y-125250000D01*
X245350000Y-126200000D02*
X244750000Y-125800000D01*
X244350000Y-125800000D02*
X244750000Y-125800000D01*
X244750000Y-125800000D02*
X244750000Y-126350000D01*
X245350000Y-125800000D02*
X245850000Y-125800000D01*
D10*
%TO.C,LED15*%
X208850000Y-52550000D02*
X205350000Y-52550000D01*
X204600000Y-56800000D02*
X209600000Y-56800000D01*
X209600000Y-56800000D02*
X209600000Y-51800000D01*
X204600000Y-51800000D02*
X204600000Y-56800000D01*
X205350000Y-56050000D02*
X208850000Y-56050000D01*
X208850000Y-56050000D02*
X208850000Y-52550000D01*
X209600000Y-51800000D02*
X204600000Y-51800000D01*
X205350000Y-52550000D02*
X205350000Y-56050000D01*
G36*
X212100000Y-55587500D02*
G01*
X211100000Y-56500000D01*
X211100000Y-54675000D01*
X212100000Y-55587500D01*
G37*
D11*
X212100000Y-55587500D02*
X211100000Y-56500000D01*
X211100000Y-54675000D01*
X212100000Y-55587500D01*
D10*
%TO.C,LED6*%
X167350000Y-83050000D02*
X170850000Y-83050000D01*
X166600000Y-83800000D02*
X171600000Y-83800000D01*
X167350000Y-79550000D02*
X167350000Y-83050000D01*
X170850000Y-79550000D02*
X167350000Y-79550000D01*
X170850000Y-83050000D02*
X170850000Y-79550000D01*
X166600000Y-78800000D02*
X166600000Y-83800000D01*
X171600000Y-78800000D02*
X166600000Y-78800000D01*
X171600000Y-83800000D02*
X171600000Y-78800000D01*
G36*
X174100000Y-82587500D02*
G01*
X173100000Y-83500000D01*
X173100000Y-81675000D01*
X174100000Y-82587500D01*
G37*
D11*
X174100000Y-82587500D02*
X173100000Y-83500000D01*
X173100000Y-81675000D01*
X174100000Y-82587500D01*
%TO.C,D2*%
X150350000Y-126200000D02*
X149750000Y-125800000D01*
X150350000Y-125400000D02*
X150350000Y-126200000D01*
X149750000Y-125800000D02*
X150350000Y-125400000D01*
X149750000Y-125800000D02*
X149750000Y-125250000D01*
X149750000Y-125800000D02*
X149750000Y-126350000D01*
X150350000Y-125800000D02*
X150850000Y-125800000D01*
X149350000Y-125800000D02*
X149750000Y-125800000D01*
%TO.C,D5*%
X168350000Y-103800000D02*
X168750000Y-103800000D01*
X169350000Y-104200000D02*
X168750000Y-103800000D01*
X169350000Y-103400000D02*
X169350000Y-104200000D01*
X169350000Y-103800000D02*
X169850000Y-103800000D01*
X168750000Y-103800000D02*
X169350000Y-103400000D01*
X168750000Y-103800000D02*
X168750000Y-103250000D01*
X168750000Y-103800000D02*
X168750000Y-104350000D01*
%TO.C,D7*%
X169350000Y-65800000D02*
X169850000Y-65800000D01*
X168750000Y-65800000D02*
X169350000Y-65400000D01*
X168350000Y-65800000D02*
X168750000Y-65800000D01*
X169350000Y-65400000D02*
X169350000Y-66200000D01*
X168750000Y-65800000D02*
X168750000Y-66350000D01*
X168750000Y-65800000D02*
X168750000Y-65250000D01*
X169350000Y-66200000D02*
X168750000Y-65800000D01*
%TO.C,D13*%
X206750000Y-95800000D02*
X207350000Y-95400000D01*
X207350000Y-96200000D02*
X206750000Y-95800000D01*
X206750000Y-95800000D02*
X206750000Y-96350000D01*
X207350000Y-95400000D02*
X207350000Y-96200000D01*
X206350000Y-95800000D02*
X206750000Y-95800000D01*
X206750000Y-95800000D02*
X206750000Y-95250000D01*
X207350000Y-95800000D02*
X207850000Y-95800000D01*
%TO.C,D18*%
X226350000Y-84400000D02*
X226350000Y-85200000D01*
X225750000Y-84800000D02*
X226350000Y-84400000D01*
X225750000Y-84800000D02*
X225750000Y-84250000D01*
X226350000Y-85200000D02*
X225750000Y-84800000D01*
X225350000Y-84800000D02*
X225750000Y-84800000D01*
X226350000Y-84800000D02*
X226850000Y-84800000D01*
X225750000Y-84800000D02*
X225750000Y-85350000D01*
D10*
%TO.C,LED11*%
X189850000Y-54550000D02*
X186350000Y-54550000D01*
X185600000Y-58800000D02*
X190600000Y-58800000D01*
X189850000Y-58050000D02*
X189850000Y-54550000D01*
X186350000Y-58050000D02*
X189850000Y-58050000D01*
X190600000Y-58800000D02*
X190600000Y-53800000D01*
X190600000Y-53800000D02*
X185600000Y-53800000D01*
X185600000Y-53800000D02*
X185600000Y-58800000D01*
X186350000Y-54550000D02*
X186350000Y-58050000D01*
G36*
X193100000Y-57587500D02*
G01*
X192100000Y-58500000D01*
X192100000Y-56675000D01*
X193100000Y-57587500D01*
G37*
D11*
X193100000Y-57587500D02*
X192100000Y-58500000D01*
X192100000Y-56675000D01*
X193100000Y-57587500D01*
%TO.C,D21*%
X245350000Y-106800000D02*
X245850000Y-106800000D01*
X244750000Y-106800000D02*
X244750000Y-106250000D01*
X245350000Y-107200000D02*
X244750000Y-106800000D01*
X244350000Y-106800000D02*
X244750000Y-106800000D01*
X245350000Y-106400000D02*
X245350000Y-107200000D01*
X244750000Y-106800000D02*
X244750000Y-107350000D01*
X244750000Y-106800000D02*
X245350000Y-106400000D01*
%TO.C,D11*%
X187750000Y-59800000D02*
X187750000Y-59250000D01*
X188350000Y-59400000D02*
X188350000Y-60200000D01*
X188350000Y-59800000D02*
X188850000Y-59800000D01*
X187750000Y-59800000D02*
X188350000Y-59400000D01*
X187750000Y-59800000D02*
X187750000Y-60350000D01*
X188350000Y-60200000D02*
X187750000Y-59800000D01*
X187350000Y-59800000D02*
X187750000Y-59800000D01*
D10*
%TO.C,LED14*%
X205350000Y-71550000D02*
X205350000Y-75050000D01*
X205350000Y-75050000D02*
X208850000Y-75050000D01*
X208850000Y-75050000D02*
X208850000Y-71550000D01*
X209600000Y-70800000D02*
X204600000Y-70800000D01*
X204600000Y-70800000D02*
X204600000Y-75800000D01*
X208850000Y-71550000D02*
X205350000Y-71550000D01*
X204600000Y-75800000D02*
X209600000Y-75800000D01*
X209600000Y-75800000D02*
X209600000Y-70800000D01*
G36*
X212100000Y-74587500D02*
G01*
X211100000Y-75500000D01*
X211100000Y-73675000D01*
X212100000Y-74587500D01*
G37*
D11*
X212100000Y-74587500D02*
X211100000Y-75500000D01*
X211100000Y-73675000D01*
X212100000Y-74587500D01*
D10*
%TO.C,LED22*%
X247600000Y-86800000D02*
X247600000Y-81800000D01*
X242600000Y-86800000D02*
X247600000Y-86800000D01*
X243350000Y-86050000D02*
X246850000Y-86050000D01*
X247600000Y-81800000D02*
X242600000Y-81800000D01*
X242600000Y-81800000D02*
X242600000Y-86800000D01*
X243350000Y-82550000D02*
X243350000Y-86050000D01*
X246850000Y-86050000D02*
X246850000Y-82550000D01*
X246850000Y-82550000D02*
X243350000Y-82550000D01*
G36*
X250100000Y-85587500D02*
G01*
X249100000Y-86500000D01*
X249100000Y-84675000D01*
X250100000Y-85587500D01*
G37*
D11*
X250100000Y-85587500D02*
X249100000Y-86500000D01*
X249100000Y-84675000D01*
X250100000Y-85587500D01*
D10*
%TO.C,LED4*%
X166600000Y-121800000D02*
X171600000Y-121800000D01*
X170850000Y-117550000D02*
X167350000Y-117550000D01*
X166600000Y-116800000D02*
X166600000Y-121800000D01*
X171600000Y-116800000D02*
X166600000Y-116800000D01*
X170850000Y-121050000D02*
X170850000Y-117550000D01*
X167350000Y-121050000D02*
X170850000Y-121050000D01*
X167350000Y-117550000D02*
X167350000Y-121050000D01*
X171600000Y-121800000D02*
X171600000Y-116800000D01*
G36*
X174100000Y-120587500D02*
G01*
X173100000Y-121500000D01*
X173100000Y-119675000D01*
X174100000Y-120587500D01*
G37*
D11*
X174100000Y-120587500D02*
X173100000Y-121500000D01*
X173100000Y-119675000D01*
X174100000Y-120587500D01*
D10*
%TO.C,LED18*%
X223600000Y-78800000D02*
X223600000Y-83800000D01*
X228600000Y-83800000D02*
X228600000Y-78800000D01*
X227850000Y-79550000D02*
X224350000Y-79550000D01*
X223600000Y-83800000D02*
X228600000Y-83800000D01*
X224350000Y-79550000D02*
X224350000Y-83050000D01*
X227850000Y-83050000D02*
X227850000Y-79550000D01*
X228600000Y-78800000D02*
X223600000Y-78800000D01*
X224350000Y-83050000D02*
X227850000Y-83050000D01*
G36*
X231100000Y-82587500D02*
G01*
X230100000Y-83500000D01*
X230100000Y-81675000D01*
X231100000Y-82587500D01*
G37*
D11*
X231100000Y-82587500D02*
X230100000Y-83500000D01*
X230100000Y-81675000D01*
X231100000Y-82587500D01*
%TO.C,D10*%
X187750000Y-78800000D02*
X187750000Y-78250000D01*
X187750000Y-78800000D02*
X188350000Y-78400000D01*
X188350000Y-78400000D02*
X188350000Y-79200000D01*
X187750000Y-78800000D02*
X187750000Y-79350000D01*
X188350000Y-78800000D02*
X188850000Y-78800000D01*
X187350000Y-78800000D02*
X187750000Y-78800000D01*
X188350000Y-79200000D02*
X187750000Y-78800000D01*
%TO.C,D23*%
X244750000Y-68800000D02*
X244750000Y-69350000D01*
X244750000Y-68800000D02*
X245350000Y-68400000D01*
X244750000Y-68800000D02*
X244750000Y-68250000D01*
X245350000Y-68400000D02*
X245350000Y-69200000D01*
X244350000Y-68800000D02*
X244750000Y-68800000D01*
X245350000Y-68800000D02*
X245850000Y-68800000D01*
X245350000Y-69200000D02*
X244750000Y-68800000D01*
%TO.C,D12*%
X207350000Y-115200000D02*
X206750000Y-114800000D01*
X206750000Y-114800000D02*
X206750000Y-114250000D01*
X206750000Y-114800000D02*
X207350000Y-114400000D01*
X206750000Y-114800000D02*
X206750000Y-115350000D01*
X207350000Y-114800000D02*
X207850000Y-114800000D01*
X206350000Y-114800000D02*
X206750000Y-114800000D01*
X207350000Y-114400000D02*
X207350000Y-115200000D01*
D10*
%TO.C,LED8*%
X186350000Y-111550000D02*
X186350000Y-115050000D01*
X185600000Y-115800000D02*
X190600000Y-115800000D01*
X190600000Y-110800000D02*
X185600000Y-110800000D01*
X189850000Y-111550000D02*
X186350000Y-111550000D01*
X186350000Y-115050000D02*
X189850000Y-115050000D01*
X189850000Y-115050000D02*
X189850000Y-111550000D01*
X190600000Y-115800000D02*
X190600000Y-110800000D01*
X185600000Y-110800000D02*
X185600000Y-115800000D01*
G36*
X193100000Y-114587500D02*
G01*
X192100000Y-115500000D01*
X192100000Y-113675000D01*
X193100000Y-114587500D01*
G37*
D11*
X193100000Y-114587500D02*
X192100000Y-115500000D01*
X192100000Y-113675000D01*
X193100000Y-114587500D01*
%TD*%
M02*
