M48
; DRILL file {KiCad 6.0.10-86aedd382b~118~ubuntu22.04.1} date Tue 31 Jan 2023 06:23:31 PM MST
; FORMAT={-:-/ absolute / inch / decimal}
; #@! TF.CreationDate,2023-01-31T18:23:31-07:00
; #@! TF.GenerationSoftware,Kicad,Pcbnew,6.0.10-86aedd382b~118~ubuntu22.04.1
; #@! TF.FileFunction,NonPlated,1,2,NPTH
FMAT,2
INCH
; #@! TA.AperFunction,NonPlated,NPTH,ComponentDrill
T1C0.0591
; #@! TA.AperFunction,NonPlated,NPTH,ComponentDrill
T2C0.0670
; #@! TA.AperFunction,NonPlated,NPTH,ComponentDrill
T3C0.1181
; #@! TA.AperFunction,NonPlated,NPTH,ComponentDrill
T4C0.1570
%
G90
G05
T1
X10.3346Y-2.1063
X10.3346Y-2.3819
T2
X4.9614Y-4.3031
X5.3614Y-4.3031
X5.7094Y-3.8701
X5.7094Y-4.6181
X6.1094Y-3.8701
X6.1094Y-4.6181
X6.4575Y-2.2559
X6.4575Y-3.0039
X6.4575Y-3.752
X6.4575Y-4.5
X6.8575Y-2.2559
X6.8575Y-3.0039
X6.8575Y-3.752
X6.8575Y-4.5
X7.2055Y-2.0197
X7.2055Y-2.7677
X7.2055Y-3.5157
X7.2055Y-4.2638
X7.6055Y-2.0197
X7.6055Y-2.7677
X7.6055Y-3.5157
X7.6055Y-4.2638
X7.9535Y-1.9409
X7.9535Y-2.689
X7.9535Y-3.437
X7.9535Y-4.185
X8.3535Y-1.9409
X8.3535Y-2.689
X8.3535Y-3.437
X8.3535Y-4.185
X8.7016Y-2.2559
X8.7016Y-3.0039
X8.7016Y-3.752
X8.7016Y-4.5
X9.1016Y-2.2559
X9.1016Y-3.0039
X9.1016Y-3.752
X9.1016Y-4.5
X9.4496Y-2.374
X9.4496Y-3.122
X9.4496Y-3.8701
X9.4496Y-4.6181
X9.8496Y-2.374
X9.8496Y-3.122
X9.8496Y-3.8701
X9.8496Y-4.6181
T3
X5.0114Y-4.2031
X5.0614Y-4.1031
X5.2614Y-4.1031
X5.3114Y-4.2031
X5.7594Y-3.7701
X5.7594Y-4.5181
X5.8094Y-3.6701
X5.8094Y-4.4181
X6.0094Y-3.6701
X6.0094Y-4.4181
X6.0594Y-3.7701
X6.0594Y-4.5181
X6.5075Y-2.1559
X6.5075Y-2.9039
X6.5075Y-3.652
X6.5075Y-4.4
X6.5575Y-2.0559
X6.5575Y-2.8039
X6.5575Y-3.552
X6.5575Y-4.3
X6.7575Y-2.0559
X6.7575Y-2.8039
X6.7575Y-3.552
X6.7575Y-4.3
X6.8075Y-2.1559
X6.8075Y-2.9039
X6.8075Y-3.652
X6.8075Y-4.4
X7.2555Y-1.9197
X7.2555Y-2.6677
X7.2555Y-3.4157
X7.2555Y-4.1638
X7.3055Y-1.8197
X7.3055Y-2.5677
X7.3055Y-3.3157
X7.3055Y-4.0638
X7.5055Y-1.8197
X7.5055Y-2.5677
X7.5055Y-3.3157
X7.5055Y-4.0638
X7.5555Y-1.9197
X7.5555Y-2.6677
X7.5555Y-3.4157
X7.5555Y-4.1638
X8.0035Y-1.8409
X8.0035Y-2.589
X8.0035Y-3.337
X8.0035Y-4.085
X8.0535Y-1.7409
X8.0535Y-2.489
X8.0535Y-3.237
X8.0535Y-3.985
X8.2535Y-1.7409
X8.2535Y-2.489
X8.2535Y-3.237
X8.2535Y-3.985
X8.3035Y-1.8409
X8.3035Y-2.589
X8.3035Y-3.337
X8.3035Y-4.085
X8.7516Y-2.1559
X8.7516Y-2.9039
X8.7516Y-3.652
X8.7516Y-4.4
X8.8016Y-2.0559
X8.8016Y-2.8039
X8.8016Y-3.552
X8.8016Y-4.3
X9.0016Y-2.0559
X9.0016Y-2.8039
X9.0016Y-3.552
X9.0016Y-4.3
X9.0516Y-2.1559
X9.0516Y-2.9039
X9.0516Y-3.652
X9.0516Y-4.4
X9.4996Y-2.274
X9.4996Y-3.022
X9.4996Y-3.7701
X9.4996Y-4.5181
X9.5496Y-2.174
X9.5496Y-2.922
X9.5496Y-3.6701
X9.5496Y-4.4181
X9.7496Y-2.174
X9.7496Y-2.922
X9.7496Y-3.6701
X9.7496Y-4.4181
X9.7996Y-2.274
X9.7996Y-3.022
X9.7996Y-3.7701
X9.7996Y-4.5181
T4
X5.1614Y-4.3031
X5.9094Y-3.8701
X5.9094Y-4.6181
X6.6575Y-2.2559
X6.6575Y-3.0039
X6.6575Y-3.752
X6.6575Y-4.5
X7.4055Y-2.0197
X7.4055Y-2.7677
X7.4055Y-3.5157
X7.4055Y-4.2638
X8.1535Y-1.9409
X8.1535Y-2.689
X8.1535Y-3.437
X8.1535Y-4.185
X8.9016Y-2.2559
X8.9016Y-3.0039
X8.9016Y-3.752
X8.9016Y-4.5
X9.6496Y-2.374
X9.6496Y-3.122
X9.6496Y-3.8701
X9.6496Y-4.6181
T0
M30
