%TF.GenerationSoftware,KiCad,Pcbnew,6.0.10-86aedd382b~118~ubuntu22.04.1*%
%TF.CreationDate,2023-01-31T18:23:29-07:00*%
%TF.ProjectId,scaarix_flow,73636161-7269-4785-9f66-6c6f772e6b69,v1.0.0*%
%TF.SameCoordinates,Original*%
%TF.FileFunction,Profile,NP*%
%FSLAX46Y46*%
G04 Gerber Fmt 4.6, Leading zero omitted, Abs format (unit mm)*
G04 Created by KiCad (PCBNEW 6.0.10-86aedd382b~118~ubuntu22.04.1) date 2023-01-31 18:23:29*
%MOMM*%
%LPD*%
G01*
G04 APERTURE LIST*
%TA.AperFunction,Profile*%
%ADD10C,0.150000*%
%TD*%
G04 APERTURE END LIST*
D10*
X174500000Y-43700000D02*
X159500000Y-43700000D01*
X131600000Y-131300000D02*
X256365070Y-131344501D01*
X268600000Y-62550000D02*
X268600000Y-55050000D01*
X265600000Y-52050000D02*
X258700000Y-52050000D01*
X216700000Y-35700000D02*
X197500000Y-35700000D01*
X220700000Y-40700000D02*
X220700000Y-39700000D01*
X220700000Y-40700000D02*
G75*
G03*
X223700000Y-43700000I3000000J0D01*
G01*
X121500000Y-122900000D02*
X125500000Y-122900000D01*
X197500000Y-35700000D02*
G75*
G03*
X194700583Y-36842857I0J-4000000D01*
G01*
X136500000Y-88700000D02*
X136500000Y-92700000D01*
X141600000Y-49800000D02*
G75*
G03*
X138600000Y-52800000I0J-3000000D01*
G01*
X256365071Y-131344470D02*
G75*
G03*
X262100000Y-126900000I128029J5757070D01*
G01*
X258700000Y-52050000D02*
X258700000Y-50700000D01*
X128499930Y-127899993D02*
G75*
G03*
X131600000Y-131300000I3100070J-286707D01*
G01*
X192601021Y-37700000D02*
X178500000Y-37700000D01*
X117499984Y-118820000D02*
G75*
G03*
X121500000Y-122900000I4000016J-79200D01*
G01*
X137700000Y-85843429D02*
G75*
G03*
X136500000Y-88700000I2800000J-2856571D01*
G01*
X159500000Y-43700000D02*
G75*
G03*
X155500000Y-47700000I0J-4000000D01*
G01*
X137700000Y-85843429D02*
G75*
G03*
X138600000Y-83701000I-2100000J2142429D01*
G01*
X138600000Y-52800000D02*
X138600000Y-83701000D01*
X117500000Y-99700000D02*
X117500000Y-118820000D01*
X265100000Y-65550000D02*
G75*
G03*
X262100000Y-68550000I0J-3000000D01*
G01*
X238982596Y-45414293D02*
G75*
G03*
X241444563Y-46700001I2462004J1714393D01*
G01*
X178500000Y-37700000D02*
G75*
G03*
X174500000Y-41700000I0J-4000000D01*
G01*
X220700000Y-39700000D02*
G75*
G03*
X216700000Y-35700000I-4000000J0D01*
G01*
X258700000Y-50700000D02*
G75*
G03*
X254700000Y-46700000I-4000000J0D01*
G01*
X128500000Y-127900000D02*
X128500000Y-125900000D01*
X262100000Y-126900000D02*
X262100000Y-68550000D01*
X268600000Y-55050000D02*
G75*
G03*
X265600000Y-52050000I-3000000J0D01*
G01*
X265600000Y-65550000D02*
G75*
G03*
X268600000Y-62550000I0J3000000D01*
G01*
X192601021Y-37699986D02*
G75*
G03*
X194700584Y-36842857I-21J3000086D01*
G01*
X128500000Y-125900000D02*
G75*
G03*
X125500000Y-122900000I-3000000J0D01*
G01*
X133500000Y-95700000D02*
G75*
G03*
X136500000Y-92700000I0J3000000D01*
G01*
X155500000Y-47700000D02*
X155500000Y-49800000D01*
X174500000Y-41700000D02*
X174500000Y-43700000D01*
X155500000Y-49800000D02*
X141600000Y-49800000D01*
X254700000Y-46700000D02*
X241444563Y-46700000D01*
X238982607Y-45414286D02*
G75*
G03*
X235700000Y-43700000I-3282607J-2285714D01*
G01*
X121500000Y-95700000D02*
G75*
G03*
X117500000Y-99700000I0J-4000000D01*
G01*
X265100000Y-65550000D02*
X265600000Y-65550000D01*
X133500000Y-95700000D02*
X121500000Y-95700000D01*
X235700000Y-43700000D02*
X223700000Y-43700000D01*
M02*
