%TF.GenerationSoftware,KiCad,Pcbnew,6.0.10-86aedd382b~118~ubuntu22.04.1*%
%TF.CreationDate,2023-01-31T18:23:29-07:00*%
%TF.ProjectId,scaarix_flow,73636161-7269-4785-9f66-6c6f772e6b69,v1.0.0*%
%TF.SameCoordinates,Original*%
%TF.FileFunction,Soldermask,Bot*%
%TF.FilePolarity,Negative*%
%FSLAX46Y46*%
G04 Gerber Fmt 4.6, Leading zero omitted, Abs format (unit mm)*
G04 Created by KiCad (PCBNEW 6.0.10-86aedd382b~118~ubuntu22.04.1) date 2023-01-31 18:23:29*
%MOMM*%
%LPD*%
G01*
G04 APERTURE LIST*
G04 Aperture macros list*
%AMFreePoly0*
4,1,6,0.600000,0.200000,0.000000,-0.400000,-0.600000,0.200000,-0.600000,0.400000,0.600000,0.400000,0.600000,0.200000,0.600000,0.200000,$1*%
%AMFreePoly1*
4,1,6,0.600000,-0.250000,-0.600000,-0.250000,-0.600000,1.000000,0.000000,0.400000,0.600000,1.000000,0.600000,-0.250000,0.600000,-0.250000,$1*%
%AMFreePoly2*
4,1,22,0.500000,-0.850000,0.000000,-0.850000,0.000000,-0.845033,-0.079941,-0.843568,-0.215256,-0.801293,-0.333266,-0.722738,-0.424486,-0.614219,-0.481581,-0.484460,-0.499164,-0.350000,-0.500000,-0.350000,-0.500000,0.350000,-0.499164,0.350000,-0.499963,0.356109,-0.478152,0.496186,-0.417904,0.624511,-0.324060,0.730769,-0.204165,0.806417,-0.067858,0.845374,0.000000,0.844959,0.000000,0.850000,
0.500000,0.850000,0.500000,-0.850000,0.500000,-0.850000,$1*%
%AMFreePoly3*
4,1,20,-0.850000,0.850000,0.000000,0.850000,0.115358,0.842136,0.293503,0.797719,0.457955,0.716085,0.601041,0.601041,0.716085,0.457955,0.797719,0.293503,0.842136,0.115358,0.850000,0.000000,0.842136,-0.115358,0.797719,-0.293503,0.716085,-0.457955,0.601041,-0.601041,0.457955,-0.716085,0.293503,-0.797719,0.115358,-0.842136,0.000000,-0.850000,-0.850000,-0.850000,-0.850000,0.850000,
-0.850000,0.850000,$1*%
G04 Aperture macros list end*
%ADD10C,0.250000*%
%ADD11C,0.100000*%
%ADD12R,0.900000X1.200000*%
%ADD13R,1.778000X1.778000*%
%ADD14C,1.905000*%
%ADD15C,3.000000*%
%ADD16C,1.701800*%
%ADD17C,3.987800*%
%ADD18R,2.550000X2.500000*%
%ADD19R,1.600000X1.600000*%
%ADD20C,1.600000*%
%ADD21FreePoly0,270.000000*%
%ADD22FreePoly0,90.000000*%
%ADD23FreePoly1,90.000000*%
%ADD24FreePoly1,270.000000*%
%ADD25C,1.500000*%
%ADD26O,1.600000X2.200000*%
%ADD27FreePoly2,270.000000*%
%ADD28R,1.700000X1.700000*%
%ADD29FreePoly3,270.000000*%
%ADD30R,2.600000X1.000000*%
%ADD31R,2.000000X1.200000*%
%ADD32R,2.200000X2.000000*%
G04 APERTURE END LIST*
D10*
%TO.C,MCU1*%
X148463000Y-70110000D02*
G75*
G03*
X148463000Y-70110000I-125000J0D01*
G01*
X148463000Y-67570000D02*
G75*
G03*
X148463000Y-67570000I-125000J0D01*
G01*
X149987000Y-57410000D02*
G75*
G03*
X149987000Y-57410000I-125000J0D01*
G01*
X148463000Y-80270000D02*
G75*
G03*
X148463000Y-80270000I-125000J0D01*
G01*
X148463000Y-59950000D02*
G75*
G03*
X148463000Y-59950000I-125000J0D01*
G01*
X148463000Y-57410000D02*
G75*
G03*
X148463000Y-57410000I-125000J0D01*
G01*
X148463000Y-65030000D02*
G75*
G03*
X148463000Y-65030000I-125000J0D01*
G01*
X149987000Y-75190000D02*
G75*
G03*
X149987000Y-75190000I-125000J0D01*
G01*
X148463000Y-72650000D02*
G75*
G03*
X148463000Y-72650000I-125000J0D01*
G01*
X148463000Y-52330000D02*
G75*
G03*
X148463000Y-52330000I-125000J0D01*
G01*
X149987000Y-54870000D02*
G75*
G03*
X149987000Y-54870000I-125000J0D01*
G01*
X149987000Y-72650000D02*
G75*
G03*
X149987000Y-72650000I-125000J0D01*
G01*
X149987000Y-59950000D02*
G75*
G03*
X149987000Y-59950000I-125000J0D01*
G01*
X149987000Y-52330000D02*
G75*
G03*
X149987000Y-52330000I-125000J0D01*
G01*
X149987000Y-77730000D02*
G75*
G03*
X149987000Y-77730000I-125000J0D01*
G01*
X149987000Y-65030000D02*
G75*
G03*
X149987000Y-65030000I-125000J0D01*
G01*
X148463000Y-54870000D02*
G75*
G03*
X148463000Y-54870000I-125000J0D01*
G01*
X148463000Y-62490000D02*
G75*
G03*
X148463000Y-62490000I-125000J0D01*
G01*
X149987000Y-67570000D02*
G75*
G03*
X149987000Y-67570000I-125000J0D01*
G01*
X149987000Y-80270000D02*
G75*
G03*
X149987000Y-80270000I-125000J0D01*
G01*
X148463000Y-75190000D02*
G75*
G03*
X148463000Y-75190000I-125000J0D01*
G01*
X149987000Y-62490000D02*
G75*
G03*
X149987000Y-62490000I-125000J0D01*
G01*
X148463000Y-77730000D02*
G75*
G03*
X148463000Y-77730000I-125000J0D01*
G01*
X149987000Y-70110000D02*
G75*
G03*
X149987000Y-70110000I-125000J0D01*
G01*
G36*
X144020000Y-70618000D02*
G01*
X143004000Y-70618000D01*
X143004000Y-69602000D01*
X144020000Y-69602000D01*
X144020000Y-70618000D01*
G37*
D11*
X144020000Y-70618000D02*
X143004000Y-70618000D01*
X143004000Y-69602000D01*
X144020000Y-69602000D01*
X144020000Y-70618000D01*
G36*
X144020000Y-52838000D02*
G01*
X143004000Y-52838000D01*
X143004000Y-51822000D01*
X144020000Y-51822000D01*
X144020000Y-52838000D01*
G37*
X144020000Y-52838000D02*
X143004000Y-52838000D01*
X143004000Y-51822000D01*
X144020000Y-51822000D01*
X144020000Y-52838000D01*
G36*
X155196000Y-70618000D02*
G01*
X154180000Y-70618000D01*
X154180000Y-69602000D01*
X155196000Y-69602000D01*
X155196000Y-70618000D01*
G37*
X155196000Y-70618000D02*
X154180000Y-70618000D01*
X154180000Y-69602000D01*
X155196000Y-69602000D01*
X155196000Y-70618000D01*
G36*
X144020000Y-62998000D02*
G01*
X143004000Y-62998000D01*
X143004000Y-61982000D01*
X144020000Y-61982000D01*
X144020000Y-62998000D01*
G37*
X144020000Y-62998000D02*
X143004000Y-62998000D01*
X143004000Y-61982000D01*
X144020000Y-61982000D01*
X144020000Y-62998000D01*
G36*
X144020000Y-55378000D02*
G01*
X143004000Y-55378000D01*
X143004000Y-54362000D01*
X144020000Y-54362000D01*
X144020000Y-55378000D01*
G37*
X144020000Y-55378000D02*
X143004000Y-55378000D01*
X143004000Y-54362000D01*
X144020000Y-54362000D01*
X144020000Y-55378000D01*
G36*
X155196000Y-62998000D02*
G01*
X154180000Y-62998000D01*
X154180000Y-61982000D01*
X155196000Y-61982000D01*
X155196000Y-62998000D01*
G37*
X155196000Y-62998000D02*
X154180000Y-62998000D01*
X154180000Y-61982000D01*
X155196000Y-61982000D01*
X155196000Y-62998000D01*
G36*
X144020000Y-78238000D02*
G01*
X143004000Y-78238000D01*
X143004000Y-77222000D01*
X144020000Y-77222000D01*
X144020000Y-78238000D01*
G37*
X144020000Y-78238000D02*
X143004000Y-78238000D01*
X143004000Y-77222000D01*
X144020000Y-77222000D01*
X144020000Y-78238000D01*
G36*
X155196000Y-60458000D02*
G01*
X154180000Y-60458000D01*
X154180000Y-59442000D01*
X155196000Y-59442000D01*
X155196000Y-60458000D01*
G37*
X155196000Y-60458000D02*
X154180000Y-60458000D01*
X154180000Y-59442000D01*
X155196000Y-59442000D01*
X155196000Y-60458000D01*
G36*
X155196000Y-78238000D02*
G01*
X154180000Y-78238000D01*
X154180000Y-77222000D01*
X155196000Y-77222000D01*
X155196000Y-78238000D01*
G37*
X155196000Y-78238000D02*
X154180000Y-78238000D01*
X154180000Y-77222000D01*
X155196000Y-77222000D01*
X155196000Y-78238000D01*
G36*
X144020000Y-57918000D02*
G01*
X143004000Y-57918000D01*
X143004000Y-56902000D01*
X144020000Y-56902000D01*
X144020000Y-57918000D01*
G37*
X144020000Y-57918000D02*
X143004000Y-57918000D01*
X143004000Y-56902000D01*
X144020000Y-56902000D01*
X144020000Y-57918000D01*
G36*
X155196000Y-55378000D02*
G01*
X154180000Y-55378000D01*
X154180000Y-54362000D01*
X155196000Y-54362000D01*
X155196000Y-55378000D01*
G37*
X155196000Y-55378000D02*
X154180000Y-55378000D01*
X154180000Y-54362000D01*
X155196000Y-54362000D01*
X155196000Y-55378000D01*
G36*
X155196000Y-73158000D02*
G01*
X154180000Y-73158000D01*
X154180000Y-72142000D01*
X155196000Y-72142000D01*
X155196000Y-73158000D01*
G37*
X155196000Y-73158000D02*
X154180000Y-73158000D01*
X154180000Y-72142000D01*
X155196000Y-72142000D01*
X155196000Y-73158000D01*
G36*
X144020000Y-80778000D02*
G01*
X143004000Y-80778000D01*
X143004000Y-79762000D01*
X144020000Y-79762000D01*
X144020000Y-80778000D01*
G37*
X144020000Y-80778000D02*
X143004000Y-80778000D01*
X143004000Y-79762000D01*
X144020000Y-79762000D01*
X144020000Y-80778000D01*
G36*
X155196000Y-65538000D02*
G01*
X154180000Y-65538000D01*
X154180000Y-64522000D01*
X155196000Y-64522000D01*
X155196000Y-65538000D01*
G37*
X155196000Y-65538000D02*
X154180000Y-65538000D01*
X154180000Y-64522000D01*
X155196000Y-64522000D01*
X155196000Y-65538000D01*
G36*
X144020000Y-65538000D02*
G01*
X143004000Y-65538000D01*
X143004000Y-64522000D01*
X144020000Y-64522000D01*
X144020000Y-65538000D01*
G37*
X144020000Y-65538000D02*
X143004000Y-65538000D01*
X143004000Y-64522000D01*
X144020000Y-64522000D01*
X144020000Y-65538000D01*
G36*
X155196000Y-80778000D02*
G01*
X154180000Y-80778000D01*
X154180000Y-79762000D01*
X155196000Y-79762000D01*
X155196000Y-80778000D01*
G37*
X155196000Y-80778000D02*
X154180000Y-80778000D01*
X154180000Y-79762000D01*
X155196000Y-79762000D01*
X155196000Y-80778000D01*
G36*
X155196000Y-75698000D02*
G01*
X154180000Y-75698000D01*
X154180000Y-74682000D01*
X155196000Y-74682000D01*
X155196000Y-75698000D01*
G37*
X155196000Y-75698000D02*
X154180000Y-75698000D01*
X154180000Y-74682000D01*
X155196000Y-74682000D01*
X155196000Y-75698000D01*
G36*
X144020000Y-68078000D02*
G01*
X143004000Y-68078000D01*
X143004000Y-67062000D01*
X144020000Y-67062000D01*
X144020000Y-68078000D01*
G37*
X144020000Y-68078000D02*
X143004000Y-68078000D01*
X143004000Y-67062000D01*
X144020000Y-67062000D01*
X144020000Y-68078000D01*
G36*
X144020000Y-73158000D02*
G01*
X143004000Y-73158000D01*
X143004000Y-72142000D01*
X144020000Y-72142000D01*
X144020000Y-73158000D01*
G37*
X144020000Y-73158000D02*
X143004000Y-73158000D01*
X143004000Y-72142000D01*
X144020000Y-72142000D01*
X144020000Y-73158000D01*
G36*
X155196000Y-68078000D02*
G01*
X154180000Y-68078000D01*
X154180000Y-67062000D01*
X155196000Y-67062000D01*
X155196000Y-68078000D01*
G37*
X155196000Y-68078000D02*
X154180000Y-68078000D01*
X154180000Y-67062000D01*
X155196000Y-67062000D01*
X155196000Y-68078000D01*
G36*
X155196000Y-52838000D02*
G01*
X154180000Y-52838000D01*
X154180000Y-51822000D01*
X155196000Y-51822000D01*
X155196000Y-52838000D01*
G37*
X155196000Y-52838000D02*
X154180000Y-52838000D01*
X154180000Y-51822000D01*
X155196000Y-51822000D01*
X155196000Y-52838000D01*
G36*
X144020000Y-60458000D02*
G01*
X143004000Y-60458000D01*
X143004000Y-59442000D01*
X144020000Y-59442000D01*
X144020000Y-60458000D01*
G37*
X144020000Y-60458000D02*
X143004000Y-60458000D01*
X143004000Y-59442000D01*
X144020000Y-59442000D01*
X144020000Y-60458000D01*
G36*
X155196000Y-57918000D02*
G01*
X154180000Y-57918000D01*
X154180000Y-56902000D01*
X155196000Y-56902000D01*
X155196000Y-57918000D01*
G37*
X155196000Y-57918000D02*
X154180000Y-57918000D01*
X154180000Y-56902000D01*
X155196000Y-56902000D01*
X155196000Y-57918000D01*
G36*
X144020000Y-75698000D02*
G01*
X143004000Y-75698000D01*
X143004000Y-74682000D01*
X144020000Y-74682000D01*
X144020000Y-75698000D01*
G37*
X144020000Y-75698000D02*
X143004000Y-75698000D01*
X143004000Y-74682000D01*
X144020000Y-74682000D01*
X144020000Y-75698000D01*
%TD*%
D12*
%TO.C,D6*%
X167450000Y-84800000D03*
D13*
X165290000Y-84800000D03*
D14*
X172910000Y-84800000D03*
D12*
X170750000Y-84800000D03*
%TD*%
%TO.C,D9*%
X186450000Y-97800000D03*
D13*
X184290000Y-97800000D03*
D14*
X191910000Y-97800000D03*
D12*
X189750000Y-97800000D03*
%TD*%
D15*
%TO.C,S15*%
X210910000Y-46760000D03*
D16*
X212180000Y-49300000D03*
X202020000Y-49300000D03*
D17*
X207100000Y-49300000D03*
D15*
X209640000Y-44220000D03*
X203290000Y-46760000D03*
X204560000Y-44220000D03*
D18*
X200015000Y-46760000D03*
X212942000Y-44220000D03*
%TD*%
D15*
%TO.C,S10*%
X185560000Y-65220000D03*
D17*
X188100000Y-70300000D03*
D15*
X191910000Y-67760000D03*
D16*
X183020000Y-70300000D03*
X193180000Y-70300000D03*
D15*
X184290000Y-67760000D03*
X190640000Y-65220000D03*
D18*
X181015000Y-67760000D03*
X193942000Y-65220000D03*
%TD*%
D15*
%TO.C,S3*%
X153910000Y-95760000D03*
X146290000Y-95760000D03*
X147560000Y-93220000D03*
D16*
X155180000Y-98300000D03*
X145020000Y-98300000D03*
D17*
X150100000Y-98300000D03*
D15*
X152640000Y-93220000D03*
D18*
X143015000Y-95760000D03*
X155942000Y-93220000D03*
%TD*%
D15*
%TO.C,S22*%
X248910000Y-76760000D03*
D16*
X250180000Y-79300000D03*
D17*
X245100000Y-79300000D03*
D15*
X241290000Y-76760000D03*
X242560000Y-74220000D03*
D16*
X240020000Y-79300000D03*
D15*
X247640000Y-74220000D03*
D18*
X238015000Y-76760000D03*
X250942000Y-74220000D03*
%TD*%
D15*
%TO.C,S20*%
X241290000Y-114760000D03*
X242560000Y-112220000D03*
X248910000Y-114760000D03*
D16*
X250180000Y-117300000D03*
D15*
X247640000Y-112220000D03*
D17*
X245100000Y-117300000D03*
D16*
X240020000Y-117300000D03*
D18*
X238015000Y-114760000D03*
X250942000Y-112220000D03*
%TD*%
D13*
%TO.C,D19*%
X222290000Y-65800000D03*
D12*
X224450000Y-65800000D03*
X227750000Y-65800000D03*
D14*
X229910000Y-65800000D03*
%TD*%
D15*
%TO.C,S16*%
X228640000Y-109220000D03*
X223560000Y-109220000D03*
D16*
X221020000Y-114300000D03*
D15*
X222290000Y-111760000D03*
D17*
X226100000Y-114300000D03*
D16*
X231180000Y-114300000D03*
D15*
X229910000Y-111760000D03*
D18*
X219015000Y-111760000D03*
X231942000Y-109220000D03*
%TD*%
D16*
%TO.C,S9*%
X183020000Y-89300000D03*
D15*
X184290000Y-86760000D03*
D17*
X188100000Y-89300000D03*
D15*
X185560000Y-84220000D03*
X191910000Y-86760000D03*
X190640000Y-84220000D03*
D16*
X193180000Y-89300000D03*
D18*
X181015000Y-86760000D03*
X193942000Y-84220000D03*
%TD*%
D13*
%TO.C,D3*%
X146290000Y-106800000D03*
D12*
X148450000Y-106800000D03*
X151750000Y-106800000D03*
D14*
X153910000Y-106800000D03*
%TD*%
D15*
%TO.C,S19*%
X223560000Y-52220000D03*
X222290000Y-54760000D03*
X228640000Y-52220000D03*
D17*
X226100000Y-57300000D03*
D16*
X231180000Y-57300000D03*
X221020000Y-57300000D03*
D15*
X229910000Y-54760000D03*
D18*
X219015000Y-54760000D03*
X231942000Y-52220000D03*
%TD*%
D12*
%TO.C,D14*%
X205450000Y-76800000D03*
D13*
X203290000Y-76800000D03*
D12*
X208750000Y-76800000D03*
D14*
X210910000Y-76800000D03*
%TD*%
D12*
%TO.C,D17*%
X224450000Y-103800000D03*
D13*
X222290000Y-103800000D03*
D14*
X229910000Y-103800000D03*
D12*
X227750000Y-103800000D03*
%TD*%
D13*
%TO.C,D8*%
X184290000Y-116800000D03*
D12*
X186450000Y-116800000D03*
D14*
X191910000Y-116800000D03*
D12*
X189750000Y-116800000D03*
%TD*%
D15*
%TO.C,S4*%
X172910000Y-111760000D03*
D17*
X169100000Y-114300000D03*
D16*
X164020000Y-114300000D03*
D15*
X171640000Y-109220000D03*
X165290000Y-111760000D03*
D16*
X174180000Y-114300000D03*
D15*
X166560000Y-109220000D03*
D18*
X162015000Y-111760000D03*
X174942000Y-109220000D03*
%TD*%
D13*
%TO.C,D1*%
X127290000Y-117800000D03*
D12*
X129450000Y-117800000D03*
X132750000Y-117800000D03*
D14*
X134910000Y-117800000D03*
%TD*%
D13*
%TO.C,D22*%
X241290000Y-87800000D03*
D12*
X243450000Y-87800000D03*
D14*
X248910000Y-87800000D03*
D12*
X246750000Y-87800000D03*
%TD*%
D15*
%TO.C,S11*%
X185560000Y-46220000D03*
D16*
X183020000Y-51300000D03*
D15*
X184290000Y-48760000D03*
D16*
X193180000Y-51300000D03*
D17*
X188100000Y-51300000D03*
D15*
X191910000Y-48760000D03*
X190640000Y-46220000D03*
D18*
X181015000Y-48760000D03*
X193942000Y-46220000D03*
%TD*%
D12*
%TO.C,D16*%
X224450000Y-122800000D03*
D13*
X222290000Y-122800000D03*
D14*
X229910000Y-122800000D03*
D12*
X227750000Y-122800000D03*
%TD*%
D19*
%TO.C,MCU1*%
X156720000Y-52330000D03*
D20*
X141480000Y-77730000D03*
D21*
X154942000Y-65030000D03*
X154942000Y-54870000D03*
D22*
X143258000Y-57410000D03*
D21*
X154942000Y-52330000D03*
D20*
X156720000Y-80270000D03*
D21*
X154942000Y-57410000D03*
X154942000Y-59950000D03*
D22*
X143258000Y-62490000D03*
D20*
X141480000Y-62490000D03*
D22*
X143258000Y-80270000D03*
D21*
X154942000Y-72650000D03*
D20*
X141480000Y-72650000D03*
X156720000Y-65030000D03*
X156720000Y-67570000D03*
X141480000Y-52330000D03*
D22*
X143258000Y-75190000D03*
D20*
X156720000Y-62490000D03*
D21*
X154942000Y-67570000D03*
D20*
X141480000Y-75190000D03*
X141480000Y-59950000D03*
D22*
X143258000Y-52330000D03*
D21*
X154942000Y-77730000D03*
X154942000Y-80270000D03*
D20*
X156720000Y-57410000D03*
D21*
X154942000Y-75190000D03*
D22*
X143258000Y-72650000D03*
D21*
X154942000Y-70110000D03*
D20*
X156720000Y-54870000D03*
X156720000Y-59950000D03*
X156720000Y-70110000D03*
D22*
X143258000Y-77730000D03*
X143258000Y-70110000D03*
D20*
X141480000Y-70110000D03*
X141480000Y-57410000D03*
D22*
X143258000Y-59950000D03*
X143258000Y-65030000D03*
X143258000Y-67570000D03*
D20*
X156720000Y-52330000D03*
X141480000Y-67570000D03*
X156720000Y-72650000D03*
X156720000Y-75190000D03*
X141480000Y-65030000D03*
D22*
X143258000Y-54870000D03*
D20*
X156720000Y-77730000D03*
D21*
X154942000Y-62490000D03*
D20*
X141480000Y-54870000D03*
X141480000Y-80270000D03*
D23*
X144274000Y-52330000D03*
X144274000Y-54870000D03*
X144274000Y-57410000D03*
X144274000Y-59950000D03*
X144274000Y-62490000D03*
X144274000Y-65030000D03*
X144274000Y-67570000D03*
X144274000Y-70110000D03*
X144274000Y-72650000D03*
X144274000Y-75190000D03*
X144274000Y-77730000D03*
X144274000Y-80270000D03*
D24*
X153926000Y-80270000D03*
X153926000Y-77730000D03*
X153926000Y-75190000D03*
X153926000Y-72650000D03*
X153926000Y-70110000D03*
X153926000Y-67570000D03*
X153926000Y-65030000D03*
X153926000Y-62490000D03*
X153926000Y-59950000D03*
X153926000Y-57410000D03*
X153926000Y-54870000D03*
X153926000Y-52330000D03*
%TD*%
D13*
%TO.C,D4*%
X165290000Y-122800000D03*
D12*
X167450000Y-122800000D03*
X170750000Y-122800000D03*
D14*
X172910000Y-122800000D03*
%TD*%
D15*
%TO.C,S23*%
X241290000Y-57760000D03*
D16*
X240020000Y-60300000D03*
D17*
X245100000Y-60300000D03*
D16*
X250180000Y-60300000D03*
D15*
X242560000Y-55220000D03*
X247640000Y-55220000D03*
X248910000Y-57760000D03*
D18*
X238015000Y-57760000D03*
X250942000Y-55220000D03*
%TD*%
D25*
%TO.C,TRRS*%
X262500000Y-60500000D03*
X262500000Y-53500000D03*
D26*
X260200000Y-63200000D03*
X264800000Y-63200000D03*
X260200000Y-62100000D03*
X264800000Y-62100000D03*
X260200000Y-58100000D03*
X264800000Y-58100000D03*
X260200000Y-55100000D03*
X264800000Y-55100000D03*
%TD*%
D13*
%TO.C,D15*%
X203290000Y-57800000D03*
D12*
X205450000Y-57800000D03*
D14*
X210910000Y-57800000D03*
D12*
X208750000Y-57800000D03*
%TD*%
D27*
%TO.C,OLED1*%
X145280000Y-84549000D03*
X147820000Y-84549000D03*
X150360000Y-84549000D03*
X152900000Y-84549000D03*
D28*
X152900000Y-86200000D03*
D29*
X150360000Y-86200000D03*
X147820000Y-86200000D03*
X145280000Y-86200000D03*
%TD*%
D13*
%TO.C,D20*%
X241290000Y-125800000D03*
D12*
X243450000Y-125800000D03*
X246750000Y-125800000D03*
D14*
X248910000Y-125800000D03*
%TD*%
D15*
%TO.C,S21*%
X248910000Y-95760000D03*
D16*
X250180000Y-98300000D03*
D15*
X247640000Y-93220000D03*
D17*
X245100000Y-98300000D03*
D16*
X240020000Y-98300000D03*
D15*
X241290000Y-95760000D03*
X242560000Y-93220000D03*
D18*
X238015000Y-95760000D03*
X250942000Y-93220000D03*
%TD*%
D15*
%TO.C,S2*%
X146290000Y-114760000D03*
D16*
X145020000Y-117300000D03*
D17*
X150100000Y-117300000D03*
D15*
X153910000Y-114760000D03*
X147560000Y-112220000D03*
D16*
X155180000Y-117300000D03*
D15*
X152640000Y-112220000D03*
D18*
X143015000Y-114760000D03*
X155942000Y-112220000D03*
%TD*%
D13*
%TO.C,D2*%
X146290000Y-125800000D03*
D12*
X148450000Y-125800000D03*
X151750000Y-125800000D03*
D14*
X153910000Y-125800000D03*
%TD*%
D16*
%TO.C,S8*%
X193180000Y-108300000D03*
D15*
X191910000Y-105760000D03*
D17*
X188100000Y-108300000D03*
D15*
X185560000Y-103220000D03*
X190640000Y-103220000D03*
X184290000Y-105760000D03*
D16*
X183020000Y-108300000D03*
D18*
X181015000Y-105760000D03*
X193942000Y-103220000D03*
%TD*%
D12*
%TO.C,D5*%
X167450000Y-103800000D03*
D13*
X165290000Y-103800000D03*
D14*
X172910000Y-103800000D03*
D12*
X170750000Y-103800000D03*
%TD*%
D15*
%TO.C,S13*%
X204560000Y-82220000D03*
D16*
X202020000Y-87300000D03*
D17*
X207100000Y-87300000D03*
D15*
X209640000Y-82220000D03*
D16*
X212180000Y-87300000D03*
D15*
X210910000Y-84760000D03*
X203290000Y-84760000D03*
D18*
X200015000Y-84760000D03*
X212942000Y-82220000D03*
%TD*%
D13*
%TO.C,D7*%
X165290000Y-65800000D03*
D12*
X167450000Y-65800000D03*
X170750000Y-65800000D03*
D14*
X172910000Y-65800000D03*
%TD*%
D16*
%TO.C,S1*%
X136180000Y-109300000D03*
X126020000Y-109300000D03*
D15*
X133640000Y-104220000D03*
X127290000Y-106760000D03*
D17*
X131100000Y-109300000D03*
D15*
X134910000Y-106760000D03*
X128560000Y-104220000D03*
D18*
X124015000Y-106760000D03*
X136942000Y-104220000D03*
%TD*%
D12*
%TO.C,D13*%
X205450000Y-95800000D03*
D13*
X203290000Y-95800000D03*
D14*
X210910000Y-95800000D03*
D12*
X208750000Y-95800000D03*
%TD*%
D16*
%TO.C,S5*%
X174180000Y-95300000D03*
D15*
X172910000Y-92760000D03*
D16*
X164020000Y-95300000D03*
D15*
X165290000Y-92760000D03*
X166560000Y-90220000D03*
X171640000Y-90220000D03*
D17*
X169100000Y-95300000D03*
D18*
X162015000Y-92760000D03*
X174942000Y-90220000D03*
%TD*%
D12*
%TO.C,D18*%
X224450000Y-84800000D03*
D13*
X222290000Y-84800000D03*
D14*
X229910000Y-84800000D03*
D12*
X227750000Y-84800000D03*
%TD*%
D15*
%TO.C,S6*%
X166560000Y-71220000D03*
X165290000Y-73760000D03*
D16*
X174180000Y-76300000D03*
D15*
X172910000Y-73760000D03*
D17*
X169100000Y-76300000D03*
D16*
X164020000Y-76300000D03*
D15*
X171640000Y-71220000D03*
D18*
X162015000Y-73760000D03*
X174942000Y-71220000D03*
%TD*%
D16*
%TO.C,S12*%
X212180000Y-106300000D03*
D15*
X209640000Y-101220000D03*
X204560000Y-101220000D03*
X203290000Y-103760000D03*
D16*
X202020000Y-106300000D03*
D17*
X207100000Y-106300000D03*
D15*
X210910000Y-103760000D03*
D18*
X200015000Y-103760000D03*
X212942000Y-101220000D03*
%TD*%
D15*
%TO.C,S7*%
X172910000Y-54760000D03*
X166560000Y-52220000D03*
D16*
X174180000Y-57300000D03*
X164020000Y-57300000D03*
D17*
X169100000Y-57300000D03*
D15*
X165290000Y-54760000D03*
X171640000Y-52220000D03*
D18*
X162015000Y-54760000D03*
X174942000Y-52220000D03*
%TD*%
D16*
%TO.C,S14*%
X212180000Y-68300000D03*
X202020000Y-68300000D03*
D15*
X210910000Y-65760000D03*
D17*
X207100000Y-68300000D03*
D15*
X203290000Y-65760000D03*
X209640000Y-63220000D03*
X204560000Y-63220000D03*
D18*
X200015000Y-65760000D03*
X212942000Y-63220000D03*
%TD*%
D16*
%TO.C,S18*%
X221020000Y-76300000D03*
D15*
X228640000Y-71220000D03*
D16*
X231180000Y-76300000D03*
D15*
X229910000Y-73760000D03*
X222290000Y-73760000D03*
D17*
X226100000Y-76300000D03*
D15*
X223560000Y-71220000D03*
D18*
X219015000Y-73760000D03*
X231942000Y-71220000D03*
%TD*%
D12*
%TO.C,D21*%
X243450000Y-106800000D03*
D13*
X241290000Y-106800000D03*
D14*
X248910000Y-106800000D03*
D12*
X246750000Y-106800000D03*
%TD*%
D13*
%TO.C,D11*%
X184290000Y-59800000D03*
D12*
X186450000Y-59800000D03*
D14*
X191910000Y-59800000D03*
D12*
X189750000Y-59800000D03*
%TD*%
D17*
%TO.C,S17*%
X226100000Y-95300000D03*
D15*
X228640000Y-90220000D03*
X222290000Y-92760000D03*
X223560000Y-90220000D03*
D16*
X231180000Y-95300000D03*
X221020000Y-95300000D03*
D15*
X229910000Y-92760000D03*
D18*
X219015000Y-92760000D03*
X231942000Y-90220000D03*
%TD*%
D13*
%TO.C,D10*%
X184290000Y-78800000D03*
D12*
X186450000Y-78800000D03*
D14*
X191910000Y-78800000D03*
D12*
X189750000Y-78800000D03*
%TD*%
D13*
%TO.C,D23*%
X241290000Y-68800000D03*
D12*
X243450000Y-68800000D03*
D14*
X248910000Y-68800000D03*
D12*
X246750000Y-68800000D03*
%TD*%
%TO.C,D12*%
X205450000Y-114800000D03*
D13*
X203290000Y-114800000D03*
D12*
X208750000Y-114800000D03*
D14*
X210910000Y-114800000D03*
%TD*%
D30*
%TO.C,LED37*%
X190300000Y-74425000D03*
X190300000Y-76175000D03*
X185900000Y-76175000D03*
X185900000Y-74425000D03*
D31*
X190600000Y-73700000D03*
X190600000Y-76900000D03*
X185600000Y-76900000D03*
X185600000Y-73700000D03*
%TD*%
D30*
%TO.C,LED29*%
X152300000Y-121425000D03*
X152300000Y-123175000D03*
X147900000Y-123175000D03*
X147900000Y-121425000D03*
D31*
X152600000Y-120700000D03*
X152600000Y-123900000D03*
X147600000Y-123900000D03*
X147600000Y-120700000D03*
%TD*%
D30*
%TO.C,LED41*%
X209300000Y-72425000D03*
X209300000Y-74175000D03*
X204900000Y-74175000D03*
X204900000Y-72425000D03*
D31*
X209600000Y-71700000D03*
X209600000Y-74900000D03*
X204600000Y-74900000D03*
X204600000Y-71700000D03*
%TD*%
D30*
%TO.C,LED31*%
X171300000Y-118400000D03*
X171300000Y-120150000D03*
X166900000Y-120150000D03*
X166900000Y-118400000D03*
D31*
X171600000Y-117675000D03*
X171600000Y-120875000D03*
X166600000Y-120875000D03*
X166600000Y-117675000D03*
%TD*%
D30*
%TO.C,LED43*%
X228300000Y-118425000D03*
X228300000Y-120175000D03*
X223900000Y-120175000D03*
X223900000Y-118425000D03*
D31*
X228600000Y-117700000D03*
X228600000Y-120900000D03*
X223600000Y-120900000D03*
X223600000Y-117700000D03*
%TD*%
D30*
%TO.C,LED39*%
X209300000Y-110425000D03*
X209300000Y-112175000D03*
X204900000Y-112175000D03*
X204900000Y-110425000D03*
D31*
X209600000Y-109700000D03*
X209600000Y-112900000D03*
X204600000Y-112900000D03*
X204600000Y-109700000D03*
%TD*%
D30*
%TO.C,LED36*%
X190300000Y-93425000D03*
X190300000Y-95175000D03*
X185900000Y-95175000D03*
X185900000Y-93425000D03*
D31*
X190600000Y-92700000D03*
X190600000Y-95900000D03*
X185600000Y-95900000D03*
X185600000Y-92700000D03*
%TD*%
D30*
%TO.C,LED47*%
X247300000Y-121425000D03*
X247300000Y-123175000D03*
X242900000Y-123175000D03*
X242900000Y-121425000D03*
D31*
X247600000Y-120700000D03*
X247600000Y-123900000D03*
X242600000Y-123900000D03*
X242600000Y-120700000D03*
%TD*%
D30*
%TO.C,LED38*%
X190300000Y-55425000D03*
X190300000Y-57175000D03*
X185900000Y-57175000D03*
X185900000Y-55425000D03*
D31*
X190600000Y-54700000D03*
X190600000Y-57900000D03*
X185600000Y-57900000D03*
X185600000Y-54700000D03*
%TD*%
D30*
%TO.C,LED42*%
X209300000Y-53425000D03*
X209300000Y-55175000D03*
X204900000Y-55175000D03*
X204900000Y-53425000D03*
D31*
X209600000Y-52700000D03*
X209600000Y-55900000D03*
X204600000Y-55900000D03*
X204600000Y-52700000D03*
%TD*%
D30*
%TO.C,LED50*%
X247300000Y-64425000D03*
X247300000Y-66175000D03*
X242900000Y-66175000D03*
X242900000Y-64425000D03*
D31*
X247600000Y-63700000D03*
X247600000Y-66900000D03*
X242600000Y-66900000D03*
X242600000Y-63700000D03*
%TD*%
D30*
%TO.C,LED28*%
X133300000Y-113425000D03*
X133300000Y-115175000D03*
X128900000Y-115175000D03*
X128900000Y-113425000D03*
D31*
X133600000Y-112700000D03*
X133600000Y-115900000D03*
X128600000Y-115900000D03*
X128600000Y-112700000D03*
%TD*%
D30*
%TO.C,LED40*%
X209300000Y-91425000D03*
X209300000Y-93175000D03*
X204900000Y-93175000D03*
X204900000Y-91425000D03*
D31*
X209600000Y-90700000D03*
X209600000Y-93900000D03*
X204600000Y-93900000D03*
X204600000Y-90700000D03*
%TD*%
D30*
%TO.C,LED35*%
X190300000Y-112425000D03*
X190300000Y-114175000D03*
X185900000Y-114175000D03*
X185900000Y-112425000D03*
D31*
X190600000Y-111700000D03*
X190600000Y-114900000D03*
X185600000Y-114900000D03*
X185600000Y-111700000D03*
%TD*%
D30*
%TO.C,LED34*%
X171300000Y-61400000D03*
X171300000Y-63150000D03*
X166900000Y-63150000D03*
X166900000Y-61400000D03*
D31*
X171600000Y-60675000D03*
X171600000Y-63875000D03*
X166600000Y-63875000D03*
X166600000Y-60675000D03*
%TD*%
D30*
%TO.C,LED44*%
X228300000Y-99425000D03*
X228300000Y-101175000D03*
X223900000Y-101175000D03*
X223900000Y-99425000D03*
D31*
X228600000Y-98700000D03*
X228600000Y-101900000D03*
X223600000Y-101900000D03*
X223600000Y-98700000D03*
%TD*%
D30*
%TO.C,LED30*%
X152300000Y-102425000D03*
X152300000Y-104175000D03*
X147900000Y-104175000D03*
X147900000Y-102425000D03*
D31*
X152600000Y-101700000D03*
X152600000Y-104900000D03*
X147600000Y-104900000D03*
X147600000Y-101700000D03*
%TD*%
D30*
%TO.C,LED46*%
X228300000Y-61425000D03*
X228300000Y-63175000D03*
X223900000Y-63175000D03*
X223900000Y-61425000D03*
D31*
X228600000Y-60700000D03*
X228600000Y-63900000D03*
X223600000Y-63900000D03*
X223600000Y-60700000D03*
%TD*%
D30*
%TO.C,LED32*%
X171300000Y-99400000D03*
X171300000Y-101150000D03*
X166900000Y-101150000D03*
X166900000Y-99400000D03*
D31*
X171600000Y-98675000D03*
X171600000Y-101875000D03*
X166600000Y-101875000D03*
X166600000Y-98675000D03*
%TD*%
D30*
%TO.C,LED49*%
X247300000Y-83425000D03*
X247300000Y-85175000D03*
X242900000Y-85175000D03*
X242900000Y-83425000D03*
D31*
X247600000Y-82700000D03*
X247600000Y-85900000D03*
X242600000Y-85900000D03*
X242600000Y-82700000D03*
%TD*%
D30*
%TO.C,LED33*%
X171300000Y-80400000D03*
X171300000Y-82150000D03*
X166900000Y-82150000D03*
X166900000Y-80400000D03*
D31*
X171600000Y-79675000D03*
X171600000Y-82875000D03*
X166600000Y-82875000D03*
X166600000Y-79675000D03*
%TD*%
D30*
%TO.C,LED48*%
X247300000Y-102425000D03*
X247300000Y-104175000D03*
X242900000Y-104175000D03*
X242900000Y-102425000D03*
D31*
X247600000Y-101700000D03*
X247600000Y-104900000D03*
X242600000Y-104900000D03*
X242600000Y-101700000D03*
%TD*%
D30*
%TO.C,LED45*%
X228300000Y-80425000D03*
X228300000Y-82175000D03*
X223900000Y-82175000D03*
X223900000Y-80425000D03*
D31*
X228600000Y-79700000D03*
X228600000Y-82900000D03*
X223600000Y-82900000D03*
X223600000Y-79700000D03*
%TD*%
D32*
%TO.C,J1*%
X256100000Y-69000000D03*
X259900000Y-69000000D03*
X259900000Y-75500000D03*
X256100000Y-75500000D03*
X256100000Y-83250000D03*
X259900000Y-83250000D03*
X259900000Y-90750000D03*
X256100000Y-90750000D03*
X259900000Y-98000000D03*
X256100000Y-98000000D03*
X256100000Y-105500000D03*
X259900000Y-105500000D03*
X259900000Y-113000000D03*
X256100000Y-113000000D03*
X256100000Y-118750000D03*
X259900000Y-118750000D03*
%TD*%
M02*
