M48
; DRILL file {KiCad 6.0.10-86aedd382b~118~ubuntu22.04.1} date Tue 31 Jan 2023 06:23:31 PM MST
; FORMAT={-:-/ absolute / inch / decimal}
; #@! TF.CreationDate,2023-01-31T18:23:31-07:00
; #@! TF.GenerationSoftware,Kicad,Pcbnew,6.0.10-86aedd382b~118~ubuntu22.04.1
; #@! TF.FileFunction,Plated,1,2,PTH
FMAT,2
INCH
; #@! TA.AperFunction,Plated,PTH,ViaDrill
T1C0.0157
; #@! TA.AperFunction,Plated,PTH,ComponentDrill
T2C0.0157
; #@! TA.AperFunction,Plated,PTH,ComponentDrill
T3C0.0354
; #@! TA.AperFunction,Plated,PTH,ComponentDrill
T4C0.0390
; #@! TA.AperFunction,Plated,PTH,ComponentDrill
T5C0.0394
; #@! TA.AperFunction,Plated,PTH,ComponentDrill
T6C0.0433
%
G90
G05
T1
X4.9333Y-4.4006
X5.1674Y-4.5234
X5.1717Y-4.4832
X5.1722Y-4.4429
X5.1803Y-4.608
X5.38Y-4.788
X5.4673Y-3.677
X5.5044Y-2.7987
X5.6081Y-2.4194
X5.6129Y-2.6132
X5.6671Y-3.2159
X5.6766Y-2.9102
X5.6815Y-2.3102
X5.6815Y-2.6102
X5.6821Y-2.2121
X5.7145Y-2.7909
X5.715Y-2.3952
X5.7718Y-2.0952
X5.7765Y-4.3117
X5.7838Y-3.2413
X5.7887Y-3.1889
X5.8111Y-3.0892
X5.8123Y-2.6892
X5.8391Y-2.9998
X5.8989Y-4.1307
X5.9Y-2.919
X5.9022Y-4.061
X5.9116Y-3.2842
X5.9173Y-4.752
X5.9264Y-2.4301
X5.9264Y-3.9766
X5.929Y-3.0313
X5.9449Y-3.2539
X5.9743Y-2.2253
X5.9921Y-2.0276
X6.0199Y-2.3201
X6.0252Y-2.7253
X6.0264Y-2.5287
X6.0279Y-2.6253
X6.0595Y-2.1102
X6.0786Y-4.0689
X6.1946Y-3.8435
X6.2141Y-4.4448
X6.222Y-4.7822
X6.2634Y-2.5159
X6.2722Y-2.2732
X6.2725Y-3.1206
X6.2838Y-4.1299
X6.3226Y-2.8112
X6.3736Y-3.2252
X6.4841Y-3.4781
X6.5293Y-2.6671
X6.6314Y-2.0993
X6.6317Y-2.7337
X6.6481Y-3.222
X6.6492Y-3.9281
X6.6512Y-3.1792
X6.6577Y-3.3379
X6.6674Y-2.5414
X6.6685Y-3.8844
X6.6691Y-2.4872
X6.7662Y-4.5849
X6.7939Y-1.9406
X6.8103Y-3.0932
X6.8429Y-3.8139
X6.8439Y-4.6296
X6.8487Y-2.4018
X6.8494Y-4.2078
X6.885Y-2.3435
X6.9009Y-3.9508
X6.9014Y-2.293
X6.9364Y-4.4746
X6.9557Y-4.1666
X6.9755Y-3.9951
X7.0103Y-2.9039
X7.0472Y-2.3801
X7.0959Y-3.1083
X7.1009Y-1.8197
X7.103Y-4.684
X7.1266Y-1.9933
X7.1459Y-3.2015
X7.1924Y-2.4946
X7.239Y-4.5395
X7.3592Y-3.1502
X7.3937Y-4.5048
X7.3952Y-4.441
X7.3953Y-3.813
X7.3956Y-2.2113
X7.3962Y-3.693
X7.4144Y-2.9963
X7.4353Y-2.2951
X7.4409Y-2.8783
X7.5058Y-4.3496
X7.5606Y-4.0001
X7.5641Y-3.7146
X7.5679Y-2.251
X7.5984Y-3.9646
X7.6453Y-3.2361
X7.6981Y-4.2378
X7.8401Y-3.9024
X7.8486Y-1.7409
X8.0075Y-3.9132
X8.1294Y-4.4607
X8.1418Y-2.081
X8.1441Y-2.8681
X8.1468Y-3.591
X8.1507Y-4.4042
X8.1535Y-2.1358
X8.1572Y-4.3566
X8.1644Y-2.2292
X8.1684Y-2.8057
X8.1762Y-3.5577
X8.1886Y-4.2943
X8.3058Y-3.8556
X8.3713Y-2.0309
X8.3888Y-2.3943
X8.4006Y-3.5282
X8.417Y-2.8546
X8.5605Y-2.3253
X8.7284Y-2.4756
X8.7429Y-3.9508
X8.8643Y-2.7384
X8.8801Y-4.6225
X8.8848Y-4.7697
X8.8908Y-4.6624
X8.8917Y-2.3878
X8.8954Y-3.906
X8.8996Y-3.2628
X8.9018Y-3.8661
X8.9082Y-2.4304
X8.9104Y-3.1634
X8.9445Y-4.1567
X9.0468Y-3.0543
X9.0776Y-3.1098
X9.0896Y-3.4729
X9.0982Y-1.9387
X9.1008Y-3.815
X9.1021Y-3.2307
X9.1199Y-4.2263
X9.1493Y-2.7084
X9.2062Y-2.0686
X9.3888Y-4.0689
X9.3997Y-2.5728
X9.4031Y-3.3209
X9.64Y-4.0421
X9.655Y-3.0157
X9.6611Y-4.7805
X9.6675Y-3.4808
X9.6734Y-3.2416
X9.6827Y-4.9073
X9.7073Y-2.0991
X9.8121Y-3.9675
X9.8298Y-2.5689
X9.8387Y-4.2551
X9.8778Y-4.3145
X9.8794Y-2.8447
X9.8951Y-3.5491
X10.044Y-2.0982
T2
X5.8401Y-2.0602
X5.8401Y-2.1602
X5.8401Y-2.2602
X5.8401Y-2.3602
X5.8401Y-2.4602
X5.8401Y-2.5602
X5.8401Y-2.6602
X5.8401Y-2.7602
X5.8401Y-2.8602
X5.8401Y-2.9602
X5.8401Y-3.0602
X5.8401Y-3.1602
X5.9001Y-2.0602
X5.9001Y-2.1602
X5.9001Y-2.2602
X5.9001Y-2.3602
X5.9001Y-2.4602
X5.9001Y-2.5602
X5.9001Y-2.6602
X5.9001Y-2.7602
X5.9001Y-2.8602
X5.9001Y-2.9602
X5.9001Y-3.0602
X5.9001Y-3.1602
X10.1575Y-2.7165
X10.1575Y-2.9724
X10.1575Y-3.2776
X10.1575Y-3.5728
X10.1575Y-3.8583
X10.1575Y-4.1535
X10.1575Y-4.4488
X10.1575Y-4.6752
T4
X5.0114Y-4.6378
X5.3114Y-4.6378
X5.7594Y-4.2047
X5.7594Y-4.9528
X6.0594Y-4.2047
X6.0594Y-4.9528
X6.5075Y-2.5906
X6.5075Y-3.3386
X6.5075Y-4.0866
X6.5075Y-4.8346
X6.8075Y-2.5906
X6.8075Y-3.3386
X6.8075Y-4.0866
X6.8075Y-4.8346
X7.2555Y-2.3543
X7.2555Y-3.1024
X7.2555Y-3.8504
X7.2555Y-4.5984
X7.5555Y-2.3543
X7.5555Y-3.1024
X7.5555Y-3.8504
X7.5555Y-4.5984
X8.0035Y-2.2756
X8.0035Y-3.0236
X8.0035Y-3.7717
X8.0035Y-4.5197
X8.3035Y-2.2756
X8.3035Y-3.0236
X8.3035Y-3.7717
X8.3035Y-4.5197
X8.7516Y-2.5906
X8.7516Y-3.3386
X8.7516Y-4.0866
X8.7516Y-4.8346
X9.0516Y-2.5906
X9.0516Y-3.3386
X9.0516Y-4.0866
X9.0516Y-4.8346
X9.4996Y-2.7087
X9.4996Y-3.4567
X9.4996Y-4.2047
X9.4996Y-4.9528
X9.7996Y-2.7087
X9.7996Y-3.4567
X9.7996Y-4.2047
X9.7996Y-4.9528
T5
X5.7197Y-3.3937
X5.8197Y-3.3937
X5.9197Y-3.3937
X6.0197Y-3.3937
T6
X5.5701Y-2.0602
X5.5701Y-2.0602
X5.5701Y-2.1602
X5.5701Y-2.2602
X5.5701Y-2.3602
X5.5701Y-2.4602
X5.5701Y-2.5602
X5.5701Y-2.6602
X5.5701Y-2.7602
X5.5701Y-2.8602
X5.5701Y-2.9602
X5.5701Y-3.0602
X5.5701Y-3.1602
X6.1701Y-2.0602
X6.1701Y-2.0602
X6.1701Y-2.1602
X6.1701Y-2.2602
X6.1701Y-2.3602
X6.1701Y-2.4602
X6.1701Y-2.5602
X6.1701Y-2.6602
X6.1701Y-2.7602
X6.1701Y-2.8602
X6.1701Y-2.9602
X6.1701Y-3.0602
X6.1701Y-3.1602
T3
G00X10.2441Y-2.1575
M15
G01X10.2441Y-2.1811
M16
G05
G00X10.2441Y-2.2756
M15
G01X10.2441Y-2.2992
M16
G05
G00X10.2441Y-2.4331
M15
G01X10.2441Y-2.4567
M16
G05
G00X10.2441Y-2.4764
M15
G01X10.2441Y-2.5
M16
G05
G00X10.4252Y-2.1575
M15
G01X10.4252Y-2.1811
M16
G05
G00X10.4252Y-2.2756
M15
G01X10.4252Y-2.2992
M16
G05
G00X10.4252Y-2.4331
M15
G01X10.4252Y-2.4567
M16
G05
G00X10.4252Y-2.4764
M15
G01X10.4252Y-2.5
M16
G05
T0
M30
