%TF.GenerationSoftware,KiCad,Pcbnew,(6.0.8)*%
%TF.CreationDate,2022-12-10T18:32:28-07:00*%
%TF.ProjectId,scaarix_flow,73636161-7269-4785-9f66-6c6f772e6b69,v1.0.0*%
%TF.SameCoordinates,Original*%
%TF.FileFunction,Paste,Bot*%
%TF.FilePolarity,Positive*%
%FSLAX46Y46*%
G04 Gerber Fmt 4.6, Leading zero omitted, Abs format (unit mm)*
G04 Created by KiCad (PCBNEW (6.0.8)) date 2022-12-10 18:32:28*
%MOMM*%
%LPD*%
G01*
G04 APERTURE LIST*
G04 Aperture macros list*
%AMRotRect*
0 Rectangle, with rotation*
0 The origin of the aperture is its center*
0 $1 length*
0 $2 width*
0 $3 Rotation angle, in degrees counterclockwise*
0 Add horizontal line*
21,1,$1,$2,0,0,$3*%
G04 Aperture macros list end*
%ADD10R,2.550000X2.500000*%
%ADD11R,0.900000X1.200000*%
%ADD12RotRect,2.550000X2.500000X159.000000*%
%ADD13RotRect,0.900000X1.200000X339.000000*%
G04 APERTURE END LIST*
D10*
%TO.C,S18*%
X214293500Y-102871500D03*
X227220500Y-100331500D03*
%TD*%
%TO.C,S7*%
X157293500Y-85871500D03*
X170220500Y-83331500D03*
%TD*%
%TO.C,S4*%
X138293500Y-69871500D03*
X151220500Y-67331500D03*
%TD*%
%TO.C,S22*%
X233293500Y-105871500D03*
X246220500Y-103331500D03*
%TD*%
%TO.C,S13*%
X195293500Y-117871500D03*
X208220500Y-115331500D03*
%TD*%
D11*
%TO.C,D19*%
X219728500Y-94611500D03*
X223028500Y-94611500D03*
%TD*%
%TO.C,D4*%
X143728500Y-80611500D03*
X147028500Y-80611500D03*
%TD*%
D10*
%TO.C,S11*%
X176293500Y-81871500D03*
X189220500Y-79331500D03*
%TD*%
%TO.C,S8*%
X157293500Y-66871500D03*
X170220500Y-64331500D03*
%TD*%
D11*
%TO.C,D21*%
X238728500Y-135611500D03*
X242028500Y-135611500D03*
%TD*%
%TO.C,D16*%
X200728500Y-71611500D03*
X204028500Y-71611500D03*
%TD*%
D10*
%TO.C,S17*%
X214293500Y-121871500D03*
X227220500Y-119331500D03*
%TD*%
D11*
%TO.C,D5*%
X162728500Y-134611500D03*
X166028500Y-134611500D03*
%TD*%
%TO.C,D7*%
X162728500Y-96611500D03*
X166028500Y-96611500D03*
%TD*%
D10*
%TO.C,S12*%
X176293500Y-62871500D03*
X189220500Y-60331500D03*
%TD*%
D11*
%TO.C,D2*%
X143728500Y-118611500D03*
X147028500Y-118611500D03*
%TD*%
D10*
%TO.C,S10*%
X176293500Y-100871500D03*
X189220500Y-98331500D03*
%TD*%
%TO.C,S6*%
X157293500Y-104871500D03*
X170220500Y-102331500D03*
%TD*%
D11*
%TO.C,D14*%
X200728500Y-109611500D03*
X204028500Y-109611500D03*
%TD*%
%TO.C,D20*%
X219728500Y-75611500D03*
X223028500Y-75611500D03*
%TD*%
D10*
%TO.C,S2*%
X138293500Y-107871500D03*
X151220500Y-105331500D03*
%TD*%
D11*
%TO.C,D13*%
X200728500Y-128611500D03*
X204028500Y-128611500D03*
%TD*%
D10*
%TO.C,S20*%
X214293500Y-64871500D03*
X227220500Y-62331500D03*
%TD*%
D11*
%TO.C,D17*%
X219728500Y-132611500D03*
X223028500Y-132611500D03*
%TD*%
D10*
%TO.C,S19*%
X214293500Y-83871500D03*
X227220500Y-81331500D03*
%TD*%
%TO.C,S15*%
X195293500Y-79871500D03*
X208220500Y-77331500D03*
%TD*%
D12*
%TO.C,S27*%
X261274337Y-192334943D03*
X274252986Y-194596271D03*
%TD*%
D11*
%TO.C,D6*%
X162728500Y-115611500D03*
X166028500Y-115611500D03*
%TD*%
%TO.C,D18*%
X219728500Y-113611500D03*
X223028500Y-113611500D03*
%TD*%
%TO.C,D11*%
X181728500Y-92611500D03*
X185028500Y-92611500D03*
%TD*%
D10*
%TO.C,S21*%
X233293500Y-124871500D03*
X246220500Y-122331500D03*
%TD*%
%TO.C,S9*%
X176293500Y-119871500D03*
X189220500Y-117331500D03*
%TD*%
D11*
%TO.C,D22*%
X238728500Y-116611500D03*
X242028500Y-116611500D03*
%TD*%
%TO.C,D12*%
X181728500Y-73611500D03*
X185028500Y-73611500D03*
%TD*%
%TO.C,D25*%
X240515570Y-140311500D03*
X243815570Y-140311500D03*
%TD*%
%TO.C,D26*%
X262128500Y-148177964D03*
X265428500Y-148177964D03*
%TD*%
D10*
%TO.C,S23*%
X233293500Y-86871500D03*
X246220500Y-84331500D03*
%TD*%
D11*
%TO.C,D15*%
X200728500Y-90611500D03*
X204028500Y-90611500D03*
%TD*%
%TO.C,D23*%
X238728500Y-97611500D03*
X242028500Y-97611500D03*
%TD*%
%TO.C,D24*%
X238728500Y-78611500D03*
X242028500Y-78611500D03*
%TD*%
D10*
%TO.C,S16*%
X195293500Y-60871500D03*
X208220500Y-58331500D03*
%TD*%
%TO.C,S5*%
X157293500Y-123871500D03*
X170220500Y-121331500D03*
%TD*%
D13*
%TO.C,D27*%
X262252805Y-204309327D03*
X265333621Y-205491941D03*
%TD*%
D10*
%TO.C,S1*%
X138293500Y-126871500D03*
X151220500Y-124331500D03*
%TD*%
%TO.C,S14*%
X195293500Y-98871500D03*
X208220500Y-96331500D03*
%TD*%
D11*
%TO.C,D8*%
X162728500Y-77611500D03*
X166028500Y-77611500D03*
%TD*%
%TO.C,D10*%
X181728500Y-111611500D03*
X185028500Y-111611500D03*
%TD*%
%TO.C,D9*%
X181728500Y-130611500D03*
X185028500Y-130611500D03*
%TD*%
%TO.C,D1*%
X143728500Y-137611500D03*
X147028500Y-137611500D03*
%TD*%
%TO.C,D3*%
X143728500Y-99611500D03*
X147028500Y-99611500D03*
%TD*%
D10*
%TO.C,S3*%
X138293500Y-88871500D03*
X151220500Y-86331500D03*
%TD*%
%TO.C,S24*%
X233293500Y-67871500D03*
X246220500Y-65331500D03*
%TD*%
M02*
