%TF.GenerationSoftware,KiCad,Pcbnew,6.0.10-86aedd382b~118~ubuntu22.04.1*%
%TF.CreationDate,2023-01-31T17:25:27-07:00*%
%TF.ProjectId,scaarix_flow,73636161-7269-4785-9f66-6c6f772e6b69,v1.0.0*%
%TF.SameCoordinates,Original*%
%TF.FileFunction,Legend,Bot*%
%TF.FilePolarity,Positive*%
%FSLAX46Y46*%
G04 Gerber Fmt 4.6, Leading zero omitted, Abs format (unit mm)*
G04 Created by KiCad (PCBNEW 6.0.10-86aedd382b~118~ubuntu22.04.1) date 2023-01-31 17:25:27*
%MOMM*%
%LPD*%
G01*
G04 APERTURE LIST*
%ADD10C,0.150000*%
%ADD11C,0.100000*%
G04 APERTURE END LIST*
D10*
X301652380Y-100745238D02*
X302366666Y-100745238D01*
X302509523Y-100697619D01*
X302604761Y-100602380D01*
X302652380Y-100459523D01*
X302652380Y-100364285D01*
X301652380Y-101221428D02*
X302461904Y-101221428D01*
X302557142Y-101269047D01*
X302604761Y-101316666D01*
X302652380Y-101411904D01*
X302652380Y-101602380D01*
X302604761Y-101697619D01*
X302557142Y-101745238D01*
X302461904Y-101792857D01*
X301652380Y-101792857D01*
X302652380Y-102269047D02*
X301652380Y-102269047D01*
X302366666Y-102602380D01*
X301652380Y-102935714D01*
X302652380Y-102935714D01*
X302652380Y-103411904D02*
X301652380Y-103411904D01*
X301652380Y-103792857D01*
X301700000Y-103888095D01*
X301747619Y-103935714D01*
X301842857Y-103983333D01*
X301985714Y-103983333D01*
X302080952Y-103935714D01*
X302128571Y-103888095D01*
X302176190Y-103792857D01*
X302176190Y-103411904D01*
X302128571Y-104411904D02*
X302128571Y-104745238D01*
X302652380Y-104888095D02*
X302652380Y-104411904D01*
X301652380Y-104411904D01*
X301652380Y-104888095D01*
X302652380Y-105888095D02*
X302176190Y-105554761D01*
X302652380Y-105316666D02*
X301652380Y-105316666D01*
X301652380Y-105697619D01*
X301700000Y-105792857D01*
X301747619Y-105840476D01*
X301842857Y-105888095D01*
X301985714Y-105888095D01*
X302080952Y-105840476D01*
X302128571Y-105792857D01*
X302176190Y-105697619D01*
X302176190Y-105316666D01*
D11*
%TO.C,D6*%
X168750000Y-84800000D02*
X169350000Y-84400000D01*
X168350000Y-84800000D02*
X168750000Y-84800000D01*
X169350000Y-85200000D02*
X168750000Y-84800000D01*
X169350000Y-84800000D02*
X169850000Y-84800000D01*
X169350000Y-84400000D02*
X169350000Y-85200000D01*
X168750000Y-84800000D02*
X168750000Y-84250000D01*
X168750000Y-84800000D02*
X168750000Y-85350000D01*
%TO.C,D9*%
X187750000Y-97800000D02*
X188350000Y-97400000D01*
X188350000Y-97400000D02*
X188350000Y-98200000D01*
X187750000Y-97800000D02*
X187750000Y-97250000D01*
X188350000Y-98200000D02*
X187750000Y-97800000D01*
X188350000Y-97800000D02*
X188850000Y-97800000D01*
X187750000Y-97800000D02*
X187750000Y-98350000D01*
X187350000Y-97800000D02*
X187750000Y-97800000D01*
%TO.C,D27*%
X300014007Y-173837593D02*
X299601977Y-174523326D01*
X299807992Y-174180460D02*
X300236575Y-174437979D01*
X299601977Y-174523326D02*
X299293691Y-173871437D01*
X299293691Y-173871437D02*
X299576962Y-173399995D01*
X298950825Y-173665421D02*
X299293691Y-173871437D01*
X299293691Y-173871437D02*
X299010421Y-174342879D01*
X299293691Y-173871437D02*
X300014007Y-173837593D01*
%TO.C,D19*%
X226350000Y-65400000D02*
X226350000Y-66200000D01*
X226350000Y-65800000D02*
X226850000Y-65800000D01*
X226350000Y-66200000D02*
X225750000Y-65800000D01*
X225750000Y-65800000D02*
X226350000Y-65400000D01*
X225750000Y-65800000D02*
X225750000Y-66350000D01*
X225350000Y-65800000D02*
X225750000Y-65800000D01*
X225750000Y-65800000D02*
X225750000Y-65250000D01*
%TO.C,D25*%
X278538012Y-164171245D02*
X278908886Y-164321088D01*
X279615039Y-164174978D02*
X279315353Y-164916725D01*
X278908886Y-164321088D02*
X279615039Y-164174978D01*
X279315353Y-164916725D02*
X278908886Y-164321088D01*
X278908886Y-164321088D02*
X278702852Y-164831039D01*
X278908886Y-164321088D02*
X279114919Y-163811137D01*
X279465196Y-164545852D02*
X279928788Y-164733155D01*
%TO.C,D3*%
X149750000Y-106800000D02*
X150350000Y-106400000D01*
X149350000Y-106800000D02*
X149750000Y-106800000D01*
X150350000Y-106800000D02*
X150850000Y-106800000D01*
X149750000Y-106800000D02*
X149750000Y-107350000D01*
X149750000Y-106800000D02*
X149750000Y-106250000D01*
X150350000Y-107200000D02*
X149750000Y-106800000D01*
X150350000Y-106400000D02*
X150350000Y-107200000D01*
%TO.C,D14*%
X206750000Y-76800000D02*
X207350000Y-76400000D01*
X207350000Y-76400000D02*
X207350000Y-77200000D01*
X206350000Y-76800000D02*
X206750000Y-76800000D01*
X206750000Y-76800000D02*
X206750000Y-76250000D01*
X206750000Y-76800000D02*
X206750000Y-77350000D01*
X207350000Y-77200000D02*
X206750000Y-76800000D01*
X207350000Y-76800000D02*
X207850000Y-76800000D01*
%TO.C,D17*%
X225750000Y-103800000D02*
X225750000Y-103250000D01*
X226350000Y-103400000D02*
X226350000Y-104200000D01*
X225750000Y-103800000D02*
X226350000Y-103400000D01*
X225750000Y-103800000D02*
X225750000Y-104350000D01*
X226350000Y-103800000D02*
X226850000Y-103800000D01*
X225350000Y-103800000D02*
X225750000Y-103800000D01*
X226350000Y-104200000D02*
X225750000Y-103800000D01*
%TO.C,D8*%
X188350000Y-116800000D02*
X188850000Y-116800000D01*
X187350000Y-116800000D02*
X187750000Y-116800000D01*
X187750000Y-116800000D02*
X187750000Y-116250000D01*
X188350000Y-116400000D02*
X188350000Y-117200000D01*
X187750000Y-116800000D02*
X187750000Y-117350000D01*
X188350000Y-117200000D02*
X187750000Y-116800000D01*
X187750000Y-116800000D02*
X188350000Y-116400000D01*
%TO.C,D1*%
X131350000Y-118200000D02*
X130750000Y-117800000D01*
X131350000Y-117400000D02*
X131350000Y-118200000D01*
X130750000Y-117800000D02*
X130750000Y-118350000D01*
X130750000Y-117800000D02*
X130750000Y-117250000D01*
X131350000Y-117800000D02*
X131850000Y-117800000D01*
X130350000Y-117800000D02*
X130750000Y-117800000D01*
X130750000Y-117800000D02*
X131350000Y-117400000D01*
%TO.C,D22*%
X245350000Y-87400000D02*
X245350000Y-88200000D01*
X244750000Y-87800000D02*
X244750000Y-87250000D01*
X244750000Y-87800000D02*
X245350000Y-87400000D01*
X245350000Y-87800000D02*
X245850000Y-87800000D01*
X244350000Y-87800000D02*
X244750000Y-87800000D01*
X245350000Y-88200000D02*
X244750000Y-87800000D01*
X244750000Y-87800000D02*
X244750000Y-88350000D01*
%TO.C,D16*%
X226350000Y-122400000D02*
X226350000Y-123200000D01*
X225750000Y-122800000D02*
X225750000Y-123350000D01*
X225750000Y-122800000D02*
X226350000Y-122400000D01*
X225350000Y-122800000D02*
X225750000Y-122800000D01*
X225750000Y-122800000D02*
X225750000Y-122250000D01*
X226350000Y-122800000D02*
X226850000Y-122800000D01*
X226350000Y-123200000D02*
X225750000Y-122800000D01*
D10*
%TO.C,MCU1*%
X155450000Y-51060000D02*
X155450000Y-53600000D01*
X155450000Y-51060000D02*
X157990000Y-51060000D01*
X155450000Y-53600000D02*
X157990000Y-53600000D01*
X157990000Y-53600000D02*
X157990000Y-51060000D01*
D11*
%TO.C,D4*%
X169350000Y-122400000D02*
X169350000Y-123200000D01*
X168750000Y-122800000D02*
X168750000Y-122250000D01*
X169350000Y-122800000D02*
X169850000Y-122800000D01*
X168350000Y-122800000D02*
X168750000Y-122800000D01*
X168750000Y-122800000D02*
X168750000Y-123350000D01*
X168750000Y-122800000D02*
X169350000Y-122400000D01*
X169350000Y-123200000D02*
X168750000Y-122800000D01*
%TO.C,D15*%
X207350000Y-57800000D02*
X207850000Y-57800000D01*
X206750000Y-57800000D02*
X207350000Y-57400000D01*
X206750000Y-57800000D02*
X206750000Y-57250000D01*
X206750000Y-57800000D02*
X206750000Y-58350000D01*
X206350000Y-57800000D02*
X206750000Y-57800000D01*
X207350000Y-58200000D02*
X206750000Y-57800000D01*
X207350000Y-57400000D02*
X207350000Y-58200000D01*
%TO.C,D20*%
X244350000Y-125800000D02*
X244750000Y-125800000D01*
X245350000Y-125400000D02*
X245350000Y-126200000D01*
X245350000Y-126200000D02*
X244750000Y-125800000D01*
X244750000Y-125800000D02*
X245350000Y-125400000D01*
X244750000Y-125800000D02*
X244750000Y-125250000D01*
X245350000Y-125800000D02*
X245850000Y-125800000D01*
X244750000Y-125800000D02*
X244750000Y-126350000D01*
%TO.C,D2*%
X149750000Y-125800000D02*
X150350000Y-125400000D01*
X149750000Y-125800000D02*
X149750000Y-125250000D01*
X150350000Y-125800000D02*
X150850000Y-125800000D01*
X149750000Y-125800000D02*
X149750000Y-126350000D01*
X149350000Y-125800000D02*
X149750000Y-125800000D01*
X150350000Y-125400000D02*
X150350000Y-126200000D01*
X150350000Y-126200000D02*
X149750000Y-125800000D01*
%TO.C,D5*%
X168750000Y-103800000D02*
X168750000Y-103250000D01*
X168750000Y-103800000D02*
X169350000Y-103400000D01*
X169350000Y-104200000D02*
X168750000Y-103800000D01*
X168350000Y-103800000D02*
X168750000Y-103800000D01*
X169350000Y-103800000D02*
X169850000Y-103800000D01*
X169350000Y-103400000D02*
X169350000Y-104200000D01*
X168750000Y-103800000D02*
X168750000Y-104350000D01*
%TO.C,D7*%
X168750000Y-65800000D02*
X169350000Y-65400000D01*
X169350000Y-65800000D02*
X169850000Y-65800000D01*
X168750000Y-65800000D02*
X168750000Y-65250000D01*
X168750000Y-65800000D02*
X168750000Y-66350000D01*
X169350000Y-66200000D02*
X168750000Y-65800000D01*
X168350000Y-65800000D02*
X168750000Y-65800000D01*
X169350000Y-65400000D02*
X169350000Y-66200000D01*
%TO.C,D13*%
X206750000Y-95800000D02*
X206750000Y-96350000D01*
X207350000Y-95400000D02*
X207350000Y-96200000D01*
X206350000Y-95800000D02*
X206750000Y-95800000D01*
X207350000Y-95800000D02*
X207850000Y-95800000D01*
X206750000Y-95800000D02*
X207350000Y-95400000D01*
X206750000Y-95800000D02*
X206750000Y-95250000D01*
X207350000Y-96200000D02*
X206750000Y-95800000D01*
%TO.C,D26*%
X289507991Y-190157537D02*
X290228307Y-190123693D01*
X290022292Y-190466560D02*
X290450875Y-190724079D01*
X289165125Y-189951521D02*
X289507991Y-190157537D01*
X289816277Y-190809426D02*
X289507991Y-190157537D01*
X289507991Y-190157537D02*
X289224721Y-190628979D01*
X290228307Y-190123693D02*
X289816277Y-190809426D01*
X289507991Y-190157537D02*
X289791262Y-189686095D01*
%TO.C,D18*%
X226350000Y-84800000D02*
X226850000Y-84800000D01*
X226350000Y-85200000D02*
X225750000Y-84800000D01*
X225750000Y-84800000D02*
X226350000Y-84400000D01*
X225750000Y-84800000D02*
X225750000Y-84250000D01*
X225750000Y-84800000D02*
X225750000Y-85350000D01*
X225350000Y-84800000D02*
X225750000Y-84800000D01*
X226350000Y-84400000D02*
X226350000Y-85200000D01*
%TO.C,D21*%
X244750000Y-106800000D02*
X245350000Y-106400000D01*
X244750000Y-106800000D02*
X244750000Y-106250000D01*
X244350000Y-106800000D02*
X244750000Y-106800000D01*
X244750000Y-106800000D02*
X244750000Y-107350000D01*
X245350000Y-107200000D02*
X244750000Y-106800000D01*
X245350000Y-106400000D02*
X245350000Y-107200000D01*
X245350000Y-106800000D02*
X245850000Y-106800000D01*
%TO.C,D11*%
X187750000Y-59800000D02*
X187750000Y-59250000D01*
X187350000Y-59800000D02*
X187750000Y-59800000D01*
X187750000Y-59800000D02*
X187750000Y-60350000D01*
X187750000Y-59800000D02*
X188350000Y-59400000D01*
X188350000Y-60200000D02*
X187750000Y-59800000D01*
X188350000Y-59400000D02*
X188350000Y-60200000D01*
X188350000Y-59800000D02*
X188850000Y-59800000D01*
%TO.C,D24*%
X271791286Y-181937488D02*
X271585252Y-182447439D01*
X271420412Y-181787645D02*
X271791286Y-181937488D01*
X272347596Y-182162252D02*
X272811188Y-182349555D01*
X272197753Y-182533125D02*
X271791286Y-181937488D01*
X271791286Y-181937488D02*
X272497439Y-181791378D01*
X272497439Y-181791378D02*
X272197753Y-182533125D01*
X271791286Y-181937488D02*
X271997319Y-181427537D01*
%TO.C,D10*%
X187750000Y-78800000D02*
X188350000Y-78400000D01*
X188350000Y-78400000D02*
X188350000Y-79200000D01*
X187750000Y-78800000D02*
X187750000Y-79350000D01*
X187750000Y-78800000D02*
X187750000Y-78250000D01*
X188350000Y-79200000D02*
X187750000Y-78800000D01*
X188350000Y-78800000D02*
X188850000Y-78800000D01*
X187350000Y-78800000D02*
X187750000Y-78800000D01*
%TO.C,D23*%
X245350000Y-68800000D02*
X245850000Y-68800000D01*
X245350000Y-68400000D02*
X245350000Y-69200000D01*
X244750000Y-68800000D02*
X244750000Y-69350000D01*
X244750000Y-68800000D02*
X244750000Y-68250000D01*
X244750000Y-68800000D02*
X245350000Y-68400000D01*
X245350000Y-69200000D02*
X244750000Y-68800000D01*
X244350000Y-68800000D02*
X244750000Y-68800000D01*
%TO.C,D12*%
X206750000Y-114800000D02*
X206750000Y-115350000D01*
X206750000Y-114800000D02*
X207350000Y-114400000D01*
X207350000Y-114800000D02*
X207850000Y-114800000D01*
X207350000Y-115200000D02*
X206750000Y-114800000D01*
X206750000Y-114800000D02*
X206750000Y-114250000D01*
X206350000Y-114800000D02*
X206750000Y-114800000D01*
X207350000Y-114400000D02*
X207350000Y-115200000D01*
D10*
%TO.C,LED37*%
X189850000Y-73550000D02*
X189850000Y-77050000D01*
X189850000Y-77050000D02*
X186350000Y-77050000D01*
X185600000Y-77800000D02*
X185600000Y-72800000D01*
X190600000Y-77800000D02*
X185600000Y-77800000D01*
X190600000Y-72800000D02*
X190600000Y-77800000D01*
X185600000Y-72800000D02*
X190600000Y-72800000D01*
X186350000Y-73550000D02*
X189850000Y-73550000D01*
X186350000Y-77050000D02*
X186350000Y-73550000D01*
G36*
X184100000Y-77500000D02*
G01*
X183100000Y-76587500D01*
X184100000Y-75675000D01*
X184100000Y-77500000D01*
G37*
D11*
X184100000Y-77500000D02*
X183100000Y-76587500D01*
X184100000Y-75675000D01*
X184100000Y-77500000D01*
D10*
%TO.C,LED29*%
X147600000Y-124800000D02*
X147600000Y-119800000D01*
X152600000Y-119800000D02*
X152600000Y-124800000D01*
X148350000Y-120550000D02*
X151850000Y-120550000D01*
X152600000Y-124800000D02*
X147600000Y-124800000D01*
X151850000Y-120550000D02*
X151850000Y-124050000D01*
X147600000Y-119800000D02*
X152600000Y-119800000D01*
X151850000Y-124050000D02*
X148350000Y-124050000D01*
X148350000Y-124050000D02*
X148350000Y-120550000D01*
G36*
X146100000Y-124500000D02*
G01*
X145100000Y-123587500D01*
X146100000Y-122675000D01*
X146100000Y-124500000D01*
G37*
D11*
X146100000Y-124500000D02*
X145100000Y-123587500D01*
X146100000Y-122675000D01*
X146100000Y-124500000D01*
D10*
%TO.C,LED41*%
X209600000Y-75800000D02*
X204600000Y-75800000D01*
X204600000Y-70800000D02*
X209600000Y-70800000D01*
X208850000Y-75050000D02*
X205350000Y-75050000D01*
X205350000Y-75050000D02*
X205350000Y-71550000D01*
X204600000Y-75800000D02*
X204600000Y-70800000D01*
X208850000Y-71550000D02*
X208850000Y-75050000D01*
X205350000Y-71550000D02*
X208850000Y-71550000D01*
X209600000Y-70800000D02*
X209600000Y-75800000D01*
G36*
X203100000Y-75500000D02*
G01*
X202100000Y-74587500D01*
X203100000Y-73675000D01*
X203100000Y-75500000D01*
G37*
D11*
X203100000Y-75500000D02*
X202100000Y-74587500D01*
X203100000Y-73675000D01*
X203100000Y-75500000D01*
D10*
%TO.C,LED31*%
X170850000Y-117525000D02*
X170850000Y-121025000D01*
X166600000Y-121775000D02*
X166600000Y-116775000D01*
X170850000Y-121025000D02*
X167350000Y-121025000D01*
X166600000Y-116775000D02*
X171600000Y-116775000D01*
X167350000Y-121025000D02*
X167350000Y-117525000D01*
X171600000Y-121775000D02*
X166600000Y-121775000D01*
X171600000Y-116775000D02*
X171600000Y-121775000D01*
X167350000Y-117525000D02*
X170850000Y-117525000D01*
G36*
X165100000Y-121475000D02*
G01*
X164100000Y-120562500D01*
X165100000Y-119650000D01*
X165100000Y-121475000D01*
G37*
D11*
X165100000Y-121475000D02*
X164100000Y-120562500D01*
X165100000Y-119650000D01*
X165100000Y-121475000D01*
D10*
%TO.C,LED43*%
X227850000Y-117550000D02*
X227850000Y-121050000D01*
X228600000Y-121800000D02*
X223600000Y-121800000D01*
X224350000Y-117550000D02*
X227850000Y-117550000D01*
X227850000Y-121050000D02*
X224350000Y-121050000D01*
X228600000Y-116800000D02*
X228600000Y-121800000D01*
X223600000Y-121800000D02*
X223600000Y-116800000D01*
X223600000Y-116800000D02*
X228600000Y-116800000D01*
X224350000Y-121050000D02*
X224350000Y-117550000D01*
G36*
X222100000Y-121500000D02*
G01*
X221100000Y-120587500D01*
X222100000Y-119675000D01*
X222100000Y-121500000D01*
G37*
D11*
X222100000Y-121500000D02*
X221100000Y-120587500D01*
X222100000Y-119675000D01*
X222100000Y-121500000D01*
D10*
%TO.C,LED39*%
X205350000Y-109550000D02*
X208850000Y-109550000D01*
X209600000Y-113800000D02*
X204600000Y-113800000D01*
X208850000Y-113050000D02*
X205350000Y-113050000D01*
X204600000Y-108800000D02*
X209600000Y-108800000D01*
X205350000Y-113050000D02*
X205350000Y-109550000D01*
X204600000Y-113800000D02*
X204600000Y-108800000D01*
X209600000Y-108800000D02*
X209600000Y-113800000D01*
X208850000Y-109550000D02*
X208850000Y-113050000D01*
G36*
X203100000Y-113500000D02*
G01*
X202100000Y-112587500D01*
X203100000Y-111675000D01*
X203100000Y-113500000D01*
G37*
D11*
X203100000Y-113500000D02*
X202100000Y-112587500D01*
X203100000Y-111675000D01*
X203100000Y-113500000D01*
D10*
%TO.C,LED36*%
X190600000Y-96800000D02*
X185600000Y-96800000D01*
X190600000Y-91800000D02*
X190600000Y-96800000D01*
X189850000Y-96050000D02*
X186350000Y-96050000D01*
X189850000Y-92550000D02*
X189850000Y-96050000D01*
X185600000Y-96800000D02*
X185600000Y-91800000D01*
X186350000Y-92550000D02*
X189850000Y-92550000D01*
X186350000Y-96050000D02*
X186350000Y-92550000D01*
X185600000Y-91800000D02*
X190600000Y-91800000D01*
G36*
X184100000Y-96500000D02*
G01*
X183100000Y-95587500D01*
X184100000Y-94675000D01*
X184100000Y-96500000D01*
G37*
D11*
X184100000Y-96500000D02*
X183100000Y-95587500D01*
X184100000Y-94675000D01*
X184100000Y-96500000D01*
D10*
%TO.C,LED47*%
X242600000Y-124800000D02*
X242600000Y-119800000D01*
X247600000Y-119800000D02*
X247600000Y-124800000D01*
X242600000Y-119800000D02*
X247600000Y-119800000D01*
X243350000Y-120550000D02*
X246850000Y-120550000D01*
X243350000Y-124050000D02*
X243350000Y-120550000D01*
X246850000Y-124050000D02*
X243350000Y-124050000D01*
X247600000Y-124800000D02*
X242600000Y-124800000D01*
X246850000Y-120550000D02*
X246850000Y-124050000D01*
G36*
X241100000Y-124500000D02*
G01*
X240100000Y-123587500D01*
X241100000Y-122675000D01*
X241100000Y-124500000D01*
G37*
D11*
X241100000Y-124500000D02*
X240100000Y-123587500D01*
X241100000Y-122675000D01*
X241100000Y-124500000D01*
D10*
%TO.C,LED38*%
X190600000Y-58800000D02*
X185600000Y-58800000D01*
X185600000Y-53800000D02*
X190600000Y-53800000D01*
X190600000Y-53800000D02*
X190600000Y-58800000D01*
X189850000Y-58050000D02*
X186350000Y-58050000D01*
X189850000Y-54550000D02*
X189850000Y-58050000D01*
X185600000Y-58800000D02*
X185600000Y-53800000D01*
X186350000Y-54550000D02*
X189850000Y-54550000D01*
X186350000Y-58050000D02*
X186350000Y-54550000D01*
G36*
X184100000Y-58500000D02*
G01*
X183100000Y-57587500D01*
X184100000Y-56675000D01*
X184100000Y-58500000D01*
G37*
D11*
X184100000Y-58500000D02*
X183100000Y-57587500D01*
X184100000Y-56675000D01*
X184100000Y-58500000D01*
D10*
%TO.C,LED42*%
X204600000Y-51800000D02*
X209600000Y-51800000D01*
X205350000Y-52550000D02*
X208850000Y-52550000D01*
X205350000Y-56050000D02*
X205350000Y-52550000D01*
X204600000Y-56800000D02*
X204600000Y-51800000D01*
X208850000Y-52550000D02*
X208850000Y-56050000D01*
X208850000Y-56050000D02*
X205350000Y-56050000D01*
X209600000Y-51800000D02*
X209600000Y-56800000D01*
X209600000Y-56800000D02*
X204600000Y-56800000D01*
G36*
X203100000Y-56500000D02*
G01*
X202100000Y-55587500D01*
X203100000Y-54675000D01*
X203100000Y-56500000D01*
G37*
D11*
X203100000Y-56500000D02*
X202100000Y-55587500D01*
X203100000Y-54675000D01*
X203100000Y-56500000D01*
D10*
%TO.C,LED50*%
X242600000Y-62800000D02*
X247600000Y-62800000D01*
X242600000Y-67800000D02*
X242600000Y-62800000D01*
X243350000Y-67050000D02*
X243350000Y-63550000D01*
X246850000Y-63550000D02*
X246850000Y-67050000D01*
X247600000Y-62800000D02*
X247600000Y-67800000D01*
X247600000Y-67800000D02*
X242600000Y-67800000D01*
X243350000Y-63550000D02*
X246850000Y-63550000D01*
X246850000Y-67050000D02*
X243350000Y-67050000D01*
G36*
X241100000Y-67500000D02*
G01*
X240100000Y-66587500D01*
X241100000Y-65675000D01*
X241100000Y-67500000D01*
G37*
D11*
X241100000Y-67500000D02*
X240100000Y-66587500D01*
X241100000Y-65675000D01*
X241100000Y-67500000D01*
D10*
%TO.C,LED28*%
X129350000Y-112550000D02*
X132850000Y-112550000D01*
X129350000Y-116050000D02*
X129350000Y-112550000D01*
X128600000Y-116800000D02*
X128600000Y-111800000D01*
X132850000Y-116050000D02*
X129350000Y-116050000D01*
X132850000Y-112550000D02*
X132850000Y-116050000D01*
X128600000Y-111800000D02*
X133600000Y-111800000D01*
X133600000Y-111800000D02*
X133600000Y-116800000D01*
X133600000Y-116800000D02*
X128600000Y-116800000D01*
G36*
X127100000Y-116500000D02*
G01*
X126100000Y-115587500D01*
X127100000Y-114675000D01*
X127100000Y-116500000D01*
G37*
D11*
X127100000Y-116500000D02*
X126100000Y-115587500D01*
X127100000Y-114675000D01*
X127100000Y-116500000D01*
D10*
%TO.C,LED40*%
X208850000Y-94050000D02*
X205350000Y-94050000D01*
X205350000Y-94050000D02*
X205350000Y-90550000D01*
X209600000Y-94800000D02*
X204600000Y-94800000D01*
X204600000Y-89800000D02*
X209600000Y-89800000D01*
X205350000Y-90550000D02*
X208850000Y-90550000D01*
X209600000Y-89800000D02*
X209600000Y-94800000D01*
X204600000Y-94800000D02*
X204600000Y-89800000D01*
X208850000Y-90550000D02*
X208850000Y-94050000D01*
G36*
X203100000Y-94500000D02*
G01*
X202100000Y-93587500D01*
X203100000Y-92675000D01*
X203100000Y-94500000D01*
G37*
D11*
X203100000Y-94500000D02*
X202100000Y-93587500D01*
X203100000Y-92675000D01*
X203100000Y-94500000D01*
D10*
%TO.C,LED35*%
X190600000Y-110800000D02*
X190600000Y-115800000D01*
X186350000Y-115050000D02*
X186350000Y-111550000D01*
X189850000Y-111550000D02*
X189850000Y-115050000D01*
X185600000Y-110800000D02*
X190600000Y-110800000D01*
X185600000Y-115800000D02*
X185600000Y-110800000D01*
X190600000Y-115800000D02*
X185600000Y-115800000D01*
X186350000Y-111550000D02*
X189850000Y-111550000D01*
X189850000Y-115050000D02*
X186350000Y-115050000D01*
G36*
X184100000Y-115500000D02*
G01*
X183100000Y-114587500D01*
X184100000Y-113675000D01*
X184100000Y-115500000D01*
G37*
D11*
X184100000Y-115500000D02*
X183100000Y-114587500D01*
X184100000Y-113675000D01*
X184100000Y-115500000D01*
D10*
%TO.C,LED34*%
X167350000Y-60525000D02*
X170850000Y-60525000D01*
X171600000Y-64775000D02*
X166600000Y-64775000D01*
X166600000Y-64775000D02*
X166600000Y-59775000D01*
X166600000Y-59775000D02*
X171600000Y-59775000D01*
X171600000Y-59775000D02*
X171600000Y-64775000D01*
X170850000Y-60525000D02*
X170850000Y-64025000D01*
X167350000Y-64025000D02*
X167350000Y-60525000D01*
X170850000Y-64025000D02*
X167350000Y-64025000D01*
G36*
X165100000Y-64475000D02*
G01*
X164100000Y-63562500D01*
X165100000Y-62650000D01*
X165100000Y-64475000D01*
G37*
D11*
X165100000Y-64475000D02*
X164100000Y-63562500D01*
X165100000Y-62650000D01*
X165100000Y-64475000D01*
D10*
%TO.C,LED44*%
X228600000Y-97800000D02*
X228600000Y-102800000D01*
X224350000Y-98550000D02*
X227850000Y-98550000D01*
X224350000Y-102050000D02*
X224350000Y-98550000D01*
X223600000Y-97800000D02*
X228600000Y-97800000D01*
X227850000Y-102050000D02*
X224350000Y-102050000D01*
X223600000Y-102800000D02*
X223600000Y-97800000D01*
X228600000Y-102800000D02*
X223600000Y-102800000D01*
X227850000Y-98550000D02*
X227850000Y-102050000D01*
G36*
X222100000Y-102500000D02*
G01*
X221100000Y-101587500D01*
X222100000Y-100675000D01*
X222100000Y-102500000D01*
G37*
D11*
X222100000Y-102500000D02*
X221100000Y-101587500D01*
X222100000Y-100675000D01*
X222100000Y-102500000D01*
D10*
%TO.C,LED52*%
X279218557Y-157958024D02*
X283854476Y-159831057D01*
X278321867Y-162179510D02*
X279632990Y-158934367D01*
X279632990Y-158934367D02*
X282878133Y-160245490D01*
X281981443Y-164466976D02*
X277345524Y-162593943D01*
X281567010Y-163490633D02*
X278321867Y-162179510D01*
X277345524Y-162593943D02*
X279218557Y-157958024D01*
X283854476Y-159831057D02*
X281981443Y-164466976D01*
X282878133Y-160245490D02*
X281567010Y-163490633D01*
G36*
X276067130Y-161753878D02*
G01*
X275481775Y-160533216D01*
X276750787Y-160061768D01*
X276067130Y-161753878D01*
G37*
D11*
X276067130Y-161753878D02*
X275481775Y-160533216D01*
X276750787Y-160061768D01*
X276067130Y-161753878D01*
D10*
%TO.C,LED51*%
X270145524Y-180193943D02*
X272018557Y-175558024D01*
X276654476Y-177431057D02*
X274781443Y-182066976D01*
X272432990Y-176534367D02*
X275678133Y-177845490D01*
X274367010Y-181090633D02*
X271121867Y-179779510D01*
X271121867Y-179779510D02*
X272432990Y-176534367D01*
X275678133Y-177845490D02*
X274367010Y-181090633D01*
X274781443Y-182066976D02*
X270145524Y-180193943D01*
X272018557Y-175558024D02*
X276654476Y-177431057D01*
G36*
X268867130Y-179353878D02*
G01*
X268281775Y-178133216D01*
X269550787Y-177661768D01*
X268867130Y-179353878D01*
G37*
D11*
X268867130Y-179353878D02*
X268281775Y-178133216D01*
X269550787Y-177661768D01*
X268867130Y-179353878D01*
D10*
%TO.C,LED30*%
X147600000Y-100800000D02*
X152600000Y-100800000D01*
X151850000Y-105050000D02*
X148350000Y-105050000D01*
X148350000Y-105050000D02*
X148350000Y-101550000D01*
X147600000Y-105800000D02*
X147600000Y-100800000D01*
X148350000Y-101550000D02*
X151850000Y-101550000D01*
X151850000Y-101550000D02*
X151850000Y-105050000D01*
X152600000Y-105800000D02*
X147600000Y-105800000D01*
X152600000Y-100800000D02*
X152600000Y-105800000D01*
G36*
X146100000Y-105500000D02*
G01*
X145100000Y-104587500D01*
X146100000Y-103675000D01*
X146100000Y-105500000D01*
G37*
D11*
X146100000Y-105500000D02*
X145100000Y-104587500D01*
X146100000Y-103675000D01*
X146100000Y-105500000D01*
D10*
%TO.C,LED46*%
X227850000Y-60550000D02*
X227850000Y-64050000D01*
X224350000Y-64050000D02*
X224350000Y-60550000D01*
X223600000Y-64800000D02*
X223600000Y-59800000D01*
X223600000Y-59800000D02*
X228600000Y-59800000D01*
X228600000Y-59800000D02*
X228600000Y-64800000D01*
X228600000Y-64800000D02*
X223600000Y-64800000D01*
X224350000Y-60550000D02*
X227850000Y-60550000D01*
X227850000Y-64050000D02*
X224350000Y-64050000D01*
G36*
X222100000Y-64500000D02*
G01*
X221100000Y-63587500D01*
X222100000Y-62675000D01*
X222100000Y-64500000D01*
G37*
D11*
X222100000Y-64500000D02*
X221100000Y-63587500D01*
X222100000Y-62675000D01*
X222100000Y-64500000D01*
D10*
%TO.C,LED54*%
X300544677Y-167581987D02*
X304830513Y-170157177D01*
X304830513Y-170157177D02*
X302255323Y-174443013D01*
X302255323Y-174443013D02*
X297969487Y-171867823D01*
X300801274Y-168611141D02*
X303801359Y-170413774D01*
X298998641Y-171611226D02*
X300801274Y-168611141D01*
X301998726Y-173413859D02*
X298998641Y-171611226D01*
X297969487Y-171867823D02*
X300544677Y-167581987D01*
X303801359Y-170413774D02*
X301998726Y-173413859D01*
G36*
X296838247Y-170838116D02*
G01*
X296451052Y-169540913D01*
X297778192Y-169273785D01*
X296838247Y-170838116D01*
G37*
D11*
X296838247Y-170838116D02*
X296451052Y-169540913D01*
X297778192Y-169273785D01*
X296838247Y-170838116D01*
D10*
%TO.C,LED32*%
X170850000Y-98525000D02*
X170850000Y-102025000D01*
X170850000Y-102025000D02*
X167350000Y-102025000D01*
X167350000Y-98525000D02*
X170850000Y-98525000D01*
X171600000Y-97775000D02*
X171600000Y-102775000D01*
X167350000Y-102025000D02*
X167350000Y-98525000D01*
X171600000Y-102775000D02*
X166600000Y-102775000D01*
X166600000Y-97775000D02*
X171600000Y-97775000D01*
X166600000Y-102775000D02*
X166600000Y-97775000D01*
G36*
X165100000Y-102475000D02*
G01*
X164100000Y-101562500D01*
X165100000Y-100650000D01*
X165100000Y-102475000D01*
G37*
D11*
X165100000Y-102475000D02*
X164100000Y-101562500D01*
X165100000Y-100650000D01*
X165100000Y-102475000D01*
D10*
%TO.C,LED49*%
X242600000Y-86800000D02*
X242600000Y-81800000D01*
X242600000Y-81800000D02*
X247600000Y-81800000D01*
X243350000Y-82550000D02*
X246850000Y-82550000D01*
X246850000Y-86050000D02*
X243350000Y-86050000D01*
X246850000Y-82550000D02*
X246850000Y-86050000D01*
X247600000Y-81800000D02*
X247600000Y-86800000D01*
X243350000Y-86050000D02*
X243350000Y-82550000D01*
X247600000Y-86800000D02*
X242600000Y-86800000D01*
G36*
X241100000Y-86500000D02*
G01*
X240100000Y-85587500D01*
X241100000Y-84675000D01*
X241100000Y-86500000D01*
G37*
D11*
X241100000Y-86500000D02*
X240100000Y-85587500D01*
X241100000Y-84675000D01*
X241100000Y-86500000D01*
D10*
%TO.C,LED33*%
X170850000Y-83025000D02*
X167350000Y-83025000D01*
X171600000Y-78775000D02*
X171600000Y-83775000D01*
X166600000Y-78775000D02*
X171600000Y-78775000D01*
X171600000Y-83775000D02*
X166600000Y-83775000D01*
X167350000Y-79525000D02*
X170850000Y-79525000D01*
X167350000Y-83025000D02*
X167350000Y-79525000D01*
X166600000Y-83775000D02*
X166600000Y-78775000D01*
X170850000Y-79525000D02*
X170850000Y-83025000D01*
G36*
X165100000Y-83475000D02*
G01*
X164100000Y-82562500D01*
X165100000Y-81650000D01*
X165100000Y-83475000D01*
G37*
D11*
X165100000Y-83475000D02*
X164100000Y-82562500D01*
X165100000Y-81650000D01*
X165100000Y-83475000D01*
D10*
%TO.C,LED53*%
X288169487Y-188167823D02*
X290744677Y-183881987D01*
X295030513Y-186457177D02*
X292455323Y-190743013D01*
X289198641Y-187911226D02*
X291001274Y-184911141D01*
X292198726Y-189713859D02*
X289198641Y-187911226D01*
X294001359Y-186713774D02*
X292198726Y-189713859D01*
X291001274Y-184911141D02*
X294001359Y-186713774D01*
X292455323Y-190743013D02*
X288169487Y-188167823D01*
X290744677Y-183881987D02*
X295030513Y-186457177D01*
G36*
X287038247Y-187138116D02*
G01*
X286651052Y-185840913D01*
X287978192Y-185573785D01*
X287038247Y-187138116D01*
G37*
D11*
X287038247Y-187138116D02*
X286651052Y-185840913D01*
X287978192Y-185573785D01*
X287038247Y-187138116D01*
D10*
%TO.C,LED48*%
X243350000Y-105050000D02*
X243350000Y-101550000D01*
X246850000Y-105050000D02*
X243350000Y-105050000D01*
X246850000Y-101550000D02*
X246850000Y-105050000D01*
X247600000Y-105800000D02*
X242600000Y-105800000D01*
X247600000Y-100800000D02*
X247600000Y-105800000D01*
X242600000Y-100800000D02*
X247600000Y-100800000D01*
X243350000Y-101550000D02*
X246850000Y-101550000D01*
X242600000Y-105800000D02*
X242600000Y-100800000D01*
G36*
X241100000Y-105500000D02*
G01*
X240100000Y-104587500D01*
X241100000Y-103675000D01*
X241100000Y-105500000D01*
G37*
D11*
X241100000Y-105500000D02*
X240100000Y-104587500D01*
X241100000Y-103675000D01*
X241100000Y-105500000D01*
D10*
%TO.C,LED45*%
X227850000Y-79550000D02*
X227850000Y-83050000D01*
X224350000Y-83050000D02*
X224350000Y-79550000D01*
X224350000Y-79550000D02*
X227850000Y-79550000D01*
X228600000Y-83800000D02*
X223600000Y-83800000D01*
X227850000Y-83050000D02*
X224350000Y-83050000D01*
X223600000Y-83800000D02*
X223600000Y-78800000D01*
X228600000Y-78800000D02*
X228600000Y-83800000D01*
X223600000Y-78800000D02*
X228600000Y-78800000D01*
G36*
X222100000Y-83500000D02*
G01*
X221100000Y-82587500D01*
X222100000Y-81675000D01*
X222100000Y-83500000D01*
G37*
D11*
X222100000Y-83500000D02*
X221100000Y-82587500D01*
X222100000Y-81675000D01*
X222100000Y-83500000D01*
%TD*%
M02*
