%TF.GenerationSoftware,KiCad,Pcbnew,6.0.10-86aedd382b~118~ubuntu22.04.1*%
%TF.CreationDate,2023-01-31T17:25:27-07:00*%
%TF.ProjectId,scaarix_flow,73636161-7269-4785-9f66-6c6f772e6b69,v1.0.0*%
%TF.SameCoordinates,Original*%
%TF.FileFunction,Copper,L1,Top*%
%TF.FilePolarity,Positive*%
%FSLAX46Y46*%
G04 Gerber Fmt 4.6, Leading zero omitted, Abs format (unit mm)*
G04 Created by KiCad (PCBNEW 6.0.10-86aedd382b~118~ubuntu22.04.1) date 2023-01-31 17:25:27*
%MOMM*%
%LPD*%
G01*
G04 APERTURE LIST*
G04 Aperture macros list*
%AMRotRect*
0 Rectangle, with rotation*
0 The origin of the aperture is its center*
0 $1 length*
0 $2 width*
0 $3 Rotation angle, in degrees counterclockwise*
0 Add horizontal line*
21,1,$1,$2,0,0,$3*%
%AMFreePoly0*
4,1,6,0.600000,0.200000,0.000000,-0.400000,-0.600000,0.200000,-0.600000,0.400000,0.600000,0.400000,0.600000,0.200000,0.600000,0.200000,$1*%
%AMFreePoly1*
4,1,5,0.125000,-0.500000,-0.125000,-0.500000,-0.125000,0.500000,0.125000,0.500000,0.125000,-0.500000,0.125000,-0.500000,$1*%
%AMFreePoly2*
4,1,49,0.088388,4.152388,0.854389,3.386388,0.867708,3.368551,0.871189,3.365530,0.871982,3.362827,0.875852,3.357644,0.882333,3.327543,0.891000,3.298000,0.891000,0.766000,0.887805,0.743969,0.888131,0.739371,0.886780,0.736898,0.885852,0.730498,0.869154,0.704638,0.854389,0.677612,0.088388,-0.088388,0.064607,-0.106146,0.062500,-0.108253,0.061385,-0.108552,0.059644,-0.109852,
0.043810,-0.113261,0.000000,-0.125000,-0.004774,-0.123721,-0.009154,-0.124664,-0.028953,-0.117242,-0.062500,-0.108253,-0.068237,-0.102516,-0.075052,-0.099961,-0.087614,-0.083139,-0.108253,-0.062500,-0.111178,-0.051584,-0.117161,-0.043572,-0.118539,-0.024114,-0.125000,0.000000,-0.121239,0.014035,-0.122131,0.026629,-0.113759,0.041953,-0.108253,0.062500,-0.095642,0.075111,-0.088388,0.088388,
0.641000,0.817777,0.641000,3.246223,-0.088388,3.975612,-0.109852,4.004356,-0.124664,4.073154,-0.099961,4.139052,-0.043572,4.181161,0.026629,4.186131,0.088388,4.152388,0.088388,4.152388,$1*%
%AMFreePoly3*
4,1,6,0.600000,-0.250000,-0.600000,-0.250000,-0.600000,1.000000,0.000000,0.400000,0.600000,1.000000,0.600000,-0.250000,0.600000,-0.250000,$1*%
%AMFreePoly4*
4,1,49,0.088388,4.152388,0.850389,3.390388,0.863708,3.372551,0.867189,3.369530,0.867982,3.366827,0.871852,3.361644,0.878333,3.331543,0.887000,3.302000,0.887000,0.762000,0.883805,0.739969,0.884131,0.735371,0.882780,0.732898,0.881852,0.726498,0.865154,0.700638,0.850389,0.673612,0.088388,-0.088388,0.064607,-0.106146,0.062500,-0.108253,0.061385,-0.108552,0.059644,-0.109852,
0.043810,-0.113261,0.000000,-0.125000,-0.004774,-0.123721,-0.009154,-0.124664,-0.028953,-0.117242,-0.062500,-0.108253,-0.068237,-0.102516,-0.075052,-0.099961,-0.087614,-0.083139,-0.108253,-0.062500,-0.111178,-0.051584,-0.117161,-0.043572,-0.118539,-0.024114,-0.125000,0.000000,-0.121239,0.014035,-0.122131,0.026629,-0.113759,0.041953,-0.108253,0.062500,-0.095642,0.075111,-0.088388,0.088388,
0.637000,0.813777,0.637000,3.250223,-0.088388,3.975612,-0.109852,4.004356,-0.124664,4.073154,-0.099961,4.139052,-0.043572,4.181161,0.026629,4.186131,0.088388,4.152388,0.088388,4.152388,$1*%
%AMFreePoly5*
4,1,20,0.000000,0.844959,0.073905,0.844508,0.209726,0.803889,0.328688,0.726782,0.421226,0.619385,0.479903,0.490333,0.500000,0.350000,0.500000,-0.350000,0.499851,-0.362216,0.476331,-0.502017,0.414519,-0.629596,0.319384,-0.734700,0.198574,-0.808877,0.061801,-0.846166,0.000000,-0.845033,0.000000,-0.850000,-0.500000,-0.850000,-0.500000,0.850000,0.000000,0.850000,0.000000,0.844959,
0.000000,0.844959,$1*%
%AMFreePoly6*
4,1,20,-0.850000,0.850000,0.000000,0.850000,0.115358,0.842136,0.293503,0.797719,0.457955,0.716085,0.601041,0.601041,0.716085,0.457955,0.797719,0.293503,0.842136,0.115358,0.850000,0.000000,0.842136,-0.115358,0.797719,-0.293503,0.716085,-0.457955,0.601041,-0.601041,0.457955,-0.716085,0.293503,-0.797719,0.115358,-0.842136,0.000000,-0.850000,-0.850000,-0.850000,-0.850000,0.850000,
-0.850000,0.850000,$1*%
G04 Aperture macros list end*
%TA.AperFunction,SMDPad,CuDef*%
%ADD10R,2.600000X1.000000*%
%TD*%
%TA.AperFunction,SMDPad,CuDef*%
%ADD11R,2.000000X1.200000*%
%TD*%
%TA.AperFunction,SMDPad,CuDef*%
%ADD12R,0.900000X1.200000*%
%TD*%
%TA.AperFunction,ComponentPad*%
%ADD13R,1.778000X1.778000*%
%TD*%
%TA.AperFunction,ComponentPad*%
%ADD14C,1.905000*%
%TD*%
%TA.AperFunction,ComponentPad*%
%ADD15RotRect,1.778000X1.778000X329.000000*%
%TD*%
%TA.AperFunction,SMDPad,CuDef*%
%ADD16RotRect,0.900000X1.200000X329.000000*%
%TD*%
%TA.AperFunction,SMDPad,CuDef*%
%ADD17R,2.550000X2.500000*%
%TD*%
%TA.AperFunction,ComponentPad*%
%ADD18RotRect,1.778000X1.778000X338.000000*%
%TD*%
%TA.AperFunction,SMDPad,CuDef*%
%ADD19RotRect,0.900000X1.200000X338.000000*%
%TD*%
%TA.AperFunction,SMDPad,CuDef*%
%ADD20RotRect,2.600000X1.000000X329.000000*%
%TD*%
%TA.AperFunction,SMDPad,CuDef*%
%ADD21RotRect,2.000000X1.200000X329.000000*%
%TD*%
%TA.AperFunction,SMDPad,CuDef*%
%ADD22RotRect,2.550000X2.500000X338.000000*%
%TD*%
%TA.AperFunction,SMDPad,CuDef*%
%ADD23FreePoly0,90.000000*%
%TD*%
%TA.AperFunction,ComponentPad*%
%ADD24C,1.600000*%
%TD*%
%TA.AperFunction,SMDPad,CuDef*%
%ADD25FreePoly1,90.000000*%
%TD*%
%TA.AperFunction,SMDPad,CuDef*%
%ADD26FreePoly0,270.000000*%
%TD*%
%TA.AperFunction,SMDPad,CuDef*%
%ADD27FreePoly1,270.000000*%
%TD*%
%TA.AperFunction,ComponentPad*%
%ADD28R,1.600000X1.600000*%
%TD*%
%TA.AperFunction,SMDPad,CuDef*%
%ADD29FreePoly2,270.000000*%
%TD*%
%TA.AperFunction,ComponentPad*%
%ADD30C,0.800000*%
%TD*%
%TA.AperFunction,SMDPad,CuDef*%
%ADD31FreePoly3,270.000000*%
%TD*%
%TA.AperFunction,SMDPad,CuDef*%
%ADD32FreePoly4,90.000000*%
%TD*%
%TA.AperFunction,SMDPad,CuDef*%
%ADD33FreePoly3,90.000000*%
%TD*%
%TA.AperFunction,ComponentPad*%
%ADD34O,1.600000X2.200000*%
%TD*%
%TA.AperFunction,SMDPad,CuDef*%
%ADD35FreePoly5,90.000000*%
%TD*%
%TA.AperFunction,ComponentPad*%
%ADD36R,1.700000X1.700000*%
%TD*%
%TA.AperFunction,ComponentPad*%
%ADD37FreePoly6,270.000000*%
%TD*%
%TA.AperFunction,ComponentPad*%
%ADD38R,2.000000X2.000000*%
%TD*%
%TA.AperFunction,SMDPad,CuDef*%
%ADD39RotRect,2.550000X2.500000X329.000000*%
%TD*%
%TA.AperFunction,SMDPad,CuDef*%
%ADD40RotRect,2.600000X1.000000X338.000000*%
%TD*%
%TA.AperFunction,SMDPad,CuDef*%
%ADD41RotRect,2.000000X1.200000X338.000000*%
%TD*%
%TA.AperFunction,SMDPad,CuDef*%
%ADD42R,2.200000X2.000000*%
%TD*%
%TA.AperFunction,ComponentPad*%
%ADD43R,6.000000X2.000000*%
%TD*%
%TA.AperFunction,ViaPad*%
%ADD44C,0.800000*%
%TD*%
%TA.AperFunction,Conductor*%
%ADD45C,0.250000*%
%TD*%
%TA.AperFunction,Conductor*%
%ADD46C,1.270000*%
%TD*%
G04 APERTURE END LIST*
D10*
%TO.P,LED19,1*%
%TO.N,VCC*%
X223900000Y-61425000D03*
%TO.P,LED19,2*%
%TO.N,D1*%
X223900000Y-63175000D03*
%TO.P,LED19,3*%
%TO.N,GND*%
X228300000Y-63175000D03*
%TO.P,LED19,4*%
%TO.N,P1*%
X228300000Y-61425000D03*
D11*
%TO.P,LED19,11*%
%TO.N,VCC*%
X223600000Y-60700000D03*
%TO.P,LED19,22*%
%TO.N,D1*%
X223600000Y-63900000D03*
%TO.P,LED19,33*%
%TO.N,GND*%
X228600000Y-63900000D03*
%TO.P,LED19,44*%
%TO.N,P1*%
X228600000Y-60700000D03*
%TD*%
D12*
%TO.P,D6,1*%
%TO.N,P4*%
X167450000Y-84800000D03*
D13*
X165290000Y-84800000D03*
D14*
%TO.P,D6,2*%
%TO.N,pinkie_top*%
X172910000Y-84800000D03*
D12*
X170750000Y-84800000D03*
%TD*%
%TO.P,D9,1*%
%TO.N,P0*%
X186450000Y-97800000D03*
D13*
X184290000Y-97800000D03*
D14*
%TO.P,D9,2*%
%TO.N,ring_home*%
X191910000Y-97800000D03*
D12*
X189750000Y-97800000D03*
%TD*%
D10*
%TO.P,LED1,1*%
%TO.N,VCC*%
X128900000Y-113425000D03*
%TO.P,LED1,2*%
%TO.N,D1*%
X128900000Y-115175000D03*
%TO.P,LED1,3*%
%TO.N,GND*%
X133300000Y-115175000D03*
%TO.P,LED1,4*%
%TO.N,P1*%
X133300000Y-113425000D03*
D11*
%TO.P,LED1,11*%
%TO.N,VCC*%
X128600000Y-112700000D03*
%TO.P,LED1,22*%
%TO.N,D1*%
X128600000Y-115900000D03*
%TO.P,LED1,33*%
%TO.N,GND*%
X133600000Y-115900000D03*
%TO.P,LED1,44*%
%TO.N,P1*%
X133600000Y-112700000D03*
%TD*%
D15*
%TO.P,D27,1*%
%TO.N,P18*%
X296327893Y-172089405D03*
D16*
X298179374Y-173201887D03*
%TO.P,D27,2*%
%TO.N,2_top*%
X301008026Y-174901513D03*
D14*
X302859507Y-176013995D03*
%TD*%
D10*
%TO.P,LED20,1*%
%TO.N,VCC*%
X242900000Y-121425000D03*
%TO.P,LED20,2*%
%TO.N,D1*%
X242900000Y-123175000D03*
%TO.P,LED20,3*%
%TO.N,GND*%
X247300000Y-123175000D03*
%TO.P,LED20,4*%
%TO.N,P1*%
X247300000Y-121425000D03*
D11*
%TO.P,LED20,11*%
%TO.N,VCC*%
X242600000Y-120700000D03*
%TO.P,LED20,22*%
%TO.N,D1*%
X242600000Y-123900000D03*
%TO.P,LED20,33*%
%TO.N,GND*%
X247600000Y-123900000D03*
%TO.P,LED20,44*%
%TO.N,P1*%
X247600000Y-120700000D03*
%TD*%
D17*
%TO.P,S15,1*%
%TO.N,middle_num*%
X214185000Y-46760000D03*
%TO.P,S15,2*%
%TO.N,P9*%
X201258000Y-44220000D03*
%TD*%
D10*
%TO.P,LED16,1*%
%TO.N,VCC*%
X223900000Y-118425000D03*
%TO.P,LED16,2*%
%TO.N,D1*%
X223900000Y-120175000D03*
%TO.P,LED16,3*%
%TO.N,GND*%
X228300000Y-120175000D03*
%TO.P,LED16,4*%
%TO.N,P1*%
X228300000Y-118425000D03*
D11*
%TO.P,LED16,11*%
%TO.N,VCC*%
X223600000Y-117700000D03*
%TO.P,LED16,22*%
%TO.N,D1*%
X223600000Y-120900000D03*
%TO.P,LED16,33*%
%TO.N,GND*%
X228600000Y-120900000D03*
%TO.P,LED16,44*%
%TO.N,P1*%
X228600000Y-117700000D03*
%TD*%
D17*
%TO.P,S10,1*%
%TO.N,ring_top*%
X195185000Y-67760000D03*
%TO.P,S10,2*%
%TO.N,P8*%
X182258000Y-65220000D03*
%TD*%
%TO.P,S3,1*%
%TO.N,tab_home*%
X157185000Y-95760000D03*
%TO.P,S3,2*%
%TO.N,P5*%
X144258000Y-93220000D03*
%TD*%
D10*
%TO.P,LED23,1*%
%TO.N,VCC*%
X242900000Y-64425000D03*
%TO.P,LED23,2*%
%TO.N,D1*%
X242900000Y-66175000D03*
%TO.P,LED23,3*%
%TO.N,GND*%
X247300000Y-66175000D03*
%TO.P,LED23,4*%
%TO.N,P1*%
X247300000Y-64425000D03*
D11*
%TO.P,LED23,11*%
%TO.N,VCC*%
X242600000Y-63700000D03*
%TO.P,LED23,22*%
%TO.N,D1*%
X242600000Y-66900000D03*
%TO.P,LED23,33*%
%TO.N,GND*%
X247600000Y-66900000D03*
%TO.P,LED23,44*%
%TO.N,P1*%
X247600000Y-63700000D03*
%TD*%
D17*
%TO.P,S22,1*%
%TO.N,far_top*%
X252185000Y-76760000D03*
%TO.P,S22,2*%
%TO.N,P20*%
X239258000Y-74220000D03*
%TD*%
%TO.P,S20,1*%
%TO.N,far_bottom*%
X252185000Y-114760000D03*
%TO.P,S20,2*%
%TO.N,P20*%
X239258000Y-112220000D03*
%TD*%
D13*
%TO.P,D19,1*%
%TO.N,P14*%
X222290000Y-65800000D03*
D12*
X224450000Y-65800000D03*
%TO.P,D19,2*%
%TO.N,index_num*%
X227750000Y-65800000D03*
D14*
X229910000Y-65800000D03*
%TD*%
D17*
%TO.P,S16,1*%
%TO.N,index_bottom*%
X233185000Y-111760000D03*
%TO.P,S16,2*%
%TO.N,P21*%
X220258000Y-109220000D03*
%TD*%
D18*
%TO.P,D25,1*%
%TO.N,P18*%
X275700830Y-163024949D03*
D19*
X277703547Y-163834099D03*
%TO.P,D25,2*%
%TO.N,1_top*%
X280763253Y-165070301D03*
D14*
X282765970Y-165879451D03*
%TD*%
D10*
%TO.P,LED9,1*%
%TO.N,VCC*%
X185900000Y-93425000D03*
%TO.P,LED9,2*%
%TO.N,D1*%
X185900000Y-95175000D03*
%TO.P,LED9,3*%
%TO.N,GND*%
X190300000Y-95175000D03*
%TO.P,LED9,4*%
%TO.N,P1*%
X190300000Y-93425000D03*
D11*
%TO.P,LED9,11*%
%TO.N,VCC*%
X185600000Y-92700000D03*
%TO.P,LED9,22*%
%TO.N,D1*%
X185600000Y-95900000D03*
%TO.P,LED9,33*%
%TO.N,GND*%
X190600000Y-95900000D03*
%TO.P,LED9,44*%
%TO.N,P1*%
X190600000Y-92700000D03*
%TD*%
D10*
%TO.P,LED10,1*%
%TO.N,VCC*%
X185900000Y-74425000D03*
%TO.P,LED10,2*%
%TO.N,D1*%
X185900000Y-76175000D03*
%TO.P,LED10,3*%
%TO.N,GND*%
X190300000Y-76175000D03*
%TO.P,LED10,4*%
%TO.N,P1*%
X190300000Y-74425000D03*
D11*
%TO.P,LED10,11*%
%TO.N,VCC*%
X185600000Y-73700000D03*
%TO.P,LED10,22*%
%TO.N,D1*%
X185600000Y-76900000D03*
%TO.P,LED10,33*%
%TO.N,GND*%
X190600000Y-76900000D03*
%TO.P,LED10,44*%
%TO.N,P1*%
X190600000Y-73700000D03*
%TD*%
D17*
%TO.P,S9,1*%
%TO.N,ring_home*%
X195185000Y-86760000D03*
%TO.P,S9,2*%
%TO.N,P8*%
X182258000Y-84220000D03*
%TD*%
D12*
%TO.P,D3,1*%
%TO.N,P0*%
X148450000Y-106800000D03*
D13*
X146290000Y-106800000D03*
D14*
%TO.P,D3,2*%
%TO.N,tab_home*%
X153910000Y-106800000D03*
D12*
X151750000Y-106800000D03*
%TD*%
D17*
%TO.P,S19,1*%
%TO.N,index_num*%
X233185000Y-54760000D03*
%TO.P,S19,2*%
%TO.N,P21*%
X220258000Y-52220000D03*
%TD*%
D13*
%TO.P,D14,1*%
%TO.N,P4*%
X203290000Y-76800000D03*
D12*
X205450000Y-76800000D03*
%TO.P,D14,2*%
%TO.N,middle_top*%
X208750000Y-76800000D03*
D14*
X210910000Y-76800000D03*
%TD*%
D13*
%TO.P,D17,1*%
%TO.N,P0*%
X222290000Y-103800000D03*
D12*
X224450000Y-103800000D03*
D14*
%TO.P,D17,2*%
%TO.N,index_home*%
X229910000Y-103800000D03*
D12*
X227750000Y-103800000D03*
%TD*%
D20*
%TO.P,LED27,1*%
%TO.N,VCC*%
X299961190Y-169168495D03*
%TO.P,LED27,2*%
%TO.N,D1*%
X299059874Y-170668538D03*
%TO.P,LED27,3*%
%TO.N,GND*%
X302831410Y-172934705D03*
%TO.P,LED27,4*%
%TO.N,P1*%
X303732726Y-171434662D03*
D21*
%TO.P,LED27,11*%
%TO.N,VCC*%
X300077443Y-168392537D03*
%TO.P,LED27,22*%
%TO.N,D1*%
X298429321Y-171135472D03*
%TO.P,LED27,33*%
%TO.N,GND*%
X302715157Y-173710663D03*
%TO.P,LED27,44*%
%TO.N,P1*%
X304363279Y-170967728D03*
%TD*%
D12*
%TO.P,D8,1*%
%TO.N,P15*%
X186450000Y-116800000D03*
D13*
X184290000Y-116800000D03*
D14*
%TO.P,D8,2*%
%TO.N,ring_bottom*%
X191910000Y-116800000D03*
D12*
X189750000Y-116800000D03*
%TD*%
D17*
%TO.P,S4,1*%
%TO.N,pinkie_bottom*%
X176185000Y-111760000D03*
%TO.P,S4,2*%
%TO.N,P6*%
X163258000Y-109220000D03*
%TD*%
D12*
%TO.P,D1,1*%
%TO.N,P15*%
X129450000Y-117800000D03*
D13*
X127290000Y-117800000D03*
D12*
%TO.P,D1,2*%
%TO.N,single_bottom*%
X132750000Y-117800000D03*
D14*
X134910000Y-117800000D03*
%TD*%
D10*
%TO.P,LED5,1*%
%TO.N,VCC*%
X166900000Y-99425000D03*
%TO.P,LED5,2*%
%TO.N,D1*%
X166900000Y-101175000D03*
%TO.P,LED5,3*%
%TO.N,GND*%
X171300000Y-101175000D03*
%TO.P,LED5,4*%
%TO.N,P1*%
X171300000Y-99425000D03*
D11*
%TO.P,LED5,11*%
%TO.N,VCC*%
X166600000Y-98700000D03*
%TO.P,LED5,22*%
%TO.N,D1*%
X166600000Y-101900000D03*
%TO.P,LED5,33*%
%TO.N,GND*%
X171600000Y-101900000D03*
%TO.P,LED5,44*%
%TO.N,P1*%
X171600000Y-98700000D03*
%TD*%
D10*
%TO.P,LED2,1*%
%TO.N,VCC*%
X147900000Y-121425000D03*
%TO.P,LED2,2*%
%TO.N,D1*%
X147900000Y-123175000D03*
%TO.P,LED2,3*%
%TO.N,GND*%
X152300000Y-123175000D03*
%TO.P,LED2,4*%
%TO.N,P1*%
X152300000Y-121425000D03*
D11*
%TO.P,LED2,11*%
%TO.N,VCC*%
X147600000Y-120700000D03*
%TO.P,LED2,22*%
%TO.N,D1*%
X147600000Y-123900000D03*
%TO.P,LED2,33*%
%TO.N,GND*%
X152600000Y-123900000D03*
%TO.P,LED2,44*%
%TO.N,P1*%
X152600000Y-120700000D03*
%TD*%
D10*
%TO.P,LED7,1*%
%TO.N,VCC*%
X166900000Y-61425000D03*
%TO.P,LED7,2*%
%TO.N,D1*%
X166900000Y-63175000D03*
%TO.P,LED7,3*%
%TO.N,GND*%
X171300000Y-63175000D03*
%TO.P,LED7,4*%
%TO.N,P1*%
X171300000Y-61425000D03*
D11*
%TO.P,LED7,11*%
%TO.N,VCC*%
X166600000Y-60700000D03*
%TO.P,LED7,22*%
%TO.N,D1*%
X166600000Y-63900000D03*
%TO.P,LED7,33*%
%TO.N,GND*%
X171600000Y-63900000D03*
%TO.P,LED7,44*%
%TO.N,P1*%
X171600000Y-60700000D03*
%TD*%
D10*
%TO.P,LED3,1*%
%TO.N,VCC*%
X147900000Y-102425000D03*
%TO.P,LED3,2*%
%TO.N,D1*%
X147900000Y-104175000D03*
%TO.P,LED3,3*%
%TO.N,GND*%
X152300000Y-104175000D03*
%TO.P,LED3,4*%
%TO.N,P1*%
X152300000Y-102425000D03*
D11*
%TO.P,LED3,11*%
%TO.N,VCC*%
X147600000Y-101700000D03*
%TO.P,LED3,22*%
%TO.N,D1*%
X147600000Y-104900000D03*
%TO.P,LED3,33*%
%TO.N,GND*%
X152600000Y-104900000D03*
%TO.P,LED3,44*%
%TO.N,P1*%
X152600000Y-101700000D03*
%TD*%
D10*
%TO.P,LED12,1*%
%TO.N,VCC*%
X204900000Y-110425000D03*
%TO.P,LED12,2*%
%TO.N,D1*%
X204900000Y-112175000D03*
%TO.P,LED12,3*%
%TO.N,GND*%
X209300000Y-112175000D03*
%TO.P,LED12,4*%
%TO.N,P1*%
X209300000Y-110425000D03*
D11*
%TO.P,LED12,11*%
%TO.N,VCC*%
X204600000Y-109700000D03*
%TO.P,LED12,22*%
%TO.N,D1*%
X204600000Y-112900000D03*
%TO.P,LED12,33*%
%TO.N,GND*%
X209600000Y-112900000D03*
%TO.P,LED12,44*%
%TO.N,P1*%
X209600000Y-109700000D03*
%TD*%
D12*
%TO.P,D22,1*%
%TO.N,P4*%
X243450000Y-87800000D03*
D13*
X241290000Y-87800000D03*
D14*
%TO.P,D22,2*%
%TO.N,far_top*%
X248910000Y-87800000D03*
D12*
X246750000Y-87800000D03*
%TD*%
D17*
%TO.P,S11,1*%
%TO.N,ring_num*%
X195185000Y-48760000D03*
%TO.P,S11,2*%
%TO.N,P8*%
X182258000Y-46220000D03*
%TD*%
D13*
%TO.P,D16,1*%
%TO.N,P15*%
X222290000Y-122800000D03*
D12*
X224450000Y-122800000D03*
D14*
%TO.P,D16,2*%
%TO.N,index_bottom*%
X229910000Y-122800000D03*
D12*
X227750000Y-122800000D03*
%TD*%
D22*
%TO.P,S25,1*%
%TO.N,1_top*%
X289938098Y-156870141D03*
%TO.P,S25,2*%
%TO.N,P10*%
X278903893Y-149672554D03*
%TD*%
D23*
%TO.P,MCU1,*%
%TO.N,*%
X143258000Y-57410000D03*
D24*
X141480000Y-77730000D03*
D25*
X142750000Y-67570000D03*
D26*
X154942000Y-67570000D03*
D25*
X142750000Y-59950000D03*
X142750000Y-52330000D03*
D27*
X155450000Y-72650000D03*
D24*
X156720000Y-80270000D03*
D25*
X142750000Y-62490000D03*
D26*
X154942000Y-72650000D03*
D27*
X155450000Y-54870000D03*
D24*
X141480000Y-62490000D03*
D26*
X154942000Y-62490000D03*
D25*
X142750000Y-70110000D03*
D24*
X141480000Y-72650000D03*
D26*
X154942000Y-80270000D03*
D24*
X156720000Y-65030000D03*
D23*
X143258000Y-65030000D03*
D26*
X154942000Y-57410000D03*
D24*
X156720000Y-67570000D03*
D27*
X155450000Y-80270000D03*
X155450000Y-77730000D03*
D26*
X154942000Y-54870000D03*
D23*
X143258000Y-75190000D03*
D28*
X141480000Y-52330000D03*
D26*
X154942000Y-75190000D03*
D23*
X143258000Y-72650000D03*
D25*
X142750000Y-65030000D03*
D24*
X141480000Y-52330000D03*
D27*
X155450000Y-59950000D03*
D24*
X156720000Y-62490000D03*
D25*
X142750000Y-75190000D03*
D27*
X155450000Y-75190000D03*
D24*
X141480000Y-75190000D03*
D26*
X154942000Y-59950000D03*
D23*
X143258000Y-54870000D03*
D27*
X155450000Y-70110000D03*
D24*
X141480000Y-59950000D03*
D23*
X143258000Y-62490000D03*
D27*
X155450000Y-57410000D03*
D25*
X142750000Y-72650000D03*
D23*
X143258000Y-77730000D03*
X143258000Y-80270000D03*
D25*
X142750000Y-57410000D03*
D23*
X143258000Y-52330000D03*
D24*
X156720000Y-57410000D03*
D25*
X142750000Y-80270000D03*
D26*
X154942000Y-70110000D03*
D27*
X155450000Y-65030000D03*
D24*
X156720000Y-54870000D03*
X156720000Y-59950000D03*
X156720000Y-70110000D03*
X141480000Y-70110000D03*
X141480000Y-57410000D03*
D27*
X155450000Y-52330000D03*
D26*
X154942000Y-52330000D03*
D23*
X143258000Y-67570000D03*
D24*
X156720000Y-52330000D03*
D25*
X142750000Y-77730000D03*
D23*
X143258000Y-59950000D03*
D27*
X155450000Y-62490000D03*
X155450000Y-67570000D03*
D24*
X141480000Y-67570000D03*
D26*
X154942000Y-65030000D03*
D24*
X156720000Y-72650000D03*
D26*
X154942000Y-77730000D03*
D24*
X156720000Y-75190000D03*
D25*
X142750000Y-54870000D03*
D24*
X141480000Y-65030000D03*
X156720000Y-77730000D03*
D23*
X143258000Y-70110000D03*
D24*
X141480000Y-54870000D03*
X141480000Y-80270000D03*
D29*
%TO.P,MCU1,1*%
%TO.N,RAW*%
X149862000Y-52330000D03*
D30*
X149862000Y-52330000D03*
D31*
X153926000Y-52330000D03*
D30*
%TO.P,MCU1,2*%
%TO.N,GND*%
X149862000Y-54870000D03*
D31*
X153926000Y-54870000D03*
D29*
X149862000Y-54870000D03*
D31*
%TO.P,MCU1,3*%
%TO.N,RST*%
X153926000Y-57410000D03*
D29*
X149862000Y-57410000D03*
D30*
X149862000Y-57410000D03*
D31*
%TO.P,MCU1,4*%
%TO.N,VCC*%
X153926000Y-59950000D03*
D29*
X149862000Y-59950000D03*
D30*
X149862000Y-59950000D03*
%TO.P,MCU1,5*%
%TO.N,P21*%
X149862000Y-62490000D03*
D31*
X153926000Y-62490000D03*
D29*
X149862000Y-62490000D03*
%TO.P,MCU1,6*%
%TO.N,P20*%
X149862000Y-65030000D03*
D31*
X153926000Y-65030000D03*
D30*
X149862000Y-65030000D03*
D29*
%TO.P,MCU1,7*%
%TO.N,P19*%
X149862000Y-67570000D03*
D30*
X149862000Y-67570000D03*
D31*
X153926000Y-67570000D03*
D29*
%TO.P,MCU1,8*%
%TO.N,P18*%
X149862000Y-70110000D03*
D31*
X153926000Y-70110000D03*
D30*
X149862000Y-70110000D03*
%TO.P,MCU1,9*%
%TO.N,P15*%
X149862000Y-72650000D03*
D29*
X149862000Y-72650000D03*
D31*
X153926000Y-72650000D03*
%TO.P,MCU1,10*%
%TO.N,P14*%
X153926000Y-75190000D03*
D30*
X149862000Y-75190000D03*
D29*
X149862000Y-75190000D03*
D30*
%TO.P,MCU1,11*%
%TO.N,P16*%
X149862000Y-77730000D03*
D31*
X153926000Y-77730000D03*
D29*
X149862000Y-77730000D03*
D31*
%TO.P,MCU1,12*%
%TO.N,P10*%
X153926000Y-80270000D03*
D30*
X149862000Y-80270000D03*
D29*
X149862000Y-80270000D03*
D32*
%TO.P,MCU1,13*%
%TO.N,P1*%
X148338000Y-80270000D03*
D30*
X148338000Y-80270000D03*
D33*
X144274000Y-80270000D03*
D30*
%TO.P,MCU1,14*%
%TO.N,P0*%
X148338000Y-77730000D03*
D33*
X144274000Y-77730000D03*
D32*
X148338000Y-77730000D03*
%TO.P,MCU1,15*%
%TO.N,GND*%
X148338000Y-75190000D03*
D33*
X144274000Y-75190000D03*
D30*
X148338000Y-75190000D03*
D33*
%TO.P,MCU1,16*%
X144274000Y-72650000D03*
D30*
X148338000Y-72650000D03*
D32*
X148338000Y-72650000D03*
D33*
%TO.P,MCU1,17*%
%TO.N,P2*%
X144274000Y-70110000D03*
D32*
X148338000Y-70110000D03*
D30*
X148338000Y-70110000D03*
%TO.P,MCU1,18*%
%TO.N,P3*%
X148338000Y-67570000D03*
D33*
X144274000Y-67570000D03*
D32*
X148338000Y-67570000D03*
D30*
%TO.P,MCU1,19*%
%TO.N,P4*%
X148338000Y-65030000D03*
D32*
X148338000Y-65030000D03*
D33*
X144274000Y-65030000D03*
D30*
%TO.P,MCU1,20*%
%TO.N,P5*%
X148338000Y-62490000D03*
D32*
X148338000Y-62490000D03*
D33*
X144274000Y-62490000D03*
D32*
%TO.P,MCU1,21*%
%TO.N,P6*%
X148338000Y-59950000D03*
D30*
X148338000Y-59950000D03*
D33*
X144274000Y-59950000D03*
D30*
%TO.P,MCU1,22*%
%TO.N,P7*%
X148338000Y-57410000D03*
D32*
X148338000Y-57410000D03*
D33*
X144274000Y-57410000D03*
D30*
%TO.P,MCU1,23*%
%TO.N,P8*%
X148338000Y-54870000D03*
D33*
X144274000Y-54870000D03*
D32*
X148338000Y-54870000D03*
D30*
%TO.P,MCU1,24*%
%TO.N,P9*%
X148338000Y-52330000D03*
D33*
X144274000Y-52330000D03*
D32*
X148338000Y-52330000D03*
%TD*%
D13*
%TO.P,D4,1*%
%TO.N,P15*%
X165290000Y-122800000D03*
D12*
X167450000Y-122800000D03*
D14*
%TO.P,D4,2*%
%TO.N,pinkie_bottom*%
X172910000Y-122800000D03*
D12*
X170750000Y-122800000D03*
%TD*%
D10*
%TO.P,LED17,1*%
%TO.N,VCC*%
X223900000Y-99425000D03*
%TO.P,LED17,2*%
%TO.N,D1*%
X223900000Y-101175000D03*
%TO.P,LED17,3*%
%TO.N,GND*%
X228300000Y-101175000D03*
%TO.P,LED17,4*%
%TO.N,P1*%
X228300000Y-99425000D03*
D11*
%TO.P,LED17,11*%
%TO.N,VCC*%
X223600000Y-98700000D03*
%TO.P,LED17,22*%
%TO.N,D1*%
X223600000Y-101900000D03*
%TO.P,LED17,33*%
%TO.N,GND*%
X228600000Y-101900000D03*
%TO.P,LED17,44*%
%TO.N,P1*%
X228600000Y-98700000D03*
%TD*%
D17*
%TO.P,S23,1*%
%TO.N,far_num*%
X252185000Y-57760000D03*
%TO.P,S23,2*%
%TO.N,P20*%
X239258000Y-55220000D03*
%TD*%
D10*
%TO.P,LED13,1*%
%TO.N,VCC*%
X204900000Y-91425000D03*
%TO.P,LED13,2*%
%TO.N,D1*%
X204900000Y-93175000D03*
%TO.P,LED13,3*%
%TO.N,GND*%
X209300000Y-93175000D03*
%TO.P,LED13,4*%
%TO.N,P1*%
X209300000Y-91425000D03*
D11*
%TO.P,LED13,11*%
%TO.N,VCC*%
X204600000Y-90700000D03*
%TO.P,LED13,22*%
%TO.N,D1*%
X204600000Y-93900000D03*
%TO.P,LED13,33*%
%TO.N,GND*%
X209600000Y-93900000D03*
%TO.P,LED13,44*%
%TO.N,P1*%
X209600000Y-90700000D03*
%TD*%
D10*
%TO.P,LED21,1*%
%TO.N,VCC*%
X242900000Y-102425000D03*
%TO.P,LED21,2*%
%TO.N,D1*%
X242900000Y-104175000D03*
%TO.P,LED21,3*%
%TO.N,GND*%
X247300000Y-104175000D03*
%TO.P,LED21,4*%
%TO.N,P1*%
X247300000Y-102425000D03*
D11*
%TO.P,LED21,11*%
%TO.N,VCC*%
X242600000Y-101700000D03*
%TO.P,LED21,22*%
%TO.N,D1*%
X242600000Y-104900000D03*
%TO.P,LED21,33*%
%TO.N,GND*%
X247600000Y-104900000D03*
%TO.P,LED21,44*%
%TO.N,P1*%
X247600000Y-101700000D03*
%TD*%
D34*
%TO.P,TRRS,1*%
%TO.N,GND*%
X260200000Y-63200000D03*
X264800000Y-63200000D03*
%TO.P,TRRS,2*%
X260200000Y-62100000D03*
X264800000Y-62100000D03*
%TO.P,TRRS,3*%
%TO.N,P7*%
X260200000Y-58100000D03*
X264800000Y-58100000D03*
%TO.P,TRRS,4*%
%TO.N,VCC*%
X260200000Y-55100000D03*
X264800000Y-55100000D03*
%TD*%
D13*
%TO.P,D15,1*%
%TO.N,P14*%
X203290000Y-57800000D03*
D12*
X205450000Y-57800000D03*
%TO.P,D15,2*%
%TO.N,middle_num*%
X208750000Y-57800000D03*
D14*
X210910000Y-57800000D03*
%TD*%
D35*
%TO.P,OLED1,1*%
%TO.N,GND*%
X152900000Y-84549000D03*
%TO.P,OLED1,2*%
%TO.N,VCC*%
X150360000Y-84549000D03*
%TO.P,OLED1,3*%
%TO.N,P3*%
X147820000Y-84549000D03*
%TO.P,OLED1,4*%
%TO.N,P2*%
X145280000Y-84549000D03*
D36*
%TO.P,OLED1,5*%
%TO.N,N/C*%
X152900000Y-86200000D03*
D37*
%TO.P,OLED1,6*%
X150360000Y-86200000D03*
%TO.P,OLED1,7*%
X147820000Y-86200000D03*
%TO.P,OLED1,8*%
X145280000Y-86200000D03*
%TD*%
D13*
%TO.P,D20,1*%
%TO.N,P15*%
X241290000Y-125800000D03*
D12*
X243450000Y-125800000D03*
%TO.P,D20,2*%
%TO.N,far_bottom*%
X246750000Y-125800000D03*
D14*
X248910000Y-125800000D03*
%TD*%
D17*
%TO.P,S21,1*%
%TO.N,far_home*%
X252185000Y-95760000D03*
%TO.P,S21,2*%
%TO.N,P20*%
X239258000Y-93220000D03*
%TD*%
D10*
%TO.P,LED15,1*%
%TO.N,VCC*%
X204900000Y-53425000D03*
%TO.P,LED15,2*%
%TO.N,D1*%
X204900000Y-55175000D03*
%TO.P,LED15,3*%
%TO.N,GND*%
X209300000Y-55175000D03*
%TO.P,LED15,4*%
%TO.N,P1*%
X209300000Y-53425000D03*
D11*
%TO.P,LED15,11*%
%TO.N,VCC*%
X204600000Y-52700000D03*
%TO.P,LED15,22*%
%TO.N,D1*%
X204600000Y-55900000D03*
%TO.P,LED15,33*%
%TO.N,GND*%
X209600000Y-55900000D03*
%TO.P,LED15,44*%
%TO.N,P1*%
X209600000Y-52700000D03*
%TD*%
D17*
%TO.P,S2,1*%
%TO.N,tab_bottom*%
X157185000Y-114760000D03*
%TO.P,S2,2*%
%TO.N,P5*%
X144258000Y-112220000D03*
%TD*%
D10*
%TO.P,LED6,1*%
%TO.N,VCC*%
X166900000Y-80425000D03*
%TO.P,LED6,2*%
%TO.N,D1*%
X166900000Y-82175000D03*
%TO.P,LED6,3*%
%TO.N,GND*%
X171300000Y-82175000D03*
%TO.P,LED6,4*%
%TO.N,P1*%
X171300000Y-80425000D03*
D11*
%TO.P,LED6,11*%
%TO.N,VCC*%
X166600000Y-79700000D03*
%TO.P,LED6,22*%
%TO.N,D1*%
X166600000Y-82900000D03*
%TO.P,LED6,33*%
%TO.N,GND*%
X171600000Y-82900000D03*
%TO.P,LED6,44*%
%TO.N,P1*%
X171600000Y-79700000D03*
%TD*%
D12*
%TO.P,D2,1*%
%TO.N,P15*%
X148450000Y-125800000D03*
D13*
X146290000Y-125800000D03*
D12*
%TO.P,D2,2*%
%TO.N,tab_bottom*%
X151750000Y-125800000D03*
D14*
X153910000Y-125800000D03*
%TD*%
D17*
%TO.P,S8,1*%
%TO.N,ring_bottom*%
X195185000Y-105760000D03*
%TO.P,S8,2*%
%TO.N,P8*%
X182258000Y-103220000D03*
%TD*%
D13*
%TO.P,D5,1*%
%TO.N,P0*%
X165290000Y-103800000D03*
D12*
X167450000Y-103800000D03*
%TO.P,D5,2*%
%TO.N,pinkie_home*%
X170750000Y-103800000D03*
D14*
X172910000Y-103800000D03*
%TD*%
D17*
%TO.P,S13,1*%
%TO.N,middle_home*%
X214185000Y-84760000D03*
%TO.P,S13,2*%
%TO.N,P9*%
X201258000Y-82220000D03*
%TD*%
D13*
%TO.P,D7,1*%
%TO.N,P14*%
X165290000Y-65800000D03*
D12*
X167450000Y-65800000D03*
%TO.P,D7,2*%
%TO.N,pinkie_num*%
X170750000Y-65800000D03*
D14*
X172910000Y-65800000D03*
%TD*%
D17*
%TO.P,S1,1*%
%TO.N,single_bottom*%
X138185000Y-106760000D03*
%TO.P,S1,2*%
%TO.N,P5*%
X125258000Y-104220000D03*
%TD*%
D13*
%TO.P,D13,1*%
%TO.N,P0*%
X203290000Y-95800000D03*
D12*
X205450000Y-95800000D03*
D14*
%TO.P,D13,2*%
%TO.N,middle_home*%
X210910000Y-95800000D03*
D12*
X208750000Y-95800000D03*
%TD*%
D17*
%TO.P,S5,1*%
%TO.N,pinkie_home*%
X176185000Y-92760000D03*
%TO.P,S5,2*%
%TO.N,P6*%
X163258000Y-90220000D03*
%TD*%
D16*
%TO.P,D26,1*%
%TO.N,P19*%
X288393674Y-189487987D03*
D15*
X286542193Y-188375505D03*
D14*
%TO.P,D26,2*%
%TO.N,2_bottom*%
X293073807Y-192300095D03*
D16*
X291222326Y-191187613D03*
%TD*%
D38*
%TO.P,J3,1,Pin_1*%
%TO.N,P10*%
X293800000Y-78050000D03*
%TO.P,J3,2,Pin_2*%
%TO.N,P16*%
X293800000Y-84550000D03*
%TO.P,J3,3,Pin_3*%
%TO.N,P18*%
X293550000Y-92300000D03*
%TO.P,J3,4,Pin_4*%
%TO.N,P19*%
X293800000Y-99800000D03*
%TO.P,J3,5,Pin_5*%
%TO.N,VCC*%
X293800000Y-107050000D03*
%TO.P,J3,6,Pin_6*%
%TO.N,D1*%
X293800000Y-114550000D03*
%TO.P,J3,7,Pin_6*%
%TO.N,P1*%
X293800000Y-122050000D03*
%TO.P,J3,8,Pin_6*%
%TO.N,GND*%
X293800000Y-127800000D03*
%TD*%
D12*
%TO.P,D18,1*%
%TO.N,P4*%
X224450000Y-84800000D03*
D13*
X222290000Y-84800000D03*
D14*
%TO.P,D18,2*%
%TO.N,index_top*%
X229910000Y-84800000D03*
D12*
X227750000Y-84800000D03*
%TD*%
D20*
%TO.P,LED26,1*%
%TO.N,VCC*%
X290175490Y-185454695D03*
%TO.P,LED26,2*%
%TO.N,D1*%
X289274174Y-186954738D03*
%TO.P,LED26,3*%
%TO.N,GND*%
X293045710Y-189220905D03*
%TO.P,LED26,4*%
%TO.N,P1*%
X293947026Y-187720862D03*
D21*
%TO.P,LED26,11*%
%TO.N,VCC*%
X290291743Y-184678737D03*
%TO.P,LED26,22*%
%TO.N,D1*%
X288643621Y-187421672D03*
%TO.P,LED26,33*%
%TO.N,GND*%
X292929457Y-189996863D03*
%TO.P,LED26,44*%
%TO.N,P1*%
X294577579Y-187253928D03*
%TD*%
D39*
%TO.P,S27,1*%
%TO.N,2_top*%
X311352727Y-168237540D03*
%TO.P,S27,2*%
%TO.N,P16*%
X301580322Y-159402438D03*
%TD*%
D40*
%TO.P,LED24,1*%
%TO.N,VCC*%
X271714976Y-177188080D03*
%TO.P,LED24,2*%
%TO.N,D1*%
X271059415Y-178810651D03*
%TO.P,LED24,3*%
%TO.N,GND*%
X275139024Y-180458920D03*
%TO.P,LED24,4*%
%TO.N,P1*%
X275794585Y-178836349D03*
D41*
%TO.P,LED24,11*%
%TO.N,VCC*%
X271708411Y-176403489D03*
%TO.P,LED24,22*%
%TO.N,D1*%
X270509670Y-179370478D03*
%TO.P,LED24,33*%
%TO.N,GND*%
X275145589Y-181243511D03*
%TO.P,LED24,44*%
%TO.N,P1*%
X276344330Y-178276522D03*
%TD*%
D17*
%TO.P,S6,1*%
%TO.N,pinkie_top*%
X176185000Y-73760000D03*
%TO.P,S6,2*%
%TO.N,P6*%
X163258000Y-71220000D03*
%TD*%
D38*
%TO.P,J4,1,Pin_1*%
%TO.N,P10*%
X311800000Y-78050000D03*
%TO.P,J4,2,Pin_2*%
%TO.N,P16*%
X311800000Y-84550000D03*
%TO.P,J4,3,Pin_3*%
%TO.N,P18*%
X311550000Y-92300000D03*
%TO.P,J4,4,Pin_4*%
%TO.N,P19*%
X311800000Y-99800000D03*
%TO.P,J4,5,Pin_5*%
%TO.N,VCC*%
X311800000Y-107050000D03*
%TO.P,J4,6,Pin_6*%
%TO.N,D1*%
X311800000Y-114550000D03*
%TO.P,J4,7*%
%TO.N,P1*%
X311800000Y-122050000D03*
%TO.P,J4,8*%
%TO.N,GND*%
X311800000Y-127800000D03*
%TD*%
D17*
%TO.P,S12,1*%
%TO.N,middle_bottom*%
X214185000Y-103760000D03*
%TO.P,S12,2*%
%TO.N,P9*%
X201258000Y-101220000D03*
%TD*%
%TO.P,S7,1*%
%TO.N,pinkie_num*%
X176185000Y-54760000D03*
%TO.P,S7,2*%
%TO.N,P6*%
X163258000Y-52220000D03*
%TD*%
%TO.P,S14,1*%
%TO.N,middle_top*%
X214185000Y-65760000D03*
%TO.P,S14,2*%
%TO.N,P9*%
X201258000Y-63220000D03*
%TD*%
D10*
%TO.P,LED11,1*%
%TO.N,VCC*%
X185900000Y-55425000D03*
%TO.P,LED11,2*%
%TO.N,D1*%
X185900000Y-57175000D03*
%TO.P,LED11,3*%
%TO.N,GND*%
X190300000Y-57175000D03*
%TO.P,LED11,4*%
%TO.N,P1*%
X190300000Y-55425000D03*
D11*
%TO.P,LED11,11*%
%TO.N,VCC*%
X185600000Y-54700000D03*
%TO.P,LED11,22*%
%TO.N,D1*%
X185600000Y-57900000D03*
%TO.P,LED11,33*%
%TO.N,GND*%
X190600000Y-57900000D03*
%TO.P,LED11,44*%
%TO.N,P1*%
X190600000Y-54700000D03*
%TD*%
D17*
%TO.P,S18,1*%
%TO.N,index_top*%
X233185000Y-73760000D03*
%TO.P,S18,2*%
%TO.N,P21*%
X220258000Y-71220000D03*
%TD*%
D13*
%TO.P,D21,1*%
%TO.N,P0*%
X241290000Y-106800000D03*
D12*
X243450000Y-106800000D03*
D14*
%TO.P,D21,2*%
%TO.N,far_home*%
X248910000Y-106800000D03*
D12*
X246750000Y-106800000D03*
%TD*%
%TO.P,D11,1*%
%TO.N,P14*%
X186450000Y-59800000D03*
D13*
X184290000Y-59800000D03*
D12*
%TO.P,D11,2*%
%TO.N,ring_num*%
X189750000Y-59800000D03*
D14*
X191910000Y-59800000D03*
%TD*%
D17*
%TO.P,S17,1*%
%TO.N,index_home*%
X233185000Y-92760000D03*
%TO.P,S17,2*%
%TO.N,P21*%
X220258000Y-90220000D03*
%TD*%
D40*
%TO.P,LED25,1*%
%TO.N,VCC*%
X278832476Y-159571580D03*
%TO.P,LED25,2*%
%TO.N,D1*%
X278176915Y-161194151D03*
%TO.P,LED25,3*%
%TO.N,GND*%
X282256524Y-162842420D03*
%TO.P,LED25,4*%
%TO.N,P1*%
X282912085Y-161219849D03*
D41*
%TO.P,LED25,11*%
%TO.N,VCC*%
X278825911Y-158786989D03*
%TO.P,LED25,22*%
%TO.N,D1*%
X277627170Y-161753978D03*
%TO.P,LED25,33*%
%TO.N,GND*%
X282263089Y-163627011D03*
%TO.P,LED25,44*%
%TO.N,P1*%
X283461830Y-160660022D03*
%TD*%
D10*
%TO.P,LED14,1*%
%TO.N,VCC*%
X204900000Y-72425000D03*
%TO.P,LED14,2*%
%TO.N,D1*%
X204900000Y-74175000D03*
%TO.P,LED14,3*%
%TO.N,GND*%
X209300000Y-74175000D03*
%TO.P,LED14,4*%
%TO.N,P1*%
X209300000Y-72425000D03*
D11*
%TO.P,LED14,11*%
%TO.N,VCC*%
X204600000Y-71700000D03*
%TO.P,LED14,22*%
%TO.N,D1*%
X204600000Y-74900000D03*
%TO.P,LED14,33*%
%TO.N,GND*%
X209600000Y-74900000D03*
%TO.P,LED14,44*%
%TO.N,P1*%
X209600000Y-71700000D03*
%TD*%
D10*
%TO.P,LED22,1*%
%TO.N,VCC*%
X242900000Y-83425000D03*
%TO.P,LED22,2*%
%TO.N,D1*%
X242900000Y-85175000D03*
%TO.P,LED22,3*%
%TO.N,GND*%
X247300000Y-85175000D03*
%TO.P,LED22,4*%
%TO.N,P1*%
X247300000Y-83425000D03*
D11*
%TO.P,LED22,11*%
%TO.N,VCC*%
X242600000Y-82700000D03*
%TO.P,LED22,22*%
%TO.N,D1*%
X242600000Y-85900000D03*
%TO.P,LED22,33*%
%TO.N,GND*%
X247600000Y-85900000D03*
%TO.P,LED22,44*%
%TO.N,P1*%
X247600000Y-82700000D03*
%TD*%
D18*
%TO.P,D24,1*%
%TO.N,P19*%
X268583230Y-180641349D03*
D19*
X270585947Y-181450499D03*
%TO.P,D24,2*%
%TO.N,1_bottom*%
X273645653Y-182686701D03*
D14*
X275648370Y-183495851D03*
%TD*%
D22*
%TO.P,S24,1*%
%TO.N,1_bottom*%
X282820598Y-174486641D03*
%TO.P,S24,2*%
%TO.N,P10*%
X271786393Y-167289054D03*
%TD*%
D10*
%TO.P,LED4,1*%
%TO.N,VCC*%
X166900000Y-118425000D03*
%TO.P,LED4,2*%
%TO.N,D1*%
X166900000Y-120175000D03*
%TO.P,LED4,3*%
%TO.N,GND*%
X171300000Y-120175000D03*
%TO.P,LED4,4*%
%TO.N,P1*%
X171300000Y-118425000D03*
D11*
%TO.P,LED4,11*%
%TO.N,VCC*%
X166600000Y-117700000D03*
%TO.P,LED4,22*%
%TO.N,D1*%
X166600000Y-120900000D03*
%TO.P,LED4,33*%
%TO.N,GND*%
X171600000Y-120900000D03*
%TO.P,LED4,44*%
%TO.N,P1*%
X171600000Y-117700000D03*
%TD*%
D10*
%TO.P,LED18,1*%
%TO.N,VCC*%
X223900000Y-80425000D03*
%TO.P,LED18,2*%
%TO.N,D1*%
X223900000Y-82175000D03*
%TO.P,LED18,3*%
%TO.N,GND*%
X228300000Y-82175000D03*
%TO.P,LED18,4*%
%TO.N,P1*%
X228300000Y-80425000D03*
D11*
%TO.P,LED18,11*%
%TO.N,VCC*%
X223600000Y-79700000D03*
%TO.P,LED18,22*%
%TO.N,D1*%
X223600000Y-82900000D03*
%TO.P,LED18,33*%
%TO.N,GND*%
X228600000Y-82900000D03*
%TO.P,LED18,44*%
%TO.N,P1*%
X228600000Y-79700000D03*
%TD*%
D13*
%TO.P,D10,1*%
%TO.N,P4*%
X184290000Y-78800000D03*
D12*
X186450000Y-78800000D03*
%TO.P,D10,2*%
%TO.N,ring_top*%
X189750000Y-78800000D03*
D14*
X191910000Y-78800000D03*
%TD*%
D39*
%TO.P,S26,1*%
%TO.N,2_bottom*%
X301567027Y-184523740D03*
%TO.P,S26,2*%
%TO.N,P16*%
X291794622Y-175688638D03*
%TD*%
D12*
%TO.P,D23,1*%
%TO.N,P14*%
X243450000Y-68800000D03*
D13*
X241290000Y-68800000D03*
D14*
%TO.P,D23,2*%
%TO.N,far_num*%
X248910000Y-68800000D03*
D12*
X246750000Y-68800000D03*
%TD*%
%TO.P,D12,1*%
%TO.N,P15*%
X205450000Y-114800000D03*
D13*
X203290000Y-114800000D03*
D12*
%TO.P,D12,2*%
%TO.N,middle_bottom*%
X208750000Y-114800000D03*
D14*
X210910000Y-114800000D03*
%TD*%
D10*
%TO.P,LED8,1*%
%TO.N,VCC*%
X185900000Y-112425000D03*
%TO.P,LED8,2*%
%TO.N,D1*%
X185900000Y-114175000D03*
%TO.P,LED8,3*%
%TO.N,GND*%
X190300000Y-114175000D03*
%TO.P,LED8,4*%
%TO.N,P1*%
X190300000Y-112425000D03*
D11*
%TO.P,LED8,11*%
%TO.N,VCC*%
X185600000Y-111700000D03*
%TO.P,LED8,22*%
%TO.N,D1*%
X185600000Y-114900000D03*
%TO.P,LED8,33*%
%TO.N,GND*%
X190600000Y-114900000D03*
%TO.P,LED8,44*%
%TO.N,P1*%
X190600000Y-111700000D03*
%TD*%
D42*
%TO.P,J2,1,Pin_1*%
%TO.N,P10*%
X275550000Y-78200000D03*
X279350000Y-78200000D03*
D43*
X277450000Y-78200000D03*
D42*
%TO.P,J2,2,Pin_2*%
%TO.N,P16*%
X275550000Y-84700000D03*
D43*
X277450000Y-84700000D03*
D42*
X279350000Y-84700000D03*
%TO.P,J2,3,Pin_3*%
%TO.N,P18*%
X275550000Y-92450000D03*
X279350000Y-92450000D03*
D43*
X277450000Y-92450000D03*
%TO.P,J2,4,Pin_4*%
%TO.N,P19*%
X277450000Y-99950000D03*
D42*
%TO.N,VCC*%
X279350000Y-107200000D03*
%TO.N,P19*%
X279350000Y-99950000D03*
X275550000Y-99950000D03*
D43*
%TO.P,J2,5,Pin_5*%
%TO.N,VCC*%
X277450000Y-107200000D03*
D42*
X275550000Y-107200000D03*
%TO.P,J2,6,Pin_6*%
%TO.N,D1*%
X275550000Y-114700000D03*
X279350000Y-114700000D03*
D43*
X277450000Y-114700000D03*
D42*
%TO.P,J2,7,Pin_6*%
%TO.N,P1*%
X275550000Y-122200000D03*
D43*
X277450000Y-122200000D03*
D42*
X279350000Y-122200000D03*
D43*
%TO.P,J2,8,Pin_6*%
%TO.N,GND*%
X277450000Y-127950000D03*
D42*
X275550000Y-127950000D03*
X279350000Y-127950000D03*
%TD*%
%TO.P,J1,1,Pin_1*%
%TO.N,P10*%
X256100000Y-69000000D03*
D43*
X258000000Y-69000000D03*
D42*
X259900000Y-69000000D03*
D43*
%TO.P,J1,2,Pin_2*%
%TO.N,P16*%
X258000000Y-75500000D03*
D42*
X256100000Y-75500000D03*
X259900000Y-75500000D03*
D43*
%TO.P,J1,3,Pin_3*%
%TO.N,P18*%
X258000000Y-83250000D03*
D42*
X259900000Y-83250000D03*
X256100000Y-83250000D03*
D43*
%TO.P,J1,4,Pin_4*%
%TO.N,P19*%
X258000000Y-90750000D03*
D42*
X259900000Y-90750000D03*
%TO.N,VCC*%
X259900000Y-98000000D03*
%TO.N,P19*%
X256100000Y-90750000D03*
D43*
%TO.P,J1,5,Pin_5*%
%TO.N,VCC*%
X258000000Y-98000000D03*
D42*
X256100000Y-98000000D03*
%TO.P,J1,6,Pin_6*%
%TO.N,D1*%
X259900000Y-105500000D03*
D43*
X258000000Y-105500000D03*
D42*
X256100000Y-105500000D03*
%TO.P,J1,7,Pin_6*%
%TO.N,P1*%
X259900000Y-113000000D03*
D43*
X258000000Y-113000000D03*
D42*
X256100000Y-113000000D03*
%TO.P,J1,8,Pin_6*%
%TO.N,GND*%
X259900000Y-118750000D03*
D43*
X258000000Y-118750000D03*
D42*
X256100000Y-118750000D03*
%TD*%
D44*
%TO.N,P9*%
X152200000Y-51500000D03*
%TO.N,RAW*%
X146604600Y-53217000D03*
%TO.N,GND*%
X217437600Y-59062600D03*
X273003600Y-180310200D03*
X291104700Y-188307900D03*
X183871400Y-115303500D03*
X238753100Y-65349900D03*
X222070100Y-100349900D03*
X300446900Y-173389100D03*
X149832300Y-104920100D03*
X280648100Y-161377700D03*
X159608400Y-104900000D03*
X131252700Y-114895400D03*
X186922900Y-80015500D03*
X158039100Y-121467800D03*
X169395300Y-63175000D03*
X238838800Y-84349900D03*
X148313800Y-76193700D03*
X144326600Y-56188300D03*
X169106500Y-84781500D03*
X238476100Y-103349900D03*
X177176600Y-101475000D03*
X143944700Y-81683400D03*
X187840100Y-96850000D03*
X207028800Y-111866400D03*
X192225200Y-57175000D03*
X187800500Y-114422800D03*
%TO.N,RST*%
X144310600Y-58680000D03*
%TO.N,VCC*%
X245705600Y-82337500D03*
X305854600Y-172659400D03*
X230572100Y-78988700D03*
X145161000Y-60837000D03*
X150531400Y-101004500D03*
X174879200Y-59524700D03*
X207100000Y-54250200D03*
X171860800Y-116456400D03*
X192040000Y-101602900D03*
X207477000Y-71265400D03*
X188999200Y-73109400D03*
X190648200Y-110481100D03*
X280886200Y-160366800D03*
X297986800Y-168482100D03*
X207674900Y-90365400D03*
X150299100Y-120700000D03*
X226106100Y-98198700D03*
X245392700Y-121425000D03*
X226267700Y-61733300D03*
X225826000Y-118425000D03*
X287989600Y-179812200D03*
X249228300Y-100774900D03*
X172981600Y-78566900D03*
X229787900Y-77580100D03*
X169381100Y-98663900D03*
X131374100Y-112850000D03*
X249678100Y-65250200D03*
X273181700Y-178814600D03*
X289477400Y-167211900D03*
X207989800Y-109074800D03*
%TO.N,P21*%
X232392000Y-68794200D03*
X172566200Y-49292000D03*
X150530000Y-61724200D03*
X231644200Y-107347100D03*
X231095200Y-49243400D03*
X230875600Y-88211400D03*
X231192100Y-82058900D03*
%TO.N,P20*%
X142567700Y-66375000D03*
X251336100Y-90148400D03*
X250896400Y-109587800D03*
X159090000Y-63904800D03*
X246566200Y-53317500D03*
X168437100Y-53321000D03*
X250935700Y-72255500D03*
%TO.N,P19*%
X278460700Y-168367100D03*
X180236000Y-78951700D03*
X165845300Y-67743600D03*
X144310600Y-66300000D03*
%TO.N,P18*%
X139811200Y-71088000D03*
X255117200Y-53294500D03*
X145149000Y-70888000D03*
%TO.N,P15*%
X144185600Y-73920000D03*
X180417100Y-118974200D03*
%TO.N,P14*%
X149859700Y-74143400D03*
X160594600Y-71405600D03*
%TO.N,P16*%
X150597800Y-76994200D03*
X292811200Y-172313000D03*
%TO.N,P10*%
X181504800Y-81319000D03*
X272834200Y-165013700D03*
X284038500Y-152854400D03*
X161888700Y-81920500D03*
X146907700Y-82328600D03*
%TO.N,P1*%
X284970600Y-177290900D03*
X225942400Y-99212500D03*
X168941300Y-80751600D03*
X136651200Y-121614800D03*
X245236900Y-76600000D03*
X301037600Y-170897500D03*
X206928800Y-91212500D03*
X284970600Y-181912800D03*
X226325100Y-80351600D03*
X173834800Y-117592300D03*
X295913100Y-185830500D03*
X206860500Y-72849800D03*
X149916400Y-103150300D03*
X213790600Y-72507100D03*
X187847500Y-56166300D03*
X273575500Y-176827200D03*
X280769300Y-159238800D03*
X225554000Y-117412400D03*
X244856400Y-102669300D03*
X168890800Y-99774900D03*
X187863900Y-93802400D03*
X147033800Y-80997800D03*
X131361500Y-113872700D03*
X207191800Y-110657000D03*
X187838900Y-112802500D03*
X277210900Y-176762200D03*
X225849900Y-60649900D03*
X206801400Y-52857400D03*
%TO.N,P0*%
X199139500Y-99120300D03*
X147602200Y-78465800D03*
%TO.N,P2*%
X153039000Y-69223000D03*
X151001100Y-82650100D03*
%TO.N,P3*%
X150153800Y-83418800D03*
X147631700Y-68305800D03*
%TO.N,P4*%
X153107500Y-66683000D03*
%TO.N,P5*%
X138868300Y-93397000D03*
X153069900Y-64229400D03*
X146721900Y-109517600D03*
X142445300Y-61451700D03*
%TO.N,P6*%
X173974800Y-106878800D03*
X176675800Y-105832700D03*
X168444600Y-69437000D03*
X152906600Y-58930600D03*
X164696000Y-88343200D03*
X159313400Y-57739700D03*
X159321800Y-79263800D03*
%TO.N,P7*%
X151748200Y-56523000D03*
%TO.N,P8*%
X194189500Y-82196000D03*
X180363900Y-46220000D03*
X153910200Y-53600000D03*
X182688100Y-63362700D03*
X192998900Y-100701800D03*
%TO.N,P9*%
X213374600Y-89617000D03*
X199354500Y-44220000D03*
X213076700Y-60816100D03*
%TO.N,single_bottom*%
X125306700Y-111774800D03*
%TO.N,tab_bottom*%
X157838500Y-112897800D03*
%TO.N,tab_home*%
X157343100Y-97625300D03*
%TO.N,pinkie_bottom*%
X176185000Y-113655400D03*
%TO.N,pinkie_home*%
X173809400Y-96872300D03*
%TO.N,pinkie_top*%
X178060600Y-73760000D03*
%TO.N,pinkie_num*%
X175294800Y-58242600D03*
%TO.N,ring_bottom*%
X195531500Y-107639300D03*
%TO.N,ring_num*%
X181015000Y-50629500D03*
%TO.N,middle_bottom*%
X203390700Y-99394800D03*
%TO.N,middle_num*%
X212631000Y-51584700D03*
%TO.N,index_home*%
X231161300Y-96900400D03*
%TO.N,index_top*%
X225153300Y-69555600D03*
%TO.N,index_num*%
X233838500Y-52541500D03*
%TO.N,1_top*%
X282738600Y-146468500D03*
%TO.N,2_bottom*%
X298867700Y-177831400D03*
%TO.N,D1*%
X206487400Y-113301900D03*
X179000100Y-60453500D03*
X221701000Y-62879500D03*
X154395900Y-103349900D03*
X298390700Y-175251600D03*
X131579300Y-117042000D03*
X168861500Y-81838700D03*
X192128500Y-94349900D03*
X225673500Y-121149400D03*
X169352300Y-64552800D03*
X175284000Y-100349900D03*
X210967600Y-97931400D03*
X292296800Y-184914500D03*
X188856100Y-58294800D03*
X245941600Y-124646600D03*
X249903600Y-108080700D03*
X207374900Y-56620800D03*
X173956500Y-61005400D03*
X272229600Y-181229200D03*
X226051000Y-82874300D03*
X188325100Y-76104800D03*
X291309200Y-187189100D03*
X227189300Y-105580300D03*
X280199700Y-162865300D03*
X245555600Y-88411700D03*
%TD*%
D45*
%TO.N,P18*%
X174201802Y-45291802D02*
X175131802Y-45291802D01*
X139811200Y-71088000D02*
X139449300Y-70726100D01*
X169943604Y-49550000D02*
X174201802Y-45291802D01*
X158440100Y-49550000D02*
X169943604Y-49550000D01*
X144764900Y-51135100D02*
X145000000Y-50900000D01*
X149100000Y-50900000D02*
X149300000Y-50700000D01*
X145000000Y-50900000D02*
X149100000Y-50900000D01*
X144764900Y-51202400D02*
X144764900Y-51135100D01*
X140513200Y-51202400D02*
X144764900Y-51202400D01*
X157290100Y-50700000D02*
X158440100Y-49550000D01*
X139449300Y-52266300D02*
X140513200Y-51202400D01*
X175131802Y-45208198D02*
X176118050Y-44221950D01*
X149300000Y-50700000D02*
X157290100Y-50700000D01*
X139449300Y-70726100D02*
X139449300Y-52266300D01*
X175131802Y-45291802D02*
X175131802Y-45208198D01*
X176118050Y-44221950D02*
X176118050Y-44028050D01*
%TO.N,P9*%
X151884000Y-51184000D02*
X152200000Y-51500000D01*
X149484000Y-51184000D02*
X151884000Y-51184000D01*
X148338000Y-52330000D02*
X149484000Y-51184000D01*
%TO.N,P18*%
X176118050Y-44028050D02*
X179165000Y-40981100D01*
X176110900Y-44035200D02*
X176118050Y-44028050D01*
%TO.N,P7*%
X176483700Y-44523700D02*
X176337300Y-44670100D01*
X179576100Y-41431300D02*
X176483700Y-44523700D01*
X176483700Y-44523700D02*
X176483700Y-44576300D01*
X176483700Y-44576300D02*
X175312100Y-45747900D01*
X175312100Y-45747900D02*
X174382100Y-45747900D01*
X161830000Y-50000000D02*
X161414400Y-50415600D01*
X152131200Y-56140000D02*
X151748200Y-56523000D01*
X174382100Y-45747900D02*
X170130000Y-50000000D01*
X170130000Y-50000000D02*
X161830000Y-50000000D01*
X161414400Y-50415600D02*
X161414400Y-51795600D01*
X161414400Y-51795600D02*
X157070000Y-56140000D01*
X157070000Y-56140000D02*
X152131200Y-56140000D01*
%TO.N,P18*%
X179165000Y-40981100D02*
X216593000Y-40981100D01*
X223067300Y-47455400D02*
X234645400Y-47455400D01*
X216593000Y-40981100D02*
X223067300Y-47455400D01*
X234645400Y-47455400D02*
X236680000Y-49490000D01*
X236680000Y-49490000D02*
X251312700Y-49490000D01*
X251312700Y-49490000D02*
X255117200Y-53294500D01*
%TO.N,P7*%
X215316500Y-41431300D02*
X179576100Y-41431300D01*
X234455400Y-47905400D02*
X221790600Y-47905400D01*
X221790600Y-47905400D02*
X215316500Y-41431300D01*
X249370000Y-49940000D02*
X236490000Y-49940000D01*
X257530000Y-58100000D02*
X249370000Y-49940000D01*
X260200000Y-58100000D02*
X257530000Y-58100000D01*
X236490000Y-49940000D02*
X234455400Y-47905400D01*
%TO.N,RAW*%
X148975000Y-53217000D02*
X149862000Y-52330000D01*
X146604600Y-53217000D02*
X148975000Y-53217000D01*
X153926000Y-52330000D02*
X149862000Y-52330000D01*
%TO.N,GND*%
X133600000Y-115900000D02*
X133300000Y-115600000D01*
X150152400Y-104600000D02*
X149832300Y-104920100D01*
X247450000Y-85750000D02*
X247300000Y-85600000D01*
X292929500Y-189996900D02*
X291595800Y-189195600D01*
X245944800Y-69561600D02*
X246472800Y-70089600D01*
X171300000Y-63175000D02*
X169674900Y-63175000D01*
X171300000Y-120537500D02*
X171300000Y-120175000D01*
X292929500Y-189996900D02*
X293045700Y-189880700D01*
X192496700Y-80087200D02*
X186994600Y-80087200D01*
X246472800Y-70089600D02*
X249737500Y-70089600D01*
X247450000Y-85750000D02*
X246049900Y-84349900D01*
X144326600Y-56188300D02*
X141039600Y-56188300D01*
X152600000Y-123900000D02*
X153925100Y-123900000D01*
X249737500Y-70089600D02*
X256627100Y-63200000D01*
X247600000Y-85900000D02*
X247450000Y-85750000D01*
X226674900Y-63175000D02*
X225849800Y-62349900D01*
X144417800Y-75190000D02*
X144417700Y-75190000D01*
X277936000Y-176461800D02*
X277824000Y-176349800D01*
X301381500Y-172909400D02*
X300901800Y-173389100D01*
X282256500Y-163620400D02*
X282256500Y-162842400D01*
X258000000Y-118750000D02*
X259900000Y-118750000D01*
X280775100Y-146381900D02*
X284792800Y-150399600D01*
X171600000Y-63900000D02*
X171600000Y-63475000D01*
X190300000Y-57175000D02*
X191925100Y-57175000D01*
X190300000Y-95537500D02*
X190300000Y-95175000D01*
X190300000Y-114175000D02*
X190600000Y-114475000D01*
X291104700Y-188307900D02*
X291166100Y-188369300D01*
X222070100Y-100349900D02*
X218926500Y-97206300D01*
X299721800Y-174114200D02*
X299721800Y-175831800D01*
X227937500Y-101900000D02*
X227937500Y-101175000D01*
X190600000Y-114475000D02*
X190600000Y-114900000D01*
X280924800Y-163620400D02*
X282256500Y-163620400D01*
D46*
X293800000Y-127800000D02*
X311800000Y-127800000D01*
D45*
X144771800Y-87397700D02*
X150837200Y-87397700D01*
X218909600Y-59062600D02*
X217437600Y-59062600D01*
X209600000Y-55900000D02*
X210925100Y-55900000D01*
X133300000Y-115175000D02*
X131674900Y-115175000D01*
X207974800Y-96618700D02*
X207974800Y-94995400D01*
X280775100Y-127950000D02*
X280775100Y-146381900D01*
X209300000Y-55600000D02*
X209600000Y-55900000D01*
X276954900Y-180109200D02*
X277824000Y-179240100D01*
X181585800Y-116466900D02*
X179616300Y-118436400D01*
X170274900Y-82900000D02*
X170274900Y-83613100D01*
X133300000Y-115600000D02*
X133300000Y-115175000D01*
X190600000Y-76900000D02*
X190300000Y-76600000D01*
X247300000Y-85600000D02*
X247300000Y-85175000D01*
X190600000Y-95900000D02*
X189937500Y-95900000D01*
X190300000Y-114175000D02*
X188674900Y-114175000D01*
X143944700Y-81683400D02*
X143944700Y-86570600D01*
X277450000Y-127950000D02*
X280775100Y-127950000D01*
X139899400Y-70137400D02*
X141142000Y-71380000D01*
X141301700Y-81683400D02*
X143944700Y-81683400D01*
X179616300Y-118436400D02*
X179616300Y-119073000D01*
X209600000Y-74900000D02*
X209600000Y-74475000D01*
X291166100Y-188369300D02*
X291595800Y-188799000D01*
X277824000Y-176349800D02*
X277824000Y-174476000D01*
X247300000Y-123175000D02*
X245674900Y-123175000D01*
X244849800Y-65349900D02*
X245674900Y-66175000D01*
X238476100Y-103349900D02*
X244511600Y-103349900D01*
X170274900Y-121504500D02*
X170274900Y-120900000D01*
X152391100Y-84549000D02*
X152900000Y-84549000D01*
X247600000Y-123900000D02*
X247300000Y-123600000D01*
X158039100Y-123900000D02*
X158153300Y-124014200D01*
X228600000Y-101900000D02*
X227937500Y-101900000D01*
X209300000Y-93750000D02*
X209300000Y-93175000D01*
X237303200Y-63900000D02*
X238753100Y-65349900D01*
X141039600Y-56188300D02*
X139899400Y-57328500D01*
X151610100Y-86624800D02*
X151610100Y-85330000D01*
X236730000Y-105096000D02*
X227730500Y-105096000D01*
X277711500Y-174363500D02*
X277711500Y-166744500D01*
X170937500Y-120900000D02*
X170274900Y-120900000D01*
X226959000Y-102215900D02*
X227274900Y-101900000D01*
X209450000Y-93750000D02*
X209300000Y-93750000D01*
X187840100Y-96850000D02*
X188987500Y-96850000D01*
X207974800Y-94995400D02*
X209220200Y-93750000D01*
X152300000Y-104600000D02*
X152600000Y-104900000D01*
X209300000Y-74175000D02*
X207160100Y-74175000D01*
X191925100Y-57175000D02*
X192225200Y-57175000D01*
X228300000Y-82175000D02*
X228300000Y-82600000D01*
X226674900Y-101175000D02*
X225849800Y-100349900D01*
X208562400Y-97206300D02*
X207974800Y-96618700D01*
X209600000Y-93900000D02*
X209450000Y-93750000D01*
X247600000Y-104900000D02*
X247300000Y-104600000D01*
X296567700Y-183956300D02*
X295032100Y-185491900D01*
X190300000Y-57537500D02*
X190300000Y-57175000D01*
X188427100Y-114422800D02*
X187800500Y-114422800D01*
X143454100Y-73469900D02*
X144274000Y-72650000D01*
X144849100Y-75190000D02*
X148313800Y-75190000D01*
X237388900Y-82900000D02*
X238838800Y-84349900D01*
X300901800Y-173389100D02*
X300446900Y-173389100D01*
X247300000Y-66750000D02*
X247300000Y-66175000D01*
X148313800Y-75190000D02*
X148313800Y-76193700D01*
X179616300Y-119073000D02*
X177789300Y-120900000D01*
X152300000Y-123600000D02*
X152600000Y-123900000D01*
X189274900Y-77663500D02*
X186922900Y-80015500D01*
X141076200Y-76487800D02*
X140347100Y-77216900D01*
X169674900Y-63175000D02*
X169395300Y-63175000D01*
X151610100Y-85330000D02*
X152391100Y-84549000D01*
X258000000Y-118750000D02*
X256100000Y-118750000D01*
X284792800Y-150399600D02*
X284792800Y-157841300D01*
X302715200Y-173710700D02*
X301381500Y-172909400D01*
X190600000Y-57900000D02*
X189937500Y-57900000D01*
X159608400Y-104900000D02*
X152600000Y-104900000D01*
X209300000Y-112175000D02*
X207337400Y-112175000D01*
X231899600Y-120900000D02*
X228600000Y-120900000D01*
X227730500Y-105096000D02*
X227489700Y-104855200D01*
X247220200Y-66750000D02*
X245944800Y-68025400D01*
X238753100Y-65349900D02*
X244849800Y-65349900D01*
X292084400Y-187121000D02*
X292084400Y-187451000D01*
X273323200Y-179725300D02*
X273323200Y-179990600D01*
X183871400Y-115303500D02*
X183385800Y-115303500D01*
X300446900Y-173389100D02*
X299721800Y-174114200D01*
X284792800Y-157841300D02*
X284973500Y-158022000D01*
X293045700Y-189880700D02*
X293045700Y-189220900D01*
X247300000Y-123600000D02*
X247300000Y-123175000D01*
X217437600Y-59062600D02*
X214275000Y-55900000D01*
X152300000Y-104600000D02*
X150152400Y-104600000D01*
X207337400Y-112175000D02*
X207028800Y-111866400D01*
X209300000Y-55175000D02*
X209300000Y-55600000D01*
X275139000Y-180458900D02*
X276954900Y-181192500D01*
X256100000Y-118750000D02*
X256100000Y-120075100D01*
X171600000Y-101475000D02*
X171600000Y-101900000D01*
X209300000Y-112600000D02*
X209600000Y-112900000D01*
X150837200Y-87397700D02*
X151610100Y-86624800D01*
X302715200Y-173710700D02*
X302831400Y-173594500D01*
X247300000Y-104600000D02*
X247300000Y-104175000D01*
X228600000Y-82900000D02*
X237388900Y-82900000D01*
X276954900Y-181192500D02*
X276954900Y-180109200D01*
X227937500Y-101175000D02*
X226674900Y-101175000D01*
X189274900Y-76900000D02*
X189274900Y-77663500D01*
X283718000Y-162842400D02*
X282256500Y-162842400D01*
X253000100Y-123175000D02*
X247300000Y-123175000D01*
X144561600Y-75190000D02*
X144849100Y-75190000D01*
X246049900Y-84349900D02*
X238838800Y-84349900D01*
X275139000Y-181236900D02*
X275139000Y-180458900D01*
X182090600Y-116598700D02*
X181958800Y-116466900D01*
X186994600Y-80087200D02*
X186922900Y-80015500D01*
X279350000Y-127950000D02*
X277450000Y-127950000D01*
X238476100Y-103349900D02*
X236730000Y-105096000D01*
X188987500Y-96850000D02*
X189937500Y-95900000D01*
X228300000Y-82600000D02*
X228600000Y-82900000D01*
X149862000Y-54870000D02*
X148543700Y-56188300D01*
X295032100Y-185491900D02*
X293713500Y-185491900D01*
X189937500Y-57900000D02*
X190300000Y-57537500D01*
X247300000Y-66750000D02*
X247220200Y-66750000D01*
X152300000Y-104175000D02*
X152300000Y-104600000D01*
X277824000Y-177174600D02*
X277936000Y-177062600D01*
X292084400Y-187451000D02*
X291166100Y-188369300D01*
X225849800Y-100349900D02*
X222070100Y-100349900D01*
X158153300Y-124014200D02*
X167765200Y-124014200D01*
X228600000Y-63475000D02*
X228300000Y-63175000D01*
X171600000Y-63475000D02*
X171300000Y-63175000D01*
X284973500Y-158022000D02*
X284973500Y-161586900D01*
X264800000Y-62100000D02*
X260200000Y-62100000D01*
X256100000Y-120075100D02*
X253000100Y-123175000D01*
X222196900Y-62349900D02*
X218909600Y-59062600D01*
X228300000Y-63175000D02*
X226674900Y-63175000D01*
X227489700Y-104855200D02*
X227248600Y-104855200D01*
X144417800Y-75190000D02*
X144561600Y-75190000D01*
X171300000Y-82600000D02*
X171300000Y-82175000D01*
X245944800Y-68025400D02*
X245944800Y-69561600D01*
X284973500Y-161586900D02*
X283718000Y-162842400D01*
X214275000Y-55900000D02*
X210925100Y-55900000D01*
X190600000Y-76900000D02*
X189274900Y-76900000D01*
X218926500Y-97206300D02*
X208562400Y-97206300D01*
X131252700Y-114895400D02*
X131395300Y-114895400D01*
X144274000Y-75190000D02*
X144417700Y-75190000D01*
X171268800Y-120900000D02*
X170937500Y-120900000D01*
X244849800Y-122349900D02*
X233349500Y-122349900D01*
X153926000Y-54870000D02*
X149862000Y-54870000D01*
X247300000Y-66175000D02*
X245674900Y-66175000D01*
X247450000Y-66750000D02*
X247300000Y-66750000D01*
X207160100Y-74175000D02*
X206319600Y-73334500D01*
X302831400Y-173594500D02*
X302831400Y-172934700D01*
X277824000Y-174476000D02*
X277711500Y-174363500D01*
X245336700Y-104175000D02*
X245674900Y-104175000D01*
X143263800Y-76487800D02*
X141076200Y-76487800D01*
X228600000Y-63900000D02*
X237303200Y-63900000D01*
X139899400Y-57328500D02*
X139899400Y-70137400D01*
X143929100Y-71380000D02*
X144274000Y-71724900D01*
X170937500Y-120900000D02*
X171300000Y-120537500D01*
X296567700Y-178985900D02*
X296567700Y-183956300D01*
X277824000Y-179240100D02*
X277824000Y-177174600D01*
X277711500Y-166744500D02*
X280835600Y-163620400D01*
X140347100Y-77216900D02*
X140347100Y-80728800D01*
X245674900Y-123175000D02*
X244849800Y-122349900D01*
X143454100Y-74226400D02*
X143454100Y-73469900D01*
X171268800Y-120900000D02*
X171600000Y-120900000D01*
X275139000Y-180458900D02*
X273323200Y-179725300D01*
X256627100Y-63200000D02*
X260200000Y-63200000D01*
X209220200Y-93750000D02*
X209300000Y-93750000D01*
X171600000Y-101475000D02*
X177176600Y-101475000D01*
X153925100Y-123900000D02*
X158039100Y-123900000D01*
X144561600Y-75190000D02*
X143263800Y-76487800D01*
X225849800Y-62349900D02*
X222196900Y-62349900D01*
X189937500Y-95900000D02*
X190300000Y-95537500D01*
X228300000Y-101175000D02*
X227937500Y-101175000D01*
X148543700Y-56188300D02*
X144326600Y-56188300D01*
X280835600Y-163620400D02*
X280924800Y-163620400D01*
X148313800Y-75190000D02*
X148338000Y-75190000D01*
X206319600Y-73334500D02*
X199249400Y-73334500D01*
X277936000Y-177062600D02*
X277936000Y-176461800D01*
X275550000Y-127950000D02*
X277450000Y-127950000D01*
X199249400Y-73334500D02*
X192496700Y-80087200D01*
X247600000Y-66900000D02*
X247450000Y-66750000D01*
X140347100Y-80728800D02*
X141301700Y-81683400D01*
X299721800Y-175831800D02*
X296567700Y-178985900D01*
X247300000Y-104175000D02*
X245674900Y-104175000D01*
X228600000Y-120900000D02*
X228600000Y-120475000D01*
X273323200Y-179990600D02*
X273003600Y-180310200D01*
X244511600Y-103349900D02*
X245336700Y-104175000D01*
X170274900Y-83613100D02*
X169106500Y-84781500D01*
X275145600Y-181243500D02*
X275139000Y-181236900D01*
X280924800Y-163620400D02*
X280924800Y-162564900D01*
X171600000Y-82900000D02*
X171300000Y-82600000D01*
X233349500Y-122349900D02*
X231899600Y-120900000D01*
X227248600Y-104855200D02*
X226959000Y-104565600D01*
X209600000Y-74475000D02*
X209300000Y-74175000D01*
X226959000Y-104565600D02*
X226959000Y-102215900D01*
X280648100Y-162288200D02*
X280648100Y-161377700D01*
X158039100Y-123900000D02*
X158039100Y-121467800D01*
X144274000Y-72650000D02*
X148338000Y-72650000D01*
X282263100Y-163627000D02*
X282256500Y-163620400D01*
X144274000Y-72650000D02*
X144274000Y-71724900D01*
X183385800Y-115303500D02*
X182090600Y-116598700D01*
X228600000Y-63900000D02*
X228600000Y-63475000D01*
X171300000Y-101175000D02*
X171600000Y-101475000D01*
X209300000Y-112175000D02*
X209300000Y-112600000D01*
X141142000Y-71380000D02*
X143929100Y-71380000D01*
X227937500Y-101900000D02*
X227274900Y-101900000D01*
X190300000Y-76600000D02*
X190300000Y-76175000D01*
X131395300Y-114895400D02*
X131674900Y-115175000D01*
X167765200Y-124014200D02*
X170274900Y-121504500D01*
X293713500Y-185491900D02*
X292084400Y-187121000D01*
X181958800Y-116466900D02*
X181585800Y-116466900D01*
X291595800Y-188799000D02*
X291595800Y-189195600D01*
X188674900Y-114175000D02*
X188427100Y-114422800D01*
X280924800Y-162564900D02*
X280648100Y-162288200D01*
X143944700Y-86570600D02*
X144771800Y-87397700D01*
X177789300Y-120900000D02*
X171600000Y-120900000D01*
X152300000Y-123175000D02*
X152300000Y-123600000D01*
X144417700Y-75190000D02*
X143454100Y-74226400D01*
X171600000Y-82900000D02*
X170274900Y-82900000D01*
X228600000Y-120475000D02*
X228300000Y-120175000D01*
%TO.N,RST*%
X149862000Y-57410000D02*
X153926000Y-57410000D01*
X148592000Y-58680000D02*
X149862000Y-57410000D01*
X144310600Y-58680000D02*
X148592000Y-58680000D01*
%TO.N,VCC*%
X128900000Y-112850000D02*
X131374100Y-112850000D01*
X299987800Y-168482100D02*
X299961200Y-168482100D01*
X166600000Y-79700000D02*
X166900000Y-80000000D01*
X154606700Y-99899600D02*
X164800300Y-99899600D01*
X231546200Y-119250100D02*
X226651100Y-119250100D01*
X271708400Y-176403500D02*
X271715000Y-176410100D01*
X275082900Y-120098200D02*
X274075600Y-121105500D01*
X224925100Y-98700000D02*
X225426400Y-98198700D01*
X190648200Y-110481100D02*
X203218800Y-110481100D01*
X190648200Y-110481100D02*
X190504200Y-110625100D01*
X185900000Y-74000000D02*
X185600000Y-73700000D01*
X206259700Y-90365400D02*
X207674900Y-90365400D01*
X223900000Y-61425000D02*
X225959400Y-61425000D01*
X289477400Y-178324400D02*
X287989600Y-179812200D01*
X278832500Y-159571600D02*
X278825900Y-159565000D01*
X171542300Y-116774900D02*
X171860800Y-116456400D01*
X175111600Y-78566900D02*
X179253500Y-74425000D01*
X287989600Y-182376600D02*
X288958200Y-183345200D01*
X221183700Y-60700000D02*
X223600000Y-60700000D01*
X288958200Y-183345200D02*
X288958200Y-183877400D01*
X301411100Y-169193800D02*
X301411200Y-169193700D01*
X128600000Y-112700000D02*
X128750000Y-112850000D01*
X179137800Y-55425000D02*
X185900000Y-55425000D01*
X174359900Y-97774900D02*
X170270100Y-97774900D01*
X166603100Y-61128100D02*
X166600000Y-61128100D01*
X168954000Y-59671100D02*
X174732800Y-59671100D01*
X237851800Y-101700000D02*
X242600000Y-101700000D01*
X242900000Y-121425000D02*
X244525100Y-121425000D01*
X274075600Y-121105500D02*
X274075600Y-126213200D01*
X161945900Y-83754000D02*
X165274900Y-80425000D01*
X234503200Y-78988700D02*
X230572100Y-78988700D01*
X226529900Y-97774900D02*
X233926700Y-97774900D01*
X299961200Y-168482100D02*
X299961200Y-169168500D01*
X232996100Y-120700000D02*
X231546200Y-119250100D01*
X147600000Y-101700000D02*
X147900000Y-102000000D01*
X224925100Y-79700000D02*
X225850300Y-78774800D01*
X150761000Y-100774900D02*
X153731400Y-100774900D01*
X273530800Y-177943800D02*
X273181700Y-178292900D01*
X280775100Y-115878300D02*
X276555200Y-120098200D01*
X273625500Y-126663300D02*
X273625500Y-129236600D01*
X230572100Y-78988700D02*
X230358200Y-78774800D01*
X271715000Y-176410100D02*
X271715000Y-177188100D01*
X226884200Y-62349800D02*
X226267700Y-61733300D01*
X148925100Y-101700000D02*
X149620600Y-101004500D01*
X264800000Y-55100000D02*
X260200000Y-55100000D01*
X244850200Y-100774900D02*
X249228300Y-100774900D01*
X185687500Y-93212500D02*
X185600000Y-93212500D01*
X187850200Y-53774900D02*
X203950100Y-53774900D01*
X300077400Y-168392500D02*
X299987800Y-168482100D01*
X166600000Y-61128100D02*
X166600000Y-60700000D01*
X242900000Y-64425000D02*
X244561700Y-64425000D01*
X226106100Y-98198700D02*
X226529900Y-97774900D01*
X278825900Y-159565000D02*
X278825900Y-158787000D01*
X166900000Y-80425000D02*
X165274900Y-80425000D01*
X167925100Y-117700000D02*
X168850200Y-116774900D01*
X290291700Y-184678700D02*
X288958100Y-183877500D01*
X182940700Y-112425000D02*
X185900000Y-112425000D01*
X254650200Y-100774900D02*
X256100000Y-99325100D01*
X223900000Y-118425000D02*
X225167000Y-118425000D01*
X242900000Y-83000000D02*
X242900000Y-83425000D01*
X223600000Y-98700000D02*
X224925100Y-98700000D01*
X148975000Y-60837000D02*
X145161000Y-60837000D01*
X167925100Y-79700000D02*
X168850200Y-78774900D01*
X225850300Y-78774800D02*
X229787900Y-78774800D01*
X223600000Y-98700000D02*
X223900000Y-99000000D01*
X185900000Y-74425000D02*
X185900000Y-74000000D01*
X242900000Y-121425000D02*
X242900000Y-121000000D01*
X275369300Y-152784200D02*
X275369300Y-155330400D01*
X204900000Y-72000000D02*
X204600000Y-71700000D01*
X204900000Y-110425000D02*
X203274900Y-110425000D01*
X278825900Y-158787000D02*
X277250800Y-158150600D01*
X192040000Y-101602900D02*
X195177800Y-101602900D01*
X149862000Y-59950000D02*
X153926000Y-59950000D01*
X238214500Y-82700000D02*
X234503200Y-78988700D01*
X186925100Y-73700000D02*
X187515700Y-73109400D01*
X166900000Y-118000000D02*
X166900000Y-118425000D01*
X242600000Y-101700000D02*
X243925100Y-101700000D01*
X225959400Y-61425000D02*
X226267700Y-61733300D01*
X290175500Y-185454700D02*
X290291700Y-185338500D01*
X223600000Y-79700000D02*
X223900000Y-80000000D01*
X225426400Y-98198700D02*
X226106100Y-98198700D01*
X243562500Y-82337500D02*
X242900000Y-83000000D01*
X151218900Y-83690100D02*
X161881900Y-83690100D01*
X275369300Y-155330400D02*
X277250800Y-157211900D01*
X244561700Y-64425000D02*
X245386900Y-65250200D01*
X242900000Y-102000000D02*
X242900000Y-102425000D01*
X242600000Y-82700000D02*
X242900000Y-83000000D01*
X277250800Y-157211900D02*
X277250800Y-158150600D01*
X161945900Y-83754000D02*
X165382200Y-87190400D01*
X185600000Y-111700000D02*
X186925100Y-111700000D01*
X164900000Y-118799900D02*
X165274900Y-118425000D01*
X149862000Y-59950000D02*
X148975000Y-60837000D01*
X206359700Y-71265400D02*
X205925100Y-71700000D01*
X185600000Y-92700000D02*
X185600000Y-93212500D01*
X147600000Y-120700000D02*
X148925100Y-120700000D01*
X153731400Y-100774900D02*
X154606700Y-99899600D01*
X223900000Y-118000000D02*
X223900000Y-118425000D01*
X277450000Y-107200000D02*
X280775100Y-107200000D01*
X147900000Y-102000000D02*
X147900000Y-102425000D01*
X242600000Y-63700000D02*
X241274900Y-63700000D01*
X223600000Y-79700000D02*
X224925100Y-79700000D01*
X167262600Y-98700000D02*
X169345000Y-98700000D01*
X167925100Y-60700000D02*
X168954000Y-59671100D01*
X186925100Y-54700000D02*
X187850200Y-53774900D01*
X166600000Y-61128100D02*
X154179000Y-61128100D01*
X274919200Y-130530300D02*
X274919200Y-152334100D01*
X273625500Y-129236600D02*
X274919200Y-130530300D01*
X273181700Y-178292900D02*
X273181700Y-178814600D01*
X230213200Y-62349800D02*
X226884200Y-62349800D01*
X149620600Y-101004500D02*
X150531400Y-101004500D01*
X166600000Y-98700000D02*
X166900000Y-99000000D01*
X204900000Y-72425000D02*
X204900000Y-72000000D01*
X242600000Y-82700000D02*
X238214500Y-82700000D01*
X175038100Y-59524700D02*
X179137800Y-55425000D01*
X178909300Y-116456400D02*
X182940700Y-112425000D01*
X241274900Y-63700000D02*
X241024700Y-63449800D01*
X168850200Y-116774900D02*
X171542300Y-116774900D01*
X185900000Y-55000000D02*
X185900000Y-55425000D01*
X280767600Y-160293000D02*
X280618200Y-160293000D01*
X242900000Y-64425000D02*
X242900000Y-64000000D01*
X242600000Y-101700000D02*
X242900000Y-102000000D01*
X273530800Y-177921700D02*
X273530800Y-177943800D01*
X214733900Y-54250200D02*
X221183700Y-60700000D01*
X274919200Y-152334100D02*
X275369300Y-152784200D01*
X280775100Y-107200000D02*
X280775100Y-115878300D01*
X166900000Y-99425000D02*
X165274900Y-99425000D01*
X230358200Y-78774800D02*
X229787900Y-78774800D01*
X150360000Y-84549000D02*
X151218900Y-83690100D01*
X147600000Y-120700000D02*
X147900000Y-121000000D01*
X274075600Y-126213200D02*
X273625500Y-126663300D01*
X205725200Y-54250200D02*
X207100000Y-54250200D01*
X205925100Y-90700000D02*
X206259700Y-90365400D01*
X128750000Y-112850000D02*
X128900000Y-112850000D01*
X231313200Y-63449800D02*
X230213200Y-62349800D01*
X275550000Y-107200000D02*
X277450000Y-107200000D01*
X223900000Y-61425000D02*
X223900000Y-61000000D01*
X206250200Y-109074800D02*
X207989800Y-109074800D01*
X271715000Y-177188100D02*
X273530800Y-177921700D01*
X300077400Y-168392500D02*
X301411100Y-169193800D01*
X166900000Y-80000000D02*
X166900000Y-80425000D01*
X242900000Y-64000000D02*
X242600000Y-63700000D01*
X166600000Y-79700000D02*
X167925100Y-79700000D01*
X152199200Y-118799900D02*
X164900000Y-118799900D01*
X301411200Y-169193700D02*
X304270800Y-169193700D01*
X185600000Y-73700000D02*
X186925100Y-73700000D01*
X290291700Y-185338500D02*
X290291700Y-184678700D01*
X276555200Y-120098200D02*
X275082900Y-120098200D01*
X204600000Y-52700000D02*
X204600000Y-53125000D01*
X233926700Y-97774900D02*
X237851800Y-101700000D01*
X166900000Y-99000000D02*
X166900000Y-99425000D01*
X166900000Y-61425000D02*
X166603100Y-61128100D01*
X204600000Y-71700000D02*
X205925100Y-71700000D01*
X128900000Y-112850000D02*
X128900000Y-113425000D01*
X178922300Y-93212500D02*
X174359900Y-97774900D01*
X168850200Y-78774900D02*
X172773600Y-78774900D01*
X223900000Y-80000000D02*
X223900000Y-80425000D01*
X203950100Y-53774900D02*
X204600000Y-53125000D01*
X154179000Y-61128100D02*
X153926000Y-60875100D01*
X304270800Y-169193700D02*
X305854600Y-170777500D01*
X166600000Y-60700000D02*
X167925100Y-60700000D01*
X185600000Y-54700000D02*
X185900000Y-55000000D01*
X258000000Y-98000000D02*
X256100000Y-98000000D01*
X185900000Y-112425000D02*
X185600000Y-112125000D01*
X174879200Y-59524700D02*
X175038100Y-59524700D01*
X166600000Y-117700000D02*
X166900000Y-118000000D01*
X150299100Y-120700000D02*
X152199200Y-118799900D01*
X249228300Y-100774900D02*
X254650200Y-100774900D01*
X204900000Y-91000000D02*
X204900000Y-91425000D01*
X171860800Y-116456400D02*
X178909300Y-116456400D01*
X204600000Y-53125000D02*
X204900000Y-53425000D01*
X204600000Y-90700000D02*
X205925100Y-90700000D01*
X223900000Y-61000000D02*
X223600000Y-60700000D01*
X172981600Y-78566900D02*
X175111600Y-78566900D01*
X204900000Y-53425000D02*
X205725200Y-54250200D01*
X203218800Y-110481100D02*
X203274900Y-110425000D01*
X226651100Y-119250100D02*
X225826000Y-118425000D01*
X245705600Y-82337500D02*
X243562500Y-82337500D01*
X287989600Y-179812200D02*
X287989600Y-182376600D01*
X153926000Y-59950000D02*
X153926000Y-60875100D01*
X185600000Y-54700000D02*
X186925100Y-54700000D01*
X305854600Y-170777500D02*
X305854600Y-172659400D01*
D46*
X293800000Y-107050000D02*
X311800000Y-107050000D01*
D45*
X242900000Y-121000000D02*
X242600000Y-120700000D01*
X289477400Y-167211900D02*
X289477400Y-178324400D01*
X204600000Y-90700000D02*
X204900000Y-91000000D01*
X166600000Y-117700000D02*
X167925100Y-117700000D01*
X147600000Y-101700000D02*
X148925100Y-101700000D01*
X223600000Y-117700000D02*
X223900000Y-118000000D01*
X164800300Y-99899600D02*
X165274900Y-99425000D01*
X207100000Y-54250200D02*
X214733900Y-54250200D01*
X185600000Y-112125000D02*
X185600000Y-111700000D01*
X166600000Y-98700000D02*
X167262600Y-98700000D01*
X178922300Y-92467700D02*
X178922300Y-93212500D01*
X170270100Y-97774900D02*
X169381100Y-98663900D01*
X148925100Y-120700000D02*
X150299100Y-120700000D01*
X241024700Y-63449800D02*
X231313200Y-63449800D01*
X288958200Y-183877400D02*
X288958100Y-183877500D01*
X165382200Y-87190400D02*
X173645000Y-87190400D01*
X172773600Y-78774900D02*
X172981600Y-78566900D01*
X147900000Y-121000000D02*
X147900000Y-121425000D01*
X188000000Y-110625100D02*
X186925100Y-111700000D01*
X204900000Y-110425000D02*
X206250200Y-109074800D01*
X245386900Y-65250200D02*
X249678100Y-65250200D01*
X174732800Y-59671100D02*
X174879200Y-59524700D01*
X203274900Y-109700000D02*
X203274900Y-110425000D01*
X225167000Y-118425000D02*
X225826000Y-118425000D01*
X173645000Y-87190400D02*
X178922300Y-92467700D01*
X256100000Y-98000000D02*
X256100000Y-99325100D01*
X195177800Y-101602900D02*
X203274900Y-109700000D01*
X161881900Y-83690100D02*
X161945900Y-83754000D01*
X190504200Y-110625100D02*
X188000000Y-110625100D01*
X244525100Y-121425000D02*
X245392700Y-121425000D01*
X185900000Y-93425000D02*
X185687500Y-93212500D01*
X185600000Y-93212500D02*
X178922300Y-93212500D01*
X150531400Y-101004500D02*
X150761000Y-100774900D01*
X242600000Y-120700000D02*
X232996100Y-120700000D01*
X204600000Y-109700000D02*
X203274900Y-109700000D01*
X166900000Y-118425000D02*
X165274900Y-118425000D01*
X223900000Y-99000000D02*
X223900000Y-99425000D01*
X280886200Y-160366800D02*
X280841400Y-160366800D01*
X278832500Y-159571600D02*
X280618200Y-160293000D01*
X280841400Y-160366800D02*
X280767600Y-160293000D01*
X169345000Y-98700000D02*
X169381100Y-98663900D01*
X229787900Y-77580100D02*
X229787900Y-78774800D01*
X187515700Y-73109400D02*
X188999200Y-73109400D01*
X299961200Y-168482100D02*
X297986800Y-168482100D01*
X243925100Y-101700000D02*
X244850200Y-100774900D01*
X179253500Y-74425000D02*
X185900000Y-74425000D01*
X207477000Y-71265400D02*
X206359700Y-71265400D01*
%TO.N,P21*%
X210349800Y-42348500D02*
X212021100Y-44019800D01*
X180637600Y-44148700D02*
X181274100Y-44148700D01*
X212021100Y-44019800D02*
X214508800Y-44019800D01*
X220258000Y-109220000D02*
X220258000Y-107644900D01*
X220258000Y-72795100D02*
X219791400Y-73261700D01*
X223203400Y-68794200D02*
X232392000Y-68794200D01*
X181274100Y-44148700D02*
X181901000Y-43521800D01*
X220555800Y-107347100D02*
X231644200Y-107347100D01*
X220258000Y-52220000D02*
X220258000Y-50644900D01*
X152585100Y-61724200D02*
X150530000Y-61724200D01*
X181901000Y-43521800D02*
X187621300Y-43521800D01*
X172566200Y-49292000D02*
X175494300Y-49292000D01*
X220258000Y-50644900D02*
X220696000Y-50206900D01*
X220258000Y-90220000D02*
X220258000Y-88644900D01*
X220258000Y-71220000D02*
X220258000Y-71739600D01*
X220258000Y-71739600D02*
X220258000Y-72795100D01*
X220258000Y-71739600D02*
X223203400Y-68794200D01*
X153926000Y-62490000D02*
X153350900Y-62490000D01*
X153350900Y-62490000D02*
X152585100Y-61724200D01*
X149862000Y-62490000D02*
X153350900Y-62490000D01*
X219791400Y-73261700D02*
X219791400Y-78578900D01*
X187621300Y-43521800D02*
X188794600Y-42348500D01*
X175494300Y-49292000D02*
X180637600Y-44148700D01*
X214508800Y-44019800D02*
X220696000Y-50206900D01*
X188794600Y-42348500D02*
X210349800Y-42348500D01*
X220258000Y-88644900D02*
X220691500Y-88211400D01*
X221659500Y-49243400D02*
X231095200Y-49243400D01*
X219791400Y-78578900D02*
X222462700Y-81250200D01*
X220696000Y-50206900D02*
X221659500Y-49243400D01*
X230383400Y-81250200D02*
X231192100Y-82058900D01*
X222462700Y-81250200D02*
X230383400Y-81250200D01*
X220691500Y-88211400D02*
X230875600Y-88211400D01*
X220258000Y-107644900D02*
X220555800Y-107347100D01*
%TO.N,P20*%
X246566200Y-53317500D02*
X239585400Y-53317500D01*
X239258000Y-91644900D02*
X240754500Y-90148400D01*
X239258000Y-55220000D02*
X239258000Y-53644900D01*
X149862000Y-65030000D02*
X153926000Y-65030000D01*
X181804400Y-41881400D02*
X214612000Y-41881400D01*
X239258000Y-112220000D02*
X239258000Y-110644900D01*
X239258000Y-110644900D02*
X240315100Y-109587800D01*
X148640200Y-63808200D02*
X141098600Y-63808200D01*
X149862000Y-65030000D02*
X148640200Y-63808200D01*
X250935700Y-72255500D02*
X239647400Y-72255500D01*
X168437100Y-52355500D02*
X174594700Y-46197900D01*
X239258000Y-74220000D02*
X239258000Y-72644900D01*
X141175700Y-66375000D02*
X142567700Y-66375000D01*
X240315100Y-109587800D02*
X250896400Y-109587800D01*
X239647400Y-72255500D02*
X239258000Y-72644900D01*
X141098600Y-63808200D02*
X140354800Y-64552000D01*
X154126100Y-63904800D02*
X159090000Y-63904800D01*
X239258000Y-93220000D02*
X239258000Y-91644900D01*
X153926000Y-64104900D02*
X154126100Y-63904800D01*
X153926000Y-65030000D02*
X153926000Y-64104900D01*
X140354800Y-64552000D02*
X140354800Y-65554100D01*
X140354800Y-65554100D02*
X141175700Y-66375000D01*
X177487900Y-46197900D02*
X181804400Y-41881400D01*
X221086000Y-48355400D02*
X233968500Y-48355400D01*
X233968500Y-48355400D02*
X239258000Y-53644900D01*
X168437100Y-53321000D02*
X168437100Y-52355500D01*
X240754500Y-90148400D02*
X251336100Y-90148400D01*
X239585400Y-53317500D02*
X239258000Y-53644900D01*
X174594700Y-46197900D02*
X177487900Y-46197900D01*
X214612000Y-41881400D02*
X221086000Y-48355400D01*
%TO.N,P19*%
X239567800Y-89588600D02*
X237465400Y-87486200D01*
X269520700Y-181020100D02*
X269520700Y-181020200D01*
X180285600Y-78951700D02*
X180236000Y-78951700D01*
X256000100Y-89325000D02*
X251133800Y-89325000D01*
X287136800Y-188970000D02*
X286839500Y-188672700D01*
X220445200Y-87486200D02*
X213310800Y-80351800D01*
X291938000Y-154639100D02*
X281559800Y-144260900D01*
X195008000Y-80351800D02*
X193657100Y-81702700D01*
X159204500Y-66426100D02*
X160522000Y-67743600D01*
X286542200Y-174770000D02*
X286542200Y-188375500D01*
X256100000Y-89424900D02*
X256000100Y-89325000D01*
X160522000Y-67743600D02*
X165845300Y-67743600D01*
X268962100Y-181020200D02*
X268583200Y-180641300D01*
X193657100Y-81702700D02*
X185092300Y-81702700D01*
X148592000Y-66300000D02*
X144310600Y-66300000D01*
X281559800Y-144260900D02*
X281559800Y-103484900D01*
X288393700Y-189488000D02*
X287531500Y-188970000D01*
X250870200Y-89588600D02*
X239567800Y-89588600D01*
X153926000Y-66644900D02*
X154144800Y-66426100D01*
X153926000Y-67570000D02*
X153926000Y-66644900D01*
X279350000Y-99950000D02*
X279350000Y-101275100D01*
X259900000Y-90750000D02*
X258000000Y-90750000D01*
X275550000Y-99950000D02*
X277450000Y-99950000D01*
X279350000Y-99950000D02*
X277450000Y-99950000D01*
X154144800Y-66426100D02*
X159204500Y-66426100D01*
X281145500Y-169373300D02*
X286542200Y-174770000D01*
X270585900Y-181450500D02*
X269520700Y-181020100D01*
X258000000Y-90750000D02*
X256100000Y-90750000D01*
X256100000Y-90750000D02*
X256100000Y-89424900D01*
X237465400Y-87486200D02*
X220445200Y-87486200D01*
X280139300Y-168367100D02*
X278460700Y-168367100D01*
X149862000Y-67570000D02*
X148592000Y-66300000D01*
X269520700Y-181020200D02*
X268962100Y-181020200D01*
X286839500Y-188672700D02*
X286839400Y-188672700D01*
X291938000Y-158580800D02*
X291938000Y-154639100D01*
X213310800Y-80351800D02*
X195008000Y-80351800D01*
X286839400Y-188672700D02*
X286542200Y-188375500D01*
X281145500Y-169373300D02*
X291938000Y-158580800D01*
X281559800Y-103484900D02*
X279350000Y-101275100D01*
X184642200Y-81252600D02*
X182586500Y-81252600D01*
D46*
X293800000Y-99800000D02*
X311800000Y-99800000D01*
D45*
X149862000Y-67570000D02*
X153926000Y-67570000D01*
X251133800Y-89325000D02*
X250870200Y-89588600D01*
X281145500Y-169373300D02*
X280139300Y-168367100D01*
X182586500Y-81252600D02*
X180285600Y-78951700D01*
X185092300Y-81702700D02*
X184642200Y-81252600D01*
X287531500Y-188970000D02*
X287136800Y-188970000D01*
%TO.N,P18*%
X149084000Y-70888000D02*
X145149000Y-70888000D01*
X258000000Y-83250000D02*
X256100000Y-83250000D01*
X275550000Y-93775100D02*
X274063800Y-95261300D01*
X149862000Y-70110000D02*
X149084000Y-70888000D01*
X276079700Y-163403800D02*
X275700800Y-163024900D01*
X274120300Y-161444400D02*
X274120300Y-162386400D01*
X298179400Y-173201900D02*
X297317200Y-172683900D01*
X277703500Y-163834100D02*
X276638300Y-163403700D01*
X296922400Y-172683900D02*
X296327900Y-172089400D01*
X276638300Y-163403700D02*
X276638300Y-163403800D01*
X273613800Y-130498100D02*
X273613800Y-160937900D01*
X273175400Y-125840200D02*
X272725300Y-126290300D01*
X273613800Y-119286800D02*
X273175400Y-119725200D01*
D46*
X293550000Y-92300000D02*
X311550000Y-92300000D01*
D45*
X273613800Y-160937900D02*
X274120300Y-161444400D01*
X275550000Y-92450000D02*
X277450000Y-92450000D01*
X274063800Y-96918400D02*
X273613800Y-97368400D01*
X149862000Y-70110000D02*
X153926000Y-70110000D01*
X272725300Y-129609600D02*
X273613800Y-130498100D01*
X272725300Y-126290300D02*
X272725300Y-129609600D01*
X276638300Y-163403800D02*
X276079700Y-163403800D01*
X275550000Y-92450000D02*
X275550000Y-93775100D01*
X273175400Y-119725200D02*
X273175400Y-125840200D01*
X273613800Y-97368400D02*
X273613800Y-119286800D01*
X297317200Y-172683900D02*
X296922400Y-172683900D01*
X259900000Y-83250000D02*
X258000000Y-83250000D01*
X274063800Y-95261300D02*
X274063800Y-96918400D01*
X275700800Y-163024900D02*
X274120300Y-162386400D01*
X279350000Y-92450000D02*
X277450000Y-92450000D01*
%TO.N,P15*%
X241290000Y-125800000D02*
X228225100Y-125800000D01*
X203290000Y-114800000D02*
X205450000Y-114800000D01*
X138225100Y-125800000D02*
X146290000Y-125800000D01*
X186450000Y-116800000D02*
X184290000Y-116800000D01*
X153926000Y-72650000D02*
X149862000Y-72650000D01*
X202683000Y-114800000D02*
X203290000Y-114800000D01*
X188998900Y-118573800D02*
X198302100Y-118573800D01*
X210075900Y-122800000D02*
X222290000Y-122800000D01*
X243450000Y-125800000D02*
X241290000Y-125800000D01*
X183075900Y-116800000D02*
X180901700Y-118974200D01*
X186450000Y-116800000D02*
X187225100Y-116800000D01*
X228225100Y-125800000D02*
X225225100Y-122800000D01*
X187225100Y-116800000D02*
X188998900Y-118573800D01*
X198302100Y-118573800D02*
X202075900Y-114800000D01*
X202683000Y-114800000D02*
X202075900Y-114800000D01*
X129450000Y-117800000D02*
X130225100Y-117800000D01*
X165290000Y-122800000D02*
X167450000Y-122800000D01*
X127290000Y-117800000D02*
X129450000Y-117800000D01*
X148592000Y-73920000D02*
X144185600Y-73920000D01*
X202075900Y-114800000D02*
X210075900Y-122800000D01*
X180901700Y-118974200D02*
X180417100Y-118974200D01*
X184290000Y-116800000D02*
X183075900Y-116800000D01*
X130225100Y-117800000D02*
X138225100Y-125800000D01*
X149862000Y-72650000D02*
X148592000Y-73920000D01*
X146290000Y-125800000D02*
X148450000Y-125800000D01*
X224837600Y-122800000D02*
X225225100Y-122800000D01*
X224837600Y-122800000D02*
X224450000Y-122800000D01*
X224450000Y-122800000D02*
X222290000Y-122800000D01*
%TO.N,P14*%
X165556500Y-62250200D02*
X164683000Y-63123700D01*
X214193200Y-59633900D02*
X208059000Y-59633900D01*
X225225100Y-65800000D02*
X226977100Y-67552000D01*
X186450000Y-59800000D02*
X184290000Y-59800000D01*
X203290000Y-57800000D02*
X202075900Y-57800000D01*
X186450000Y-59800000D02*
X187225100Y-59800000D01*
X205450000Y-57800000D02*
X203290000Y-57800000D01*
X165290000Y-65800000D02*
X164683000Y-65800000D01*
X167450000Y-65800000D02*
X165290000Y-65800000D01*
X222290000Y-65800000D02*
X220359300Y-65800000D01*
X198316700Y-61559200D02*
X188984300Y-61559200D01*
X208059000Y-59633900D02*
X206225100Y-57800000D01*
X224450000Y-65800000D02*
X225225100Y-65800000D01*
X202075900Y-57800000D02*
X198316700Y-61559200D01*
X160594600Y-71405600D02*
X158134000Y-73866200D01*
X222290000Y-65800000D02*
X224450000Y-65800000D01*
X158134000Y-73866200D02*
X154674700Y-73866200D01*
X183075900Y-59800000D02*
X180625700Y-62250200D01*
X226977100Y-67552000D02*
X238827900Y-67552000D01*
X152304300Y-74143400D02*
X153350900Y-75190000D01*
X164683000Y-63123700D02*
X164683000Y-65800000D01*
X241290000Y-68800000D02*
X240075900Y-68800000D01*
X154674700Y-73866200D02*
X153350900Y-75190000D01*
X241290000Y-68800000D02*
X243450000Y-68800000D01*
X180625700Y-62250200D02*
X165556500Y-62250200D01*
X149862000Y-75190000D02*
X153350900Y-75190000D01*
X184290000Y-59800000D02*
X183075900Y-59800000D01*
X188984300Y-61559200D02*
X187225100Y-59800000D01*
X205450000Y-57800000D02*
X206225100Y-57800000D01*
X149859700Y-74143400D02*
X152304300Y-74143400D01*
X153926000Y-75190000D02*
X153350900Y-75190000D01*
X220359300Y-65800000D02*
X214193200Y-59633900D01*
X238827900Y-67552000D02*
X240075900Y-68800000D01*
%TO.N,P16*%
X161339300Y-72201200D02*
X157134300Y-76406200D01*
X301580300Y-159402400D02*
X300563600Y-161094600D01*
X237070800Y-71530400D02*
X233594200Y-68053800D01*
X202517300Y-69478700D02*
X199972900Y-69478700D01*
X221256500Y-68053800D02*
X214822700Y-61620000D01*
X292811200Y-161094600D02*
X292811200Y-172313000D01*
X292811200Y-154699700D02*
X282234900Y-144123400D01*
X233594200Y-68053800D02*
X221256500Y-68053800D01*
X253455500Y-71530400D02*
X237070800Y-71530400D01*
X153926000Y-77730000D02*
X153350900Y-77730000D01*
X193112600Y-62618400D02*
X181536600Y-62618400D01*
X150597800Y-76994200D02*
X150597800Y-77362100D01*
X256100000Y-75500000D02*
X256100000Y-74174900D01*
X256100000Y-74174900D02*
X253455500Y-71530400D01*
X154674700Y-76406200D02*
X153350900Y-77730000D01*
X162781700Y-68704000D02*
X161339300Y-70146400D01*
X292811200Y-161094600D02*
X292811200Y-154699700D01*
X211014800Y-61394800D02*
X208876500Y-61394800D01*
X175451000Y-68704000D02*
X162781700Y-68704000D01*
X150597800Y-77362100D02*
X152983000Y-77362100D01*
X157134300Y-76406200D02*
X154674700Y-76406200D01*
X256100000Y-75500000D02*
X258000000Y-75500000D01*
X150229900Y-77362100D02*
X150597800Y-77362100D01*
X208876500Y-61394800D02*
X206509900Y-63761400D01*
X181536600Y-62618400D02*
X175451000Y-68704000D01*
X259900000Y-75500000D02*
X258000000Y-75500000D01*
X279350000Y-84700000D02*
X277450000Y-84700000D01*
X161339300Y-70146400D02*
X161339300Y-72201200D01*
X206509900Y-63761400D02*
X206509900Y-65486100D01*
X149862000Y-77730000D02*
X150229900Y-77362100D01*
X275550000Y-84700000D02*
X277450000Y-84700000D01*
X199972900Y-69478700D02*
X193112600Y-62618400D01*
X152983000Y-77362100D02*
X153350900Y-77730000D01*
X211240000Y-61620000D02*
X211014800Y-61394800D01*
X282234900Y-144123400D02*
X282234900Y-88910000D01*
X279350000Y-84700000D02*
X279350000Y-86025100D01*
D46*
X293800000Y-84550000D02*
X311800000Y-84550000D01*
D45*
X291794600Y-175688600D02*
X292811200Y-173996400D01*
X292811200Y-172313000D02*
X292811200Y-173996400D01*
X292811200Y-161094600D02*
X300563600Y-161094600D01*
X282234900Y-88910000D02*
X279350000Y-86025100D01*
X214822700Y-61620000D02*
X211240000Y-61620000D01*
X206509900Y-65486100D02*
X202517300Y-69478700D01*
%TO.N,P10*%
X221268200Y-87036000D02*
X214133800Y-79901600D01*
X183112200Y-80802400D02*
X180536400Y-78226600D01*
X284038500Y-150351100D02*
X284038500Y-152854400D01*
X239847100Y-89138400D02*
X237744700Y-87036000D01*
X179935700Y-78226600D02*
X179510900Y-78651400D01*
X194596700Y-79901600D02*
X193245700Y-81252600D01*
X179510900Y-79325100D02*
X181504800Y-81319000D01*
X259900000Y-70325100D02*
X261325200Y-71750300D01*
X153926000Y-80270000D02*
X153350900Y-80270000D01*
X259900000Y-69000000D02*
X258000000Y-69000000D01*
X193245700Y-81252600D02*
X185504000Y-81252600D01*
X261325200Y-71750300D02*
X261325200Y-76634500D01*
X271786400Y-167289100D02*
X272618600Y-165229300D01*
X275550000Y-78200000D02*
X275550000Y-79525100D01*
X282729200Y-149041800D02*
X284038500Y-150351100D01*
X272275200Y-164454700D02*
X272834200Y-165013700D01*
X161888700Y-81920500D02*
X154651400Y-81920500D01*
X258396300Y-78335200D02*
X253941800Y-82789700D01*
X149862000Y-80270000D02*
X147803400Y-82328600D01*
X179510900Y-78651400D02*
X179510900Y-79325100D01*
X214133800Y-79901600D02*
X194596700Y-79901600D01*
X185504000Y-81252600D02*
X185053800Y-80802400D01*
X180536400Y-78226600D02*
X179935700Y-78226600D01*
X154651400Y-81920500D02*
X153926000Y-81195100D01*
X237744700Y-87036000D02*
X221268200Y-87036000D01*
X258000000Y-69000000D02*
X256100000Y-69000000D01*
X253941800Y-82789700D02*
X253941800Y-84595400D01*
D46*
X293800000Y-78050000D02*
X311800000Y-78050000D01*
D45*
X272834200Y-165013700D02*
X272618600Y-165229300D01*
X278903900Y-149672600D02*
X279534700Y-149041800D01*
X149862000Y-80270000D02*
X153350900Y-80270000D01*
X147803400Y-82328600D02*
X146907700Y-82328600D01*
X249398800Y-89138400D02*
X239847100Y-89138400D01*
X259624500Y-78335200D02*
X258396300Y-78335200D01*
X185053800Y-80802400D02*
X183112200Y-80802400D01*
X253941800Y-84595400D02*
X249398800Y-89138400D01*
X153926000Y-80270000D02*
X153926000Y-81195100D01*
X279534700Y-149041800D02*
X282729200Y-149041800D01*
X275550000Y-79525100D02*
X272275200Y-82799900D01*
X272275200Y-82799900D02*
X272275200Y-164454700D01*
X261325200Y-76634500D02*
X259624500Y-78335200D01*
X279350000Y-78200000D02*
X277450000Y-78200000D01*
X277450000Y-78200000D02*
X275550000Y-78200000D01*
X259900000Y-69000000D02*
X259900000Y-70325100D01*
%TO.N,P1*%
X247600000Y-63700000D02*
X247300000Y-64000000D01*
X245349800Y-62774900D02*
X231275000Y-62774900D01*
X190300000Y-93425000D02*
X188674900Y-93425000D01*
X245726400Y-76600000D02*
X247600000Y-78473600D01*
X188297500Y-93802400D02*
X187863900Y-93802400D01*
X228300000Y-61062500D02*
X228300000Y-61425000D01*
X275550000Y-125375500D02*
X274075600Y-126849900D01*
X207674900Y-72425000D02*
X207250100Y-72849800D01*
X274075600Y-129050100D02*
X275903700Y-130878200D01*
X176589100Y-79700000D02*
X181039000Y-75250100D01*
X172925100Y-80940700D02*
X172925100Y-80425000D01*
X190300000Y-112425000D02*
X188674900Y-112425000D01*
X174708000Y-98700000D02*
X179157900Y-94250100D01*
X171300000Y-99000000D02*
X171600000Y-98700000D01*
X152300000Y-121425000D02*
X152300000Y-121000000D01*
X206801400Y-52857400D02*
X207107300Y-52857400D01*
X207250100Y-72849800D02*
X206860500Y-72849800D01*
X246274900Y-63700000D02*
X245349800Y-62774900D01*
X208487500Y-53425000D02*
X207674900Y-53425000D01*
X171600000Y-79700000D02*
X176589100Y-79700000D01*
X228600000Y-98700000D02*
X228300000Y-99000000D01*
X179157900Y-94250100D02*
X187416200Y-94250100D01*
X181212800Y-115566700D02*
X179187200Y-117592300D01*
X190300000Y-55425000D02*
X190300000Y-55000000D01*
X190600000Y-111700000D02*
X191925100Y-111700000D01*
X239271800Y-119774900D02*
X237921900Y-118425000D01*
X304199700Y-170967700D02*
X304363300Y-170967700D01*
X209300000Y-72425000D02*
X210925100Y-72425000D01*
X209600000Y-71700000D02*
X209300000Y-72000000D01*
X228300000Y-61425000D02*
X229925100Y-61425000D01*
X227937500Y-60700000D02*
X225900000Y-60700000D01*
X187763700Y-56250100D02*
X180016500Y-56250100D01*
X171600000Y-118125000D02*
X171300000Y-118425000D01*
X295911300Y-188055100D02*
X296068900Y-187897500D01*
X147033800Y-80270000D02*
X147033800Y-80997800D01*
X171600000Y-60700000D02*
X172925100Y-60700000D01*
X284970600Y-181912800D02*
X284970600Y-177290900D01*
X187391300Y-113250100D02*
X183777300Y-113250100D01*
X155375000Y-119250100D02*
X168849800Y-119250100D01*
X275794600Y-178826200D02*
X275574500Y-178826200D01*
X144274000Y-80270000D02*
X147033800Y-80270000D01*
X190300000Y-55000000D02*
X190600000Y-54700000D01*
X228600000Y-117700000D02*
X228300000Y-118000000D01*
X171600000Y-117700000D02*
X171600000Y-118125000D01*
X152300000Y-121000000D02*
X152600000Y-120700000D01*
X282912100Y-161219800D02*
X283461800Y-160670100D01*
X256100000Y-113000000D02*
X256100000Y-114325100D01*
X181460700Y-115566700D02*
X181212800Y-115566700D01*
X275794600Y-178836300D02*
X275794600Y-178826200D01*
X169240700Y-99425000D02*
X171300000Y-99425000D01*
X173834800Y-117592300D02*
X173727100Y-117700000D01*
X209300000Y-53425000D02*
X209600000Y-53125000D01*
X209600000Y-53125000D02*
X209600000Y-52700000D01*
X247600000Y-82700000D02*
X247300000Y-83000000D01*
X149813200Y-122250200D02*
X137286600Y-122250200D01*
X279350000Y-122200000D02*
X277450000Y-122200000D01*
X150641700Y-102425000D02*
X152300000Y-102425000D01*
X225900000Y-60700000D02*
X225849900Y-60649900D01*
X180016500Y-56250100D02*
X176016700Y-60249900D01*
X303732700Y-171434700D02*
X304199700Y-170967700D01*
X277210900Y-176762200D02*
X276344300Y-177628800D01*
X209300000Y-53425000D02*
X214545400Y-53425000D01*
X188674900Y-93425000D02*
X188297500Y-93802400D01*
X207191800Y-110657000D02*
X206598700Y-111250100D01*
X131361500Y-113872700D02*
X132852300Y-113872700D01*
X208487500Y-53425000D02*
X209300000Y-53425000D01*
X187847500Y-56166300D02*
X187933600Y-56166300D01*
X190300000Y-93000000D02*
X190300000Y-93425000D01*
X133300000Y-113425000D02*
X133600000Y-113125000D01*
X206598700Y-111250100D02*
X192375000Y-111250100D01*
X183777300Y-113250100D02*
X181460700Y-115566700D01*
X190600000Y-92700000D02*
X190300000Y-93000000D01*
X295913100Y-186866600D02*
X295913100Y-185830500D01*
X282912100Y-161219800D02*
X280931200Y-159238900D01*
X190600000Y-92700000D02*
X189274900Y-92700000D01*
X280769300Y-159238900D02*
X280769300Y-159238800D01*
X209300000Y-91212500D02*
X206928800Y-91212500D01*
X275574500Y-178826200D02*
X273575500Y-176827200D01*
X187849800Y-75250100D02*
X188674900Y-74425000D01*
X228300000Y-80425000D02*
X226674900Y-80425000D01*
X275903700Y-130878200D02*
X275903700Y-154602100D01*
X172112600Y-80425000D02*
X171300000Y-80425000D01*
X247600000Y-63700000D02*
X246274900Y-63700000D01*
X209300000Y-91000000D02*
X209300000Y-91212500D01*
X155275300Y-100349800D02*
X168315900Y-100349800D01*
X247300000Y-121425000D02*
X247600000Y-121125000D01*
X171600000Y-98700000D02*
X174708000Y-98700000D01*
X283461800Y-160670100D02*
X283461800Y-160660000D01*
X209300000Y-72000000D02*
X209300000Y-72425000D01*
X244856400Y-102669300D02*
X245430600Y-102669300D01*
X223752400Y-58552400D02*
X225849900Y-60649900D01*
X209600000Y-90700000D02*
X209300000Y-91000000D01*
X245430600Y-102669300D02*
X245674900Y-102425000D01*
X190600000Y-111700000D02*
X190300000Y-112000000D01*
X152600000Y-120700000D02*
X153925100Y-120700000D01*
X171300000Y-61000000D02*
X171600000Y-60700000D01*
X187847500Y-56166300D02*
X187763700Y-56250100D01*
X190300000Y-74425000D02*
X188674900Y-74425000D01*
X228600000Y-80125000D02*
X228600000Y-79700000D01*
X133600000Y-113125000D02*
X133600000Y-112700000D01*
X150638400Y-121425000D02*
X149813200Y-122250200D01*
X153925100Y-101700000D02*
X155275300Y-100349800D01*
X247600000Y-121125000D02*
X247600000Y-120700000D01*
X294577600Y-187253900D02*
X295911300Y-188055100D01*
X228300000Y-99212500D02*
X228300000Y-99425000D01*
X168849800Y-119250100D02*
X169674900Y-118425000D01*
X247300000Y-102425000D02*
X245674900Y-102425000D01*
X247300000Y-83000000D02*
X247300000Y-83425000D01*
X176016700Y-60249900D02*
X173375200Y-60249900D01*
X190300000Y-55425000D02*
X188674900Y-55425000D01*
X245236900Y-76600000D02*
X245726400Y-76600000D01*
X247600000Y-78473600D02*
X247600000Y-82700000D01*
X213790600Y-72507100D02*
X211007200Y-72507100D01*
X152600000Y-101700000D02*
X153925100Y-101700000D01*
X209300000Y-110000000D02*
X209300000Y-110425000D01*
X170883200Y-118425000D02*
X169674900Y-118425000D01*
X188349800Y-91774900D02*
X183759300Y-91774900D01*
X187416200Y-94250100D02*
X187863900Y-93802400D01*
X293947000Y-187720900D02*
X294110600Y-187720900D01*
X173375200Y-60249900D02*
X172925100Y-60700000D01*
X173727100Y-117700000D02*
X171600000Y-117700000D01*
X246274900Y-120700000D02*
X245349800Y-119774900D01*
X303732700Y-171434700D02*
X302163200Y-170491700D01*
X275794600Y-178826200D02*
X276344300Y-178276500D01*
X192375000Y-111250100D02*
X191925100Y-111700000D01*
X189274900Y-92700000D02*
X188349800Y-91774900D01*
X190300000Y-74000000D02*
X190600000Y-73700000D01*
X149916400Y-103150300D02*
X150641700Y-102425000D01*
X274075600Y-126849900D02*
X274075600Y-129050100D01*
X137286600Y-122250200D02*
X136651200Y-121614800D01*
X168890800Y-99774900D02*
X169240700Y-99425000D01*
X153925100Y-120700000D02*
X155375000Y-119250100D01*
X249725100Y-120700000D02*
X247600000Y-120700000D01*
X169267900Y-80425000D02*
X168941300Y-80751600D01*
X296068900Y-187022400D02*
X295913100Y-186866600D01*
X152300000Y-102000000D02*
X152600000Y-101700000D01*
X179187200Y-117592300D02*
X173834800Y-117592300D01*
X188297400Y-112802500D02*
X187838900Y-112802500D01*
X256100000Y-114325100D02*
X249725100Y-120700000D01*
X228300000Y-99000000D02*
X228300000Y-99212500D01*
X190300000Y-112000000D02*
X190300000Y-112425000D01*
X152300000Y-102425000D02*
X152300000Y-102000000D01*
X171300000Y-80425000D02*
X169267900Y-80425000D01*
X147033800Y-80270000D02*
X148338000Y-80270000D01*
X228300000Y-80425000D02*
X228600000Y-80125000D01*
X247300000Y-64000000D02*
X247300000Y-64425000D01*
X132852300Y-113872700D02*
X133300000Y-113425000D01*
X226601500Y-80351600D02*
X226674900Y-80425000D01*
X211007200Y-72507100D02*
X210925100Y-72425000D01*
X278598500Y-157296900D02*
X279160300Y-157296900D01*
X227937500Y-60700000D02*
X228300000Y-61062500D01*
X207107300Y-52857400D02*
X207674900Y-53425000D01*
X302163200Y-170491700D02*
X301757400Y-170897500D01*
X207442900Y-110657000D02*
X207674900Y-110425000D01*
X280931200Y-159238900D02*
X280769300Y-159238900D01*
X190300000Y-74425000D02*
X190300000Y-74000000D01*
X227274900Y-117700000D02*
X226987300Y-117412400D01*
D46*
X293800000Y-122050000D02*
X311800000Y-122050000D01*
D45*
X228600000Y-60700000D02*
X227937500Y-60700000D01*
X188674900Y-112425000D02*
X188297400Y-112802500D01*
X181039000Y-75250100D02*
X187849800Y-75250100D01*
X171300000Y-99425000D02*
X171300000Y-99000000D01*
X280769300Y-158905900D02*
X280769300Y-159238800D01*
X237921900Y-118425000D02*
X228300000Y-118425000D01*
X258000000Y-113000000D02*
X259900000Y-113000000D01*
X228600000Y-117700000D02*
X227274900Y-117700000D01*
X228300000Y-118000000D02*
X228300000Y-118425000D01*
X187933600Y-56166300D02*
X188674900Y-55425000D01*
X209600000Y-109700000D02*
X209300000Y-110000000D01*
X231275000Y-62774900D02*
X229925100Y-61425000D01*
X275550000Y-122200000D02*
X275550000Y-125375500D01*
X256100000Y-113000000D02*
X258000000Y-113000000D01*
X245349800Y-119774900D02*
X239271800Y-119774900D01*
X170883200Y-118425000D02*
X171300000Y-118425000D01*
X209300000Y-91212500D02*
X209300000Y-91425000D01*
X214545400Y-53425000D02*
X219672800Y-58552400D01*
X228300000Y-99212500D02*
X225942400Y-99212500D01*
X226987300Y-117412400D02*
X225554000Y-117412400D01*
X294110600Y-187720900D02*
X294577600Y-187253900D01*
X152300000Y-121425000D02*
X150638400Y-121425000D01*
X172112600Y-80425000D02*
X172925100Y-80425000D01*
X226325100Y-80351600D02*
X226601500Y-80351600D01*
X301757400Y-170897500D02*
X301037600Y-170897500D01*
X171300000Y-61425000D02*
X171300000Y-61000000D01*
X279160300Y-157296900D02*
X280769300Y-158905900D01*
X168315900Y-100349800D02*
X168890800Y-99774900D01*
X247600000Y-120700000D02*
X246274900Y-120700000D01*
X183759300Y-91774900D02*
X172925100Y-80940700D01*
X187838900Y-112802500D02*
X187391300Y-113250100D01*
X296068900Y-187897500D02*
X296068900Y-187022400D01*
X247300000Y-102000000D02*
X247300000Y-102425000D01*
X207191800Y-110657000D02*
X207442900Y-110657000D01*
X209300000Y-110425000D02*
X207674900Y-110425000D01*
X277450000Y-122200000D02*
X275550000Y-122200000D01*
X247600000Y-101700000D02*
X247300000Y-102000000D01*
X275903700Y-154602100D02*
X278598500Y-157296900D01*
X219672800Y-58552400D02*
X223752400Y-58552400D01*
X276344300Y-177628800D02*
X276344300Y-178276500D01*
X171300000Y-80425000D02*
X171300000Y-80000000D01*
X209300000Y-72425000D02*
X207674900Y-72425000D01*
X171300000Y-80000000D02*
X171600000Y-79700000D01*
%TO.N,P0*%
X222290000Y-103800000D02*
X224450000Y-103800000D01*
X224450000Y-103800000D02*
X225225100Y-103800000D01*
X215932400Y-98656500D02*
X221075900Y-103800000D01*
X147602200Y-78465800D02*
X148338000Y-77730000D01*
X167450000Y-103800000D02*
X166504100Y-103800000D01*
X239755100Y-106479200D02*
X240075900Y-106800000D01*
X186450000Y-97800000D02*
X187225100Y-97800000D01*
X243450000Y-106800000D02*
X241290000Y-106800000D01*
X187225100Y-97800000D02*
X188545400Y-99120300D01*
X165290000Y-103800000D02*
X166504100Y-103800000D01*
X164075900Y-103800000D02*
X159792000Y-108083900D01*
X148450000Y-106800000D02*
X149225100Y-106800000D01*
X186450000Y-97800000D02*
X184290000Y-97800000D01*
X206225100Y-95800000D02*
X206225100Y-96197900D01*
X241290000Y-106800000D02*
X240075900Y-106800000D01*
X166504100Y-104407100D02*
X167234100Y-105137100D01*
X225225100Y-103800000D02*
X225225100Y-104641500D01*
X166504100Y-103800000D02*
X166504100Y-104407100D01*
X205837600Y-95800000D02*
X205450000Y-95800000D01*
X174560500Y-105137100D02*
X181897600Y-97800000D01*
X227062800Y-106479200D02*
X239755100Y-106479200D01*
X148338000Y-77730000D02*
X144274000Y-77730000D01*
X150509000Y-108083900D02*
X149225100Y-106800000D01*
X222290000Y-103800000D02*
X221075900Y-103800000D01*
X205837600Y-95800000D02*
X206225100Y-95800000D01*
X146290000Y-106800000D02*
X148450000Y-106800000D01*
X188545400Y-99120300D02*
X199139500Y-99120300D01*
X206225100Y-96197900D02*
X208683700Y-98656500D01*
X165290000Y-103800000D02*
X164075900Y-103800000D01*
X159792000Y-108083900D02*
X150509000Y-108083900D01*
X167234100Y-105137100D02*
X174560500Y-105137100D01*
X208683700Y-98656500D02*
X215932400Y-98656500D01*
X181897600Y-97800000D02*
X184290000Y-97800000D01*
X225225100Y-104641500D02*
X227062800Y-106479200D01*
X205450000Y-95800000D02*
X203290000Y-95800000D01*
%TO.N,P2*%
X151001100Y-82650100D02*
X149853600Y-82650100D01*
X149225000Y-69223000D02*
X153039000Y-69223000D01*
X146725300Y-83103700D02*
X145280000Y-84549000D01*
X149400000Y-83103700D02*
X146725300Y-83103700D01*
X148338000Y-70110000D02*
X149225000Y-69223000D01*
X149853600Y-82650100D02*
X149400000Y-83103700D01*
X148338000Y-70110000D02*
X144274000Y-70110000D01*
%TO.N,P3*%
X147631700Y-67570000D02*
X148338000Y-67570000D01*
X148742600Y-83626400D02*
X147820000Y-84549000D01*
X144274000Y-67570000D02*
X147631700Y-67570000D01*
X147631700Y-67570000D02*
X147631700Y-68305800D01*
X150153800Y-83418800D02*
X149946200Y-83626400D01*
X149946200Y-83626400D02*
X148742600Y-83626400D01*
%TO.N,P4*%
X205575100Y-76800000D02*
X206225100Y-76800000D01*
X205450000Y-76800000D02*
X203290000Y-76800000D01*
X203290000Y-76800000D02*
X196894300Y-76800000D01*
X224450000Y-84800000D02*
X225225100Y-84800000D01*
X243450000Y-87800000D02*
X241290000Y-87800000D01*
X238861800Y-86585900D02*
X227011000Y-86585900D01*
X184290000Y-78800000D02*
X185504100Y-78800000D01*
X192946600Y-80747700D02*
X186617100Y-80747700D01*
X149991000Y-66683000D02*
X153107500Y-66683000D01*
X221075900Y-84800000D02*
X215226000Y-78950100D01*
X215226000Y-78950100D02*
X208375200Y-78950100D01*
X208375200Y-78950100D02*
X206225100Y-76800000D01*
X241290000Y-87800000D02*
X240075900Y-87800000D01*
X205575100Y-76800000D02*
X205450000Y-76800000D01*
X165290000Y-84800000D02*
X167450000Y-84800000D01*
X240075900Y-87800000D02*
X238861800Y-86585900D01*
X185504100Y-79634700D02*
X185504100Y-78800000D01*
X196894300Y-76800000D02*
X192946600Y-80747700D01*
X227011000Y-86585900D02*
X225225100Y-84800000D01*
X224450000Y-84800000D02*
X222290000Y-84800000D01*
X222290000Y-84800000D02*
X221075900Y-84800000D01*
X186450000Y-78800000D02*
X185504100Y-78800000D01*
X144274000Y-65030000D02*
X148338000Y-65030000D01*
X186617100Y-80747700D02*
X185504100Y-79634700D01*
X148338000Y-65030000D02*
X149991000Y-66683000D01*
%TO.N,P5*%
X142558500Y-61564900D02*
X142445300Y-61451700D01*
X144274000Y-61564900D02*
X142558500Y-61564900D01*
X144274000Y-62490000D02*
X148338000Y-62490000D01*
X125258000Y-104220000D02*
X125258000Y-102644900D01*
X141423700Y-102331400D02*
X141423700Y-104219400D01*
X144258000Y-112220000D02*
X144258000Y-110644900D01*
X144258000Y-110644900D02*
X145594600Y-110644900D01*
X150077400Y-64229400D02*
X153069900Y-64229400D01*
X141423700Y-97629400D02*
X141423700Y-102331400D01*
X144258000Y-94007500D02*
X144258000Y-94795100D01*
X144274000Y-62490000D02*
X144274000Y-61564900D01*
X145594600Y-110644900D02*
X146721900Y-109517600D01*
X141423700Y-102331400D02*
X125571500Y-102331400D01*
X148338000Y-62490000D02*
X150077400Y-64229400D01*
X144258000Y-94007500D02*
X143647500Y-93397000D01*
X125571500Y-102331400D02*
X125258000Y-102644900D01*
X144258000Y-94795100D02*
X141423700Y-97629400D01*
X141423700Y-104219400D02*
X146721900Y-109517600D01*
X144258000Y-93220000D02*
X144258000Y-94007500D01*
X143647500Y-93397000D02*
X138868300Y-93397000D01*
%TO.N,P6*%
X164394300Y-88644900D02*
X163258000Y-88644900D01*
X158268000Y-58785100D02*
X153052100Y-58785100D01*
X163258000Y-53795100D02*
X159313400Y-57739700D01*
X175629700Y-106878800D02*
X176675800Y-105832700D01*
X163258000Y-52220000D02*
X163258000Y-53795100D01*
X168444600Y-69437000D02*
X168376600Y-69369000D01*
X163533900Y-69369000D02*
X163258000Y-69644900D01*
X159313400Y-57739700D02*
X158268000Y-58785100D01*
X152906600Y-58930600D02*
X149357400Y-58930600D01*
X148338000Y-59950000D02*
X144849100Y-59950000D01*
X163258000Y-71220000D02*
X163258000Y-69644900D01*
X168376600Y-69369000D02*
X163533900Y-69369000D01*
X149357400Y-58930600D02*
X148338000Y-59950000D01*
X173974800Y-106878800D02*
X175629700Y-106878800D01*
X144274000Y-59950000D02*
X144849100Y-59950000D01*
X163258000Y-109220000D02*
X163258000Y-107644900D01*
X164696000Y-88343200D02*
X164394300Y-88644900D01*
X163258000Y-75327600D02*
X159321800Y-79263800D01*
X163258000Y-71220000D02*
X163258000Y-75327600D01*
X163258000Y-107644900D02*
X164024100Y-106878800D01*
X164024100Y-106878800D02*
X173974800Y-106878800D01*
X153052100Y-58785100D02*
X152906600Y-58930600D01*
X163258000Y-90220000D02*
X163258000Y-88644900D01*
%TO.N,P7*%
X144274000Y-57410000D02*
X148338000Y-57410000D01*
X149225000Y-56523000D02*
X148338000Y-57410000D01*
X151748200Y-56523000D02*
X149225000Y-56523000D01*
%TO.N,P8*%
X182258000Y-82644900D02*
X182706900Y-82196000D01*
X182258000Y-63644900D02*
X182405900Y-63644900D01*
X148338000Y-54870000D02*
X144849100Y-54870000D01*
X182258000Y-46220000D02*
X180657900Y-46220000D01*
X149608000Y-53600000D02*
X148338000Y-54870000D01*
X182706900Y-82196000D02*
X194189500Y-82196000D01*
X153910200Y-53600000D02*
X149608000Y-53600000D01*
X182258000Y-101644900D02*
X183201100Y-100701800D01*
X182258000Y-65220000D02*
X182258000Y-63644900D01*
X182405900Y-63644900D02*
X182688100Y-63362700D01*
X180657900Y-46220000D02*
X180363900Y-46220000D01*
X182258000Y-84220000D02*
X182258000Y-82644900D01*
X182258000Y-103220000D02*
X182258000Y-101644900D01*
X183201100Y-100701800D02*
X192998900Y-100701800D01*
X144274000Y-54870000D02*
X144849100Y-54870000D01*
%TO.N,P9*%
X202086800Y-60816100D02*
X213076700Y-60816100D01*
X200832700Y-91874700D02*
X201258000Y-92300000D01*
X144274000Y-52330000D02*
X148338000Y-52330000D01*
X201258000Y-61644900D02*
X202086800Y-60816100D01*
X201258000Y-63220000D02*
X201258000Y-61644900D01*
X201258000Y-92300000D02*
X210691600Y-92300000D01*
X201258000Y-101220000D02*
X201258000Y-99644900D01*
X201258000Y-99644900D02*
X201258000Y-92300000D01*
X200832700Y-84220400D02*
X200832700Y-91874700D01*
X210691600Y-92300000D02*
X213374600Y-89617000D01*
X201258000Y-83795100D02*
X200832700Y-84220400D01*
X199354500Y-44220000D02*
X201258000Y-44220000D01*
X201258000Y-82220000D02*
X201258000Y-83795100D01*
%TO.N,single_bottom*%
X135465000Y-111774800D02*
X134961200Y-111774800D01*
X138185000Y-109054800D02*
X135465000Y-111774800D01*
X134961200Y-111774800D02*
X134961200Y-117748800D01*
X134961200Y-117748800D02*
X134910000Y-117800000D01*
X134910000Y-117800000D02*
X132750000Y-117800000D01*
X134961200Y-111774800D02*
X125306700Y-111774800D01*
X138185000Y-106760000D02*
X138185000Y-109054800D01*
%TO.N,tab_bottom*%
X157185000Y-114760000D02*
X157185000Y-113184900D01*
X153910000Y-125800000D02*
X151750000Y-125800000D01*
X157551400Y-113184900D02*
X157838500Y-112897800D01*
X157185000Y-113184900D02*
X157551400Y-113184900D01*
%TO.N,tab_home*%
X157185000Y-95760000D02*
X157185000Y-97335100D01*
X157185000Y-97335100D02*
X157343100Y-97493200D01*
X157343100Y-97493200D02*
X157343100Y-97625300D01*
X151750000Y-106800000D02*
X153910000Y-106800000D01*
%TO.N,pinkie_bottom*%
X176185000Y-113655400D02*
X176185000Y-111760000D01*
X170750000Y-122800000D02*
X172910000Y-122800000D01*
%TO.N,pinkie_home*%
X176185000Y-92760000D02*
X176185000Y-94958300D01*
X176185000Y-94958300D02*
X174271000Y-96872300D01*
X172910000Y-103800000D02*
X170750000Y-103800000D01*
X174271000Y-96872300D02*
X173809400Y-96872300D01*
%TO.N,pinkie_top*%
X177785100Y-73760000D02*
X178060600Y-73760000D01*
X176185000Y-73760000D02*
X177785100Y-73760000D01*
X170750000Y-84800000D02*
X172910000Y-84800000D01*
%TO.N,pinkie_num*%
X176185000Y-57352400D02*
X175294800Y-58242600D01*
X176185000Y-54760000D02*
X176185000Y-57352400D01*
X172910000Y-65800000D02*
X170750000Y-65800000D01*
%TO.N,ring_bottom*%
X195185000Y-107335100D02*
X195227300Y-107335100D01*
X195227300Y-107335100D02*
X195531500Y-107639300D01*
X195185000Y-105760000D02*
X195185000Y-107335100D01*
X189750000Y-116800000D02*
X191910000Y-116800000D01*
%TO.N,ring_home*%
X195185000Y-94525000D02*
X191910000Y-97800000D01*
X189750000Y-97800000D02*
X191910000Y-97800000D01*
X195185000Y-86760000D02*
X195185000Y-94525000D01*
%TO.N,ring_top*%
X189750000Y-78800000D02*
X191910000Y-78800000D01*
X191910000Y-78800000D02*
X195185000Y-75525000D01*
X195185000Y-75525000D02*
X195185000Y-67760000D01*
%TO.N,ring_num*%
X181460700Y-44598800D02*
X181682800Y-44376700D01*
X195185000Y-48760000D02*
X195185000Y-47184900D01*
X180851900Y-44598800D02*
X181460700Y-44598800D01*
X189750000Y-59800000D02*
X191910000Y-59800000D01*
X192376800Y-44376700D02*
X195185000Y-47184900D01*
X181015000Y-50629500D02*
X179583400Y-49197900D01*
X179583400Y-49197900D02*
X179583400Y-45867300D01*
X179583400Y-45867300D02*
X180851900Y-44598800D01*
X181682800Y-44376700D02*
X192376800Y-44376700D01*
%TO.N,middle_bottom*%
X214185000Y-102184900D02*
X211394900Y-99394800D01*
X210910000Y-114800000D02*
X214185000Y-111525000D01*
X214185000Y-111525000D02*
X214185000Y-103760000D01*
X211394900Y-99394800D02*
X203390700Y-99394800D01*
X208750000Y-114800000D02*
X209525100Y-114800000D01*
X210910000Y-114800000D02*
X209525100Y-114800000D01*
X214185000Y-103760000D02*
X214185000Y-102184900D01*
%TO.N,middle_home*%
X210910000Y-95800000D02*
X214185000Y-92525000D01*
X214185000Y-92525000D02*
X214185000Y-84760000D01*
X208750000Y-95800000D02*
X210910000Y-95800000D01*
%TO.N,middle_top*%
X210910000Y-76800000D02*
X209525100Y-76800000D01*
X214185000Y-65760000D02*
X214185000Y-67335100D01*
X214515700Y-67665800D02*
X214185000Y-67335100D01*
X214515700Y-73194300D02*
X214515700Y-67665800D01*
X210910000Y-76800000D02*
X214515700Y-73194300D01*
X208750000Y-76800000D02*
X209525100Y-76800000D01*
%TO.N,middle_num*%
X214185000Y-50030700D02*
X214185000Y-46760000D01*
X210910000Y-57800000D02*
X208750000Y-57800000D01*
X212631000Y-51584700D02*
X214185000Y-50030700D01*
%TO.N,index_bottom*%
X233185000Y-113966400D02*
X230464100Y-116687300D01*
X222274800Y-116915400D02*
X222274800Y-119104300D01*
X227362500Y-122800000D02*
X227750000Y-122800000D01*
X222274800Y-119104300D02*
X222420700Y-119250200D01*
X222502900Y-116687300D02*
X222274800Y-116915400D01*
X226398600Y-120389700D02*
X226398600Y-122223700D01*
X227750000Y-122800000D02*
X229910000Y-122800000D01*
X230464100Y-116687300D02*
X222502900Y-116687300D01*
X222420700Y-119250200D02*
X225259100Y-119250200D01*
X226398600Y-122223700D02*
X226974900Y-122800000D01*
X225259100Y-119250200D02*
X226398600Y-120389700D01*
X227362500Y-122800000D02*
X226974900Y-122800000D01*
X233185000Y-111760000D02*
X233185000Y-113966400D01*
%TO.N,index_home*%
X231256900Y-96900400D02*
X233185000Y-94972300D01*
X231161300Y-96900400D02*
X231256900Y-96900400D01*
X233185000Y-94972300D02*
X233185000Y-92760000D01*
X227750000Y-103800000D02*
X229910000Y-103800000D01*
%TO.N,index_top*%
X230379600Y-69379500D02*
X225329400Y-69379500D01*
X233185000Y-73760000D02*
X233185000Y-72184900D01*
X227750000Y-84800000D02*
X229910000Y-84800000D01*
X233185000Y-72184900D02*
X230379600Y-69379500D01*
X225329400Y-69379500D02*
X225153300Y-69555600D01*
%TO.N,index_num*%
X233838500Y-52541500D02*
X233195100Y-53184900D01*
X233195100Y-53184900D02*
X233185000Y-53184900D01*
X233185000Y-54760000D02*
X233185000Y-53184900D01*
X227750000Y-65800000D02*
X228525100Y-65800000D01*
X229910000Y-65800000D02*
X228525100Y-65800000D01*
%TO.N,far_bottom*%
X253695100Y-111674800D02*
X252185000Y-113184900D01*
X246750000Y-125800000D02*
X248910000Y-125800000D01*
X252185000Y-114760000D02*
X252185000Y-113184900D01*
X248910000Y-125800000D02*
X255411100Y-125800000D01*
X261325200Y-119885900D02*
X261325200Y-111778700D01*
X261325200Y-111778700D02*
X261221300Y-111674800D01*
X255411100Y-125800000D02*
X261325200Y-119885900D01*
X261221300Y-111674800D02*
X253695100Y-111674800D01*
%TO.N,far_home*%
X246750000Y-106800000D02*
X248910000Y-106800000D01*
X261325200Y-96828500D02*
X260256700Y-95760000D01*
X257740100Y-102719600D02*
X261325200Y-99134500D01*
X260256700Y-95760000D02*
X252185000Y-95760000D01*
X248910000Y-106800000D02*
X252990400Y-102719600D01*
X261325200Y-99134500D02*
X261325200Y-96828500D01*
X252990400Y-102719600D02*
X257740100Y-102719600D01*
%TO.N,far_top*%
X252185000Y-84525000D02*
X248910000Y-87800000D01*
X246750000Y-87800000D02*
X248910000Y-87800000D01*
X252185000Y-76760000D02*
X252185000Y-84525000D01*
%TO.N,far_num*%
X248910000Y-68800000D02*
X252185000Y-65525000D01*
X252185000Y-65525000D02*
X252185000Y-57760000D01*
X246750000Y-68800000D02*
X248910000Y-68800000D01*
%TO.N,1_bottom*%
X274710900Y-183117000D02*
X275269500Y-183117000D01*
X275269500Y-183117000D02*
X275648400Y-183495900D01*
X273645700Y-182686700D02*
X274710900Y-183117100D01*
X281988400Y-176546400D02*
X281988500Y-176546400D01*
X281988500Y-177155800D02*
X275648400Y-183495900D01*
X281988500Y-176546400D02*
X281988500Y-177155800D01*
X282820600Y-174486600D02*
X281988400Y-176546400D01*
X274710900Y-183117100D02*
X274710900Y-183117000D01*
%TO.N,1_top*%
X282766000Y-165269900D02*
X282766000Y-165879500D01*
X282766000Y-165879500D02*
X282207300Y-165879500D01*
X289938100Y-156870100D02*
X289105900Y-158929900D01*
X280763300Y-165070300D02*
X281828500Y-165500700D01*
X289106000Y-158929900D02*
X282766000Y-165269900D01*
X282738600Y-146468500D02*
X282933600Y-146468500D01*
X289105900Y-158929900D02*
X289106000Y-158929900D01*
X290770200Y-154810300D02*
X290770300Y-154810300D01*
X289938100Y-153978200D02*
X290770200Y-154810300D01*
X282933600Y-146468500D02*
X289938100Y-153473000D01*
X282207300Y-165879500D02*
X281828500Y-165500700D01*
X289938100Y-153473000D02*
X289938100Y-153978200D01*
X289938100Y-156870100D02*
X290770300Y-154810300D01*
%TO.N,2_bottom*%
X301567000Y-184523700D02*
X300550300Y-186215900D01*
X293790600Y-192300100D02*
X293073800Y-192300100D01*
X301567000Y-179949500D02*
X301567000Y-181814900D01*
X300550300Y-186215900D02*
X299874800Y-186215900D01*
X301567000Y-184523700D02*
X302583600Y-182831500D01*
X292679000Y-192300100D02*
X293073800Y-192300100D01*
X291222300Y-191187600D02*
X292084500Y-191705600D01*
X299874800Y-186215900D02*
X293790600Y-192300100D01*
X292084500Y-191705600D02*
X292679000Y-192300100D01*
X299448900Y-177831400D02*
X301567000Y-179949500D01*
X301567000Y-181814900D02*
X302583600Y-182831500D01*
X298867700Y-177831400D02*
X299448900Y-177831400D01*
%TO.N,2_top*%
X302859500Y-176014000D02*
X303576200Y-176014000D01*
X301008000Y-174901500D02*
X301870200Y-175419500D01*
X306010800Y-173789100D02*
X309870200Y-169929700D01*
X301870200Y-175419500D02*
X302464700Y-176014000D01*
X305801100Y-173789100D02*
X306010800Y-173789100D01*
X302464700Y-176014000D02*
X302859500Y-176014000D01*
X309870200Y-169929700D02*
X310336000Y-169929700D01*
X311352700Y-168237500D02*
X310336000Y-169929700D01*
X303576200Y-176014000D02*
X305801100Y-173789100D01*
%TO.N,D1*%
X169034500Y-120175000D02*
X166900000Y-120175000D01*
X128600000Y-115900000D02*
X128750000Y-115750000D01*
X226191200Y-104582200D02*
X227189300Y-105580300D01*
X169040300Y-101175000D02*
X169865400Y-100349900D01*
X277450000Y-114700000D02*
X275550000Y-114700000D01*
X245555600Y-88411700D02*
X245555600Y-87530500D01*
X223600000Y-63900000D02*
X223750000Y-63750000D01*
X298429300Y-171135500D02*
X297095600Y-170334300D01*
X157266700Y-120740600D02*
X155757100Y-122250200D01*
X175284000Y-100349900D02*
X179733900Y-95900000D01*
X275550000Y-116025100D02*
X274075600Y-117499500D01*
X242750000Y-104750000D02*
X242900000Y-104750000D01*
X147600000Y-123900000D02*
X147900000Y-123600000D01*
X204600000Y-112900000D02*
X204600000Y-112475000D01*
X242900000Y-85600000D02*
X242600000Y-85900000D01*
X179733900Y-95900000D02*
X185600000Y-95900000D01*
X208571800Y-78186300D02*
X205925100Y-75539600D01*
X147900000Y-104600000D02*
X147900000Y-104175000D01*
X222274900Y-63175000D02*
X218370900Y-63175000D01*
X204600000Y-74900000D02*
X205262600Y-74900000D01*
X185900000Y-76175000D02*
X187525100Y-76175000D01*
X187595300Y-76104800D02*
X187525100Y-76175000D01*
X269986400Y-177943300D02*
X269913300Y-178016400D01*
X186925100Y-115484900D02*
X189563900Y-118123700D01*
X223900000Y-101600000D02*
X223900000Y-101175000D01*
X204600000Y-93900000D02*
X205925100Y-93900000D01*
X279350000Y-114700000D02*
X277450000Y-114700000D01*
X224925100Y-101900000D02*
X226191200Y-103166100D01*
X206902500Y-94877400D02*
X205925100Y-93900000D01*
X274075600Y-158202400D02*
X276052000Y-160178800D01*
X169859700Y-119349800D02*
X169034500Y-120175000D01*
X223900000Y-120175000D02*
X212601700Y-120175000D01*
X192883700Y-61109100D02*
X189506900Y-61109100D01*
X206645900Y-56620800D02*
X205925100Y-55900000D01*
X205262600Y-74900000D02*
X204900000Y-74537400D01*
X288643600Y-187421700D02*
X288807200Y-187421700D01*
X169865400Y-100349900D02*
X175284000Y-100349900D01*
X288807200Y-187421700D02*
X289274200Y-186954700D01*
X242900000Y-123175000D02*
X242900000Y-123600000D01*
X279202300Y-162390400D02*
X279202300Y-162415100D01*
X225673500Y-122236200D02*
X225673500Y-121149400D01*
X297095600Y-170334300D02*
X296902600Y-170527300D01*
X291090300Y-186970200D02*
X291309200Y-187189100D01*
X223600000Y-82900000D02*
X223600000Y-82387500D01*
X227520900Y-86135700D02*
X224925100Y-83539900D01*
X185900000Y-76175000D02*
X185900000Y-76600000D01*
X173956500Y-61005400D02*
X178448200Y-61005400D01*
X240594600Y-105580300D02*
X227189300Y-105580300D01*
X189563900Y-118123700D02*
X196223600Y-118123700D01*
X223687500Y-82387500D02*
X223600000Y-82387500D01*
X223750000Y-63750000D02*
X223900000Y-63750000D01*
X258000000Y-105500000D02*
X259900000Y-105500000D01*
X254844400Y-108080700D02*
X256100000Y-106825100D01*
X219087500Y-101175000D02*
X215843900Y-97931400D01*
X246310300Y-108080700D02*
X249903600Y-108080700D01*
X128750000Y-115750000D02*
X128900000Y-115750000D01*
X188856100Y-60458300D02*
X188856100Y-58294800D01*
X242900000Y-85175000D02*
X242900000Y-85600000D01*
X205262600Y-74900000D02*
X205925100Y-74900000D01*
X185900000Y-114600000D02*
X185900000Y-114175000D01*
X196223600Y-118123700D02*
X201447300Y-112900000D01*
X245555600Y-87530500D02*
X243925100Y-85900000D01*
X291866700Y-182091300D02*
X291866700Y-184484400D01*
X178314200Y-119349800D02*
X169859700Y-119349800D01*
X274075600Y-130323300D02*
X274075600Y-158202400D01*
X241274900Y-85900000D02*
X241039200Y-86135700D01*
X136589000Y-123175000D02*
X147900000Y-123175000D01*
X256100000Y-105500000D02*
X256100000Y-106825100D01*
X168861400Y-81838700D02*
X168861500Y-81838700D01*
X204600000Y-55900000D02*
X198092800Y-55900000D01*
X298592900Y-171135500D02*
X299059900Y-170668500D01*
X226191200Y-103166100D02*
X226191200Y-104582200D01*
X155757100Y-122250200D02*
X150865900Y-122250200D01*
X223600000Y-82900000D02*
X224925100Y-82900000D01*
X242600000Y-123900000D02*
X243925100Y-123900000D01*
X168577900Y-64552800D02*
X167925100Y-63900000D01*
X181647200Y-116016800D02*
X181399300Y-116016800D01*
X166600000Y-120900000D02*
X166600000Y-120740600D01*
X149525100Y-104175000D02*
X149917100Y-104175000D01*
X210967600Y-97931400D02*
X208646000Y-97931400D01*
X221979400Y-62879500D02*
X222274900Y-63175000D01*
X186925100Y-114900000D02*
X186925100Y-115484900D01*
X224950800Y-82874300D02*
X224925100Y-82900000D01*
X155845800Y-101900000D02*
X166600000Y-101900000D01*
X207374900Y-57988900D02*
X207374900Y-56620800D01*
X224925100Y-83539900D02*
X224925100Y-82900000D01*
X185900000Y-76600000D02*
X185600000Y-76900000D01*
X186262600Y-114900000D02*
X186925100Y-114900000D01*
X245941600Y-124646600D02*
X244671700Y-124646600D01*
X242900000Y-123600000D02*
X242600000Y-123900000D01*
X131017700Y-117603600D02*
X131579300Y-117042000D01*
X185900000Y-95175000D02*
X187561600Y-95175000D01*
X242979600Y-104750000D02*
X246310300Y-108080700D01*
X149941100Y-123175000D02*
X147900000Y-123175000D01*
X242600000Y-85900000D02*
X241274900Y-85900000D01*
X289274200Y-186954700D02*
X291090300Y-186954700D01*
X223900000Y-63175000D02*
X222274900Y-63175000D01*
X207374900Y-56620800D02*
X206645900Y-56620800D01*
X185600000Y-114900000D02*
X185900000Y-114600000D01*
X244671700Y-124646600D02*
X243925100Y-123900000D01*
X295852700Y-170527300D02*
X294761200Y-171618800D01*
X273175400Y-129423100D02*
X274075600Y-130323300D01*
X298390700Y-175251600D02*
X296910800Y-175251600D01*
X279749500Y-162415100D02*
X280199700Y-162865300D01*
X166600000Y-63900000D02*
X166900000Y-63600000D01*
X215308300Y-78186300D02*
X208571800Y-78186300D01*
X272229600Y-179323600D02*
X272229600Y-181229200D01*
X185600000Y-57900000D02*
X186925100Y-57900000D01*
X242900000Y-66175000D02*
X241274900Y-66175000D01*
X150742200Y-103349900D02*
X154395900Y-103349900D01*
X206487400Y-114060700D02*
X206487400Y-113301900D01*
X179000100Y-60453500D02*
X181553600Y-57900000D01*
X166600000Y-120475000D02*
X166900000Y-120175000D01*
X185600000Y-114900000D02*
X185278400Y-114578400D01*
X204900000Y-93600000D02*
X204900000Y-93175000D01*
X241274900Y-123900000D02*
X241084700Y-124090200D01*
X214372700Y-59176800D02*
X208562800Y-59176800D01*
X293966500Y-180632700D02*
X293325300Y-180632700D01*
X150865900Y-122250200D02*
X149941100Y-123175000D01*
X293325300Y-180632700D02*
X291866700Y-182091300D01*
X242600000Y-66900000D02*
X241274900Y-66900000D01*
X269627500Y-178016400D02*
X268934500Y-178709400D01*
X166900000Y-101175000D02*
X169040300Y-101175000D01*
X279202300Y-162415100D02*
X279749500Y-162415100D01*
X242900000Y-104750000D02*
X242979600Y-104750000D01*
X179166200Y-118249900D02*
X179166200Y-118497800D01*
X291090300Y-186954700D02*
X292296800Y-185748200D01*
X206327000Y-113301900D02*
X205925100Y-112900000D01*
X185600000Y-57900000D02*
X185600000Y-57475000D01*
X212601700Y-120175000D02*
X206487400Y-114060700D01*
X187319900Y-58294800D02*
X186925100Y-57900000D01*
X166900000Y-101600000D02*
X166900000Y-101175000D01*
X147600000Y-104900000D02*
X147900000Y-104600000D01*
D46*
X293800000Y-114550000D02*
X311800000Y-114550000D01*
D45*
X271059400Y-178810700D02*
X272162200Y-179256200D01*
X166900000Y-63600000D02*
X166900000Y-63175000D01*
X205262600Y-55900000D02*
X204600000Y-55900000D01*
X278684400Y-162933000D02*
X278684400Y-165065100D01*
X166600000Y-82900000D02*
X166900000Y-82600000D01*
X241274900Y-66900000D02*
X241274900Y-66175000D01*
X206487400Y-113301900D02*
X206327000Y-113301900D01*
X296910800Y-177688400D02*
X293966500Y-180632700D01*
X204600000Y-112475000D02*
X204900000Y-112175000D01*
X185600000Y-57475000D02*
X185900000Y-57175000D01*
X241084700Y-124090200D02*
X227527500Y-124090200D01*
X205262600Y-55900000D02*
X205925100Y-55900000D01*
X274075600Y-119461600D02*
X273625500Y-119911700D01*
X189506900Y-61109100D02*
X188856100Y-60458300D01*
X204900000Y-74537400D02*
X204900000Y-74175000D01*
X183085600Y-114578400D02*
X181647200Y-116016800D01*
X223900000Y-101175000D02*
X219087500Y-101175000D01*
X291866700Y-184484400D02*
X292296800Y-184914500D01*
X154395900Y-103349900D02*
X155845800Y-101900000D01*
X166600000Y-63900000D02*
X167925100Y-63900000D01*
X223900000Y-82175000D02*
X223687500Y-82387500D01*
X149917100Y-104175000D02*
X150742200Y-103349900D01*
X208562800Y-59176800D02*
X207374900Y-57988900D01*
X279202300Y-162415100D02*
X278684400Y-162933000D01*
X218370900Y-63175000D02*
X214372700Y-59176800D01*
X185278400Y-114578400D02*
X183085600Y-114578400D01*
X178448200Y-61005400D02*
X179000100Y-60453500D01*
X223600000Y-101900000D02*
X223900000Y-101600000D01*
X296902600Y-170527300D02*
X295852700Y-170527300D01*
X208646000Y-97931400D02*
X206902500Y-96187900D01*
X277627200Y-161754000D02*
X278176900Y-161204300D01*
X131017700Y-117603600D02*
X136589000Y-123175000D01*
X179166200Y-118497800D02*
X178314200Y-119349800D01*
X128900000Y-115750000D02*
X128900000Y-115175000D01*
X223600000Y-120900000D02*
X224262600Y-120900000D01*
X224262600Y-120900000D02*
X223900000Y-120537400D01*
X188856100Y-58294800D02*
X187319900Y-58294800D01*
X242900000Y-104750000D02*
X242900000Y-104175000D01*
X221701000Y-62879500D02*
X221979400Y-62879500D01*
X241096300Y-67078600D02*
X241274900Y-66900000D01*
X129164000Y-115750000D02*
X131017700Y-117603600D01*
X298429300Y-171135500D02*
X298592900Y-171135500D01*
X223600000Y-101900000D02*
X224925100Y-101900000D01*
X273625500Y-126026700D02*
X273175400Y-126476800D01*
X185900000Y-95600000D02*
X185600000Y-95900000D01*
X225673500Y-121149400D02*
X224512000Y-121149400D01*
X147900000Y-104175000D02*
X149525100Y-104175000D01*
X181553600Y-57900000D02*
X185600000Y-57900000D01*
X269913300Y-178016400D02*
X269627500Y-178016400D01*
X187561600Y-95175000D02*
X188386700Y-94349900D01*
X223979600Y-63750000D02*
X227308200Y-67078600D01*
X166900000Y-82600000D02*
X166900000Y-82175000D01*
X226051000Y-82874300D02*
X224950800Y-82874300D01*
X223900000Y-120537400D02*
X223900000Y-120175000D01*
X276705600Y-167043900D02*
X276705600Y-169290600D01*
X242600000Y-85900000D02*
X243925100Y-85900000D01*
X204900000Y-55600000D02*
X204900000Y-55175000D01*
X296910800Y-175251600D02*
X296910800Y-177688400D01*
X205925100Y-75539600D02*
X205925100Y-74900000D01*
X278684400Y-165065100D02*
X276705600Y-167043900D01*
X223900000Y-63750000D02*
X223900000Y-63175000D01*
X128900000Y-115750000D02*
X129164000Y-115750000D01*
X294761200Y-171618800D02*
X294761200Y-173102000D01*
X275550000Y-114700000D02*
X275550000Y-116025100D01*
X258000000Y-105500000D02*
X256100000Y-105500000D01*
X168525100Y-82175000D02*
X168861400Y-81838700D01*
X269986400Y-176009800D02*
X269986400Y-177943300D01*
X188325100Y-76104800D02*
X187595300Y-76104800D01*
X166600000Y-101900000D02*
X166900000Y-101600000D01*
X201447300Y-112900000D02*
X204600000Y-112900000D01*
X242600000Y-123900000D02*
X241274900Y-123900000D01*
X223900000Y-63750000D02*
X223979600Y-63750000D01*
X215843900Y-97931400D02*
X210967600Y-97931400D01*
X241039200Y-86135700D02*
X227520900Y-86135700D01*
X271059400Y-178820800D02*
X271059400Y-178810700D01*
X270509700Y-179370500D02*
X268934500Y-178734100D01*
X181399300Y-116016800D02*
X179166200Y-118249900D01*
X273175400Y-126476800D02*
X273175400Y-129423100D01*
X273625500Y-119911700D02*
X273625500Y-126026700D01*
X249903600Y-108080700D02*
X254844400Y-108080700D01*
X270509700Y-179370500D02*
X271059400Y-178820800D01*
X166600000Y-120740600D02*
X166600000Y-120475000D01*
X227527500Y-124090200D02*
X225673500Y-122236200D01*
X268934500Y-178709400D02*
X268934500Y-178734100D01*
X277627200Y-161754000D02*
X276052000Y-161117600D01*
X185900000Y-95175000D02*
X185900000Y-95600000D01*
X219509500Y-82387500D02*
X215308300Y-78186300D01*
X198092800Y-55900000D02*
X192883700Y-61109100D01*
X291090300Y-186954700D02*
X291090300Y-186970200D01*
X166900000Y-82175000D02*
X168525100Y-82175000D01*
X276705600Y-169290600D02*
X269986400Y-176009800D01*
X206902500Y-96187900D02*
X206902500Y-94877400D01*
X204600000Y-112900000D02*
X205925100Y-112900000D01*
X188386700Y-94349900D02*
X192128500Y-94349900D01*
X204600000Y-55900000D02*
X204900000Y-55600000D01*
X224512000Y-121149400D02*
X224262600Y-120900000D01*
X242600000Y-104900000D02*
X242750000Y-104750000D01*
X204600000Y-93900000D02*
X204900000Y-93600000D01*
X186262600Y-114900000D02*
X185600000Y-114900000D01*
X166600000Y-120740600D02*
X157266700Y-120740600D01*
X169352300Y-64552800D02*
X168577900Y-64552800D01*
X276052000Y-160178800D02*
X276052000Y-161117600D01*
X242600000Y-104900000D02*
X241274900Y-104900000D01*
X277627200Y-161754000D02*
X279202300Y-162390400D01*
X294761200Y-173102000D02*
X296910800Y-175251600D01*
X272162200Y-179256200D02*
X272229600Y-179323600D01*
X274075600Y-117499500D02*
X274075600Y-119461600D01*
X241274900Y-104900000D02*
X240594600Y-105580300D01*
X292296800Y-185748200D02*
X292296800Y-184914500D01*
X223600000Y-82387500D02*
X219509500Y-82387500D01*
X278176900Y-161204300D02*
X278176900Y-161194200D01*
X147900000Y-123600000D02*
X147900000Y-123175000D01*
X227308200Y-67078600D02*
X241096300Y-67078600D01*
%TD*%
M02*
