%TF.GenerationSoftware,KiCad,Pcbnew,6.0.10-86aedd382b~118~ubuntu22.04.1*%
%TF.CreationDate,2023-01-31T17:25:27-07:00*%
%TF.ProjectId,scaarix_flow,73636161-7269-4785-9f66-6c6f772e6b69,v1.0.0*%
%TF.SameCoordinates,Original*%
%TF.FileFunction,Soldermask,Top*%
%TF.FilePolarity,Negative*%
%FSLAX46Y46*%
G04 Gerber Fmt 4.6, Leading zero omitted, Abs format (unit mm)*
G04 Created by KiCad (PCBNEW 6.0.10-86aedd382b~118~ubuntu22.04.1) date 2023-01-31 17:25:27*
%MOMM*%
%LPD*%
G01*
G04 APERTURE LIST*
G04 Aperture macros list*
%AMRotRect*
0 Rectangle, with rotation*
0 The origin of the aperture is its center*
0 $1 length*
0 $2 width*
0 $3 Rotation angle, in degrees counterclockwise*
0 Add horizontal line*
21,1,$1,$2,0,0,$3*%
%AMFreePoly0*
4,1,6,0.600000,0.200000,0.000000,-0.400000,-0.600000,0.200000,-0.600000,0.400000,0.600000,0.400000,0.600000,0.200000,0.600000,0.200000,$1*%
%AMFreePoly1*
4,1,6,0.600000,-0.250000,-0.600000,-0.250000,-0.600000,1.000000,0.000000,0.400000,0.600000,1.000000,0.600000,-0.250000,0.600000,-0.250000,$1*%
%AMFreePoly2*
4,1,20,0.000000,0.844959,0.073905,0.844508,0.209726,0.803889,0.328688,0.726782,0.421226,0.619385,0.479903,0.490333,0.500000,0.350000,0.500000,-0.350000,0.499851,-0.362216,0.476331,-0.502017,0.414519,-0.629596,0.319384,-0.734700,0.198574,-0.808877,0.061801,-0.846166,0.000000,-0.845033,0.000000,-0.850000,-0.500000,-0.850000,-0.500000,0.850000,0.000000,0.850000,0.000000,0.844959,
0.000000,0.844959,$1*%
%AMFreePoly3*
4,1,20,-0.850000,0.850000,0.000000,0.850000,0.115358,0.842136,0.293503,0.797719,0.457955,0.716085,0.601041,0.601041,0.716085,0.457955,0.797719,0.293503,0.842136,0.115358,0.850000,0.000000,0.842136,-0.115358,0.797719,-0.293503,0.716085,-0.457955,0.601041,-0.601041,0.457955,-0.716085,0.293503,-0.797719,0.115358,-0.842136,0.000000,-0.850000,-0.850000,-0.850000,-0.850000,0.850000,
-0.850000,0.850000,$1*%
G04 Aperture macros list end*
%ADD10C,0.250000*%
%ADD11C,0.100000*%
%ADD12R,2.600000X1.000000*%
%ADD13R,2.000000X1.200000*%
%ADD14R,0.900000X1.200000*%
%ADD15R,1.778000X1.778000*%
%ADD16C,1.905000*%
%ADD17RotRect,1.778000X1.778000X329.000000*%
%ADD18RotRect,0.900000X1.200000X329.000000*%
%ADD19C,3.000000*%
%ADD20C,1.701800*%
%ADD21C,3.987800*%
%ADD22R,2.550000X2.500000*%
%ADD23RotRect,1.778000X1.778000X338.000000*%
%ADD24RotRect,0.900000X1.200000X338.000000*%
%ADD25RotRect,2.600000X1.000000X329.000000*%
%ADD26RotRect,2.000000X1.200000X329.000000*%
%ADD27RotRect,2.550000X2.500000X338.000000*%
%ADD28FreePoly0,90.000000*%
%ADD29C,1.600000*%
%ADD30FreePoly0,270.000000*%
%ADD31R,1.600000X1.600000*%
%ADD32FreePoly1,270.000000*%
%ADD33FreePoly1,90.000000*%
%ADD34C,1.500000*%
%ADD35O,1.600000X2.200000*%
%ADD36FreePoly2,90.000000*%
%ADD37R,1.700000X1.700000*%
%ADD38FreePoly3,270.000000*%
%ADD39R,2.000000X2.000000*%
%ADD40RotRect,2.550000X2.500000X329.000000*%
%ADD41RotRect,2.600000X1.000000X338.000000*%
%ADD42RotRect,2.000000X1.200000X338.000000*%
%ADD43R,2.200000X2.000000*%
G04 APERTURE END LIST*
D10*
%TO.C,MCU1*%
X148463000Y-77730000D02*
G75*
G03*
X148463000Y-77730000I-125000J0D01*
G01*
X149987000Y-67570000D02*
G75*
G03*
X149987000Y-67570000I-125000J0D01*
G01*
X149987000Y-75190000D02*
G75*
G03*
X149987000Y-75190000I-125000J0D01*
G01*
X148463000Y-52330000D02*
G75*
G03*
X148463000Y-52330000I-125000J0D01*
G01*
X148463000Y-65030000D02*
G75*
G03*
X148463000Y-65030000I-125000J0D01*
G01*
X148463000Y-75190000D02*
G75*
G03*
X148463000Y-75190000I-125000J0D01*
G01*
X148463000Y-59950000D02*
G75*
G03*
X148463000Y-59950000I-125000J0D01*
G01*
X148463000Y-80270000D02*
G75*
G03*
X148463000Y-80270000I-125000J0D01*
G01*
X149987000Y-72650000D02*
G75*
G03*
X149987000Y-72650000I-125000J0D01*
G01*
X148463000Y-72650000D02*
G75*
G03*
X148463000Y-72650000I-125000J0D01*
G01*
X149987000Y-59950000D02*
G75*
G03*
X149987000Y-59950000I-125000J0D01*
G01*
X149987000Y-77730000D02*
G75*
G03*
X149987000Y-77730000I-125000J0D01*
G01*
X148463000Y-67570000D02*
G75*
G03*
X148463000Y-67570000I-125000J0D01*
G01*
X148463000Y-57410000D02*
G75*
G03*
X148463000Y-57410000I-125000J0D01*
G01*
X149987000Y-70110000D02*
G75*
G03*
X149987000Y-70110000I-125000J0D01*
G01*
X148463000Y-62490000D02*
G75*
G03*
X148463000Y-62490000I-125000J0D01*
G01*
X149987000Y-54870000D02*
G75*
G03*
X149987000Y-54870000I-125000J0D01*
G01*
X149987000Y-62490000D02*
G75*
G03*
X149987000Y-62490000I-125000J0D01*
G01*
X149987000Y-65030000D02*
G75*
G03*
X149987000Y-65030000I-125000J0D01*
G01*
X149987000Y-57410000D02*
G75*
G03*
X149987000Y-57410000I-125000J0D01*
G01*
X148463000Y-54870000D02*
G75*
G03*
X148463000Y-54870000I-125000J0D01*
G01*
X149987000Y-80270000D02*
G75*
G03*
X149987000Y-80270000I-125000J0D01*
G01*
X148463000Y-70110000D02*
G75*
G03*
X148463000Y-70110000I-125000J0D01*
G01*
X149987000Y-52330000D02*
G75*
G03*
X149987000Y-52330000I-125000J0D01*
G01*
G36*
X155196000Y-55378000D02*
G01*
X154180000Y-55378000D01*
X154180000Y-54362000D01*
X155196000Y-54362000D01*
X155196000Y-55378000D01*
G37*
D11*
X155196000Y-55378000D02*
X154180000Y-55378000D01*
X154180000Y-54362000D01*
X155196000Y-54362000D01*
X155196000Y-55378000D01*
G36*
X144020000Y-55378000D02*
G01*
X143004000Y-55378000D01*
X143004000Y-54362000D01*
X144020000Y-54362000D01*
X144020000Y-55378000D01*
G37*
X144020000Y-55378000D02*
X143004000Y-55378000D01*
X143004000Y-54362000D01*
X144020000Y-54362000D01*
X144020000Y-55378000D01*
G36*
X155196000Y-60458000D02*
G01*
X154180000Y-60458000D01*
X154180000Y-59442000D01*
X155196000Y-59442000D01*
X155196000Y-60458000D01*
G37*
X155196000Y-60458000D02*
X154180000Y-60458000D01*
X154180000Y-59442000D01*
X155196000Y-59442000D01*
X155196000Y-60458000D01*
G36*
X144020000Y-68078000D02*
G01*
X143004000Y-68078000D01*
X143004000Y-67062000D01*
X144020000Y-67062000D01*
X144020000Y-68078000D01*
G37*
X144020000Y-68078000D02*
X143004000Y-68078000D01*
X143004000Y-67062000D01*
X144020000Y-67062000D01*
X144020000Y-68078000D01*
G36*
X155196000Y-73158000D02*
G01*
X154180000Y-73158000D01*
X154180000Y-72142000D01*
X155196000Y-72142000D01*
X155196000Y-73158000D01*
G37*
X155196000Y-73158000D02*
X154180000Y-73158000D01*
X154180000Y-72142000D01*
X155196000Y-72142000D01*
X155196000Y-73158000D01*
G36*
X144020000Y-60458000D02*
G01*
X143004000Y-60458000D01*
X143004000Y-59442000D01*
X144020000Y-59442000D01*
X144020000Y-60458000D01*
G37*
X144020000Y-60458000D02*
X143004000Y-60458000D01*
X143004000Y-59442000D01*
X144020000Y-59442000D01*
X144020000Y-60458000D01*
G36*
X155196000Y-70618000D02*
G01*
X154180000Y-70618000D01*
X154180000Y-69602000D01*
X155196000Y-69602000D01*
X155196000Y-70618000D01*
G37*
X155196000Y-70618000D02*
X154180000Y-70618000D01*
X154180000Y-69602000D01*
X155196000Y-69602000D01*
X155196000Y-70618000D01*
G36*
X155196000Y-75698000D02*
G01*
X154180000Y-75698000D01*
X154180000Y-74682000D01*
X155196000Y-74682000D01*
X155196000Y-75698000D01*
G37*
X155196000Y-75698000D02*
X154180000Y-75698000D01*
X154180000Y-74682000D01*
X155196000Y-74682000D01*
X155196000Y-75698000D01*
G36*
X144020000Y-52838000D02*
G01*
X143004000Y-52838000D01*
X143004000Y-51822000D01*
X144020000Y-51822000D01*
X144020000Y-52838000D01*
G37*
X144020000Y-52838000D02*
X143004000Y-52838000D01*
X143004000Y-51822000D01*
X144020000Y-51822000D01*
X144020000Y-52838000D01*
G36*
X155196000Y-68078000D02*
G01*
X154180000Y-68078000D01*
X154180000Y-67062000D01*
X155196000Y-67062000D01*
X155196000Y-68078000D01*
G37*
X155196000Y-68078000D02*
X154180000Y-68078000D01*
X154180000Y-67062000D01*
X155196000Y-67062000D01*
X155196000Y-68078000D01*
G36*
X155196000Y-57918000D02*
G01*
X154180000Y-57918000D01*
X154180000Y-56902000D01*
X155196000Y-56902000D01*
X155196000Y-57918000D01*
G37*
X155196000Y-57918000D02*
X154180000Y-57918000D01*
X154180000Y-56902000D01*
X155196000Y-56902000D01*
X155196000Y-57918000D01*
G36*
X144020000Y-80778000D02*
G01*
X143004000Y-80778000D01*
X143004000Y-79762000D01*
X144020000Y-79762000D01*
X144020000Y-80778000D01*
G37*
X144020000Y-80778000D02*
X143004000Y-80778000D01*
X143004000Y-79762000D01*
X144020000Y-79762000D01*
X144020000Y-80778000D01*
G36*
X144020000Y-65538000D02*
G01*
X143004000Y-65538000D01*
X143004000Y-64522000D01*
X144020000Y-64522000D01*
X144020000Y-65538000D01*
G37*
X144020000Y-65538000D02*
X143004000Y-65538000D01*
X143004000Y-64522000D01*
X144020000Y-64522000D01*
X144020000Y-65538000D01*
G36*
X144020000Y-73158000D02*
G01*
X143004000Y-73158000D01*
X143004000Y-72142000D01*
X144020000Y-72142000D01*
X144020000Y-73158000D01*
G37*
X144020000Y-73158000D02*
X143004000Y-73158000D01*
X143004000Y-72142000D01*
X144020000Y-72142000D01*
X144020000Y-73158000D01*
G36*
X155196000Y-65538000D02*
G01*
X154180000Y-65538000D01*
X154180000Y-64522000D01*
X155196000Y-64522000D01*
X155196000Y-65538000D01*
G37*
X155196000Y-65538000D02*
X154180000Y-65538000D01*
X154180000Y-64522000D01*
X155196000Y-64522000D01*
X155196000Y-65538000D01*
G36*
X155196000Y-78238000D02*
G01*
X154180000Y-78238000D01*
X154180000Y-77222000D01*
X155196000Y-77222000D01*
X155196000Y-78238000D01*
G37*
X155196000Y-78238000D02*
X154180000Y-78238000D01*
X154180000Y-77222000D01*
X155196000Y-77222000D01*
X155196000Y-78238000D01*
G36*
X144020000Y-70618000D02*
G01*
X143004000Y-70618000D01*
X143004000Y-69602000D01*
X144020000Y-69602000D01*
X144020000Y-70618000D01*
G37*
X144020000Y-70618000D02*
X143004000Y-70618000D01*
X143004000Y-69602000D01*
X144020000Y-69602000D01*
X144020000Y-70618000D01*
G36*
X144020000Y-62998000D02*
G01*
X143004000Y-62998000D01*
X143004000Y-61982000D01*
X144020000Y-61982000D01*
X144020000Y-62998000D01*
G37*
X144020000Y-62998000D02*
X143004000Y-62998000D01*
X143004000Y-61982000D01*
X144020000Y-61982000D01*
X144020000Y-62998000D01*
G36*
X144020000Y-57918000D02*
G01*
X143004000Y-57918000D01*
X143004000Y-56902000D01*
X144020000Y-56902000D01*
X144020000Y-57918000D01*
G37*
X144020000Y-57918000D02*
X143004000Y-57918000D01*
X143004000Y-56902000D01*
X144020000Y-56902000D01*
X144020000Y-57918000D01*
G36*
X144020000Y-75698000D02*
G01*
X143004000Y-75698000D01*
X143004000Y-74682000D01*
X144020000Y-74682000D01*
X144020000Y-75698000D01*
G37*
X144020000Y-75698000D02*
X143004000Y-75698000D01*
X143004000Y-74682000D01*
X144020000Y-74682000D01*
X144020000Y-75698000D01*
G36*
X155196000Y-62998000D02*
G01*
X154180000Y-62998000D01*
X154180000Y-61982000D01*
X155196000Y-61982000D01*
X155196000Y-62998000D01*
G37*
X155196000Y-62998000D02*
X154180000Y-62998000D01*
X154180000Y-61982000D01*
X155196000Y-61982000D01*
X155196000Y-62998000D01*
G36*
X144020000Y-78238000D02*
G01*
X143004000Y-78238000D01*
X143004000Y-77222000D01*
X144020000Y-77222000D01*
X144020000Y-78238000D01*
G37*
X144020000Y-78238000D02*
X143004000Y-78238000D01*
X143004000Y-77222000D01*
X144020000Y-77222000D01*
X144020000Y-78238000D01*
G36*
X155196000Y-80778000D02*
G01*
X154180000Y-80778000D01*
X154180000Y-79762000D01*
X155196000Y-79762000D01*
X155196000Y-80778000D01*
G37*
X155196000Y-80778000D02*
X154180000Y-80778000D01*
X154180000Y-79762000D01*
X155196000Y-79762000D01*
X155196000Y-80778000D01*
G36*
X155196000Y-52838000D02*
G01*
X154180000Y-52838000D01*
X154180000Y-51822000D01*
X155196000Y-51822000D01*
X155196000Y-52838000D01*
G37*
X155196000Y-52838000D02*
X154180000Y-52838000D01*
X154180000Y-51822000D01*
X155196000Y-51822000D01*
X155196000Y-52838000D01*
%TD*%
D12*
%TO.C,LED19*%
X223900000Y-61425000D03*
X223900000Y-63175000D03*
X228300000Y-63175000D03*
X228300000Y-61425000D03*
D13*
X223600000Y-60700000D03*
X223600000Y-63900000D03*
X228600000Y-63900000D03*
X228600000Y-60700000D03*
%TD*%
D14*
%TO.C,D6*%
X167450000Y-84800000D03*
D15*
X165290000Y-84800000D03*
D16*
X172910000Y-84800000D03*
D14*
X170750000Y-84800000D03*
%TD*%
%TO.C,D9*%
X186450000Y-97800000D03*
D15*
X184290000Y-97800000D03*
D16*
X191910000Y-97800000D03*
D14*
X189750000Y-97800000D03*
%TD*%
D12*
%TO.C,LED1*%
X128900000Y-113425000D03*
X128900000Y-115175000D03*
X133300000Y-115175000D03*
X133300000Y-113425000D03*
D13*
X128600000Y-112700000D03*
X128600000Y-115900000D03*
X133600000Y-115900000D03*
X133600000Y-112700000D03*
%TD*%
D17*
%TO.C,D27*%
X296327893Y-172089405D03*
D18*
X298179374Y-173201887D03*
X301008026Y-174901513D03*
D16*
X302859507Y-176013995D03*
%TD*%
D12*
%TO.C,LED20*%
X242900000Y-121425000D03*
X242900000Y-123175000D03*
X247300000Y-123175000D03*
X247300000Y-121425000D03*
D13*
X242600000Y-120700000D03*
X242600000Y-123900000D03*
X247600000Y-123900000D03*
X247600000Y-120700000D03*
%TD*%
D19*
%TO.C,S15*%
X210910000Y-46760000D03*
D20*
X212180000Y-49300000D03*
X202020000Y-49300000D03*
D21*
X207100000Y-49300000D03*
D19*
X209640000Y-44220000D03*
X203290000Y-46760000D03*
X204560000Y-44220000D03*
D22*
X214185000Y-46760000D03*
X201258000Y-44220000D03*
%TD*%
D12*
%TO.C,LED16*%
X223900000Y-118425000D03*
X223900000Y-120175000D03*
X228300000Y-120175000D03*
X228300000Y-118425000D03*
D13*
X223600000Y-117700000D03*
X223600000Y-120900000D03*
X228600000Y-120900000D03*
X228600000Y-117700000D03*
%TD*%
D19*
%TO.C,S10*%
X185560000Y-65220000D03*
D21*
X188100000Y-70300000D03*
D19*
X191910000Y-67760000D03*
D20*
X183020000Y-70300000D03*
X193180000Y-70300000D03*
D19*
X184290000Y-67760000D03*
X190640000Y-65220000D03*
D22*
X195185000Y-67760000D03*
X182258000Y-65220000D03*
%TD*%
D19*
%TO.C,S3*%
X153910000Y-95760000D03*
X146290000Y-95760000D03*
X147560000Y-93220000D03*
D20*
X155180000Y-98300000D03*
X145020000Y-98300000D03*
D21*
X150100000Y-98300000D03*
D19*
X152640000Y-93220000D03*
D22*
X157185000Y-95760000D03*
X144258000Y-93220000D03*
%TD*%
D12*
%TO.C,LED23*%
X242900000Y-64425000D03*
X242900000Y-66175000D03*
X247300000Y-66175000D03*
X247300000Y-64425000D03*
D13*
X242600000Y-63700000D03*
X242600000Y-66900000D03*
X247600000Y-66900000D03*
X247600000Y-63700000D03*
%TD*%
D19*
%TO.C,S22*%
X248910000Y-76760000D03*
D20*
X250180000Y-79300000D03*
D21*
X245100000Y-79300000D03*
D19*
X241290000Y-76760000D03*
X242560000Y-74220000D03*
D20*
X240020000Y-79300000D03*
D19*
X247640000Y-74220000D03*
D22*
X252185000Y-76760000D03*
X239258000Y-74220000D03*
%TD*%
D19*
%TO.C,S20*%
X241290000Y-114760000D03*
X242560000Y-112220000D03*
X248910000Y-114760000D03*
D20*
X250180000Y-117300000D03*
D19*
X247640000Y-112220000D03*
D21*
X245100000Y-117300000D03*
D20*
X240020000Y-117300000D03*
D22*
X252185000Y-114760000D03*
X239258000Y-112220000D03*
%TD*%
D15*
%TO.C,D19*%
X222290000Y-65800000D03*
D14*
X224450000Y-65800000D03*
X227750000Y-65800000D03*
D16*
X229910000Y-65800000D03*
%TD*%
D19*
%TO.C,S16*%
X228640000Y-109220000D03*
X223560000Y-109220000D03*
D20*
X221020000Y-114300000D03*
D19*
X222290000Y-111760000D03*
D21*
X226100000Y-114300000D03*
D20*
X231180000Y-114300000D03*
D19*
X229910000Y-111760000D03*
D22*
X233185000Y-111760000D03*
X220258000Y-109220000D03*
%TD*%
D23*
%TO.C,D25*%
X275700830Y-163024949D03*
D24*
X277703547Y-163834099D03*
X280763253Y-165070301D03*
D16*
X282765970Y-165879451D03*
%TD*%
D12*
%TO.C,LED9*%
X185900000Y-93425000D03*
X185900000Y-95175000D03*
X190300000Y-95175000D03*
X190300000Y-93425000D03*
D13*
X185600000Y-92700000D03*
X185600000Y-95900000D03*
X190600000Y-95900000D03*
X190600000Y-92700000D03*
%TD*%
D12*
%TO.C,LED10*%
X185900000Y-74425000D03*
X185900000Y-76175000D03*
X190300000Y-76175000D03*
X190300000Y-74425000D03*
D13*
X185600000Y-73700000D03*
X185600000Y-76900000D03*
X190600000Y-76900000D03*
X190600000Y-73700000D03*
%TD*%
D20*
%TO.C,S9*%
X183020000Y-89300000D03*
D19*
X184290000Y-86760000D03*
D21*
X188100000Y-89300000D03*
D19*
X185560000Y-84220000D03*
X191910000Y-86760000D03*
X190640000Y-84220000D03*
D20*
X193180000Y-89300000D03*
D22*
X195185000Y-86760000D03*
X182258000Y-84220000D03*
%TD*%
D14*
%TO.C,D3*%
X148450000Y-106800000D03*
D15*
X146290000Y-106800000D03*
D16*
X153910000Y-106800000D03*
D14*
X151750000Y-106800000D03*
%TD*%
D19*
%TO.C,S19*%
X223560000Y-52220000D03*
X222290000Y-54760000D03*
X228640000Y-52220000D03*
D21*
X226100000Y-57300000D03*
D20*
X231180000Y-57300000D03*
X221020000Y-57300000D03*
D19*
X229910000Y-54760000D03*
D22*
X233185000Y-54760000D03*
X220258000Y-52220000D03*
%TD*%
D15*
%TO.C,D14*%
X203290000Y-76800000D03*
D14*
X205450000Y-76800000D03*
X208750000Y-76800000D03*
D16*
X210910000Y-76800000D03*
%TD*%
D15*
%TO.C,D17*%
X222290000Y-103800000D03*
D14*
X224450000Y-103800000D03*
D16*
X229910000Y-103800000D03*
D14*
X227750000Y-103800000D03*
%TD*%
D25*
%TO.C,LED27*%
X299961190Y-169168495D03*
X299059874Y-170668538D03*
X302831410Y-172934705D03*
X303732726Y-171434662D03*
D26*
X300077443Y-168392537D03*
X298429321Y-171135472D03*
X302715157Y-173710663D03*
X304363279Y-170967728D03*
%TD*%
D14*
%TO.C,D8*%
X186450000Y-116800000D03*
D15*
X184290000Y-116800000D03*
D16*
X191910000Y-116800000D03*
D14*
X189750000Y-116800000D03*
%TD*%
D19*
%TO.C,S4*%
X172910000Y-111760000D03*
D21*
X169100000Y-114300000D03*
D20*
X164020000Y-114300000D03*
D19*
X171640000Y-109220000D03*
X165290000Y-111760000D03*
D20*
X174180000Y-114300000D03*
D19*
X166560000Y-109220000D03*
D22*
X176185000Y-111760000D03*
X163258000Y-109220000D03*
%TD*%
D14*
%TO.C,D1*%
X129450000Y-117800000D03*
D15*
X127290000Y-117800000D03*
D14*
X132750000Y-117800000D03*
D16*
X134910000Y-117800000D03*
%TD*%
D12*
%TO.C,LED5*%
X166900000Y-99425000D03*
X166900000Y-101175000D03*
X171300000Y-101175000D03*
X171300000Y-99425000D03*
D13*
X166600000Y-98700000D03*
X166600000Y-101900000D03*
X171600000Y-101900000D03*
X171600000Y-98700000D03*
%TD*%
D12*
%TO.C,LED2*%
X147900000Y-121425000D03*
X147900000Y-123175000D03*
X152300000Y-123175000D03*
X152300000Y-121425000D03*
D13*
X147600000Y-120700000D03*
X147600000Y-123900000D03*
X152600000Y-123900000D03*
X152600000Y-120700000D03*
%TD*%
D12*
%TO.C,LED7*%
X166900000Y-61425000D03*
X166900000Y-63175000D03*
X171300000Y-63175000D03*
X171300000Y-61425000D03*
D13*
X166600000Y-60700000D03*
X166600000Y-63900000D03*
X171600000Y-63900000D03*
X171600000Y-60700000D03*
%TD*%
D12*
%TO.C,LED3*%
X147900000Y-102425000D03*
X147900000Y-104175000D03*
X152300000Y-104175000D03*
X152300000Y-102425000D03*
D13*
X147600000Y-101700000D03*
X147600000Y-104900000D03*
X152600000Y-104900000D03*
X152600000Y-101700000D03*
%TD*%
D12*
%TO.C,LED12*%
X204900000Y-110425000D03*
X204900000Y-112175000D03*
X209300000Y-112175000D03*
X209300000Y-110425000D03*
D13*
X204600000Y-109700000D03*
X204600000Y-112900000D03*
X209600000Y-112900000D03*
X209600000Y-109700000D03*
%TD*%
D14*
%TO.C,D22*%
X243450000Y-87800000D03*
D15*
X241290000Y-87800000D03*
D16*
X248910000Y-87800000D03*
D14*
X246750000Y-87800000D03*
%TD*%
D19*
%TO.C,S11*%
X185560000Y-46220000D03*
D20*
X183020000Y-51300000D03*
D19*
X184290000Y-48760000D03*
D20*
X193180000Y-51300000D03*
D21*
X188100000Y-51300000D03*
D19*
X191910000Y-48760000D03*
X190640000Y-46220000D03*
D22*
X195185000Y-48760000D03*
X182258000Y-46220000D03*
%TD*%
D15*
%TO.C,D16*%
X222290000Y-122800000D03*
D14*
X224450000Y-122800000D03*
D16*
X229910000Y-122800000D03*
D14*
X227750000Y-122800000D03*
%TD*%
D19*
%TO.C,S25*%
X279836430Y-152788802D03*
X281965455Y-150909505D03*
D21*
X282417500Y-156571100D03*
D19*
X286901571Y-155643304D03*
X286675548Y-152812507D03*
D20*
X277707406Y-154668099D03*
X287127594Y-158474101D03*
D27*
X289938098Y-156870141D03*
X278903893Y-149672554D03*
%TD*%
D28*
%TO.C,MCU1*%
X143258000Y-57410000D03*
D29*
X141480000Y-77730000D03*
D30*
X154942000Y-67570000D03*
D29*
X156720000Y-80270000D03*
D30*
X154942000Y-72650000D03*
D29*
X141480000Y-62490000D03*
D30*
X154942000Y-62490000D03*
D29*
X141480000Y-72650000D03*
D30*
X154942000Y-80270000D03*
D29*
X156720000Y-65030000D03*
D28*
X143258000Y-65030000D03*
D30*
X154942000Y-57410000D03*
D29*
X156720000Y-67570000D03*
D30*
X154942000Y-54870000D03*
D28*
X143258000Y-75190000D03*
D31*
X141480000Y-52330000D03*
D30*
X154942000Y-75190000D03*
D28*
X143258000Y-72650000D03*
D29*
X141480000Y-52330000D03*
X156720000Y-62490000D03*
X141480000Y-75190000D03*
D30*
X154942000Y-59950000D03*
D28*
X143258000Y-54870000D03*
D29*
X141480000Y-59950000D03*
D28*
X143258000Y-62490000D03*
X143258000Y-77730000D03*
X143258000Y-80270000D03*
X143258000Y-52330000D03*
D29*
X156720000Y-57410000D03*
D30*
X154942000Y-70110000D03*
D29*
X156720000Y-54870000D03*
X156720000Y-59950000D03*
X156720000Y-70110000D03*
X141480000Y-70110000D03*
X141480000Y-57410000D03*
D30*
X154942000Y-52330000D03*
D28*
X143258000Y-67570000D03*
D29*
X156720000Y-52330000D03*
D28*
X143258000Y-59950000D03*
D29*
X141480000Y-67570000D03*
D30*
X154942000Y-65030000D03*
D29*
X156720000Y-72650000D03*
D30*
X154942000Y-77730000D03*
D29*
X156720000Y-75190000D03*
X141480000Y-65030000D03*
X156720000Y-77730000D03*
D28*
X143258000Y-70110000D03*
D29*
X141480000Y-54870000D03*
X141480000Y-80270000D03*
D32*
X153926000Y-52330000D03*
X153926000Y-54870000D03*
X153926000Y-57410000D03*
X153926000Y-59950000D03*
X153926000Y-62490000D03*
X153926000Y-65030000D03*
X153926000Y-67570000D03*
X153926000Y-70110000D03*
X153926000Y-72650000D03*
X153926000Y-75190000D03*
X153926000Y-77730000D03*
X153926000Y-80270000D03*
D33*
X144274000Y-80270000D03*
X144274000Y-77730000D03*
X144274000Y-75190000D03*
X144274000Y-72650000D03*
X144274000Y-70110000D03*
X144274000Y-67570000D03*
X144274000Y-65030000D03*
X144274000Y-62490000D03*
X144274000Y-59950000D03*
X144274000Y-57410000D03*
X144274000Y-54870000D03*
X144274000Y-52330000D03*
%TD*%
D15*
%TO.C,D4*%
X165290000Y-122800000D03*
D14*
X167450000Y-122800000D03*
D16*
X172910000Y-122800000D03*
D14*
X170750000Y-122800000D03*
%TD*%
D12*
%TO.C,LED17*%
X223900000Y-99425000D03*
X223900000Y-101175000D03*
X228300000Y-101175000D03*
X228300000Y-99425000D03*
D13*
X223600000Y-98700000D03*
X223600000Y-101900000D03*
X228600000Y-101900000D03*
X228600000Y-98700000D03*
%TD*%
D19*
%TO.C,S23*%
X241290000Y-57760000D03*
D20*
X240020000Y-60300000D03*
D21*
X245100000Y-60300000D03*
D20*
X250180000Y-60300000D03*
D19*
X242560000Y-55220000D03*
X247640000Y-55220000D03*
X248910000Y-57760000D03*
D22*
X252185000Y-57760000D03*
X239258000Y-55220000D03*
%TD*%
D12*
%TO.C,LED13*%
X204900000Y-91425000D03*
X204900000Y-93175000D03*
X209300000Y-93175000D03*
X209300000Y-91425000D03*
D13*
X204600000Y-90700000D03*
X204600000Y-93900000D03*
X209600000Y-93900000D03*
X209600000Y-90700000D03*
%TD*%
D12*
%TO.C,LED21*%
X242900000Y-102425000D03*
X242900000Y-104175000D03*
X247300000Y-104175000D03*
X247300000Y-102425000D03*
D13*
X242600000Y-101700000D03*
X242600000Y-104900000D03*
X247600000Y-104900000D03*
X247600000Y-101700000D03*
%TD*%
D34*
%TO.C,TRRS*%
X262500000Y-60500000D03*
X262500000Y-53500000D03*
D35*
X260200000Y-63200000D03*
X264800000Y-63200000D03*
X260200000Y-62100000D03*
X264800000Y-62100000D03*
X260200000Y-58100000D03*
X264800000Y-58100000D03*
X260200000Y-55100000D03*
X264800000Y-55100000D03*
%TD*%
D15*
%TO.C,D15*%
X203290000Y-57800000D03*
D14*
X205450000Y-57800000D03*
X208750000Y-57800000D03*
D16*
X210910000Y-57800000D03*
%TD*%
D36*
%TO.C,OLED1*%
X152900000Y-84549000D03*
X150360000Y-84549000D03*
X147820000Y-84549000D03*
X145280000Y-84549000D03*
D37*
X152900000Y-86200000D03*
D38*
X150360000Y-86200000D03*
X147820000Y-86200000D03*
X145280000Y-86200000D03*
%TD*%
D15*
%TO.C,D20*%
X241290000Y-125800000D03*
D14*
X243450000Y-125800000D03*
X246750000Y-125800000D03*
D16*
X248910000Y-125800000D03*
%TD*%
D19*
%TO.C,S21*%
X248910000Y-95760000D03*
D20*
X250180000Y-98300000D03*
D19*
X247640000Y-93220000D03*
D21*
X245100000Y-98300000D03*
D20*
X240020000Y-98300000D03*
D19*
X241290000Y-95760000D03*
X242560000Y-93220000D03*
D22*
X252185000Y-95760000D03*
X239258000Y-93220000D03*
%TD*%
D12*
%TO.C,LED15*%
X204900000Y-53425000D03*
X204900000Y-55175000D03*
X209300000Y-55175000D03*
X209300000Y-53425000D03*
D13*
X204600000Y-52700000D03*
X204600000Y-55900000D03*
X209600000Y-55900000D03*
X209600000Y-52700000D03*
%TD*%
D19*
%TO.C,S2*%
X146290000Y-114760000D03*
D20*
X145020000Y-117300000D03*
D21*
X150100000Y-117300000D03*
D19*
X153910000Y-114760000D03*
X147560000Y-112220000D03*
D20*
X155180000Y-117300000D03*
D19*
X152640000Y-112220000D03*
D22*
X157185000Y-114760000D03*
X144258000Y-112220000D03*
%TD*%
D12*
%TO.C,LED6*%
X166900000Y-80425000D03*
X166900000Y-82175000D03*
X171300000Y-82175000D03*
X171300000Y-80425000D03*
D13*
X166600000Y-79700000D03*
X166600000Y-82900000D03*
X171600000Y-82900000D03*
X171600000Y-79700000D03*
%TD*%
D14*
%TO.C,D2*%
X148450000Y-125800000D03*
D15*
X146290000Y-125800000D03*
D14*
X151750000Y-125800000D03*
D16*
X153910000Y-125800000D03*
%TD*%
D20*
%TO.C,S8*%
X193180000Y-108300000D03*
D19*
X191910000Y-105760000D03*
D21*
X188100000Y-108300000D03*
D19*
X185560000Y-103220000D03*
X190640000Y-103220000D03*
X184290000Y-105760000D03*
D20*
X183020000Y-108300000D03*
D22*
X195185000Y-105760000D03*
X182258000Y-103220000D03*
%TD*%
D15*
%TO.C,D5*%
X165290000Y-103800000D03*
D14*
X167450000Y-103800000D03*
X170750000Y-103800000D03*
D16*
X172910000Y-103800000D03*
%TD*%
D19*
%TO.C,S13*%
X204560000Y-82220000D03*
D20*
X202020000Y-87300000D03*
D21*
X207100000Y-87300000D03*
D19*
X209640000Y-82220000D03*
D20*
X212180000Y-87300000D03*
D19*
X210910000Y-84760000D03*
X203290000Y-84760000D03*
D22*
X214185000Y-84760000D03*
X201258000Y-82220000D03*
%TD*%
D15*
%TO.C,D7*%
X165290000Y-65800000D03*
D14*
X167450000Y-65800000D03*
X170750000Y-65800000D03*
D16*
X172910000Y-65800000D03*
%TD*%
D20*
%TO.C,S1*%
X136180000Y-109300000D03*
X126020000Y-109300000D03*
D19*
X133640000Y-104220000D03*
X127290000Y-106760000D03*
D21*
X131100000Y-109300000D03*
D19*
X134910000Y-106760000D03*
X128560000Y-104220000D03*
D22*
X138185000Y-106760000D03*
X125258000Y-104220000D03*
%TD*%
D15*
%TO.C,D13*%
X203290000Y-95800000D03*
D14*
X205450000Y-95800000D03*
D16*
X210910000Y-95800000D03*
D14*
X208750000Y-95800000D03*
%TD*%
D20*
%TO.C,S5*%
X174180000Y-95300000D03*
D19*
X172910000Y-92760000D03*
D20*
X164020000Y-95300000D03*
D19*
X165290000Y-92760000D03*
X166560000Y-90220000D03*
X171640000Y-90220000D03*
D21*
X169100000Y-95300000D03*
D22*
X176185000Y-92760000D03*
X163258000Y-90220000D03*
%TD*%
D18*
%TO.C,D26*%
X288393674Y-189487987D03*
D17*
X286542193Y-188375505D03*
D16*
X293073807Y-192300095D03*
D18*
X291222326Y-191187613D03*
%TD*%
D39*
%TO.C,J3*%
X293800000Y-78050000D03*
X293800000Y-84550000D03*
X293550000Y-92300000D03*
X293800000Y-99800000D03*
X293800000Y-107050000D03*
X293800000Y-114550000D03*
X293800000Y-122050000D03*
X293800000Y-127800000D03*
%TD*%
D14*
%TO.C,D18*%
X224450000Y-84800000D03*
D15*
X222290000Y-84800000D03*
D16*
X229910000Y-84800000D03*
D14*
X227750000Y-84800000D03*
%TD*%
D25*
%TO.C,LED26*%
X290175490Y-185454695D03*
X289274174Y-186954738D03*
X293045710Y-189220905D03*
X293947026Y-187720862D03*
D26*
X290291743Y-184678737D03*
X288643621Y-187421672D03*
X292929457Y-189996863D03*
X294577579Y-187253928D03*
%TD*%
D19*
%TO.C,S27*%
X308545504Y-166550790D03*
D20*
X299617090Y-164149307D03*
X308325910Y-169382093D03*
D19*
X308765098Y-163719487D03*
X302013889Y-162626200D03*
X304410688Y-161103093D03*
D21*
X303971500Y-166765700D03*
D40*
X311352727Y-168237540D03*
X301580322Y-159402438D03*
%TD*%
D41*
%TO.C,LED24*%
X271714976Y-177188080D03*
X271059415Y-178810651D03*
X275139024Y-180458920D03*
X275794585Y-178836349D03*
D42*
X271708411Y-176403489D03*
X270509670Y-179370478D03*
X275145589Y-181243511D03*
X276344330Y-178276522D03*
%TD*%
D19*
%TO.C,S6*%
X166560000Y-71220000D03*
X165290000Y-73760000D03*
D20*
X174180000Y-76300000D03*
D19*
X172910000Y-73760000D03*
D21*
X169100000Y-76300000D03*
D20*
X164020000Y-76300000D03*
D19*
X171640000Y-71220000D03*
D22*
X176185000Y-73760000D03*
X163258000Y-71220000D03*
%TD*%
D39*
%TO.C,J4*%
X311800000Y-78050000D03*
X311800000Y-84550000D03*
X311550000Y-92300000D03*
X311800000Y-99800000D03*
X311800000Y-107050000D03*
X311800000Y-114550000D03*
X311800000Y-122050000D03*
X311800000Y-127800000D03*
%TD*%
D20*
%TO.C,S12*%
X212180000Y-106300000D03*
D19*
X209640000Y-101220000D03*
X204560000Y-101220000D03*
X203290000Y-103760000D03*
D20*
X202020000Y-106300000D03*
D21*
X207100000Y-106300000D03*
D19*
X210910000Y-103760000D03*
D22*
X214185000Y-103760000D03*
X201258000Y-101220000D03*
%TD*%
D19*
%TO.C,S7*%
X172910000Y-54760000D03*
X166560000Y-52220000D03*
D20*
X174180000Y-57300000D03*
X164020000Y-57300000D03*
D21*
X169100000Y-57300000D03*
D19*
X165290000Y-54760000D03*
X171640000Y-52220000D03*
D22*
X176185000Y-54760000D03*
X163258000Y-52220000D03*
%TD*%
D20*
%TO.C,S14*%
X212180000Y-68300000D03*
X202020000Y-68300000D03*
D19*
X210910000Y-65760000D03*
D21*
X207100000Y-68300000D03*
D19*
X203290000Y-65760000D03*
X209640000Y-63220000D03*
X204560000Y-63220000D03*
D22*
X214185000Y-65760000D03*
X201258000Y-63220000D03*
%TD*%
D12*
%TO.C,LED11*%
X185900000Y-55425000D03*
X185900000Y-57175000D03*
X190300000Y-57175000D03*
X190300000Y-55425000D03*
D13*
X185600000Y-54700000D03*
X185600000Y-57900000D03*
X190600000Y-57900000D03*
X190600000Y-54700000D03*
%TD*%
D20*
%TO.C,S18*%
X221020000Y-76300000D03*
D19*
X228640000Y-71220000D03*
D20*
X231180000Y-76300000D03*
D19*
X229910000Y-73760000D03*
X222290000Y-73760000D03*
D21*
X226100000Y-76300000D03*
D19*
X223560000Y-71220000D03*
D22*
X233185000Y-73760000D03*
X220258000Y-71220000D03*
%TD*%
D15*
%TO.C,D21*%
X241290000Y-106800000D03*
D14*
X243450000Y-106800000D03*
D16*
X248910000Y-106800000D03*
D14*
X246750000Y-106800000D03*
%TD*%
%TO.C,D11*%
X186450000Y-59800000D03*
D15*
X184290000Y-59800000D03*
D14*
X189750000Y-59800000D03*
D16*
X191910000Y-59800000D03*
%TD*%
D21*
%TO.C,S17*%
X226100000Y-95300000D03*
D19*
X228640000Y-90220000D03*
X222290000Y-92760000D03*
X223560000Y-90220000D03*
D20*
X231180000Y-95300000D03*
X221020000Y-95300000D03*
D19*
X229910000Y-92760000D03*
D22*
X233185000Y-92760000D03*
X220258000Y-90220000D03*
%TD*%
D41*
%TO.C,LED25*%
X278832476Y-159571580D03*
X278176915Y-161194151D03*
X282256524Y-162842420D03*
X282912085Y-161219849D03*
D42*
X278825911Y-158786989D03*
X277627170Y-161753978D03*
X282263089Y-163627011D03*
X283461830Y-160660022D03*
%TD*%
D12*
%TO.C,LED14*%
X204900000Y-72425000D03*
X204900000Y-74175000D03*
X209300000Y-74175000D03*
X209300000Y-72425000D03*
D13*
X204600000Y-71700000D03*
X204600000Y-74900000D03*
X209600000Y-74900000D03*
X209600000Y-71700000D03*
%TD*%
D12*
%TO.C,LED22*%
X242900000Y-83425000D03*
X242900000Y-85175000D03*
X247300000Y-85175000D03*
X247300000Y-83425000D03*
D13*
X242600000Y-82700000D03*
X242600000Y-85900000D03*
X247600000Y-85900000D03*
X247600000Y-82700000D03*
%TD*%
D23*
%TO.C,D24*%
X268583230Y-180641349D03*
D24*
X270585947Y-181450499D03*
X273645653Y-182686701D03*
D16*
X275648370Y-183495851D03*
%TD*%
D19*
%TO.C,S24*%
X279558048Y-170429007D03*
X272718930Y-170405302D03*
D20*
X280010094Y-176090601D03*
D21*
X275300000Y-174187600D03*
D19*
X279784071Y-173259804D03*
X274847955Y-168526005D03*
D20*
X270589906Y-172284599D03*
D27*
X282820598Y-174486641D03*
X271786393Y-167289054D03*
%TD*%
D12*
%TO.C,LED4*%
X166900000Y-118425000D03*
X166900000Y-120175000D03*
X171300000Y-120175000D03*
X171300000Y-118425000D03*
D13*
X166600000Y-117700000D03*
X166600000Y-120900000D03*
X171600000Y-120900000D03*
X171600000Y-117700000D03*
%TD*%
D12*
%TO.C,LED18*%
X223900000Y-80425000D03*
X223900000Y-82175000D03*
X228300000Y-82175000D03*
X228300000Y-80425000D03*
D13*
X223600000Y-79700000D03*
X223600000Y-82900000D03*
X228600000Y-82900000D03*
X228600000Y-79700000D03*
%TD*%
D15*
%TO.C,D10*%
X184290000Y-78800000D03*
D14*
X186450000Y-78800000D03*
X189750000Y-78800000D03*
D16*
X191910000Y-78800000D03*
%TD*%
D20*
%TO.C,S26*%
X298540210Y-185668293D03*
D19*
X298979398Y-180005687D03*
D20*
X289831390Y-180435507D03*
D19*
X294624988Y-177389293D03*
X292228189Y-178912400D03*
X298759804Y-182836990D03*
D21*
X294185800Y-183051900D03*
D40*
X301567027Y-184523740D03*
X291794622Y-175688638D03*
%TD*%
D14*
%TO.C,D23*%
X243450000Y-68800000D03*
D15*
X241290000Y-68800000D03*
D16*
X248910000Y-68800000D03*
D14*
X246750000Y-68800000D03*
%TD*%
%TO.C,D12*%
X205450000Y-114800000D03*
D15*
X203290000Y-114800000D03*
D14*
X208750000Y-114800000D03*
D16*
X210910000Y-114800000D03*
%TD*%
D12*
%TO.C,LED8*%
X185900000Y-112425000D03*
X185900000Y-114175000D03*
X190300000Y-114175000D03*
X190300000Y-112425000D03*
D13*
X185600000Y-111700000D03*
X185600000Y-114900000D03*
X190600000Y-114900000D03*
X190600000Y-111700000D03*
%TD*%
D43*
%TO.C,J2*%
X275550000Y-78200000D03*
X279350000Y-78200000D03*
X275550000Y-84700000D03*
X279350000Y-84700000D03*
X275550000Y-92450000D03*
X279350000Y-92450000D03*
X279350000Y-107200000D03*
X279350000Y-99950000D03*
X275550000Y-99950000D03*
X275550000Y-107200000D03*
X275550000Y-114700000D03*
X279350000Y-114700000D03*
X275550000Y-122200000D03*
X279350000Y-122200000D03*
X275550000Y-127950000D03*
X279350000Y-127950000D03*
%TD*%
%TO.C,J1*%
X256100000Y-69000000D03*
X259900000Y-69000000D03*
X256100000Y-75500000D03*
X259900000Y-75500000D03*
X259900000Y-83250000D03*
X256100000Y-83250000D03*
X259900000Y-90750000D03*
X259900000Y-98000000D03*
X256100000Y-90750000D03*
X256100000Y-98000000D03*
X259900000Y-105500000D03*
X256100000Y-105500000D03*
X259900000Y-113000000D03*
X256100000Y-113000000D03*
X259900000Y-118750000D03*
X256100000Y-118750000D03*
%TD*%
M02*
