%TF.GenerationSoftware,KiCad,Pcbnew,6.0.10-86aedd382b~118~ubuntu22.04.1*%
%TF.CreationDate,2023-01-31T17:25:27-07:00*%
%TF.ProjectId,scaarix_flow,73636161-7269-4785-9f66-6c6f772e6b69,v1.0.0*%
%TF.SameCoordinates,Original*%
%TF.FileFunction,Copper,L2,Bot*%
%TF.FilePolarity,Positive*%
%FSLAX46Y46*%
G04 Gerber Fmt 4.6, Leading zero omitted, Abs format (unit mm)*
G04 Created by KiCad (PCBNEW 6.0.10-86aedd382b~118~ubuntu22.04.1) date 2023-01-31 17:25:27*
%MOMM*%
%LPD*%
G01*
G04 APERTURE LIST*
G04 Aperture macros list*
%AMRotRect*
0 Rectangle, with rotation*
0 The origin of the aperture is its center*
0 $1 length*
0 $2 width*
0 $3 Rotation angle, in degrees counterclockwise*
0 Add horizontal line*
21,1,$1,$2,0,0,$3*%
%AMFreePoly0*
4,1,5,0.125000,-0.500000,-0.125000,-0.500000,-0.125000,0.500000,0.125000,0.500000,0.125000,-0.500000,0.125000,-0.500000,$1*%
%AMFreePoly1*
4,1,6,0.600000,0.200000,0.000000,-0.400000,-0.600000,0.200000,-0.600000,0.400000,0.600000,0.400000,0.600000,0.200000,0.600000,0.200000,$1*%
%AMFreePoly2*
4,1,49,0.004773,0.123721,0.009154,0.124665,0.028961,0.117240,0.062500,0.108253,0.068237,0.102516,0.075053,0.099961,0.087617,0.083136,0.108253,0.062500,0.111178,0.051584,0.117161,0.043572,0.118539,0.024114,0.125000,0.000000,0.121239,-0.014035,0.122131,-0.026629,0.113759,-0.041951,0.108253,-0.062500,0.095644,-0.075109,0.088389,-0.088388,-0.641000,-0.817776,-0.641000,-4.770224,
0.088389,-5.499612,0.109852,-5.528356,0.124665,-5.597154,0.099961,-5.663053,0.043572,-5.705161,-0.026629,-5.710131,-0.088388,-5.676389,-0.854388,-4.910388,-0.867707,-4.892552,-0.871189,-4.889530,-0.871982,-4.886826,-0.875852,-4.881644,-0.882331,-4.851549,-0.891000,-4.822000,-0.891000,-0.766000,-0.887805,-0.743969,-0.888131,-0.739371,-0.886780,-0.736898,-0.885852,-0.730498,-0.869151,-0.704632,
-0.854388,-0.677612,-0.088388,0.088389,-0.064606,0.106147,-0.062500,0.108253,-0.061385,0.108552,-0.059644,0.109852,-0.043806,0.113262,0.000000,0.125000,0.004773,0.123721,0.004773,0.123721,$1*%
%AMFreePoly3*
4,1,6,0.600000,-0.250000,-0.600000,-0.250000,-0.600000,1.000000,0.000000,0.400000,0.600000,1.000000,0.600000,-0.250000,0.600000,-0.250000,$1*%
%AMFreePoly4*
4,1,22,0.500000,-0.850000,0.000000,-0.850000,0.000000,-0.845033,-0.079941,-0.843568,-0.215256,-0.801293,-0.333266,-0.722738,-0.424486,-0.614219,-0.481581,-0.484460,-0.499164,-0.350000,-0.500000,-0.350000,-0.500000,0.350000,-0.499164,0.350000,-0.499963,0.356109,-0.478152,0.496186,-0.417904,0.624511,-0.324060,0.730769,-0.204165,0.806417,-0.067858,0.845374,0.000000,0.844959,0.000000,0.850000,
0.500000,0.850000,0.500000,-0.850000,0.500000,-0.850000,$1*%
%AMFreePoly5*
4,1,20,-0.850000,0.850000,0.000000,0.850000,0.115358,0.842136,0.293503,0.797719,0.457955,0.716085,0.601041,0.601041,0.716085,0.457955,0.797719,0.293503,0.842136,0.115358,0.850000,0.000000,0.842136,-0.115358,0.797719,-0.293503,0.716085,-0.457955,0.601041,-0.601041,0.457955,-0.716085,0.293503,-0.797719,0.115358,-0.842136,0.000000,-0.850000,-0.850000,-0.850000,-0.850000,0.850000,
-0.850000,0.850000,$1*%
G04 Aperture macros list end*
%TA.AperFunction,SMDPad,CuDef*%
%ADD10R,0.900000X1.200000*%
%TD*%
%TA.AperFunction,ComponentPad*%
%ADD11R,1.778000X1.778000*%
%TD*%
%TA.AperFunction,ComponentPad*%
%ADD12C,1.905000*%
%TD*%
%TA.AperFunction,ComponentPad*%
%ADD13RotRect,1.778000X1.778000X329.000000*%
%TD*%
%TA.AperFunction,SMDPad,CuDef*%
%ADD14RotRect,0.900000X1.200000X329.000000*%
%TD*%
%TA.AperFunction,SMDPad,CuDef*%
%ADD15R,2.550000X2.500000*%
%TD*%
%TA.AperFunction,ComponentPad*%
%ADD16RotRect,1.778000X1.778000X338.000000*%
%TD*%
%TA.AperFunction,SMDPad,CuDef*%
%ADD17RotRect,0.900000X1.200000X338.000000*%
%TD*%
%TA.AperFunction,SMDPad,CuDef*%
%ADD18RotRect,2.550000X2.500000X338.000000*%
%TD*%
%TA.AperFunction,SMDPad,CuDef*%
%ADD19FreePoly0,270.000000*%
%TD*%
%TA.AperFunction,SMDPad,CuDef*%
%ADD20FreePoly0,90.000000*%
%TD*%
%TA.AperFunction,ComponentPad*%
%ADD21R,1.600000X1.600000*%
%TD*%
%TA.AperFunction,ComponentPad*%
%ADD22C,1.600000*%
%TD*%
%TA.AperFunction,SMDPad,CuDef*%
%ADD23FreePoly1,270.000000*%
%TD*%
%TA.AperFunction,SMDPad,CuDef*%
%ADD24FreePoly1,90.000000*%
%TD*%
%TA.AperFunction,ComponentPad*%
%ADD25C,0.800000*%
%TD*%
%TA.AperFunction,SMDPad,CuDef*%
%ADD26FreePoly2,270.000000*%
%TD*%
%TA.AperFunction,SMDPad,CuDef*%
%ADD27FreePoly3,90.000000*%
%TD*%
%TA.AperFunction,SMDPad,CuDef*%
%ADD28FreePoly2,90.000000*%
%TD*%
%TA.AperFunction,SMDPad,CuDef*%
%ADD29FreePoly3,270.000000*%
%TD*%
%TA.AperFunction,ComponentPad*%
%ADD30O,1.600000X2.200000*%
%TD*%
%TA.AperFunction,SMDPad,CuDef*%
%ADD31FreePoly4,270.000000*%
%TD*%
%TA.AperFunction,ComponentPad*%
%ADD32R,1.700000X1.700000*%
%TD*%
%TA.AperFunction,ComponentPad*%
%ADD33FreePoly5,270.000000*%
%TD*%
%TA.AperFunction,ComponentPad*%
%ADD34R,2.000000X2.000000*%
%TD*%
%TA.AperFunction,SMDPad,CuDef*%
%ADD35RotRect,2.550000X2.500000X329.000000*%
%TD*%
%TA.AperFunction,SMDPad,CuDef*%
%ADD36R,2.600000X1.000000*%
%TD*%
%TA.AperFunction,SMDPad,CuDef*%
%ADD37R,2.000000X1.200000*%
%TD*%
%TA.AperFunction,SMDPad,CuDef*%
%ADD38R,2.200000X2.000000*%
%TD*%
%TA.AperFunction,ComponentPad*%
%ADD39R,6.000000X2.000000*%
%TD*%
%TA.AperFunction,SMDPad,CuDef*%
%ADD40RotRect,2.600000X1.000000X158.000000*%
%TD*%
%TA.AperFunction,SMDPad,CuDef*%
%ADD41RotRect,2.000000X1.200000X158.000000*%
%TD*%
%TA.AperFunction,SMDPad,CuDef*%
%ADD42RotRect,2.600000X1.000000X149.000000*%
%TD*%
%TA.AperFunction,SMDPad,CuDef*%
%ADD43RotRect,2.000000X1.200000X149.000000*%
%TD*%
%TA.AperFunction,ViaPad*%
%ADD44C,0.800000*%
%TD*%
%TA.AperFunction,Conductor*%
%ADD45C,0.250000*%
%TD*%
G04 APERTURE END LIST*
D10*
%TO.P,D6,1*%
%TO.N,P4*%
X167450000Y-84800000D03*
D11*
X165290000Y-84800000D03*
D12*
%TO.P,D6,2*%
%TO.N,pinkie_top*%
X172910000Y-84800000D03*
D10*
X170750000Y-84800000D03*
%TD*%
%TO.P,D9,1*%
%TO.N,P0*%
X186450000Y-97800000D03*
D11*
X184290000Y-97800000D03*
D12*
%TO.P,D9,2*%
%TO.N,ring_home*%
X191910000Y-97800000D03*
D10*
X189750000Y-97800000D03*
%TD*%
D13*
%TO.P,D27,1*%
%TO.N,P18*%
X296327893Y-172089405D03*
D14*
X298179374Y-173201887D03*
%TO.P,D27,2*%
%TO.N,2_top*%
X301008026Y-174901513D03*
D12*
X302859507Y-176013995D03*
%TD*%
D15*
%TO.P,S15,1*%
%TO.N,middle_num*%
X200015000Y-46760000D03*
%TO.P,S15,2*%
%TO.N,P9*%
X212942000Y-44220000D03*
%TD*%
%TO.P,S10,1*%
%TO.N,ring_top*%
X181015000Y-67760000D03*
%TO.P,S10,2*%
%TO.N,P8*%
X193942000Y-65220000D03*
%TD*%
%TO.P,S3,1*%
%TO.N,tab_home*%
X143015000Y-95760000D03*
%TO.P,S3,2*%
%TO.N,P5*%
X155942000Y-93220000D03*
%TD*%
%TO.P,S22,1*%
%TO.N,far_top*%
X238015000Y-76760000D03*
%TO.P,S22,2*%
%TO.N,P20*%
X250942000Y-74220000D03*
%TD*%
%TO.P,S20,1*%
%TO.N,far_bottom*%
X238015000Y-114760000D03*
%TO.P,S20,2*%
%TO.N,P20*%
X250942000Y-112220000D03*
%TD*%
D11*
%TO.P,D19,1*%
%TO.N,P14*%
X222290000Y-65800000D03*
D10*
X224450000Y-65800000D03*
%TO.P,D19,2*%
%TO.N,index_num*%
X227750000Y-65800000D03*
D12*
X229910000Y-65800000D03*
%TD*%
D15*
%TO.P,S16,1*%
%TO.N,index_bottom*%
X219015000Y-111760000D03*
%TO.P,S16,2*%
%TO.N,P21*%
X231942000Y-109220000D03*
%TD*%
D16*
%TO.P,D25,1*%
%TO.N,P18*%
X275700830Y-163024949D03*
D17*
X277703547Y-163834099D03*
%TO.P,D25,2*%
%TO.N,1_top*%
X280763253Y-165070301D03*
D12*
X282765970Y-165879451D03*
%TD*%
D15*
%TO.P,S9,1*%
%TO.N,ring_home*%
X181015000Y-86760000D03*
%TO.P,S9,2*%
%TO.N,P8*%
X193942000Y-84220000D03*
%TD*%
D11*
%TO.P,D3,1*%
%TO.N,P0*%
X146290000Y-106800000D03*
D10*
X148450000Y-106800000D03*
%TO.P,D3,2*%
%TO.N,tab_home*%
X151750000Y-106800000D03*
D12*
X153910000Y-106800000D03*
%TD*%
D15*
%TO.P,S19,1*%
%TO.N,index_num*%
X219015000Y-54760000D03*
%TO.P,S19,2*%
%TO.N,P21*%
X231942000Y-52220000D03*
%TD*%
D10*
%TO.P,D14,1*%
%TO.N,P4*%
X205450000Y-76800000D03*
D11*
X203290000Y-76800000D03*
D10*
%TO.P,D14,2*%
%TO.N,middle_top*%
X208750000Y-76800000D03*
D12*
X210910000Y-76800000D03*
%TD*%
D10*
%TO.P,D17,1*%
%TO.N,P0*%
X224450000Y-103800000D03*
D11*
X222290000Y-103800000D03*
D12*
%TO.P,D17,2*%
%TO.N,index_home*%
X229910000Y-103800000D03*
D10*
X227750000Y-103800000D03*
%TD*%
D11*
%TO.P,D8,1*%
%TO.N,P15*%
X184290000Y-116800000D03*
D10*
X186450000Y-116800000D03*
D12*
%TO.P,D8,2*%
%TO.N,ring_bottom*%
X191910000Y-116800000D03*
D10*
X189750000Y-116800000D03*
%TD*%
D15*
%TO.P,S4,1*%
%TO.N,pinkie_bottom*%
X162015000Y-111760000D03*
%TO.P,S4,2*%
%TO.N,P6*%
X174942000Y-109220000D03*
%TD*%
D11*
%TO.P,D1,1*%
%TO.N,P15*%
X127290000Y-117800000D03*
D10*
X129450000Y-117800000D03*
%TO.P,D1,2*%
%TO.N,single_bottom*%
X132750000Y-117800000D03*
D12*
X134910000Y-117800000D03*
%TD*%
D11*
%TO.P,D22,1*%
%TO.N,P4*%
X241290000Y-87800000D03*
D10*
X243450000Y-87800000D03*
D12*
%TO.P,D22,2*%
%TO.N,far_top*%
X248910000Y-87800000D03*
D10*
X246750000Y-87800000D03*
%TD*%
D15*
%TO.P,S11,1*%
%TO.N,ring_num*%
X181015000Y-48760000D03*
%TO.P,S11,2*%
%TO.N,P8*%
X193942000Y-46220000D03*
%TD*%
D10*
%TO.P,D16,1*%
%TO.N,P15*%
X224450000Y-122800000D03*
D11*
X222290000Y-122800000D03*
D12*
%TO.P,D16,2*%
%TO.N,index_bottom*%
X229910000Y-122800000D03*
D10*
X227750000Y-122800000D03*
%TD*%
D18*
%TO.P,S25,1*%
%TO.N,1_top*%
X276799903Y-151561965D03*
%TO.P,S25,2*%
%TO.N,P10*%
X289737110Y-154049458D03*
%TD*%
D19*
%TO.P,MCU1,*%
%TO.N,*%
X155450000Y-57410000D03*
X155450000Y-62490000D03*
D20*
X142750000Y-52330000D03*
D21*
X156720000Y-52330000D03*
D19*
X155450000Y-72650000D03*
D22*
X141480000Y-77730000D03*
D23*
X154942000Y-65030000D03*
D20*
X142750000Y-80270000D03*
D19*
X155450000Y-65030000D03*
D20*
X142750000Y-57410000D03*
D23*
X154942000Y-54870000D03*
D20*
X142750000Y-65030000D03*
D24*
X143258000Y-57410000D03*
D20*
X142750000Y-72650000D03*
D19*
X155450000Y-67570000D03*
D23*
X154942000Y-52330000D03*
D22*
X156720000Y-80270000D03*
D23*
X154942000Y-57410000D03*
D20*
X142750000Y-59950000D03*
D23*
X154942000Y-59950000D03*
D24*
X143258000Y-62490000D03*
D22*
X141480000Y-62490000D03*
D24*
X143258000Y-80270000D03*
D20*
X142750000Y-54870000D03*
X142750000Y-67570000D03*
D23*
X154942000Y-72650000D03*
D19*
X155450000Y-77730000D03*
D22*
X141480000Y-72650000D03*
X156720000Y-65030000D03*
X156720000Y-67570000D03*
X141480000Y-52330000D03*
D19*
X155450000Y-54870000D03*
D24*
X143258000Y-75190000D03*
D22*
X156720000Y-62490000D03*
D23*
X154942000Y-67570000D03*
D19*
X155450000Y-80270000D03*
D22*
X141480000Y-75190000D03*
D19*
X155450000Y-70110000D03*
D22*
X141480000Y-59950000D03*
D24*
X143258000Y-52330000D03*
D20*
X142750000Y-77730000D03*
D19*
X155450000Y-59950000D03*
X155450000Y-52330000D03*
D23*
X154942000Y-77730000D03*
X154942000Y-80270000D03*
D20*
X142750000Y-62490000D03*
D22*
X156720000Y-57410000D03*
D23*
X154942000Y-75190000D03*
D24*
X143258000Y-72650000D03*
D23*
X154942000Y-70110000D03*
D22*
X156720000Y-54870000D03*
X156720000Y-59950000D03*
X156720000Y-70110000D03*
D24*
X143258000Y-77730000D03*
X143258000Y-70110000D03*
D19*
X155450000Y-75190000D03*
D20*
X142750000Y-75190000D03*
D22*
X141480000Y-70110000D03*
X141480000Y-57410000D03*
D24*
X143258000Y-59950000D03*
X143258000Y-65030000D03*
X143258000Y-67570000D03*
D22*
X156720000Y-52330000D03*
X141480000Y-67570000D03*
X156720000Y-72650000D03*
X156720000Y-75190000D03*
X141480000Y-65030000D03*
D24*
X143258000Y-54870000D03*
D22*
X156720000Y-77730000D03*
D20*
X142750000Y-70110000D03*
D23*
X154942000Y-62490000D03*
D22*
X141480000Y-54870000D03*
X141480000Y-80270000D03*
D25*
%TO.P,MCU1,1*%
%TO.N,RAW*%
X149862000Y-52330000D03*
D26*
X149862000Y-52330000D03*
D27*
X144274000Y-52330000D03*
%TO.P,MCU1,2*%
%TO.N,GND*%
X144274000Y-54870000D03*
D25*
X149862000Y-54870000D03*
D26*
X149862000Y-54870000D03*
%TO.P,MCU1,3*%
%TO.N,RST*%
X149862000Y-57410000D03*
D27*
X144274000Y-57410000D03*
D25*
X149862000Y-57410000D03*
D27*
%TO.P,MCU1,4*%
%TO.N,VCC*%
X144274000Y-59950000D03*
D25*
X149862000Y-59950000D03*
D26*
X149862000Y-59950000D03*
D25*
%TO.P,MCU1,5*%
%TO.N,P21*%
X149862000Y-62490000D03*
D26*
X149862000Y-62490000D03*
D27*
X144274000Y-62490000D03*
%TO.P,MCU1,6*%
%TO.N,P20*%
X144274000Y-65030000D03*
D25*
X149862000Y-65030000D03*
D26*
X149862000Y-65030000D03*
%TO.P,MCU1,7*%
%TO.N,P19*%
X149862000Y-67570000D03*
D27*
X144274000Y-67570000D03*
D25*
X149862000Y-67570000D03*
D27*
%TO.P,MCU1,8*%
%TO.N,P18*%
X144274000Y-70110000D03*
D26*
X149862000Y-70110000D03*
D25*
X149862000Y-70110000D03*
%TO.P,MCU1,9*%
%TO.N,P15*%
X149862000Y-72650000D03*
D26*
X149862000Y-72650000D03*
D27*
X144274000Y-72650000D03*
D25*
%TO.P,MCU1,10*%
%TO.N,P14*%
X149862000Y-75190000D03*
D26*
X149862000Y-75190000D03*
D27*
X144274000Y-75190000D03*
D25*
%TO.P,MCU1,11*%
%TO.N,P16*%
X149862000Y-77730000D03*
D26*
X149862000Y-77730000D03*
D27*
X144274000Y-77730000D03*
D26*
%TO.P,MCU1,12*%
%TO.N,P10*%
X149862000Y-80270000D03*
D25*
X149862000Y-80270000D03*
D27*
X144274000Y-80270000D03*
D25*
%TO.P,MCU1,13*%
%TO.N,P1*%
X148338000Y-80270000D03*
D28*
X148338000Y-80270000D03*
D29*
X153926000Y-80270000D03*
D25*
%TO.P,MCU1,14*%
%TO.N,P0*%
X148338000Y-77730000D03*
D29*
X153926000Y-77730000D03*
D28*
X148338000Y-77730000D03*
D29*
%TO.P,MCU1,15*%
%TO.N,GND*%
X153926000Y-75190000D03*
D28*
X148338000Y-75190000D03*
D25*
X148338000Y-75190000D03*
D29*
%TO.P,MCU1,16*%
X153926000Y-72650000D03*
D28*
X148338000Y-72650000D03*
D25*
X148338000Y-72650000D03*
D28*
%TO.P,MCU1,17*%
%TO.N,P2*%
X148338000Y-70110000D03*
D25*
X148338000Y-70110000D03*
D29*
X153926000Y-70110000D03*
D25*
%TO.P,MCU1,18*%
%TO.N,P3*%
X148338000Y-67570000D03*
D29*
X153926000Y-67570000D03*
D28*
X148338000Y-67570000D03*
%TO.P,MCU1,19*%
%TO.N,P4*%
X148338000Y-65030000D03*
D25*
X148338000Y-65030000D03*
D29*
X153926000Y-65030000D03*
%TO.P,MCU1,20*%
%TO.N,P5*%
X153926000Y-62490000D03*
D25*
X148338000Y-62490000D03*
D28*
X148338000Y-62490000D03*
D29*
%TO.P,MCU1,21*%
%TO.N,P6*%
X153926000Y-59950000D03*
D25*
X148338000Y-59950000D03*
D28*
X148338000Y-59950000D03*
%TO.P,MCU1,22*%
%TO.N,P7*%
X148338000Y-57410000D03*
D25*
X148338000Y-57410000D03*
D29*
X153926000Y-57410000D03*
D28*
%TO.P,MCU1,23*%
%TO.N,P8*%
X148338000Y-54870000D03*
D25*
X148338000Y-54870000D03*
D29*
X153926000Y-54870000D03*
%TO.P,MCU1,24*%
%TO.N,P9*%
X153926000Y-52330000D03*
D25*
X148338000Y-52330000D03*
D28*
X148338000Y-52330000D03*
%TD*%
D11*
%TO.P,D4,1*%
%TO.N,P15*%
X165290000Y-122800000D03*
D10*
X167450000Y-122800000D03*
%TO.P,D4,2*%
%TO.N,pinkie_bottom*%
X170750000Y-122800000D03*
D12*
X172910000Y-122800000D03*
%TD*%
D15*
%TO.P,S23,1*%
%TO.N,far_num*%
X238015000Y-57760000D03*
%TO.P,S23,2*%
%TO.N,P20*%
X250942000Y-55220000D03*
%TD*%
D30*
%TO.P,TRRS,1*%
%TO.N,GND*%
X260200000Y-63200000D03*
X264800000Y-63200000D03*
%TO.P,TRRS,2*%
X260200000Y-62100000D03*
X264800000Y-62100000D03*
%TO.P,TRRS,3*%
%TO.N,P7*%
X260200000Y-58100000D03*
X264800000Y-58100000D03*
%TO.P,TRRS,4*%
%TO.N,VCC*%
X260200000Y-55100000D03*
X264800000Y-55100000D03*
%TD*%
D11*
%TO.P,D15,1*%
%TO.N,P14*%
X203290000Y-57800000D03*
D10*
X205450000Y-57800000D03*
D12*
%TO.P,D15,2*%
%TO.N,middle_num*%
X210910000Y-57800000D03*
D10*
X208750000Y-57800000D03*
%TD*%
D31*
%TO.P,OLED1,1*%
%TO.N,GND*%
X145280000Y-84549000D03*
%TO.P,OLED1,2*%
%TO.N,VCC*%
X147820000Y-84549000D03*
%TO.P,OLED1,3*%
%TO.N,P3*%
X150360000Y-84549000D03*
%TO.P,OLED1,4*%
%TO.N,P2*%
X152900000Y-84549000D03*
D32*
%TO.P,OLED1,5*%
%TO.N,N/C*%
X152900000Y-86200000D03*
D33*
%TO.P,OLED1,6*%
X150360000Y-86200000D03*
%TO.P,OLED1,7*%
X147820000Y-86200000D03*
%TO.P,OLED1,8*%
X145280000Y-86200000D03*
%TD*%
D11*
%TO.P,D20,1*%
%TO.N,P15*%
X241290000Y-125800000D03*
D10*
X243450000Y-125800000D03*
%TO.P,D20,2*%
%TO.N,far_bottom*%
X246750000Y-125800000D03*
D12*
X248910000Y-125800000D03*
%TD*%
D15*
%TO.P,S21,1*%
%TO.N,far_home*%
X238015000Y-95760000D03*
%TO.P,S21,2*%
%TO.N,P20*%
X250942000Y-93220000D03*
%TD*%
%TO.P,S2,1*%
%TO.N,tab_bottom*%
X143015000Y-114760000D03*
%TO.P,S2,2*%
%TO.N,P5*%
X155942000Y-112220000D03*
%TD*%
D11*
%TO.P,D2,1*%
%TO.N,P15*%
X146290000Y-125800000D03*
D10*
X148450000Y-125800000D03*
%TO.P,D2,2*%
%TO.N,tab_bottom*%
X151750000Y-125800000D03*
D12*
X153910000Y-125800000D03*
%TD*%
D15*
%TO.P,S8,1*%
%TO.N,ring_bottom*%
X181015000Y-105760000D03*
%TO.P,S8,2*%
%TO.N,P8*%
X193942000Y-103220000D03*
%TD*%
D10*
%TO.P,D5,1*%
%TO.N,P0*%
X167450000Y-103800000D03*
D11*
X165290000Y-103800000D03*
D12*
%TO.P,D5,2*%
%TO.N,pinkie_home*%
X172910000Y-103800000D03*
D10*
X170750000Y-103800000D03*
%TD*%
D15*
%TO.P,S13,1*%
%TO.N,middle_home*%
X200015000Y-84760000D03*
%TO.P,S13,2*%
%TO.N,P9*%
X212942000Y-82220000D03*
%TD*%
D11*
%TO.P,D7,1*%
%TO.N,P14*%
X165290000Y-65800000D03*
D10*
X167450000Y-65800000D03*
%TO.P,D7,2*%
%TO.N,pinkie_num*%
X170750000Y-65800000D03*
D12*
X172910000Y-65800000D03*
%TD*%
D15*
%TO.P,S1,1*%
%TO.N,single_bottom*%
X124015000Y-106760000D03*
%TO.P,S1,2*%
%TO.N,P5*%
X136942000Y-104220000D03*
%TD*%
D10*
%TO.P,D13,1*%
%TO.N,P0*%
X205450000Y-95800000D03*
D11*
X203290000Y-95800000D03*
D12*
%TO.P,D13,2*%
%TO.N,middle_home*%
X210910000Y-95800000D03*
D10*
X208750000Y-95800000D03*
%TD*%
D15*
%TO.P,S5,1*%
%TO.N,pinkie_home*%
X162015000Y-92760000D03*
%TO.P,S5,2*%
%TO.N,P6*%
X174942000Y-90220000D03*
%TD*%
D14*
%TO.P,D26,1*%
%TO.N,P19*%
X288393674Y-189487987D03*
D13*
X286542193Y-188375505D03*
D12*
%TO.P,D26,2*%
%TO.N,2_bottom*%
X293073807Y-192300095D03*
D14*
X291222326Y-191187613D03*
%TD*%
D34*
%TO.P,J3,1,Pin_1*%
%TO.N,P10*%
X293800000Y-78050000D03*
%TO.P,J3,2,Pin_2*%
%TO.N,P16*%
X293800000Y-84550000D03*
%TO.P,J3,3,Pin_3*%
%TO.N,P18*%
X293550000Y-92300000D03*
%TO.P,J3,4,Pin_4*%
%TO.N,P19*%
X293800000Y-99800000D03*
%TO.P,J3,5,Pin_5*%
%TO.N,VCC*%
X293800000Y-107050000D03*
%TO.P,J3,6,Pin_6*%
%TO.N,D1*%
X293800000Y-114550000D03*
%TO.P,J3,7,Pin_6*%
%TO.N,P1*%
X293800000Y-122050000D03*
%TO.P,J3,8,Pin_6*%
%TO.N,GND*%
X293800000Y-127800000D03*
%TD*%
D10*
%TO.P,D18,1*%
%TO.N,P4*%
X224450000Y-84800000D03*
D11*
X222290000Y-84800000D03*
D12*
%TO.P,D18,2*%
%TO.N,index_top*%
X229910000Y-84800000D03*
D10*
X227750000Y-84800000D03*
%TD*%
D35*
%TO.P,S27,1*%
%TO.N,2_top*%
X299206666Y-160939450D03*
%TO.P,S27,2*%
%TO.N,P16*%
X311595465Y-165420143D03*
%TD*%
D15*
%TO.P,S6,1*%
%TO.N,pinkie_top*%
X162015000Y-73760000D03*
%TO.P,S6,2*%
%TO.N,P6*%
X174942000Y-71220000D03*
%TD*%
D34*
%TO.P,J4,1,Pin_1*%
%TO.N,P10*%
X311800000Y-78050000D03*
%TO.P,J4,2,Pin_2*%
%TO.N,P16*%
X311800000Y-84550000D03*
%TO.P,J4,3,Pin_3*%
%TO.N,P18*%
X311550000Y-92300000D03*
%TO.P,J4,4,Pin_4*%
%TO.N,P19*%
X311800000Y-99800000D03*
%TO.P,J4,5,Pin_5*%
%TO.N,VCC*%
X311800000Y-107050000D03*
%TO.P,J4,6,Pin_6*%
%TO.N,D1*%
X311800000Y-114550000D03*
%TO.P,J4,7*%
%TO.N,P1*%
X311800000Y-122050000D03*
%TO.P,J4,8*%
%TO.N,GND*%
X311800000Y-127800000D03*
%TD*%
D15*
%TO.P,S12,1*%
%TO.N,middle_bottom*%
X200015000Y-103760000D03*
%TO.P,S12,2*%
%TO.N,P9*%
X212942000Y-101220000D03*
%TD*%
%TO.P,S7,1*%
%TO.N,pinkie_num*%
X162015000Y-54760000D03*
%TO.P,S7,2*%
%TO.N,P6*%
X174942000Y-52220000D03*
%TD*%
%TO.P,S14,1*%
%TO.N,middle_top*%
X200015000Y-65760000D03*
%TO.P,S14,2*%
%TO.N,P9*%
X212942000Y-63220000D03*
%TD*%
%TO.P,S18,1*%
%TO.N,index_top*%
X219015000Y-73760000D03*
%TO.P,S18,2*%
%TO.N,P21*%
X231942000Y-71220000D03*
%TD*%
D10*
%TO.P,D21,1*%
%TO.N,P0*%
X243450000Y-106800000D03*
D11*
X241290000Y-106800000D03*
D12*
%TO.P,D21,2*%
%TO.N,far_home*%
X248910000Y-106800000D03*
D10*
X246750000Y-106800000D03*
%TD*%
D11*
%TO.P,D11,1*%
%TO.N,P14*%
X184290000Y-59800000D03*
D10*
X186450000Y-59800000D03*
D12*
%TO.P,D11,2*%
%TO.N,ring_num*%
X191910000Y-59800000D03*
D10*
X189750000Y-59800000D03*
%TD*%
D15*
%TO.P,S17,1*%
%TO.N,index_home*%
X219015000Y-92760000D03*
%TO.P,S17,2*%
%TO.N,P21*%
X231942000Y-90220000D03*
%TD*%
D17*
%TO.P,D24,1*%
%TO.N,P19*%
X270585947Y-181450499D03*
D16*
X268583230Y-180641349D03*
D17*
%TO.P,D24,2*%
%TO.N,1_bottom*%
X273645653Y-182686701D03*
D12*
X275648370Y-183495851D03*
%TD*%
D18*
%TO.P,S24,1*%
%TO.N,1_bottom*%
X269682403Y-169178465D03*
%TO.P,S24,2*%
%TO.N,P10*%
X282619610Y-171665958D03*
%TD*%
D11*
%TO.P,D10,1*%
%TO.N,P4*%
X184290000Y-78800000D03*
D10*
X186450000Y-78800000D03*
D12*
%TO.P,D10,2*%
%TO.N,ring_top*%
X191910000Y-78800000D03*
D10*
X189750000Y-78800000D03*
%TD*%
D35*
%TO.P,S26,1*%
%TO.N,2_bottom*%
X289420966Y-177225650D03*
%TO.P,S26,2*%
%TO.N,P16*%
X301809765Y-181706343D03*
%TD*%
D11*
%TO.P,D23,1*%
%TO.N,P14*%
X241290000Y-68800000D03*
D10*
X243450000Y-68800000D03*
D12*
%TO.P,D23,2*%
%TO.N,far_num*%
X248910000Y-68800000D03*
D10*
X246750000Y-68800000D03*
%TD*%
%TO.P,D12,1*%
%TO.N,P15*%
X205450000Y-114800000D03*
D11*
X203290000Y-114800000D03*
D10*
%TO.P,D12,2*%
%TO.N,middle_bottom*%
X208750000Y-114800000D03*
D12*
X210910000Y-114800000D03*
%TD*%
D36*
%TO.P,LED37,1*%
%TO.N,VCC*%
X190300000Y-74425000D03*
%TO.P,LED37,2*%
%TO.N,D1*%
X190300000Y-76175000D03*
%TO.P,LED37,3*%
%TO.N,GND*%
X185900000Y-76175000D03*
%TO.P,LED37,4*%
%TO.N,P1*%
X185900000Y-74425000D03*
D37*
%TO.P,LED37,11*%
%TO.N,VCC*%
X190600000Y-73700000D03*
%TO.P,LED37,22*%
%TO.N,D1*%
X190600000Y-76900000D03*
%TO.P,LED37,33*%
%TO.N,GND*%
X185600000Y-76900000D03*
%TO.P,LED37,44*%
%TO.N,P1*%
X185600000Y-73700000D03*
%TD*%
D36*
%TO.P,LED29,1*%
%TO.N,VCC*%
X152300000Y-121425000D03*
%TO.P,LED29,2*%
%TO.N,D1*%
X152300000Y-123175000D03*
%TO.P,LED29,3*%
%TO.N,GND*%
X147900000Y-123175000D03*
%TO.P,LED29,4*%
%TO.N,P1*%
X147900000Y-121425000D03*
D37*
%TO.P,LED29,11*%
%TO.N,VCC*%
X152600000Y-120700000D03*
%TO.P,LED29,22*%
%TO.N,D1*%
X152600000Y-123900000D03*
%TO.P,LED29,33*%
%TO.N,GND*%
X147600000Y-123900000D03*
%TO.P,LED29,44*%
%TO.N,P1*%
X147600000Y-120700000D03*
%TD*%
D36*
%TO.P,LED41,1*%
%TO.N,VCC*%
X209300000Y-72425000D03*
%TO.P,LED41,2*%
%TO.N,D1*%
X209300000Y-74175000D03*
%TO.P,LED41,3*%
%TO.N,GND*%
X204900000Y-74175000D03*
%TO.P,LED41,4*%
%TO.N,P1*%
X204900000Y-72425000D03*
D37*
%TO.P,LED41,11*%
%TO.N,VCC*%
X209600000Y-71700000D03*
%TO.P,LED41,22*%
%TO.N,D1*%
X209600000Y-74900000D03*
%TO.P,LED41,33*%
%TO.N,GND*%
X204600000Y-74900000D03*
%TO.P,LED41,44*%
%TO.N,P1*%
X204600000Y-71700000D03*
%TD*%
D36*
%TO.P,LED31,1*%
%TO.N,VCC*%
X171300000Y-118400000D03*
%TO.P,LED31,2*%
%TO.N,D1*%
X171300000Y-120150000D03*
%TO.P,LED31,3*%
%TO.N,GND*%
X166900000Y-120150000D03*
%TO.P,LED31,4*%
%TO.N,P1*%
X166900000Y-118400000D03*
D37*
%TO.P,LED31,11*%
%TO.N,VCC*%
X171600000Y-117675000D03*
%TO.P,LED31,22*%
%TO.N,D1*%
X171600000Y-120875000D03*
%TO.P,LED31,33*%
%TO.N,GND*%
X166600000Y-120875000D03*
%TO.P,LED31,44*%
%TO.N,P1*%
X166600000Y-117675000D03*
%TD*%
D36*
%TO.P,LED43,1*%
%TO.N,VCC*%
X228300000Y-118425000D03*
%TO.P,LED43,2*%
%TO.N,D1*%
X228300000Y-120175000D03*
%TO.P,LED43,3*%
%TO.N,GND*%
X223900000Y-120175000D03*
%TO.P,LED43,4*%
%TO.N,P1*%
X223900000Y-118425000D03*
D37*
%TO.P,LED43,11*%
%TO.N,VCC*%
X228600000Y-117700000D03*
%TO.P,LED43,22*%
%TO.N,D1*%
X228600000Y-120900000D03*
%TO.P,LED43,33*%
%TO.N,GND*%
X223600000Y-120900000D03*
%TO.P,LED43,44*%
%TO.N,P1*%
X223600000Y-117700000D03*
%TD*%
D36*
%TO.P,LED39,1*%
%TO.N,VCC*%
X209300000Y-110425000D03*
%TO.P,LED39,2*%
%TO.N,D1*%
X209300000Y-112175000D03*
%TO.P,LED39,3*%
%TO.N,GND*%
X204900000Y-112175000D03*
%TO.P,LED39,4*%
%TO.N,P1*%
X204900000Y-110425000D03*
D37*
%TO.P,LED39,11*%
%TO.N,VCC*%
X209600000Y-109700000D03*
%TO.P,LED39,22*%
%TO.N,D1*%
X209600000Y-112900000D03*
%TO.P,LED39,33*%
%TO.N,GND*%
X204600000Y-112900000D03*
%TO.P,LED39,44*%
%TO.N,P1*%
X204600000Y-109700000D03*
%TD*%
D36*
%TO.P,LED36,1*%
%TO.N,VCC*%
X190300000Y-93425000D03*
%TO.P,LED36,2*%
%TO.N,D1*%
X190300000Y-95175000D03*
%TO.P,LED36,3*%
%TO.N,GND*%
X185900000Y-95175000D03*
%TO.P,LED36,4*%
%TO.N,P1*%
X185900000Y-93425000D03*
D37*
%TO.P,LED36,11*%
%TO.N,VCC*%
X190600000Y-92700000D03*
%TO.P,LED36,22*%
%TO.N,D1*%
X190600000Y-95900000D03*
%TO.P,LED36,33*%
%TO.N,GND*%
X185600000Y-95900000D03*
%TO.P,LED36,44*%
%TO.N,P1*%
X185600000Y-92700000D03*
%TD*%
D36*
%TO.P,LED47,1*%
%TO.N,VCC*%
X247300000Y-121425000D03*
%TO.P,LED47,2*%
%TO.N,D1*%
X247300000Y-123175000D03*
%TO.P,LED47,3*%
%TO.N,GND*%
X242900000Y-123175000D03*
%TO.P,LED47,4*%
%TO.N,P1*%
X242900000Y-121425000D03*
D37*
%TO.P,LED47,11*%
%TO.N,VCC*%
X247600000Y-120700000D03*
%TO.P,LED47,22*%
%TO.N,D1*%
X247600000Y-123900000D03*
%TO.P,LED47,33*%
%TO.N,GND*%
X242600000Y-123900000D03*
%TO.P,LED47,44*%
%TO.N,P1*%
X242600000Y-120700000D03*
%TD*%
D36*
%TO.P,LED38,1*%
%TO.N,VCC*%
X190300000Y-55425000D03*
%TO.P,LED38,2*%
%TO.N,D1*%
X190300000Y-57175000D03*
%TO.P,LED38,3*%
%TO.N,GND*%
X185900000Y-57175000D03*
%TO.P,LED38,4*%
%TO.N,P1*%
X185900000Y-55425000D03*
D37*
%TO.P,LED38,11*%
%TO.N,VCC*%
X190600000Y-54700000D03*
%TO.P,LED38,22*%
%TO.N,D1*%
X190600000Y-57900000D03*
%TO.P,LED38,33*%
%TO.N,GND*%
X185600000Y-57900000D03*
%TO.P,LED38,44*%
%TO.N,P1*%
X185600000Y-54700000D03*
%TD*%
D36*
%TO.P,LED42,1*%
%TO.N,VCC*%
X209300000Y-53425000D03*
%TO.P,LED42,2*%
%TO.N,D1*%
X209300000Y-55175000D03*
%TO.P,LED42,3*%
%TO.N,GND*%
X204900000Y-55175000D03*
%TO.P,LED42,4*%
%TO.N,P1*%
X204900000Y-53425000D03*
D37*
%TO.P,LED42,11*%
%TO.N,VCC*%
X209600000Y-52700000D03*
%TO.P,LED42,22*%
%TO.N,D1*%
X209600000Y-55900000D03*
%TO.P,LED42,33*%
%TO.N,GND*%
X204600000Y-55900000D03*
%TO.P,LED42,44*%
%TO.N,P1*%
X204600000Y-52700000D03*
%TD*%
D38*
%TO.P,J2,1,Pin_1*%
%TO.N,P10*%
X279350000Y-78200000D03*
D39*
X277450000Y-78200000D03*
D38*
X275550000Y-78200000D03*
%TO.P,J2,2,Pin_2*%
%TO.N,P16*%
X279350000Y-84700000D03*
D39*
X277450000Y-84700000D03*
D38*
X275550000Y-84700000D03*
%TO.P,J2,3,Pin_3*%
%TO.N,P18*%
X279350000Y-92450000D03*
X275550000Y-92450000D03*
D39*
X277450000Y-92450000D03*
%TO.P,J2,4,Pin_4*%
%TO.N,P19*%
X277450000Y-99950000D03*
D38*
X279350000Y-99950000D03*
X275550000Y-99950000D03*
%TO.P,J2,5,Pin_5*%
%TO.N,VCC*%
X279350000Y-107200000D03*
D39*
X277450000Y-107200000D03*
D38*
X275550000Y-107200000D03*
%TO.P,J2,6,Pin_6*%
%TO.N,D1*%
X275550000Y-114700000D03*
D39*
X277450000Y-114700000D03*
D38*
X279350000Y-114700000D03*
%TO.P,J2,7,Pin_6*%
%TO.N,P1*%
X275550000Y-122200000D03*
D39*
X277450000Y-122200000D03*
D38*
X279350000Y-122200000D03*
%TO.P,J2,8,Pin_6*%
%TO.N,GND*%
X279350000Y-127950000D03*
D39*
X277450000Y-127950000D03*
D38*
X275550000Y-127950000D03*
%TD*%
D36*
%TO.P,LED50,1*%
%TO.N,VCC*%
X247300000Y-64425000D03*
%TO.P,LED50,2*%
%TO.N,D1*%
X247300000Y-66175000D03*
%TO.P,LED50,3*%
%TO.N,GND*%
X242900000Y-66175000D03*
%TO.P,LED50,4*%
%TO.N,P1*%
X242900000Y-64425000D03*
D37*
%TO.P,LED50,11*%
%TO.N,VCC*%
X247600000Y-63700000D03*
%TO.P,LED50,22*%
%TO.N,D1*%
X247600000Y-66900000D03*
%TO.P,LED50,33*%
%TO.N,GND*%
X242600000Y-66900000D03*
%TO.P,LED50,44*%
%TO.N,P1*%
X242600000Y-63700000D03*
%TD*%
D36*
%TO.P,LED28,1*%
%TO.N,VCC*%
X133300000Y-113425000D03*
%TO.P,LED28,2*%
%TO.N,D1*%
X133300000Y-115175000D03*
%TO.P,LED28,3*%
%TO.N,GND*%
X128900000Y-115175000D03*
%TO.P,LED28,4*%
%TO.N,P1*%
X128900000Y-113425000D03*
D37*
%TO.P,LED28,11*%
%TO.N,VCC*%
X133600000Y-112700000D03*
%TO.P,LED28,22*%
%TO.N,D1*%
X133600000Y-115900000D03*
%TO.P,LED28,33*%
%TO.N,GND*%
X128600000Y-115900000D03*
%TO.P,LED28,44*%
%TO.N,P1*%
X128600000Y-112700000D03*
%TD*%
D36*
%TO.P,LED40,1*%
%TO.N,VCC*%
X209300000Y-91425000D03*
%TO.P,LED40,2*%
%TO.N,D1*%
X209300000Y-93175000D03*
%TO.P,LED40,3*%
%TO.N,GND*%
X204900000Y-93175000D03*
%TO.P,LED40,4*%
%TO.N,P1*%
X204900000Y-91425000D03*
D37*
%TO.P,LED40,11*%
%TO.N,VCC*%
X209600000Y-90700000D03*
%TO.P,LED40,22*%
%TO.N,D1*%
X209600000Y-93900000D03*
%TO.P,LED40,33*%
%TO.N,GND*%
X204600000Y-93900000D03*
%TO.P,LED40,44*%
%TO.N,P1*%
X204600000Y-90700000D03*
%TD*%
D36*
%TO.P,LED35,1*%
%TO.N,VCC*%
X190300000Y-112425000D03*
%TO.P,LED35,2*%
%TO.N,D1*%
X190300000Y-114175000D03*
%TO.P,LED35,3*%
%TO.N,GND*%
X185900000Y-114175000D03*
%TO.P,LED35,4*%
%TO.N,P1*%
X185900000Y-112425000D03*
D37*
%TO.P,LED35,11*%
%TO.N,VCC*%
X190600000Y-111700000D03*
%TO.P,LED35,22*%
%TO.N,D1*%
X190600000Y-114900000D03*
%TO.P,LED35,33*%
%TO.N,GND*%
X185600000Y-114900000D03*
%TO.P,LED35,44*%
%TO.N,P1*%
X185600000Y-111700000D03*
%TD*%
D36*
%TO.P,LED34,1*%
%TO.N,VCC*%
X171300000Y-61400000D03*
%TO.P,LED34,2*%
%TO.N,D1*%
X171300000Y-63150000D03*
%TO.P,LED34,3*%
%TO.N,GND*%
X166900000Y-63150000D03*
%TO.P,LED34,4*%
%TO.N,P1*%
X166900000Y-61400000D03*
D37*
%TO.P,LED34,11*%
%TO.N,VCC*%
X171600000Y-60675000D03*
%TO.P,LED34,22*%
%TO.N,D1*%
X171600000Y-63875000D03*
%TO.P,LED34,33*%
%TO.N,GND*%
X166600000Y-63875000D03*
%TO.P,LED34,44*%
%TO.N,P1*%
X166600000Y-60675000D03*
%TD*%
D36*
%TO.P,LED44,1*%
%TO.N,VCC*%
X228300000Y-99425000D03*
%TO.P,LED44,2*%
%TO.N,D1*%
X228300000Y-101175000D03*
%TO.P,LED44,3*%
%TO.N,GND*%
X223900000Y-101175000D03*
%TO.P,LED44,4*%
%TO.N,P1*%
X223900000Y-99425000D03*
D37*
%TO.P,LED44,11*%
%TO.N,VCC*%
X228600000Y-98700000D03*
%TO.P,LED44,22*%
%TO.N,D1*%
X228600000Y-101900000D03*
%TO.P,LED44,33*%
%TO.N,GND*%
X223600000Y-101900000D03*
%TO.P,LED44,44*%
%TO.N,P1*%
X223600000Y-98700000D03*
%TD*%
D40*
%TO.P,LED52,1*%
%TO.N,VCC*%
X282967585Y-161225349D03*
%TO.P,LED52,2*%
%TO.N,D1*%
X282312024Y-162847920D03*
%TO.P,LED52,3*%
%TO.N,GND*%
X278232415Y-161199651D03*
%TO.P,LED52,4*%
%TO.N,P1*%
X278887976Y-159577080D03*
D41*
%TO.P,LED52,11*%
%TO.N,VCC*%
X283517330Y-160665522D03*
%TO.P,LED52,22*%
%TO.N,D1*%
X282318589Y-163632511D03*
%TO.P,LED52,33*%
%TO.N,GND*%
X277682670Y-161759478D03*
%TO.P,LED52,44*%
%TO.N,P1*%
X278881411Y-158792489D03*
%TD*%
D40*
%TO.P,LED51,1*%
%TO.N,VCC*%
X275767585Y-178825349D03*
%TO.P,LED51,2*%
%TO.N,D1*%
X275112024Y-180447920D03*
%TO.P,LED51,3*%
%TO.N,GND*%
X271032415Y-178799651D03*
%TO.P,LED51,4*%
%TO.N,P1*%
X271687976Y-177177080D03*
D41*
%TO.P,LED51,11*%
%TO.N,VCC*%
X276317330Y-178265522D03*
%TO.P,LED51,22*%
%TO.N,D1*%
X275118589Y-181232511D03*
%TO.P,LED51,33*%
%TO.N,GND*%
X270482670Y-179359478D03*
%TO.P,LED51,44*%
%TO.N,P1*%
X271681411Y-176392489D03*
%TD*%
D36*
%TO.P,LED30,1*%
%TO.N,VCC*%
X152300000Y-102425000D03*
%TO.P,LED30,2*%
%TO.N,D1*%
X152300000Y-104175000D03*
%TO.P,LED30,3*%
%TO.N,GND*%
X147900000Y-104175000D03*
%TO.P,LED30,4*%
%TO.N,P1*%
X147900000Y-102425000D03*
D37*
%TO.P,LED30,11*%
%TO.N,VCC*%
X152600000Y-101700000D03*
%TO.P,LED30,22*%
%TO.N,D1*%
X152600000Y-104900000D03*
%TO.P,LED30,33*%
%TO.N,GND*%
X147600000Y-104900000D03*
%TO.P,LED30,44*%
%TO.N,P1*%
X147600000Y-101700000D03*
%TD*%
D36*
%TO.P,LED46,1*%
%TO.N,VCC*%
X228300000Y-61425000D03*
%TO.P,LED46,2*%
%TO.N,D1*%
X228300000Y-63175000D03*
%TO.P,LED46,3*%
%TO.N,GND*%
X223900000Y-63175000D03*
%TO.P,LED46,4*%
%TO.N,P1*%
X223900000Y-61425000D03*
D37*
%TO.P,LED46,11*%
%TO.N,VCC*%
X228600000Y-60700000D03*
%TO.P,LED46,22*%
%TO.N,D1*%
X228600000Y-63900000D03*
%TO.P,LED46,33*%
%TO.N,GND*%
X223600000Y-63900000D03*
%TO.P,LED46,44*%
%TO.N,P1*%
X223600000Y-60700000D03*
%TD*%
D42*
%TO.P,LED54,1*%
%TO.N,VCC*%
X303736426Y-171395562D03*
%TO.P,LED54,2*%
%TO.N,D1*%
X302835110Y-172895605D03*
%TO.P,LED54,3*%
%TO.N,GND*%
X299063574Y-170629438D03*
%TO.P,LED54,4*%
%TO.N,P1*%
X299964890Y-169129395D03*
D43*
%TO.P,LED54,11*%
%TO.N,VCC*%
X304366979Y-170928628D03*
%TO.P,LED54,22*%
%TO.N,D1*%
X302718857Y-173671563D03*
%TO.P,LED54,33*%
%TO.N,GND*%
X298433021Y-171096372D03*
%TO.P,LED54,44*%
%TO.N,P1*%
X300081143Y-168353437D03*
%TD*%
D36*
%TO.P,LED32,1*%
%TO.N,VCC*%
X171300000Y-99400000D03*
%TO.P,LED32,2*%
%TO.N,D1*%
X171300000Y-101150000D03*
%TO.P,LED32,3*%
%TO.N,GND*%
X166900000Y-101150000D03*
%TO.P,LED32,4*%
%TO.N,P1*%
X166900000Y-99400000D03*
D37*
%TO.P,LED32,11*%
%TO.N,VCC*%
X171600000Y-98675000D03*
%TO.P,LED32,22*%
%TO.N,D1*%
X171600000Y-101875000D03*
%TO.P,LED32,33*%
%TO.N,GND*%
X166600000Y-101875000D03*
%TO.P,LED32,44*%
%TO.N,P1*%
X166600000Y-98675000D03*
%TD*%
D36*
%TO.P,LED49,1*%
%TO.N,VCC*%
X247300000Y-83425000D03*
%TO.P,LED49,2*%
%TO.N,D1*%
X247300000Y-85175000D03*
%TO.P,LED49,3*%
%TO.N,GND*%
X242900000Y-85175000D03*
%TO.P,LED49,4*%
%TO.N,P1*%
X242900000Y-83425000D03*
D37*
%TO.P,LED49,11*%
%TO.N,VCC*%
X247600000Y-82700000D03*
%TO.P,LED49,22*%
%TO.N,D1*%
X247600000Y-85900000D03*
%TO.P,LED49,33*%
%TO.N,GND*%
X242600000Y-85900000D03*
%TO.P,LED49,44*%
%TO.N,P1*%
X242600000Y-82700000D03*
%TD*%
D36*
%TO.P,LED33,1*%
%TO.N,VCC*%
X171300000Y-80400000D03*
%TO.P,LED33,2*%
%TO.N,D1*%
X171300000Y-82150000D03*
%TO.P,LED33,3*%
%TO.N,GND*%
X166900000Y-82150000D03*
%TO.P,LED33,4*%
%TO.N,P1*%
X166900000Y-80400000D03*
D37*
%TO.P,LED33,11*%
%TO.N,VCC*%
X171600000Y-79675000D03*
%TO.P,LED33,22*%
%TO.N,D1*%
X171600000Y-82875000D03*
%TO.P,LED33,33*%
%TO.N,GND*%
X166600000Y-82875000D03*
%TO.P,LED33,44*%
%TO.N,P1*%
X166600000Y-79675000D03*
%TD*%
D42*
%TO.P,LED53,1*%
%TO.N,VCC*%
X293936426Y-187695562D03*
%TO.P,LED53,2*%
%TO.N,D1*%
X293035110Y-189195605D03*
%TO.P,LED53,3*%
%TO.N,GND*%
X289263574Y-186929438D03*
%TO.P,LED53,4*%
%TO.N,P1*%
X290164890Y-185429395D03*
D43*
%TO.P,LED53,11*%
%TO.N,VCC*%
X294566979Y-187228628D03*
%TO.P,LED53,22*%
%TO.N,D1*%
X292918857Y-189971563D03*
%TO.P,LED53,33*%
%TO.N,GND*%
X288633021Y-187396372D03*
%TO.P,LED53,44*%
%TO.N,P1*%
X290281143Y-184653437D03*
%TD*%
D36*
%TO.P,LED48,1*%
%TO.N,VCC*%
X247300000Y-102425000D03*
%TO.P,LED48,2*%
%TO.N,D1*%
X247300000Y-104175000D03*
%TO.P,LED48,3*%
%TO.N,GND*%
X242900000Y-104175000D03*
%TO.P,LED48,4*%
%TO.N,P1*%
X242900000Y-102425000D03*
D37*
%TO.P,LED48,11*%
%TO.N,VCC*%
X247600000Y-101700000D03*
%TO.P,LED48,22*%
%TO.N,D1*%
X247600000Y-104900000D03*
%TO.P,LED48,33*%
%TO.N,GND*%
X242600000Y-104900000D03*
%TO.P,LED48,44*%
%TO.N,P1*%
X242600000Y-101700000D03*
%TD*%
D36*
%TO.P,LED45,1*%
%TO.N,VCC*%
X228300000Y-80425000D03*
%TO.P,LED45,2*%
%TO.N,D1*%
X228300000Y-82175000D03*
%TO.P,LED45,3*%
%TO.N,GND*%
X223900000Y-82175000D03*
%TO.P,LED45,4*%
%TO.N,P1*%
X223900000Y-80425000D03*
D37*
%TO.P,LED45,11*%
%TO.N,VCC*%
X228600000Y-79700000D03*
%TO.P,LED45,22*%
%TO.N,D1*%
X228600000Y-82900000D03*
%TO.P,LED45,33*%
%TO.N,GND*%
X223600000Y-82900000D03*
%TO.P,LED45,44*%
%TO.N,P1*%
X223600000Y-79700000D03*
%TD*%
D38*
%TO.P,J1,1,Pin_1*%
%TO.N,P10*%
X256100000Y-69000000D03*
D39*
X258000000Y-69000000D03*
D38*
X259900000Y-69000000D03*
D39*
%TO.P,J1,2,Pin_2*%
%TO.N,P16*%
X258000000Y-75500000D03*
D38*
X259900000Y-75500000D03*
X256100000Y-75500000D03*
D39*
%TO.P,J1,3,Pin_3*%
%TO.N,P18*%
X258000000Y-83250000D03*
D38*
X256100000Y-83250000D03*
X259900000Y-83250000D03*
%TO.P,J1,4,Pin_4*%
%TO.N,P19*%
X259900000Y-90750000D03*
D39*
X258000000Y-90750000D03*
D38*
X256100000Y-90750000D03*
%TO.P,J1,5,Pin_5*%
%TO.N,VCC*%
X259900000Y-98000000D03*
X256100000Y-98000000D03*
D39*
X258000000Y-98000000D03*
D38*
%TO.P,J1,6,Pin_6*%
%TO.N,D1*%
X256100000Y-105500000D03*
X259900000Y-105500000D03*
D39*
X258000000Y-105500000D03*
%TO.P,J1,7,Pin_6*%
%TO.N,P1*%
X258000000Y-113000000D03*
D38*
X259900000Y-113000000D03*
X256100000Y-113000000D03*
%TO.P,J1,8,Pin_6*%
%TO.N,GND*%
X256100000Y-118750000D03*
D39*
X258000000Y-118750000D03*
D38*
X259900000Y-118750000D03*
%TD*%
D44*
%TO.N,P9*%
X152200000Y-51500000D03*
%TO.N,RAW*%
X146604600Y-53217000D03*
%TO.N,GND*%
X217437600Y-59062600D03*
X273003600Y-180310200D03*
X291104700Y-188307900D03*
X183871400Y-115303500D03*
X238753100Y-65349900D03*
X222070100Y-100349900D03*
X300446900Y-173389100D03*
X149832300Y-104920100D03*
X280648100Y-161377700D03*
X159608400Y-104900000D03*
X131252700Y-114895400D03*
X186922900Y-80015500D03*
X158039100Y-121467800D03*
X169395300Y-63175000D03*
X238838800Y-84349900D03*
X148313800Y-76193700D03*
X144326600Y-56188300D03*
X169106500Y-84781500D03*
X238476100Y-103349900D03*
X177176600Y-101475000D03*
X143944700Y-81683400D03*
X187840100Y-96850000D03*
X207028800Y-111866400D03*
X192225200Y-57175000D03*
X187800500Y-114422800D03*
%TO.N,RST*%
X144310600Y-58680000D03*
%TO.N,VCC*%
X245705600Y-82337500D03*
X305854600Y-172659400D03*
X230572100Y-78988700D03*
X145161000Y-60837000D03*
X150531400Y-101004500D03*
X174879200Y-59524700D03*
X207100000Y-54250200D03*
X171860800Y-116456400D03*
X192040000Y-101602900D03*
X207477000Y-71265400D03*
X188999200Y-73109400D03*
X190648200Y-110481100D03*
X280886200Y-160366800D03*
X297986800Y-168482100D03*
X207674900Y-90365400D03*
X150299100Y-120700000D03*
X226106100Y-98198700D03*
X245392700Y-121425000D03*
X226267700Y-61733300D03*
X225826000Y-118425000D03*
X287989600Y-179812200D03*
X249228300Y-100774900D03*
X172981600Y-78566900D03*
X229787900Y-77580100D03*
X169381100Y-98663900D03*
X131374100Y-112850000D03*
X249678100Y-65250200D03*
X273181700Y-178814600D03*
X289477400Y-167211900D03*
X207989800Y-109074800D03*
%TO.N,P21*%
X232392000Y-68794200D03*
X172566200Y-49292000D03*
X150530000Y-61724200D03*
X231644200Y-107347100D03*
X231095200Y-49243400D03*
X230875600Y-88211400D03*
X231192100Y-82058900D03*
%TO.N,P20*%
X142567700Y-66375000D03*
X251336100Y-90148400D03*
X250896400Y-109587800D03*
X159090000Y-63904800D03*
X246566200Y-53317500D03*
X168437100Y-53321000D03*
X250935700Y-72255500D03*
%TO.N,P19*%
X278460700Y-168367100D03*
X180236000Y-78951700D03*
X165845300Y-67743600D03*
X144310600Y-66300000D03*
%TO.N,P18*%
X139811200Y-71088000D03*
X255117200Y-53294500D03*
X145149000Y-70888000D03*
%TO.N,P15*%
X144185600Y-73920000D03*
X180417100Y-118974200D03*
%TO.N,P14*%
X149859700Y-74143400D03*
X160594600Y-71405600D03*
%TO.N,P16*%
X150597800Y-76994200D03*
X292811200Y-172313000D03*
%TO.N,P10*%
X181504800Y-81319000D03*
X272834200Y-165013700D03*
X284038500Y-152854400D03*
X161888700Y-81920500D03*
X146907700Y-82328600D03*
%TO.N,P1*%
X284970600Y-177290900D03*
X225942400Y-99212500D03*
X168941300Y-80751600D03*
X136651200Y-121614800D03*
X245236900Y-76600000D03*
X301037600Y-170897500D03*
X206928800Y-91212500D03*
X284970600Y-181912800D03*
X226325100Y-80351600D03*
X173834800Y-117592300D03*
X295913100Y-185830500D03*
X206860500Y-72849800D03*
X149916400Y-103150300D03*
X213790600Y-72507100D03*
X187847500Y-56166300D03*
X273575500Y-176827200D03*
X280769300Y-159238800D03*
X225554000Y-117412400D03*
X244856400Y-102669300D03*
X168890800Y-99774900D03*
X187863900Y-93802400D03*
X147033800Y-80997800D03*
X131361500Y-113872700D03*
X207191800Y-110657000D03*
X187838900Y-112802500D03*
X277210900Y-176762200D03*
X225849900Y-60649900D03*
X206801400Y-52857400D03*
%TO.N,P0*%
X199139500Y-99120300D03*
X147602200Y-78465800D03*
%TO.N,P2*%
X153039000Y-69223000D03*
X151001100Y-82650100D03*
%TO.N,P3*%
X150153800Y-83418800D03*
X147631700Y-68305800D03*
%TO.N,P4*%
X153107500Y-66683000D03*
%TO.N,P5*%
X138868300Y-93397000D03*
X153069900Y-64229400D03*
X146721900Y-109517600D03*
X142445300Y-61451700D03*
%TO.N,P6*%
X173974800Y-106878800D03*
X176675800Y-105832700D03*
X168444600Y-69437000D03*
X152906600Y-58930600D03*
X164696000Y-88343200D03*
X159313400Y-57739700D03*
X159321800Y-79263800D03*
%TO.N,P7*%
X151748200Y-56523000D03*
%TO.N,P8*%
X194189500Y-82196000D03*
X180363900Y-46220000D03*
X153910200Y-53600000D03*
X182688100Y-63362700D03*
X192998900Y-100701800D03*
%TO.N,P9*%
X213374600Y-89617000D03*
X199354500Y-44220000D03*
X213076700Y-60816100D03*
%TO.N,single_bottom*%
X125306700Y-111774800D03*
%TO.N,tab_bottom*%
X157838500Y-112897800D03*
%TO.N,tab_home*%
X157343100Y-97625300D03*
%TO.N,pinkie_bottom*%
X176185000Y-113655400D03*
%TO.N,pinkie_home*%
X173809400Y-96872300D03*
%TO.N,pinkie_top*%
X178060600Y-73760000D03*
%TO.N,pinkie_num*%
X175294800Y-58242600D03*
%TO.N,ring_bottom*%
X195531500Y-107639300D03*
%TO.N,ring_num*%
X181015000Y-50629500D03*
%TO.N,middle_bottom*%
X203390700Y-99394800D03*
%TO.N,middle_num*%
X212631000Y-51584700D03*
%TO.N,index_home*%
X231161300Y-96900400D03*
%TO.N,index_top*%
X225153300Y-69555600D03*
%TO.N,index_num*%
X233838500Y-52541500D03*
%TO.N,1_top*%
X282738600Y-146468500D03*
%TO.N,2_bottom*%
X298867700Y-177831400D03*
%TO.N,D1*%
X206487400Y-113301900D03*
X179000100Y-60453500D03*
X221701000Y-62879500D03*
X154395900Y-103349900D03*
X298390700Y-175251600D03*
X131579300Y-117042000D03*
X168861500Y-81838700D03*
X192128500Y-94349900D03*
X225673500Y-121149400D03*
X169352300Y-64552800D03*
X175284000Y-100349900D03*
X210967600Y-97931400D03*
X292296800Y-184914500D03*
X188856100Y-58294800D03*
X245941600Y-124646600D03*
X249903600Y-108080700D03*
X207374900Y-56620800D03*
X173956500Y-61005400D03*
X272229600Y-181229200D03*
X226051000Y-82874300D03*
X188325100Y-76104800D03*
X291309200Y-187189100D03*
X227189300Y-105580300D03*
X280199700Y-162865300D03*
X245555600Y-88411700D03*
%TD*%
D45*
%TO.N,P9*%
X152200000Y-51500000D02*
X153096000Y-51500000D01*
X153096000Y-51500000D02*
X153350900Y-51754900D01*
%TO.N,RAW*%
X145717600Y-52330000D02*
X146604600Y-53217000D01*
X144274000Y-52330000D02*
X145717600Y-52330000D01*
%TO.N,GND*%
X147600000Y-104475000D02*
X147600000Y-104900000D01*
X238838800Y-85537500D02*
X238838800Y-84349900D01*
X152347200Y-76193700D02*
X148313800Y-76193700D01*
X240894400Y-66900000D02*
X240598800Y-67195600D01*
X223900000Y-120175000D02*
X225525100Y-120175000D01*
X144274000Y-54870000D02*
X144274000Y-56135700D01*
X226350200Y-119349900D02*
X236365100Y-119349900D01*
X185900000Y-57175000D02*
X187525100Y-57175000D01*
X294208500Y-169543700D02*
X297351400Y-169543700D01*
X264800000Y-62100000D02*
X264800000Y-63200000D01*
X165274900Y-82023000D02*
X165348000Y-81949900D01*
X165571600Y-81949900D02*
X165623200Y-81898300D01*
X185900000Y-76600000D02*
X185862500Y-76637500D01*
X236724800Y-119349900D02*
X241274900Y-123900000D01*
X288633000Y-187396400D02*
X288714800Y-187396400D01*
X223900000Y-82175000D02*
X225525100Y-82175000D01*
X204600000Y-74900000D02*
X202901600Y-74900000D01*
X170309800Y-86541800D02*
X169106500Y-85338500D01*
X204175000Y-55900000D02*
X204900000Y-55175000D01*
X186922900Y-80015500D02*
X187243800Y-79694600D01*
X203937500Y-55900000D02*
X204175000Y-55900000D01*
X185900000Y-114422800D02*
X187800500Y-114422800D01*
X135855800Y-123175000D02*
X130485000Y-117804200D01*
X236368800Y-92794800D02*
X236361300Y-92802300D01*
X185600000Y-95900000D02*
X183922100Y-95900000D01*
X194422000Y-107689400D02*
X195236200Y-106875200D01*
X235918700Y-97296700D02*
X236368800Y-97746800D01*
X242600000Y-85900000D02*
X242600000Y-85600000D01*
X179414500Y-91392400D02*
X183922100Y-95900000D01*
X153926000Y-72650000D02*
X153926000Y-75190000D01*
X179374500Y-103520200D02*
X177329300Y-101475000D01*
X236182300Y-92802300D02*
X235918700Y-93065900D01*
X184774100Y-80015500D02*
X179414500Y-85375100D01*
X184973900Y-100045200D02*
X188690100Y-103761400D01*
X166600000Y-82875000D02*
X166900000Y-82575000D01*
X193671900Y-109476100D02*
X194422000Y-108726000D01*
X167800500Y-59742700D02*
X169224600Y-61166800D01*
X184274900Y-114048000D02*
X184348000Y-113974900D01*
X235918700Y-81300000D02*
X226400100Y-81300000D01*
X184571600Y-113974900D02*
X184623200Y-113923300D01*
X280603900Y-161377700D02*
X280648100Y-161377700D01*
X206720200Y-112175000D02*
X204900000Y-112175000D01*
X184623200Y-113923200D02*
X179374500Y-108674500D01*
X179414500Y-85375100D02*
X179414500Y-91392400D01*
X204900000Y-93175000D02*
X204900000Y-93600000D01*
X183950000Y-76900000D02*
X182440100Y-78409900D01*
X164131000Y-101875000D02*
X166600000Y-101875000D01*
X270482700Y-179359500D02*
X272057800Y-179995900D01*
X160357200Y-105648800D02*
X164131000Y-101875000D01*
X144274000Y-56135700D02*
X144326600Y-56188300D01*
X223600000Y-120900000D02*
X223900000Y-120600000D01*
X288796600Y-187396400D02*
X289263600Y-186929400D01*
X242537500Y-85537500D02*
X238838800Y-85537500D01*
X154439700Y-127083900D02*
X151383900Y-127083900D01*
X192225200Y-56349900D02*
X188689300Y-56349900D01*
X180842800Y-80007200D02*
X174308200Y-86541800D01*
X185900000Y-114600000D02*
X185900000Y-114422800D01*
X144751600Y-84549000D02*
X144751600Y-82490300D01*
X236368800Y-85537500D02*
X236368800Y-92794800D01*
X185900000Y-57600000D02*
X185900000Y-57175000D01*
X198385700Y-106875200D02*
X198385700Y-107110700D01*
X183037500Y-98789700D02*
X183571300Y-99323400D01*
X236365100Y-109424200D02*
X236365100Y-119349900D01*
X149525100Y-104175000D02*
X149525100Y-104612900D01*
X279474600Y-162565000D02*
X279474600Y-163165600D01*
X297351400Y-169543700D02*
X297494200Y-169686500D01*
X188690100Y-105559800D02*
X192606400Y-109476100D01*
X282914100Y-167834500D02*
X289074600Y-167834500D01*
X184293000Y-100045200D02*
X184973900Y-100045200D01*
X222274900Y-63899900D02*
X222274900Y-63900000D01*
X242900000Y-104600000D02*
X242600000Y-104900000D01*
X246307500Y-127105300D02*
X249418200Y-127105300D01*
X174308200Y-86541800D02*
X170309800Y-86541800D01*
X279751200Y-165576900D02*
X280794700Y-166620400D01*
X198385700Y-107110700D02*
X204175000Y-112900000D01*
X165274900Y-59920700D02*
X165452900Y-59742700D01*
X260200000Y-62100000D02*
X260200000Y-63200000D01*
X204600000Y-112900000D02*
X204175000Y-112900000D01*
X192606400Y-109476100D02*
X193671900Y-109476100D01*
X240889300Y-104900000D02*
X240585100Y-105204200D01*
X272372100Y-180310200D02*
X272057800Y-179995900D01*
X144751600Y-82490300D02*
X143944700Y-81683400D01*
X242600000Y-123900000D02*
X241274900Y-123900000D01*
X207645000Y-111250200D02*
X207028800Y-111866400D01*
X275550000Y-127950000D02*
X277450000Y-127950000D01*
X217437600Y-59641500D02*
X221696000Y-63899900D01*
X166600000Y-101875000D02*
X166900000Y-101575000D01*
X280048300Y-161933300D02*
X280048300Y-161991300D01*
X281700000Y-166620400D02*
X282914100Y-167834500D01*
X238838800Y-85537500D02*
X236368800Y-85537500D01*
X198388200Y-56349900D02*
X192225200Y-56349900D01*
X300446900Y-173389100D02*
X298937400Y-171879600D01*
X204600000Y-55900000D02*
X204175000Y-55900000D01*
X140938700Y-88361900D02*
X140938700Y-97782100D01*
X169106500Y-85338500D02*
X169106500Y-84781500D01*
X195236200Y-106875200D02*
X198385700Y-106875200D01*
X159869400Y-68555500D02*
X165274900Y-63150000D01*
X183871400Y-115303500D02*
X184274900Y-114900000D01*
X188690100Y-103761400D02*
X188690100Y-105559800D01*
X147900000Y-123600000D02*
X147900000Y-123175000D01*
X278232400Y-161209800D02*
X278232400Y-161199700D01*
X202901600Y-74900000D02*
X198388200Y-70386600D01*
X249418200Y-127105300D02*
X256100000Y-120423500D01*
X222937500Y-63900000D02*
X222274900Y-63900000D01*
X203096100Y-93721200D02*
X198385700Y-98431600D01*
X289074600Y-167834500D02*
X289177100Y-167937000D01*
X288714800Y-187396400D02*
X288796600Y-187396400D01*
X179374500Y-108674500D02*
X179374500Y-103520200D01*
X153926000Y-75190000D02*
X153350900Y-75190000D01*
X169224600Y-63004300D02*
X169395300Y-63175000D01*
X204600000Y-93900000D02*
X203274900Y-93900000D01*
X187864200Y-57175000D02*
X187525100Y-57175000D01*
X207028800Y-111866400D02*
X206720200Y-112175000D01*
X279474600Y-163165600D02*
X279751200Y-163442200D01*
X153350900Y-75190000D02*
X152347200Y-76193700D01*
X159869400Y-76144400D02*
X159869400Y-68555500D01*
X140938700Y-97782100D02*
X147615800Y-104459200D01*
X160357200Y-120875000D02*
X160357200Y-105648800D01*
X184274900Y-114900000D02*
X184274900Y-114048000D01*
X165623200Y-81898300D02*
X165623200Y-81898200D01*
X204900000Y-74175000D02*
X204900000Y-74600000D01*
X221696000Y-63899900D02*
X222274900Y-63899900D01*
X204900000Y-93600000D02*
X204600000Y-93900000D01*
X242900000Y-123876200D02*
X243078400Y-123876200D01*
X270482700Y-179359500D02*
X271032400Y-178809800D01*
X222274900Y-101175000D02*
X222274900Y-100554700D01*
X128600000Y-115900000D02*
X128750000Y-115750000D01*
X185900000Y-95600000D02*
X186590100Y-95600000D01*
X147900000Y-123175000D02*
X135855800Y-123175000D01*
X130485000Y-117804200D02*
X130485000Y-116316800D01*
X182440100Y-78409900D02*
X182440100Y-78489500D01*
X166600000Y-120875000D02*
X160357200Y-120875000D01*
X166900000Y-120575000D02*
X166600000Y-120875000D01*
X169224600Y-61166800D02*
X169224600Y-63004300D01*
X278232400Y-161199700D02*
X280048300Y-161933300D01*
X280048300Y-161991300D02*
X279474600Y-162565000D01*
X226400100Y-81300000D02*
X225525100Y-82175000D01*
X180922400Y-80007200D02*
X180842800Y-80007200D01*
X186590100Y-95600000D02*
X187840100Y-96850000D01*
X290193200Y-187396400D02*
X291104700Y-188307900D01*
X273003600Y-180310200D02*
X272372100Y-180310200D01*
X166900000Y-101575000D02*
X166900000Y-101150000D01*
X165452900Y-59742700D02*
X167800500Y-59742700D01*
X183571300Y-99323400D02*
X179374500Y-103520200D01*
X238603400Y-103222600D02*
X238476100Y-103349900D01*
X217437600Y-59062600D02*
X217437600Y-59641500D01*
X183571300Y-99323400D02*
X184293000Y-100045200D01*
X188689300Y-56349900D02*
X187864200Y-57175000D01*
X177329300Y-101475000D02*
X177176600Y-101475000D01*
X166900000Y-120150000D02*
X166900000Y-120575000D01*
X242900000Y-66600000D02*
X242600000Y-66900000D01*
X128750000Y-115750000D02*
X128900000Y-115750000D01*
X236368800Y-100079500D02*
X238603400Y-102314100D01*
X198388200Y-70386600D02*
X198388200Y-56349900D01*
X242600000Y-85600000D02*
X242537500Y-85537500D01*
X130485000Y-116316800D02*
X131252700Y-115549100D01*
X280048300Y-161933300D02*
X280603900Y-161377700D01*
X280794700Y-166620400D02*
X281700000Y-166620400D01*
X182440100Y-78489500D02*
X180922400Y-80007200D01*
X204900000Y-74600000D02*
X204600000Y-74900000D01*
X238603400Y-103222600D02*
X240585100Y-105204200D01*
X202825000Y-56349900D02*
X203274900Y-55900000D01*
X203096100Y-93721200D02*
X203274900Y-93900000D01*
X236368800Y-85537500D02*
X236368800Y-81750100D01*
X288714800Y-187396400D02*
X290193200Y-187396400D01*
X185600000Y-114900000D02*
X185900000Y-114600000D01*
X242900000Y-104175000D02*
X242900000Y-104600000D01*
X204175000Y-112900000D02*
X204900000Y-112175000D01*
X131252700Y-115549100D02*
X131252700Y-114895400D01*
X236368800Y-97746800D02*
X236368800Y-100079500D01*
X165274900Y-82875000D02*
X165274900Y-82023000D01*
X289177100Y-167937000D02*
X292601800Y-167937000D01*
X223900000Y-101175000D02*
X222274900Y-101175000D01*
X185900000Y-76175000D02*
X185900000Y-76600000D01*
X223900000Y-82600000D02*
X223900000Y-82175000D01*
X202901600Y-74900000D02*
X197906500Y-79895100D01*
X183922100Y-95900000D02*
X183037500Y-96784600D01*
X240598800Y-67195600D02*
X235918700Y-71875700D01*
X238603400Y-102314100D02*
X238603400Y-103222600D01*
X160357200Y-120875000D02*
X158631900Y-120875000D01*
X277450000Y-127950000D02*
X279350000Y-127950000D01*
X243078400Y-123876200D02*
X246307500Y-127105300D01*
X185600000Y-114900000D02*
X184274900Y-114900000D01*
X223600000Y-82900000D02*
X223900000Y-82600000D01*
X186922900Y-80015500D02*
X184774100Y-80015500D01*
X242900000Y-66175000D02*
X242900000Y-66600000D01*
X277682700Y-161759500D02*
X278232400Y-161209800D01*
X151383900Y-127083900D02*
X147900000Y-123600000D01*
X130485000Y-116316800D02*
X129466800Y-116316800D01*
X223900000Y-120600000D02*
X223900000Y-120175000D01*
X222274900Y-101175000D02*
X212199700Y-111250200D01*
X187243800Y-78018800D02*
X185862500Y-76637500D01*
X165623200Y-81898200D02*
X159869400Y-76144400D01*
X212199700Y-111250200D02*
X207645000Y-111250200D01*
X185600000Y-76900000D02*
X183950000Y-76900000D01*
X242600000Y-123900000D02*
X242623800Y-123876200D01*
X147615800Y-104459200D02*
X147600000Y-104475000D01*
X242537500Y-85537500D02*
X242900000Y-85175000D01*
X187243800Y-79694600D02*
X187243800Y-78018800D01*
X222274900Y-100554700D02*
X222070100Y-100349900D01*
X197906500Y-88531600D02*
X203096100Y-93721200D01*
X298937400Y-171096400D02*
X298937400Y-170755600D01*
X298937400Y-171879600D02*
X298937400Y-171096400D01*
X271032400Y-178809800D02*
X271032400Y-178799700D01*
X197906500Y-79895100D02*
X197906500Y-88531600D01*
X160357200Y-105648800D02*
X159608400Y-104900000D01*
X183037500Y-96784600D02*
X183037500Y-98789700D01*
X128900000Y-115750000D02*
X128900000Y-115175000D01*
X198385700Y-98431600D02*
X198385700Y-106875200D01*
X242623800Y-123876200D02*
X242900000Y-123876200D01*
X166900000Y-63575000D02*
X166600000Y-63875000D01*
X158039100Y-123484500D02*
X154439700Y-127083900D01*
X236361300Y-92802300D02*
X236182300Y-92802300D01*
X258000000Y-118750000D02*
X256100000Y-118750000D01*
X240598800Y-67195600D02*
X238753100Y-65349900D01*
X147900000Y-104175000D02*
X147615800Y-104459200D01*
X242900000Y-123876200D02*
X242900000Y-123175000D01*
X169106500Y-84781500D02*
X166900000Y-82575000D01*
X235918700Y-93065900D02*
X235918700Y-97296700D01*
X298937400Y-170755600D02*
X299063600Y-170629400D01*
X158039100Y-121467800D02*
X158039100Y-123484500D01*
X235918700Y-71875700D02*
X235918700Y-81300000D01*
X242600000Y-66900000D02*
X240894400Y-66900000D01*
X203937500Y-55900000D02*
X203274900Y-55900000D01*
X166600000Y-82875000D02*
X165274900Y-82875000D01*
X299063600Y-170629400D02*
X297494200Y-169686500D01*
X240585100Y-105204200D02*
X236365100Y-109424200D01*
X236368800Y-81750100D02*
X235918700Y-81300000D01*
X223600000Y-101900000D02*
X223175000Y-101900000D01*
X166900000Y-63150000D02*
X165274900Y-63150000D01*
X194422000Y-108726000D02*
X194422000Y-107689400D01*
X198388200Y-56349900D02*
X202825000Y-56349900D01*
X184348000Y-113974900D02*
X184571600Y-113974900D01*
X223175000Y-63900000D02*
X223900000Y-63175000D01*
X129466800Y-116316800D02*
X128900000Y-115750000D01*
X166900000Y-63150000D02*
X166900000Y-63575000D01*
X145280000Y-84549000D02*
X144751600Y-84549000D01*
X165274900Y-63150000D02*
X165274900Y-59920700D01*
X185900000Y-95175000D02*
X185900000Y-95600000D01*
X165348000Y-81949900D02*
X165571600Y-81949900D01*
X185900000Y-114422800D02*
X185900000Y-114175000D01*
X256100000Y-120423500D02*
X256100000Y-118750000D01*
X158631900Y-120875000D02*
X158039100Y-121467800D01*
X149525100Y-104612900D02*
X149832300Y-104920100D01*
X185600000Y-57900000D02*
X185900000Y-57600000D01*
X166900000Y-82575000D02*
X166900000Y-82150000D01*
X185900000Y-95600000D02*
X185600000Y-95900000D01*
X242600000Y-104900000D02*
X240889300Y-104900000D01*
X292601800Y-167937000D02*
X294208500Y-169543700D01*
X225525100Y-120175000D02*
X226350200Y-119349900D01*
X236365100Y-119349900D02*
X236724800Y-119349900D01*
X144751600Y-84549000D02*
X140938700Y-88361900D01*
X259900000Y-118750000D02*
X258000000Y-118750000D01*
X185862500Y-76637500D02*
X185600000Y-76900000D01*
X223175000Y-101900000D02*
X223900000Y-101175000D01*
X184623200Y-113923300D02*
X184623200Y-113923200D01*
X223600000Y-63900000D02*
X223175000Y-63900000D01*
X147600000Y-123900000D02*
X147900000Y-123600000D01*
X298433000Y-171096400D02*
X298937400Y-171096400D01*
X279751200Y-163442200D02*
X279751200Y-165576900D01*
X222937500Y-63900000D02*
X223175000Y-63900000D01*
X147900000Y-104175000D02*
X149525100Y-104175000D01*
X192225200Y-56349900D02*
X192225200Y-57175000D01*
%TO.N,RST*%
X144274000Y-57410000D02*
X144274000Y-58643400D01*
X144274000Y-58643400D02*
X144310600Y-58680000D01*
%TO.N,VCC*%
X286717700Y-178540300D02*
X287989600Y-179812200D01*
X171600000Y-60675000D02*
X172925100Y-60675000D01*
X245766000Y-53075600D02*
X245766000Y-57639600D01*
X293936400Y-187695600D02*
X294100000Y-187695600D01*
X259074900Y-55100000D02*
X256519000Y-52544100D01*
X207674900Y-91425000D02*
X207674900Y-93625900D01*
X275550000Y-107200000D02*
X277450000Y-107200000D01*
X305626700Y-172659400D02*
X305854600Y-172659400D01*
X289477400Y-166653000D02*
X289477400Y-167211900D01*
X190300000Y-112425000D02*
X190300000Y-112000000D01*
X171600000Y-79675000D02*
X171300000Y-79975000D01*
X169616000Y-100324800D02*
X169616000Y-98898800D01*
X190300000Y-74000000D02*
X190300000Y-74425000D01*
X228300000Y-117850000D02*
X228300000Y-118425000D01*
X152450000Y-101700000D02*
X152600000Y-101700000D01*
X192040000Y-100225400D02*
X192040000Y-101602900D01*
X210925100Y-109306300D02*
X222456600Y-97774800D01*
X209450000Y-67032700D02*
X209450000Y-71700000D01*
X247450000Y-82850000D02*
X247300000Y-82850000D01*
X209600000Y-90700000D02*
X209300000Y-91000000D01*
X169461300Y-104740300D02*
X169461300Y-100479500D01*
X174856700Y-106149300D02*
X170870300Y-106149300D01*
X133300000Y-113101300D02*
X133048700Y-112850000D01*
X260200000Y-55100000D02*
X259187500Y-55100000D01*
X149081900Y-89599700D02*
X149081900Y-85292900D01*
X175356100Y-117096500D02*
X175356100Y-113396400D01*
X176542200Y-112210300D02*
X176542200Y-107834800D01*
X226674900Y-73548600D02*
X229787900Y-76661600D01*
X208274900Y-109074800D02*
X207989800Y-109074800D01*
X296179400Y-186677400D02*
X296179400Y-187751100D01*
X190600000Y-111700000D02*
X191925100Y-111700000D01*
X248925100Y-63700000D02*
X248925100Y-64497200D01*
X210925100Y-109700000D02*
X210925100Y-109306300D01*
X292110300Y-181611600D02*
X293007500Y-180714400D01*
X284783400Y-161958900D02*
X284783400Y-161959000D01*
X247450000Y-63700000D02*
X247600000Y-63700000D01*
X170988900Y-98663900D02*
X169381100Y-98663900D01*
X207674900Y-93625900D02*
X207506100Y-93794700D01*
X144849100Y-59950000D02*
X144849100Y-60525100D01*
X226449800Y-111032500D02*
X228450000Y-113032700D01*
X226033900Y-98270900D02*
X226674900Y-98912000D01*
X247300000Y-121000000D02*
X247600000Y-120700000D01*
X172925100Y-61095400D02*
X173601600Y-61771900D01*
X171300000Y-79975000D02*
X171300000Y-80400000D01*
X247300000Y-121425000D02*
X245392700Y-121425000D01*
X172981600Y-79618500D02*
X172925100Y-79675000D01*
X261325200Y-66268200D02*
X261325200Y-95249700D01*
X148880200Y-119630300D02*
X150674900Y-121425000D01*
X208136600Y-71925000D02*
X207477000Y-71265400D01*
X151376900Y-101850000D02*
X150531400Y-101004500D01*
X190300000Y-55425000D02*
X190300000Y-55000000D01*
X172611700Y-118321000D02*
X174131600Y-118321000D01*
X209300000Y-71925000D02*
X209300000Y-72425000D01*
X282119200Y-160366800D02*
X280886200Y-160366800D01*
X153025000Y-120700000D02*
X152300000Y-121425000D01*
X190268800Y-92700000D02*
X189937500Y-92700000D01*
X208274900Y-109074800D02*
X208274900Y-109700000D01*
X228600000Y-79700000D02*
X228300000Y-80000000D01*
X282967600Y-161225300D02*
X284783400Y-161958900D01*
X209434400Y-105308000D02*
X209434400Y-107615400D01*
X169616000Y-98898800D02*
X169381100Y-98663900D01*
X275767600Y-178815200D02*
X276042500Y-178540300D01*
X191925100Y-111700000D02*
X191925100Y-110895100D01*
X176542200Y-107834800D02*
X174856700Y-106149300D01*
X207674900Y-90365400D02*
X207674900Y-91425000D01*
X152600000Y-120700000D02*
X150299100Y-120700000D01*
X174131600Y-118321000D02*
X175356100Y-117096500D01*
X152300000Y-101850000D02*
X151376900Y-101850000D01*
X193187700Y-99077700D02*
X192040000Y-100225400D01*
X228300000Y-99000000D02*
X228300000Y-99425000D01*
X171906300Y-116501900D02*
X171860800Y-116456400D01*
X171300000Y-60975000D02*
X171600000Y-60675000D01*
X209300000Y-71925000D02*
X209450000Y-71775000D01*
X247300000Y-121425000D02*
X247300000Y-121000000D01*
X275767000Y-178814600D02*
X275767600Y-178815200D01*
X247300000Y-102425000D02*
X246937500Y-102425000D01*
X149081900Y-85292900D02*
X148338000Y-84549000D01*
X305305800Y-172338500D02*
X305626700Y-172659400D01*
X173601600Y-61771900D02*
X174238200Y-61771900D01*
X171600000Y-79675000D02*
X172925100Y-79675000D01*
X133300000Y-113101300D02*
X133600000Y-112801300D01*
X247600000Y-101700000D02*
X248925100Y-101700000D01*
X228450000Y-113032700D02*
X228450000Y-117700000D01*
X228300000Y-99425000D02*
X226674900Y-99425000D01*
X294567000Y-187228600D02*
X295900700Y-188029800D01*
X189937500Y-92700000D02*
X190300000Y-93062500D01*
X228450000Y-117700000D02*
X228300000Y-117850000D01*
X133300000Y-113425000D02*
X133300000Y-113101300D01*
X171300000Y-98975000D02*
X170988900Y-98663900D01*
X282967600Y-161215200D02*
X282119200Y-160366800D01*
X228300000Y-61000000D02*
X228300000Y-61425000D01*
X209300000Y-53425000D02*
X207674900Y-53425000D01*
X226674900Y-61733300D02*
X226674900Y-73548600D01*
X207506100Y-93794700D02*
X207506100Y-103379700D01*
X169461300Y-100479500D02*
X169616000Y-100324800D01*
X133600000Y-112801300D02*
X133600000Y-112700000D01*
X293007500Y-180714400D02*
X295175000Y-180714400D01*
X171300000Y-61400000D02*
X171300000Y-60975000D01*
X226449800Y-102335800D02*
X226449800Y-111032500D01*
X228600000Y-98700000D02*
X228300000Y-99000000D01*
X296638300Y-182177700D02*
X296638300Y-186218500D01*
X191925100Y-54700000D02*
X192318800Y-54306300D01*
X190268800Y-92700000D02*
X190600000Y-92700000D01*
X247600000Y-101700000D02*
X246937500Y-101700000D01*
X171906300Y-117675000D02*
X171906300Y-116501900D01*
X192318800Y-54306300D02*
X206649800Y-54306300D01*
X248925100Y-101700000D02*
X249228300Y-101396800D01*
X248925100Y-64497200D02*
X249678100Y-65250200D01*
X249228300Y-101396800D02*
X249228300Y-100774900D01*
X247600000Y-82700000D02*
X247450000Y-82850000D01*
X294100000Y-187695600D02*
X294567000Y-187228600D01*
X296716600Y-167211900D02*
X297986800Y-168482100D01*
X148338000Y-84549000D02*
X147820000Y-84549000D01*
X228300000Y-80000000D02*
X228300000Y-80425000D01*
X190300000Y-74000000D02*
X189409400Y-73109400D01*
X189409400Y-73109400D02*
X188999200Y-73109400D01*
X277450000Y-107200000D02*
X279350000Y-107200000D01*
X171300000Y-98975000D02*
X171300000Y-99400000D01*
X226033900Y-98270900D02*
X226106100Y-98198700D01*
X229787900Y-76661600D02*
X229787900Y-77580100D01*
X152450000Y-101700000D02*
X152450000Y-97350900D01*
X289477400Y-167211900D02*
X296716600Y-167211900D01*
X273181700Y-178814600D02*
X275767000Y-178814600D01*
X247300000Y-82850000D02*
X247300000Y-83425000D01*
X303736400Y-171395600D02*
X305305800Y-172338500D01*
X172925100Y-60675000D02*
X172925100Y-61095400D01*
X276042500Y-178540300D02*
X276317300Y-178540300D01*
X229925100Y-79635700D02*
X229925100Y-79700000D01*
X276317300Y-178540300D02*
X276317300Y-178265500D01*
X209300000Y-91000000D02*
X209300000Y-91425000D01*
X296638300Y-186218500D02*
X296179400Y-186677400D01*
X209300000Y-110062500D02*
X209300000Y-110425000D01*
X190600000Y-73700000D02*
X190300000Y-74000000D01*
X190300000Y-93062500D02*
X190300000Y-93425000D01*
X304367000Y-170928600D02*
X304203400Y-170928600D01*
X209600000Y-109700000D02*
X210925100Y-109700000D01*
X226674900Y-61733300D02*
X226674900Y-61425000D01*
X190648200Y-110481200D02*
X190648200Y-110481100D01*
X245766000Y-57639600D02*
X247450000Y-59323600D01*
X150814800Y-95715700D02*
X150814800Y-91332600D01*
X259074900Y-55100000D02*
X259074900Y-64017900D01*
X208274900Y-108774900D02*
X208274900Y-109074800D01*
X152300000Y-121425000D02*
X150674900Y-121425000D01*
X193187700Y-93962600D02*
X193187700Y-99077700D01*
X209300000Y-91425000D02*
X207674900Y-91425000D01*
X144569400Y-119630300D02*
X148880200Y-119630300D01*
X171965700Y-117734300D02*
X171965700Y-117675000D01*
X152600000Y-120700000D02*
X153025000Y-120700000D01*
X247300000Y-64425000D02*
X247300000Y-63850000D01*
X209268800Y-109700000D02*
X208937500Y-109700000D01*
X230572100Y-78988700D02*
X229925100Y-79635700D01*
X209300000Y-53425000D02*
X209300000Y-53000000D01*
X137740400Y-112801300D02*
X144569400Y-119630300D01*
X228300000Y-118425000D02*
X225826000Y-118425000D01*
X246937500Y-101700000D02*
X246937500Y-102425000D01*
X287989600Y-179812200D02*
X287989600Y-180326800D01*
X282967600Y-161215200D02*
X282967600Y-161225300D01*
X261325200Y-95249700D02*
X259900000Y-96674900D01*
X228600000Y-117700000D02*
X228450000Y-117700000D01*
X226674900Y-98912000D02*
X226674900Y-99425000D01*
X247450000Y-59323600D02*
X247450000Y-63700000D01*
X247300000Y-63850000D02*
X247450000Y-63700000D01*
X190600000Y-54700000D02*
X191925100Y-54700000D01*
X228600000Y-79700000D02*
X229925100Y-79700000D01*
X171965700Y-117675000D02*
X172611700Y-118321000D01*
X207506100Y-103379700D02*
X209434400Y-105308000D01*
X246297500Y-52544100D02*
X245766000Y-53075600D01*
X209268800Y-109700000D02*
X209600000Y-109700000D01*
X284783400Y-161959000D02*
X289477400Y-166653000D01*
X190300000Y-55000000D02*
X190600000Y-54700000D01*
X191511200Y-110481200D02*
X190648200Y-110481200D01*
X171906300Y-117675000D02*
X171965700Y-117675000D01*
X190600000Y-92700000D02*
X191925100Y-92700000D01*
X191925100Y-92700000D02*
X193187700Y-93962600D01*
X208937500Y-109700000D02*
X209300000Y-110062500D01*
X228300000Y-61425000D02*
X226674900Y-61425000D01*
X144274000Y-59950000D02*
X144849100Y-59950000D01*
X289274400Y-181611600D02*
X292110300Y-181611600D01*
X150814800Y-91332600D02*
X149081900Y-89599700D01*
X152300000Y-102425000D02*
X152300000Y-101850000D01*
X287989600Y-180326800D02*
X289274400Y-181611600D01*
X207100000Y-54250200D02*
X207100000Y-53999900D01*
X226267700Y-61733300D02*
X226674900Y-61733300D01*
X259900000Y-98000000D02*
X259900000Y-96674900D01*
X170870300Y-106149300D02*
X169461300Y-104740300D01*
X259074900Y-64017900D02*
X261325200Y-66268200D01*
X304203400Y-170928600D02*
X303736400Y-171395600D01*
X283517300Y-160665500D02*
X282967600Y-161215200D01*
X144849100Y-60525100D02*
X145161000Y-60837000D01*
X295175000Y-180714400D02*
X296638300Y-182177700D01*
X247600000Y-63700000D02*
X248925100Y-63700000D01*
X191925100Y-110895100D02*
X191511200Y-110481200D01*
X133600000Y-112801300D02*
X137740400Y-112801300D01*
X171600000Y-98675000D02*
X171300000Y-98975000D01*
X209434400Y-107615400D02*
X208274900Y-108774900D01*
X226674900Y-102110700D02*
X226449800Y-102335800D01*
X258000000Y-98000000D02*
X259900000Y-98000000D01*
X256519000Y-52544100D02*
X246297500Y-52544100D01*
X207100000Y-53999900D02*
X207674900Y-53425000D01*
X206649800Y-54306300D02*
X207043900Y-54306300D01*
X275767600Y-178825300D02*
X275767600Y-178815200D01*
X190300000Y-112000000D02*
X190600000Y-111700000D01*
X175356100Y-113396400D02*
X176542200Y-112210300D01*
X296179400Y-187751100D02*
X295900700Y-188029800D01*
X174879200Y-61130900D02*
X174879200Y-59524700D01*
X228600000Y-60700000D02*
X228300000Y-61000000D01*
X226674900Y-99425000D02*
X226674900Y-102110700D01*
X209450000Y-71775000D02*
X209450000Y-71700000D01*
X208937500Y-109700000D02*
X208274900Y-109700000D01*
X276317300Y-178540300D02*
X286717700Y-178540300D01*
X133048700Y-112850000D02*
X131374100Y-112850000D01*
X172981600Y-78566900D02*
X172981600Y-79618500D01*
X247300000Y-82850000D02*
X246218100Y-82850000D01*
X206649800Y-64232500D02*
X209450000Y-67032700D01*
X222456600Y-97774800D02*
X225537700Y-97774800D01*
X171300000Y-118400000D02*
X171965700Y-117734300D01*
X209300000Y-53000000D02*
X209600000Y-52700000D01*
X207043900Y-54306300D02*
X207100000Y-54250200D01*
X209600000Y-71700000D02*
X209450000Y-71700000D01*
X259187500Y-55100000D02*
X259074900Y-55100000D01*
X152300000Y-101850000D02*
X152450000Y-101700000D01*
X174238200Y-61771900D02*
X174879200Y-61130900D01*
X246218100Y-82850000D02*
X245705600Y-82337500D01*
X171600000Y-117675000D02*
X171906300Y-117675000D01*
X152450000Y-97350900D02*
X150814800Y-95715700D01*
X225537700Y-97774800D02*
X226033900Y-98270900D01*
X258000000Y-98000000D02*
X256100000Y-98000000D01*
X206649800Y-54306300D02*
X206649800Y-64232500D01*
X209300000Y-71925000D02*
X208136600Y-71925000D01*
%TO.N,P21*%
X231942000Y-71220000D02*
X233542100Y-71220000D01*
X232397300Y-92250400D02*
X232397300Y-107189600D01*
X231942000Y-109220000D02*
X231942000Y-107644900D01*
X231942000Y-107644900D02*
X231644200Y-107347100D01*
X233542100Y-71220000D02*
X233542100Y-69800400D01*
X163752600Y-49292000D02*
X172566200Y-49292000D01*
X233542100Y-69800400D02*
X232535900Y-68794200D01*
X150923600Y-61330600D02*
X156938000Y-61330600D01*
X231942000Y-90220000D02*
X231942000Y-91795100D01*
X231192100Y-87554600D02*
X231192100Y-82058900D01*
X230875600Y-87871100D02*
X230875600Y-88211400D01*
X231942000Y-89432400D02*
X231942000Y-88644900D01*
X231649400Y-88644900D02*
X231942000Y-88644900D01*
X230875600Y-87871100D02*
X231192100Y-87554600D01*
X150530000Y-61724200D02*
X150923600Y-61330600D01*
X232535900Y-68794200D02*
X232392000Y-68794200D01*
X231942000Y-50090200D02*
X231942000Y-52220000D01*
X158464400Y-54580200D02*
X163752600Y-49292000D01*
X144274000Y-62490000D02*
X144849100Y-62490000D01*
X232397300Y-107189600D02*
X231942000Y-107644900D01*
X158464400Y-59804200D02*
X158464400Y-54580200D01*
X145614900Y-61724200D02*
X150530000Y-61724200D01*
X231942000Y-91795100D02*
X232397300Y-92250400D01*
X230875600Y-87871100D02*
X231649400Y-88644900D01*
X231942000Y-53795100D02*
X232392000Y-54245100D01*
X144849100Y-62490000D02*
X145614900Y-61724200D01*
X231942000Y-89432400D02*
X231942000Y-90220000D01*
X231942000Y-52220000D02*
X231942000Y-53795100D01*
X156938000Y-61330600D02*
X158464400Y-59804200D01*
X231095200Y-49243400D02*
X231942000Y-50090200D01*
X232392000Y-54245100D02*
X232392000Y-68794200D01*
%TO.N,P20*%
X168437100Y-53321000D02*
X168437100Y-54557700D01*
X250942000Y-92432400D02*
X250942000Y-91644900D01*
X251395100Y-71796100D02*
X250935700Y-72255500D01*
X251109200Y-89921500D02*
X251336100Y-90148400D01*
X250942000Y-55220000D02*
X250942000Y-55739600D01*
X251379000Y-89651700D02*
X251379000Y-76232100D01*
X250942000Y-56795100D02*
X251395100Y-57248200D01*
X142567700Y-66375000D02*
X142929000Y-66375000D01*
X250896400Y-109587800D02*
X250896400Y-110599300D01*
X250942000Y-72261800D02*
X250935700Y-72255500D01*
X251366900Y-109117300D02*
X250896400Y-109587800D01*
X251366900Y-92857300D02*
X251366900Y-109117300D01*
X250942000Y-55739600D02*
X250942000Y-56795100D01*
X251109200Y-91477700D02*
X251109200Y-89921500D01*
X250942000Y-93220000D02*
X250942000Y-92432400D01*
X142929000Y-66375000D02*
X144274000Y-65030000D01*
X250942000Y-74220000D02*
X250942000Y-75795100D01*
X250942000Y-91644900D02*
X251109200Y-91477700D01*
X251379000Y-76232100D02*
X250942000Y-75795100D01*
X251109200Y-89921500D02*
X251379000Y-89651700D01*
X251395100Y-57248200D02*
X251395100Y-71796100D01*
X248519900Y-53317500D02*
X246566200Y-53317500D01*
X250942000Y-55739600D02*
X248519900Y-53317500D01*
X168437100Y-54557700D02*
X159090000Y-63904800D01*
X250896400Y-110599300D02*
X250942000Y-110644900D01*
X250942000Y-92432400D02*
X251366900Y-92857300D01*
X250942000Y-112220000D02*
X250942000Y-110644900D01*
X250942000Y-74220000D02*
X250942000Y-72261800D01*
%TO.N,P19*%
X180469800Y-79107000D02*
X180430600Y-79146200D01*
X258000000Y-90750000D02*
X259900000Y-90750000D01*
X256100000Y-90750000D02*
X258000000Y-90750000D01*
X177736700Y-72999800D02*
X178354600Y-72999800D01*
X287842400Y-189156700D02*
X288173700Y-189488000D01*
X175798400Y-76362300D02*
X175798400Y-74938100D01*
X279350000Y-99950000D02*
X277450000Y-99950000D01*
X268583200Y-180641300D02*
X268583200Y-177394700D01*
X270163700Y-181279800D02*
X270415200Y-181279800D01*
X169690100Y-71761400D02*
X169690100Y-73563600D01*
X165845300Y-67916600D02*
X169690100Y-71761400D01*
X169690100Y-73563600D02*
X173607100Y-77480600D01*
X178354600Y-72999800D02*
X180543600Y-75188800D01*
X180430600Y-79146200D02*
X180236000Y-78951700D01*
X286542200Y-188375500D02*
X287842400Y-189156700D01*
X270415200Y-181279800D02*
X270585900Y-181450500D01*
X278655200Y-168172600D02*
X278460700Y-168367100D01*
X174680100Y-77480600D02*
X175798400Y-76362300D01*
X173607100Y-77480600D02*
X174680100Y-77480600D01*
X268583200Y-177394700D02*
X277914500Y-168063400D01*
X180543600Y-79107000D02*
X180469800Y-79107000D01*
X288173700Y-189488000D02*
X288393700Y-189488000D01*
X278546000Y-168063400D02*
X278655200Y-168172600D01*
X144274000Y-67570000D02*
X144274000Y-66336600D01*
X165845300Y-67743600D02*
X165845300Y-67916600D01*
X144274000Y-66336600D02*
X144310600Y-66300000D01*
X277914500Y-168063400D02*
X278546000Y-168063400D01*
X268583200Y-180641300D02*
X270163700Y-181279800D01*
X180543600Y-75188800D02*
X180543600Y-79107000D01*
X175798400Y-74938100D02*
X177736700Y-72999800D01*
X275550000Y-99950000D02*
X277450000Y-99950000D01*
%TO.N,P18*%
X256100000Y-83250000D02*
X258000000Y-83250000D01*
X144849100Y-70588100D02*
X144849100Y-70110000D01*
X259900000Y-83250000D02*
X258000000Y-83250000D01*
X275550000Y-92450000D02*
X277450000Y-92450000D01*
X144274000Y-70110000D02*
X144849100Y-70110000D01*
X281403700Y-167229400D02*
X282817800Y-168643500D01*
X144274000Y-71035100D02*
X144040700Y-71268400D01*
X254635000Y-80459900D02*
X254635000Y-53776700D01*
X144040700Y-71268400D02*
X139991600Y-71268400D01*
X254635000Y-53776700D02*
X255117200Y-53294500D01*
X278768700Y-164264500D02*
X278768700Y-164594400D01*
X277703500Y-163834100D02*
X278768700Y-164264500D01*
X292362900Y-168643500D02*
X295027600Y-171308200D01*
X278863600Y-165325900D02*
X280767100Y-167229400D01*
X256100000Y-81924900D02*
X254635000Y-80459900D01*
X296625100Y-172386600D02*
X296327900Y-172089400D01*
X280767100Y-167229400D02*
X281403700Y-167229400D01*
X282817800Y-168643500D02*
X292362900Y-168643500D01*
X276638300Y-163403700D02*
X276638300Y-163403800D01*
X139991600Y-71268400D02*
X139811200Y-71088000D01*
X144274000Y-70110000D02*
X144274000Y-71035100D01*
X298179400Y-173201900D02*
X297317200Y-172683900D01*
X278863600Y-164689300D02*
X278863600Y-165325900D01*
X256100000Y-83250000D02*
X256100000Y-81924900D01*
X145149000Y-70888000D02*
X144849100Y-70588100D01*
X296922500Y-172683900D02*
X296625200Y-172386600D01*
X296625200Y-172386600D02*
X296625100Y-172386600D01*
X276638300Y-163403800D02*
X276079700Y-163403800D01*
X276079700Y-163403800D02*
X275700800Y-163024900D01*
X278768700Y-164594400D02*
X278863600Y-164689300D01*
X296327900Y-172089400D02*
X295027600Y-171308200D01*
X277703500Y-163834100D02*
X276638300Y-163403700D01*
X277450000Y-92450000D02*
X279350000Y-92450000D01*
X297317200Y-172683900D02*
X296922500Y-172683900D01*
%TO.N,P15*%
X205450000Y-114800000D02*
X203290000Y-114800000D01*
X165274800Y-122800000D02*
X164075900Y-122800000D01*
X159341900Y-127534000D02*
X164075900Y-122800000D01*
X133419100Y-110291600D02*
X131935900Y-111774800D01*
X127196100Y-117706100D02*
X127290000Y-117800000D01*
X144057400Y-73791700D02*
X144274000Y-73575100D01*
X186450000Y-116800000D02*
X184290000Y-116800000D01*
X144057400Y-73791800D02*
X141248400Y-73791800D01*
X150959100Y-127534000D02*
X159341900Y-127534000D01*
X127422300Y-111774800D02*
X127196100Y-112001000D01*
X148450000Y-125800000D02*
X149225100Y-125800000D01*
X175289000Y-124102300D02*
X169527400Y-124102300D01*
X146290000Y-125800000D02*
X148450000Y-125800000D01*
X131935900Y-111774800D02*
X127422300Y-111774800D01*
X144185600Y-73920000D02*
X144057400Y-73791800D01*
X129450000Y-117800000D02*
X127290000Y-117800000D01*
X139603400Y-75436800D02*
X139603400Y-95336800D01*
X243450000Y-125800000D02*
X241290000Y-125800000D01*
X167450000Y-122800000D02*
X168225100Y-122800000D01*
X131769600Y-106670500D02*
X133419100Y-108320000D01*
X141248400Y-73791800D02*
X139603400Y-75436800D01*
X127196100Y-112001000D02*
X127196100Y-117706100D01*
X139603400Y-95336800D02*
X131769600Y-103170600D01*
X167450000Y-122800000D02*
X165290000Y-122800000D01*
X144274000Y-72650000D02*
X144274000Y-73575100D01*
X169527400Y-124102300D02*
X168225100Y-122800000D01*
X180417100Y-118974200D02*
X175289000Y-124102300D01*
X165290000Y-122800000D02*
X165274800Y-122800000D01*
X131769600Y-103170600D02*
X131769600Y-106670500D01*
X222290000Y-122800000D02*
X224450000Y-122800000D01*
X144057400Y-73791800D02*
X144057400Y-73791700D01*
X149225100Y-125800000D02*
X150959100Y-127534000D01*
X133419100Y-108320000D02*
X133419100Y-110291600D01*
%TO.N,P14*%
X145895700Y-74143400D02*
X149859700Y-74143400D01*
X243450000Y-68800000D02*
X241290000Y-68800000D01*
X167450000Y-65800000D02*
X165290000Y-65800000D01*
X160594600Y-70495400D02*
X160594600Y-71405600D01*
X205450000Y-57800000D02*
X203290000Y-57800000D01*
X144849100Y-75190000D02*
X145895700Y-74143400D01*
X186450000Y-59800000D02*
X184290000Y-59800000D01*
X144274000Y-75190000D02*
X144849100Y-75190000D01*
X165290000Y-65800000D02*
X160594600Y-70495400D01*
X224450000Y-65800000D02*
X222290000Y-65800000D01*
%TO.N,P16*%
X301809800Y-181706300D02*
X302826400Y-180014100D01*
X310578800Y-167112300D02*
X310578900Y-167112400D01*
X300855400Y-178741700D02*
X302826400Y-178741700D01*
X302826400Y-178741700D02*
X302826400Y-180014100D01*
X277450000Y-84700000D02*
X279350000Y-84700000D01*
X311595500Y-165420100D02*
X310578800Y-167112300D01*
X292811200Y-172313000D02*
X294426700Y-172313000D01*
X294426700Y-172313000D02*
X300855400Y-178741700D01*
X310578900Y-167112400D02*
X310578900Y-170989200D01*
X256100000Y-75500000D02*
X258000000Y-75500000D01*
X144849100Y-77730000D02*
X145584900Y-76994200D01*
X144274000Y-77730000D02*
X144849100Y-77730000D01*
X145584900Y-76994200D02*
X150597800Y-76994200D01*
X310578900Y-170989200D02*
X302826400Y-178741700D01*
X259900000Y-75500000D02*
X258000000Y-75500000D01*
X275550000Y-84700000D02*
X277450000Y-84700000D01*
%TO.N,P10*%
X284038500Y-152854400D02*
X285907000Y-150985900D01*
X175381700Y-87442100D02*
X181504800Y-81319000D01*
X273760500Y-165013700D02*
X276132900Y-165013700D01*
X280358700Y-168602900D02*
X282619600Y-170863800D01*
X285907000Y-150985900D02*
X287484800Y-150985900D01*
X165631700Y-87442100D02*
X175381700Y-87442100D01*
X276132900Y-165013700D02*
X279722100Y-168602900D01*
X289737100Y-153238200D02*
X289737100Y-154049500D01*
X258000000Y-69000000D02*
X256100000Y-69000000D01*
X273760500Y-161770100D02*
X273760500Y-165013700D01*
X282619600Y-170863800D02*
X282619600Y-171666000D01*
X144849100Y-80270000D02*
X146907700Y-82328600D01*
X287484800Y-150985900D02*
X289737100Y-153238200D01*
X282676200Y-152854400D02*
X273760500Y-161770100D01*
X144274000Y-80270000D02*
X144849100Y-80270000D01*
X161888700Y-81920500D02*
X161888700Y-83699100D01*
X279722100Y-168602900D02*
X280358700Y-168602900D01*
X259900000Y-69000000D02*
X258000000Y-69000000D01*
X161888700Y-83699100D02*
X165631700Y-87442100D01*
X272834200Y-165013700D02*
X273760500Y-165013700D01*
X284038500Y-152854400D02*
X282676200Y-152854400D01*
%TO.N,P1*%
X290164900Y-184769600D02*
X290164900Y-185429400D01*
X168941300Y-80751600D02*
X168589700Y-80400000D01*
X187525100Y-76907200D02*
X187525100Y-74425000D01*
X242600000Y-63700000D02*
X242900000Y-64000000D01*
X166900000Y-61400000D02*
X168525100Y-61400000D01*
X202927000Y-90700000D02*
X198412800Y-86185800D01*
X274210600Y-162370300D02*
X277003800Y-159577100D01*
X206525100Y-77331800D02*
X206525100Y-72849800D01*
X225525100Y-99425000D02*
X225729900Y-99425000D01*
X173834800Y-117313900D02*
X171869100Y-115348200D01*
X256100000Y-113000000D02*
X256100000Y-114325100D01*
X203669800Y-53630100D02*
X203669800Y-53630200D01*
X149525100Y-102425000D02*
X149525100Y-102759000D01*
X244525100Y-69282300D02*
X244525100Y-64425000D01*
X204900000Y-110062600D02*
X204900000Y-110425000D01*
X278881400Y-158792500D02*
X278888000Y-158799100D01*
X204900000Y-91000000D02*
X204600000Y-90700000D01*
X147900000Y-102425000D02*
X149525100Y-102425000D01*
X185931300Y-92700000D02*
X185778000Y-92546700D01*
X223765600Y-77615400D02*
X223765600Y-75308200D01*
X230891700Y-78263600D02*
X230271800Y-78263600D01*
X244525100Y-83425000D02*
X244525100Y-88282300D01*
X164872900Y-79675000D02*
X166600000Y-79675000D01*
X239494400Y-74313000D02*
X242387200Y-71420200D01*
X276581400Y-164507400D02*
X275027100Y-164507400D01*
X244525100Y-88282300D02*
X239555000Y-93252400D01*
X166900000Y-117975000D02*
X168807600Y-117975000D01*
X147900000Y-121425000D02*
X147900000Y-121000000D01*
X131213800Y-113831000D02*
X130807800Y-113425000D01*
X242600000Y-82700000D02*
X240958700Y-82700000D01*
X223600000Y-60700000D02*
X223900000Y-61000000D01*
X242900000Y-121000000D02*
X242900000Y-121425000D01*
X145963300Y-101700000D02*
X141414900Y-97151600D01*
X242387200Y-71420200D02*
X245236900Y-74270000D01*
X242900000Y-83000000D02*
X242900000Y-83425000D01*
X300081100Y-168353400D02*
X300023000Y-168411500D01*
X236368800Y-78110100D02*
X236368800Y-75387400D01*
X225896400Y-69151100D02*
X225525100Y-68779800D01*
X284645200Y-170887600D02*
X282997200Y-169239600D01*
X134681400Y-114250100D02*
X131632900Y-114250100D01*
X131319800Y-113872700D02*
X131361500Y-113872700D01*
X166900000Y-117975000D02*
X166900000Y-118400000D01*
X280646600Y-159238800D02*
X280456600Y-159428800D01*
X168525100Y-99400000D02*
X168525100Y-99409200D01*
X168589700Y-80400000D02*
X166900000Y-80400000D01*
X206716300Y-91425000D02*
X206928800Y-91212500D01*
X206234800Y-109700000D02*
X207191800Y-110657000D01*
X223600000Y-79700000D02*
X223900000Y-80000000D01*
X204900000Y-53000000D02*
X206658800Y-53000000D01*
X204600000Y-52700000D02*
X203274900Y-52700000D01*
X290164900Y-185429400D02*
X291734300Y-186372300D01*
X203348000Y-53625100D02*
X203664800Y-53625100D01*
X206525100Y-72849800D02*
X206525100Y-72425000D01*
X275027100Y-164507400D02*
X274210600Y-163690900D01*
X166600000Y-98675000D02*
X166900000Y-98975000D01*
X290281100Y-184653400D02*
X288947500Y-183852200D01*
X225525100Y-68779800D02*
X225525100Y-61425000D01*
X224925100Y-78774900D02*
X223765600Y-77615400D01*
X166600000Y-60675000D02*
X166900000Y-60975000D01*
X204600000Y-52700000D02*
X204900000Y-53000000D01*
X186262600Y-92700000D02*
X185900000Y-93062600D01*
X149525100Y-102759000D02*
X149916400Y-103150300D01*
X271688000Y-176399100D02*
X271681400Y-176392500D01*
X131319800Y-113872700D02*
X131319800Y-113831000D01*
X147900000Y-102000000D02*
X147600000Y-101700000D01*
X204600000Y-90700000D02*
X202927000Y-90700000D01*
X168807600Y-117975000D02*
X171434400Y-115348200D01*
X166600000Y-117675000D02*
X166900000Y-117975000D01*
X240958700Y-101700000D02*
X242600000Y-101700000D01*
X256100000Y-113000000D02*
X258000000Y-113000000D01*
X187863900Y-93802400D02*
X187525100Y-93463600D01*
X284645200Y-177290900D02*
X284970600Y-177290900D01*
X206525100Y-103548700D02*
X204765600Y-105308200D01*
X224925100Y-79700000D02*
X225673500Y-79700000D01*
X236368800Y-97110100D02*
X240958700Y-101700000D01*
X277450000Y-122200000D02*
X275550000Y-122200000D01*
X204900000Y-72000000D02*
X204900000Y-72425000D01*
X185900000Y-55150000D02*
X185900000Y-55425000D01*
X300023000Y-168411500D02*
X299964900Y-168411500D01*
X223900000Y-118000000D02*
X223900000Y-118425000D01*
X186032900Y-111700000D02*
X186736400Y-111700000D01*
X128600000Y-112700000D02*
X128900000Y-113000000D01*
X160590600Y-72130700D02*
X160406000Y-72315300D01*
X166900000Y-60975000D02*
X166900000Y-61400000D01*
X236368800Y-75387400D02*
X237443200Y-74313000D01*
X225074800Y-61425000D02*
X225849900Y-60649900D01*
X299964900Y-169129400D02*
X301037600Y-170202100D01*
X153926000Y-80270000D02*
X153926000Y-81195100D01*
X278881400Y-158792500D02*
X280456600Y-159428900D01*
X242387200Y-71420200D02*
X244525100Y-69282300D01*
X224925100Y-116774900D02*
X224925100Y-117412400D01*
X273503800Y-176898900D02*
X273575500Y-176827200D01*
X204899300Y-78957600D02*
X206525100Y-77331800D01*
X166600000Y-80100000D02*
X166900000Y-80400000D01*
X277003800Y-159577100D02*
X278888000Y-159577100D01*
X160406000Y-72315300D02*
X160406000Y-75208100D01*
X223900000Y-99000000D02*
X223900000Y-99425000D01*
X185931300Y-92700000D02*
X185699700Y-92700000D01*
X161319700Y-71706000D02*
X160895000Y-72130700D01*
X166900000Y-99400000D02*
X168525100Y-99400000D01*
X242900000Y-102062600D02*
X242900000Y-102425000D01*
X203669800Y-53630200D02*
X203669700Y-53630300D01*
X206525100Y-72849800D02*
X206860500Y-72849800D01*
X287008100Y-181912800D02*
X288947500Y-183852200D01*
X185900000Y-93062600D02*
X185900000Y-93425000D01*
X223765600Y-113308200D02*
X223765600Y-115615400D01*
X280067500Y-167993500D02*
X276581400Y-164507400D01*
X136651200Y-116219900D02*
X134681400Y-114250100D01*
X203274900Y-53552000D02*
X203348000Y-53625100D01*
X147600000Y-120700000D02*
X136651200Y-120700000D01*
X147710700Y-83104400D02*
X147710700Y-81576300D01*
X290281100Y-184653400D02*
X290164900Y-184769600D01*
X171869100Y-115348200D02*
X171434400Y-115348200D01*
X185975000Y-55075000D02*
X185600000Y-54700000D01*
X130807800Y-113425000D02*
X130525100Y-113425000D01*
X136651200Y-120700000D02*
X136651200Y-116219900D01*
X160895000Y-72130700D02*
X160590600Y-72130700D01*
X205925100Y-108774900D02*
X205925100Y-109700000D01*
X225554000Y-117412400D02*
X224925100Y-117412400D01*
X225896400Y-73177400D02*
X225896400Y-69151100D01*
X242900000Y-83425000D02*
X244525100Y-83425000D01*
X225525100Y-68779800D02*
X217517900Y-68779800D01*
X236368800Y-94347600D02*
X236368800Y-97110100D01*
X225074800Y-61425000D02*
X225525100Y-61425000D01*
X224925100Y-117412400D02*
X224925100Y-117700000D01*
X153544800Y-81576300D02*
X147710700Y-81576300D01*
X242900000Y-64425000D02*
X244525100Y-64425000D01*
X168525100Y-61400000D02*
X168525100Y-66266600D01*
X206525100Y-91425000D02*
X206716300Y-91425000D01*
X223900000Y-61425000D02*
X225074800Y-61425000D01*
X282997200Y-169239600D02*
X282773800Y-169239600D01*
X223765600Y-75308200D02*
X225896400Y-73177400D01*
X187847500Y-55075000D02*
X185975000Y-55075000D01*
X223600000Y-79700000D02*
X224925100Y-79700000D01*
X235431600Y-73723700D02*
X230891700Y-78263600D01*
X185778000Y-88295800D02*
X187711500Y-86362300D01*
X239357000Y-63700000D02*
X235431600Y-67625400D01*
X204765600Y-107615400D02*
X205925100Y-108774900D01*
X206525100Y-91425000D02*
X206525100Y-103548700D01*
X203669700Y-53630300D02*
X189292200Y-53630300D01*
X223600000Y-98700000D02*
X223900000Y-99000000D01*
X185803100Y-111700000D02*
X186032900Y-111700000D01*
X128900000Y-113425000D02*
X130525100Y-113425000D01*
X225525100Y-111548700D02*
X223765600Y-113308200D01*
X242600000Y-120700000D02*
X242900000Y-121000000D01*
X223900000Y-80000000D02*
X223900000Y-80425000D01*
X147900000Y-121000000D02*
X147600000Y-120700000D01*
X223600000Y-117700000D02*
X224925100Y-117700000D01*
X244563200Y-102669300D02*
X244563200Y-114510600D01*
X217517900Y-68779800D02*
X213790600Y-72507100D01*
X136651200Y-120700000D02*
X136651200Y-121614800D01*
X153926000Y-81195100D02*
X153544800Y-81576300D01*
X146549500Y-89240800D02*
X146549500Y-84265600D01*
X242600000Y-101700000D02*
X243262600Y-101700000D01*
X225673500Y-79700000D02*
X226325100Y-80351600D01*
X204900000Y-91425000D02*
X206525100Y-91425000D01*
X204600000Y-71700000D02*
X204900000Y-72000000D01*
X185900000Y-74425000D02*
X187525100Y-74425000D01*
X273503800Y-177910700D02*
X273503800Y-176898900D01*
X237443200Y-74313000D02*
X239494400Y-74313000D01*
X245236900Y-74270000D02*
X245236900Y-76600000D01*
X225525100Y-99425000D02*
X225525100Y-111548700D01*
X204600000Y-109700000D02*
X205262600Y-109700000D01*
X242600000Y-82700000D02*
X242900000Y-83000000D01*
X186032900Y-111700000D02*
X186032900Y-112292100D01*
X225729900Y-99425000D02*
X225942400Y-99212500D01*
X243925100Y-119774900D02*
X243925100Y-120700000D01*
X206658800Y-53000000D02*
X206801400Y-52857400D01*
X147612300Y-81576300D02*
X147033800Y-80997800D01*
X166600000Y-79675000D02*
X166600000Y-80100000D01*
X204765600Y-105308200D02*
X204765600Y-107615400D01*
X167773200Y-67018500D02*
X165545000Y-67018500D01*
X226325100Y-79881300D02*
X226325100Y-80351600D01*
X237464000Y-93252400D02*
X236368800Y-94347600D01*
X204900000Y-72425000D02*
X206525100Y-72425000D01*
X223900000Y-61000000D02*
X223900000Y-61425000D01*
X243262600Y-101700000D02*
X243593900Y-101700000D01*
X296236300Y-164682900D02*
X289347700Y-164682900D01*
X292276100Y-185830500D02*
X295913100Y-185830500D01*
X242600000Y-63700000D02*
X239357000Y-63700000D01*
X242765600Y-118615400D02*
X243925100Y-119774900D01*
X187711500Y-86362300D02*
X187711500Y-77093600D01*
X284645200Y-177290900D02*
X284645200Y-170887600D01*
X131319800Y-113831000D02*
X131213800Y-113831000D01*
X299964900Y-168411500D02*
X299964900Y-169129400D01*
X186032900Y-112292100D02*
X185900000Y-112425000D01*
X147710700Y-81576300D02*
X147612300Y-81576300D01*
X301037600Y-170202100D02*
X301037600Y-170897500D01*
X224925100Y-79700000D02*
X224925100Y-78774900D01*
X185900000Y-93425000D02*
X187525100Y-93425000D01*
X204900000Y-53000000D02*
X204900000Y-53425000D01*
X277739600Y-177290900D02*
X284645200Y-177290900D01*
X281527700Y-167993500D02*
X280067500Y-167993500D01*
X204900000Y-91425000D02*
X204900000Y-91000000D01*
X185600000Y-92700000D02*
X185699700Y-92700000D01*
X203664800Y-53625100D02*
X203669800Y-53630100D01*
X244563200Y-102669300D02*
X244856400Y-102669300D01*
X289347700Y-164682900D02*
X283903600Y-159238800D01*
X202808800Y-78957600D02*
X204899300Y-78957600D01*
X279350000Y-122200000D02*
X277450000Y-122200000D01*
X280456600Y-159428800D02*
X280456600Y-159428900D01*
X173834800Y-117592300D02*
X173834800Y-117313900D01*
X242600000Y-120700000D02*
X243925100Y-120700000D01*
X235431600Y-67625400D02*
X235431600Y-73723700D01*
X243593900Y-101700000D02*
X244563200Y-102669300D01*
X185778000Y-92546700D02*
X185778000Y-88295800D01*
X187847500Y-55075000D02*
X187847500Y-56166300D01*
X141414900Y-94375400D02*
X146549500Y-89240800D01*
X168525100Y-99409200D02*
X168890800Y-99774900D01*
X271688000Y-177177100D02*
X271688000Y-176399100D01*
X189292200Y-53630300D02*
X187847500Y-55075000D01*
X198412800Y-86185800D02*
X198412800Y-83353600D01*
X230271800Y-78263600D02*
X230211200Y-78324200D01*
X185900000Y-74000000D02*
X185900000Y-74425000D01*
X185803100Y-111700000D02*
X185600000Y-111700000D01*
X198412800Y-83353600D02*
X202808800Y-78957600D01*
X239555000Y-93252400D02*
X237464000Y-93252400D01*
X131319800Y-113937000D02*
X131319800Y-113872700D01*
X146549500Y-84265600D02*
X147710700Y-83104400D01*
X282773800Y-169239600D02*
X281527700Y-167993500D01*
X166900000Y-98975000D02*
X166900000Y-99400000D01*
X242765600Y-116308200D02*
X242765600Y-118615400D01*
X147900000Y-102425000D02*
X147900000Y-102000000D01*
X271688000Y-177177100D02*
X273503800Y-177910700D01*
X185975000Y-55075000D02*
X185900000Y-55150000D01*
X205262600Y-109700000D02*
X205925100Y-109700000D01*
X278888000Y-158799100D02*
X278888000Y-159577100D01*
X185600000Y-73700000D02*
X185900000Y-74000000D01*
X171434400Y-115348200D02*
X171434400Y-113335400D01*
X186736400Y-111700000D02*
X187838900Y-112802500D01*
X256100000Y-114325100D02*
X250650200Y-119774900D01*
X259900000Y-113000000D02*
X258000000Y-113000000D01*
X274210600Y-163690900D02*
X274210600Y-162370300D01*
X227882200Y-78324200D02*
X226325100Y-79881300D01*
X223900000Y-99425000D02*
X225525100Y-99425000D01*
X205262600Y-109700000D02*
X204900000Y-110062600D01*
X250650200Y-119774900D02*
X243925100Y-119774900D01*
X243262600Y-101700000D02*
X242900000Y-102062600D01*
X160406000Y-75208100D02*
X164872900Y-79675000D01*
X171434400Y-113335400D02*
X168890800Y-110791800D01*
X244563200Y-114510600D02*
X242765600Y-116308200D01*
X168525100Y-66266600D02*
X167773200Y-67018500D01*
X240958700Y-82700000D02*
X236368800Y-78110100D01*
X284970600Y-181912800D02*
X287008100Y-181912800D01*
X277210900Y-176762200D02*
X277739600Y-177290900D01*
X291734300Y-186372300D02*
X292276100Y-185830500D01*
X280769300Y-159238800D02*
X280646600Y-159238800D01*
X223600000Y-117700000D02*
X223900000Y-118000000D01*
X185931300Y-92700000D02*
X186262600Y-92700000D01*
X242900000Y-64000000D02*
X242900000Y-64425000D01*
X168890800Y-110791800D02*
X168890800Y-99774900D01*
X141414900Y-97151600D02*
X141414900Y-94375400D01*
X147600000Y-101700000D02*
X145963300Y-101700000D01*
X223765600Y-115615400D02*
X224925100Y-116774900D01*
X299964900Y-168411500D02*
X296236300Y-164682900D01*
X165545000Y-67018500D02*
X161319700Y-71243800D01*
X131632900Y-114250100D02*
X131319800Y-113937000D01*
X283903600Y-159238800D02*
X280769300Y-159238800D01*
X187525100Y-93463600D02*
X187525100Y-93425000D01*
X203274900Y-52700000D02*
X203274900Y-53552000D01*
X205925100Y-109700000D02*
X206234800Y-109700000D01*
X187711500Y-77093600D02*
X187525100Y-76907200D01*
X230211200Y-78324200D02*
X227882200Y-78324200D01*
X128900000Y-113000000D02*
X128900000Y-113425000D01*
X161319700Y-71243800D02*
X161319700Y-71706000D01*
%TO.N,P0*%
X153926000Y-77730000D02*
X153350900Y-77730000D01*
X147602200Y-78465800D02*
X147068000Y-79000000D01*
X222290000Y-103800000D02*
X224450000Y-103800000D01*
X140350800Y-100860800D02*
X146290000Y-106800000D01*
X203290000Y-95800000D02*
X202075900Y-95800000D01*
X147068000Y-79000000D02*
X141091800Y-79000000D01*
X205450000Y-95800000D02*
X203290000Y-95800000D01*
X202075900Y-96183900D02*
X199139500Y-99120300D01*
X140350800Y-79741000D02*
X140350800Y-100860800D01*
X186450000Y-97800000D02*
X184290000Y-97800000D01*
X165290000Y-103800000D02*
X167450000Y-103800000D01*
X152615100Y-78465800D02*
X147602200Y-78465800D01*
X141091800Y-79000000D02*
X140350800Y-79741000D01*
X202075900Y-95800000D02*
X202075900Y-96183900D01*
X241290000Y-106800000D02*
X243450000Y-106800000D01*
X153350900Y-77730000D02*
X152615100Y-78465800D01*
X146290000Y-106800000D02*
X148450000Y-106800000D01*
%TO.N,P2*%
X153765300Y-68979300D02*
X157230100Y-68979300D01*
X153565300Y-69534900D02*
X153586200Y-69514000D01*
X153926000Y-70110000D02*
X153350900Y-70110000D01*
X153586200Y-69514000D02*
X153586200Y-69158400D01*
X153586200Y-69158400D02*
X153765300Y-68979300D01*
X152900000Y-84549000D02*
X151001100Y-82650100D01*
X153350900Y-69534900D02*
X153350900Y-70110000D01*
X153039000Y-69223000D02*
X153350900Y-69534900D01*
X157848300Y-80785600D02*
X154084900Y-84549000D01*
X157848300Y-69597500D02*
X157848300Y-80785600D01*
X157230100Y-68979300D02*
X157848300Y-69597500D01*
X154084900Y-84549000D02*
X152900000Y-84549000D01*
X153350900Y-69534900D02*
X153565300Y-69534900D01*
%TO.N,P3*%
X151890600Y-87417400D02*
X153945500Y-87417400D01*
X153926000Y-67570000D02*
X153926000Y-66644900D01*
X150360000Y-84549000D02*
X150875500Y-84549000D01*
X150153800Y-83418800D02*
X150153800Y-84342800D01*
X150875500Y-84549000D02*
X151724800Y-85398300D01*
X151724800Y-85398300D02*
X151724800Y-87251600D01*
X153945500Y-87417400D02*
X158298400Y-83064500D01*
X154173000Y-66397900D02*
X153926000Y-66644900D01*
X150153800Y-84342800D02*
X150360000Y-84549000D01*
X157168000Y-66397900D02*
X154173000Y-66397900D01*
X153926000Y-67570000D02*
X153926000Y-67631800D01*
X158298400Y-67528300D02*
X157168000Y-66397900D01*
X153252000Y-68305800D02*
X147631700Y-68305800D01*
X158298400Y-83064500D02*
X158298400Y-67528300D01*
X151724800Y-87251600D02*
X151890600Y-87417400D01*
X153926000Y-67631800D02*
X153252000Y-68305800D01*
%TO.N,P4*%
X181029400Y-80457300D02*
X174494800Y-86991900D01*
X167450000Y-84800000D02*
X167287400Y-84800000D01*
X224450000Y-84800000D02*
X222290000Y-84800000D01*
X181665900Y-80457300D02*
X181029400Y-80457300D01*
X183075900Y-79047300D02*
X181665900Y-80457300D01*
X153926000Y-65030000D02*
X153926000Y-64104900D01*
X167062500Y-84800000D02*
X167287400Y-84800000D01*
X157155500Y-63869500D02*
X158969200Y-65683200D01*
X184290000Y-78800000D02*
X183075900Y-78800000D01*
X203290000Y-76800000D02*
X205450000Y-76800000D01*
X153926000Y-64104900D02*
X154161400Y-63869500D01*
X158969200Y-77885800D02*
X165290000Y-84206600D01*
X153926000Y-65267300D02*
X153926000Y-65955100D01*
X167062500Y-84800000D02*
X166674900Y-84800000D01*
X243450000Y-87800000D02*
X241290000Y-87800000D01*
X158969200Y-65683200D02*
X158969200Y-77885800D01*
X153107500Y-66683000D02*
X153198100Y-66683000D01*
X174494800Y-86991900D02*
X169479300Y-86991900D01*
X169479300Y-86991900D02*
X167287400Y-84800000D01*
X165290000Y-84800000D02*
X166674900Y-84800000D01*
X183075900Y-78800000D02*
X183075900Y-79047300D01*
X153198100Y-66683000D02*
X153926000Y-65955100D01*
X153926000Y-65267300D02*
X153926000Y-65030000D01*
X165290000Y-84206600D02*
X165290000Y-84800000D01*
X154161400Y-63869500D02*
X157155500Y-63869500D01*
X186450000Y-78800000D02*
X184290000Y-78800000D01*
%TO.N,P5*%
X139082100Y-63272600D02*
X139082100Y-93183200D01*
X146721900Y-109517600D02*
X154814700Y-109517600D01*
X158085400Y-96938500D02*
X158085400Y-108501500D01*
X158085400Y-108501500D02*
X155942000Y-110644900D01*
X140997300Y-61357400D02*
X139082100Y-63272600D01*
X154814700Y-109517600D02*
X155942000Y-110644900D01*
X136942000Y-104220000D02*
X136942000Y-105795100D01*
X153111700Y-64229400D02*
X153069900Y-64229400D01*
X155942000Y-93220000D02*
X155942000Y-94795100D01*
X153926000Y-63415100D02*
X153111700Y-64229400D01*
X140664500Y-109517600D02*
X136942000Y-105795100D01*
X155942000Y-112220000D02*
X155942000Y-110644900D01*
X153926000Y-62490000D02*
X153926000Y-63415100D01*
X142445300Y-61451700D02*
X142351000Y-61357400D01*
X142351000Y-61357400D02*
X140997300Y-61357400D01*
X155942000Y-94795100D02*
X158085400Y-96938500D01*
X146721900Y-109517600D02*
X140664500Y-109517600D01*
X139082100Y-93183200D02*
X138868300Y-93397000D01*
%TO.N,P6*%
X159313400Y-54416000D02*
X159313400Y-57739700D01*
X174942000Y-52220000D02*
X174942000Y-52739600D01*
X174942000Y-53795100D02*
X176054400Y-54907500D01*
X174740900Y-107644900D02*
X174942000Y-107644900D01*
X152906600Y-58930600D02*
X153350900Y-59374900D01*
X176054400Y-68248100D02*
X174942000Y-69360500D01*
X174942000Y-52739600D02*
X174942000Y-53795100D01*
X165220100Y-87819100D02*
X165293200Y-87892200D01*
X174942000Y-109220000D02*
X174942000Y-107644900D01*
X176196900Y-105353800D02*
X176675800Y-105832700D01*
X165220100Y-87819100D02*
X164696000Y-88343200D01*
X173974800Y-106878800D02*
X174740900Y-107644900D01*
X174942000Y-90220000D02*
X174942000Y-88644900D01*
X176196900Y-93050000D02*
X176196900Y-105353800D01*
X165293200Y-87892200D02*
X174189300Y-87892200D01*
X159321800Y-81920800D02*
X165220100Y-87819100D01*
X174942000Y-91795100D02*
X176196900Y-93050000D01*
X174189300Y-87892200D02*
X174942000Y-88644900D01*
X153350900Y-59374900D02*
X153350900Y-59950000D01*
X174942000Y-52739600D02*
X172115300Y-49912900D01*
X174942000Y-90220000D02*
X174942000Y-91795100D01*
X174942000Y-69360500D02*
X168521100Y-69360500D01*
X174942000Y-71220000D02*
X174942000Y-69644900D01*
X163816500Y-49912900D02*
X159313400Y-54416000D01*
X172115300Y-49912900D02*
X163816500Y-49912900D01*
X174942000Y-69360500D02*
X174942000Y-69644900D01*
X153926000Y-59950000D02*
X153350900Y-59950000D01*
X159321800Y-79263800D02*
X159321800Y-81920800D01*
X176054400Y-54907500D02*
X176054400Y-68248100D01*
X168521100Y-69360500D02*
X168444600Y-69437000D01*
%TO.N,P7*%
X260200000Y-59761600D02*
X260200000Y-58100000D01*
X264800000Y-58100000D02*
X264800000Y-59751000D01*
X152635200Y-57410000D02*
X151748200Y-56523000D01*
X264800000Y-59751000D02*
X262966100Y-61584900D01*
X262023300Y-61584900D02*
X260200000Y-59761600D01*
X262966100Y-61584900D02*
X262023300Y-61584900D01*
X153926000Y-57410000D02*
X152635200Y-57410000D01*
%TO.N,P8*%
X194361100Y-101225800D02*
X194361100Y-86214200D01*
X179413200Y-47170700D02*
X179413200Y-48562600D01*
X180363900Y-46220000D02*
X179413200Y-47170700D01*
X193942000Y-83432400D02*
X193942000Y-82644900D01*
X193942000Y-63644900D02*
X192655500Y-62358400D01*
X193942000Y-64432400D02*
X193942000Y-63644900D01*
X158251800Y-53615800D02*
X153926000Y-53615800D01*
X193942000Y-64432400D02*
X194403300Y-64893700D01*
X193942000Y-65220000D02*
X193942000Y-64432400D01*
X194105700Y-82112200D02*
X194189500Y-82196000D01*
X180363900Y-46220000D02*
X182189100Y-44394800D01*
X192655500Y-62358400D02*
X183692400Y-62358400D01*
X193942000Y-83432400D02*
X193942000Y-84220000D01*
X153926000Y-53615800D02*
X153910200Y-53600000D01*
X183692400Y-62358400D02*
X182688100Y-63362700D01*
X193942000Y-82275900D02*
X194105700Y-82112200D01*
X153926000Y-53944900D02*
X153926000Y-53615800D01*
X153926000Y-54870000D02*
X153926000Y-53944900D01*
X193942000Y-46220000D02*
X193942000Y-44644900D01*
X193942000Y-84220000D02*
X193942000Y-85795100D01*
X192998900Y-100701800D02*
X193942000Y-101644900D01*
X193942000Y-82644900D02*
X193942000Y-82275900D01*
X179413200Y-48562600D02*
X179413200Y-58079200D01*
X193942000Y-103220000D02*
X193942000Y-101644900D01*
X194403300Y-81814600D02*
X194105700Y-82112200D01*
X194361100Y-86214200D02*
X193942000Y-85795100D01*
X179413200Y-58079200D02*
X183692400Y-62358400D01*
X163305000Y-48562600D02*
X158251800Y-53615800D01*
X179413200Y-48562600D02*
X163305000Y-48562600D01*
X182189100Y-44394800D02*
X193691900Y-44394800D01*
X194403300Y-64893700D02*
X194403300Y-81814600D01*
X193691900Y-44394800D02*
X193942000Y-44644900D01*
X193942000Y-101644900D02*
X194361100Y-101225800D01*
%TO.N,P9*%
X213373400Y-60519400D02*
X213373400Y-46226500D01*
X212942000Y-44739600D02*
X212942000Y-44220000D01*
X213374600Y-99212300D02*
X213374600Y-89617000D01*
X213374600Y-84227700D02*
X212942000Y-83795100D01*
X213396200Y-71876100D02*
X212942000Y-72330300D01*
X213076700Y-61510200D02*
X213076700Y-60816100D01*
X212691900Y-42394800D02*
X200886700Y-42394800D01*
X154851100Y-51404900D02*
X153926000Y-51404900D01*
X212942000Y-64795100D02*
X213396200Y-65249300D01*
X199354500Y-43927000D02*
X179071200Y-43927000D01*
X153926000Y-52330000D02*
X153926000Y-51404900D01*
X213373400Y-46226500D02*
X212942000Y-45795100D01*
X212942000Y-42644900D02*
X212691900Y-42394800D01*
X213076700Y-60816100D02*
X213373400Y-60519400D01*
X212942000Y-44220000D02*
X212942000Y-42644900D01*
X212942000Y-82220000D02*
X212942000Y-80644900D01*
X212942000Y-101220000D02*
X212942000Y-99644900D01*
X212942000Y-99644900D02*
X213374600Y-99212300D01*
X179071200Y-43927000D02*
X175062100Y-47936100D01*
X212942000Y-64007500D02*
X212942000Y-63220000D01*
X212942000Y-64007500D02*
X212942000Y-64795100D01*
X199354500Y-43927000D02*
X199354500Y-44220000D01*
X212942000Y-61644900D02*
X213076700Y-61510200D01*
X212942000Y-63220000D02*
X212942000Y-61644900D01*
X212942000Y-82220000D02*
X212942000Y-83795100D01*
X153350900Y-51754900D02*
X153350900Y-52330000D01*
X158319900Y-47936100D02*
X154851100Y-51404900D01*
X200886700Y-42394800D02*
X199354500Y-43927000D01*
X153926000Y-52330000D02*
X153350900Y-52330000D01*
X213396200Y-65249300D02*
X213396200Y-71876100D01*
X175062100Y-47936100D02*
X158319900Y-47936100D01*
X212942000Y-72330300D02*
X212942000Y-80644900D01*
X212942000Y-44739600D02*
X212942000Y-45795100D01*
X213374600Y-89617000D02*
X213374600Y-84227700D01*
%TO.N,single_bottom*%
X124015000Y-106760000D02*
X124015000Y-110483100D01*
X124015000Y-110483100D02*
X125306700Y-111774800D01*
X134910000Y-117800000D02*
X132750000Y-117800000D01*
%TO.N,tab_bottom*%
X154003900Y-118514500D02*
X154003900Y-117905100D01*
X145838400Y-110361500D02*
X143015000Y-113184900D01*
X154003900Y-117905100D02*
X150169300Y-114070500D01*
X154003900Y-118514500D02*
X155648700Y-118514500D01*
X151750000Y-125800000D02*
X153910000Y-125800000D01*
X150169300Y-114070500D02*
X150169300Y-112233300D01*
X143015000Y-114760000D02*
X143015000Y-113184900D01*
X155648700Y-118514500D02*
X157838500Y-116324700D01*
X154003900Y-125706100D02*
X154003900Y-118514500D01*
X153910000Y-125800000D02*
X154003900Y-125706100D01*
X157838500Y-116324700D02*
X157838500Y-112897800D01*
X150169300Y-112233300D02*
X148297500Y-110361500D01*
X148297500Y-110361500D02*
X145838400Y-110361500D01*
%TO.N,tab_home*%
X145630000Y-100630300D02*
X148621000Y-100630300D01*
X143015000Y-98015300D02*
X145630000Y-100630300D01*
X150674900Y-106500000D02*
X150974900Y-106800000D01*
X148621000Y-100630300D02*
X150674900Y-102684200D01*
X151750000Y-106800000D02*
X150974900Y-106800000D01*
X150674900Y-102684200D02*
X150674900Y-106500000D01*
X153910000Y-106800000D02*
X151750000Y-106800000D01*
X157343100Y-97625300D02*
X157343100Y-103366900D01*
X143015000Y-95760000D02*
X143015000Y-98015300D01*
X157343100Y-103366900D02*
X153910000Y-106800000D01*
%TO.N,pinkie_bottom*%
X173864100Y-119225100D02*
X176185000Y-116904200D01*
X165423000Y-119225100D02*
X168300200Y-119225100D01*
X170750000Y-122800000D02*
X169974900Y-122800000D01*
X169066000Y-121891100D02*
X169974900Y-122800000D01*
X172910000Y-122800000D02*
X170750000Y-122800000D01*
X169066000Y-119990900D02*
X169831800Y-119225100D01*
X162015000Y-111760000D02*
X162015000Y-115817100D01*
X169066000Y-119990900D02*
X169066000Y-121891100D01*
X176185000Y-116904200D02*
X176185000Y-113655400D01*
X168300200Y-119225100D02*
X169066000Y-119990900D01*
X162015000Y-115817100D02*
X165423000Y-119225100D01*
X169831800Y-119225100D02*
X173864100Y-119225100D01*
%TO.N,pinkie_home*%
X172956600Y-103753400D02*
X172910000Y-103800000D01*
X172869100Y-97812600D02*
X172956600Y-97900200D01*
X164688200Y-97686400D02*
X172742800Y-97686400D01*
X162015000Y-92760000D02*
X162015000Y-95013200D01*
X172956600Y-97900200D02*
X172956600Y-103753400D01*
X172742800Y-97686400D02*
X172869100Y-97812600D01*
X173809400Y-96872300D02*
X172869100Y-97812600D01*
X162015000Y-95013200D02*
X164688200Y-97686400D01*
X170750000Y-103800000D02*
X172910000Y-103800000D01*
%TO.N,pinkie_top*%
X169666400Y-80451200D02*
X167515000Y-78299800D01*
X167515000Y-78299800D02*
X164295700Y-78299800D01*
X172816800Y-81324900D02*
X178060600Y-76081100D01*
X162015000Y-76019100D02*
X162015000Y-73760000D01*
X169939100Y-81324900D02*
X169666400Y-81052200D01*
X169666400Y-81052200D02*
X169666400Y-80451200D01*
X172816800Y-81324900D02*
X169939100Y-81324900D01*
X173006700Y-81514800D02*
X173006700Y-84703300D01*
X178060600Y-76081100D02*
X178060600Y-73760000D01*
X164295700Y-78299800D02*
X162015000Y-76019100D01*
X170750000Y-84800000D02*
X172910000Y-84800000D01*
X173006700Y-84703300D02*
X172910000Y-84800000D01*
X172816800Y-81324900D02*
X173006700Y-81514800D01*
%TO.N,pinkie_num*%
X175154000Y-58383400D02*
X175294800Y-58242600D01*
X167354100Y-50363000D02*
X164836900Y-50363000D01*
X173760300Y-58563600D02*
X169169300Y-53972600D01*
X175154000Y-58563600D02*
X173760300Y-58563600D01*
X169169300Y-53972600D02*
X169169300Y-52178200D01*
X175154000Y-58563600D02*
X175604300Y-59013900D01*
X162015000Y-54760000D02*
X162015000Y-53184900D01*
X175604300Y-59013900D02*
X175604300Y-63105700D01*
X164836900Y-50363000D02*
X162015000Y-53184900D01*
X170750000Y-65800000D02*
X172910000Y-65800000D01*
X175154000Y-58563600D02*
X175154000Y-58383400D01*
X175604300Y-63105700D02*
X172910000Y-65800000D01*
X169169300Y-52178200D02*
X167354100Y-50363000D01*
%TO.N,ring_bottom*%
X186757800Y-110630400D02*
X183621800Y-110630400D01*
X195531500Y-109702400D02*
X195531500Y-107639300D01*
X181015000Y-108023600D02*
X181015000Y-105760000D01*
X188865500Y-113250200D02*
X188564000Y-112948700D01*
X191983700Y-113250200D02*
X188865500Y-113250200D01*
X189750000Y-116800000D02*
X191910000Y-116800000D01*
X191983700Y-116726300D02*
X191910000Y-116800000D01*
X191983700Y-113250200D02*
X195531500Y-109702400D01*
X188564000Y-112948700D02*
X188564000Y-112436600D01*
X188564000Y-112436600D02*
X186757800Y-110630400D01*
X183621800Y-110630400D02*
X181015000Y-108023600D01*
X191983700Y-113250200D02*
X191983700Y-116726300D01*
%TO.N,ring_home*%
X189362500Y-97800000D02*
X188974900Y-97800000D01*
X188974900Y-97800000D02*
X188565200Y-97390300D01*
X181015000Y-90808600D02*
X181015000Y-86760000D01*
X184556200Y-94349800D02*
X181015000Y-90808600D01*
X187385900Y-94349800D02*
X184556200Y-94349800D01*
X188565200Y-97390300D02*
X188565200Y-95529100D01*
X189362500Y-97800000D02*
X189750000Y-97800000D01*
X189750000Y-97800000D02*
X191910000Y-97800000D01*
X188565200Y-95529100D02*
X187385900Y-94349800D01*
%TO.N,ring_top*%
X188575800Y-67359000D02*
X191925200Y-70708400D01*
X183808300Y-63391600D02*
X186320300Y-63391600D01*
X191925200Y-78784800D02*
X191910000Y-78800000D01*
X186320300Y-63391600D02*
X188575800Y-65647100D01*
X188575800Y-65647100D02*
X188575800Y-67359000D01*
X181015000Y-67760000D02*
X181015000Y-66184900D01*
X181015000Y-66184900D02*
X183808300Y-63391600D01*
X191925200Y-70708400D02*
X191925200Y-78784800D01*
X189750000Y-78800000D02*
X191910000Y-78800000D01*
%TO.N,ring_num*%
X183208200Y-61014200D02*
X181015000Y-58821000D01*
X189362500Y-59800000D02*
X189750000Y-59800000D01*
X189750000Y-59800000D02*
X191910000Y-59800000D01*
X188974900Y-59800000D02*
X187760700Y-61014200D01*
X181015000Y-50629500D02*
X181015000Y-48760000D01*
X181015000Y-58821000D02*
X181015000Y-50629500D01*
X187760700Y-61014200D02*
X183208200Y-61014200D01*
X189362500Y-59800000D02*
X188974900Y-59800000D01*
%TO.N,middle_bottom*%
X200015000Y-102184900D02*
X200600600Y-102184900D01*
X200600600Y-102184900D02*
X203390700Y-99394800D01*
X200015000Y-103760000D02*
X200015000Y-102184900D01*
X210910000Y-114800000D02*
X208750000Y-114800000D01*
%TO.N,middle_home*%
X210910000Y-95800000D02*
X210925200Y-95784800D01*
X210925200Y-95784800D02*
X210925200Y-89929800D01*
X200015000Y-87011400D02*
X200015000Y-84760000D01*
X208750000Y-95800000D02*
X210910000Y-95800000D01*
X210626600Y-89631200D02*
X202634800Y-89631200D01*
X210925200Y-89929800D02*
X210626600Y-89631200D01*
X202634800Y-89631200D02*
X200015000Y-87011400D01*
%TO.N,middle_top*%
X205666600Y-70630400D02*
X202679000Y-70630400D01*
X202679000Y-70630400D02*
X200015000Y-67966400D01*
X207585600Y-72549400D02*
X205666600Y-70630400D01*
X208750000Y-76800000D02*
X207974900Y-76800000D01*
X210910000Y-76800000D02*
X208750000Y-76800000D01*
X207974900Y-76800000D02*
X207585600Y-76410700D01*
X207585600Y-76410700D02*
X207585600Y-72549400D01*
X200015000Y-67966400D02*
X200015000Y-65760000D01*
%TO.N,middle_num*%
X200015000Y-46760000D02*
X200015000Y-48966400D01*
X210925200Y-51940200D02*
X212275500Y-51940200D01*
X210613800Y-51628800D02*
X210925200Y-51940200D01*
X202677400Y-51628800D02*
X210613800Y-51628800D01*
X210925200Y-57784800D02*
X210910000Y-57800000D01*
X200015000Y-48966400D02*
X202677400Y-51628800D01*
X212275500Y-51940200D02*
X212631000Y-51584700D01*
X210925200Y-51940200D02*
X210925200Y-57784800D01*
X208750000Y-57800000D02*
X210910000Y-57800000D01*
%TO.N,index_bottom*%
X221304400Y-124059300D02*
X225715600Y-124059300D01*
X227362500Y-122800000D02*
X226974900Y-122800000D01*
X227750000Y-122800000D02*
X229910000Y-122800000D01*
X219015000Y-111760000D02*
X219015000Y-121769900D01*
X227362500Y-122800000D02*
X227750000Y-122800000D01*
X225715600Y-124059300D02*
X226974900Y-122800000D01*
X219015000Y-121769900D02*
X221304400Y-124059300D01*
%TO.N,index_home*%
X227101100Y-92973400D02*
X225100500Y-92973400D01*
X231161300Y-96900400D02*
X231161300Y-102548700D01*
X231161300Y-96900400D02*
X231028100Y-96900400D01*
X227750000Y-103800000D02*
X229910000Y-103800000D01*
X220516800Y-96523500D02*
X219015000Y-95021700D01*
X221550400Y-96523500D02*
X220516800Y-96523500D01*
X225100500Y-92973400D02*
X221550400Y-96523500D01*
X231161300Y-102548700D02*
X229910000Y-103800000D01*
X231028100Y-96900400D02*
X227101100Y-92973400D01*
X219015000Y-95021700D02*
X219015000Y-92760000D01*
%TO.N,index_top*%
X227750000Y-84800000D02*
X229910000Y-84800000D01*
X219015000Y-73760000D02*
X219015000Y-72184900D01*
X221307800Y-86065400D02*
X219015000Y-83772600D01*
X227362500Y-84800000D02*
X227750000Y-84800000D01*
X224972200Y-69374500D02*
X225153300Y-69555600D01*
X221825400Y-69374500D02*
X224972200Y-69374500D01*
X219015000Y-72184900D02*
X221825400Y-69374500D01*
X227362500Y-84800000D02*
X226974900Y-84800000D01*
X219015000Y-83772600D02*
X219015000Y-73760000D01*
X226974900Y-84800000D02*
X225709500Y-86065400D01*
X225709500Y-86065400D02*
X221307800Y-86065400D01*
%TO.N,index_num*%
X219015000Y-54760000D02*
X219015000Y-53184900D01*
X227750000Y-65800000D02*
X229910000Y-65800000D01*
X230375300Y-65334700D02*
X230375300Y-58158500D01*
X231366200Y-48464700D02*
X233838500Y-50937000D01*
X229910000Y-65800000D02*
X230375300Y-65334700D01*
X226039600Y-52110900D02*
X229685800Y-48464700D01*
X226039600Y-52110900D02*
X224313300Y-50384600D01*
X224313300Y-50384600D02*
X221815300Y-50384600D01*
X226039600Y-53822800D02*
X226039600Y-52110900D01*
X229685800Y-48464700D02*
X231366200Y-48464700D01*
X221815300Y-50384600D02*
X219015000Y-53184900D01*
X233838500Y-50937000D02*
X233838500Y-52541500D01*
X230375300Y-58158500D02*
X226039600Y-53822800D01*
%TO.N,far_bottom*%
X245216500Y-125041600D02*
X245974900Y-125800000D01*
X245216500Y-123220800D02*
X245216500Y-125041600D01*
X241503200Y-122349800D02*
X244345500Y-122349800D01*
X244345500Y-122349800D02*
X245216500Y-123220800D01*
X238015000Y-118861600D02*
X241503200Y-122349800D01*
X246750000Y-125800000D02*
X245974900Y-125800000D01*
X246750000Y-125800000D02*
X248910000Y-125800000D01*
X238015000Y-114760000D02*
X238015000Y-118861600D01*
%TO.N,far_home*%
X245974900Y-106800000D02*
X245581500Y-106406600D01*
X245581500Y-102368900D02*
X243987400Y-100774800D01*
X246362500Y-106800000D02*
X246750000Y-106800000D01*
X243987400Y-100774800D02*
X240761400Y-100774800D01*
X240761400Y-100774800D02*
X238015000Y-98028400D01*
X245581500Y-106406600D02*
X245581500Y-102368900D01*
X246750000Y-106800000D02*
X248910000Y-106800000D01*
X238015000Y-98028400D02*
X238015000Y-95760000D01*
X246362500Y-106800000D02*
X245974900Y-106800000D01*
%TO.N,far_top*%
X246750000Y-87800000D02*
X248910000Y-87800000D01*
X243747200Y-81774800D02*
X245674900Y-83702500D01*
X245674900Y-83702500D02*
X245674900Y-87500000D01*
X246362500Y-87800000D02*
X245974900Y-87800000D01*
X246362500Y-87800000D02*
X246750000Y-87800000D01*
X238015000Y-76760000D02*
X238015000Y-78965500D01*
X245674900Y-87500000D02*
X245974900Y-87800000D01*
X238015000Y-78965500D02*
X240824300Y-81774800D01*
X240824300Y-81774800D02*
X243747200Y-81774800D01*
%TO.N,far_num*%
X245668100Y-65300000D02*
X245668100Y-68493200D01*
X248925200Y-65515600D02*
X248925200Y-68784800D01*
X238015000Y-57760000D02*
X238015000Y-60005300D01*
X248925200Y-68784800D02*
X248910000Y-68800000D01*
X243614900Y-62630300D02*
X245668100Y-64683500D01*
X245668100Y-68493200D02*
X245974900Y-68800000D01*
X248709600Y-65300000D02*
X248925200Y-65515600D01*
X238015000Y-60005300D02*
X240640000Y-62630300D01*
X245668100Y-65300000D02*
X248709600Y-65300000D01*
X246750000Y-68800000D02*
X245974900Y-68800000D01*
X245668100Y-64683500D02*
X245668100Y-65300000D01*
X240640000Y-62630300D02*
X243614900Y-62630300D01*
%TO.N,1_bottom*%
X272580500Y-182256400D02*
X272580500Y-182256300D01*
X272311500Y-182525400D02*
X272580500Y-182256400D01*
X275648400Y-183495900D02*
X275089700Y-183495900D01*
X268333900Y-182525400D02*
X272311500Y-182525400D01*
X269682400Y-169178500D02*
X268850200Y-171238300D01*
X267081100Y-173007400D02*
X267081100Y-181272600D01*
X268850200Y-171238300D02*
X267081100Y-173007400D01*
X275089700Y-183495900D02*
X274710900Y-183117100D01*
X273645700Y-182686700D02*
X274710900Y-183117100D01*
X273645700Y-182686700D02*
X272580500Y-182256300D01*
X267081100Y-181272600D02*
X268333900Y-182525400D01*
%TO.N,1_top*%
X277632100Y-149502200D02*
X278859700Y-149502200D01*
X282766000Y-165879500D02*
X282387200Y-165500700D01*
X276799900Y-151562000D02*
X277632100Y-149502200D01*
X278859700Y-149502200D02*
X281893400Y-146468500D01*
X281893400Y-146468500D02*
X282738600Y-146468500D01*
X282387200Y-165500700D02*
X281828500Y-165500700D01*
X280763300Y-165070300D02*
X281828500Y-165500700D01*
%TO.N,2_bottom*%
X289421000Y-177225700D02*
X290437700Y-175533500D01*
X296580100Y-175543800D02*
X298867700Y-177831400D01*
X292084500Y-191705600D02*
X292679000Y-192300100D01*
X291222300Y-191187600D02*
X292084500Y-191705600D01*
X290437700Y-175533500D02*
X290448000Y-175543800D01*
X290448000Y-175543800D02*
X296580100Y-175543800D01*
X292679000Y-192300100D02*
X293073800Y-192300100D01*
%TO.N,2_top*%
X301090000Y-173006700D02*
X301090000Y-172221600D01*
X301008000Y-174901500D02*
X301008000Y-173853500D01*
X302464700Y-176014000D02*
X301870200Y-175419500D01*
X301090000Y-172221600D02*
X301765300Y-171546300D01*
X301172000Y-173088700D02*
X301090000Y-173006700D01*
X298439500Y-164645100D02*
X298439500Y-162881100D01*
X301765300Y-170489100D02*
X301689200Y-170413000D01*
X301765300Y-171546300D02*
X301765300Y-170489100D01*
X302859500Y-176014000D02*
X302464700Y-176014000D01*
X301172000Y-173689500D02*
X301172000Y-173088700D01*
X298439500Y-162881100D02*
X298190100Y-162631700D01*
X301689200Y-167894800D02*
X298439500Y-164645100D01*
X301008000Y-173853500D02*
X301172000Y-173689500D01*
X299206700Y-160939500D02*
X298190100Y-162631700D01*
X301008000Y-174901500D02*
X301870200Y-175419500D01*
X301689200Y-170413000D02*
X301689200Y-167894800D01*
%TO.N,D1*%
X245962000Y-76862900D02*
X245962000Y-76299600D01*
X229025000Y-63900000D02*
X228300000Y-63175000D01*
X209600000Y-93900000D02*
X209600000Y-93475000D01*
X190434400Y-90477800D02*
X188674800Y-92237400D01*
X171600000Y-120875000D02*
X174207600Y-120875000D01*
X209600000Y-74900000D02*
X210925100Y-74900000D01*
X181292900Y-75078600D02*
X181292900Y-79000200D01*
X186730100Y-118032600D02*
X188095300Y-116667400D01*
X228300000Y-120600000D02*
X226222900Y-120600000D01*
X169674800Y-62125300D02*
X169674800Y-60479000D01*
X189774900Y-95175000D02*
X190300000Y-95175000D01*
X229734600Y-59774900D02*
X222432900Y-59774900D01*
X207762100Y-84663000D02*
X207762100Y-81466800D01*
X291309200Y-187189100D02*
X293035100Y-188915000D01*
X209300000Y-55537500D02*
X208937500Y-55900000D01*
X249988000Y-99828100D02*
X249988000Y-103837100D01*
X259900000Y-105500000D02*
X259900000Y-106825100D01*
X245806200Y-92414200D02*
X245806200Y-95646300D01*
X170330100Y-63575000D02*
X169352300Y-64552800D01*
X208095700Y-55900000D02*
X207374900Y-56620800D01*
X189526000Y-118098100D02*
X203675300Y-118098100D01*
X257337500Y-106162500D02*
X258000000Y-105500000D01*
X169674800Y-60479000D02*
X170404000Y-59749800D01*
X209300000Y-55175000D02*
X209300000Y-55537500D01*
X228600000Y-120900000D02*
X228300000Y-120600000D01*
X149849800Y-122349900D02*
X135730900Y-122349900D01*
X293035100Y-188915000D02*
X293035100Y-189195600D01*
X207762100Y-81466800D02*
X210175900Y-79053000D01*
X246972600Y-67770700D02*
X246972600Y-67770600D01*
X246274900Y-67176300D02*
X246274900Y-66900000D01*
X210075000Y-112900000D02*
X209350000Y-112175000D01*
X304052500Y-174472800D02*
X304052400Y-174472900D01*
X226325300Y-82600000D02*
X226051000Y-82874300D01*
X177050000Y-107279900D02*
X174897300Y-105127200D01*
X245674900Y-124379900D02*
X245941600Y-124646600D01*
X188776500Y-76175000D02*
X188395300Y-76175000D01*
X179000100Y-68782600D02*
X183294500Y-73077000D01*
X179000100Y-60453500D02*
X179000100Y-68782600D01*
X246339000Y-67240700D02*
X246339000Y-67240600D01*
X210967600Y-97124900D02*
X211399300Y-97124900D01*
X150674900Y-123175000D02*
X149849800Y-122349900D01*
X222432900Y-59774900D02*
X221701000Y-60506800D01*
X170404000Y-59749800D02*
X172805200Y-59749800D01*
X133450000Y-115750000D02*
X133300000Y-115750000D01*
X203675300Y-118098100D02*
X206487400Y-115286000D01*
X246461400Y-67259400D02*
X246357700Y-67259400D01*
X228300000Y-82600000D02*
X228300000Y-82175000D01*
X171300000Y-63575000D02*
X170330100Y-63575000D01*
X170517900Y-86091700D02*
X169974800Y-85548600D01*
X190600000Y-114900000D02*
X191025000Y-114900000D01*
X209600000Y-112900000D02*
X210075000Y-112900000D01*
X207956200Y-96568000D02*
X208513100Y-97124900D01*
X209600000Y-55900000D02*
X208937500Y-55900000D01*
X247600000Y-123900000D02*
X247600000Y-123600000D01*
X188395300Y-76175000D02*
X188325100Y-76104800D01*
X174897300Y-100736600D02*
X175284000Y-100349900D01*
X248964000Y-89553800D02*
X248666600Y-89553800D01*
X247600000Y-66900000D02*
X246937500Y-66900000D01*
X209300000Y-93175000D02*
X207956200Y-94518800D01*
X304140900Y-175093600D02*
X304140900Y-176546700D01*
X300435400Y-177296300D02*
X298390700Y-175251600D01*
X190268800Y-57900000D02*
X190600000Y-57900000D01*
X153025000Y-123900000D02*
X152300000Y-123175000D01*
X169974800Y-82150000D02*
X169172800Y-82150000D01*
X227189300Y-105580300D02*
X226956200Y-105347200D01*
X208937500Y-74900000D02*
X209300000Y-74537500D01*
X191025000Y-114900000D02*
X190300000Y-114175000D01*
X188674800Y-92237400D02*
X188674800Y-94074900D01*
X228300000Y-120600000D02*
X228300000Y-120175000D01*
X135730900Y-122349900D02*
X131579300Y-118198300D01*
X248925200Y-84093500D02*
X248925200Y-79826100D01*
X245787500Y-76125100D02*
X245787500Y-72797700D01*
X288769700Y-182153400D02*
X289406300Y-182153400D01*
X133300000Y-115750000D02*
X133300000Y-115175000D01*
X275112000Y-181229200D02*
X272229600Y-181229200D01*
X171300000Y-82150000D02*
X169974800Y-82150000D01*
X249988000Y-103837100D02*
X248925100Y-104900000D01*
X133600000Y-115900000D02*
X133450000Y-115750000D01*
X247537900Y-71047300D02*
X247537900Y-68011400D01*
X190300000Y-95175000D02*
X191925100Y-95175000D01*
X191925100Y-94553300D02*
X192128500Y-94349900D01*
X171600000Y-63875000D02*
X171300000Y-63575000D01*
X209268800Y-74900000D02*
X208937500Y-74900000D01*
X188674800Y-94074900D02*
X189774900Y-95175000D01*
X206487400Y-115286000D02*
X206487400Y-113301900D01*
X276927900Y-181181500D02*
X287797800Y-181181500D01*
X188856100Y-58294800D02*
X188674900Y-58113600D01*
X247994800Y-85023900D02*
X250202800Y-87232000D01*
X209600000Y-93475000D02*
X209300000Y-93175000D01*
X247600000Y-104475000D02*
X247300000Y-104175000D01*
X170330100Y-63575000D02*
X170330100Y-62780600D01*
X282318600Y-163632500D02*
X282312000Y-163625900D01*
X152600000Y-104475000D02*
X153270800Y-104475000D01*
X190300000Y-95175000D02*
X190300000Y-95600000D01*
X256100000Y-106162500D02*
X257337500Y-106162500D01*
X209600000Y-74900000D02*
X209268800Y-74900000D01*
X190600000Y-76475000D02*
X190300000Y-76175000D01*
X228600000Y-101900000D02*
X229025000Y-101900000D01*
X277450000Y-114700000D02*
X275550000Y-114700000D01*
X247600000Y-85475000D02*
X247571900Y-85446800D01*
X247571900Y-85446800D02*
X247300000Y-85175000D01*
X171300000Y-120575000D02*
X171300000Y-120150000D01*
X248666600Y-89553800D02*
X247682200Y-90538200D01*
X304140900Y-176546700D02*
X303391300Y-177296300D01*
X190300000Y-95600000D02*
X190600000Y-95900000D01*
X292918900Y-189971600D02*
X293035100Y-189855400D01*
X304052400Y-175005100D02*
X304140900Y-175093600D01*
X171600000Y-101875000D02*
X172025000Y-101875000D01*
X173956500Y-60901100D02*
X173956500Y-61005400D01*
X174121700Y-86091700D02*
X170517900Y-86091700D01*
X209350000Y-112175000D02*
X209300000Y-112175000D01*
X247600000Y-104900000D02*
X247600000Y-104475000D01*
X275112000Y-181229200D02*
X275112000Y-180447900D01*
X247537900Y-68011400D02*
X247351600Y-67825100D01*
X245674900Y-123175000D02*
X245674900Y-124379900D01*
X229025000Y-101900000D02*
X228300000Y-101175000D01*
X188325100Y-74333200D02*
X188325100Y-76104800D01*
X153270800Y-104475000D02*
X154395900Y-103349900D01*
X188095300Y-116667400D02*
X188674900Y-116087800D01*
X303391300Y-177296300D02*
X300435400Y-177296300D01*
X172805200Y-59749800D02*
X173956500Y-60901100D01*
X188776500Y-76175000D02*
X188776500Y-86650100D01*
X171600000Y-82875000D02*
X171300000Y-82575000D01*
X190600000Y-76900000D02*
X190600000Y-76475000D01*
X247682200Y-90538200D02*
X245806200Y-92414200D01*
X191925100Y-95175000D02*
X191925100Y-94553300D01*
X247600000Y-104900000D02*
X248925100Y-104900000D01*
X189487500Y-76175000D02*
X188776500Y-76175000D01*
X302835100Y-172895600D02*
X302835100Y-173555400D01*
X250202800Y-88315000D02*
X248964000Y-89553800D01*
X245962000Y-76299600D02*
X245787500Y-76125100D01*
X287797800Y-181181500D02*
X288769700Y-182153400D01*
X183294500Y-73077000D02*
X181292900Y-75078600D01*
X289406300Y-182153400D02*
X292167400Y-184914500D01*
X247351600Y-67825100D02*
X247027000Y-67825100D01*
X247600000Y-85900000D02*
X247600000Y-85475000D01*
X207956200Y-94518800D02*
X207956200Y-96568000D01*
X152600000Y-104900000D02*
X152600000Y-104475000D01*
X247300000Y-123175000D02*
X245674900Y-123175000D01*
X188674900Y-58113600D02*
X188674900Y-57175000D01*
X279350000Y-114700000D02*
X277450000Y-114700000D01*
X190268800Y-57900000D02*
X189937500Y-57900000D01*
X247994800Y-85023900D02*
X248925200Y-84093500D01*
X245806200Y-95646300D02*
X249988000Y-99828100D01*
X211399300Y-97124900D02*
X212187700Y-96336500D01*
X246339100Y-67240400D02*
X246317300Y-67218600D01*
X302718900Y-173671600D02*
X304052500Y-174472800D01*
X183294500Y-73077000D02*
X183608000Y-72763500D01*
X190300000Y-76175000D02*
X189487500Y-76175000D01*
X228600000Y-82900000D02*
X228300000Y-82600000D01*
X209300000Y-74537500D02*
X209300000Y-74175000D01*
X210967600Y-97931400D02*
X210967600Y-97124900D01*
X131579300Y-118198300D02*
X131579300Y-117042000D01*
X206487400Y-113301900D02*
X208173100Y-113301900D01*
X208513100Y-97124900D02*
X210967600Y-97124900D01*
X246972600Y-67770600D02*
X246461400Y-67259400D01*
X246317300Y-67218600D02*
X246317200Y-67218600D01*
X247662500Y-123537500D02*
X247300000Y-123175000D01*
X256100000Y-105500000D02*
X256100000Y-106162500D01*
X247682200Y-90538200D02*
X245555600Y-88411700D01*
X132871300Y-115750000D02*
X133300000Y-115750000D01*
X250222000Y-107762300D02*
X249903600Y-108080700D01*
X247662500Y-123537500D02*
X255325000Y-115875000D01*
X228600000Y-63900000D02*
X228812500Y-63900000D01*
X247571900Y-85446800D02*
X247994800Y-85023900D01*
X280199700Y-162865300D02*
X280612600Y-162865300D01*
X190300000Y-57175000D02*
X188674900Y-57175000D01*
X180736000Y-79557100D02*
X180656300Y-79557100D01*
X190300000Y-114175000D02*
X188674900Y-114175000D01*
X210482200Y-79053000D02*
X212219600Y-77315600D01*
X261325200Y-114136000D02*
X261325200Y-108250300D01*
X247027000Y-67825100D02*
X246972600Y-67770700D01*
X189937500Y-57900000D02*
X190300000Y-57537500D01*
X174207600Y-120875000D02*
X177050000Y-118032600D01*
X261325200Y-108250300D02*
X259900000Y-106825100D01*
X246937500Y-66900000D02*
X247300000Y-66537500D01*
X246937500Y-66900000D02*
X246274900Y-66900000D01*
X259900000Y-105500000D02*
X258000000Y-105500000D01*
X177050000Y-118032600D02*
X186730100Y-118032600D01*
X246317200Y-67218600D02*
X246274900Y-67176300D01*
X169974800Y-85548600D02*
X169974800Y-82150000D01*
X188095300Y-116667400D02*
X189526000Y-118098100D01*
X255325000Y-115875000D02*
X259586200Y-115875000D01*
X245787500Y-72797700D02*
X247537900Y-71047300D01*
X247300000Y-66537500D02*
X247300000Y-66175000D01*
X208937500Y-55900000D02*
X208095700Y-55900000D01*
X228300000Y-82600000D02*
X226325300Y-82600000D01*
X180656300Y-79557100D02*
X174121700Y-86091700D01*
X275118600Y-181232500D02*
X275115300Y-181229200D01*
X212187700Y-89088600D02*
X207762100Y-84663000D01*
X190300000Y-57537500D02*
X190300000Y-57175000D01*
X174897300Y-105127200D02*
X174897300Y-100736600D01*
X248925100Y-104900000D02*
X250222000Y-106196900D01*
X186755400Y-72763500D02*
X188325100Y-74333200D01*
X210175900Y-79053000D02*
X210482200Y-79053000D01*
X221701000Y-60506800D02*
X221701000Y-62879500D01*
X169956200Y-104585500D02*
X169956200Y-102493800D01*
X190434400Y-88308000D02*
X190434400Y-90477800D01*
X212219600Y-76194500D02*
X210925100Y-74900000D01*
X228812500Y-63900000D02*
X229025000Y-63900000D01*
X212187700Y-96336500D02*
X212187700Y-89088600D01*
X246339000Y-67240600D02*
X246339100Y-67240500D01*
X247600000Y-123600000D02*
X247662500Y-123537500D01*
X152600000Y-104475000D02*
X152300000Y-104175000D01*
X282318600Y-163632500D02*
X280743400Y-162996100D01*
X275115300Y-181229200D02*
X275112000Y-181229200D01*
X304052400Y-174472900D02*
X304052400Y-175005100D01*
X188674900Y-116087800D02*
X188674900Y-114175000D01*
X226222900Y-120600000D02*
X225673500Y-121149400D01*
X172025000Y-101875000D02*
X171300000Y-101150000D01*
X208173100Y-113301900D02*
X209300000Y-112175000D01*
X250222000Y-106196900D02*
X250222000Y-107762300D01*
X226956200Y-105347200D02*
X226956200Y-102518800D01*
X259586200Y-115875000D02*
X261325200Y-114136000D01*
X229925100Y-62787400D02*
X229925100Y-59965400D01*
X152600000Y-123900000D02*
X153025000Y-123900000D01*
X183608000Y-72763500D02*
X186755400Y-72763500D01*
X170330100Y-62780600D02*
X169674800Y-62125300D01*
X282312000Y-163625900D02*
X282312000Y-162847900D01*
X131579300Y-117042000D02*
X132871300Y-115750000D01*
X152300000Y-123175000D02*
X150674900Y-123175000D01*
X280612600Y-162865300D02*
X280743400Y-162996100D01*
X212219600Y-77315600D02*
X212219600Y-76194500D01*
X229925100Y-59965400D02*
X229734600Y-59774900D01*
X169172800Y-82150000D02*
X168861500Y-81838700D01*
X170497900Y-105127200D02*
X169956200Y-104585500D01*
X177050000Y-118032600D02*
X177050000Y-107279900D01*
X302835100Y-173555400D02*
X302718900Y-173671600D01*
X171300000Y-82575000D02*
X171300000Y-82150000D01*
X228812500Y-63900000D02*
X229925100Y-62787400D01*
X226956200Y-102518800D02*
X228300000Y-101175000D01*
X292167400Y-184914500D02*
X292296800Y-184914500D01*
X171300000Y-63575000D02*
X171300000Y-63150000D01*
X174897300Y-105127200D02*
X170497900Y-105127200D01*
X181292900Y-79000200D02*
X180736000Y-79557100D01*
X248925200Y-79826100D02*
X245962000Y-76862900D01*
X293035100Y-189855400D02*
X293035100Y-189195600D01*
X250202800Y-87232000D02*
X250202800Y-88315000D01*
X188776500Y-86650100D02*
X190434400Y-88308000D01*
X169956200Y-102493800D02*
X171300000Y-101150000D01*
X246339100Y-67240500D02*
X246339100Y-67240400D01*
X171600000Y-120875000D02*
X171300000Y-120575000D01*
X246357700Y-67259400D02*
X246339000Y-67240700D01*
X275112000Y-180447900D02*
X276927900Y-181181500D01*
%TD*%
M02*
