M48
; DRILL file {KiCad 6.0.11-2627ca5db0~126~ubuntu22.04.1} date Thu 09 Feb 2023 04:08:17 PM MST
; FORMAT={-:-/ absolute / inch / decimal}
; #@! TF.CreationDate,2023-02-09T16:08:17-07:00
; #@! TF.GenerationSoftware,Kicad,Pcbnew,6.0.11-2627ca5db0~126~ubuntu22.04.1
; #@! TF.FileFunction,NonPlated,1,2,NPTH
FMAT,2
INCH
; #@! TA.AperFunction,NonPlated,NPTH,ComponentDrill
T1C0.0200
; #@! TA.AperFunction,NonPlated,NPTH,ComponentDrill
T2C0.0500
%
G90
G05
T1
G00X10.5234Y-6.8437
M15
G01X10.4635Y-6.992
M16
G05
G00X10.5234Y-6.8437
M15
G01X10.5535Y-6.8559
M16
G05
G00X10.6322Y-6.6612
M15
G01X10.5535Y-6.8559
M16
G05
G00X10.6021Y-6.649
M15
G01X10.6322Y-6.6612
M16
G05
G00X10.662Y-6.5006
M15
G01X10.6021Y-6.649
M16
G05
G00X10.4639Y-6.9922
M15
G01X11.0147Y-7.2147
M16
G05
G00X10.8036Y-6.1501
M15
G01X10.7437Y-6.2985
M16
G05
G00X10.8036Y-6.1501
M15
G01X10.8338Y-6.1623
M16
G05
G00X10.9124Y-5.9676
M15
G01X10.8338Y-6.1623
M16
G05
G00X10.8823Y-5.9554
M15
G01X10.9124Y-5.9676
M16
G05
G00X10.9422Y-5.8071
M15
G01X10.8823Y-5.9554
M16
G05
G00X10.6625Y-6.5008
M15
G01X11.2132Y-6.7233
M16
G05
G00X10.7442Y-6.2987
M15
G01X11.2949Y-6.5212
M16
G05
G00X11.0751Y-7.0666
M15
G01X11.0151Y-7.2149
M16
G05
G00X11.045Y-7.0544
M15
G01X11.0751Y-7.0666
M16
G05
G00X11.1236Y-6.8597
M15
G01X11.045Y-7.0544
M16
G05
G00X11.1236Y-6.8597
M15
G01X11.1538Y-6.8719
M16
G05
G00X11.2137Y-6.7235
M15
G01X11.1538Y-6.8719
M16
G05
G00X10.9427Y-5.8073
M15
G01X11.4934Y-6.0298
M16
G05
G00X11.273Y-7.1435
M15
G01X11.1906Y-7.2807
M16
G05
G00X11.273Y-7.1435
M15
G01X11.3009Y-7.1603
M16
G05
G00X11.3553Y-6.373
M15
G01X11.2954Y-6.5214
M16
G05
G00X11.3252Y-6.3608
M15
G01X11.3553Y-6.373
M16
G05
G00X11.409Y-6.9803
M15
G01X11.3009Y-7.1603
M16
G05
G00X11.4038Y-6.1661
M15
G01X11.3252Y-6.3608
M16
G05
G00X11.3812Y-6.9635
M15
G01X11.409Y-6.9803
M16
G05
G00X11.4038Y-6.1661
M15
G01X11.434Y-6.1783
M16
G05
G00X11.4636Y-6.8264
M15
G01X11.3812Y-6.9635
M16
G05
G00X11.1911Y-7.281
M15
G01X11.7002Y-7.5869
M16
G05
G00X11.4939Y-6.03
M15
G01X11.434Y-6.1783
M16
G05
G00X11.6583Y-6.5024
M15
G01X11.5759Y-6.6395
M16
G05
G00X11.6583Y-6.5024
M15
G01X11.6862Y-6.5191
M16
G05
G00X11.464Y-6.8267
M15
G01X11.9732Y-7.1326
M16
G05
G00X11.7943Y-6.3391
M15
G01X11.6862Y-6.5191
M16
G05
G00X11.783Y-7.45
M15
G01X11.7006Y-7.5871
M16
G05
G00X11.7552Y-7.4333
M15
G01X11.783Y-7.45
M16
G05
G00X11.7665Y-6.3224
M15
G01X11.7943Y-6.3391
M16
G05
G00X11.8489Y-6.1852
M15
G01X11.7665Y-6.3224
M16
G05
G00X11.8633Y-7.2533
M15
G01X11.7552Y-7.4333
M16
G05
G00X11.5763Y-6.6398
M15
G01X12.0855Y-6.9457
M16
G05
G00X11.8633Y-7.2533
M15
G01X11.8912Y-7.27
M16
G05
G00X11.9736Y-7.1328
M15
G01X11.8912Y-7.27
M16
G05
G00X11.8493Y-6.1855
M15
G01X12.3584Y-6.4914
M16
G05
G00X12.1683Y-6.8088
M15
G01X12.0859Y-6.946
M16
G05
G00X12.1405Y-6.7921
M15
G01X12.1683Y-6.8088
M16
G05
G00X12.2486Y-6.6121
M15
G01X12.1405Y-6.7921
M16
G05
G00X12.2486Y-6.6121
M15
G01X12.2765Y-6.6288
M16
G05
G00X12.3589Y-6.4917
M15
G01X12.2765Y-6.6288
M16
G05
T2
G00X10.666Y-7.0847
M15
G01X10.8051Y-7.1409
M16
G05
G00X10.8721Y-6.5747
M15
G01X11.0111Y-6.6309
M16
G05
G00X10.9462Y-6.3911
M15
G01X11.0853Y-6.4473
M16
G05
G00X11.1523Y-5.8811
M15
G01X11.2914Y-5.9373
M16
G05
G00X11.3762Y-7.4039
M15
G01X11.5048Y-7.4811
M16
G05
G00X11.6595Y-6.9324
M15
G01X11.788Y-7.0097
M16
G05
G00X11.7615Y-6.7627
M15
G01X11.89Y-6.8399
M16
G05
G00X12.0447Y-6.2912
M15
G01X12.1733Y-6.3685
M16
G05
T0
M30
