M48
; DRILL file {KiCad 6.0.11-2627ca5db0~126~ubuntu22.04.1} date Thu 09 Feb 2023 04:08:58 PM MST
; FORMAT={-:-/ absolute / inch / decimal}
; #@! TF.CreationDate,2023-02-09T16:08:58-07:00
; #@! TF.GenerationSoftware,Kicad,Pcbnew,6.0.11-2627ca5db0~126~ubuntu22.04.1
; #@! TF.FileFunction,NonPlated,1,2,NPTH
FMAT,2
INCH
; #@! TA.AperFunction,NonPlated,NPTH,ComponentDrill
T1C0.0200
; #@! TA.AperFunction,NonPlated,NPTH,ComponentDrill
T2C0.0500
%
G90
G05
T1
G00X4.8639Y-4.0381
M15
G01X4.8639Y-4.1981
M16
G05
G00X4.8639Y-4.4081
M15
G01X4.8639Y-4.5681
M16
G05
G00X4.8639Y-4.1981
M15
G01X4.8964Y-4.1981
M16
G05
G00X4.8639Y-4.4081
M15
G01X4.8964Y-4.4081
M16
G05
G00X4.8964Y-4.1981
M15
G01X4.8964Y-4.4081
M16
G05
G00X4.8644Y-4.0381
M15
G01X5.4584Y-4.0381
M16
G05
G00X4.8644Y-4.5681
M15
G01X5.4584Y-4.5681
M16
G05
G00X5.4264Y-4.1981
M15
G01X5.4264Y-4.4081
M16
G05
G00X5.4264Y-4.1981
M15
G01X5.4589Y-4.1981
M16
G05
G00X5.4264Y-4.4081
M15
G01X5.4589Y-4.4081
M16
G05
G00X5.4589Y-4.0381
M15
G01X5.4589Y-4.1981
M16
G05
G00X5.4589Y-4.4081
M15
G01X5.4589Y-4.5681
M16
G05
G00X5.6119Y-3.6051
M15
G01X5.6119Y-3.7651
M16
G05
G00X5.6119Y-3.9751
M15
G01X5.6119Y-4.1351
M16
G05
G00X5.6119Y-4.3531
M15
G01X5.6119Y-4.5131
M16
G05
G00X5.6119Y-4.7231
M15
G01X5.6119Y-4.8831
M16
G05
G00X5.6119Y-3.7651
M15
G01X5.6444Y-3.7651
M16
G05
G00X5.6119Y-3.9751
M15
G01X5.6444Y-3.9751
M16
G05
G00X5.6119Y-4.5131
M15
G01X5.6444Y-4.5131
M16
G05
G00X5.6119Y-4.7231
M15
G01X5.6444Y-4.7231
M16
G05
G00X5.6444Y-3.7651
M15
G01X5.6444Y-3.9751
M16
G05
G00X5.6444Y-4.5131
M15
G01X5.6444Y-4.7231
M16
G05
G00X5.6124Y-3.6051
M15
G01X6.2064Y-3.6051
M16
G05
G00X5.6124Y-4.1351
M15
G01X6.2064Y-4.1351
M16
G05
G00X5.6124Y-4.3531
M15
G01X6.2064Y-4.3531
M16
G05
G00X5.6124Y-4.8831
M15
G01X6.2064Y-4.8831
M16
G05
G00X6.1744Y-3.7651
M15
G01X6.1744Y-3.9751
M16
G05
G00X6.1744Y-4.5131
M15
G01X6.1744Y-4.7231
M16
G05
G00X6.1744Y-3.7651
M15
G01X6.2069Y-3.7651
M16
G05
G00X6.1744Y-3.9751
M15
G01X6.2069Y-3.9751
M16
G05
G00X6.1744Y-4.5131
M15
G01X6.2069Y-4.5131
M16
G05
G00X6.1744Y-4.7231
M15
G01X6.2069Y-4.7231
M16
G05
G00X6.2069Y-3.6051
M15
G01X6.2069Y-3.7651
M16
G05
G00X6.2069Y-3.9751
M15
G01X6.2069Y-4.1351
M16
G05
G00X6.2069Y-4.3531
M15
G01X6.2069Y-4.5131
M16
G05
G00X6.2069Y-4.7231
M15
G01X6.2069Y-4.8831
M16
G05
G00X6.36Y-1.9909
M15
G01X6.36Y-2.1509
M16
G05
G00X6.36Y-2.3609
M15
G01X6.36Y-2.5209
M16
G05
G00X6.36Y-2.7389
M15
G01X6.36Y-2.8989
M16
G05
G00X6.36Y-3.1089
M15
G01X6.36Y-3.2689
M16
G05
G00X6.36Y-3.487
M15
G01X6.36Y-3.647
M16
G05
G00X6.36Y-3.857
M15
G01X6.36Y-4.017
M16
G05
G00X6.36Y-4.235
M15
G01X6.36Y-4.395
M16
G05
G00X6.36Y-4.605
M15
G01X6.36Y-4.765
M16
G05
G00X6.36Y-2.1509
M15
G01X6.3925Y-2.1509
M16
G05
G00X6.36Y-2.3609
M15
G01X6.3925Y-2.3609
M16
G05
G00X6.36Y-2.8989
M15
G01X6.3925Y-2.8989
M16
G05
G00X6.36Y-3.1089
M15
G01X6.3925Y-3.1089
M16
G05
G00X6.36Y-3.647
M15
G01X6.3925Y-3.647
M16
G05
G00X6.36Y-3.857
M15
G01X6.3925Y-3.857
M16
G05
G00X6.36Y-4.395
M15
G01X6.3925Y-4.395
M16
G05
G00X6.36Y-4.605
M15
G01X6.3925Y-4.605
M16
G05
G00X6.3925Y-2.1509
M15
G01X6.3925Y-2.3609
M16
G05
G00X6.3925Y-2.8989
M15
G01X6.3925Y-3.1089
M16
G05
G00X6.3925Y-3.647
M15
G01X6.3925Y-3.857
M16
G05
G00X6.3925Y-4.395
M15
G01X6.3925Y-4.605
M16
G05
G00X6.3605Y-1.9909
M15
G01X6.9545Y-1.9909
M16
G05
G00X6.3605Y-2.5209
M15
G01X6.9545Y-2.5209
M16
G05
G00X6.3605Y-2.7389
M15
G01X6.9545Y-2.7389
M16
G05
G00X6.3605Y-3.2689
M15
G01X6.9545Y-3.2689
M16
G05
G00X6.3605Y-3.487
M15
G01X6.9545Y-3.487
M16
G05
G00X6.3605Y-4.017
M15
G01X6.9545Y-4.017
M16
G05
G00X6.3605Y-4.235
M15
G01X6.9545Y-4.235
M16
G05
G00X6.3605Y-4.765
M15
G01X6.9545Y-4.765
M16
G05
G00X6.9225Y-2.1509
M15
G01X6.9225Y-2.3609
M16
G05
G00X6.9225Y-2.8989
M15
G01X6.9225Y-3.1089
M16
G05
G00X6.9225Y-3.647
M15
G01X6.9225Y-3.857
M16
G05
G00X6.9225Y-4.395
M15
G01X6.9225Y-4.605
M16
G05
G00X6.9225Y-2.1509
M15
G01X6.955Y-2.1509
M16
G05
G00X6.9225Y-2.3609
M15
G01X6.955Y-2.3609
M16
G05
G00X6.9225Y-2.8989
M15
G01X6.955Y-2.8989
M16
G05
G00X6.9225Y-3.1089
M15
G01X6.955Y-3.1089
M16
G05
G00X6.9225Y-3.647
M15
G01X6.955Y-3.647
M16
G05
G00X6.9225Y-3.857
M15
G01X6.955Y-3.857
M16
G05
G00X6.9225Y-4.395
M15
G01X6.955Y-4.395
M16
G05
G00X6.9225Y-4.605
M15
G01X6.955Y-4.605
M16
G05
G00X6.955Y-1.9909
M15
G01X6.955Y-2.1509
M16
G05
G00X6.955Y-2.3609
M15
G01X6.955Y-2.5209
M16
G05
G00X6.955Y-2.7389
M15
G01X6.955Y-2.8989
M16
G05
G00X6.955Y-3.1089
M15
G01X6.955Y-3.2689
M16
G05
G00X6.955Y-3.487
M15
G01X6.955Y-3.647
M16
G05
G00X6.955Y-3.857
M15
G01X6.955Y-4.017
M16
G05
G00X6.955Y-4.235
M15
G01X6.955Y-4.395
M16
G05
G00X6.955Y-4.605
M15
G01X6.955Y-4.765
M16
G05
G00X7.108Y-1.7547
M15
G01X7.108Y-1.9147
M16
G05
G00X7.108Y-2.1247
M15
G01X7.108Y-2.2847
M16
G05
G00X7.108Y-2.5027
M15
G01X7.108Y-2.6627
M16
G05
G00X7.108Y-2.8727
M15
G01X7.108Y-3.0327
M16
G05
G00X7.108Y-3.2507
M15
G01X7.108Y-3.4107
M16
G05
G00X7.108Y-3.6207
M15
G01X7.108Y-3.7807
M16
G05
G00X7.108Y-3.9988
M15
G01X7.108Y-4.1588
M16
G05
G00X7.108Y-4.3688
M15
G01X7.108Y-4.5288
M16
G05
G00X7.108Y-1.9147
M15
G01X7.1405Y-1.9147
M16
G05
G00X7.108Y-2.1247
M15
G01X7.1405Y-2.1247
M16
G05
G00X7.108Y-2.6627
M15
G01X7.1405Y-2.6627
M16
G05
G00X7.108Y-2.8727
M15
G01X7.1405Y-2.8727
M16
G05
G00X7.108Y-3.4107
M15
G01X7.1405Y-3.4107
M16
G05
G00X7.108Y-3.6207
M15
G01X7.1405Y-3.6207
M16
G05
G00X7.108Y-4.1588
M15
G01X7.1405Y-4.1588
M16
G05
G00X7.108Y-4.3688
M15
G01X7.1405Y-4.3688
M16
G05
G00X7.1405Y-1.9147
M15
G01X7.1405Y-2.1247
M16
G05
G00X7.1405Y-2.6627
M15
G01X7.1405Y-2.8727
M16
G05
G00X7.1405Y-3.4107
M15
G01X7.1405Y-3.6207
M16
G05
G00X7.1405Y-4.1588
M15
G01X7.1405Y-4.3688
M16
G05
G00X7.1085Y-1.7547
M15
G01X7.7025Y-1.7547
M16
G05
G00X7.1085Y-2.2847
M15
G01X7.7025Y-2.2847
M16
G05
G00X7.1085Y-2.5027
M15
G01X7.7025Y-2.5027
M16
G05
G00X7.1085Y-3.0327
M15
G01X7.7025Y-3.0327
M16
G05
G00X7.1085Y-3.2507
M15
G01X7.7025Y-3.2507
M16
G05
G00X7.1085Y-3.7807
M15
G01X7.7025Y-3.7807
M16
G05
G00X7.1085Y-3.9988
M15
G01X7.7025Y-3.9988
M16
G05
G00X7.1085Y-4.5288
M15
G01X7.7025Y-4.5288
M16
G05
G00X7.6705Y-1.9147
M15
G01X7.6705Y-2.1247
M16
G05
G00X7.6705Y-2.6627
M15
G01X7.6705Y-2.8727
M16
G05
G00X7.6705Y-3.4107
M15
G01X7.6705Y-3.6207
M16
G05
G00X7.6705Y-4.1588
M15
G01X7.6705Y-4.3688
M16
G05
G00X7.6705Y-1.9147
M15
G01X7.703Y-1.9147
M16
G05
G00X7.6705Y-2.1247
M15
G01X7.703Y-2.1247
M16
G05
G00X7.6705Y-2.6627
M15
G01X7.703Y-2.6627
M16
G05
G00X7.6705Y-2.8727
M15
G01X7.703Y-2.8727
M16
G05
G00X7.6705Y-3.4107
M15
G01X7.703Y-3.4107
M16
G05
G00X7.6705Y-3.6207
M15
G01X7.703Y-3.6207
M16
G05
G00X7.6705Y-4.1588
M15
G01X7.703Y-4.1588
M16
G05
G00X7.6705Y-4.3688
M15
G01X7.703Y-4.3688
M16
G05
G00X7.703Y-1.7547
M15
G01X7.703Y-1.9147
M16
G05
G00X7.703Y-2.1247
M15
G01X7.703Y-2.2847
M16
G05
G00X7.703Y-2.5027
M15
G01X7.703Y-2.6627
M16
G05
G00X7.703Y-2.8727
M15
G01X7.703Y-3.0327
M16
G05
G00X7.703Y-3.2507
M15
G01X7.703Y-3.4107
M16
G05
G00X7.703Y-3.6207
M15
G01X7.703Y-3.7807
M16
G05
G00X7.703Y-3.9988
M15
G01X7.703Y-4.1588
M16
G05
G00X7.703Y-4.3688
M15
G01X7.703Y-4.5288
M16
G05
G00X7.856Y-1.6759
M15
G01X7.856Y-1.8359
M16
G05
G00X7.856Y-2.0459
M15
G01X7.856Y-2.2059
M16
G05
G00X7.856Y-2.424
M15
G01X7.856Y-2.584
M16
G05
G00X7.856Y-2.794
M15
G01X7.856Y-2.954
M16
G05
G00X7.856Y-3.172
M15
G01X7.856Y-3.332
M16
G05
G00X7.856Y-3.542
M15
G01X7.856Y-3.702
M16
G05
G00X7.856Y-3.92
M15
G01X7.856Y-4.08
M16
G05
G00X7.856Y-4.29
M15
G01X7.856Y-4.45
M16
G05
G00X7.856Y-1.8359
M15
G01X7.8885Y-1.8359
M16
G05
G00X7.856Y-2.0459
M15
G01X7.8885Y-2.0459
M16
G05
G00X7.856Y-2.584
M15
G01X7.8885Y-2.584
M16
G05
G00X7.856Y-2.794
M15
G01X7.8885Y-2.794
M16
G05
G00X7.856Y-3.332
M15
G01X7.8885Y-3.332
M16
G05
G00X7.856Y-3.542
M15
G01X7.8885Y-3.542
M16
G05
G00X7.856Y-4.08
M15
G01X7.8885Y-4.08
M16
G05
G00X7.856Y-4.29
M15
G01X7.8885Y-4.29
M16
G05
G00X7.8885Y-1.8359
M15
G01X7.8885Y-2.0459
M16
G05
G00X7.8885Y-2.584
M15
G01X7.8885Y-2.794
M16
G05
G00X7.8885Y-3.332
M15
G01X7.8885Y-3.542
M16
G05
G00X7.8885Y-4.08
M15
G01X7.8885Y-4.29
M16
G05
G00X7.8565Y-1.6759
M15
G01X8.4505Y-1.6759
M16
G05
G00X7.8565Y-2.2059
M15
G01X8.4505Y-2.2059
M16
G05
G00X7.8565Y-2.424
M15
G01X8.4505Y-2.424
M16
G05
G00X7.8565Y-2.954
M15
G01X8.4505Y-2.954
M16
G05
G00X7.8565Y-3.172
M15
G01X8.4505Y-3.172
M16
G05
G00X7.8565Y-3.702
M15
G01X8.4505Y-3.702
M16
G05
G00X7.8565Y-3.92
M15
G01X8.4505Y-3.92
M16
G05
G00X7.8565Y-4.45
M15
G01X8.4505Y-4.45
M16
G05
G00X8.4185Y-1.8359
M15
G01X8.4185Y-2.0459
M16
G05
G00X8.4185Y-2.584
M15
G01X8.4185Y-2.794
M16
G05
G00X8.4185Y-3.332
M15
G01X8.4185Y-3.542
M16
G05
G00X8.4185Y-4.08
M15
G01X8.4185Y-4.29
M16
G05
G00X8.4185Y-1.8359
M15
G01X8.451Y-1.8359
M16
G05
G00X8.4185Y-2.0459
M15
G01X8.451Y-2.0459
M16
G05
G00X8.4185Y-2.584
M15
G01X8.451Y-2.584
M16
G05
G00X8.4185Y-2.794
M15
G01X8.451Y-2.794
M16
G05
G00X8.4185Y-3.332
M15
G01X8.451Y-3.332
M16
G05
G00X8.4185Y-3.542
M15
G01X8.451Y-3.542
M16
G05
G00X8.4185Y-4.08
M15
G01X8.451Y-4.08
M16
G05
G00X8.4185Y-4.29
M15
G01X8.451Y-4.29
M16
G05
G00X8.451Y-1.6759
M15
G01X8.451Y-1.8359
M16
G05
G00X8.451Y-2.0459
M15
G01X8.451Y-2.2059
M16
G05
G00X8.451Y-2.424
M15
G01X8.451Y-2.584
M16
G05
G00X8.451Y-2.794
M15
G01X8.451Y-2.954
M16
G05
G00X8.451Y-3.172
M15
G01X8.451Y-3.332
M16
G05
G00X8.451Y-3.542
M15
G01X8.451Y-3.702
M16
G05
G00X8.451Y-3.92
M15
G01X8.451Y-4.08
M16
G05
G00X8.451Y-4.29
M15
G01X8.451Y-4.45
M16
G05
G00X8.6041Y-1.9909
M15
G01X8.6041Y-2.1509
M16
G05
G00X8.6041Y-2.3609
M15
G01X8.6041Y-2.5209
M16
G05
G00X8.6041Y-2.7389
M15
G01X8.6041Y-2.8989
M16
G05
G00X8.6041Y-3.1089
M15
G01X8.6041Y-3.2689
M16
G05
G00X8.6041Y-3.487
M15
G01X8.6041Y-3.647
M16
G05
G00X8.6041Y-3.857
M15
G01X8.6041Y-4.017
M16
G05
G00X8.6041Y-4.235
M15
G01X8.6041Y-4.395
M16
G05
G00X8.6041Y-4.605
M15
G01X8.6041Y-4.765
M16
G05
G00X8.6041Y-2.1509
M15
G01X8.6366Y-2.1509
M16
G05
G00X8.6041Y-2.3609
M15
G01X8.6366Y-2.3609
M16
G05
G00X8.6041Y-2.8989
M15
G01X8.6366Y-2.8989
M16
G05
G00X8.6041Y-3.1089
M15
G01X8.6366Y-3.1089
M16
G05
G00X8.6041Y-3.647
M15
G01X8.6366Y-3.647
M16
G05
G00X8.6041Y-3.857
M15
G01X8.6366Y-3.857
M16
G05
G00X8.6041Y-4.395
M15
G01X8.6366Y-4.395
M16
G05
G00X8.6041Y-4.605
M15
G01X8.6366Y-4.605
M16
G05
G00X8.6366Y-2.1509
M15
G01X8.6366Y-2.3609
M16
G05
G00X8.6366Y-2.8989
M15
G01X8.6366Y-3.1089
M16
G05
G00X8.6366Y-3.647
M15
G01X8.6366Y-3.857
M16
G05
G00X8.6366Y-4.395
M15
G01X8.6366Y-4.605
M16
G05
G00X8.6046Y-1.9909
M15
G01X9.1986Y-1.9909
M16
G05
G00X8.6046Y-2.5209
M15
G01X9.1986Y-2.5209
M16
G05
G00X8.6046Y-2.7389
M15
G01X9.1986Y-2.7389
M16
G05
G00X8.6046Y-3.2689
M15
G01X9.1986Y-3.2689
M16
G05
G00X8.6046Y-3.487
M15
G01X9.1986Y-3.487
M16
G05
G00X8.6046Y-4.017
M15
G01X9.1986Y-4.017
M16
G05
G00X8.6046Y-4.235
M15
G01X9.1986Y-4.235
M16
G05
G00X8.6046Y-4.765
M15
G01X9.1986Y-4.765
M16
G05
G00X9.1666Y-2.1509
M15
G01X9.1666Y-2.3609
M16
G05
G00X9.1666Y-2.8989
M15
G01X9.1666Y-3.1089
M16
G05
G00X9.1666Y-3.647
M15
G01X9.1666Y-3.857
M16
G05
G00X9.1666Y-4.395
M15
G01X9.1666Y-4.605
M16
G05
G00X9.1666Y-2.1509
M15
G01X9.1991Y-2.1509
M16
G05
G00X9.1666Y-2.3609
M15
G01X9.1991Y-2.3609
M16
G05
G00X9.1666Y-2.8989
M15
G01X9.1991Y-2.8989
M16
G05
G00X9.1666Y-3.1089
M15
G01X9.1991Y-3.1089
M16
G05
G00X9.1666Y-3.647
M15
G01X9.1991Y-3.647
M16
G05
G00X9.1666Y-3.857
M15
G01X9.1991Y-3.857
M16
G05
G00X9.1666Y-4.395
M15
G01X9.1991Y-4.395
M16
G05
G00X9.1666Y-4.605
M15
G01X9.1991Y-4.605
M16
G05
G00X9.1991Y-1.9909
M15
G01X9.1991Y-2.1509
M16
G05
G00X9.1991Y-2.3609
M15
G01X9.1991Y-2.5209
M16
G05
G00X9.1991Y-2.7389
M15
G01X9.1991Y-2.8989
M16
G05
G00X9.1991Y-3.1089
M15
G01X9.1991Y-3.2689
M16
G05
G00X9.1991Y-3.487
M15
G01X9.1991Y-3.647
M16
G05
G00X9.1991Y-3.857
M15
G01X9.1991Y-4.017
M16
G05
G00X9.1991Y-4.235
M15
G01X9.1991Y-4.395
M16
G05
G00X9.1991Y-4.605
M15
G01X9.1991Y-4.765
M16
G05
G00X9.3521Y-2.109
M15
G01X9.3521Y-2.269
M16
G05
G00X9.3521Y-2.479
M15
G01X9.3521Y-2.639
M16
G05
G00X9.3521Y-2.857
M15
G01X9.3521Y-3.017
M16
G05
G00X9.3521Y-3.227
M15
G01X9.3521Y-3.387
M16
G05
G00X9.3521Y-3.6051
M15
G01X9.3521Y-3.7651
M16
G05
G00X9.3521Y-3.9751
M15
G01X9.3521Y-4.1351
M16
G05
G00X9.3521Y-4.3531
M15
G01X9.3521Y-4.5131
M16
G05
G00X9.3521Y-4.7231
M15
G01X9.3521Y-4.8831
M16
G05
G00X9.3521Y-2.269
M15
G01X9.3846Y-2.269
M16
G05
G00X9.3521Y-2.479
M15
G01X9.3846Y-2.479
M16
G05
G00X9.3521Y-3.017
M15
G01X9.3846Y-3.017
M16
G05
G00X9.3521Y-3.227
M15
G01X9.3846Y-3.227
M16
G05
G00X9.3521Y-3.7651
M15
G01X9.3846Y-3.7651
M16
G05
G00X9.3521Y-3.9751
M15
G01X9.3846Y-3.9751
M16
G05
G00X9.3521Y-4.5131
M15
G01X9.3846Y-4.5131
M16
G05
G00X9.3521Y-4.7231
M15
G01X9.3846Y-4.7231
M16
G05
G00X9.3846Y-2.269
M15
G01X9.3846Y-2.479
M16
G05
G00X9.3846Y-3.017
M15
G01X9.3846Y-3.227
M16
G05
G00X9.3846Y-3.7651
M15
G01X9.3846Y-3.9751
M16
G05
G00X9.3846Y-4.5131
M15
G01X9.3846Y-4.7231
M16
G05
G00X9.3526Y-2.109
M15
G01X9.9466Y-2.109
M16
G05
G00X9.3526Y-2.639
M15
G01X9.9466Y-2.639
M16
G05
G00X9.3526Y-2.857
M15
G01X9.9466Y-2.857
M16
G05
G00X9.3526Y-3.387
M15
G01X9.9466Y-3.387
M16
G05
G00X9.3526Y-3.6051
M15
G01X9.9466Y-3.6051
M16
G05
G00X9.3526Y-4.1351
M15
G01X9.9466Y-4.1351
M16
G05
G00X9.3526Y-4.3531
M15
G01X9.9466Y-4.3531
M16
G05
G00X9.3526Y-4.8831
M15
G01X9.9466Y-4.8831
M16
G05
G00X9.9146Y-2.269
M15
G01X9.9146Y-2.479
M16
G05
G00X9.9146Y-3.017
M15
G01X9.9146Y-3.227
M16
G05
G00X9.9146Y-3.7651
M15
G01X9.9146Y-3.9751
M16
G05
G00X9.9146Y-4.5131
M15
G01X9.9146Y-4.7231
M16
G05
G00X9.9146Y-2.269
M15
G01X9.9471Y-2.269
M16
G05
G00X9.9146Y-2.479
M15
G01X9.9471Y-2.479
M16
G05
G00X9.9146Y-3.017
M15
G01X9.9471Y-3.017
M16
G05
G00X9.9146Y-3.227
M15
G01X9.9471Y-3.227
M16
G05
G00X9.9146Y-3.7651
M15
G01X9.9471Y-3.7651
M16
G05
G00X9.9146Y-3.9751
M15
G01X9.9471Y-3.9751
M16
G05
G00X9.9146Y-4.5131
M15
G01X9.9471Y-4.5131
M16
G05
G00X9.9146Y-4.7231
M15
G01X9.9471Y-4.7231
M16
G05
G00X9.9471Y-2.109
M15
G01X9.9471Y-2.269
M16
G05
G00X9.9471Y-2.479
M15
G01X9.9471Y-2.639
M16
G05
G00X9.9471Y-2.857
M15
G01X9.9471Y-3.017
M16
G05
G00X9.9471Y-3.227
M15
G01X9.9471Y-3.387
M16
G05
G00X9.9471Y-3.6051
M15
G01X9.9471Y-3.7651
M16
G05
G00X9.9471Y-3.9751
M15
G01X9.9471Y-4.1351
M16
G05
G00X9.9471Y-4.3531
M15
G01X9.9471Y-4.5131
M16
G05
G00X9.9471Y-4.7231
M15
G01X9.9471Y-4.8831
M16
G05
T2
G00X5.0864Y-4.0281
M15
G01X5.2364Y-4.0281
M16
G05
G00X5.0864Y-4.5781
M15
G01X5.2364Y-4.5781
M16
G05
G00X5.8344Y-3.5951
M15
G01X5.9844Y-3.5951
M16
G05
G00X5.8344Y-4.1451
M15
G01X5.9844Y-4.1451
M16
G05
G00X5.8344Y-4.3431
M15
G01X5.9844Y-4.3431
M16
G05
G00X5.8344Y-4.8931
M15
G01X5.9844Y-4.8931
M16
G05
G00X6.5825Y-1.9809
M15
G01X6.7325Y-1.9809
M16
G05
G00X6.5825Y-2.5309
M15
G01X6.7325Y-2.5309
M16
G05
G00X6.5825Y-2.7289
M15
G01X6.7325Y-2.7289
M16
G05
G00X6.5825Y-3.2789
M15
G01X6.7325Y-3.2789
M16
G05
G00X6.5825Y-3.477
M15
G01X6.7325Y-3.477
M16
G05
G00X6.5825Y-4.027
M15
G01X6.7325Y-4.027
M16
G05
G00X6.5825Y-4.225
M15
G01X6.7325Y-4.225
M16
G05
G00X6.5825Y-4.775
M15
G01X6.7325Y-4.775
M16
G05
G00X7.3305Y-1.7447
M15
G01X7.4805Y-1.7447
M16
G05
G00X7.3305Y-2.2947
M15
G01X7.4805Y-2.2947
M16
G05
G00X7.3305Y-2.4927
M15
G01X7.4805Y-2.4927
M16
G05
G00X7.3305Y-3.0427
M15
G01X7.4805Y-3.0427
M16
G05
G00X7.3305Y-3.2407
M15
G01X7.4805Y-3.2407
M16
G05
G00X7.3305Y-3.7907
M15
G01X7.4805Y-3.7907
M16
G05
G00X7.3305Y-3.9888
M15
G01X7.4805Y-3.9888
M16
G05
G00X7.3305Y-4.5388
M15
G01X7.4805Y-4.5388
M16
G05
G00X8.0785Y-1.6659
M15
G01X8.2285Y-1.6659
M16
G05
G00X8.0785Y-2.2159
M15
G01X8.2285Y-2.2159
M16
G05
G00X8.0785Y-2.414
M15
G01X8.2285Y-2.414
M16
G05
G00X8.0785Y-2.964
M15
G01X8.2285Y-2.964
M16
G05
G00X8.0785Y-3.162
M15
G01X8.2285Y-3.162
M16
G05
G00X8.0785Y-3.712
M15
G01X8.2285Y-3.712
M16
G05
G00X8.0785Y-3.91
M15
G01X8.2285Y-3.91
M16
G05
G00X8.0785Y-4.46
M15
G01X8.2285Y-4.46
M16
G05
G00X8.8266Y-1.9809
M15
G01X8.9766Y-1.9809
M16
G05
G00X8.8266Y-2.5309
M15
G01X8.9766Y-2.5309
M16
G05
G00X8.8266Y-2.7289
M15
G01X8.9766Y-2.7289
M16
G05
G00X8.8266Y-3.2789
M15
G01X8.9766Y-3.2789
M16
G05
G00X8.8266Y-3.477
M15
G01X8.9766Y-3.477
M16
G05
G00X8.8266Y-4.027
M15
G01X8.9766Y-4.027
M16
G05
G00X8.8266Y-4.225
M15
G01X8.9766Y-4.225
M16
G05
G00X8.8266Y-4.775
M15
G01X8.9766Y-4.775
M16
G05
G00X9.5746Y-2.099
M15
G01X9.7246Y-2.099
M16
G05
G00X9.5746Y-2.649
M15
G01X9.7246Y-2.649
M16
G05
G00X9.5746Y-2.847
M15
G01X9.7246Y-2.847
M16
G05
G00X9.5746Y-3.397
M15
G01X9.7246Y-3.397
M16
G05
G00X9.5746Y-3.5951
M15
G01X9.7246Y-3.5951
M16
G05
G00X9.5746Y-4.1451
M15
G01X9.7246Y-4.1451
M16
G05
G00X9.5746Y-4.3431
M15
G01X9.7246Y-4.3431
M16
G05
G00X9.5746Y-4.8931
M15
G01X9.7246Y-4.8931
M16
G05
T0
M30
