%TF.GenerationSoftware,KiCad,Pcbnew,6.0.11-2627ca5db0~126~ubuntu22.04.1*%
%TF.CreationDate,2023-02-09T16:09:02-07:00*%
%TF.ProjectId,scaarix_flow,73636161-7269-4785-9f66-6c6f772e6b69,v1.0.0*%
%TF.SameCoordinates,Original*%
%TF.FileFunction,Profile,NP*%
%FSLAX46Y46*%
G04 Gerber Fmt 4.6, Leading zero omitted, Abs format (unit mm)*
G04 Created by KiCad (PCBNEW 6.0.11-2627ca5db0~126~ubuntu22.04.1) date 2023-02-09 16:09:02*
%MOMM*%
%LPD*%
G01*
G04 APERTURE LIST*
%TA.AperFunction,Profile*%
%ADD10C,0.150000*%
%TD*%
G04 APERTURE END LIST*
D10*
X174500000Y-47000000D02*
X161300000Y-47000000D01*
X216700000Y-39000000D02*
X197500000Y-39000000D01*
X220700000Y-44000000D02*
X220700000Y-43000000D01*
X220700000Y-44000000D02*
G75*
G03*
X223700000Y-47000000I3000000J0D01*
G01*
X123300000Y-120380000D02*
X137300000Y-120380000D01*
X197500000Y-39000000D02*
G75*
G03*
X194700583Y-40142857I0J-4000000D01*
G01*
X138421320Y-91200000D02*
X138421320Y-96178680D01*
X251099998Y-129100035D02*
G75*
G03*
X256571573Y-123900000I264802J5200035D01*
G01*
X140300038Y-125600004D02*
G75*
G03*
X143400000Y-129000000I3099962J-286796D01*
G01*
X192601021Y-41000000D02*
X178500000Y-41000000D01*
X119299984Y-116300000D02*
G75*
G03*
X123300000Y-120380000I4000016J-79200D01*
G01*
X141421320Y-88200020D02*
G75*
G03*
X138421320Y-91200000I-20J-2999980D01*
G01*
X161300000Y-47000000D02*
G75*
G03*
X157300000Y-51000000I0J-4000000D01*
G01*
X143400000Y-129000000D02*
X251100000Y-129100000D01*
X119300000Y-103178680D02*
X119300000Y-116300000D01*
X238982632Y-48714269D02*
G75*
G03*
X241444563Y-50000001I2461968J1714269D01*
G01*
X178500000Y-41000000D02*
G75*
G03*
X174500000Y-45000000I0J-4000000D01*
G01*
X220700000Y-43000000D02*
G75*
G03*
X216700000Y-39000000I-4000000J0D01*
G01*
X256571600Y-54000000D02*
G75*
G03*
X252571573Y-50000000I-4000000J0D01*
G01*
X157300000Y-85200000D02*
X157300000Y-53100000D01*
X140300000Y-125600000D02*
X140300000Y-123380000D01*
X256571573Y-123900000D02*
X256571573Y-54000000D01*
X192601021Y-41000028D02*
G75*
G03*
X194700584Y-40142857I-121J3000228D01*
G01*
X140300000Y-123380000D02*
G75*
G03*
X137300000Y-120380000I-3000000J0D01*
G01*
X154300000Y-88200000D02*
X141421320Y-88200000D01*
X135421320Y-99178720D02*
G75*
G03*
X138421320Y-96178680I-20J3000020D01*
G01*
X157300000Y-51000000D02*
X157300000Y-53100000D01*
X174500000Y-45000000D02*
X174500000Y-47000000D01*
X252571573Y-50000000D02*
X241444563Y-50000000D01*
X154300000Y-88200000D02*
G75*
G03*
X157300000Y-85200000I0J3000000D01*
G01*
X238982607Y-48714286D02*
G75*
G03*
X235700000Y-47000000I-3282607J-2285714D01*
G01*
X123300000Y-99178700D02*
G75*
G03*
X119300000Y-103178680I0J-4000000D01*
G01*
X135421320Y-99178680D02*
X123300000Y-99178680D01*
X235700000Y-47000000D02*
X223700000Y-47000000D01*
M02*
