%TF.GenerationSoftware,KiCad,Pcbnew,6.0.11-2627ca5db0~126~ubuntu22.04.1*%
%TF.CreationDate,2023-02-09T16:09:02-07:00*%
%TF.ProjectId,scaarix_flow,73636161-7269-4785-9f66-6c6f772e6b69,v1.0.0*%
%TF.SameCoordinates,Original*%
%TF.FileFunction,Soldermask,Top*%
%TF.FilePolarity,Negative*%
%FSLAX46Y46*%
G04 Gerber Fmt 4.6, Leading zero omitted, Abs format (unit mm)*
G04 Created by KiCad (PCBNEW 6.0.11-2627ca5db0~126~ubuntu22.04.1) date 2023-02-09 16:09:02*
%MOMM*%
%LPD*%
G01*
G04 APERTURE LIST*
%ADD10O,1.333500X0.508000*%
%ADD11O,5.080000X1.270000*%
%ADD12O,0.508000X5.842000*%
%ADD13O,0.508000X4.572000*%
%ADD14O,15.595600X0.508000*%
G04 APERTURE END LIST*
D10*
%TO.C,S15*%
X214243750Y-46633000D03*
D11*
X207100000Y-42315000D03*
D12*
X200369000Y-49300000D03*
D11*
X207100000Y-56285000D03*
D13*
X214656500Y-53999000D03*
D10*
X199956250Y-46633000D03*
X214243750Y-51967000D03*
D13*
X199543500Y-53999000D03*
D14*
X207100000Y-56031000D03*
D13*
X214656500Y-44601000D03*
D14*
X207100000Y-42569000D03*
D12*
X213831000Y-49300000D03*
D13*
X199543500Y-44601000D03*
D10*
X199956250Y-51967000D03*
%TD*%
%TO.C,S10*%
X180956250Y-67633000D03*
D14*
X188100000Y-77031000D03*
D10*
X180956250Y-72967000D03*
D11*
X188100000Y-63315000D03*
D12*
X194831000Y-70300000D03*
D11*
X188100000Y-77285000D03*
D13*
X180543500Y-65601000D03*
D12*
X181369000Y-70300000D03*
D10*
X195243750Y-67633000D03*
D13*
X180543500Y-74999000D03*
D14*
X188100000Y-63569000D03*
D13*
X195656500Y-65601000D03*
X195656500Y-74999000D03*
D10*
X195243750Y-72967000D03*
%TD*%
D14*
%TO.C,S3*%
X150100000Y-91569000D03*
D12*
X156831000Y-98300000D03*
D13*
X142543500Y-93601000D03*
D10*
X157243750Y-95633000D03*
D14*
X150100000Y-105031000D03*
D10*
X142956250Y-100967000D03*
D12*
X143369000Y-98300000D03*
D10*
X142956250Y-95633000D03*
D11*
X150100000Y-91315000D03*
D10*
X157243750Y-100967000D03*
D11*
X150100000Y-105285000D03*
D13*
X157656500Y-102999000D03*
X157656500Y-93601000D03*
X142543500Y-102999000D03*
%TD*%
D10*
%TO.C,S22*%
X237956250Y-76633000D03*
D13*
X237543500Y-83999000D03*
X237543500Y-74601000D03*
D14*
X245100000Y-72569000D03*
D12*
X238369000Y-79300000D03*
D10*
X237956250Y-81967000D03*
D13*
X252656500Y-74601000D03*
D14*
X245100000Y-86031000D03*
D12*
X251831000Y-79300000D03*
D10*
X252243750Y-76633000D03*
X252243750Y-81967000D03*
D13*
X252656500Y-83999000D03*
D11*
X245100000Y-86285000D03*
X245100000Y-72315000D03*
%TD*%
D12*
%TO.C,S20*%
X238369000Y-117300000D03*
D11*
X245100000Y-124285000D03*
D14*
X245100000Y-110569000D03*
D10*
X252243750Y-119967000D03*
X252243750Y-114633000D03*
D13*
X252656500Y-121999000D03*
D11*
X245100000Y-110315000D03*
D14*
X245100000Y-124031000D03*
D12*
X251831000Y-117300000D03*
D10*
X237956250Y-114633000D03*
D13*
X252656500Y-112601000D03*
X237543500Y-121999000D03*
D10*
X237956250Y-119967000D03*
D13*
X237543500Y-112601000D03*
%TD*%
D11*
%TO.C,S16*%
X226100000Y-107315000D03*
D13*
X233656500Y-109601000D03*
D11*
X226100000Y-121285000D03*
D12*
X219369000Y-114300000D03*
D10*
X218956250Y-111633000D03*
D13*
X218543500Y-118999000D03*
D10*
X218956250Y-116967000D03*
D13*
X218543500Y-109601000D03*
D12*
X232831000Y-114300000D03*
D14*
X226100000Y-121031000D03*
X226100000Y-107569000D03*
D10*
X233243750Y-116967000D03*
X233243750Y-111633000D03*
D13*
X233656500Y-118999000D03*
%TD*%
D10*
%TO.C,S9*%
X180956250Y-86633000D03*
X195243750Y-91967000D03*
D13*
X180543500Y-93999000D03*
D14*
X188100000Y-82569000D03*
D13*
X195656500Y-84601000D03*
D12*
X181369000Y-89300000D03*
D10*
X195243750Y-86633000D03*
D14*
X188100000Y-96031000D03*
D11*
X188100000Y-96285000D03*
D12*
X194831000Y-89300000D03*
D10*
X180956250Y-91967000D03*
D13*
X195656500Y-93999000D03*
X180543500Y-84601000D03*
D11*
X188100000Y-82315000D03*
%TD*%
D13*
%TO.C,S19*%
X218543500Y-52601000D03*
D11*
X226100000Y-50315000D03*
D13*
X233656500Y-52601000D03*
X233656500Y-61999000D03*
D10*
X218956250Y-54633000D03*
X218956250Y-59967000D03*
D12*
X219369000Y-57300000D03*
D14*
X226100000Y-50569000D03*
D10*
X233243750Y-59967000D03*
D12*
X232831000Y-57300000D03*
D14*
X226100000Y-64031000D03*
D10*
X233243750Y-54633000D03*
D11*
X226100000Y-64285000D03*
D13*
X218543500Y-61999000D03*
%TD*%
%TO.C,S4*%
X161543500Y-109601000D03*
X176656500Y-118999000D03*
X161543500Y-118999000D03*
D11*
X169100000Y-107315000D03*
D14*
X169100000Y-121031000D03*
X169100000Y-107569000D03*
D11*
X169100000Y-121285000D03*
D13*
X176656500Y-109601000D03*
D12*
X175831000Y-114300000D03*
D10*
X176243750Y-111633000D03*
X161956250Y-116967000D03*
X161956250Y-111633000D03*
D12*
X162369000Y-114300000D03*
D10*
X176243750Y-116967000D03*
%TD*%
D12*
%TO.C,S11*%
X181369000Y-51300000D03*
D10*
X195243750Y-48633000D03*
D13*
X180543500Y-46601000D03*
D11*
X188100000Y-44315000D03*
D10*
X180956250Y-53967000D03*
D12*
X194831000Y-51300000D03*
D11*
X188100000Y-58285000D03*
D13*
X180543500Y-55999000D03*
X195656500Y-55999000D03*
D10*
X195243750Y-53967000D03*
D13*
X195656500Y-46601000D03*
D14*
X188100000Y-58031000D03*
D10*
X180956250Y-48633000D03*
D14*
X188100000Y-44569000D03*
%TD*%
D10*
%TO.C,S23*%
X237956250Y-62967000D03*
X237956250Y-57633000D03*
D11*
X245100000Y-53315000D03*
D12*
X251831000Y-60300000D03*
D14*
X245100000Y-53569000D03*
D13*
X237543500Y-55601000D03*
D11*
X245100000Y-67285000D03*
D14*
X245100000Y-67031000D03*
D10*
X252243750Y-62967000D03*
D13*
X252656500Y-64999000D03*
X252656500Y-55601000D03*
D12*
X238369000Y-60300000D03*
D10*
X252243750Y-57633000D03*
D13*
X237543500Y-64999000D03*
%TD*%
D10*
%TO.C,S21*%
X252243750Y-100967000D03*
D14*
X245100000Y-105031000D03*
D13*
X252656500Y-102999000D03*
D11*
X245100000Y-105285000D03*
D13*
X252656500Y-93601000D03*
X237543500Y-93601000D03*
D10*
X237956250Y-100967000D03*
D12*
X251831000Y-98300000D03*
D14*
X245100000Y-91569000D03*
D10*
X252243750Y-95633000D03*
D13*
X237543500Y-102999000D03*
D10*
X237956250Y-95633000D03*
D11*
X245100000Y-91315000D03*
D12*
X238369000Y-98300000D03*
%TD*%
D11*
%TO.C,S2*%
X150100000Y-124285000D03*
D13*
X157656500Y-121999000D03*
X142543500Y-121999000D03*
X157656500Y-112601000D03*
D14*
X150100000Y-110569000D03*
D12*
X143369000Y-117300000D03*
X156831000Y-117300000D03*
D10*
X142956250Y-119967000D03*
X157243750Y-114633000D03*
D14*
X150100000Y-124031000D03*
D10*
X157243750Y-119967000D03*
X142956250Y-114633000D03*
D11*
X150100000Y-110315000D03*
D13*
X142543500Y-112601000D03*
%TD*%
D10*
%TO.C,S8*%
X180956250Y-105633000D03*
D11*
X188100000Y-101315000D03*
D14*
X188100000Y-101569000D03*
D10*
X195243750Y-105633000D03*
X195243750Y-110967000D03*
D12*
X181369000Y-108300000D03*
D13*
X195656500Y-103601000D03*
X180543500Y-112999000D03*
D10*
X180956250Y-110967000D03*
D13*
X180543500Y-103601000D03*
D11*
X188100000Y-115285000D03*
D12*
X194831000Y-108300000D03*
D14*
X188100000Y-115031000D03*
D13*
X195656500Y-112999000D03*
%TD*%
D11*
%TO.C,S13*%
X207100000Y-94285000D03*
D13*
X214656500Y-91999000D03*
X214656500Y-82601000D03*
X199543500Y-91999000D03*
D10*
X214243750Y-84633000D03*
D13*
X199543500Y-82601000D03*
D14*
X207100000Y-94031000D03*
D12*
X213831000Y-87300000D03*
D11*
X207100000Y-80315000D03*
D12*
X200369000Y-87300000D03*
D10*
X214243750Y-89967000D03*
D14*
X207100000Y-80569000D03*
D10*
X199956250Y-89967000D03*
X199956250Y-84633000D03*
%TD*%
%TO.C,S1*%
X138243750Y-111967000D03*
X138243750Y-106633000D03*
D13*
X123543500Y-104601000D03*
X123543500Y-113999000D03*
D10*
X123956250Y-111967000D03*
D14*
X131100000Y-102569000D03*
D13*
X138656500Y-104601000D03*
D12*
X137831000Y-109300000D03*
D11*
X131100000Y-116285000D03*
D10*
X123956250Y-106633000D03*
D13*
X138656500Y-113999000D03*
D11*
X131100000Y-102315000D03*
D14*
X131100000Y-116031000D03*
D12*
X124369000Y-109300000D03*
%TD*%
D13*
%TO.C,S5*%
X176656500Y-99999000D03*
D11*
X169100000Y-88315000D03*
D10*
X161956250Y-92633000D03*
D14*
X169100000Y-88569000D03*
D12*
X162369000Y-95300000D03*
D11*
X169100000Y-102285000D03*
D13*
X161543500Y-99999000D03*
D12*
X175831000Y-95300000D03*
D14*
X169100000Y-102031000D03*
D13*
X176656500Y-90601000D03*
D10*
X176243750Y-97967000D03*
X176243750Y-92633000D03*
D13*
X161543500Y-90601000D03*
D10*
X161956250Y-97967000D03*
%TD*%
%TO.C,S6*%
X161956250Y-73633000D03*
D11*
X169100000Y-69315000D03*
X169100000Y-83285000D03*
D13*
X161543500Y-71601000D03*
D10*
X176243750Y-73633000D03*
D12*
X162369000Y-76300000D03*
D13*
X176656500Y-80999000D03*
X176656500Y-71601000D03*
D12*
X175831000Y-76300000D03*
D13*
X161543500Y-80999000D03*
D14*
X169100000Y-69569000D03*
X169100000Y-83031000D03*
D10*
X176243750Y-78967000D03*
X161956250Y-78967000D03*
%TD*%
D14*
%TO.C,S12*%
X207100000Y-99569000D03*
X207100000Y-113031000D03*
D12*
X213831000Y-106300000D03*
D13*
X199543500Y-110999000D03*
D10*
X199956250Y-108967000D03*
X199956250Y-103633000D03*
D13*
X214656500Y-110999000D03*
D11*
X207100000Y-113285000D03*
D10*
X214243750Y-103633000D03*
X214243750Y-108967000D03*
D11*
X207100000Y-99315000D03*
D13*
X214656500Y-101601000D03*
D12*
X200369000Y-106300000D03*
D13*
X199543500Y-101601000D03*
%TD*%
D14*
%TO.C,S7*%
X169100000Y-64031000D03*
X169100000Y-50569000D03*
D10*
X161956250Y-59967000D03*
D12*
X162369000Y-57300000D03*
D13*
X176656500Y-52601000D03*
D10*
X176243750Y-59967000D03*
D13*
X176656500Y-61999000D03*
X161543500Y-61999000D03*
D10*
X161956250Y-54633000D03*
D11*
X169100000Y-64285000D03*
D13*
X161543500Y-52601000D03*
D12*
X175831000Y-57300000D03*
D11*
X169100000Y-50315000D03*
D10*
X176243750Y-54633000D03*
%TD*%
D13*
%TO.C,S14*%
X214656500Y-63601000D03*
D11*
X207100000Y-61315000D03*
D13*
X214656500Y-72999000D03*
D11*
X207100000Y-75285000D03*
D10*
X214243750Y-65633000D03*
D13*
X199543500Y-63601000D03*
X199543500Y-72999000D03*
D10*
X214243750Y-70967000D03*
D14*
X207100000Y-75031000D03*
D12*
X213831000Y-68300000D03*
X200369000Y-68300000D03*
D10*
X199956250Y-65633000D03*
X199956250Y-70967000D03*
D14*
X207100000Y-61569000D03*
%TD*%
D11*
%TO.C,S18*%
X226100000Y-69315000D03*
D14*
X226100000Y-83031000D03*
D13*
X233656500Y-71601000D03*
D14*
X226100000Y-69569000D03*
D12*
X219369000Y-76300000D03*
D13*
X218543500Y-80999000D03*
D10*
X218956250Y-73633000D03*
D13*
X233656500Y-80999000D03*
D11*
X226100000Y-83285000D03*
D10*
X233243750Y-73633000D03*
X218956250Y-78967000D03*
X233243750Y-78967000D03*
D12*
X232831000Y-76300000D03*
D13*
X218543500Y-71601000D03*
%TD*%
D10*
%TO.C,S17*%
X233243750Y-97967000D03*
D13*
X218543500Y-99999000D03*
X218543500Y-90601000D03*
X233656500Y-99999000D03*
D10*
X233243750Y-92633000D03*
D14*
X226100000Y-102031000D03*
D12*
X232831000Y-95300000D03*
X219369000Y-95300000D03*
D14*
X226100000Y-88569000D03*
D11*
X226100000Y-102285000D03*
D10*
X218956250Y-97967000D03*
X218956250Y-92633000D03*
D11*
X226100000Y-88315000D03*
D13*
X233656500Y-90601000D03*
%TD*%
M02*
