M48
; DRILL file {KiCad (6.0.8)} date Sat Dec 10 18:24:41 2022
; FORMAT={-:-/ absolute / inch / decimal}
; #@! TF.CreationDate,2022-12-10T18:24:41-07:00
; #@! TF.GenerationSoftware,Kicad,Pcbnew,(6.0.8)
; #@! TF.FileFunction,Plated,1,2,PTH
FMAT,2
INCH
; #@! TA.AperFunction,Plated,PTH,ViaDrill
T1C0.0079
; #@! TA.AperFunction,Plated,PTH,ViaDrill
T2C0.0157
; #@! TA.AperFunction,Plated,PTH,ComponentDrill
T3C0.0354
; #@! TA.AperFunction,Plated,PTH,ComponentDrill
T4C0.0390
; #@! TA.AperFunction,Plated,PTH,ComponentDrill
T5C0.0430
%
G90
G05
T1
X5.5287Y-2.5716
X5.5287Y-3.3196
X5.5287Y-4.0677
X5.5295Y-4.8159
X5.7286Y-2.9627
X5.7286Y-3.7088
X5.7286Y-4.4588
X5.7286Y-5.2068
X6.0285Y-3.1841
X6.2789Y-2.4532
X6.2789Y-3.2013
X6.2789Y-3.9493
X6.2797Y-4.6976
X6.4756Y-2.8436
X6.4756Y-3.5897
X6.4756Y-4.3397
X6.4756Y-5.0877
X6.6988Y-3.1329
X6.7008Y-3.0876
X6.8091Y-2.9783
X6.873Y-2.997
X6.8947Y-2.9793
X7.024Y-2.2957
X7.024Y-3.0438
X7.024Y-3.7918
X7.0248Y-4.5401
X7.2237Y-2.6871
X7.2237Y-3.4332
X7.2237Y-4.1832
X7.2237Y-4.9312
X7.5177Y-3.0138
X7.772Y-2.218
X7.772Y-2.966
X7.772Y-3.7141
X7.7728Y-4.4623
X7.9739Y-2.6074
X7.9739Y-3.3535
X7.9739Y-4.1035
X7.9739Y-4.8515
X8.311Y-3.128
X8.521Y-2.3745
X8.521Y-3.1225
X8.521Y-3.8706
X8.5218Y-4.6188
X8.7207Y-2.7649
X8.7207Y-3.511
X8.7207Y-4.261
X8.7207Y-5.009
X9.0581Y-3.2933
X9.0582Y-6.7012
X9.2495Y-6.1519
X9.2691Y-2.4926
X9.2691Y-3.2406
X9.2691Y-3.9887
X9.2699Y-4.7369
X9.4685Y-2.8839
X9.4685Y-3.6299
X9.4685Y-4.3799
X9.4685Y-5.128
X9.6661Y-6.356
X9.7411Y-4.624
X9.7413Y-3.8456
X9.7421Y-3.1535
X9.7421Y-4.6624
X9.7431Y-3.9075
X9.8159Y-3.19
X9.9089Y-7.0106
X10.0999Y-6.4615
X10.4311Y-7.4469
X10.435Y-7.8917
X10.6527Y-3.1323
T2
X10.196Y-3.1756
X10.2275Y-3.2544
T4
X5.5736Y-3.1737
X5.5736Y-3.9217
X5.5736Y-4.6697
X5.5736Y-5.4178
X5.8736Y-3.1737
X5.8736Y-3.9217
X5.8736Y-4.6697
X5.8736Y-5.4178
X6.3216Y-3.0556
X6.3216Y-3.8036
X6.3216Y-4.5516
X6.3216Y-5.2997
X6.6216Y-3.0556
X6.6216Y-3.8036
X6.6216Y-4.5516
X6.6216Y-5.2997
X7.0696Y-2.8981
X7.0696Y-3.6461
X7.0696Y-4.3942
X7.0696Y-5.1422
X7.3696Y-2.8981
X7.3696Y-3.6461
X7.3696Y-4.3942
X7.3696Y-5.1422
X7.8177Y-2.8194
X7.8177Y-3.5674
X7.8177Y-4.3154
X7.8177Y-5.0634
X8.1177Y-2.8194
X8.1177Y-3.5674
X8.1177Y-4.3154
X8.1177Y-5.0634
X8.5657Y-2.9768
X8.5657Y-3.7249
X8.5657Y-4.4729
X8.5657Y-5.2209
X8.8657Y-2.9768
X8.8657Y-3.7249
X8.8657Y-4.4729
X8.8657Y-5.2209
X9.3137Y-3.0949
X9.3137Y-3.843
X9.3137Y-4.591
X9.3137Y-5.339
X9.3841Y-5.5241
X9.6137Y-3.0949
X9.6137Y-3.843
X9.6137Y-4.591
X9.6137Y-5.339
X9.6841Y-5.5241
X10.235Y-5.8338
X10.2455Y-8.0132
X10.5256Y-8.1207
X10.535Y-5.8338
T5
X9.9511Y-2.6552
X9.9511Y-2.7552
X9.9511Y-2.8552
X9.9511Y-2.9552
X9.9511Y-3.0552
X9.9511Y-3.1552
X9.9511Y-3.2552
X9.9511Y-3.3552
X9.9511Y-3.4552
X9.9511Y-3.5552
X9.9511Y-3.6552
X9.9511Y-3.7552
X10.5511Y-2.6552
X10.5511Y-2.7552
X10.5511Y-2.8552
X10.5511Y-2.9552
X10.5511Y-3.0552
X10.5511Y-3.1552
X10.5511Y-3.2552
X10.5511Y-3.3552
X10.5511Y-3.4552
X10.5511Y-3.5552
X10.5511Y-3.6552
X10.5511Y-3.7552
T3
G00X10.2905Y-3.969
M15
G01X10.2669Y-3.969
M16
G05
G00X10.2905Y-4.1501
M15
G01X10.2669Y-4.1501
M16
G05
G00X10.3338Y-3.969
M15
G01X10.3102Y-3.969
M16
G05
G00X10.3338Y-4.1501
M15
G01X10.3102Y-4.1501
M16
G05
G00X10.4913Y-3.969
M15
G01X10.4677Y-3.969
M16
G05
G00X10.4913Y-4.1501
M15
G01X10.4677Y-4.1501
M16
G05
G00X10.6094Y-3.969
M15
G01X10.5858Y-3.969
M16
G05
G00X10.6094Y-4.1501
M15
G01X10.5858Y-4.1501
M16
G05
T0
M30
