%TF.GenerationSoftware,KiCad,Pcbnew,(6.0.8)*%
%TF.CreationDate,2022-12-10T18:24:34-07:00*%
%TF.ProjectId,scaarix_flow,73636161-7269-4785-9f66-6c6f772e6b69,v1.0.0*%
%TF.SameCoordinates,Original*%
%TF.FileFunction,Soldermask,Top*%
%TF.FilePolarity,Negative*%
%FSLAX46Y46*%
G04 Gerber Fmt 4.6, Leading zero omitted, Abs format (unit mm)*
G04 Created by KiCad (PCBNEW (6.0.8)) date 2022-12-10 18:24:34*
%MOMM*%
%LPD*%
G01*
G04 APERTURE LIST*
G04 Aperture macros list*
%AMRoundRect*
0 Rectangle with rounded corners*
0 $1 Rounding radius*
0 $2 $3 $4 $5 $6 $7 $8 $9 X,Y pos of 4 corners*
0 Add a 4 corners polygon primitive as box body*
4,1,4,$2,$3,$4,$5,$6,$7,$8,$9,$2,$3,0*
0 Add four circle primitives for the rounded corners*
1,1,$1+$1,$2,$3*
1,1,$1+$1,$4,$5*
1,1,$1+$1,$6,$7*
1,1,$1+$1,$8,$9*
0 Add four rect primitives between the rounded corners*
20,1,$1+$1,$2,$3,$4,$5,0*
20,1,$1+$1,$4,$5,$6,$7,0*
20,1,$1+$1,$6,$7,$8,$9,0*
20,1,$1+$1,$8,$9,$2,$3,0*%
%AMRotRect*
0 Rectangle, with rotation*
0 The origin of the aperture is its center*
0 $1 length*
0 $2 width*
0 $3 Rotation angle, in degrees counterclockwise*
0 Add horizontal line*
21,1,$1,$2,0,0,$3*%
G04 Aperture macros list end*
%ADD10C,3.000000*%
%ADD11C,1.701800*%
%ADD12C,3.987800*%
%ADD13R,2.550000X2.500000*%
%ADD14RotRect,2.550000X2.500000X159.000000*%
%ADD15C,1.905000*%
%ADD16R,0.900000X1.200000*%
%ADD17R,1.778000X1.778000*%
%ADD18R,1.752600X1.752600*%
%ADD19C,1.752600*%
%ADD20C,1.500000*%
%ADD21O,2.200000X1.600000*%
%ADD22C,3.048000*%
%ADD23RoundRect,0.254000X-0.607235X1.302220X-1.302220X-0.607235X0.607235X-1.302220X1.302220X0.607235X0*%
%ADD24C,2.200000*%
%ADD25RotRect,0.900000X1.200000X339.000000*%
%ADD26RotRect,1.778000X1.778000X339.000000*%
G04 APERTURE END LIST*
D10*
%TO.C,S13*%
X198568500Y-117871500D03*
X204918500Y-115331500D03*
D11*
X207458500Y-120411500D03*
D12*
X202378500Y-120411500D03*
D11*
X197298500Y-120411500D03*
D10*
X199838500Y-115331500D03*
X206188500Y-117871500D03*
D13*
X209463500Y-117871500D03*
X196536500Y-115331500D03*
%TD*%
D10*
%TO.C,S18*%
X217568500Y-102871500D03*
X223918500Y-100331500D03*
D11*
X226458500Y-105411500D03*
D12*
X221378500Y-105411500D03*
D11*
X216298500Y-105411500D03*
D10*
X218838500Y-100331500D03*
X225188500Y-102871500D03*
D13*
X228463500Y-102871500D03*
X215536500Y-100331500D03*
%TD*%
D10*
%TO.C,S7*%
X160568500Y-85871500D03*
X166918500Y-83331500D03*
D11*
X169458500Y-88411500D03*
D12*
X164378500Y-88411500D03*
D11*
X159298500Y-88411500D03*
D10*
X161838500Y-83331500D03*
X168188500Y-85871500D03*
D13*
X171463500Y-85871500D03*
X158536500Y-83331500D03*
%TD*%
D10*
%TO.C,S4*%
X141568500Y-69871500D03*
X147918500Y-67331500D03*
D11*
X150458500Y-72411500D03*
D12*
X145378500Y-72411500D03*
D11*
X140298500Y-72411500D03*
D10*
X142838500Y-67331500D03*
X149188500Y-69871500D03*
D13*
X152463500Y-69871500D03*
X139536500Y-67331500D03*
%TD*%
D10*
%TO.C,S22*%
X236568500Y-105871500D03*
X242918500Y-103331500D03*
D11*
X245458500Y-108411500D03*
D12*
X240378500Y-108411500D03*
D11*
X235298500Y-108411500D03*
D10*
X237838500Y-103331500D03*
X244188500Y-105871500D03*
D13*
X247463500Y-105871500D03*
X234536500Y-103331500D03*
%TD*%
D10*
%TO.C,S11*%
X179568500Y-81871500D03*
X185918500Y-79331500D03*
D11*
X188458500Y-84411500D03*
D12*
X183378500Y-84411500D03*
D11*
X178298500Y-84411500D03*
D10*
X180838500Y-79331500D03*
X187188500Y-81871500D03*
D13*
X190463500Y-81871500D03*
X177536500Y-79331500D03*
%TD*%
D10*
%TO.C,S8*%
X160568500Y-66871500D03*
X166918500Y-64331500D03*
D11*
X169458500Y-69411500D03*
D12*
X164378500Y-69411500D03*
D11*
X159298500Y-69411500D03*
D10*
X161838500Y-64331500D03*
X168188500Y-66871500D03*
D13*
X171463500Y-66871500D03*
X158536500Y-64331500D03*
%TD*%
D10*
%TO.C,S17*%
X217568500Y-121871500D03*
X223918500Y-119331500D03*
D11*
X226458500Y-124411500D03*
D12*
X221378500Y-124411500D03*
D11*
X216298500Y-124411500D03*
D10*
X218838500Y-119331500D03*
X225188500Y-121871500D03*
D13*
X228463500Y-121871500D03*
X215536500Y-119331500D03*
%TD*%
D10*
%TO.C,S12*%
X179568500Y-62871500D03*
X185918500Y-60331500D03*
D11*
X188458500Y-65411500D03*
D12*
X183378500Y-65411500D03*
D11*
X178298500Y-65411500D03*
D10*
X180838500Y-60331500D03*
X187188500Y-62871500D03*
D13*
X190463500Y-62871500D03*
X177536500Y-60331500D03*
%TD*%
D10*
%TO.C,S10*%
X179568500Y-100871500D03*
X185918500Y-98331500D03*
D11*
X188458500Y-103411500D03*
D12*
X183378500Y-103411500D03*
D11*
X178298500Y-103411500D03*
D10*
X180838500Y-98331500D03*
X187188500Y-100871500D03*
D13*
X190463500Y-100871500D03*
X177536500Y-98331500D03*
%TD*%
D10*
%TO.C,S6*%
X160568500Y-104871500D03*
X166918500Y-102331500D03*
D11*
X169458500Y-107411500D03*
D12*
X164378500Y-107411500D03*
D11*
X159298500Y-107411500D03*
D10*
X161838500Y-102331500D03*
X168188500Y-104871500D03*
D13*
X171463500Y-104871500D03*
X158536500Y-102331500D03*
%TD*%
D10*
%TO.C,S2*%
X141568500Y-107871500D03*
X147918500Y-105331500D03*
D11*
X150458500Y-110411500D03*
D12*
X145378500Y-110411500D03*
D11*
X140298500Y-110411500D03*
D10*
X142838500Y-105331500D03*
X149188500Y-107871500D03*
D13*
X152463500Y-107871500D03*
X139536500Y-105331500D03*
%TD*%
D10*
%TO.C,S20*%
X217568500Y-64871500D03*
X223918500Y-62331500D03*
D11*
X226458500Y-67411500D03*
D12*
X221378500Y-67411500D03*
D11*
X216298500Y-67411500D03*
D10*
X218838500Y-62331500D03*
X225188500Y-64871500D03*
D13*
X228463500Y-64871500D03*
X215536500Y-62331500D03*
%TD*%
D10*
%TO.C,S19*%
X217568500Y-83871500D03*
X223918500Y-81331500D03*
D11*
X226458500Y-86411500D03*
D12*
X221378500Y-86411500D03*
D11*
X216298500Y-86411500D03*
D10*
X218838500Y-81331500D03*
X225188500Y-83871500D03*
D13*
X228463500Y-83871500D03*
X215536500Y-81331500D03*
%TD*%
D10*
%TO.C,S15*%
X198568500Y-79871500D03*
X204918500Y-77331500D03*
D11*
X207458500Y-82411500D03*
D12*
X202378500Y-82411500D03*
D11*
X197298500Y-82411500D03*
D10*
X199838500Y-77331500D03*
X206188500Y-79871500D03*
D13*
X209463500Y-79871500D03*
X196536500Y-77331500D03*
%TD*%
D10*
%TO.C,S27*%
X264331813Y-193508598D03*
X271170303Y-193412940D03*
D11*
X271721089Y-199065783D03*
D12*
X266978500Y-197245274D03*
D11*
X262235911Y-195424765D03*
D10*
X266427715Y-191592431D03*
X271445696Y-196239362D03*
D14*
X274503172Y-197413017D03*
X263345032Y-190409100D03*
%TD*%
D10*
%TO.C,S21*%
X236568500Y-124871500D03*
X242918500Y-122331500D03*
D11*
X245458500Y-127411500D03*
D12*
X240378500Y-127411500D03*
D11*
X235298500Y-127411500D03*
D10*
X237838500Y-122331500D03*
X244188500Y-124871500D03*
D13*
X247463500Y-124871500D03*
X234536500Y-122331500D03*
%TD*%
D10*
%TO.C,S9*%
X179568500Y-119871500D03*
X185918500Y-117331500D03*
D11*
X188458500Y-122411500D03*
D12*
X183378500Y-122411500D03*
D11*
X178298500Y-122411500D03*
D10*
X180838500Y-117331500D03*
X187188500Y-119871500D03*
D13*
X190463500Y-119871500D03*
X177536500Y-117331500D03*
%TD*%
D10*
%TO.C,S23*%
X236568500Y-86871500D03*
X242918500Y-84331500D03*
D11*
X245458500Y-89411500D03*
D12*
X240378500Y-89411500D03*
D11*
X235298500Y-89411500D03*
D10*
X237838500Y-84331500D03*
X244188500Y-86871500D03*
D13*
X247463500Y-86871500D03*
X234536500Y-84331500D03*
%TD*%
D10*
%TO.C,S16*%
X198568500Y-60871500D03*
X204918500Y-58331500D03*
D11*
X207458500Y-63411500D03*
D12*
X202378500Y-63411500D03*
D11*
X197298500Y-63411500D03*
D10*
X199838500Y-58331500D03*
X206188500Y-60871500D03*
D13*
X209463500Y-60871500D03*
X196536500Y-58331500D03*
%TD*%
D10*
%TO.C,S5*%
X160568500Y-123871500D03*
X166918500Y-121331500D03*
D11*
X169458500Y-126411500D03*
D12*
X164378500Y-126411500D03*
D11*
X159298500Y-126411500D03*
D10*
X161838500Y-121331500D03*
X168188500Y-123871500D03*
D13*
X171463500Y-123871500D03*
X158536500Y-121331500D03*
%TD*%
D10*
%TO.C,S1*%
X141568500Y-126871500D03*
X147918500Y-124331500D03*
D11*
X150458500Y-129411500D03*
D12*
X145378500Y-129411500D03*
D11*
X140298500Y-129411500D03*
D10*
X142838500Y-124331500D03*
X149188500Y-126871500D03*
D13*
X152463500Y-126871500D03*
X139536500Y-124331500D03*
%TD*%
D10*
%TO.C,S14*%
X198568500Y-98871500D03*
X204918500Y-96331500D03*
D11*
X207458500Y-101411500D03*
D12*
X202378500Y-101411500D03*
D11*
X197298500Y-101411500D03*
D10*
X199838500Y-96331500D03*
X206188500Y-98871500D03*
D13*
X209463500Y-98871500D03*
X196536500Y-96331500D03*
%TD*%
D10*
%TO.C,S3*%
X141568500Y-88871500D03*
X147918500Y-86331500D03*
D11*
X150458500Y-91411500D03*
D12*
X145378500Y-91411500D03*
D11*
X140298500Y-91411500D03*
D10*
X142838500Y-86331500D03*
X149188500Y-88871500D03*
D13*
X152463500Y-88871500D03*
X139536500Y-86331500D03*
%TD*%
D10*
%TO.C,S24*%
X236568500Y-67871500D03*
X242918500Y-65331500D03*
D11*
X245458500Y-70411500D03*
D12*
X240378500Y-70411500D03*
D11*
X235298500Y-70411500D03*
D10*
X237838500Y-65331500D03*
X244188500Y-67871500D03*
D13*
X247463500Y-67871500D03*
X234536500Y-65331500D03*
%TD*%
D15*
%TO.C,D19*%
X225188500Y-94611500D03*
D16*
X219728500Y-94611500D03*
D17*
X217568500Y-94611500D03*
D16*
X223028500Y-94611500D03*
%TD*%
D15*
%TO.C,D4*%
X149188500Y-80611500D03*
D16*
X143728500Y-80611500D03*
X147028500Y-80611500D03*
D17*
X141568500Y-80611500D03*
%TD*%
D15*
%TO.C,D21*%
X244188500Y-135611500D03*
D16*
X238728500Y-135611500D03*
X242028500Y-135611500D03*
D17*
X236568500Y-135611500D03*
%TD*%
D15*
%TO.C,D16*%
X206188500Y-71611500D03*
D16*
X200728500Y-71611500D03*
D17*
X198568500Y-71611500D03*
D16*
X204028500Y-71611500D03*
%TD*%
D18*
%TO.C,MCU1*%
X252758500Y-67441500D03*
D19*
X252758500Y-69981500D03*
X252758500Y-72521500D03*
X252758500Y-75061500D03*
X252758500Y-77601500D03*
X252758500Y-80141500D03*
X252758500Y-82681500D03*
X252758500Y-85221500D03*
X252758500Y-87761500D03*
X252758500Y-90301500D03*
X252758500Y-92841500D03*
X252758500Y-95381500D03*
X267998500Y-67441500D03*
X267998500Y-69981500D03*
X267998500Y-72521500D03*
X267998500Y-75061500D03*
X267998500Y-77601500D03*
X267998500Y-80141500D03*
X267998500Y-82681500D03*
X267998500Y-85221500D03*
X267998500Y-87761500D03*
X267998500Y-90301500D03*
X267998500Y-92841500D03*
X267998500Y-95381500D03*
%TD*%
D15*
%TO.C,D5*%
X168188500Y-134611500D03*
D16*
X162728500Y-134611500D03*
X166028500Y-134611500D03*
D17*
X160568500Y-134611500D03*
%TD*%
D16*
%TO.C,D7*%
X162728500Y-96611500D03*
D15*
X168188500Y-96611500D03*
D16*
X166028500Y-96611500D03*
D17*
X160568500Y-96611500D03*
%TD*%
D16*
%TO.C,D2*%
X143728500Y-118611500D03*
D15*
X149188500Y-118611500D03*
D17*
X141568500Y-118611500D03*
D16*
X147028500Y-118611500D03*
%TD*%
%TO.C,D14*%
X200728500Y-109611500D03*
D15*
X206188500Y-109611500D03*
D17*
X198568500Y-109611500D03*
D16*
X204028500Y-109611500D03*
%TD*%
%TO.C,D20*%
X219728500Y-75611500D03*
D15*
X225188500Y-75611500D03*
D17*
X217568500Y-75611500D03*
D16*
X223028500Y-75611500D03*
%TD*%
D15*
%TO.C,D13*%
X206188500Y-128611500D03*
D16*
X200728500Y-128611500D03*
D17*
X198568500Y-128611500D03*
D16*
X204028500Y-128611500D03*
%TD*%
D20*
%TO.C, *%
X263778500Y-103111500D03*
X270778500Y-103111500D03*
D21*
X261078500Y-105411500D03*
X261078500Y-100811500D03*
X262178500Y-100811500D03*
X262178500Y-105411500D03*
X266178500Y-100811500D03*
X266178500Y-105411500D03*
X269178500Y-100811500D03*
X269178500Y-105411500D03*
%TD*%
D22*
%TO.C,S26*%
X255361152Y-175419816D03*
D12*
X242437230Y-179365530D03*
D22*
X259919799Y-170321499D03*
X256758145Y-184577917D03*
D12*
X250603303Y-156929429D03*
D11*
X256014891Y-166197217D03*
D12*
X254277429Y-170970856D03*
D11*
X252539967Y-175744495D03*
D22*
X264924218Y-162141816D03*
D23*
X261136022Y-166979952D03*
X254144928Y-178761363D03*
%TD*%
D15*
%TO.C,D17*%
X225188500Y-132611500D03*
D16*
X219728500Y-132611500D03*
D17*
X217568500Y-132611500D03*
D16*
X223028500Y-132611500D03*
%TD*%
D15*
%TO.C,D6*%
X168188500Y-115611500D03*
D16*
X162728500Y-115611500D03*
D17*
X160568500Y-115611500D03*
D16*
X166028500Y-115611500D03*
%TD*%
D15*
%TO.C,D18*%
X225188500Y-113611500D03*
D16*
X219728500Y-113611500D03*
X223028500Y-113611500D03*
D17*
X217568500Y-113611500D03*
%TD*%
D15*
%TO.C,D11*%
X187188500Y-92611500D03*
D16*
X181728500Y-92611500D03*
D17*
X179568500Y-92611500D03*
D16*
X185028500Y-92611500D03*
%TD*%
D24*
%TO.C, *%
X269378500Y-113611500D03*
%TD*%
D15*
%TO.C,D22*%
X244188500Y-116611500D03*
D16*
X238728500Y-116611500D03*
X242028500Y-116611500D03*
D17*
X236568500Y-116611500D03*
%TD*%
D24*
%TO.C, *%
X130078500Y-142611500D03*
%TD*%
D15*
%TO.C,D12*%
X187188500Y-73611500D03*
D16*
X181728500Y-73611500D03*
D17*
X179568500Y-73611500D03*
D16*
X185028500Y-73611500D03*
%TD*%
%TO.C,D25*%
X240515570Y-140311500D03*
D15*
X245975570Y-140311500D03*
D16*
X243815570Y-140311500D03*
D17*
X238355570Y-140311500D03*
%TD*%
D15*
%TO.C,D26*%
X267588500Y-148177964D03*
D16*
X262128500Y-148177964D03*
D17*
X259968500Y-148177964D03*
D16*
X265428500Y-148177964D03*
%TD*%
D24*
%TO.C, *%
X277978500Y-208611500D03*
%TD*%
D16*
%TO.C,D15*%
X200728500Y-90611500D03*
D15*
X206188500Y-90611500D03*
D16*
X204028500Y-90611500D03*
D17*
X198568500Y-90611500D03*
%TD*%
D15*
%TO.C,D23*%
X244188500Y-97611500D03*
D16*
X238728500Y-97611500D03*
D17*
X236568500Y-97611500D03*
D16*
X242028500Y-97611500D03*
%TD*%
%TO.C,D24*%
X238728500Y-78611500D03*
D15*
X244188500Y-78611500D03*
D17*
X236568500Y-78611500D03*
D16*
X242028500Y-78611500D03*
%TD*%
D24*
%TO.C, *%
X211378500Y-172311500D03*
%TD*%
D15*
%TO.C,D27*%
X267350154Y-206266016D03*
D25*
X262252805Y-204309327D03*
X265333621Y-205491941D03*
D26*
X260236272Y-203535252D03*
%TD*%
D24*
%TO.C, *%
X130278500Y-65211500D03*
%TD*%
D12*
%TO.C,S25*%
X228990373Y-149062966D03*
D11*
X234401961Y-158330754D03*
D12*
X232664499Y-163104393D03*
X220824300Y-171499067D03*
D22*
X238306869Y-162455036D03*
X235145215Y-176711454D03*
X243311288Y-154275353D03*
X233748222Y-167553353D03*
D11*
X230927037Y-167878032D03*
D23*
X239523092Y-159113489D03*
X232531998Y-170894900D03*
%TD*%
D15*
%TO.C,D8*%
X168188500Y-77611500D03*
D16*
X162728500Y-77611500D03*
D17*
X160568500Y-77611500D03*
D16*
X166028500Y-77611500D03*
%TD*%
%TO.C,D10*%
X181728500Y-111611500D03*
D15*
X187188500Y-111611500D03*
D16*
X185028500Y-111611500D03*
D17*
X179568500Y-111611500D03*
%TD*%
D16*
%TO.C,D9*%
X181728500Y-130611500D03*
D15*
X187188500Y-130611500D03*
D17*
X179568500Y-130611500D03*
D16*
X185028500Y-130611500D03*
%TD*%
%TO.C,D1*%
X143728500Y-137611500D03*
D15*
X149188500Y-137611500D03*
D16*
X147028500Y-137611500D03*
D17*
X141568500Y-137611500D03*
%TD*%
D15*
%TO.C,D3*%
X149188500Y-99611500D03*
D16*
X143728500Y-99611500D03*
D17*
X141568500Y-99611500D03*
D16*
X147028500Y-99611500D03*
%TD*%
D12*
%TO.C,S26*%
X257951555Y-185012283D03*
D11*
X256014891Y-166197217D03*
D22*
X250587513Y-173682354D03*
D12*
X266117628Y-162576182D03*
D22*
X243630640Y-179799896D03*
X250372522Y-166846574D03*
D12*
X254277429Y-170970856D03*
D22*
X251796713Y-157363795D03*
D11*
X252539967Y-175744495D03*
%TD*%
D12*
%TO.C,S25*%
X232664499Y-163104393D03*
X236338625Y-177145820D03*
D11*
X234401961Y-158330754D03*
D22*
X228759592Y-158980111D03*
X222017710Y-171933433D03*
D11*
X230927037Y-167878032D03*
D12*
X244504698Y-154709719D03*
D22*
X228974583Y-165815891D03*
X230183783Y-149497332D03*
%TD*%
M02*
