M48
; DRILL file {KiCad (6.0.8)} date Sat Dec 10 14:26:37 2022
; FORMAT={-:-/ absolute / inch / decimal}
; #@! TF.CreationDate,2022-12-10T14:26:37-07:00
; #@! TF.GenerationSoftware,Kicad,Pcbnew,(6.0.8)
; #@! TF.FileFunction,Plated,1,2,PTH
FMAT,2
INCH
; #@! TA.AperFunction,Plated,PTH,ViaDrill
T1C0.0079
; #@! TA.AperFunction,Plated,PTH,ViaDrill
T2C0.0157
; #@! TA.AperFunction,Plated,PTH,ComponentDrill
T3C0.0354
; #@! TA.AperFunction,Plated,PTH,ComponentDrill
T4C0.0390
; #@! TA.AperFunction,Plated,PTH,ComponentDrill
T5C0.0430
; #@! TA.AperFunction,Plated,PTH,ComponentDrill
T6C0.0610
%
G90
G05
T1
X9.0582Y-6.7012
X9.2495Y-6.1519
X9.6661Y-6.356
X9.9089Y-7.0106
X10.0999Y-6.4615
X10.4669Y-7.926
X10.6527Y-3.1323
T2
X10.196Y-3.1756
X10.2275Y-3.2544
T4
X5.5736Y-3.1737
X5.5736Y-3.9217
X5.5736Y-4.6697
X5.5736Y-5.4178
X5.8736Y-3.1737
X5.8736Y-3.9217
X5.8736Y-4.6697
X5.8736Y-5.4178
X6.3216Y-3.0556
X6.3216Y-3.8036
X6.3216Y-4.5516
X6.3216Y-5.2997
X6.6216Y-3.0556
X6.6216Y-3.8036
X6.6216Y-4.5516
X6.6216Y-5.2997
X7.0696Y-2.8981
X7.0696Y-3.6461
X7.0696Y-4.3942
X7.0696Y-5.1422
X7.3696Y-2.8981
X7.3696Y-3.6461
X7.3696Y-4.3942
X7.3696Y-5.1422
X7.8177Y-2.8194
X7.8177Y-3.5674
X7.8177Y-4.3154
X7.8177Y-5.0634
X8.1177Y-2.8194
X8.1177Y-3.5674
X8.1177Y-4.3154
X8.1177Y-5.0634
X8.5657Y-2.9768
X8.5657Y-3.7249
X8.5657Y-4.4729
X8.5657Y-5.2209
X8.8657Y-2.9768
X8.8657Y-3.7249
X8.8657Y-4.4729
X8.8657Y-5.2209
X9.3137Y-3.0949
X9.3137Y-3.843
X9.3137Y-4.591
X9.3137Y-5.339
X9.3841Y-5.5241
X9.6137Y-3.0949
X9.6137Y-3.843
X9.6137Y-4.591
X9.6137Y-5.339
X9.6841Y-5.5241
X10.235Y-5.8338
X10.2455Y-8.0132
X10.5256Y-8.1207
X10.535Y-5.8338
T5
X9.9511Y-2.6552
X9.9511Y-2.7552
X9.9511Y-2.8552
X9.9511Y-2.9552
X9.9511Y-3.0552
X9.9511Y-3.1552
X9.9511Y-3.2552
X9.9511Y-3.3552
X9.9511Y-3.4552
X9.9511Y-3.5552
X9.9511Y-3.6552
X9.9511Y-3.7552
X10.5511Y-2.6552
X10.5511Y-2.7552
X10.5511Y-2.8552
X10.5511Y-2.9552
X10.5511Y-3.0552
X10.5511Y-3.1552
X10.5511Y-3.2552
X10.5511Y-3.3552
X10.5511Y-3.4552
X10.5511Y-3.5552
X10.5511Y-3.6552
X10.5511Y-3.7552
T6
X5.5736Y-2.7508
X5.5736Y-3.4989
X5.5736Y-4.2469
X5.5736Y-4.9949
X5.6236Y-2.6508
X5.6236Y-3.3989
X5.6236Y-4.1469
X5.6236Y-4.8949
X5.8236Y-2.6508
X5.8236Y-3.3989
X5.8236Y-4.1469
X5.8236Y-4.8949
X5.8736Y-2.7508
X5.8736Y-3.4989
X5.8736Y-4.2469
X5.8736Y-4.9949
X6.3216Y-2.6327
X6.3216Y-3.3808
X6.3216Y-4.1288
X6.3216Y-4.8768
X6.3716Y-2.5327
X6.3716Y-3.2808
X6.3716Y-4.0288
X6.3716Y-4.7768
X6.5716Y-2.5327
X6.5716Y-3.2808
X6.5716Y-4.0288
X6.5716Y-4.7768
X6.6216Y-2.6327
X6.6216Y-3.3808
X6.6216Y-4.1288
X6.6216Y-4.8768
X7.0696Y-2.4753
X7.0696Y-3.2233
X7.0696Y-3.9713
X7.0696Y-4.7194
X7.1196Y-2.3753
X7.1196Y-3.1233
X7.1196Y-3.8713
X7.1196Y-4.6194
X7.3196Y-2.3753
X7.3196Y-3.1233
X7.3196Y-3.8713
X7.3196Y-4.6194
X7.3696Y-2.4753
X7.3696Y-3.2233
X7.3696Y-3.9713
X7.3696Y-4.7194
X7.8177Y-2.3965
X7.8177Y-3.1445
X7.8177Y-3.8926
X7.8177Y-4.6406
X7.8677Y-2.2965
X7.8677Y-3.0445
X7.8677Y-3.7926
X7.8677Y-4.5406
X8.0677Y-2.2965
X8.0677Y-3.0445
X8.0677Y-3.7926
X8.0677Y-4.5406
X8.1177Y-2.3965
X8.1177Y-3.1445
X8.1177Y-3.8926
X8.1177Y-4.6406
X8.5657Y-2.554
X8.5657Y-3.302
X8.5657Y-4.0501
X8.5657Y-4.7981
X8.6157Y-2.454
X8.6157Y-3.202
X8.6157Y-3.9501
X8.6157Y-4.6981
X8.8157Y-2.454
X8.8157Y-3.202
X8.8157Y-3.9501
X8.8157Y-4.6981
X8.8657Y-2.554
X8.8657Y-3.302
X8.8657Y-4.0501
X8.8657Y-4.7981
X9.3137Y-2.6721
X9.3137Y-3.4201
X9.3137Y-4.1682
X9.3137Y-4.9162
X9.3637Y-2.5721
X9.3637Y-3.3201
X9.3637Y-4.0682
X9.3637Y-4.8162
X9.5637Y-2.5721
X9.5637Y-3.3201
X9.5637Y-4.0682
X9.5637Y-4.8162
X9.6137Y-2.6721
X9.6137Y-3.4201
X9.6137Y-4.1682
X9.6137Y-4.9162
X10.4068Y-7.6184
X10.4893Y-7.543
X10.676Y-7.6147
X10.6868Y-7.726
T3
G00X10.2905Y-3.969
M15
G01X10.2669Y-3.969
M16
G05
G00X10.2905Y-4.1501
M15
G01X10.2669Y-4.1501
M16
G05
G00X10.3338Y-3.969
M15
G01X10.3102Y-3.969
M16
G05
G00X10.3338Y-4.1501
M15
G01X10.3102Y-4.1501
M16
G05
G00X10.4913Y-3.969
M15
G01X10.4677Y-3.969
M16
G05
G00X10.4913Y-4.1501
M15
G01X10.4677Y-4.1501
M16
G05
G00X10.6094Y-3.969
M15
G01X10.5858Y-3.969
M16
G05
G00X10.6094Y-4.1501
M15
G01X10.5858Y-4.1501
M16
G05
T0
M30
