%TF.GenerationSoftware,KiCad,Pcbnew,(6.0.8)*%
%TF.CreationDate,2022-12-10T17:49:20-07:00*%
%TF.ProjectId,scaarix_flow,73636161-7269-4785-9f66-6c6f772e6b69,v1.0.0*%
%TF.SameCoordinates,Original*%
%TF.FileFunction,Paste,Top*%
%TF.FilePolarity,Positive*%
%FSLAX46Y46*%
G04 Gerber Fmt 4.6, Leading zero omitted, Abs format (unit mm)*
G04 Created by KiCad (PCBNEW (6.0.8)) date 2022-12-10 17:49:20*
%MOMM*%
%LPD*%
G01*
G04 APERTURE LIST*
G04 Aperture macros list*
%AMRotRect*
0 Rectangle, with rotation*
0 The origin of the aperture is its center*
0 $1 length*
0 $2 width*
0 $3 Rotation angle, in degrees counterclockwise*
0 Add horizontal line*
21,1,$1,$2,0,0,$3*%
G04 Aperture macros list end*
%ADD10R,0.900000X1.200000*%
%ADD11RotRect,0.900000X1.200000X339.000000*%
G04 APERTURE END LIST*
D10*
%TO.C,D19*%
X219728500Y-94611500D03*
X223028500Y-94611500D03*
%TD*%
%TO.C,D4*%
X143728500Y-80611500D03*
X147028500Y-80611500D03*
%TD*%
%TO.C,D21*%
X238728500Y-135611500D03*
X242028500Y-135611500D03*
%TD*%
%TO.C,D16*%
X200728500Y-71611500D03*
X204028500Y-71611500D03*
%TD*%
%TO.C,D5*%
X162728500Y-134611500D03*
X166028500Y-134611500D03*
%TD*%
%TO.C,D7*%
X162728500Y-96611500D03*
X166028500Y-96611500D03*
%TD*%
%TO.C,D2*%
X143728500Y-118611500D03*
X147028500Y-118611500D03*
%TD*%
%TO.C,D14*%
X200728500Y-109611500D03*
X204028500Y-109611500D03*
%TD*%
%TO.C,D20*%
X219728500Y-75611500D03*
X223028500Y-75611500D03*
%TD*%
%TO.C,D13*%
X200728500Y-128611500D03*
X204028500Y-128611500D03*
%TD*%
%TO.C,D17*%
X219728500Y-132611500D03*
X223028500Y-132611500D03*
%TD*%
%TO.C,D6*%
X162728500Y-115611500D03*
X166028500Y-115611500D03*
%TD*%
%TO.C,D18*%
X219728500Y-113611500D03*
X223028500Y-113611500D03*
%TD*%
%TO.C,D11*%
X181728500Y-92611500D03*
X185028500Y-92611500D03*
%TD*%
%TO.C,D22*%
X238728500Y-116611500D03*
X242028500Y-116611500D03*
%TD*%
%TO.C,D12*%
X181728500Y-73611500D03*
X185028500Y-73611500D03*
%TD*%
%TO.C,D25*%
X240515570Y-140311500D03*
X243815570Y-140311500D03*
%TD*%
%TO.C,D26*%
X262128500Y-148177964D03*
X265428500Y-148177964D03*
%TD*%
%TO.C,D15*%
X200728500Y-90611500D03*
X204028500Y-90611500D03*
%TD*%
%TO.C,D23*%
X238728500Y-97611500D03*
X242028500Y-97611500D03*
%TD*%
%TO.C,D24*%
X238728500Y-78611500D03*
X242028500Y-78611500D03*
%TD*%
D11*
%TO.C,D27*%
X262252805Y-204309327D03*
X265333621Y-205491941D03*
%TD*%
D10*
%TO.C,D8*%
X162728500Y-77611500D03*
X166028500Y-77611500D03*
%TD*%
%TO.C,D10*%
X181728500Y-111611500D03*
X185028500Y-111611500D03*
%TD*%
%TO.C,D9*%
X181728500Y-130611500D03*
X185028500Y-130611500D03*
%TD*%
%TO.C,D1*%
X143728500Y-137611500D03*
X147028500Y-137611500D03*
%TD*%
%TO.C,D3*%
X143728500Y-99611500D03*
X147028500Y-99611500D03*
%TD*%
M02*
