%TF.GenerationSoftware,KiCad,Pcbnew,(6.0.8)*%
%TF.CreationDate,2022-12-10T17:49:20-07:00*%
%TF.ProjectId,scaarix_flow,73636161-7269-4785-9f66-6c6f772e6b69,v1.0.0*%
%TF.SameCoordinates,Original*%
%TF.FileFunction,Legend,Bot*%
%TF.FilePolarity,Positive*%
%FSLAX46Y46*%
G04 Gerber Fmt 4.6, Leading zero omitted, Abs format (unit mm)*
G04 Created by KiCad (PCBNEW (6.0.8)) date 2022-12-10 17:49:20*
%MOMM*%
%LPD*%
G01*
G04 APERTURE LIST*
G04 Aperture macros list*
%AMRoundRect*
0 Rectangle with rounded corners*
0 $1 Rounding radius*
0 $2 $3 $4 $5 $6 $7 $8 $9 X,Y pos of 4 corners*
0 Add a 4 corners polygon primitive as box body*
4,1,4,$2,$3,$4,$5,$6,$7,$8,$9,$2,$3,0*
0 Add four circle primitives for the rounded corners*
1,1,$1+$1,$2,$3*
1,1,$1+$1,$4,$5*
1,1,$1+$1,$6,$7*
1,1,$1+$1,$8,$9*
0 Add four rect primitives between the rounded corners*
20,1,$1+$1,$2,$3,$4,$5,0*
20,1,$1+$1,$4,$5,$6,$7,0*
20,1,$1+$1,$6,$7,$8,$9,0*
20,1,$1+$1,$8,$9,$2,$3,0*%
%AMHorizOval*
0 Thick line with rounded ends*
0 $1 width*
0 $2 $3 position (X,Y) of the first rounded end (center of the circle)*
0 $4 $5 position (X,Y) of the second rounded end (center of the circle)*
0 Add line between two ends*
20,1,$1,$2,$3,$4,$5,0*
0 Add two circle primitives to create the rounded ends*
1,1,$1,$2,$3*
1,1,$1,$4,$5*%
%AMRotRect*
0 Rectangle, with rotation*
0 The origin of the aperture is its center*
0 $1 length*
0 $2 width*
0 $3 Rotation angle, in degrees counterclockwise*
0 Add horizontal line*
21,1,$1,$2,0,0,$3*%
G04 Aperture macros list end*
%ADD10C,0.150000*%
%ADD11C,0.120000*%
%ADD12C,0.100000*%
%ADD13R,1.752600X1.752600*%
%ADD14C,1.752600*%
%ADD15C,3.987800*%
%ADD16C,1.701800*%
%ADD17C,2.350000*%
%ADD18HorizOval,2.350000X-0.713917X-1.431895X0.713917X1.431895X0*%
%ADD19HorizOval,2.350000X-0.713917X1.431895X0.713917X-1.431895X0*%
%ADD20C,1.905000*%
%ADD21R,0.900000X1.200000*%
%ADD22R,1.778000X1.778000*%
%ADD23C,1.500000*%
%ADD24O,2.200000X1.600000*%
%ADD25C,3.048000*%
%ADD26HorizOval,2.350000X-1.179644X-1.080944X1.179644X1.080944X0*%
%ADD27HorizOval,2.350000X-0.153353X1.592634X0.153353X-1.592634X0*%
%ADD28C,2.200000*%
%ADD29RotRect,0.900000X1.200000X339.000000*%
%ADD30RotRect,1.778000X1.778000X339.000000*%
%ADD31RoundRect,0.254000X-0.607235X1.302220X-1.302220X-0.607235X0.607235X-1.302220X1.302220X0.607235X0*%
G04 APERTURE END LIST*
D10*
%TO.C,MCU1*%
X266170205Y-95733270D02*
X266170205Y-94933270D01*
X265865443Y-94933270D01*
X265789253Y-94971366D01*
X265751157Y-95009461D01*
X265713062Y-95085651D01*
X265713062Y-95199937D01*
X265751157Y-95276127D01*
X265789253Y-95314223D01*
X265865443Y-95352318D01*
X266170205Y-95352318D01*
X265217824Y-94933270D02*
X265141634Y-94933270D01*
X265065443Y-94971366D01*
X265027348Y-95009461D01*
X264989253Y-95085651D01*
X264951157Y-95238032D01*
X264951157Y-95428508D01*
X264989253Y-95580889D01*
X265027348Y-95657080D01*
X265065443Y-95695175D01*
X265141634Y-95733270D01*
X265217824Y-95733270D01*
X265294015Y-95695175D01*
X265332110Y-95657080D01*
X265370205Y-95580889D01*
X265408300Y-95428508D01*
X265408300Y-95238032D01*
X265370205Y-95085651D01*
X265332110Y-95009461D01*
X265294015Y-94971366D01*
X265217824Y-94933270D01*
X264570205Y-95733270D02*
X264417824Y-95733270D01*
X264341634Y-95695175D01*
X264303538Y-95657080D01*
X264227348Y-95542794D01*
X264189253Y-95390413D01*
X264189253Y-95085651D01*
X264227348Y-95009461D01*
X264265443Y-94971366D01*
X264341634Y-94933270D01*
X264494015Y-94933270D01*
X264570205Y-94971366D01*
X264608300Y-95009461D01*
X264646396Y-95085651D01*
X264646396Y-95276127D01*
X264608300Y-95352318D01*
X264570205Y-95390413D01*
X264494015Y-95428508D01*
X264341634Y-95428508D01*
X264265443Y-95390413D01*
X264227348Y-95352318D01*
X264189253Y-95276127D01*
X256133935Y-67787991D02*
X256400602Y-67407039D01*
X256591078Y-67787991D02*
X256591078Y-66987991D01*
X256286316Y-66987991D01*
X256210126Y-67026087D01*
X256172031Y-67064182D01*
X256133935Y-67140372D01*
X256133935Y-67254658D01*
X256172031Y-67330848D01*
X256210126Y-67368944D01*
X256286316Y-67407039D01*
X256591078Y-67407039D01*
X255829174Y-67559420D02*
X255448221Y-67559420D01*
X255905364Y-67787991D02*
X255638697Y-66987991D01*
X255372031Y-67787991D01*
X255181555Y-66987991D02*
X254991078Y-67787991D01*
X254838697Y-67216563D01*
X254686316Y-67787991D01*
X254495840Y-66987991D01*
X256552983Y-77943138D02*
X256552983Y-77143138D01*
X256248221Y-77143138D01*
X256172031Y-77181234D01*
X256133935Y-77219329D01*
X256095840Y-77295519D01*
X256095840Y-77409805D01*
X256133935Y-77485995D01*
X256172031Y-77524091D01*
X256248221Y-77562186D01*
X256552983Y-77562186D01*
X255791078Y-77219329D02*
X255752983Y-77181234D01*
X255676793Y-77143138D01*
X255486316Y-77143138D01*
X255410126Y-77181234D01*
X255372031Y-77219329D01*
X255333935Y-77295519D01*
X255333935Y-77371710D01*
X255372031Y-77485995D01*
X255829174Y-77943138D01*
X255333935Y-77943138D01*
X254572031Y-77943138D02*
X255029174Y-77943138D01*
X254800602Y-77943138D02*
X254800602Y-77143138D01*
X254876793Y-77257424D01*
X254952983Y-77333614D01*
X255029174Y-77371710D01*
X256552983Y-80488417D02*
X256552983Y-79688417D01*
X256248221Y-79688417D01*
X256172031Y-79726513D01*
X256133935Y-79764608D01*
X256095840Y-79840798D01*
X256095840Y-79955084D01*
X256133935Y-80031274D01*
X256172031Y-80069370D01*
X256248221Y-80107465D01*
X256552983Y-80107465D01*
X255791078Y-79764608D02*
X255752983Y-79726513D01*
X255676793Y-79688417D01*
X255486316Y-79688417D01*
X255410126Y-79726513D01*
X255372031Y-79764608D01*
X255333935Y-79840798D01*
X255333935Y-79916989D01*
X255372031Y-80031274D01*
X255829174Y-80488417D01*
X255333935Y-80488417D01*
X254838697Y-79688417D02*
X254762507Y-79688417D01*
X254686316Y-79726513D01*
X254648221Y-79764608D01*
X254610126Y-79840798D01*
X254572031Y-79993179D01*
X254572031Y-80183655D01*
X254610126Y-80336036D01*
X254648221Y-80412227D01*
X254686316Y-80450322D01*
X254762507Y-80488417D01*
X254838697Y-80488417D01*
X254914888Y-80450322D01*
X254952983Y-80412227D01*
X254991078Y-80336036D01*
X255029174Y-80183655D01*
X255029174Y-79993179D01*
X254991078Y-79840798D01*
X254952983Y-79764608D01*
X254914888Y-79726513D01*
X254838697Y-79688417D01*
X266149928Y-67803404D02*
X266149928Y-67003404D01*
X265845166Y-67003404D01*
X265768976Y-67041500D01*
X265730880Y-67079595D01*
X265692785Y-67155785D01*
X265692785Y-67270071D01*
X265730880Y-67346261D01*
X265768976Y-67384357D01*
X265845166Y-67422452D01*
X266149928Y-67422452D01*
X265197547Y-67003404D02*
X265121357Y-67003404D01*
X265045166Y-67041500D01*
X265007071Y-67079595D01*
X264968976Y-67155785D01*
X264930880Y-67308166D01*
X264930880Y-67498642D01*
X264968976Y-67651023D01*
X265007071Y-67727214D01*
X265045166Y-67765309D01*
X265121357Y-67803404D01*
X265197547Y-67803404D01*
X265273738Y-67765309D01*
X265311833Y-67727214D01*
X265349928Y-67651023D01*
X265388023Y-67498642D01*
X265388023Y-67308166D01*
X265349928Y-67155785D01*
X265311833Y-67079595D01*
X265273738Y-67041500D01*
X265197547Y-67003404D01*
X264168976Y-67803404D02*
X264626119Y-67803404D01*
X264397547Y-67803404D02*
X264397547Y-67003404D01*
X264473738Y-67117690D01*
X264549928Y-67193880D01*
X264626119Y-67231976D01*
X265808300Y-74661075D02*
X265884491Y-74622979D01*
X265998777Y-74622979D01*
X266113062Y-74661075D01*
X266189253Y-74737265D01*
X266227348Y-74813455D01*
X266265443Y-74965836D01*
X266265443Y-75080122D01*
X266227348Y-75232503D01*
X266189253Y-75308694D01*
X266113062Y-75384884D01*
X265998777Y-75422979D01*
X265922586Y-75422979D01*
X265808300Y-75384884D01*
X265770205Y-75346789D01*
X265770205Y-75080122D01*
X265922586Y-75080122D01*
X265427348Y-75422979D02*
X265427348Y-74622979D01*
X264970205Y-75422979D01*
X264970205Y-74622979D01*
X264589253Y-75422979D02*
X264589253Y-74622979D01*
X264398777Y-74622979D01*
X264284491Y-74661075D01*
X264208300Y-74737265D01*
X264170205Y-74813455D01*
X264132110Y-74965836D01*
X264132110Y-75080122D01*
X264170205Y-75232503D01*
X264208300Y-75308694D01*
X264284491Y-75384884D01*
X264398777Y-75422979D01*
X264589253Y-75422979D01*
X266170205Y-83032844D02*
X266170205Y-82232844D01*
X265865443Y-82232844D01*
X265789253Y-82270940D01*
X265751157Y-82309035D01*
X265713062Y-82385225D01*
X265713062Y-82499511D01*
X265751157Y-82575701D01*
X265789253Y-82613797D01*
X265865443Y-82651892D01*
X266170205Y-82651892D01*
X265217824Y-82232844D02*
X265141634Y-82232844D01*
X265065443Y-82270940D01*
X265027348Y-82309035D01*
X264989253Y-82385225D01*
X264951157Y-82537606D01*
X264951157Y-82728082D01*
X264989253Y-82880463D01*
X265027348Y-82956654D01*
X265065443Y-82994749D01*
X265141634Y-83032844D01*
X265217824Y-83032844D01*
X265294015Y-82994749D01*
X265332110Y-82956654D01*
X265370205Y-82880463D01*
X265408300Y-82728082D01*
X265408300Y-82537606D01*
X265370205Y-82385225D01*
X265332110Y-82309035D01*
X265294015Y-82270940D01*
X265217824Y-82232844D01*
X264265443Y-82499511D02*
X264265443Y-83032844D01*
X264455919Y-82194749D02*
X264646396Y-82766178D01*
X264151157Y-82766178D01*
X266170205Y-88123403D02*
X266170205Y-87323403D01*
X265865443Y-87323403D01*
X265789253Y-87361499D01*
X265751157Y-87399594D01*
X265713062Y-87475784D01*
X265713062Y-87590070D01*
X265751157Y-87666260D01*
X265789253Y-87704356D01*
X265865443Y-87742451D01*
X266170205Y-87742451D01*
X265217824Y-87323403D02*
X265141634Y-87323403D01*
X265065443Y-87361499D01*
X265027348Y-87399594D01*
X264989253Y-87475784D01*
X264951157Y-87628165D01*
X264951157Y-87818641D01*
X264989253Y-87971022D01*
X265027348Y-88047213D01*
X265065443Y-88085308D01*
X265141634Y-88123403D01*
X265217824Y-88123403D01*
X265294015Y-88085308D01*
X265332110Y-88047213D01*
X265370205Y-87971022D01*
X265408300Y-87818641D01*
X265408300Y-87628165D01*
X265370205Y-87475784D01*
X265332110Y-87399594D01*
X265294015Y-87361499D01*
X265217824Y-87323403D01*
X264265443Y-87323403D02*
X264417824Y-87323403D01*
X264494015Y-87361499D01*
X264532110Y-87399594D01*
X264608300Y-87513879D01*
X264646396Y-87666260D01*
X264646396Y-87971022D01*
X264608300Y-88047213D01*
X264570205Y-88085308D01*
X264494015Y-88123403D01*
X264341634Y-88123403D01*
X264265443Y-88085308D01*
X264227348Y-88047213D01*
X264189253Y-87971022D01*
X264189253Y-87780546D01*
X264227348Y-87704356D01*
X264265443Y-87666260D01*
X264341634Y-87628165D01*
X264494015Y-87628165D01*
X264570205Y-87666260D01*
X264608300Y-87704356D01*
X264646396Y-87780546D01*
X256552983Y-85578975D02*
X256552983Y-84778975D01*
X256248221Y-84778975D01*
X256172031Y-84817071D01*
X256133935Y-84855166D01*
X256095840Y-84931356D01*
X256095840Y-85045642D01*
X256133935Y-85121832D01*
X256172031Y-85159928D01*
X256248221Y-85198023D01*
X256552983Y-85198023D01*
X255333935Y-85578975D02*
X255791078Y-85578975D01*
X255562507Y-85578975D02*
X255562507Y-84778975D01*
X255638697Y-84893261D01*
X255714888Y-84969451D01*
X255791078Y-85007547D01*
X254876793Y-85121832D02*
X254952983Y-85083737D01*
X254991078Y-85045642D01*
X255029174Y-84969451D01*
X255029174Y-84931356D01*
X254991078Y-84855166D01*
X254952983Y-84817071D01*
X254876793Y-84778975D01*
X254724412Y-84778975D01*
X254648221Y-84817071D01*
X254610126Y-84855166D01*
X254572031Y-84931356D01*
X254572031Y-84969451D01*
X254610126Y-85045642D01*
X254648221Y-85083737D01*
X254724412Y-85121832D01*
X254876793Y-85121832D01*
X254952983Y-85159928D01*
X254991078Y-85198023D01*
X255029174Y-85274213D01*
X255029174Y-85426594D01*
X254991078Y-85502785D01*
X254952983Y-85540880D01*
X254876793Y-85578975D01*
X254724412Y-85578975D01*
X254648221Y-85540880D01*
X254610126Y-85502785D01*
X254572031Y-85426594D01*
X254572031Y-85274213D01*
X254610126Y-85198023D01*
X254648221Y-85159928D01*
X254724412Y-85121832D01*
X256552983Y-95734122D02*
X256552983Y-94934122D01*
X256248221Y-94934122D01*
X256172031Y-94972218D01*
X256133935Y-95010313D01*
X256095840Y-95086503D01*
X256095840Y-95200789D01*
X256133935Y-95276979D01*
X256172031Y-95315075D01*
X256248221Y-95353170D01*
X256552983Y-95353170D01*
X255333935Y-95734122D02*
X255791078Y-95734122D01*
X255562507Y-95734122D02*
X255562507Y-94934122D01*
X255638697Y-95048408D01*
X255714888Y-95124598D01*
X255791078Y-95162694D01*
X254838697Y-94934122D02*
X254762507Y-94934122D01*
X254686316Y-94972218D01*
X254648221Y-95010313D01*
X254610126Y-95086503D01*
X254572031Y-95238884D01*
X254572031Y-95429360D01*
X254610126Y-95581741D01*
X254648221Y-95657932D01*
X254686316Y-95696027D01*
X254762507Y-95734122D01*
X254838697Y-95734122D01*
X254914888Y-95696027D01*
X254952983Y-95657932D01*
X254991078Y-95581741D01*
X255029174Y-95429360D01*
X255029174Y-95238884D01*
X254991078Y-95086503D01*
X254952983Y-95010313D01*
X254914888Y-94972218D01*
X254838697Y-94934122D01*
X266170205Y-80487566D02*
X266170205Y-79687566D01*
X265865443Y-79687566D01*
X265789253Y-79725662D01*
X265751157Y-79763757D01*
X265713062Y-79839947D01*
X265713062Y-79954233D01*
X265751157Y-80030423D01*
X265789253Y-80068519D01*
X265865443Y-80106614D01*
X266170205Y-80106614D01*
X265217824Y-79687566D02*
X265141634Y-79687566D01*
X265065443Y-79725662D01*
X265027348Y-79763757D01*
X264989253Y-79839947D01*
X264951157Y-79992328D01*
X264951157Y-80182804D01*
X264989253Y-80335185D01*
X265027348Y-80411376D01*
X265065443Y-80449471D01*
X265141634Y-80487566D01*
X265217824Y-80487566D01*
X265294015Y-80449471D01*
X265332110Y-80411376D01*
X265370205Y-80335185D01*
X265408300Y-80182804D01*
X265408300Y-79992328D01*
X265370205Y-79839947D01*
X265332110Y-79763757D01*
X265294015Y-79725662D01*
X265217824Y-79687566D01*
X264684491Y-79687566D02*
X264189253Y-79687566D01*
X264455919Y-79992328D01*
X264341634Y-79992328D01*
X264265443Y-80030423D01*
X264227348Y-80068519D01*
X264189253Y-80144709D01*
X264189253Y-80335185D01*
X264227348Y-80411376D01*
X264265443Y-80449471D01*
X264341634Y-80487566D01*
X264570205Y-80487566D01*
X264646396Y-80449471D01*
X264684491Y-80411376D01*
X256552983Y-93188842D02*
X256552983Y-92388842D01*
X256248221Y-92388842D01*
X256172031Y-92426938D01*
X256133935Y-92465033D01*
X256095840Y-92541223D01*
X256095840Y-92655509D01*
X256133935Y-92731699D01*
X256172031Y-92769795D01*
X256248221Y-92807890D01*
X256552983Y-92807890D01*
X255333935Y-93188842D02*
X255791078Y-93188842D01*
X255562507Y-93188842D02*
X255562507Y-92388842D01*
X255638697Y-92503128D01*
X255714888Y-92579318D01*
X255791078Y-92617414D01*
X254648221Y-92388842D02*
X254800602Y-92388842D01*
X254876793Y-92426938D01*
X254914888Y-92465033D01*
X254991078Y-92579318D01*
X255029174Y-92731699D01*
X255029174Y-93036461D01*
X254991078Y-93112652D01*
X254952983Y-93150747D01*
X254876793Y-93188842D01*
X254724412Y-93188842D01*
X254648221Y-93150747D01*
X254610126Y-93112652D01*
X254572031Y-93036461D01*
X254572031Y-92845985D01*
X254610126Y-92769795D01*
X254648221Y-92731699D01*
X254724412Y-92693604D01*
X254876793Y-92693604D01*
X254952983Y-92731699D01*
X254991078Y-92769795D01*
X255029174Y-92845985D01*
X256552983Y-90643562D02*
X256552983Y-89843562D01*
X256248221Y-89843562D01*
X256172031Y-89881658D01*
X256133935Y-89919753D01*
X256095840Y-89995943D01*
X256095840Y-90110229D01*
X256133935Y-90186419D01*
X256172031Y-90224515D01*
X256248221Y-90262610D01*
X256552983Y-90262610D01*
X255333935Y-90643562D02*
X255791078Y-90643562D01*
X255562507Y-90643562D02*
X255562507Y-89843562D01*
X255638697Y-89957848D01*
X255714888Y-90034038D01*
X255791078Y-90072134D01*
X254648221Y-90110229D02*
X254648221Y-90643562D01*
X254838697Y-89805467D02*
X255029174Y-90376896D01*
X254533935Y-90376896D01*
X266170205Y-77942286D02*
X266170205Y-77142286D01*
X265865443Y-77142286D01*
X265789253Y-77180382D01*
X265751157Y-77218477D01*
X265713062Y-77294667D01*
X265713062Y-77408953D01*
X265751157Y-77485143D01*
X265789253Y-77523239D01*
X265865443Y-77561334D01*
X266170205Y-77561334D01*
X265217824Y-77142286D02*
X265141634Y-77142286D01*
X265065443Y-77180382D01*
X265027348Y-77218477D01*
X264989253Y-77294667D01*
X264951157Y-77447048D01*
X264951157Y-77637524D01*
X264989253Y-77789905D01*
X265027348Y-77866096D01*
X265065443Y-77904191D01*
X265141634Y-77942286D01*
X265217824Y-77942286D01*
X265294015Y-77904191D01*
X265332110Y-77866096D01*
X265370205Y-77789905D01*
X265408300Y-77637524D01*
X265408300Y-77447048D01*
X265370205Y-77294667D01*
X265332110Y-77218477D01*
X265294015Y-77180382D01*
X265217824Y-77142286D01*
X264646396Y-77218477D02*
X264608300Y-77180382D01*
X264532110Y-77142286D01*
X264341634Y-77142286D01*
X264265443Y-77180382D01*
X264227348Y-77218477D01*
X264189253Y-77294667D01*
X264189253Y-77370858D01*
X264227348Y-77485143D01*
X264684491Y-77942286D01*
X264189253Y-77942286D01*
X265808300Y-72115795D02*
X265884491Y-72077699D01*
X265998777Y-72077699D01*
X266113062Y-72115795D01*
X266189253Y-72191985D01*
X266227348Y-72268175D01*
X266265443Y-72420556D01*
X266265443Y-72534842D01*
X266227348Y-72687223D01*
X266189253Y-72763414D01*
X266113062Y-72839604D01*
X265998777Y-72877699D01*
X265922586Y-72877699D01*
X265808300Y-72839604D01*
X265770205Y-72801509D01*
X265770205Y-72534842D01*
X265922586Y-72534842D01*
X265427348Y-72877699D02*
X265427348Y-72077699D01*
X264970205Y-72877699D01*
X264970205Y-72077699D01*
X264589253Y-72877699D02*
X264589253Y-72077699D01*
X264398777Y-72077699D01*
X264284491Y-72115795D01*
X264208300Y-72191985D01*
X264170205Y-72268175D01*
X264132110Y-72420556D01*
X264132110Y-72534842D01*
X264170205Y-72687223D01*
X264208300Y-72763414D01*
X264284491Y-72839604D01*
X264398777Y-72877699D01*
X264589253Y-72877699D01*
X266170205Y-93187990D02*
X266170205Y-92387990D01*
X265865443Y-92387990D01*
X265789253Y-92426086D01*
X265751157Y-92464181D01*
X265713062Y-92540371D01*
X265713062Y-92654657D01*
X265751157Y-92730847D01*
X265789253Y-92768943D01*
X265865443Y-92807038D01*
X266170205Y-92807038D01*
X265217824Y-92387990D02*
X265141634Y-92387990D01*
X265065443Y-92426086D01*
X265027348Y-92464181D01*
X264989253Y-92540371D01*
X264951157Y-92692752D01*
X264951157Y-92883228D01*
X264989253Y-93035609D01*
X265027348Y-93111800D01*
X265065443Y-93149895D01*
X265141634Y-93187990D01*
X265217824Y-93187990D01*
X265294015Y-93149895D01*
X265332110Y-93111800D01*
X265370205Y-93035609D01*
X265408300Y-92883228D01*
X265408300Y-92692752D01*
X265370205Y-92540371D01*
X265332110Y-92464181D01*
X265294015Y-92426086D01*
X265217824Y-92387990D01*
X264494015Y-92730847D02*
X264570205Y-92692752D01*
X264608300Y-92654657D01*
X264646396Y-92578466D01*
X264646396Y-92540371D01*
X264608300Y-92464181D01*
X264570205Y-92426086D01*
X264494015Y-92387990D01*
X264341634Y-92387990D01*
X264265443Y-92426086D01*
X264227348Y-92464181D01*
X264189253Y-92540371D01*
X264189253Y-92578466D01*
X264227348Y-92654657D01*
X264265443Y-92692752D01*
X264341634Y-92730847D01*
X264494015Y-92730847D01*
X264570205Y-92768943D01*
X264608300Y-92807038D01*
X264646396Y-92883228D01*
X264646396Y-93035609D01*
X264608300Y-93111800D01*
X264570205Y-93149895D01*
X264494015Y-93187990D01*
X264341634Y-93187990D01*
X264265443Y-93149895D01*
X264227348Y-93111800D01*
X264189253Y-93035609D01*
X264189253Y-92883228D01*
X264227348Y-92807038D01*
X264265443Y-92768943D01*
X264341634Y-92730847D01*
X256552983Y-88098283D02*
X256552983Y-87298283D01*
X256248221Y-87298283D01*
X256172031Y-87336379D01*
X256133935Y-87374474D01*
X256095840Y-87450664D01*
X256095840Y-87564950D01*
X256133935Y-87641140D01*
X256172031Y-87679236D01*
X256248221Y-87717331D01*
X256552983Y-87717331D01*
X255333935Y-88098283D02*
X255791078Y-88098283D01*
X255562507Y-88098283D02*
X255562507Y-87298283D01*
X255638697Y-87412569D01*
X255714888Y-87488759D01*
X255791078Y-87526855D01*
X254610126Y-87298283D02*
X254991078Y-87298283D01*
X255029174Y-87679236D01*
X254991078Y-87641140D01*
X254914888Y-87603045D01*
X254724412Y-87603045D01*
X254648221Y-87641140D01*
X254610126Y-87679236D01*
X254572031Y-87755426D01*
X254572031Y-87945902D01*
X254610126Y-88022093D01*
X254648221Y-88060188D01*
X254724412Y-88098283D01*
X254914888Y-88098283D01*
X254991078Y-88060188D01*
X255029174Y-88022093D01*
X256552983Y-83033696D02*
X256552983Y-82233696D01*
X256248221Y-82233696D01*
X256172031Y-82271792D01*
X256133935Y-82309887D01*
X256095840Y-82386077D01*
X256095840Y-82500363D01*
X256133935Y-82576553D01*
X256172031Y-82614649D01*
X256248221Y-82652744D01*
X256552983Y-82652744D01*
X255333935Y-83033696D02*
X255791078Y-83033696D01*
X255562507Y-83033696D02*
X255562507Y-82233696D01*
X255638697Y-82347982D01*
X255714888Y-82424172D01*
X255791078Y-82462268D01*
X254952983Y-83033696D02*
X254800602Y-83033696D01*
X254724412Y-82995601D01*
X254686316Y-82957506D01*
X254610126Y-82843220D01*
X254572031Y-82690839D01*
X254572031Y-82386077D01*
X254610126Y-82309887D01*
X254648221Y-82271792D01*
X254724412Y-82233696D01*
X254876793Y-82233696D01*
X254952983Y-82271792D01*
X254991078Y-82309887D01*
X255029174Y-82386077D01*
X255029174Y-82576553D01*
X254991078Y-82652744D01*
X254952983Y-82690839D01*
X254876793Y-82728934D01*
X254724412Y-82728934D01*
X254648221Y-82690839D01*
X254610126Y-82652744D01*
X254572031Y-82576553D01*
X256191078Y-69571367D02*
X256267269Y-69533271D01*
X256381555Y-69533271D01*
X256495840Y-69571367D01*
X256572031Y-69647557D01*
X256610126Y-69723747D01*
X256648221Y-69876128D01*
X256648221Y-69990414D01*
X256610126Y-70142795D01*
X256572031Y-70218986D01*
X256495840Y-70295176D01*
X256381555Y-70333271D01*
X256305364Y-70333271D01*
X256191078Y-70295176D01*
X256152983Y-70257081D01*
X256152983Y-69990414D01*
X256305364Y-69990414D01*
X255810126Y-70333271D02*
X255810126Y-69533271D01*
X255352983Y-70333271D01*
X255352983Y-69533271D01*
X254972031Y-70333271D02*
X254972031Y-69533271D01*
X254781555Y-69533271D01*
X254667269Y-69571367D01*
X254591078Y-69647557D01*
X254552983Y-69723747D01*
X254514888Y-69876128D01*
X254514888Y-69990414D01*
X254552983Y-70142795D01*
X254591078Y-70218986D01*
X254667269Y-70295176D01*
X254781555Y-70333271D01*
X254972031Y-70333271D01*
X266170205Y-90642711D02*
X266170205Y-89842711D01*
X265865443Y-89842711D01*
X265789253Y-89880807D01*
X265751157Y-89918902D01*
X265713062Y-89995092D01*
X265713062Y-90109378D01*
X265751157Y-90185568D01*
X265789253Y-90223664D01*
X265865443Y-90261759D01*
X266170205Y-90261759D01*
X265217824Y-89842711D02*
X265141634Y-89842711D01*
X265065443Y-89880807D01*
X265027348Y-89918902D01*
X264989253Y-89995092D01*
X264951157Y-90147473D01*
X264951157Y-90337949D01*
X264989253Y-90490330D01*
X265027348Y-90566521D01*
X265065443Y-90604616D01*
X265141634Y-90642711D01*
X265217824Y-90642711D01*
X265294015Y-90604616D01*
X265332110Y-90566521D01*
X265370205Y-90490330D01*
X265408300Y-90337949D01*
X265408300Y-90147473D01*
X265370205Y-89995092D01*
X265332110Y-89918902D01*
X265294015Y-89880807D01*
X265217824Y-89842711D01*
X264684491Y-89842711D02*
X264151157Y-89842711D01*
X264494015Y-90642711D01*
X256648221Y-74597858D02*
X256381555Y-75397858D01*
X256114888Y-74597858D01*
X255391078Y-75321668D02*
X255429174Y-75359763D01*
X255543459Y-75397858D01*
X255619650Y-75397858D01*
X255733935Y-75359763D01*
X255810126Y-75283573D01*
X255848221Y-75207382D01*
X255886316Y-75055001D01*
X255886316Y-74940715D01*
X255848221Y-74788334D01*
X255810126Y-74712144D01*
X255733935Y-74635954D01*
X255619650Y-74597858D01*
X255543459Y-74597858D01*
X255429174Y-74635954D01*
X255391078Y-74674049D01*
X254591078Y-75321668D02*
X254629174Y-75359763D01*
X254743459Y-75397858D01*
X254819650Y-75397858D01*
X254933935Y-75359763D01*
X255010126Y-75283573D01*
X255048221Y-75207382D01*
X255086316Y-75055001D01*
X255086316Y-74940715D01*
X255048221Y-74788334D01*
X255010126Y-74712144D01*
X254933935Y-74635954D01*
X254819650Y-74597858D01*
X254743459Y-74597858D01*
X254629174Y-74635954D01*
X254591078Y-74674049D01*
X256019650Y-72878551D02*
X256286316Y-72497599D01*
X256476793Y-72878551D02*
X256476793Y-72078551D01*
X256172031Y-72078551D01*
X256095840Y-72116647D01*
X256057745Y-72154742D01*
X256019650Y-72230932D01*
X256019650Y-72345218D01*
X256057745Y-72421408D01*
X256095840Y-72459504D01*
X256172031Y-72497599D01*
X256476793Y-72497599D01*
X255714888Y-72840456D02*
X255600602Y-72878551D01*
X255410126Y-72878551D01*
X255333935Y-72840456D01*
X255295840Y-72802361D01*
X255257745Y-72726170D01*
X255257745Y-72649980D01*
X255295840Y-72573789D01*
X255333935Y-72535694D01*
X255410126Y-72497599D01*
X255562507Y-72459504D01*
X255638697Y-72421408D01*
X255676793Y-72383313D01*
X255714888Y-72307123D01*
X255714888Y-72230932D01*
X255676793Y-72154742D01*
X255638697Y-72116647D01*
X255562507Y-72078551D01*
X255372031Y-72078551D01*
X255257745Y-72116647D01*
X255029174Y-72078551D02*
X254572031Y-72078551D01*
X254800602Y-72878551D02*
X254800602Y-72078551D01*
X266170205Y-70332420D02*
X266170205Y-69532420D01*
X265865443Y-69532420D01*
X265789253Y-69570516D01*
X265751157Y-69608611D01*
X265713062Y-69684801D01*
X265713062Y-69799087D01*
X265751157Y-69875277D01*
X265789253Y-69913373D01*
X265865443Y-69951468D01*
X266170205Y-69951468D01*
X265217824Y-69532420D02*
X265141634Y-69532420D01*
X265065443Y-69570516D01*
X265027348Y-69608611D01*
X264989253Y-69684801D01*
X264951157Y-69837182D01*
X264951157Y-70027658D01*
X264989253Y-70180039D01*
X265027348Y-70256230D01*
X265065443Y-70294325D01*
X265141634Y-70332420D01*
X265217824Y-70332420D01*
X265294015Y-70294325D01*
X265332110Y-70256230D01*
X265370205Y-70180039D01*
X265408300Y-70027658D01*
X265408300Y-69837182D01*
X265370205Y-69684801D01*
X265332110Y-69608611D01*
X265294015Y-69570516D01*
X265217824Y-69532420D01*
X264455919Y-69532420D02*
X264379729Y-69532420D01*
X264303538Y-69570516D01*
X264265443Y-69608611D01*
X264227348Y-69684801D01*
X264189253Y-69837182D01*
X264189253Y-70027658D01*
X264227348Y-70180039D01*
X264265443Y-70256230D01*
X264303538Y-70294325D01*
X264379729Y-70332420D01*
X264455919Y-70332420D01*
X264532110Y-70294325D01*
X264570205Y-70256230D01*
X264608300Y-70180039D01*
X264646396Y-70027658D01*
X264646396Y-69837182D01*
X264608300Y-69684801D01*
X264570205Y-69608611D01*
X264532110Y-69570516D01*
X264455919Y-69532420D01*
X266149928Y-85583404D02*
X266149928Y-84783404D01*
X265845166Y-84783404D01*
X265768976Y-84821500D01*
X265730880Y-84859595D01*
X265692785Y-84935785D01*
X265692785Y-85050071D01*
X265730880Y-85126261D01*
X265768976Y-85164357D01*
X265845166Y-85202452D01*
X266149928Y-85202452D01*
X265197547Y-84783404D02*
X265121357Y-84783404D01*
X265045166Y-84821500D01*
X265007071Y-84859595D01*
X264968976Y-84935785D01*
X264930880Y-85088166D01*
X264930880Y-85278642D01*
X264968976Y-85431023D01*
X265007071Y-85507214D01*
X265045166Y-85545309D01*
X265121357Y-85583404D01*
X265197547Y-85583404D01*
X265273738Y-85545309D01*
X265311833Y-85507214D01*
X265349928Y-85431023D01*
X265388023Y-85278642D01*
X265388023Y-85088166D01*
X265349928Y-84935785D01*
X265311833Y-84859595D01*
X265273738Y-84821500D01*
X265197547Y-84783404D01*
X264207071Y-84783404D02*
X264588023Y-84783404D01*
X264626119Y-85164357D01*
X264588023Y-85126261D01*
X264511833Y-85088166D01*
X264321357Y-85088166D01*
X264245166Y-85126261D01*
X264207071Y-85164357D01*
X264168976Y-85240547D01*
X264168976Y-85431023D01*
X264207071Y-85507214D01*
X264245166Y-85545309D01*
X264321357Y-85583404D01*
X264511833Y-85583404D01*
X264588023Y-85545309D01*
X264626119Y-85507214D01*
%TO.C, *%
X269142847Y-102462252D02*
X268571419Y-102462252D01*
X268857133Y-103462252D02*
X268857133Y-102462252D01*
X267666657Y-103462252D02*
X267999990Y-102986062D01*
X268238085Y-103462252D02*
X268238085Y-102462252D01*
X267857133Y-102462252D01*
X267761895Y-102509872D01*
X267714276Y-102557491D01*
X267666657Y-102652729D01*
X267666657Y-102795586D01*
X267714276Y-102890824D01*
X267761895Y-102938443D01*
X267857133Y-102986062D01*
X268238085Y-102986062D01*
X266666657Y-103462252D02*
X266999990Y-102986062D01*
X267238085Y-103462252D02*
X267238085Y-102462252D01*
X266857133Y-102462252D01*
X266761895Y-102509872D01*
X266714276Y-102557491D01*
X266666657Y-102652729D01*
X266666657Y-102795586D01*
X266714276Y-102890824D01*
X266761895Y-102938443D01*
X266857133Y-102986062D01*
X267238085Y-102986062D01*
X266285704Y-103414633D02*
X266142847Y-103462252D01*
X265904752Y-103462252D01*
X265809514Y-103414633D01*
X265761895Y-103367014D01*
X265714276Y-103271776D01*
X265714276Y-103176538D01*
X265761895Y-103081300D01*
X265809514Y-103033681D01*
X265904752Y-102986062D01*
X266095228Y-102938443D01*
X266190466Y-102890824D01*
X266238085Y-102843205D01*
X266285704Y-102747967D01*
X266285704Y-102652729D01*
X266238085Y-102557491D01*
X266190466Y-102509872D01*
X266095228Y-102462252D01*
X265857133Y-102462252D01*
X265714276Y-102509872D01*
D11*
%TO.C,S18*%
X227641000Y-98911500D02*
X227641000Y-102236500D01*
X227641000Y-98911500D02*
X226116000Y-98911500D01*
%TO.C,S7*%
X170641000Y-81911500D02*
X169116000Y-81911500D01*
X170641000Y-81911500D02*
X170641000Y-85236500D01*
%TO.C,S4*%
X151641000Y-65911500D02*
X150116000Y-65911500D01*
X151641000Y-65911500D02*
X151641000Y-69236500D01*
%TO.C,S22*%
X246641000Y-101911500D02*
X245116000Y-101911500D01*
X246641000Y-101911500D02*
X246641000Y-105236500D01*
%TO.C,S13*%
X208641000Y-113911500D02*
X208641000Y-117236500D01*
X208641000Y-113911500D02*
X207116000Y-113911500D01*
D12*
%TO.C,D19*%
X221628500Y-94611500D02*
X222128500Y-94611500D01*
X221028500Y-94611500D02*
X221628500Y-94211500D01*
X220628500Y-94611500D02*
X221028500Y-94611500D01*
X221628500Y-95011500D02*
X221028500Y-94611500D01*
X221028500Y-94611500D02*
X221028500Y-94061500D01*
X221628500Y-94211500D02*
X221628500Y-95011500D01*
X221028500Y-94611500D02*
X221028500Y-95161500D01*
%TO.C,D4*%
X145028500Y-80611500D02*
X145028500Y-80061500D01*
X145028500Y-80611500D02*
X145028500Y-81161500D01*
X145628500Y-81011500D02*
X145028500Y-80611500D01*
X145628500Y-80611500D02*
X146128500Y-80611500D01*
X145028500Y-80611500D02*
X145628500Y-80211500D01*
X144628500Y-80611500D02*
X145028500Y-80611500D01*
X145628500Y-80211500D02*
X145628500Y-81011500D01*
D11*
%TO.C,S11*%
X189641000Y-77911500D02*
X188116000Y-77911500D01*
X189641000Y-77911500D02*
X189641000Y-81236500D01*
%TO.C,S8*%
X170641000Y-62911500D02*
X169116000Y-62911500D01*
X170641000Y-62911500D02*
X170641000Y-66236500D01*
D12*
%TO.C,D21*%
X240628500Y-135211500D02*
X240628500Y-136011500D01*
X240028500Y-135611500D02*
X240028500Y-136161500D01*
X240628500Y-136011500D02*
X240028500Y-135611500D01*
X240028500Y-135611500D02*
X240028500Y-135061500D01*
X239628500Y-135611500D02*
X240028500Y-135611500D01*
X240028500Y-135611500D02*
X240628500Y-135211500D01*
X240628500Y-135611500D02*
X241128500Y-135611500D01*
%TO.C,D16*%
X202628500Y-71611500D02*
X203128500Y-71611500D01*
X202028500Y-71611500D02*
X202628500Y-71211500D01*
X201628500Y-71611500D02*
X202028500Y-71611500D01*
X202628500Y-71211500D02*
X202628500Y-72011500D01*
X202628500Y-72011500D02*
X202028500Y-71611500D01*
X202028500Y-71611500D02*
X202028500Y-72161500D01*
X202028500Y-71611500D02*
X202028500Y-71061500D01*
D10*
%TO.C,MCU1*%
X251488500Y-63631500D02*
X269268500Y-63631500D01*
X269268500Y-63631500D02*
X269268500Y-96651500D01*
X251488500Y-96651500D02*
X251488500Y-63631500D01*
X269268500Y-96651500D02*
X251488500Y-96651500D01*
D11*
%TO.C,S17*%
X227641000Y-117911500D02*
X226116000Y-117911500D01*
X227641000Y-117911500D02*
X227641000Y-121236500D01*
D12*
%TO.C,D5*%
X164628500Y-135011500D02*
X164028500Y-134611500D01*
X164028500Y-134611500D02*
X164028500Y-135161500D01*
X164028500Y-134611500D02*
X164028500Y-134061500D01*
X163628500Y-134611500D02*
X164028500Y-134611500D01*
X164628500Y-134211500D02*
X164628500Y-135011500D01*
X164628500Y-134611500D02*
X165128500Y-134611500D01*
X164028500Y-134611500D02*
X164628500Y-134211500D01*
%TO.C,D7*%
X164028500Y-96611500D02*
X164028500Y-96061500D01*
X164628500Y-96211500D02*
X164628500Y-97011500D01*
X163628500Y-96611500D02*
X164028500Y-96611500D01*
X164628500Y-97011500D02*
X164028500Y-96611500D01*
X164028500Y-96611500D02*
X164028500Y-97161500D01*
X164028500Y-96611500D02*
X164628500Y-96211500D01*
X164628500Y-96611500D02*
X165128500Y-96611500D01*
D11*
%TO.C,S12*%
X189641000Y-58911500D02*
X189641000Y-62236500D01*
X189641000Y-58911500D02*
X188116000Y-58911500D01*
D12*
%TO.C,D2*%
X145628500Y-119011500D02*
X145028500Y-118611500D01*
X145628500Y-118611500D02*
X146128500Y-118611500D01*
X145028500Y-118611500D02*
X145628500Y-118211500D01*
X145628500Y-118211500D02*
X145628500Y-119011500D01*
X145028500Y-118611500D02*
X145028500Y-118061500D01*
X144628500Y-118611500D02*
X145028500Y-118611500D01*
X145028500Y-118611500D02*
X145028500Y-119161500D01*
D11*
%TO.C,S10*%
X189641000Y-96911500D02*
X188116000Y-96911500D01*
X189641000Y-96911500D02*
X189641000Y-100236500D01*
%TO.C,S6*%
X170641000Y-100911500D02*
X170641000Y-104236500D01*
X170641000Y-100911500D02*
X169116000Y-100911500D01*
D12*
%TO.C,D14*%
X202628500Y-109211500D02*
X202628500Y-110011500D01*
X202628500Y-110011500D02*
X202028500Y-109611500D01*
X202028500Y-109611500D02*
X202028500Y-109061500D01*
X202028500Y-109611500D02*
X202028500Y-110161500D01*
X202028500Y-109611500D02*
X202628500Y-109211500D01*
X201628500Y-109611500D02*
X202028500Y-109611500D01*
X202628500Y-109611500D02*
X203128500Y-109611500D01*
%TO.C,D20*%
X221028500Y-75611500D02*
X221028500Y-75061500D01*
X221628500Y-76011500D02*
X221028500Y-75611500D01*
X221028500Y-75611500D02*
X221628500Y-75211500D01*
X221628500Y-75611500D02*
X222128500Y-75611500D01*
X220628500Y-75611500D02*
X221028500Y-75611500D01*
X221028500Y-75611500D02*
X221028500Y-76161500D01*
X221628500Y-75211500D02*
X221628500Y-76011500D01*
D11*
%TO.C,S2*%
X151641000Y-103911500D02*
X150116000Y-103911500D01*
X151641000Y-103911500D02*
X151641000Y-107236500D01*
D12*
%TO.C,D13*%
X202028500Y-128611500D02*
X202028500Y-129161500D01*
X202628500Y-128611500D02*
X203128500Y-128611500D01*
X202028500Y-128611500D02*
X202628500Y-128211500D01*
X202028500Y-128611500D02*
X202028500Y-128061500D01*
X202628500Y-128211500D02*
X202628500Y-129011500D01*
X201628500Y-128611500D02*
X202028500Y-128611500D01*
X202628500Y-129011500D02*
X202028500Y-128611500D01*
D11*
%TO.C,S20*%
X227641000Y-60911500D02*
X227641000Y-64236500D01*
X227641000Y-60911500D02*
X226116000Y-60911500D01*
D12*
%TO.C,D17*%
X221028500Y-132611500D02*
X221628500Y-132211500D01*
X221028500Y-132611500D02*
X221028500Y-132061500D01*
X221028500Y-132611500D02*
X221028500Y-133161500D01*
X221628500Y-132611500D02*
X222128500Y-132611500D01*
X220628500Y-132611500D02*
X221028500Y-132611500D01*
X221628500Y-132211500D02*
X221628500Y-133011500D01*
X221628500Y-133011500D02*
X221028500Y-132611500D01*
D11*
%TO.C,S19*%
X227641000Y-79911500D02*
X227641000Y-83236500D01*
X227641000Y-79911500D02*
X226116000Y-79911500D01*
%TO.C,S15*%
X208641000Y-75911500D02*
X208641000Y-79236500D01*
X208641000Y-75911500D02*
X207116000Y-75911500D01*
%TO.C,S27*%
X275154439Y-193421281D02*
X273962866Y-196525435D01*
X275154439Y-193421281D02*
X273730729Y-192874769D01*
D12*
%TO.C,D6*%
X164028500Y-115611500D02*
X164028500Y-115061500D01*
X164028500Y-115611500D02*
X164028500Y-116161500D01*
X163628500Y-115611500D02*
X164028500Y-115611500D01*
X164028500Y-115611500D02*
X164628500Y-115211500D01*
X164628500Y-116011500D02*
X164028500Y-115611500D01*
X164628500Y-115611500D02*
X165128500Y-115611500D01*
X164628500Y-115211500D02*
X164628500Y-116011500D01*
%TO.C,D18*%
X221028500Y-113611500D02*
X221028500Y-114161500D01*
X221628500Y-113611500D02*
X222128500Y-113611500D01*
X221028500Y-113611500D02*
X221028500Y-113061500D01*
X221028500Y-113611500D02*
X221628500Y-113211500D01*
X221628500Y-114011500D02*
X221028500Y-113611500D01*
X221628500Y-113211500D02*
X221628500Y-114011500D01*
X220628500Y-113611500D02*
X221028500Y-113611500D01*
%TO.C,D11*%
X183628500Y-92211500D02*
X183628500Y-93011500D01*
X183028500Y-92611500D02*
X183628500Y-92211500D01*
X183028500Y-92611500D02*
X183028500Y-92061500D01*
X183628500Y-93011500D02*
X183028500Y-92611500D01*
X183028500Y-92611500D02*
X183028500Y-93161500D01*
X183628500Y-92611500D02*
X184128500Y-92611500D01*
X182628500Y-92611500D02*
X183028500Y-92611500D01*
D11*
%TO.C,S21*%
X246641000Y-120911500D02*
X246641000Y-124236500D01*
X246641000Y-120911500D02*
X245116000Y-120911500D01*
%TO.C,S9*%
X189641000Y-115911500D02*
X189641000Y-119236500D01*
X189641000Y-115911500D02*
X188116000Y-115911500D01*
D12*
%TO.C,D22*%
X240028500Y-116611500D02*
X240628500Y-116211500D01*
X240028500Y-116611500D02*
X240028500Y-117161500D01*
X239628500Y-116611500D02*
X240028500Y-116611500D01*
X240628500Y-116611500D02*
X241128500Y-116611500D01*
X240028500Y-116611500D02*
X240028500Y-116061500D01*
X240628500Y-117011500D02*
X240028500Y-116611500D01*
X240628500Y-116211500D02*
X240628500Y-117011500D01*
%TO.C,D12*%
X183028500Y-73611500D02*
X183028500Y-73061500D01*
X183028500Y-73611500D02*
X183628500Y-73211500D01*
X183028500Y-73611500D02*
X183028500Y-74161500D01*
X183628500Y-74011500D02*
X183028500Y-73611500D01*
X182628500Y-73611500D02*
X183028500Y-73611500D01*
X183628500Y-73211500D02*
X183628500Y-74011500D01*
X183628500Y-73611500D02*
X184128500Y-73611500D01*
%TO.C,D25*%
X242415570Y-139911500D02*
X242415570Y-140711500D01*
X241415570Y-140311500D02*
X241815570Y-140311500D01*
X242415570Y-140311500D02*
X242915570Y-140311500D01*
X241815570Y-140311500D02*
X241815570Y-140861500D01*
X242415570Y-140711500D02*
X241815570Y-140311500D01*
X241815570Y-140311500D02*
X242415570Y-139911500D01*
X241815570Y-140311500D02*
X241815570Y-139761500D01*
%TO.C,D26*%
X264028500Y-147777964D02*
X264028500Y-148577964D01*
X263428500Y-148177964D02*
X264028500Y-147777964D01*
X263428500Y-148177964D02*
X263428500Y-147627964D01*
X263028500Y-148177964D02*
X263428500Y-148177964D01*
X263428500Y-148177964D02*
X263428500Y-148727964D01*
X264028500Y-148177964D02*
X264528500Y-148177964D01*
X264028500Y-148577964D02*
X263428500Y-148177964D01*
D11*
%TO.C,S23*%
X246641000Y-82911500D02*
X245116000Y-82911500D01*
X246641000Y-82911500D02*
X246641000Y-86236500D01*
D12*
%TO.C,D15*%
X202628500Y-90211500D02*
X202628500Y-91011500D01*
X202028500Y-90611500D02*
X202028500Y-90061500D01*
X201628500Y-90611500D02*
X202028500Y-90611500D01*
X202628500Y-90611500D02*
X203128500Y-90611500D01*
X202628500Y-91011500D02*
X202028500Y-90611500D01*
X202028500Y-90611500D02*
X202028500Y-91161500D01*
X202028500Y-90611500D02*
X202628500Y-90211500D01*
%TO.C,D23*%
X240028500Y-97611500D02*
X240628500Y-97211500D01*
X239628500Y-97611500D02*
X240028500Y-97611500D01*
X240628500Y-97211500D02*
X240628500Y-98011500D01*
X240628500Y-97611500D02*
X241128500Y-97611500D01*
X240028500Y-97611500D02*
X240028500Y-97061500D01*
X240628500Y-98011500D02*
X240028500Y-97611500D01*
X240028500Y-97611500D02*
X240028500Y-98161500D01*
%TO.C,D24*%
X239628500Y-78611500D02*
X240028500Y-78611500D01*
X240628500Y-78611500D02*
X241128500Y-78611500D01*
X240028500Y-78611500D02*
X240028500Y-78061500D01*
X240028500Y-78611500D02*
X240028500Y-79161500D01*
X240028500Y-78611500D02*
X240628500Y-78211500D01*
X240628500Y-79011500D02*
X240028500Y-78611500D01*
X240628500Y-78211500D02*
X240628500Y-79011500D01*
D11*
%TO.C,S16*%
X208641000Y-56911500D02*
X208641000Y-60236500D01*
X208641000Y-56911500D02*
X207116000Y-56911500D01*
%TO.C,S5*%
X170641000Y-119911500D02*
X169116000Y-119911500D01*
X170641000Y-119911500D02*
X170641000Y-123236500D01*
D12*
%TO.C,D27*%
X263466460Y-204775205D02*
X264169955Y-204616794D01*
X264169955Y-204616794D02*
X263883261Y-205363658D01*
X263466460Y-204775205D02*
X263663562Y-204261736D01*
X264026608Y-204990226D02*
X264493398Y-205169410D01*
X263093028Y-204631858D02*
X263466460Y-204775205D01*
X263883261Y-205363658D02*
X263466460Y-204775205D01*
X263466460Y-204775205D02*
X263269357Y-205288674D01*
D11*
%TO.C,S1*%
X151641000Y-122911500D02*
X151641000Y-126236500D01*
X151641000Y-122911500D02*
X150116000Y-122911500D01*
%TO.C,S14*%
X208641000Y-94911500D02*
X207116000Y-94911500D01*
X208641000Y-94911500D02*
X208641000Y-98236500D01*
D12*
%TO.C,D8*%
X164628500Y-77211500D02*
X164628500Y-78011500D01*
X164028500Y-77611500D02*
X164628500Y-77211500D01*
X164628500Y-78011500D02*
X164028500Y-77611500D01*
X164028500Y-77611500D02*
X164028500Y-77061500D01*
X163628500Y-77611500D02*
X164028500Y-77611500D01*
X164028500Y-77611500D02*
X164028500Y-78161500D01*
X164628500Y-77611500D02*
X165128500Y-77611500D01*
%TO.C,D10*%
X183028500Y-111611500D02*
X183028500Y-112161500D01*
X183628500Y-111611500D02*
X184128500Y-111611500D01*
X182628500Y-111611500D02*
X183028500Y-111611500D01*
X183028500Y-111611500D02*
X183028500Y-111061500D01*
X183628500Y-112011500D02*
X183028500Y-111611500D01*
X183028500Y-111611500D02*
X183628500Y-111211500D01*
X183628500Y-111211500D02*
X183628500Y-112011500D01*
%TO.C,D9*%
X183628500Y-131011500D02*
X183028500Y-130611500D01*
X182628500Y-130611500D02*
X183028500Y-130611500D01*
X183028500Y-130611500D02*
X183028500Y-131161500D01*
X183628500Y-130611500D02*
X184128500Y-130611500D01*
X183028500Y-130611500D02*
X183628500Y-130211500D01*
X183628500Y-130211500D02*
X183628500Y-131011500D01*
X183028500Y-130611500D02*
X183028500Y-130061500D01*
%TO.C,D1*%
X145028500Y-137611500D02*
X145028500Y-137061500D01*
X145028500Y-137611500D02*
X145628500Y-137211500D01*
X145028500Y-137611500D02*
X145028500Y-138161500D01*
X144628500Y-137611500D02*
X145028500Y-137611500D01*
X145628500Y-138011500D02*
X145028500Y-137611500D01*
X145628500Y-137611500D02*
X146128500Y-137611500D01*
X145628500Y-137211500D02*
X145628500Y-138011500D01*
%TO.C,D3*%
X145628500Y-99611500D02*
X146128500Y-99611500D01*
X144628500Y-99611500D02*
X145028500Y-99611500D01*
X145028500Y-99611500D02*
X145028500Y-99061500D01*
X145628500Y-99211500D02*
X145628500Y-100011500D01*
X145028500Y-99611500D02*
X145028500Y-100161500D01*
X145628500Y-100011500D02*
X145028500Y-99611500D01*
X145028500Y-99611500D02*
X145628500Y-99211500D01*
D11*
%TO.C,S3*%
X151641000Y-84911500D02*
X150116000Y-84911500D01*
X151641000Y-84911500D02*
X151641000Y-88236500D01*
%TO.C,S24*%
X246641000Y-63911500D02*
X246641000Y-67236500D01*
X246641000Y-63911500D02*
X245116000Y-63911500D01*
%TD*%
D13*
%TO.C,MCU1*%
X252758500Y-67441500D03*
D14*
X252758500Y-69981500D03*
X252758500Y-72521500D03*
X252758500Y-75061500D03*
X252758500Y-77601500D03*
X252758500Y-80141500D03*
X252758500Y-82681500D03*
X252758500Y-85221500D03*
X252758500Y-87761500D03*
X252758500Y-90301500D03*
X252758500Y-92841500D03*
X252758500Y-95381500D03*
X267998500Y-67441500D03*
X267998500Y-69981500D03*
X267998500Y-72521500D03*
X267998500Y-75061500D03*
X267998500Y-77601500D03*
X267998500Y-80141500D03*
X267998500Y-82681500D03*
X267998500Y-85221500D03*
X267998500Y-87761500D03*
X267998500Y-90301500D03*
X267998500Y-92841500D03*
X267998500Y-95381500D03*
%TD*%
%LPC*%
D15*
%TO.C,S18*%
X221378500Y-105411500D03*
D16*
X216298500Y-105411500D03*
X226458500Y-105411500D03*
D17*
X218838500Y-100331500D03*
D18*
X218215487Y-101573845D03*
D17*
X223918500Y-100331500D03*
D19*
X224541513Y-101573845D03*
%TD*%
D16*
%TO.C,S7*%
X159298500Y-88411500D03*
D15*
X164378500Y-88411500D03*
D16*
X169458500Y-88411500D03*
D17*
X161838500Y-83331500D03*
D18*
X161215487Y-84573845D03*
D19*
X167541513Y-84573845D03*
D17*
X166918500Y-83331500D03*
%TD*%
D16*
%TO.C,S4*%
X150458500Y-72411500D03*
D15*
X145378500Y-72411500D03*
D16*
X140298500Y-72411500D03*
D17*
X142838500Y-67331500D03*
D18*
X142215487Y-68573845D03*
D19*
X148541513Y-68573845D03*
D17*
X147918500Y-67331500D03*
%TD*%
D15*
%TO.C,S22*%
X240378500Y-108411500D03*
D16*
X235298500Y-108411500D03*
X245458500Y-108411500D03*
D17*
X237838500Y-103331500D03*
D18*
X237215487Y-104573845D03*
D19*
X243541513Y-104573845D03*
D17*
X242918500Y-103331500D03*
%TD*%
D15*
%TO.C,S13*%
X202378500Y-120411500D03*
D16*
X207458500Y-120411500D03*
X197298500Y-120411500D03*
D18*
X199215487Y-116573845D03*
D17*
X199838500Y-115331500D03*
D19*
X205541513Y-116573845D03*
D17*
X204918500Y-115331500D03*
%TD*%
D20*
%TO.C,D19*%
X225188500Y-94611500D03*
D21*
X219728500Y-94611500D03*
D22*
X217568500Y-94611500D03*
D21*
X223028500Y-94611500D03*
%TD*%
%TO.C,D4*%
X143728500Y-80611500D03*
D20*
X149188500Y-80611500D03*
D21*
X147028500Y-80611500D03*
D22*
X141568500Y-80611500D03*
%TD*%
D16*
%TO.C,S11*%
X188458500Y-84411500D03*
D15*
X183378500Y-84411500D03*
D16*
X178298500Y-84411500D03*
D18*
X180215487Y-80573845D03*
D17*
X180838500Y-79331500D03*
D19*
X186541513Y-80573845D03*
D17*
X185918500Y-79331500D03*
%TD*%
D16*
%TO.C,S8*%
X169458500Y-69411500D03*
X159298500Y-69411500D03*
D15*
X164378500Y-69411500D03*
D17*
X161838500Y-64331500D03*
D18*
X161215487Y-65573845D03*
D17*
X166918500Y-64331500D03*
D19*
X167541513Y-65573845D03*
%TD*%
D20*
%TO.C,D21*%
X244188500Y-135611500D03*
D21*
X238728500Y-135611500D03*
X242028500Y-135611500D03*
D22*
X236568500Y-135611500D03*
%TD*%
D20*
%TO.C,D16*%
X206188500Y-71611500D03*
D21*
X200728500Y-71611500D03*
D22*
X198568500Y-71611500D03*
D21*
X204028500Y-71611500D03*
%TD*%
D13*
%TO.C,MCU1*%
X252758500Y-67441500D03*
D14*
X252758500Y-69981500D03*
X252758500Y-72521500D03*
X252758500Y-75061500D03*
X252758500Y-77601500D03*
X252758500Y-80141500D03*
X252758500Y-82681500D03*
X252758500Y-85221500D03*
X252758500Y-87761500D03*
X252758500Y-90301500D03*
X252758500Y-92841500D03*
X252758500Y-95381500D03*
X267998500Y-67441500D03*
X267998500Y-69981500D03*
X267998500Y-72521500D03*
X267998500Y-75061500D03*
X267998500Y-77601500D03*
X267998500Y-80141500D03*
X267998500Y-82681500D03*
X267998500Y-85221500D03*
X267998500Y-87761500D03*
X267998500Y-90301500D03*
X267998500Y-92841500D03*
X267998500Y-95381500D03*
%TD*%
D16*
%TO.C,S17*%
X216298500Y-124411500D03*
D15*
X221378500Y-124411500D03*
D16*
X226458500Y-124411500D03*
D18*
X218215487Y-120573845D03*
D17*
X218838500Y-119331500D03*
D19*
X224541513Y-120573845D03*
D17*
X223918500Y-119331500D03*
%TD*%
D21*
%TO.C,D5*%
X162728500Y-134611500D03*
D20*
X168188500Y-134611500D03*
D21*
X166028500Y-134611500D03*
D22*
X160568500Y-134611500D03*
%TD*%
D20*
%TO.C,D7*%
X168188500Y-96611500D03*
D21*
X162728500Y-96611500D03*
X166028500Y-96611500D03*
D22*
X160568500Y-96611500D03*
%TD*%
D15*
%TO.C,S12*%
X183378500Y-65411500D03*
D16*
X178298500Y-65411500D03*
X188458500Y-65411500D03*
D17*
X180838500Y-60331500D03*
D18*
X180215487Y-61573845D03*
D19*
X186541513Y-61573845D03*
D17*
X185918500Y-60331500D03*
%TD*%
D21*
%TO.C,D2*%
X143728500Y-118611500D03*
D20*
X149188500Y-118611500D03*
D21*
X147028500Y-118611500D03*
D22*
X141568500Y-118611500D03*
%TD*%
D15*
%TO.C,S10*%
X183378500Y-103411500D03*
D16*
X178298500Y-103411500D03*
X188458500Y-103411500D03*
D17*
X180838500Y-98331500D03*
D18*
X180215487Y-99573845D03*
D17*
X185918500Y-98331500D03*
D19*
X186541513Y-99573845D03*
%TD*%
D16*
%TO.C,S6*%
X159298500Y-107411500D03*
X169458500Y-107411500D03*
D15*
X164378500Y-107411500D03*
D17*
X161838500Y-102331500D03*
D18*
X161215487Y-103573845D03*
D17*
X166918500Y-102331500D03*
D19*
X167541513Y-103573845D03*
%TD*%
D20*
%TO.C,D14*%
X206188500Y-109611500D03*
D21*
X200728500Y-109611500D03*
X204028500Y-109611500D03*
D22*
X198568500Y-109611500D03*
%TD*%
D21*
%TO.C,D20*%
X219728500Y-75611500D03*
D20*
X225188500Y-75611500D03*
D22*
X217568500Y-75611500D03*
D21*
X223028500Y-75611500D03*
%TD*%
D16*
%TO.C,S2*%
X140298500Y-110411500D03*
D15*
X145378500Y-110411500D03*
D16*
X150458500Y-110411500D03*
D17*
X142838500Y-105331500D03*
D18*
X142215487Y-106573845D03*
D17*
X147918500Y-105331500D03*
D19*
X148541513Y-106573845D03*
%TD*%
D21*
%TO.C,D13*%
X200728500Y-128611500D03*
D20*
X206188500Y-128611500D03*
D21*
X204028500Y-128611500D03*
D22*
X198568500Y-128611500D03*
%TD*%
D16*
%TO.C,S20*%
X226458500Y-67411500D03*
D15*
X221378500Y-67411500D03*
D16*
X216298500Y-67411500D03*
D17*
X218838500Y-62331500D03*
D18*
X218215487Y-63573845D03*
D19*
X224541513Y-63573845D03*
D17*
X223918500Y-62331500D03*
%TD*%
D23*
%TO.C, *%
X263778500Y-103111500D03*
X270778500Y-103111500D03*
D24*
X261078500Y-105411500D03*
X261078500Y-100811500D03*
X262178500Y-100811500D03*
X262178500Y-105411500D03*
X266178500Y-100811500D03*
X266178500Y-105411500D03*
X269178500Y-100811500D03*
X269178500Y-105411500D03*
%TD*%
D25*
%TO.C,S26*%
X255361152Y-175419816D03*
D15*
X242437230Y-179365530D03*
D25*
X259919799Y-170321499D03*
X256758145Y-184577917D03*
D15*
X250603303Y-156929429D03*
D16*
X256014891Y-166197217D03*
D15*
X254277429Y-170970856D03*
D16*
X252539967Y-175744495D03*
D25*
X264924218Y-162141816D03*
%TD*%
D20*
%TO.C,D17*%
X225188500Y-132611500D03*
D21*
X219728500Y-132611500D03*
X223028500Y-132611500D03*
D22*
X217568500Y-132611500D03*
%TD*%
D16*
%TO.C,S19*%
X216298500Y-86411500D03*
D15*
X221378500Y-86411500D03*
D16*
X226458500Y-86411500D03*
D18*
X218215487Y-82573845D03*
D17*
X218838500Y-81331500D03*
D19*
X224541513Y-82573845D03*
D17*
X223918500Y-81331500D03*
%TD*%
D16*
%TO.C,S15*%
X207458500Y-82411500D03*
D15*
X202378500Y-82411500D03*
D16*
X197298500Y-82411500D03*
D18*
X199215487Y-78573845D03*
D17*
X199838500Y-77331500D03*
D19*
X205541513Y-78573845D03*
D17*
X204918500Y-77331500D03*
%TD*%
D15*
%TO.C,S27*%
X266978500Y-197245274D03*
D16*
X271721089Y-199065783D03*
X262235911Y-195424765D03*
D26*
X265400865Y-192528992D03*
D17*
X266427715Y-191592431D03*
D27*
X271306720Y-194796038D03*
D17*
X271170303Y-193412940D03*
%TD*%
D20*
%TO.C,D6*%
X168188500Y-115611500D03*
D21*
X162728500Y-115611500D03*
X166028500Y-115611500D03*
D22*
X160568500Y-115611500D03*
%TD*%
D20*
%TO.C,D18*%
X225188500Y-113611500D03*
D21*
X219728500Y-113611500D03*
D22*
X217568500Y-113611500D03*
D21*
X223028500Y-113611500D03*
%TD*%
%TO.C,D11*%
X181728500Y-92611500D03*
D20*
X187188500Y-92611500D03*
D21*
X185028500Y-92611500D03*
D22*
X179568500Y-92611500D03*
%TD*%
D16*
%TO.C,S21*%
X235298500Y-127411500D03*
X245458500Y-127411500D03*
D15*
X240378500Y-127411500D03*
D17*
X237838500Y-122331500D03*
D18*
X237215487Y-123573845D03*
D19*
X243541513Y-123573845D03*
D17*
X242918500Y-122331500D03*
%TD*%
D28*
%TO.C, *%
X269378500Y-113611500D03*
%TD*%
D15*
%TO.C,S9*%
X183378500Y-122411500D03*
D16*
X178298500Y-122411500D03*
X188458500Y-122411500D03*
D17*
X180838500Y-117331500D03*
D18*
X180215487Y-118573845D03*
D19*
X186541513Y-118573845D03*
D17*
X185918500Y-117331500D03*
%TD*%
D20*
%TO.C,D22*%
X244188500Y-116611500D03*
D21*
X238728500Y-116611500D03*
X242028500Y-116611500D03*
D22*
X236568500Y-116611500D03*
%TD*%
D28*
%TO.C, *%
X130078500Y-142611500D03*
%TD*%
D21*
%TO.C,D12*%
X181728500Y-73611500D03*
D20*
X187188500Y-73611500D03*
D21*
X185028500Y-73611500D03*
D22*
X179568500Y-73611500D03*
%TD*%
D21*
%TO.C,D25*%
X240515570Y-140311500D03*
D20*
X245975570Y-140311500D03*
D21*
X243815570Y-140311500D03*
D22*
X238355570Y-140311500D03*
%TD*%
D21*
%TO.C,D26*%
X262128500Y-148177964D03*
D20*
X267588500Y-148177964D03*
D22*
X259968500Y-148177964D03*
D21*
X265428500Y-148177964D03*
%TD*%
D15*
%TO.C,S23*%
X240378500Y-89411500D03*
D16*
X235298500Y-89411500D03*
X245458500Y-89411500D03*
D17*
X237838500Y-84331500D03*
D18*
X237215487Y-85573845D03*
D19*
X243541513Y-85573845D03*
D17*
X242918500Y-84331500D03*
%TD*%
D28*
%TO.C, *%
X277978500Y-208611500D03*
%TD*%
D21*
%TO.C,D15*%
X200728500Y-90611500D03*
D20*
X206188500Y-90611500D03*
D22*
X198568500Y-90611500D03*
D21*
X204028500Y-90611500D03*
%TD*%
%TO.C,D23*%
X238728500Y-97611500D03*
D20*
X244188500Y-97611500D03*
D22*
X236568500Y-97611500D03*
D21*
X242028500Y-97611500D03*
%TD*%
%TO.C,D24*%
X238728500Y-78611500D03*
D20*
X244188500Y-78611500D03*
D22*
X236568500Y-78611500D03*
D21*
X242028500Y-78611500D03*
%TD*%
D28*
%TO.C, *%
X211378500Y-172311500D03*
%TD*%
D16*
%TO.C,S16*%
X207458500Y-63411500D03*
D15*
X202378500Y-63411500D03*
D16*
X197298500Y-63411500D03*
D18*
X199215487Y-59573845D03*
D17*
X199838500Y-58331500D03*
D19*
X205541513Y-59573845D03*
D17*
X204918500Y-58331500D03*
%TD*%
D15*
%TO.C,S5*%
X164378500Y-126411500D03*
D16*
X169458500Y-126411500D03*
X159298500Y-126411500D03*
D18*
X161215487Y-122573845D03*
D17*
X161838500Y-121331500D03*
D19*
X167541513Y-122573845D03*
D17*
X166918500Y-121331500D03*
%TD*%
D20*
%TO.C,D27*%
X267350154Y-206266016D03*
D29*
X262252805Y-204309327D03*
X265333621Y-205491941D03*
D30*
X260236272Y-203535252D03*
%TD*%
D16*
%TO.C,S1*%
X140298500Y-129411500D03*
D15*
X145378500Y-129411500D03*
D16*
X150458500Y-129411500D03*
D18*
X142215487Y-125573845D03*
D17*
X142838500Y-124331500D03*
X147918500Y-124331500D03*
D19*
X148541513Y-125573845D03*
%TD*%
D28*
%TO.C, *%
X130278500Y-65211500D03*
%TD*%
D15*
%TO.C,S25*%
X228990373Y-149062966D03*
D16*
X234401961Y-158330754D03*
D15*
X232664499Y-163104393D03*
X220824300Y-171499067D03*
D25*
X238306869Y-162455036D03*
X235145215Y-176711454D03*
X243311288Y-154275353D03*
X233748222Y-167553353D03*
D16*
X230927037Y-167878032D03*
%TD*%
D15*
%TO.C,S14*%
X202378500Y-101411500D03*
D16*
X197298500Y-101411500D03*
X207458500Y-101411500D03*
D17*
X199838500Y-96331500D03*
D18*
X199215487Y-97573845D03*
D19*
X205541513Y-97573845D03*
D17*
X204918500Y-96331500D03*
%TD*%
D21*
%TO.C,D8*%
X162728500Y-77611500D03*
D20*
X168188500Y-77611500D03*
D22*
X160568500Y-77611500D03*
D21*
X166028500Y-77611500D03*
%TD*%
%TO.C,D10*%
X181728500Y-111611500D03*
D20*
X187188500Y-111611500D03*
D22*
X179568500Y-111611500D03*
D21*
X185028500Y-111611500D03*
%TD*%
%TO.C,D9*%
X181728500Y-130611500D03*
D20*
X187188500Y-130611500D03*
D22*
X179568500Y-130611500D03*
D21*
X185028500Y-130611500D03*
%TD*%
%TO.C,D1*%
X143728500Y-137611500D03*
D20*
X149188500Y-137611500D03*
D22*
X141568500Y-137611500D03*
D21*
X147028500Y-137611500D03*
%TD*%
%TO.C,D3*%
X143728500Y-99611500D03*
D20*
X149188500Y-99611500D03*
D22*
X141568500Y-99611500D03*
D21*
X147028500Y-99611500D03*
%TD*%
D16*
%TO.C,S3*%
X150458500Y-91411500D03*
X140298500Y-91411500D03*
D15*
X145378500Y-91411500D03*
D18*
X142215487Y-87573845D03*
D17*
X142838500Y-86331500D03*
D19*
X148541513Y-87573845D03*
D17*
X147918500Y-86331500D03*
%TD*%
D15*
%TO.C,S24*%
X240378500Y-70411500D03*
D16*
X245458500Y-70411500D03*
X235298500Y-70411500D03*
D18*
X237215487Y-66573845D03*
D17*
X237838500Y-65331500D03*
X242918500Y-65331500D03*
D19*
X243541513Y-66573845D03*
%TD*%
D15*
%TO.C,S26*%
X257951555Y-185012283D03*
D16*
X256014891Y-166197217D03*
D25*
X250587513Y-173682354D03*
D15*
X266117628Y-162576182D03*
D25*
X243630640Y-179799896D03*
X250372522Y-166846574D03*
D15*
X254277429Y-170970856D03*
D25*
X251796713Y-157363795D03*
D16*
X252539967Y-175744495D03*
D31*
X251588745Y-163505027D03*
X249371289Y-177023901D03*
%TD*%
D15*
%TO.C,S25*%
X232664499Y-163104393D03*
X236338625Y-177145820D03*
D16*
X234401961Y-158330754D03*
D25*
X228759592Y-158980111D03*
X222017710Y-171933433D03*
D16*
X230927037Y-167878032D03*
D15*
X244504698Y-154709719D03*
D25*
X228974583Y-165815891D03*
X230183783Y-149497332D03*
D31*
X229975815Y-155638564D03*
X227758359Y-169157438D03*
%TD*%
M02*
