%TF.GenerationSoftware,KiCad,Pcbnew,(6.0.8)*%
%TF.CreationDate,2022-12-10T17:49:20-07:00*%
%TF.ProjectId,scaarix_flow,73636161-7269-4785-9f66-6c6f772e6b69,v1.0.0*%
%TF.SameCoordinates,Original*%
%TF.FileFunction,Profile,NP*%
%FSLAX46Y46*%
G04 Gerber Fmt 4.6, Leading zero omitted, Abs format (unit mm)*
G04 Created by KiCad (PCBNEW (6.0.8)) date 2022-12-10 17:49:20*
%MOMM*%
%LPD*%
G01*
G04 APERTURE LIST*
%TA.AperFunction,Profile*%
%ADD10C,0.150000*%
%TD*%
G04 APERTURE END LIST*
D10*
X173178500Y-55351500D02*
X173178500Y-55371500D01*
X280778500Y-209421500D02*
X280778500Y-151054916D01*
X137168500Y-60361500D02*
G75*
G03*
X135178500Y-62351500I0J-1990000D01*
G01*
X194568500Y-51361500D02*
G75*
G03*
X192578500Y-53351500I0J-1990000D01*
G01*
X171188500Y-57361500D02*
X156168500Y-57361500D01*
X129368500Y-62411500D02*
G75*
G03*
X127378500Y-64401500I0J-1990000D01*
G01*
X270388500Y-116411500D02*
G75*
G03*
X272378500Y-114421500I0J1990000D01*
G01*
X280810111Y-151023306D02*
X259482387Y-129695582D01*
X214465087Y-164195296D02*
X208580047Y-171208814D01*
X129368500Y-145411500D02*
X194406898Y-145411500D01*
X212278500Y-53351500D02*
G75*
G03*
X210288500Y-51361500I-1990000J0D01*
G01*
X259166139Y-127293440D02*
X264874367Y-117406500D01*
X192578500Y-53351500D02*
X192578500Y-53361500D01*
X135178500Y-62411500D02*
X129368500Y-62411500D01*
X214465038Y-164195255D02*
G75*
G03*
X214218016Y-161390221I-1524338J1279155D01*
G01*
X212278500Y-53371500D02*
G75*
G03*
X214268500Y-55361500I1990000J0D01*
G01*
X253178500Y-211229120D02*
X253178500Y-211411500D01*
X214218016Y-161390221D02*
X195684256Y-145875572D01*
X154178500Y-59351500D02*
X154178500Y-60361500D01*
X127378500Y-143421500D02*
G75*
G03*
X129368500Y-145411500I1990000J0D01*
G01*
X154178500Y-60361500D02*
X137168500Y-60361500D01*
X272378500Y-65901500D02*
G75*
G03*
X270388500Y-63911500I-1990000J0D01*
G01*
X253178500Y-211411500D02*
X278788500Y-211411500D01*
X208580091Y-171208851D02*
G75*
G03*
X208825329Y-174012390I1524409J-1279149D01*
G01*
X127378500Y-64401500D02*
X127378500Y-143421500D01*
X195684257Y-145875571D02*
G75*
G03*
X194406898Y-145411500I-1277357J-1525929D01*
G01*
X229658500Y-55361500D02*
X214268500Y-55361500D01*
X175168500Y-53361500D02*
G75*
G03*
X173178500Y-55351500I0J-1990000D01*
G01*
X230758437Y-56651505D02*
G75*
G03*
X232708500Y-58361500I1840263J131705D01*
G01*
X230758485Y-56651498D02*
G75*
G03*
X229658500Y-55361500I-1162985J122298D01*
G01*
X212278500Y-53371500D02*
X212278500Y-53351500D01*
X259166184Y-127293466D02*
G75*
G03*
X259482387Y-129695583I1723216J-995034D01*
G01*
X270388500Y-63911500D02*
X252468500Y-63911500D01*
X135178500Y-62351500D02*
X135178500Y-62411500D01*
X266597757Y-116411500D02*
X270388500Y-116411500D01*
X280778500Y-151054916D02*
X280810111Y-151023306D01*
X272378500Y-114421500D02*
X272378500Y-65901500D01*
X208825328Y-174012389D02*
X253178500Y-211229120D01*
X250478500Y-61921500D02*
G75*
G03*
X252468500Y-63911500I1990000J0D01*
G01*
X171188500Y-57361500D02*
G75*
G03*
X173178500Y-55371500I0J1990000D01*
G01*
X278788500Y-211411500D02*
G75*
G03*
X280778500Y-209421500I0J1990000D01*
G01*
X210288500Y-51361500D02*
X194568500Y-51361500D01*
X250478500Y-60351500D02*
G75*
G03*
X248488500Y-58361500I-1990000J0D01*
G01*
X192578500Y-53361500D02*
X175168500Y-53361500D01*
X250478500Y-61921500D02*
X250478500Y-60351500D01*
X156168500Y-57361500D02*
G75*
G03*
X154178500Y-59351500I0J-1990000D01*
G01*
X266597757Y-116411499D02*
G75*
G03*
X264874366Y-117406500I-57J-1989901D01*
G01*
X248488500Y-58361500D02*
X232708500Y-58361500D01*
M02*
