M48
; DRILL file {KiCad (6.0.8)} date Sat Dec 10 18:24:41 2022
; FORMAT={-:-/ absolute / inch / decimal}
; #@! TF.CreationDate,2022-12-10T18:24:41-07:00
; #@! TF.GenerationSoftware,Kicad,Pcbnew,(6.0.8)
; #@! TF.FileFunction,NonPlated,1,2,NPTH
FMAT,2
INCH
; #@! TA.AperFunction,NonPlated,NPTH,ComponentDrill
T1C0.0591
; #@! TA.AperFunction,NonPlated,NPTH,ComponentDrill
T2C0.0670
; #@! TA.AperFunction,NonPlated,NPTH,ComponentDrill
T3C0.0866
; #@! TA.AperFunction,NonPlated,NPTH,ComponentDrill
T4C0.1181
; #@! TA.AperFunction,NonPlated,NPTH,ComponentDrill
T5C0.1200
; #@! TA.AperFunction,NonPlated,NPTH,ComponentDrill
T6C0.1570
%
G90
G05
T1
X10.385Y-4.0595
X10.6606Y-4.0595
T2
X5.5236Y-2.8508
X5.5236Y-3.5989
X5.5236Y-4.3469
X5.5236Y-5.0949
X5.9236Y-2.8508
X5.9236Y-3.5989
X5.9236Y-4.3469
X5.9236Y-5.0949
X6.2716Y-2.7327
X6.2716Y-3.4808
X6.2716Y-4.2288
X6.2716Y-4.9768
X6.6716Y-2.7327
X6.6716Y-3.4808
X6.6716Y-4.2288
X6.6716Y-4.9768
X7.0196Y-2.5753
X7.0196Y-3.3233
X7.0196Y-4.0713
X7.0196Y-4.8194
X7.4196Y-2.5753
X7.4196Y-3.3233
X7.4196Y-4.0713
X7.4196Y-4.8194
X7.7677Y-2.4965
X7.7677Y-3.2445
X7.7677Y-3.9926
X7.7677Y-4.7406
X8.1677Y-2.4965
X8.1677Y-3.2445
X8.1677Y-3.9926
X8.1677Y-4.7406
X8.5157Y-2.654
X8.5157Y-3.402
X8.5157Y-4.1501
X8.5157Y-4.8981
X8.9157Y-2.654
X8.9157Y-3.402
X8.9157Y-4.1501
X8.9157Y-4.8981
X9.0916Y-6.6094
X9.0916Y-6.6094
X9.2284Y-6.2335
X9.2284Y-6.2335
X9.2637Y-2.7721
X9.2637Y-3.5201
X9.2637Y-4.2682
X9.2637Y-5.0162
X9.6637Y-2.7721
X9.6637Y-3.5201
X9.6637Y-4.2682
X9.6637Y-5.0162
X9.9425Y-6.9191
X9.9425Y-6.9191
X10.0793Y-6.5432
X10.0793Y-6.5432
X10.3242Y-7.6939
X10.6977Y-7.8372
T3
X5.1212Y-5.6146
X5.1291Y-2.5674
X8.322Y-6.7839
X10.6055Y-4.4729
X10.944Y-8.2131
T4
X5.5736Y-2.7508
X5.5736Y-3.4989
X5.5736Y-4.2469
X5.5736Y-4.9949
X5.6236Y-2.6508
X5.6236Y-3.3989
X5.6236Y-4.1469
X5.6236Y-4.8949
X5.8236Y-2.6508
X5.8236Y-3.3989
X5.8236Y-4.1469
X5.8236Y-4.8949
X5.8736Y-2.7508
X5.8736Y-3.4989
X5.8736Y-4.2469
X5.8736Y-4.9949
X6.3216Y-2.6327
X6.3216Y-3.3808
X6.3216Y-4.1288
X6.3216Y-4.8768
X6.3716Y-2.5327
X6.3716Y-3.2808
X6.3716Y-4.0288
X6.3716Y-4.7768
X6.5716Y-2.5327
X6.5716Y-3.2808
X6.5716Y-4.0288
X6.5716Y-4.7768
X6.6216Y-2.6327
X6.6216Y-3.3808
X6.6216Y-4.1288
X6.6216Y-4.8768
X7.0696Y-2.4753
X7.0696Y-3.2233
X7.0696Y-3.9713
X7.0696Y-4.7194
X7.1196Y-2.3753
X7.1196Y-3.1233
X7.1196Y-3.8713
X7.1196Y-4.6194
X7.3196Y-2.3753
X7.3196Y-3.1233
X7.3196Y-3.8713
X7.3196Y-4.6194
X7.3696Y-2.4753
X7.3696Y-3.2233
X7.3696Y-3.9713
X7.3696Y-4.7194
X7.8177Y-2.3965
X7.8177Y-3.1445
X7.8177Y-3.8926
X7.8177Y-4.6406
X7.8677Y-2.2965
X7.8677Y-3.0445
X7.8677Y-3.7926
X7.8677Y-4.5406
X8.0677Y-2.2965
X8.0677Y-3.0445
X8.0677Y-3.7926
X8.0677Y-4.5406
X8.1177Y-2.3965
X8.1177Y-3.1445
X8.1177Y-3.8926
X8.1177Y-4.6406
X8.5657Y-2.554
X8.5657Y-3.302
X8.5657Y-4.0501
X8.5657Y-4.7981
X8.6157Y-2.454
X8.6157Y-3.202
X8.6157Y-3.9501
X8.6157Y-4.6981
X8.8157Y-2.454
X8.8157Y-3.202
X8.8157Y-3.9501
X8.8157Y-4.6981
X8.8657Y-2.554
X8.8657Y-3.302
X8.8657Y-4.0501
X8.8657Y-4.7981
X9.3137Y-2.6721
X9.3137Y-3.4201
X9.3137Y-4.1682
X9.3137Y-4.9162
X9.3637Y-2.5721
X9.3637Y-3.3201
X9.3637Y-4.0682
X9.3637Y-4.8162
X9.5637Y-2.5721
X9.5637Y-3.3201
X9.5637Y-4.0682
X9.5637Y-4.8162
X9.6137Y-2.6721
X9.6137Y-3.4201
X9.6137Y-4.1682
X9.6137Y-4.9162
X10.4068Y-7.6184
X10.4893Y-7.543
X10.676Y-7.6147
X10.6868Y-7.726
T5
X8.7409Y-6.769
X9.0063Y-6.2591
X9.0147Y-6.5282
X9.0624Y-5.8857
X9.2027Y-6.5966
X9.2577Y-6.9571
X9.3822Y-6.3959
X9.5792Y-6.0738
X9.5918Y-7.0787
X9.8572Y-6.5688
X9.8657Y-6.8379
X9.9133Y-6.1954
X10.0536Y-6.9063
X10.1086Y-7.2668
X10.2331Y-6.7056
X10.4301Y-6.3835
T6
X5.7236Y-2.8508
X5.7236Y-3.5989
X5.7236Y-4.3469
X5.7236Y-5.0949
X6.4716Y-2.7327
X6.4716Y-3.4808
X6.4716Y-4.2288
X6.4716Y-4.9768
X7.2196Y-2.5753
X7.2196Y-3.3233
X7.2196Y-4.0713
X7.2196Y-4.8194
X7.9677Y-2.4965
X7.9677Y-3.2445
X7.9677Y-3.9926
X7.9677Y-4.7406
X8.6939Y-6.7519
X8.7157Y-2.654
X8.7157Y-3.402
X8.7157Y-4.1501
X8.7157Y-4.8981
X9.0154Y-5.8686
X9.16Y-6.4214
X9.16Y-6.4214
X9.3047Y-6.9742
X9.4637Y-2.7721
X9.4637Y-3.5201
X9.4637Y-4.2682
X9.4637Y-5.0162
X9.5448Y-7.0616
X9.6262Y-6.0909
X9.8663Y-6.1783
X10.0109Y-6.7311
X10.0109Y-6.7311
X10.1556Y-7.2839
X10.4771Y-6.4006
X10.511Y-7.7656
T0
M30
